<svg xmlns="http://www.w3.org/2000/svg" xmlns:xlink="http://www.w3.org/1999/xlink" width="48" height="44" viewBox="0 0 48 44">
    <defs>
        <path id="a" d="M0 .497h48v42.908H0z"/>
    </defs>
    <g fill="none" fill-rule="evenodd">
        <g transform="translate(0 .098)">
            <mask id="b" fill="#fff">
                <use xlink:href="#a"/>
            </mask>
            <path fill="#EA1C49" d="M39.32 31.56c-1.423.47-5.76.574-7.312.574h-1.61l.46 1.53c.061.199 1.482 4.903 2.122 6.804.045.136-.24.35-.523.457-.01.003-1.08.398-1.403-.349-.932-2.156-2.7-7.27-2.717-7.32l-.322-.913-.966.118c-.155.017-3.76.41-5.063-2.88.01-.194.06-.556.298-.79.357-.35 1.07-.367 1.604-.318 4.936.445 7.981-.975 8.35-3.895.355-2.813-1.449-5.133-4.706-6.055a1.202 1.202 0 0 0-1.484.816c-.183.632.186 1.29.824 1.47.993.283 3.273 1.183 2.985 3.474-.272 2.146-4.47 1.939-5.752 1.821-1.536-.137-2.73.209-3.543 1.031a3.368 3.368 0 0 0-.893 1.714c-1.724.296-5.716.648-7.098-2.092l-.332-.658h-5.87c-3.883 0-3.928-5.11-3.928-5.162 0-.174-.007-.39-.015-.645-.088-2.526-.294-8.443 5.939-13.009 3.18-2.33 6.979-3.613 10.748-4.138-2.44 1.805-2.982 4.036-3.018 4.195-.143.636.26 1.26.9 1.409a1.206 1.206 0 0 0 1.44-.882c.047-.193 1.24-4.65 9.013-4.65l.3.003c1.16.187 2.26.435 3.258.748.597.186 1.213.391 1.841.617-1.835 2.428-5.266 1.87-5.432 1.842a1.19 1.19 0 0 0-.432 2.34c.413.075.91.123 1.458.123 2.133 0 5.032-.732 6.686-3.397 4.994 2.213 9.965 6.061 10.427 13.61.215 3.527-.322 6.083-1.209 7.939l-.006.004c-.673.61-1.28.912-1.824.883-.987-.045-2.02-1.169-2.93-2.16-.884-.961-1.718-1.87-2.76-2.165a2.883 2.883 0 0 0-2.265.273c-1.687.966-2.362 3.476-2.434 3.758-.16.637.23 1.28.871 1.44a1.2 1.2 0 0 0 1.457-.86c.192-.746.725-1.947 1.308-2.28a.469.469 0 0 1 .404-.044c.385.109 1.084.87 1.644 1.48 1.047 1.139 2.325 2.525 4.013 2.86a8.378 8.378 0 0 1-2.503 1.328m8.629-12.6c-.172-2.82-.677-10.921-12.7-15.975a1.196 1.196 0 0 0-.444-.183A40.016 40.016 0 0 0 31.73 1.7a25.61 25.61 0 0 0-3.603-.822C28.1.871 28.07.868 28.042.863 21.557-.147 13.182.797 6.938 5.37-.31 10.68-.065 17.723.027 20.374c.007.222.014.41.014.563 0 3.03 1.686 7.54 6.329 7.54h4.435c2.31 3.479 7.157 3.087 9.28 2.717 1.487 2.83 4.322 3.635 6.275 3.675.552 1.573 1.747 4.93 2.489 6.644.572 1.325 1.807 1.892 3.037 1.892.49 0 .978-.09 1.424-.258 1.62-.61 2.42-2.02 1.947-3.431-.405-1.205-1.155-3.638-1.64-5.226 1.928-.047 5.024-.2 6.462-.674 2.588-.854 8.533-4.01 7.87-14.857" mask="url(#b)"/>
        </g>
        <path fill="#EA1C49" d="M41.165 20.806c-2.065.236-3.532-.11-4.358-1.027-1.41-1.569-.758-4.452-.746-4.505a1.189 1.189 0 0 0-.888-1.43 1.2 1.2 0 0 0-1.446.878c-.041.167-.966 4.118 1.278 6.628 1.134 1.268 2.803 1.906 4.976 1.906.464 0 .95-.03 1.46-.087a1.193 1.193 0 0 0 1.054-1.318 1.201 1.201 0 0 0-1.33-1.045M34.573 12.06c.04 0 .14-.006.286-.022 2.35-.27 3.563.34 4.166.897.792.732 1.155 1.943 1.079 3.598a1.193 1.193 0 0 0 1.2 1.244c.637 0 1.168-.498 1.198-1.135.109-2.384-.51-4.217-1.84-5.446-.971-.9-2.814-1.89-6.077-1.521l-.076.009a1.194 1.194 0 0 0-1.136 1.187c0 .657.537 1.19 1.2 1.19M30.321 11.512c-2.24 1.687-4.35 2.353-6.274 1.981-2.82-.545-4.435-3.176-4.464-3.225a1.208 1.208 0 0 0-1.64-.424 1.184 1.184 0 0 0-.431 1.627c.086.145 2.148 3.583 6.046 4.351a8.046 8.046 0 0 0 1.556.153c2.158 0 4.391-.86 6.659-2.568.528-.398.63-1.144.23-1.667a1.208 1.208 0 0 0-1.682-.228M13.09 17.35a1.187 1.187 0 0 0-.823 1.468c.18.63.842.999 1.482.82.987-.276 4.096-.8 5.376.38.66.612.826 1.726.492 3.314a1.19 1.19 0 0 0 1.176 1.432c.556 0 1.056-.386 1.173-.946.517-2.462.111-4.326-1.21-5.543-2.498-2.301-7.144-1.073-7.666-.925M11.903 22.409c-3.84.76-5.98-3.028-6.078-3.207a1.205 1.205 0 0 0-1.623-.487 1.184 1.184 0 0 0-.494 1.609c.916 1.7 3.491 4.563 7.201 4.563.47 0 .959-.046 1.465-.146a1.19 1.19 0 0 0 .941-1.4 1.2 1.2 0 0 0-1.412-.932M6.368 17.777c.021 0 .043 0 .065-.002a1.193 1.193 0 0 0 1.135-1.25c0-.018-.06-1.852 1.218-3.132.975-.974 2.519-1.425 4.582-1.334l.053.002c.639 0 1.17-.5 1.198-1.138a1.193 1.193 0 0 0-1.147-1.24c-2.766-.116-4.92.565-6.39 2.036-2.04 2.04-1.917 4.814-1.91 4.931a1.194 1.194 0 0 0 1.196 1.127"/>
    </g>
</svg>
