<svg xmlns="http://www.w3.org/2000/svg" width="48" height="48" viewBox="0 0 48 48">
    <g fill="#000" fill-rule="evenodd" opacity=".5">
        <path d="M0 48h48V0H0v48zm2.4-37.05h43.2V2.4H2.4v8.55zm0 34.65h43.2V13.35H2.4V45.6z"/>
        <path d="M7.2 8.4c.99 0 1.8-.81 1.8-1.8s-.81-1.8-1.8-1.8-1.8.81-1.8 1.8.81 1.8 1.8 1.8M13.2 8.4c.99 0 1.8-.81 1.8-1.8s-.81-1.8-1.8-1.8-1.8.81-1.8 1.8.81 1.8 1.8 1.8M19.2 8.4c.99 0 1.8-.81 1.8-1.8s-.81-1.8-1.8-1.8-1.8.81-1.8 1.8.81 1.8 1.8 1.8M17.4 22.2l3.901 14.563 4.483-4.482 5.468 5.467 1.697-1.696-5.468-5.468 4.482-4.483z"/>
    </g>
</svg>
