<svg xmlns="http://www.w3.org/2000/svg" xmlns:xlink="http://www.w3.org/1999/xlink" width="48" height="44" viewBox="0 0 48 44">
    <defs>
        <path id="a" d="M0 .502h48V43.8H0z"/>
    </defs>
    <g fill="none" fill-rule="evenodd" opacity=".5">
        <g transform="translate(0 .099)">
            <mask id="b" fill="#fff">
                <use xlink:href="#a"/>
            </mask>
            <path fill="#000" d="M39.32 31.846c-1.423.475-5.76.58-7.312.58h-1.61l.46 1.544c.061.2 1.482 4.947 2.122 6.866.045.137-.24.352-.523.46-.01.004-1.08.402-1.403-.35-.932-2.177-2.7-7.336-2.717-7.388l-.322-.92-.966.118c-.155.017-3.76.413-5.063-2.907.01-.195.06-.56.298-.796.357-.354 1.07-.37 1.604-.32 4.936.447 7.981-.985 8.35-3.932.355-2.838-1.449-5.18-4.706-6.11a1.2 1.2 0 0 0-.66 2.308c.993.284 3.273 1.193 2.985 3.504-.272 2.166-4.47 1.957-5.752 1.838-1.536-.138-2.73.21-3.543 1.04a3.41 3.41 0 0 0-.893 1.73c-1.724.3-5.716.654-7.098-2.11l-.332-.665h-5.87c-3.883 0-3.928-5.157-3.928-5.209 0-.176-.007-.394-.015-.65-.088-2.55-.294-8.52 5.939-13.128 3.18-2.35 6.979-3.646 10.748-4.175-2.44 1.821-2.982 4.072-3.018 4.232a1.194 1.194 0 0 0 1.17 1.454c.542 0 1.036-.373 1.17-.921.047-.195 1.24-4.692 9.013-4.692.099 0 .199 0 .3.003 1.16.188 2.26.438 3.258.754.597.188 1.213.395 1.841.623-1.835 2.45-5.266 1.887-5.432 1.858a1.2 1.2 0 0 0-.432 2.361c.413.077.91.125 1.458.125 2.133 0 5.032-.739 6.686-3.428 4.994 2.233 9.965 6.116 10.427 13.734.215 3.56-.322 6.138-1.209 8.01l-.006.005c-.673.616-1.28.92-1.824.89-.987-.045-2.02-1.178-2.93-2.178-.884-.97-1.718-1.888-2.76-2.185a2.86 2.86 0 0 0-2.265.275c-1.687.975-2.362 3.507-2.434 3.792-.16.643.23 1.292.871 1.453a1.199 1.199 0 0 0 1.457-.868c.192-.753.725-1.964 1.308-2.3a.465.465 0 0 1 .404-.045c.385.11 1.084.878 1.644 1.493 1.047 1.15 2.325 2.548 4.013 2.886a8.352 8.352 0 0 1-2.503 1.341m8.629-12.714c-.172-2.846-.677-11.021-12.7-16.12a1.193 1.193 0 0 0-.444-.185 39.78 39.78 0 0 0-3.076-1.112 25.415 25.415 0 0 0-3.603-.83C28.1.88 28.07.876 28.042.871 21.557-.148 13.182.805 6.938 5.42-.31 10.777-.065 17.884.027 20.56c.007.224.014.415.014.568 0 3.058 1.686 7.61 6.329 7.61h4.435c2.31 3.51 7.157 3.114 9.28 2.74 1.487 2.856 4.322 3.669 6.275 3.71.552 1.586 1.747 4.973 2.489 6.704.572 1.337 1.807 1.91 3.037 1.91.49 0 .978-.092 1.424-.261 1.62-.616 2.42-2.04 1.947-3.463-.405-1.216-1.155-3.67-1.64-5.273 1.928-.048 5.024-.201 6.462-.68 2.588-.862 8.533-4.048 7.87-14.992" mask="url(#b)"/>
        </g>
        <path fill="#000" d="M41.165 20.995c-2.065.239-3.532-.11-4.358-1.036-1.41-1.583-.758-4.493-.746-4.546a1.2 1.2 0 0 0-2.334-.557c-.041.169-.966 4.155 1.278 6.688 1.134 1.28 2.803 1.923 4.976 1.923.464 0 .95-.029 1.46-.087a1.201 1.201 0 0 0-.276-2.385M34.573 12.17c.04 0 .14-.006.286-.022 2.35-.273 3.563.342 4.166.905.792.738 1.155 1.96 1.079 3.63a1.2 1.2 0 1 0 2.398.11c.109-2.405-.51-4.255-1.84-5.495-.971-.908-2.814-1.907-6.077-1.535l-.076.009a1.2 1.2 0 0 0 .064 2.398M30.321 11.617c-2.24 1.702-4.35 2.374-6.274 2-2.82-.551-4.435-3.207-4.464-3.255a1.202 1.202 0 0 0-2.071 1.213c.086.147 2.148 3.616 6.046 4.391a7.976 7.976 0 0 0 1.556.154c2.158 0 4.391-.868 6.659-2.592a1.2 1.2 0 0 0-1.452-1.911M13.09 17.508a1.2 1.2 0 0 0 .659 2.308c.987-.278 4.096-.808 5.376.385.66.616.826 1.74.492 3.343a1.2 1.2 0 1 0 2.35.49c.516-2.484.11-4.365-1.211-5.593-2.498-2.322-7.144-1.083-7.666-.933M11.903 22.613c-3.84.768-5.98-3.056-6.078-3.237a1.2 1.2 0 0 0-2.117 1.132c.916 1.717 3.491 4.605 7.201 4.605.47 0 .959-.046 1.465-.147a1.2 1.2 0 0 0-.471-2.353M6.368 17.939l.065-.002a1.2 1.2 0 0 0 1.135-1.261c0-.019-.06-1.87 1.218-3.161.975-.983 2.519-1.438 4.582-1.346l.053.001a1.2 1.2 0 0 0 .051-2.399c-2.766-.117-4.92.57-6.39 2.055-2.04 2.058-1.917 4.857-1.91 4.976a1.2 1.2 0 0 0 1.196 1.137"/>
    </g>
</svg>
