<svg xmlns="http://www.w3.org/2000/svg" xmlns:xlink="http://www.w3.org/1999/xlink" width="47" height="48" viewBox="0 0 47 48">
    <defs>
        <path id="a" d="M0 .339h46.577v47.083H0z"/>
    </defs>
    <g fill="none" fill-rule="evenodd">
        <path fill="#000" d="M12.463 26.024h12.983V13.041H12.463v12.983zm-2.314 2.313h17.61v-17.61h-17.61v17.61z"/>
        <path fill="#000" d="M16.312 22.174h5.283V16.89h-5.283z"/>
        <g transform="translate(0 .24)">
            <mask id="b" fill="#fff">
                <use xlink:href="#a"/>
            </mask>
            <path fill="#000" d="M18.954 35.934c-4.445 0-8.624-1.731-11.767-4.874-6.488-6.488-6.488-17.045 0-23.534a16.532 16.532 0 0 1 11.767-4.874 16.53 16.53 0 0 1 11.767 4.874c6.488 6.489 6.488 17.046 0 23.534a16.53 16.53 0 0 1-11.767 4.874zm13.967-3.804l-.562.563c7.4-7.402 7.4-19.401-.002-26.802A18.896 18.896 0 0 0 18.954.339c-4.85 0-9.701 1.85-13.402 5.552-7.403 7.401-7.403 19.403 0 26.804a18.894 18.894 0 0 0 13.402 5.552c4.85 0 9.7-1.85 13.4-5.55l-1.068 1.069 13.656 13.656 1.635-1.636L32.921 32.13z" mask="url(#b)"/>
        </g>
    </g>
</svg>
