<svg id="Layer_1" xmlns="http://www.w3.org/2000/svg" viewBox="0 0 182 182"><style>.st0{fill:#fff0cd}.st1{fill:#ffffe6}.st2{fill:none;stroke:#f49782;stroke-width:3;stroke-linecap:round;stroke-linejoin:round;stroke-miterlimit:10}.st3{fill:#f49782}.st4{fill:none;stroke:#f49782;stroke-width:3;stroke-linecap:round;stroke-linejoin:round;stroke-miterlimit:10;stroke-dasharray:.25,10}</style><g id="XMLID_2443_"><path id="XMLID_2484_" class="st0" d="M114.2 154.1c-.3 7.8-6 11.3-11.6 14-5.7 2.8-11.7 4.9-12 12.8.3-7.5-5.7-10.5-11.1-13.8-5.1-3.1-10.3-6.3-10.4-13.4 0-.3-.3-1.2 0-1 21 9.8 45.1 1.4 45.1 1.4z"/><path id="XMLID_2482_" class="st0" d="M71.1 28.3c-.3.1 0-.7 0-1 .5-7.1 6-9.9 11.2-12.6 5.6-2.9 11.7-5.6 12-13-.3 7.7 5.6 10.3 11.1 13.5 5.4 3.1 10.9 6.9 10.6 14.7.2.1-23.3-9.9-44.9-1.6z"/><path id="XMLID_2480_" class="st0" d="M117.5 31c-.3-.2.5-.5.8-.7 5.4-4.6 11.2-2.7 16.9-.9 6 2 12.3 4.5 17.7-.6-5.7 5.2-3.4 11.2-1.7 17.4 1.6 6 2.7 12.6-3 17.9-.1 0-9.6-23.7-30.7-33.1z"/><path id="XMLID_2478_" class="st0" d="M154 68c-.2-.3.7 0 1 0 7.1.4 9.9 5.8 12.8 11.1 2.9 5.6 5.7 11.7 13.2 11.9-7.8-.2-10.3 5.7-13.5 11.2-3 5.4-6.9 11-14.7 10.8 0 .2 9.8-23.4 1.2-45z"/><path id="XMLID_2476_" class="st0" d="M152.7 118.1c.2-.3.5.5.8.8 4.9 5.2 3.2 11.1 1.6 16.8-1.7 6.1-3.9 12.3 1.4 17.6-5.6-5.6-11.4-2.9-17.5-1-5.9 1.7-12.5 3.3-18.1-2.2 0-.1 23.3-10.5 31.8-32z"/><path id="XMLID_2474_" class="st0" d="M33.8 64.4c-5.7-5.4-4.6-11.9-3-17.9 1.6-6.2 3.9-12.1-1.7-17.4 5.5 5.1 11.7 2.6 17.7.6 5.7-1.7 11.5-3.7 16.9.9.3.3 1.1.5.8.7-21.1 9.4-30.7 33.1-30.7 33.1z"/><path id="XMLID_2472_" class="st0" d="M29.1 115.7c-7.8.2-11.6-5.4-14.7-10.8C11.3 99.3 8.8 93.4 1 93.6c7.5-.2 10.2-6.3 13.2-11.9C17 76.5 19.9 71 27 70.6c.3 0 1.2-.3 1 0-8.7 21.4 1.1 45.1 1.1 45.1z"/><path id="XMLID_2470_" class="st0" d="M64 153.2c-5.5 5.5-12.2 4.1-18.1 2.2-6.2-1.9-11.9-4.5-17.5 1 5.2-5.2 3.1-11.6 1.4-17.6-1.6-5.7-3.3-11.6 1.6-16.8.3-.3.6-1 .8-.8 8.3 21.6 31.8 32 31.8 32z"/><path id="XMLID_2469_" class="st1" d="M85.9 133.8c-26.7 0-48.4-21.7-48.4-48.4S59.1 37 85.9 37c0 0-33 14.8-31.1 49.4 2 35.5 31.1 47.4 31.1 47.4z"/><g id="XMLID_2444_"><path id="XMLID_2468_" class="st2" d="M165.5 76.9c-3.2-5.6-6.3-11.3-14.4-11.1l-1.7-2.5c5.7-5.7 4.2-12.3 2.3-18.5-2-6.3-4.6-12.3 1.1-17.9-5.4 5.4-11.9 3.1-18.2 1.4-6.2-1.7-12.5-3.5-18 2.4l.2.2c-1.2-.5-2.3-1.5-2.3-1.5 0-8-5.8-11.7-11.5-14.7-5.8-3.1-11.9-5.4-11.9-13.5 0 7.7-6.3 10.6-11.9 13.8-5.6 3.1-11.3 6.3-11.1 14.4 0 0-1.1.9-2.1 1.4l.1-.1c-5.5-5.8-11.9-4.1-18-2.4-6.3 1.7-12.7 4-18.2-1.4 5.7 5.7 3.1 11.7 1.1 17.9-2 6.1-3.4 12.8 2 18.4-.6 1.3-1.6 2.6-1.6 2.6-8.2-.3-11.4 5.4-14.4 11.1-3.2 5.7-6.1 11.8-13.8 11.8 8.1 0 10.4 6.1 13.5 11.9 3 5.7 6.8 11.4 14.7 11.4 0 0 1 1.3 1.6 2.6-5.7 5.5-4 11.8-2.3 17.9 1.7 6.2 4 12.7-1.4 18.2 5.7-5.7 11.7-3.1 18-1.1 6.1 1.9 12.9 3.3 18.5-2.3l-.1-.1c1.1.4 2.1 1.3 2.1 1.3-.3 8.1 5.5 11.2 11.1 14.4 5.9 3.1 12 6 12 13.7 0-8.1 6.1-10.4 11.9-13.5 5.7-3 11.5-6.7 11.5-14.7 0 0 1.3-1 2.6-1.6 5.7 5.6 12.3 4.1 18.4 2.2 6.3-2 12.3-4.5 18 1.1-5.4-5.4-3.1-11.9-1.4-18.2 1.7-6.2 3.5-12.5-2.4-18l1.3-2.1c8 0 11.7-5.8 14.7-11.4 3.1-5.8 5.4-11.9 13.5-11.9-7.5.2-10.5-6.1-13.5-11.6z"/><path id="XMLID_2466_" class="st2" d="M122.7 113c0 3 .5 5.9 1.5 8.7-2.7-.9-5.7-1.5-8.7-1.5-10.6 0-19.9 6.3-24.2 15.2-4.4-9-13.5-15.2-24.2-15.2-3 0-5.9.5-8.7 1.5.9-2.7 1.5-5.7 1.5-8.7 0-10.6-6.3-19.8-15.2-24.2 9-4.4 15.2-13.5 15.2-24.2 0-3-.5-5.9-1.5-8.7 2.7.9 5.7 1.5 8.7 1.5 10.6 0 19.9-6.3 24.2-15.2 4.4 9 13.5 15.2 24.2 15.2 3 0 5.9-.5 8.7-1.5-.9 2.7-1.5 5.7-1.5 8.7 0 10.6 6.3 19.8 15.2 24.2-9 4.4-15.2 13.7-15.2 24.2z"/><g id="XMLID_2449_"><path id="XMLID_2464_" class="st2" d="M151.1 65.8c8.1-.3 11.3 5.5 14.4 11.1 3.2 5.7 6.1 11.8 13.8 11.8-8.1 0-10.4 6.1-13.5 11.9-3 5.7-6.8 11.4-14.7 11.4"/><path id="XMLID_2462_" class="st2" d="M31.8 112c-8 0-11.7-5.8-14.7-11.4-3.1-5.8-5.4-12-13.5-12 7.7 0 10.6-6.3 13.8-11.8 3.2-5.6 6.3-11.3 14.4-11.1"/><path id="XMLID_2460_" class="st2" d="M68.2 29.4c-.3-8.1 5.5-11.2 11.1-14.4 5.6-3.2 11.9-6.1 11.9-13.8 0 8.1 6.1 10.4 11.9 13.5 5.7 3 11.5 6.7 11.5 14.7"/><path id="XMLID_2458_" class="st2" d="M114.5 148.4c0 8-5.8 11.7-11.5 14.7-5.8 3.1-11.9 5.4-11.9 13.5 0-7.7-6.3-10.6-11.9-13.8-5.6-3.1-11.3-6.3-11.1-14.4"/><path id="XMLID_2456_" class="st2" d="M116.6 30.7c5.5-5.8 11.9-4.1 18-2.4 6.3 1.7 12.7 4 18.2-1.4-5.7 5.7-3.1 11.7-1.1 17.9 1.9 6.1 3.3 12.9-2.3 18.5"/><path id="XMLID_2454_" class="st2" d="M66.1 147.2c-5.7 5.7-12.3 4.2-18.5 2.3-6.3-2-12.3-4.5-18 1.1 5.4-5.4 3.1-11.9 1.4-18.2-1.7-6.2-3.5-12.5 2.4-18"/><path id="XMLID_2452_" class="st2" d="M33.3 63.3C27.6 57.6 29.1 51 31 44.8c2-6.3 4.6-12.3-1.1-17.9 5.4 5.4 11.9 3.1 18.2 1.4 6.2-1.7 12.5-3.5 18 2.4"/><path id="XMLID_2450_" class="st2" d="M149.7 114.1c5.9 5.5 4.1 11.8 2.4 18-1.7 6.2-4 12.7 1.4 18.2-5.7-5.7-11.7-3.1-18-1.1-6.1 1.9-12.9 3.3-18.5-2.3"/></g><path id="XMLID_2448_" class="st3" d="M102.5 69.2c.1 0 .1 0 0 0 .8 1.5 1.5 2.5 2.1 3.9h-8.9v7.7H84.9c-1.1 0-1.9 1-2.1 1.7-.1.8-.1 1.5.4 2.1.4.6.9.9 1.6.9.9.1 1.9-.1 2.8-.3 1.1-.2 2.1-.3 3.3-.4 1.7-.2 3.3.3 4.7 1.2 1.5 1 2.4 2.6 2.7 4.4.2 1.5 0 3-.6 4.4-.3.8-.8 1.5-1.4 2.1-.6.5-1.1 1.2-1.7 1.6-.9.7-2 1.1-3.1 1.4-.9.2-1.6.2-2.5.3-.1 0-.3.1-.4.1 1.5 2.3 2.8 4.6 4.2 6.9-.3.3-.7.4-1 .7-1.1.8-2.7.4-3.3-.8-1.1-2.1-2.3-4.1-3.4-6.2-.2-.3-.3-.6-.4-.9-.1-.3-.3-.3-.4-.3-1.5-.3-2.7-1.4-3.9-2.4-.3-.3-.6-.7-.9-1-.1-.1-.1-.3 0-.3.8-.9 1.6-1.7 2.5-2.6.7.9 1.4 1.5 2.2 2.1s1.7.8 2.8 1c.8.1 1.5 0 2.4-.1.8-.1 1.5-.3 2.2-.4 1.6-.4 2.8-1.5 3.3-3.2.3-1.4.2-2.7-1.1-3.7-.7-.5-1.5-.8-2.3-.6-1.2.2-2.5.4-3.7.6-1.7.3-3.6.2-5.2-.8-1.6-.9-2.6-2.2-2.9-3.9-.3-1.7-.2-3.5.9-5.1.7-1.1 1.7-1.7 2.9-2.1.3-.1 1-.2 1.4-.2h7.3v-4h-12c0-.3-2.1-3.9-2.1-3.9l24.4.1z"/><ellipse id="XMLID_2447_" class="st2" cx="91.4" cy="89" rx="63.1" ry="63.2"/><ellipse id="XMLID_2446_" class="st2" cx="91.4" cy="89" rx="51.6" ry="51.7"/><ellipse id="XMLID_2445_" class="st4" cx="91.4" cy="89" rx="57.5" ry="57.6"/></g></g></svg>