<svg xmlns="http://www.w3.org/2000/svg" xmlns:xlink="http://www.w3.org/1999/xlink" width="1321" height="365" viewBox="0 0 1321 365">
    <defs>
        <path id="a" d="M.675.77h41.452v32.212H.675z"/>
    </defs>
    <g fill="none" fill-rule="evenodd">
        <g stroke="#00C5C5" stroke-linecap="round" stroke-linejoin="round" stroke-width=".952">
            <path d="M231 6.28v.002c-8.133 5.152-18.59 5.152-26.72 0l-2.235-1.417c-8.135-5.153-18.587-5.153-26.72 0l-2.237 1.417c-8.13 5.152-18.587 5.152-26.72 0V6.28c-9.232-5.85-21.296-4.99-29.57 2.108l-.502.431-1.594 1.314c-8.13 5.156-18.587 5.156-26.72 0l-2.234-1.417c-8.134-5.151-18.588-5.151-26.719 0l-2.236 1.417c-8.134 5.156-18.59 5.156-26.72 0-9.233-5.85-21.297-4.989-29.57 2.11l-.503.43M231 26.282c-8.133 5.153-18.59 5.153-26.72 0l-2.235-1.417c-8.135-5.153-18.587-5.153-26.72 0l-2.237 1.417c-8.13 5.153-18.587 5.153-26.72 0-9.232-5.85-21.296-4.99-29.57 2.108l-.502.431-1.594 1.314c-8.13 5.153-18.587 5.153-26.72 0l-2.234-1.417c-8.134-5.153-18.588-5.153-26.719 0l-2.236 1.417c-8.134 5.153-18.59 5.153-26.72 0-9.233-5.852-21.297-4.991-29.57 2.11L0 32.672M231 44.28c-8.133 5.154-18.59 5.154-26.72 0l-2.235-1.417c-8.135-5.15-18.587-5.15-26.72 0l-2.237 1.417c-8.13 5.154-18.587 5.154-26.72 0-9.232-5.85-21.296-4.989-29.57 2.108l-.502.431-1.594 1.315c-8.13 5.155-18.587 5.155-26.72 0l-2.234-1.417c-8.134-5.152-18.588-5.152-26.719 0l-2.236 1.417c-8.134 5.155-18.59 5.155-26.72 0-9.233-5.85-21.297-4.99-29.57 2.11L0 50.672M231 64.282c-8.133 5.154-18.59 5.154-26.72 0l-2.235-1.417c-8.135-5.153-18.587-5.153-26.72 0l-2.237 1.417c-8.13 5.154-18.587 5.154-26.72 0-9.232-5.852-21.296-4.991-29.57 2.108l-.502.43-1.594 1.313c-8.13 5.156-18.587 5.156-26.72 0l-2.234-1.417c-8.134-5.151-18.588-5.151-26.719 0l-2.236 1.417c-8.134 5.156-18.59 5.156-26.72 0-9.233-5.85-21.297-4.989-29.57 2.11l-.503.43M231 83.282c-8.133 5.153-18.59 5.153-26.72 0l-2.235-1.417c-8.135-5.153-18.587-5.153-26.72 0l-2.237 1.417c-8.13 5.153-18.587 5.153-26.72 0-9.232-5.852-21.296-4.99-29.57 2.108l-.502.431-1.594 1.314c-8.13 5.153-18.587 5.153-26.72 0l-2.234-1.417c-8.134-5.153-18.588-5.153-26.719 0l-2.236 1.417c-8.134 5.153-18.59 5.153-26.72 0-9.233-5.852-21.297-4.991-29.57 2.11L0 89.672M231 103.282c-8.133 5.153-18.59 5.153-26.72 0l-2.235-1.417c-8.135-5.153-18.587-5.153-26.72 0l-2.237 1.417c-8.13 5.153-18.587 5.153-26.72 0-9.232-5.85-21.296-4.99-29.57 2.108l-.502.431-1.594 1.314c-8.13 5.153-18.587 5.153-26.72 0l-2.234-1.417c-8.134-5.153-18.588-5.153-26.719 0l-2.236 1.417c-8.134 5.153-18.59 5.153-26.72 0-9.233-5.85-21.297-4.989-29.57 2.11l-.503.43M231 121.282c-8.133 5.154-18.59 5.154-26.72 0l-2.235-1.417c-8.135-5.153-18.587-5.153-26.72 0l-2.237 1.417c-8.13 5.154-18.587 5.154-26.72 0-9.232-5.852-21.296-4.991-29.57 2.108l-.502.43-1.594 1.313c-8.13 5.156-18.587 5.156-26.72 0l-2.234-1.417c-8.134-5.151-18.588-5.151-26.719 0l-2.236 1.417c-8.134 5.156-18.59 5.156-26.72 0-9.233-5.85-21.297-4.989-29.57 2.11l-.503.43M231 141.282c-8.133 5.153-18.59 5.153-26.72 0l-2.235-1.417c-8.135-5.153-18.587-5.153-26.72 0l-2.237 1.417c-8.13 5.153-18.587 5.153-26.72 0-9.232-5.85-21.296-4.99-29.57 2.108l-.502.431-1.594 1.314c-8.13 5.153-18.587 5.153-26.72 0l-2.234-1.417c-8.134-5.153-18.588-5.153-26.719 0l-2.236 1.417c-8.134 5.153-18.59 5.153-26.72 0-9.233-5.852-21.297-4.991-29.57 2.11l-.503.427"/>
        </g>
        <path stroke="#C4A97F" stroke-width="6.701" d="M1267 306.501c0 30.099-24.4 54.499-54.498 54.499-30.102 0-54.502-24.4-54.502-54.499 0-30.1 24.4-54.501 54.502-54.501 30.098 0 54.498 24.4 54.498 54.501z"/>
        <g transform="translate(1265 221)">
            <mask id="b" fill="#fff">
                <use xlink:href="#a"/>
            </mask>
            <path fill="#C4A97F" d="M20.428.77L.675 32.982h41.452z" mask="url(#b)"/>
        </g>
        <path stroke="#00C5C5" stroke-width="2.687" d="M1320 297.198a22.712 22.712 0 0 1-25.16 0l-2.104-1.394a22.7 22.7 0 0 0-25.158 0l-2.104 1.394a22.712 22.712 0 0 1-25.16 0c-8.692-5.757-20.053-4.909-27.842 2.073l-.472.426M1320 315.197a22.708 22.708 0 0 1-25.16 0l-2.104-1.392a22.697 22.697 0 0 0-25.158 0l-2.104 1.392a22.708 22.708 0 0 1-25.16 0c-8.692-5.756-20.053-4.91-27.842 2.074l-.472.427"/>
    </g>
</svg>
