<svg xmlns="http://www.w3.org/2000/svg" xmlns:xlink="http://www.w3.org/1999/xlink" width="100" height="99" viewBox="0 0 100 99">
    <defs>
        <linearGradient id="b" x1="16.679%" x2="88.319%" y1="86.687%" y2="13.475%">
            <stop offset="0%" stop-color="#F05944"/>
            <stop offset="100%" stop-color="#613E97"/>
        </linearGradient>
        <path id="a" d="M70.108.426a9.764 9.764 0 0 0-6.85 2.78 9.363 9.363 0 0 0-2.837 6.72l-.01-.01v3.651c-.077 1.89-1.02 3.627-2.047 4.634-1.012.992-2.648 1.982-4.73 2.006h-3.03c-2.685-.172-5.427.708-7.48 2.719a9.353 9.353 0 0 0 0 13.42c3.783 3.706 9.917 3.706 13.701 0 2.147-2.102 3.032-4.943 2.742-7.687v-2.641c.04-1.966 1.111-3.685 2.064-4.617 1.058-1.037 2.95-2.018 4.714-2.022h3.49c2.57.07 5.162-.832 7.124-2.754a9.351 9.351 0 0 0 0-13.42 9.76 9.76 0 0 0-6.85-2.779zm-40.279 0a9.764 9.764 0 0 0-6.85 2.78 9.353 9.353 0 0 0 0 13.42c3.783 3.705 9.918 3.705 13.701 0a9.353 9.353 0 0 0 0-13.42 9.764 9.764 0 0 0-6.85-2.78zm53.633 22.528a9.353 9.353 0 0 0-2.833 6.764l-.017-.016v3.652c-.077 1.888-1.02 3.626-2.048 4.632-1.012.993-2.646 1.982-4.73 2.006h-2.627c-2.811-.294-5.725.572-7.88 2.683a9.351 9.351 0 0 0 0 13.42c2.173 2.129 5.118 2.992 7.951 2.676h2.573c2.008.039 3.762 1.088 4.715 2.02 1.058 1.037 2.06 2.891 2.064 4.618v3.419a9.33 9.33 0 0 0 2.81 6.978c3.784 3.706 9.919 3.706 13.701 0a9.351 9.351 0 0 0 0-13.42 9.763 9.763 0 0 0-6.86-2.779l.01-.009h-3.728c-1.929-.075-3.703-.999-4.73-2.005-1.013-.992-2.024-2.594-2.048-4.633v-2.747a9.235 9.235 0 0 0-.018-1.836v-2.574c.04-1.966 1.112-3.684 2.064-4.617 1.058-1.036 2.95-2.017 4.714-2.022h3.729l-.017-.016c2.497.014 5-.907 6.906-2.774a9.351 9.351 0 0 0 0-13.42 9.76 9.76 0 0 0-6.85-2.78c-2.48 0-4.96.927-6.851 2.78zm-80.586.058a9.352 9.352 0 0 0 0 13.42c2.128 2.085 4.997 2.953 7.776 2.693h2.742c2.007.038 3.76 1.088 4.713 2.02 1.058 1.037 2.06 2.89 2.064 4.618v3.186c-.014.26-.026.514-.017.773v3.277c-.078 1.89-1.02 3.627-2.048 4.634-1.013.992-2.648 1.982-4.73 2.005H9.647l.012.012c-2.47.008-4.937.93-6.822 2.776A9.362 9.362 0 0 0 0 69.078v.116a9.362 9.362 0 0 0 2.837 6.652c3.783 3.706 9.918 3.706 13.702 0 2.072-2.029 2.967-4.745 2.77-7.4V65.45c.04-1.966 1.11-3.685 2.063-4.617 1.059-1.037 2.95-2.018 4.714-2.022h2.626c2.834.317 5.777-.548 7.95-2.676a9.351 9.351 0 0 0 0-13.42c-1.934-1.895-4.483-2.807-7.018-2.763h-3.54c-1.928-.076-3.703-1-4.73-2.006-1.013-.992-2.024-2.592-2.047-4.632v-2.686c.265-2.721-.621-5.531-2.75-7.616a9.761 9.761 0 0 0-6.85-2.779 9.763 9.763 0 0 0-6.85 2.78zm40.307 39.394a9.355 9.355 0 0 0-2.83 6.79v3.59c-.077 1.888-1.019 3.626-2.046 4.633-1.014.992-2.648 1.982-4.73 2.005h-2.742c-2.779-.26-5.647.608-7.776 2.692a9.352 9.352 0 0 0 0 13.42c3.783 3.706 9.917 3.706 13.701 0 2.128-2.084 3.015-4.894 2.749-7.616v-2.685c.04-1.965 1.111-3.684 2.063-4.616 1.059-1.037 2.952-2.018 4.714-2.022h3.665c2.508.02 5.02-.898 6.934-2.772a9.353 9.353 0 0 0 0-13.42 9.764 9.764 0 0 0-6.85-2.779c-2.48 0-4.96.927-6.852 2.78zm20.096 19.769a9.351 9.351 0 0 0 0 13.42c3.783 3.706 9.918 3.706 13.7 0a9.353 9.353 0 0 0 0-13.42 9.762 9.762 0 0 0-6.85-2.78 9.76 9.76 0 0 0-6.85 2.78z"/>
    </defs>
    <g fill="none" fill-rule="evenodd" transform="translate(0 .476)">
        <mask id="c" fill="#fff">
            <use xlink:href="#a"/>
        </mask>
        <use fill="url(#b)" xlink:href="#a"/>
        <path d="M70.108.426a9.764 9.764 0 0 0-6.85 2.78 9.363 9.363 0 0 0-2.837 6.72l-.01-.01v3.651c-.077 1.89-1.02 3.627-2.047 4.634-1.012.992-2.648 1.982-4.73 2.006h-3.03c-2.685-.172-5.427.708-7.48 2.719a9.353 9.353 0 0 0 0 13.42c3.783 3.706 9.917 3.706 13.701 0 2.147-2.102 3.032-4.943 2.742-7.687v-2.641c.04-1.966 1.111-3.685 2.064-4.617 1.058-1.037 2.95-2.018 4.714-2.022h3.49c2.57.07 5.162-.832 7.124-2.754a9.351 9.351 0 0 0 0-13.42 9.76 9.76 0 0 0-6.85-2.779zm-40.279 0a9.764 9.764 0 0 0-6.85 2.78 9.353 9.353 0 0 0 0 13.42c3.783 3.705 9.918 3.705 13.701 0a9.353 9.353 0 0 0 0-13.42 9.764 9.764 0 0 0-6.85-2.78zm53.633 22.528a9.353 9.353 0 0 0-2.833 6.764l-.017-.016v3.652c-.077 1.888-1.02 3.626-2.048 4.632-1.012.993-2.646 1.982-4.73 2.006h-2.627c-2.811-.294-5.725.572-7.88 2.683a9.351 9.351 0 0 0 0 13.42c2.173 2.129 5.118 2.992 7.951 2.676h2.573c2.008.039 3.762 1.088 4.715 2.02 1.058 1.037 2.06 2.891 2.064 4.618v3.419a9.33 9.33 0 0 0 2.81 6.978c3.784 3.706 9.919 3.706 13.701 0a9.351 9.351 0 0 0 0-13.42 9.763 9.763 0 0 0-6.86-2.779l.01-.009h-3.728c-1.929-.075-3.703-.999-4.73-2.005-1.013-.992-2.024-2.594-2.048-4.633v-2.747a9.235 9.235 0 0 0-.018-1.836v-2.574c.04-1.966 1.112-3.684 2.064-4.617 1.058-1.036 2.95-2.017 4.714-2.022h3.729l-.017-.016c2.497.014 5-.907 6.906-2.774a9.351 9.351 0 0 0 0-13.42 9.76 9.76 0 0 0-6.85-2.78c-2.48 0-4.96.927-6.851 2.78zm-80.586.058a9.352 9.352 0 0 0 0 13.42c2.128 2.085 4.997 2.953 7.776 2.693h2.742c2.007.038 3.76 1.088 4.713 2.02 1.058 1.037 2.06 2.89 2.064 4.618v3.186c-.014.26-.026.514-.017.773v3.277c-.078 1.89-1.02 3.627-2.048 4.634-1.013.992-2.648 1.982-4.73 2.005H9.647l.012.012c-2.47.008-4.937.93-6.822 2.776A9.362 9.362 0 0 0 0 69.078v.116a9.362 9.362 0 0 0 2.837 6.652c3.783 3.706 9.918 3.706 13.702 0 2.072-2.029 2.967-4.745 2.77-7.4V65.45c.04-1.966 1.11-3.685 2.063-4.617 1.059-1.037 2.95-2.018 4.714-2.022h2.626c2.834.317 5.777-.548 7.95-2.676a9.351 9.351 0 0 0 0-13.42c-1.934-1.895-4.483-2.807-7.018-2.763h-3.54c-1.928-.076-3.703-1-4.73-2.006-1.013-.992-2.024-2.592-2.047-4.632v-2.686c.265-2.721-.621-5.531-2.75-7.616a9.761 9.761 0 0 0-6.85-2.779 9.763 9.763 0 0 0-6.85 2.78zm40.307 39.394a9.355 9.355 0 0 0-2.83 6.79v3.59c-.077 1.888-1.019 3.626-2.046 4.633-1.014.992-2.648 1.982-4.73 2.005h-2.742c-2.779-.26-5.647.608-7.776 2.692a9.352 9.352 0 0 0 0 13.42c3.783 3.706 9.917 3.706 13.701 0 2.128-2.084 3.015-4.894 2.749-7.616v-2.685c.04-1.965 1.111-3.684 2.063-4.616 1.059-1.037 2.952-2.018 4.714-2.022h3.665c2.508.02 5.02-.898 6.934-2.772a9.353 9.353 0 0 0 0-13.42 9.764 9.764 0 0 0-6.85-2.779c-2.48 0-4.96.927-6.852 2.78zm20.096 19.769a9.351 9.351 0 0 0 0 13.42c3.783 3.706 9.918 3.706 13.7 0a9.353 9.353 0 0 0 0-13.42 9.762 9.762 0 0 0-6.85-2.78 9.76 9.76 0 0 0-6.85 2.78z" mask="url(#c)"/>
    </g>
</svg>
