<svg xmlns="http://www.w3.org/2000/svg" xmlns:xlink="http://www.w3.org/1999/xlink" width="100" height="99" viewBox="0 0 100 99">
    <defs>
        <path id="a" d="M0 .426h100v97.948H0z"/>
    </defs>
    <g fill="none" fill-rule="evenodd" transform="translate(0 .476)">
        <mask id="b" fill="#fff">
            <use xlink:href="#a"/>
        </mask>
        <path fill="#231F20" d="M56.825 36.346c2.147-2.102 3.032-4.943 2.742-7.687v-2.641c.04-1.966 1.111-3.684 2.063-4.618 1.058-1.036 2.952-2.016 4.714-2.02h3.49c2.571.07 5.163-.834 7.125-2.755a9.353 9.353 0 0 0 0-13.42c-3.784-3.705-9.918-3.705-13.7 0a9.36 9.36 0 0 0-2.838 6.72l-.01-.01v3.652c-.076 1.89-1.019 3.627-2.046 4.634-1.013.992-2.648 1.982-4.731 2.005h-3.03c-2.685-.17-5.427.71-7.48 2.72a9.354 9.354 0 0 0 0 13.42c3.783 3.707 9.918 3.707 13.7 0zM36.68 16.625a9.353 9.353 0 0 0 0-13.42c-3.784-3.705-9.918-3.705-13.7 0a9.351 9.351 0 0 0 0 13.42c3.782 3.707 9.916 3.707 13.7 0zm26.598 65.55a9.352 9.352 0 0 0 0 13.42c3.784 3.706 9.918 3.706 13.702 0a9.354 9.354 0 0 0 0-13.42c-3.784-3.706-9.918-3.706-13.702 0zm27.003-22.568l.01-.009h-3.729c-1.927-.075-3.702-.999-4.73-2.005-1.012-.992-2.023-2.594-2.047-4.633v-2.747a9.297 9.297 0 0 0-.017-1.836v-2.574c.04-1.966 1.11-3.684 2.062-4.617 1.059-1.036 2.952-2.017 4.715-2.021h3.729l-.017-.017c2.497.014 5-.908 6.905-2.774a9.352 9.352 0 0 0 0-13.42c-3.784-3.705-9.917-3.705-13.7 0a9.359 9.359 0 0 0-2.833 6.765l-.017-.018v3.652c-.077 1.89-1.02 3.627-2.047 4.634-1.013.99-2.648 1.982-4.73 2.005h-2.629c-2.81-.293-5.724.572-7.879 2.683a9.352 9.352 0 0 0 0 13.42c2.173 2.128 5.117 2.992 7.95 2.676h2.575c2.007.039 3.76 1.088 4.713 2.02 1.058 1.037 2.06 2.891 2.065 4.618v3.418a9.331 9.331 0 0 0 2.811 6.979c3.784 3.706 9.917 3.706 13.7 0a9.351 9.351 0 0 0 0-13.42 9.764 9.764 0 0 0-6.86-2.779zM19.309 65.45c.04-1.965 1.11-3.683 2.064-4.617 1.057-1.035 2.95-2.017 4.713-2.02h2.627c2.832.315 5.777-.549 7.95-2.677a9.353 9.353 0 0 0 0-13.42c-1.936-1.895-4.484-2.806-7.02-2.763h-3.54c-1.928-.076-3.702-1-4.73-2.006-1.012-.992-2.023-2.593-2.047-4.632v-2.686c.266-2.722-.62-5.531-2.748-7.616-3.784-3.706-9.918-3.706-13.701 0a9.351 9.351 0 0 0 0 13.42c2.127 2.085 4.996 2.952 7.775 2.692h2.742c2.006.04 3.76 1.089 4.713 2.021 1.058 1.037 2.06 2.89 2.064 4.617v3.187a9.089 9.089 0 0 0-.018.773V53c-.077 1.888-1.02 3.626-2.048 4.633-1.012.991-2.647 1.982-4.729 2.005h-3.73l.012.011a9.76 9.76 0 0 0-6.82 2.777 9.352 9.352 0 0 0 0 13.42c3.783 3.707 9.917 3.707 13.7 0 2.072-2.03 2.968-4.746 2.77-7.4V65.45zm37.575-3.043a9.352 9.352 0 0 1 0 13.42c-1.913 1.872-4.426 2.792-6.933 2.771h-3.664c-1.764.004-3.656.985-4.714 2.022-.953.933-2.025 2.65-2.064 4.617v2.685c.266 2.721-.62 5.53-2.75 7.615-3.782 3.706-9.916 3.706-13.7 0a9.351 9.351 0 0 1 0-13.42c2.128-2.084 4.997-2.953 7.776-2.693h2.741c2.083-.022 3.718-1.013 4.73-2.004 1.028-1.007 1.97-2.744 2.047-4.634v-3.59a9.35 9.35 0 0 1 2.83-6.79c3.784-3.706 9.917-3.706 13.701 0z" mask="url(#b)"/>
    </g>
</svg>
