<svg xmlns="http://www.w3.org/2000/svg" width="1320" height="360" viewBox="0 0 1320 360">
    <g fill="none" fill-rule="evenodd">
        <path fill="#41A1FA" d="M4.27 331.492l162.032-185.63c5.693-6.522 14.922-6.522 20.615 0 5.693 6.52 5.693 17.096 0 23.616L24.885 355.108c-5.693 6.523-14.924 6.523-20.615 0-5.693-6.52-5.693-17.095 0-23.616"/>
        <path fill="#523D93" d="M1133.083 190.52L1295.115 4.892c5.693-6.521 14.923-6.521 20.615 0 5.693 6.52 5.693 17.096 0 23.616l-162.032 185.63c-5.693 6.523-14.923 6.523-20.615 0-5.693-6.52-5.693-17.094 0-23.616M75.877 118.569L176.717 3.044c3.543-4.059 9.286-4.059 12.83 0 3.542 4.057 3.542 10.64 0 14.697L88.706 133.266c-3.543 4.06-9.287 4.06-12.83 0-3.542-4.057-3.542-10.638 0-14.697"/>
        <path fill="#41A1FA" d="M1160.69 320.777l90.496-103.676c3.18-3.643 8.335-3.643 11.514 0 3.18 3.641 3.18 9.548 0 13.19l-90.497 103.676c-3.18 3.643-8.334 3.643-11.513 0-3.18-3.642-3.18-9.548 0-13.19"/>
    </g>
</svg>
