<svg xmlns="http://www.w3.org/2000/svg" width="1378" height="253" viewBox="0 0 1378 253">
    <g fill="none" fill-rule="evenodd">
        <g transform="matrix(1 0 0 -1 0 100)">
            <rect width="18" height="14" x="226" fill="#F38082" fill-rule="nonzero" rx="4" transform="rotate(180 235 7)"/>
            <rect width="18" height="14" x="-2" y="84" fill="#F38082" fill-rule="nonzero" rx="4" transform="rotate(90 7 91)"/>
            <path stroke="#F38082" stroke-width="6" d="M244.031 7h-81.207s-20.1 2.416-20.1 20.1v25.1s1.125 18.552-18.552 18.552H19.812S7 71.864 7 83.564v16.133"/>
        </g>
        <g transform="matrix(1 0 0 -1 1133 253)">
            <rect width="18" height="14" x="226" fill="#F38082" fill-rule="nonzero" rx="4" transform="rotate(180 235 7)"/>
            <rect width="18" height="14" x="-2" y="84" fill="#F38082" fill-rule="nonzero" rx="4" transform="rotate(90 7 91)"/>
            <path stroke="#F38082" stroke-width="6" d="M244.031 7h-81.207s-20.1 2.416-20.1 20.1v25.1s1.125 18.552-18.552 18.552H19.812S7 71.864 7 83.564v16.133"/>
        </g>
        <g transform="matrix(-1 0 0 1 334 172)">
            <rect width="18" height="14" x="263" y="39" fill="#F2E3A4" fill-rule="nonzero" rx="4" transform="rotate(-90 272 46)"/>
            <rect width="18" height="14" fill="#F2E3A4" fill-rule="nonzero" rx="4" transform="rotate(180 9 7)"/>
            <path stroke="#F2E3A4" stroke-width="6" d="M0 7.138h253.662s18.047 3.024 18.047 18.047v30.267"/>
        </g>
    </g>
</svg>
