<svg xmlns="http://www.w3.org/2000/svg" width="24" height="24" viewBox="0 0 24 24">
    <g fill="none" fill-rule="evenodd">
        <path fill="#FFF" d="M14.119 9.104h3.636V8.018H14.12zM9.362 14.747H6.914v-2.354H9.48s.93-.014.93 1.21c0 1.018-.68 1.134-1.048 1.144zM6.914 9.066H9.48s.624 0 .624.917-.367 1.05-.783 1.05H6.914V9.067zm3.715 2.458s1.346-.1 1.346-1.677c0-1.578-1.1-2.347-2.495-2.347H4.893v8.814H9.48s2.8.089 2.8-2.602c0 0 .122-2.188-1.65-2.188zM14.498 12.392s.19-1.36 1.551-1.36c1.362 0 1.345 1.36 1.345 1.36h-2.896zm1.517-2.65c-3.39 0-3.387 3.386-3.387 3.386s-.233 3.37 3.387 3.37c0 0 3.016.172 3.016-2.344H17.48s.052.947-1.413.947c0 0-1.55.106-1.55-1.533h4.566s.5-3.826-3.067-3.826z"/>
        <path stroke="#FFF" d="M23.52 12c0 6.362-5.158 11.52-11.52 11.52C5.638 23.52.48 18.362.48 12 .48 5.638 5.638.48 12 .48 18.362.48 23.52 5.638 23.52 12z"/>
    </g>
</svg>
