<?xml version="1.0" encoding="utf-8"?>
<!-- Generator: Adobe Illustrator 21.1.0, SVG Export Plug-In . SVG Version: 6.00 Build 0)  -->
<svg version="1.1" id="Layer_1" xmlns="http://www.w3.org/2000/svg" xmlns:xlink="http://www.w3.org/1999/xlink" x="0px" y="0px"
	 viewBox="0 0 14 14" style="enable-background:new 0 0 14 14;" xml:space="preserve">
<style type="text/css">
	.st0{fill:#F15379;}
</style>
<g>
	<g>
		<g id="XMLID_9_">
			<path class="st0" d="M-30.5,14h-9.1c-1.3,0-2.4-1.1-2.4-2.4V2.4c0-1.4,1.1-2.4,2.4-2.4h9.1c1.3,0,2.4,1.1,2.4,2.4v9.1
				C-28,12.9-29.1,14-30.5,14z M-39.5,0.6c-1,0-1.9,0.8-1.9,1.9v9.1c0,1,0.8,1.9,1.9,1.9h9.1c1,0,1.9-0.8,1.9-1.9V2.4
				c0-1-0.8-1.9-1.9-1.9H-39.5z"/>
		</g>
		<g id="XMLID_8_">
			<path class="st0" d="M-33.6,10.3h-2.6c-1,0-1.9-0.8-1.9-1.9V5.7c0-1,0.8-1.9,1.9-1.9h2.6c1,0,1.9,0.8,1.9,1.9v2.7
				C-31.8,9.4-32.7,10.3-33.6,10.3z M-36.3,4.3c-0.8,0-1.3,0.6-1.3,1.3v2.7c0,0.8,0.6,1.3,1.3,1.3h2.6c0.8,0,1.3-0.6,1.3-1.3V5.7
				c0-0.8-0.6-1.3-1.3-1.3L-36.3,4.3L-36.3,4.3z"/>
		</g>
		<g id="XMLID_7_">
			<path class="st0" d="M-33.6,10.3h-2.6c-1,0-1.9-0.8-1.9-1.9V5.7c0-1,0.8-1.9,1.9-1.9h2.6c1,0,1.9,0.8,1.9,1.9v2.7
				C-31.8,9.4-32.7,10.3-33.6,10.3z M-36.3,4.3c-0.8,0-1.3,0.6-1.3,1.3v2.7c0,0.8,0.6,1.3,1.3,1.3h2.6c0.8,0,1.3-0.6,1.3-1.3V5.7
				c0-0.8-0.6-1.3-1.3-1.3L-36.3,4.3L-36.3,4.3z"/>
		</g>
		<g id="XMLID_6_">
			<path class="st0" d="M-30.8,3.8c-0.5,0-0.8-0.4-0.8-0.8s0.4-0.8,0.8-0.8c0.5,0,0.8,0.4,0.8,0.8S-30.4,3.8-30.8,3.8z M-30.8,2.6
				c-0.1,0-0.3,0.1-0.3,0.3c0,0.1,0.1,0.3,0.3,0.3c0.2,0,0.3-0.1,0.3-0.3C-30.5,2.8-30.7,2.6-30.8,2.6z"/>
		</g>
	</g>
</g>
<g id="Behance_1_">
	<path class="st0" d="M52.9,14h-6.3V0h6.8c1.7,0,3,0.6,3.7,1.6c0.5,0.6,0.7,1.3,0.7,2.2s-0.2,1.6-0.7,2.1c-0.1,0.2-0.4,0.4-0.6,0.6
		c0.5,0.2,0.8,0.6,1.2,1.1c0.4,0.6,0.6,1.3,0.6,2.1c0,0.8-0.2,1.6-0.6,2.3c-0.2,0.5-0.6,0.8-1,1.1c-0.5,0.3-1,0.6-1.6,0.7
		C54.2,13.9,53.6,14,52.9,14z M47.1,13.4h5.8c0.6,0,1.3-0.1,1.9-0.1c0.6-0.1,1-0.3,1.4-0.6c0.3-0.2,0.6-0.6,0.8-1
		c0.4-0.6,0.6-1.3,0.6-2.1c0-0.7-0.1-1.3-0.5-1.8l0,0c-0.3-0.5-0.8-0.8-1.4-1.1l-0.6-0.1l0.6-0.3C56,6,56.4,5.8,56.6,5.6
		c0.4-0.5,0.6-1,0.6-1.8c0-0.7-0.1-1.4-0.6-1.9C56,1,54.9,0.6,53.3,0.6H47L47.1,13.4L47.1,13.4L47.1,13.4z M63.8,13.9
		c-1.3,0-2.5-0.4-3.6-1.3c-1-0.8-1.6-2.2-1.6-4.1c0-1.7,0.5-3.1,1.4-4.1c0.9-0.9,2.2-1.4,3.7-1.4c0.8,0,1.6,0.1,2.3,0.5
		c0.7,0.3,1.3,0.8,1.8,1.5c0.4,0.6,0.7,1.3,0.8,2.1l0,0c0.1,0.5,0.1,1.1,0.1,2v0.2h-7c0.1,0.7,0.4,1.3,0.8,1.5
		c0.3,0.2,0.8,0.3,1.3,0.3c0.6,0,0.9-0.1,1.3-0.4c0.1-0.1,0.3-0.3,0.5-0.6l0.1-0.1h3v0.3c-0.1,0.6-0.4,1.3-1,1.9
		C66.7,13.4,65.4,13.9,63.8,13.9z M63.7,3.7c-1.3,0-2.4,0.4-3.3,1.3S59.2,7,59.2,8.6c0,1.7,0.5,2.9,1.4,3.7c0.9,0.8,2.1,1.1,3.2,1.1
		c1.5,0,2.6-0.5,3.5-1.3c0.4-0.5,0.7-0.8,0.8-1.3h-2.1c-0.1,0.2-0.3,0.5-0.5,0.6c-0.4,0.3-0.9,0.5-1.6,0.5c-0.6,0-1.1-0.1-1.6-0.4
		c-0.7-0.5-1.1-1.2-1.2-2.3V8.9h7c0-0.7,0-1.2-0.1-1.6C68,6.6,67.7,6,67.4,5.5c-0.4-0.6-0.9-1-1.6-1.3C65.2,3.8,64.5,3.7,63.7,3.7z
		 M52.8,11.7h-3.1V7.5h3.1c0.6,0,1.1,0.1,1.5,0.2c0.6,0.3,1,0.8,1,1.7c0,0.9-0.3,1.6-1,2C53.9,11.6,53.4,11.7,52.8,11.7z M50.2,11.1
		h2.6c0.6,0,0.9-0.1,1.3-0.2c0.5-0.2,0.7-0.7,0.7-1.4c0-0.6-0.2-1-0.7-1.2c-0.2-0.1-0.6-0.1-1.2-0.2h-2.6L50.2,11.1L50.2,11.1z
		 M66.1,7.8h-4.9l0.1-0.3c0.1-0.7,0.3-1.3,0.8-1.6c0.4-0.4,1-0.6,1.7-0.6c0.6,0,1.3,0.2,1.6,0.6c0.5,0.4,0.7,0.9,0.8,1.7L66.1,7.8z
		 M61.8,7.3h3.7c-0.1-0.5-0.2-0.8-0.6-1c-0.4-0.3-0.8-0.5-1.3-0.5s-1,0.1-1.3,0.5C62.2,6.5,61.9,6.9,61.8,7.3z M52.8,5.9h-3.1V2.3
		h2.8c0.7,0,1.3,0.1,1.6,0.2C54.5,2.7,55,3.1,55,4.1c0,0.7-0.2,1.2-0.7,1.4C53.9,5.7,53.4,5.9,52.8,5.9z M50.2,5.3h2.6
		c0.6,0,0.9-0.1,1.3-0.3c0.3-0.1,0.4-0.5,0.4-0.9c0-0.7-0.3-0.8-0.6-1c-0.4-0.1-0.8-0.1-1.5-0.1H50L50.2,5.3L50.2,5.3z M66.7,2.5
		h-5.9v-2h5.9V2.5z M61.2,2h4.9V1.1h-4.9V2z"/>
</g>
<g id="XMLID_5_">
	<path class="st0" d="M108,14c-1.7,0-3.4-0.5-4.9-1.3c-0.2-0.1-0.3-0.4-0.2-0.6c0.1-0.2,0.3-0.4,0.6-0.4h0.4c1,0,2-0.2,2.9-0.7
		c-1.1-0.4-2-1.3-2.3-2.4c-0.1-0.1,0-0.3,0.1-0.5l0.1-0.1c-0.8-0.7-1.4-1.8-1.4-2.9c0-0.1,0.1-0.3,0.2-0.4c0.1-0.1,0.2-0.1,0.3-0.1
		c-0.3-0.6-0.5-1.2-0.5-1.9c0-0.6,0.1-1.3,0.6-1.9c0.1-0.1,0.2-0.2,0.4-0.2s0.3,0.1,0.4,0.1c1.5,1.8,3.6,2.9,5.9,3.2
		c0-0.4,0-0.8,0.1-1.2c0.3-1.3,1.3-2.2,2.4-2.7c1.3-0.4,2.7-0.1,3.6,0.8c0,0,0.1,0.1,0.1,0.1c0.6-0.1,1.2-0.4,1.6-0.7
		c0.1-0.1,0.4-0.1,0.6,0c0.1,0.1,0.2,0.3,0.1,0.5c-0.1,0.3-0.2,0.6-0.4,0.8c0.1,0,0.1-0.1,0.2-0.1l0,0c0.1-0.1,0.4,0,0.6,0.1
		c0.1,0.1,0.1,0.4,0,0.6c-0.4,0.6-0.8,1.1-1.4,1.5C118,3.9,118,3.9,118,4c0,1.2-0.2,2.4-0.6,3.5c-0.5,1.2-1.1,2.2-1.9,3.1
		c-0.8,1-2,1.8-3.1,2.3C110.9,13.7,109.5,14,108,14z M103.4,12.2c1.4,0.8,3,1.3,4.7,1.3c1.4,0,2.8-0.3,4-0.8
		c1.1-0.6,2.1-1.3,2.9-2.2c0.8-0.8,1.4-1.9,1.8-2.9s0.6-2.2,0.6-3.3c0-0.3,0.1-0.6,0.3-0.7c0.5-0.3,0.8-0.8,1.2-1.2
		c-0.3,0.1-0.6,0.2-0.8,0.2l-1,0.2l0.7-0.7c0.3-0.3,0.6-0.7,0.8-1.1c-0.5,0.2-1,0.5-1.5,0.6c-0.2,0.1-0.5,0-0.6-0.1
		c-0.8-0.7-2-1-3.1-0.6c-1,0.3-1.9,1.2-2.1,2.2C111,3.5,110.9,4,111,4.3c0,0.1,0,0.2-0.1,0.3s-0.1,0.1-0.3,0.1
		c-2.5-0.2-4.8-1.4-6.4-3.4c-0.2,0.5-0.4,0.9-0.4,1.5c0,0.8,0.3,1.6,0.9,2.2l0.7,0.7l-0.9-0.2c-0.2-0.1-0.5-0.1-0.7-0.2
		c0.1,1.2,0.8,2.2,1.9,2.8l1.1,0.5h-1.3c-0.1,0-0.3,0-0.5,0c0.4,1.1,1.3,1.9,2.5,2l0.7,0.1l-0.6,0.4c-1.1,0.8-2.4,1.2-3.7,1.2
		L103.4,12.2L103.4,12.2L103.4,12.2z M104,1.3L104,1.3L104,1.3z"/>
</g>
<g>
	<g id="XMLID_4_">
		<path class="st0" d="M7,14c-3.9,0-7-3.1-7-7s3.1-7,7-7s7,3.1,7,7S10.9,14,7,14z M7,0.5c-3.5,0-6.4,2.9-6.4,6.4s2.9,6.5,6.4,6.5
			s6.4-2.9,6.4-6.4S10.5,0.5,7,0.5z"/>
	</g>
	<g id="XMLID_3_">
		<path class="st0" d="M9,13.8l-0.6-0.1c0.7-7.2-4.9-12.2-5-12.3L3.7,1C3.8,1.1,9.7,6.2,9,13.8z"/>
	</g>
	<g id="XMLID_2_">
		<path class="st0" d="M3.2,12.5l-0.5-0.2c0-0.1,2.9-6.1,11-5.6v0.6C6,6.8,3.2,12.4,3.2,12.5z"/>
	</g>
	<g id="XMLID_1_">
		<path class="st0" d="M1.2,6.9c-0.6,0-0.9,0-0.9,0l0.1-0.6c0.1,0,6.7,0.6,11.2-4.2l0.4,0.4C8.3,6.4,3.2,6.9,1.2,6.9z"/>
	</g>
</g>
<g>
	<path class="st0" d="M149.7,14h-3.3V7.3h-1.3V4h1.3V3.1c0-1.5,0.8-3.1,3.1-3.1h2.4v2.8h-1.8c-0.2,0-0.3,0.1-0.3,0.3V4h2.1l-0.3,3.3
		h-2L149.7,14L149.7,14z M147,13.3h2.1V6.7h2.1l0.2-2.1h-2.1V3.3c0-0.7,0.5-1,0.9-1h1.2V0.6h-1.8c-2.3,0-2.5,1.9-2.5,2.5v1.6h-1.3
		v2.1h1.3L147,13.3C146.9,13.3,147,13.3,147,13.3z"/>
</g>
</svg>
