<?xml version="1.0" encoding="utf-8"?>
<!-- Generator: Adobe Illustrator 21.1.0, SVG Export Plug-In . SVG Version: 6.00 Build 0)  -->
<svg version="1.1" id="Layer_1" xmlns="http://www.w3.org/2000/svg" xmlns:xlink="http://www.w3.org/1999/xlink" x="0px" y="0px"
	 viewBox="0 0 16.8 14" style="enable-background:new 0 0 16.8 14;" xml:space="preserve">
<style type="text/css">
	.st0{fill:#F15379;}
</style>
<g>
	<g>
		<g id="XMLID_9_">
			<path class="st0" d="M-133.3,14h-9.1c-1.3,0-2.4-1.1-2.4-2.4V2.4c0-1.4,1.1-2.4,2.4-2.4h9.1c1.3,0,2.4,1.1,2.4,2.4v9.1
				C-130.9,12.9-132,14-133.3,14z M-142.4,0.6c-1,0-1.9,0.8-1.9,1.9v9.1c0,1,0.8,1.9,1.9,1.9h9.1c1,0,1.9-0.8,1.9-1.9V2.4
				c0-1-0.8-1.9-1.9-1.9H-142.4z"/>
		</g>
		<g id="XMLID_8_">
			<path class="st0" d="M-136.5,10.3h-2.6c-1,0-1.9-0.8-1.9-1.9V5.8c0-1,0.8-1.9,1.9-1.9h2.6c1,0,1.9,0.8,1.9,1.9v2.7
				C-134.6,9.4-135.5,10.3-136.5,10.3z M-139.1,4.3c-0.8,0-1.3,0.6-1.3,1.3v2.7c0,0.8,0.6,1.3,1.3,1.3h2.6c0.8,0,1.3-0.6,1.3-1.3
				V5.7c0-0.8-0.6-1.3-1.3-1.3L-139.1,4.3L-139.1,4.3z"/>
		</g>
		<g id="XMLID_7_">
			<path class="st0" d="M-136.5,10.3h-2.6c-1,0-1.9-0.8-1.9-1.9V5.8c0-1,0.8-1.9,1.9-1.9h2.6c1,0,1.9,0.8,1.9,1.9v2.7
				C-134.6,9.4-135.5,10.3-136.5,10.3z M-139.1,4.3c-0.8,0-1.3,0.6-1.3,1.3v2.7c0,0.8,0.6,1.3,1.3,1.3h2.6c0.8,0,1.3-0.6,1.3-1.3
				V5.7c0-0.8-0.6-1.3-1.3-1.3L-139.1,4.3L-139.1,4.3z"/>
		</g>
		<g id="XMLID_6_">
			<path class="st0" d="M-133.7,3.8c-0.5,0-0.8-0.4-0.8-0.8s0.4-0.8,0.8-0.8c0.5,0,0.8,0.4,0.8,0.8S-133.2,3.8-133.7,3.8z
				 M-133.7,2.6c-0.1,0-0.3,0.1-0.3,0.3c0,0.1,0.1,0.3,0.3,0.3c0.2,0,0.3-0.1,0.3-0.3C-133.4,2.8-133.5,2.6-133.7,2.6z"/>
		</g>
	</g>
</g>
<g id="Behance_1_">
	<path class="st0" d="M-49.9,14h-6.3V0h6.8c1.7,0,3,0.6,3.7,1.6c0.5,0.6,0.7,1.3,0.7,2.2s-0.2,1.6-0.7,2.1c-0.1,0.2-0.4,0.4-0.6,0.6
		c0.5,0.2,0.8,0.6,1.2,1.1c0.4,0.6,0.6,1.3,0.6,2.1c0,0.8-0.2,1.6-0.6,2.3c-0.2,0.5-0.6,0.8-1,1.1c-0.5,0.3-1,0.6-1.6,0.7
		C-48.6,13.9-49.2,14-49.9,14z M-55.7,13.5h5.8c0.6,0,1.3-0.1,1.9-0.1c0.6-0.1,1-0.3,1.4-0.6c0.3-0.2,0.6-0.6,0.8-1
		c0.4-0.6,0.6-1.3,0.6-2.1c0-0.7-0.1-1.3-0.5-1.8l0,0C-46,7.3-46.5,7-47.1,6.7l-0.6-0.1l0.6-0.3c0.4-0.2,0.7-0.5,0.9-0.7
		c0.4-0.5,0.6-1,0.6-1.8c0-0.7-0.1-1.4-0.6-1.9C-46.8,1-48,0.6-49.5,0.6h-6.3L-55.7,13.5L-55.7,13.5L-55.7,13.5z M-39,13.9
		c-1.3,0-2.5-0.4-3.6-1.3c-1-0.8-1.6-2.2-1.6-4.1c0-1.7,0.5-3.1,1.4-4.1c0.9-0.9,2.2-1.4,3.7-1.4c0.8,0,1.6,0.1,2.3,0.5
		s1.3,0.8,1.8,1.5c0.4,0.6,0.7,1.3,0.8,2.1l0,0c0.1,0.5,0.1,1.1,0.1,2v0.2h-7c0.1,0.7,0.4,1.3,0.8,1.5c0.3,0.2,0.8,0.3,1.3,0.3
		c0.6,0,0.9-0.1,1.3-0.4c0.1-0.1,0.3-0.3,0.5-0.6l0.1-0.1h3v0.3c-0.1,0.6-0.4,1.3-1,1.9C-36.2,13.5-37.4,13.9-39,13.9z M-39.1,3.7
		c-1.3,0-2.4,0.4-3.3,1.3c-0.8,0.9-1.3,2.1-1.3,3.7c0,1.7,0.5,2.9,1.4,3.7c0.9,0.8,2.1,1.1,3.2,1.1c1.5,0,2.6-0.5,3.5-1.3
		c0.4-0.5,0.7-0.8,0.8-1.3h-2.1c-0.1,0.2-0.3,0.5-0.5,0.6c-0.4,0.3-0.9,0.5-1.6,0.5c-0.6,0-1.1-0.1-1.6-0.4
		c-0.7-0.5-1.1-1.2-1.2-2.3V8.9h7c0-0.7,0-1.2-0.1-1.6c-0.1-0.7-0.4-1.3-0.7-1.9c-0.4-0.6-0.9-1-1.6-1.3
		C-37.6,3.8-38.3,3.7-39.1,3.7z M-50.1,11.7h-3.1V7.5h3.1c0.6,0,1.1,0.1,1.5,0.2c0.6,0.3,1,0.8,1,1.7c0,0.9-0.3,1.6-1,2
		C-48.9,11.6-49.5,11.7-50.1,11.7z M-52.7,11.1h2.6c0.6,0,0.9-0.1,1.3-0.2c0.5-0.2,0.7-0.7,0.7-1.4c0-0.6-0.2-1-0.7-1.2
		c-0.2-0.1-0.6-0.1-1.2-0.2h-2.6L-52.7,11.1L-52.7,11.1z M-36.7,7.9h-4.9l0.1-0.3c0.1-0.7,0.3-1.3,0.8-1.6c0.4-0.4,1-0.6,1.7-0.6
		c0.6,0,1.3,0.2,1.6,0.6c0.5,0.4,0.7,0.9,0.8,1.7L-36.7,7.9z M-41,7.3h3.7c-0.1-0.5-0.2-0.8-0.6-1c-0.4-0.3-0.8-0.5-1.3-0.5
		s-1,0.1-1.3,0.5C-40.7,6.5-40.9,6.9-41,7.3z M-50.1,5.9h-3.1V2.4h2.8c0.7,0,1.3,0.1,1.6,0.2s0.9,0.6,0.9,1.5c0,0.7-0.2,1.2-0.7,1.4
		C-48.9,5.7-49.5,5.9-50.1,5.9z M-52.7,5.3h2.6c0.6,0,0.9-0.1,1.3-0.3c0.3-0.1,0.4-0.5,0.4-0.9c0-0.7-0.3-0.8-0.6-1
		c-0.4-0.1-0.8-0.1-1.5-0.1h-2.3L-52.7,5.3L-52.7,5.3z M-36.2,2.5h-5.9v-2h5.9V2.5z M-41.6,2h4.9V1.1h-4.9V2z"/>
</g>
<g id="XMLID_5_">
	<path class="st0" d="M5.2,14c-1.7,0-3.4-0.5-4.9-1.3C0,12.6-0.1,12.3,0,12.1c0.1-0.2,0.3-0.4,0.6-0.4H1c1,0,2-0.2,2.9-0.7
		c-1.1-0.4-2-1.3-2.3-2.4c-0.1-0.1,0-0.3,0.1-0.5L1.7,8C0.9,7.3,0.3,6.3,0.3,5.1c0-0.1,0.1-0.3,0.2-0.4c0.1-0.1,0.2-0.1,0.3-0.1
		C0.5,4.1,0.4,3.5,0.4,2.8c0-0.6,0.1-1.3,0.6-1.9c0.1-0.1,0.2-0.2,0.4-0.2s0.3,0.1,0.4,0.1C3.2,2.6,5.3,3.7,7.6,4
		c0-0.4,0-0.8,0.1-1.2C8.1,1.6,9,0.6,10.1,0.2c1.3-0.4,2.7-0.1,3.6,0.8c0,0,0.1,0.1,0.1,0.1c0.6-0.1,1.2-0.4,1.6-0.7
		c0.1-0.1,0.4-0.1,0.6,0c0.1,0.1,0.2,0.3,0.1,0.5c-0.1,0.3-0.2,0.6-0.4,0.8c0.1,0,0.1-0.1,0.2-0.1l0,0c0.1-0.1,0.4,0,0.6,0.1
		c0.1,0.1,0.1,0.4,0,0.6c-0.4,0.6-0.8,1.1-1.4,1.5c-0.1,0.1-0.1,0.1-0.1,0.2c0,1.2-0.2,2.4-0.6,3.5c-0.5,1.2-1.1,2.2-1.9,3.1
		c-0.8,1-2,1.8-3.1,2.3C8.1,13.7,6.7,14,5.2,14z M0.6,12.2c1.4,0.8,3,1.3,4.7,1.3c1.4,0,2.8-0.3,4-0.8c1.1-0.6,2.1-1.3,2.9-2.2
		c0.8-0.8,1.4-1.9,1.8-2.9c0.4-1.1,0.6-2.2,0.6-3.3c0-0.3,0.1-0.6,0.3-0.7c0.5-0.3,0.8-0.8,1.2-1.2c-0.3,0.1-0.6,0.2-0.8,0.2l-1,0.2
		l0.7-0.7c0.3-0.3,0.6-0.7,0.8-1.1c-0.5,0.2-1,0.5-1.5,0.6c-0.2,0.1-0.5,0-0.6-0.1c-0.8-0.7-2-1-3.1-0.6c-1,0.3-1.9,1.2-2.1,2.2
		C8.1,3.6,8.1,4,8.1,4.4c0,0.1,0,0.2-0.1,0.3C8,4.8,7.9,4.8,7.7,4.8C5.3,4.6,3,3.4,1.3,1.5C1.1,1.9,1,2.4,1,3c0,0.8,0.3,1.6,0.9,2.2
		l0.7,0.7L1.7,5.7C1.4,5.6,1.2,5.5,1,5.4c0.1,1.2,0.8,2.2,1.9,2.8l1.1,0.5H2.6c-0.1,0-0.3,0-0.5,0c0.4,1.1,1.3,1.9,2.5,2l0.7,0.1
		l-0.6,0.4c-1.1,0.8-2.4,1.2-3.7,1.2L0.6,12.2L0.6,12.2L0.6,12.2z M1.2,1.3L1.2,1.3L1.2,1.3z"/>
</g>
<g>
	<g id="XMLID_4_">
		<path class="st0" d="M-95.8,14c-3.9,0-7-3.1-7-7s3.1-7,7-7c3.9,0,7,3.1,7,7S-92,14-95.8,14z M-95.8,0.5c-3.5,0-6.4,2.9-6.4,6.4
			s2.9,6.5,6.4,6.5c3.5,0,6.4-2.9,6.4-6.4S-92.3,0.5-95.8,0.5z"/>
	</g>
	<g id="XMLID_3_">
		<path class="st0" d="M-93.9,13.8l-0.6-0.1c0.7-7.2-4.9-12.2-5-12.3l0.4-0.4C-99.1,1.1-93.2,6.2-93.9,13.8z"/>
	</g>
	<g id="XMLID_2_">
		<path class="st0" d="M-99.6,12.5l-0.5-0.2c0-0.1,2.9-6.1,11-5.6v0.6C-96.9,6.8-99.6,12.4-99.6,12.5z"/>
	</g>
	<g id="XMLID_1_">
		<path class="st0" d="M-101.7,6.9c-0.6,0-0.9,0-0.9,0l0.1-0.6c0.1,0,6.7,0.6,11.2-4.2l0.4,0.4C-94.6,6.4-99.6,6.9-101.7,6.9z"/>
	</g>
</g>
<g>
	<path class="st0" d="M46.8,14h-3.3V7.3h-1.3V4h1.3V3.1c0-1.5,0.8-3.1,3.1-3.1h2.4v2.8h-1.8c-0.2,0-0.3,0.1-0.3,0.3V4h2.1l-0.3,3.3
		h-2L46.8,14L46.8,14z M44.1,13.4h2.1V6.7h2.1l0.2-2.1h-2.1V3.3c0-0.7,0.5-1,0.9-1h1.2V0.6h-1.8c-2.3,0-2.5,1.9-2.5,2.5v1.6h-1.3
		v2.1H44L44.1,13.4C44,13.4,44.1,13.4,44.1,13.4z"/>
</g>
</svg>
