<svg xmlns="http://www.w3.org/2000/svg" width="24" height="24" viewBox="0 0 24 24">
    <g fill="none" fill-rule="evenodd">
        <path fill="#FFF" d="M12.012 9.418c-1.455 0-2.634 1.143-2.634 2.554 0 1.41 1.179 2.552 2.634 2.552 1.457 0 2.635-1.142 2.635-2.552 0-1.41-1.178-2.554-2.635-2.554zm5.065 1.57h-1.155c.11.357.17.735.17 1.126 0 2.182-1.827 3.951-4.08 3.951-2.252 0-4.077-1.77-4.077-3.951 0-.392.058-.77.168-1.125H6.898v5.542c0 .286.235.521.522.521h9.136a.522.522 0 0 0 .521-.521v-5.542zm-2.08-4.09a.592.592 0 0 0-.59.59v1.414c0 .325.265.591.59.591h1.483a.593.593 0 0 0 .591-.591V7.488a.592.592 0 0 0-.591-.59h-1.483zM7.124 5.44h9.752c.926 0 1.683.685 1.683 1.684v9.752c0 .999-.757 1.683-1.683 1.683H7.124c-.927 0-1.684-.684-1.684-1.683V7.124c0-.999.757-1.684 1.684-1.684z"/>
        <path stroke="#FFF" d="M23.52 12c0 6.362-5.158 11.52-11.52 11.52C5.638 23.52.48 18.362.48 12 .48 5.638 5.638.48 12 .48 18.362.48 23.52 5.638 23.52 12z"/>
    </g>
</svg>
