<?xml version="1.0" encoding="UTF-8"?>
<svg width="33px" height="60px" viewBox="0 0 33 60" version="1.1" xmlns="http://www.w3.org/2000/svg" xmlns:xlink="http://www.w3.org/1999/xlink">
    <!-- Generator: Sketch 49.3 (51167) - http://www.bohemiancoding.com/sketch -->
    <title>Group</title>
    <desc>Created with Sketch.</desc>
    <defs>
        <polygon id="path-1" points="0 0.478796491 24.7376937 0.478796491 24.7376937 59.9291825 0 59.9291825"></polygon>
    </defs>
    <g id="ASSETS" stroke="none" stroke-width="1" fill="none" fill-rule="evenodd">
        <g id="v" transform="translate(-81.000000, -185.000000)">
            <g id="Group" transform="translate(81.000000, 184.000000)">
                <g id="Group-3" transform="translate(0.000000, 0.591807)">
                    <mask id="mask-2" fill="white">
                        <use xlink:href="#path-1"></use>
                    </mask>
                    <g id="Clip-2"></g>
                    <path d="M24.7182473,57.7182 C22.2863634,59.1254807 19.4547473,59.9291825 16.4351491,59.9291825 C7.35906875,59.9291825 0.0288455357,52.8510421 -0.000324107143,43.6496737 C-0.0273330357,34.6666211 3.92353304,28.1032351 7.82362232,20.6655158 C13.6316223,9.59562105 15.7858545,5.6156386 16.3335955,0.478796491 C16.3335955,0.478796491 19.0366491,3.73427018 18.6347562,8.22044561 C18.3581848,11.3143228 16.337917,16.8278667 13.7731491,22.9150246 C11.7085866,27.8142877 9.34260446,32.8173579 8.11855982,36.7288491 C6.85670268,40.7634105 6.75947054,43.4709544 7.57946161,46.8066912 C7.87872054,48.0234807 8.34543482,49.2509719 8.98500625,50.3671649 C13.5948902,58.4009719 23.9328277,57.8369895 24.7376937,57.7085684 L24.7182473,57.7182 Z" id="Fill-1" fill="#FFFFFF" mask="url(#mask-2)"></path>
                </g>
                <path d="M24.3637821,38.1349526 C26.9339518,39.9446193 26.7902643,42.3557246 26.7902643,42.3557246 C26.7902643,45.1553035 24.4988268,47.4251456 21.6736929,47.4251456 C18.8474786,47.4251456 16.5549607,45.1553035 16.5549607,42.3557246 C16.5549607,42.0389526 16.6629964,41.3369175 16.6629964,41.3369175 C17.4657018,37.2124614 21.5840232,29.3006544 22.8545232,24.1520404 C24.2049696,18.6716719 20.4982643,13.4074789 20.4982643,13.4074789 C20.4982643,13.4074789 21.3744339,15.3605491 16.0061393,27.2994263 C13.5115946,32.8461456 11.9796482,36.392707 11.1791036,38.582286 C10.3267018,40.9120579 10.3461482,42.7709526 10.3461482,43.4376719 C10.3461482,49.6179351 15.4227464,54.6242158 21.6704518,54.5889 C27.8414518,54.552514 32.8759161,49.5248298 32.8618714,43.4130579 C32.8489071,37.3430228 27.5357107,33.5214263 24.3573,31.6389877 C22.4699161,30.5195842 22.4699161,28.7644965 22.4699161,28.7644965 L21.6477643,31.3553912 C20.7435054,34.2726895 21.8487107,36.4376544 23.9780946,37.8684789 C24.1088179,37.9573035 24.2384607,38.0461281 24.3637821,38.1349526" id="Fill-4" fill="#FFFFFF"></path>
            </g>
        </g>
    </g>
</svg>