<svg xmlns="http://www.w3.org/2000/svg" xmlns:xlink="http://www.w3.org/1999/xlink" width="1320" height="361" viewBox="0 0 1320 361">
    <defs>
        <path id="a" d="M.86.068h198.838v197.975H.86z"/>
        <path id="c" d="M.316.526h189.382v188.517H.316z"/>
        <path id="e" d="M.774.202h179.924v179.837H.774z"/>
        <path id="g" d="M.45.662h170.249V171.04H.449z"/>
        <path id="i" d="M.912.122h161.785V161.04H.912z"/>
        <path id="k" d="M.371.583h152.326V152.04H.371z"/>
        <path id="m" d="M.042.252h142.656v141.79H.042z"/>
        <path id="o" d="M.501.71h133.197v132.332H.501z"/>
        <path id="q" d="M.96.169h123.738v122.874H.96z"/>
        <path id="s" d="M.417.628h114.281v113.415H.418z"/>
        <path id="u" d="M.093.3h104.606v103.746H.093z"/>
        <path id="w" d="M.86.068h198.838v197.975H.86z"/>
        <path id="y" d="M.316.526h189.382v188.517H.316z"/>
        <path id="A" d="M.774.202h179.924v179.837H.774z"/>
        <path id="C" d="M.45.662h170.249V171.04H.449z"/>
        <path id="E" d="M.912.122h161.785V161.04H.912z"/>
        <path id="G" d="M.371.583h152.326V152.04H.371z"/>
        <path id="I" d="M.042.252h142.656v141.79H.042z"/>
        <path id="K" d="M.501.71h133.197v132.332H.501z"/>
        <path id="M" d="M.96.169h123.738v122.874H.96z"/>
        <path id="O" d="M.417.628h114.281v113.415H.418z"/>
        <path id="Q" d="M.093.3h104.606v103.746H.093z"/>
    </defs>
    <g fill="none" fill-rule="evenodd">
        <g transform="matrix(-1 0 0 1 201 56)">
            <mask id="b" fill="#fff">
                <use xlink:href="#a"/>
            </mask>
            <path stroke="#C4A97F" stroke-width="1.36" d="M199.698.068L.858 198.907" mask="url(#b)"/>
        </g>
        <g transform="matrix(-1 0 0 1 191 65)">
            <mask id="d" fill="#fff">
                <use xlink:href="#c"/>
            </mask>
            <path stroke="#C4A97F" stroke-width="1.36" d="M199.081.526L.316 199.292" mask="url(#d)"/>
        </g>
        <g transform="matrix(-1 0 0 1 182 74)">
            <mask id="f" fill="#fff">
                <use xlink:href="#e"/>
            </mask>
            <path stroke="#C4A97F" stroke-width="1.36" d="M199.46.202L.773 199.75" mask="url(#f)"/>
        </g>
        <g transform="matrix(-1 0 0 1 172 83)">
            <mask id="h" fill="#fff">
                <use xlink:href="#g"/>
            </mask>
            <path stroke="#C4A97F" stroke-width="1.36" d="M198.791.662L.45 200.164" mask="url(#h)"/>
        </g>
        <g transform="matrix(-1 0 0 1 163 93)">
            <mask id="j" fill="#fff">
                <use xlink:href="#i"/>
            </mask>
            <path stroke="#C4A97F" stroke-width="1.36" d="M200.363.122L.912 199.575" mask="url(#j)"/>
        </g>
        <g transform="matrix(-1 0 0 1 154 102)">
            <mask id="l" fill="#fff">
                <use xlink:href="#k"/>
            </mask>
            <path stroke="#C4A97F" stroke-width="1.36" d="M199.767.583L.371 199.977" mask="url(#l)"/>
        </g>
        <g transform="matrix(-1 0 0 1 144 112)">
            <mask id="n" fill="#fff">
                <use xlink:href="#m"/>
            </mask>
            <path stroke="#C4A97F" stroke-width="1.36" d="M199.08.252L.042 199.29" mask="url(#n)"/>
        </g>
        <g transform="matrix(-1 0 0 1 135 121)">
            <mask id="p" fill="#fff">
                <use xlink:href="#o"/>
            </mask>
            <path stroke="#C4A97F" stroke-width="1.36" d="M199.446.71L.501 199.659" mask="url(#p)"/>
        </g>
        <g transform="matrix(-1 0 0 1 126 131)">
            <mask id="r" fill="#fff">
                <use xlink:href="#q"/>
            </mask>
            <path stroke="#C4A97F" stroke-width="1.36" d="M199.8.169L.96 199.009" mask="url(#r)"/>
        </g>
        <g transform="matrix(-1 0 0 1 116 140)">
            <mask id="t" fill="#fff">
                <use xlink:href="#s"/>
            </mask>
            <path stroke="#C4A97F" stroke-width="1.36" d="M199.136.628L.417 199.345" mask="url(#t)"/>
        </g>
        <g transform="matrix(-1 0 0 1 106 149)">
            <mask id="v" fill="#fff">
                <use xlink:href="#u"/>
            </mask>
            <path stroke="#C4A97F" stroke-width="1.36" d="M198.258.3L.093 198.467" mask="url(#v)"/>
        </g>
        <g>
            <g transform="matrix(-1 0 0 1 1320 162)">
                <mask id="x" fill="#fff">
                    <use xlink:href="#w"/>
                </mask>
                <path stroke="#C4A97F" stroke-width="1.36" d="M199.698.068L.858 198.907" mask="url(#x)"/>
            </g>
            <g transform="matrix(-1 0 0 1 1310 171)">
                <mask id="z" fill="#fff">
                    <use xlink:href="#y"/>
                </mask>
                <path stroke="#C4A97F" stroke-width="1.36" d="M199.081.526L.316 199.292" mask="url(#z)"/>
            </g>
            <g transform="matrix(-1 0 0 1 1301 180)">
                <mask id="B" fill="#fff">
                    <use xlink:href="#A"/>
                </mask>
                <path stroke="#C4A97F" stroke-width="1.36" d="M199.46.202L.773 199.75" mask="url(#B)"/>
            </g>
            <g transform="matrix(-1 0 0 1 1291 189)">
                <mask id="D" fill="#fff">
                    <use xlink:href="#C"/>
                </mask>
                <path stroke="#C4A97F" stroke-width="1.36" d="M198.791.662L.45 200.164" mask="url(#D)"/>
            </g>
            <g transform="matrix(-1 0 0 1 1282 199)">
                <mask id="F" fill="#fff">
                    <use xlink:href="#E"/>
                </mask>
                <path stroke="#C4A97F" stroke-width="1.36" d="M200.363.122L.912 199.575" mask="url(#F)"/>
            </g>
            <g transform="matrix(-1 0 0 1 1273 208)">
                <mask id="H" fill="#fff">
                    <use xlink:href="#G"/>
                </mask>
                <path stroke="#C4A97F" stroke-width="1.36" d="M199.767.583L.371 199.977" mask="url(#H)"/>
            </g>
            <g transform="matrix(-1 0 0 1 1263 218)">
                <mask id="J" fill="#fff">
                    <use xlink:href="#I"/>
                </mask>
                <path stroke="#C4A97F" stroke-width="1.36" d="M199.08.252L.042 199.29" mask="url(#J)"/>
            </g>
            <g transform="matrix(-1 0 0 1 1254 227)">
                <mask id="L" fill="#fff">
                    <use xlink:href="#K"/>
                </mask>
                <path stroke="#C4A97F" stroke-width="1.36" d="M199.446.71L.501 199.659" mask="url(#L)"/>
            </g>
            <g transform="matrix(-1 0 0 1 1245 237)">
                <mask id="N" fill="#fff">
                    <use xlink:href="#M"/>
                </mask>
                <path stroke="#C4A97F" stroke-width="1.36" d="M199.8.169L.96 199.009" mask="url(#N)"/>
            </g>
            <g transform="matrix(-1 0 0 1 1235 246)">
                <mask id="P" fill="#fff">
                    <use xlink:href="#O"/>
                </mask>
                <path stroke="#C4A97F" stroke-width="1.36" d="M199.136.628L.417 199.345" mask="url(#P)"/>
            </g>
            <g transform="matrix(-1 0 0 1 1225 255)">
                <mask id="R" fill="#fff">
                    <use xlink:href="#Q"/>
                </mask>
                <path stroke="#C4A97F" stroke-width="1.36" d="M198.258.3L.093 198.467" mask="url(#R)"/>
            </g>
        </g>
        <g stroke="#00C5C5" stroke-width="2.687">
            <path d="M1192.93 1c6.76 10.776 6.76 24.63 0 35.407l-1.857 2.965c-6.764 10.776-6.764 24.627 0 35.407l1.856 2.961c6.761 10.777 6.761 24.631 0 35.407-7.677 12.234-6.546 28.223 2.766 39.185l.567.668M1218.93 1c6.76 10.776 6.76 24.63 0 35.407l-1.858 2.965c-6.763 10.776-6.763 24.627 0 35.407l1.859 2.961c6.759 10.777 6.759 24.631 0 35.407-7.676 12.234-6.545 28.223 2.764 39.185l.567.668M1243.93 1c6.76 10.776 6.76 24.63 0 35.407l-1.858 2.965c-6.763 10.776-6.763 24.627 0 35.407l1.859 2.961c6.759 10.777 6.759 24.631 0 35.407-7.676 12.234-6.545 28.223 2.764 39.185l.567.668M1269.93 1c6.76 10.776 6.76 24.63 0 35.407l-1.857 2.965c-6.764 10.776-6.764 24.627 0 35.407l1.856 2.961c6.761 10.777 6.761 24.631 0 35.407-7.675 12.234-6.546 28.223 2.766 39.185l.57.668"/>
        </g>
    </g>
</svg>
