<svg xmlns="http://www.w3.org/2000/svg" xmlns:xlink="http://www.w3.org/1999/xlink" width="302" height="149" viewBox="0 0 302 149">
    <defs>
        <path id="a" d="M.227.255h13.941v10.669H.228z"/>
    </defs>
    <g fill="none" fill-rule="evenodd">
        <g stroke="#00C5C5" stroke-linecap="round" stroke-linejoin="round" stroke-width=".952">
            <path d="M40 2.218v.001c-1.373 1.189-3.138 1.189-4.511 0l-.377-.327c-1.374-1.19-3.139-1.19-4.512 0l-.377.327c-1.373 1.189-3.138 1.189-4.512 0-1.558-1.35-3.595-1.152-4.992.486l-.085.1-.269.303c-1.372 1.19-3.138 1.19-4.51 0l-.378-.327c-1.373-1.19-3.138-1.19-4.511 0l-.378.327c-1.373 1.19-3.138 1.19-4.51 0-1.56-1.35-3.596-1.152-4.993.487L1 3.694M40 7.219c-1.373 1.19-3.138 1.19-4.511 0l-.377-.327c-1.374-1.19-3.139-1.19-4.512 0l-.377.327c-1.373 1.19-3.138 1.19-4.512 0-1.558-1.35-3.595-1.151-4.992.486l-.085.1-.269.303c-1.372 1.19-3.138 1.19-4.51 0l-.378-.327c-1.373-1.19-3.138-1.19-4.511 0l-.378.327c-1.373 1.19-3.138 1.19-4.51 0-1.56-1.35-3.596-1.152-4.993.487L1 8.694M40 11.219c-1.373 1.189-3.138 1.189-4.511 0l-.377-.327c-1.374-1.19-3.139-1.19-4.512 0l-.377.327c-1.373 1.189-3.138 1.189-4.512 0-1.558-1.35-3.595-1.152-4.992.486l-.085.1-.269.303c-1.372 1.19-3.138 1.19-4.51 0l-.378-.327c-1.373-1.189-3.138-1.189-4.511 0l-.378.327c-1.373 1.19-3.138 1.19-4.51 0-1.56-1.35-3.596-1.152-4.993.487L1 12.694M40 16.219c-1.373 1.19-3.138 1.19-4.511 0l-.377-.327c-1.374-1.19-3.139-1.19-4.512 0l-.377.327c-1.373 1.19-3.138 1.19-4.512 0-1.558-1.35-3.595-1.152-4.992.486l-.085.1-.269.303c-1.372 1.19-3.138 1.19-4.51 0l-.378-.327c-1.373-1.19-3.138-1.19-4.511 0l-.378.327c-1.373 1.19-3.138 1.19-4.51 0-1.56-1.35-3.596-1.152-4.993.487L1 17.694M40 21.219c-1.373 1.19-3.138 1.19-4.511 0l-.377-.327c-1.374-1.19-3.139-1.19-4.512 0l-.377.327c-1.373 1.19-3.138 1.19-4.512 0-1.558-1.35-3.595-1.151-4.992.486l-.085.1-.269.303c-1.372 1.19-3.138 1.19-4.51 0l-.378-.327c-1.373-1.19-3.138-1.19-4.511 0l-.378.327c-1.373 1.19-3.138 1.19-4.51 0-1.56-1.35-3.596-1.152-4.993.487L1 22.694M40 25.219c-1.373 1.19-3.138 1.19-4.511 0l-.377-.327c-1.374-1.19-3.139-1.19-4.512 0l-.377.327c-1.373 1.19-3.138 1.19-4.512 0-1.558-1.35-3.595-1.151-4.992.486l-.085.1-.269.303c-1.372 1.19-3.138 1.19-4.51 0l-.378-.327c-1.373-1.19-3.138-1.19-4.511 0l-.378.327c-1.373 1.19-3.138 1.19-4.51 0-1.56-1.35-3.596-1.151-4.993.487L1 26.694M40 30.219c-1.373 1.19-3.138 1.19-4.511 0l-.377-.327c-1.374-1.19-3.139-1.19-4.512 0l-.377.327c-1.373 1.19-3.138 1.19-4.512 0-1.558-1.35-3.595-1.152-4.992.486l-.085.1-.269.303c-1.372 1.19-3.138 1.19-4.51 0l-.378-.327c-1.373-1.19-3.138-1.19-4.511 0l-.378.327c-1.373 1.19-3.138 1.19-4.51 0-1.56-1.35-3.596-1.152-4.993.487L1 31.694M40 35.219c-1.373 1.19-3.138 1.19-4.511 0l-.377-.327c-1.374-1.19-3.139-1.19-4.512 0l-.377.327c-1.373 1.19-3.138 1.19-4.512 0-1.558-1.35-3.595-1.151-4.992.486l-.085.1-.269.303c-1.372 1.19-3.138 1.19-4.51 0l-.378-.327c-1.373-1.19-3.138-1.19-4.511 0l-.378.327c-1.373 1.19-3.138 1.19-4.51 0-1.56-1.35-3.596-1.152-4.993.487L1 36.694"/>
        </g>
        <path stroke="#C4A97F" stroke-width="6.701" d="M282.659 127.318c0 9.969-8.206 18.05-18.329 18.05-10.124 0-18.33-8.081-18.33-18.05 0-9.97 8.206-18.05 18.33-18.05 10.123 0 18.329 8.08 18.329 18.05z"/>
        <g transform="translate(281.986 99)">
            <mask id="b" fill="#fff">
                <use xlink:href="#a"/>
            </mask>
            <path fill="#C4A97F" d="M6.87.255L.228 10.924h13.941z" mask="url(#b)"/>
        </g>
        <path stroke="#00C5C5" stroke-width="2.687" d="M300.484 124.237a7.737 7.737 0 0 1-8.462 0l-.707-.462a7.733 7.733 0 0 0-8.461 0l-.708.462a7.737 7.737 0 0 1-8.462 0 7.74 7.74 0 0 0-9.364.686l-.159.141M300.484 130.198a7.736 7.736 0 0 1-8.462 0l-.707-.461a7.732 7.732 0 0 0-8.461 0l-.708.461a7.736 7.736 0 0 1-8.462 0 7.74 7.74 0 0 0-9.364.687l-.159.141"/>
    </g>
</svg>
