<svg xmlns="http://www.w3.org/2000/svg" width="1320" height="360" viewBox="0 0 1320 360">
    <g fill="none" fill-rule="evenodd">
        <path fill="#F05944" d="M72.588 197.387c-.143 7.07-3.995 13.248-7.42 16.605-3.803 3.724-10.604 7.254-16.943 7.268h-9.443c-10.182-1.137-20.768 1.97-28.58 9.625-13.603 13.327-13.603 34.934 0 48.261 6.958 6.815 16.118 10.093 25.234 9.938H48.16c6.932.272 13.31 3.593 17.004 7.213 3.642 3.567 7.274 9.327 7.36 16.66v9.658c-.957 9.788 2.232 19.893 9.88 27.39 13.603 13.327 35.654 13.327 49.253 0 13.602-13.327 13.602-34.934 0-48.264-7.648-7.496-17.96-10.616-27.952-9.68H93.85c-7.213-.144-13.52-3.915-16.943-7.27-3.805-3.727-7.403-10.393-7.42-16.603v-11.459c.05-.93.093-1.85.064-2.78v-11.79c.277-6.791 3.665-13.04 7.36-16.662 3.64-3.564 9.518-7.128 17.003-7.213h13.406l-.04-.038c8.875-.027 17.746-3.351 24.517-9.985 13.603-13.33 13.603-34.937 0-48.264-13.599-13.33-35.65-13.33-49.252 0-7.447 7.298-10.668 17.07-9.958 26.61v10.78z"/>
        <circle cx="1218.5" cy="32.5" r="32.5" fill="#603C94"/>
        <circle cx="1308.5" cy="297.5" r="11.5" fill="#F05944"/>
    </g>
</svg>
