<svg xmlns="http://www.w3.org/2000/svg" xmlns:xlink="http://www.w3.org/1999/xlink" viewBox="0 0 70 70"><defs><style>.cls-1{fill:none;}.cls-2{fill:url(#linear-gradient);}</style><linearGradient id="linear-gradient" x1="11.44" y1="58.55" x2="58.16" y2="11.83" gradientUnits="userSpaceOnUse"><stop offset="0.13" stop-color="#f05844"/><stop offset="1" stop-color="#603d97"/></linearGradient></defs><title>Asset 4</title><g id="Layer_2" data-name="Layer 2"><g id="Layer_1-2" data-name="Layer 1"><rect class="cls-1" width="70" height="70"/><path id="_Compound_Path_" data-name="&lt;Compound Path&gt;" class="cls-2" d="M39.61,43.9A6.49,6.49,0,0,1,35,55H32.51a4.89,4.89,0,0,0-3.16,1.38A4.82,4.82,0,0,0,28,59.51v1.84a6.49,6.49,0,1,1-5.81-5.81H24a4.59,4.59,0,0,0,3.17-1.37A5,5,0,0,0,28.54,51V48.54A6.49,6.49,0,0,1,39.61,43.9ZM14.44,46a4.82,4.82,0,0,1,1.38-3.16A4.89,4.89,0,0,1,19,41.44h1.76a6.47,6.47,0,1,0,.62-12.9H19a5,5,0,0,1-3.17-1.37A4.59,4.59,0,0,1,14.45,24V22.16A6.49,6.49,0,1,0,8.64,28h1.84a4.82,4.82,0,0,1,3.16,1.38A4.89,4.89,0,0,1,15,32.51v2.18c0,.18,0,.35,0,.53v2.24a5,5,0,0,1-1.37,3.17A4.59,4.59,0,0,1,10.46,42H8a6.51,6.51,0,1,0,6.47,6ZM62,42H59.5a5,5,0,0,1-3.17-1.37A4.59,4.59,0,0,1,55,37.43V35.56a6.48,6.48,0,0,0,0-1.26V32.54a4.82,4.82,0,0,1,1.38-3.16A4.89,4.89,0,0,1,59.49,28H62a6.49,6.49,0,1,0-6.45-6.45h0V24a5,5,0,0,1-1.37,3.17A4.59,4.59,0,0,1,51,28.56H49.21a6.47,6.47,0,1,0,0,12.85H51a4.82,4.82,0,0,1,3.16,1.38A4.89,4.89,0,0,1,55.52,46v2.34A6.48,6.48,0,1,0,62,42ZM43.9,57.42a6.49,6.49,0,1,0,9.18,0A6.49,6.49,0,0,0,43.9,57.42ZM26.08,12.58a6.49,6.49,0,1,0-9.18,0A6.49,6.49,0,0,0,26.08,12.58Zm13.5,13.49a6.45,6.45,0,0,0,1.84-5.26V19a4.82,4.82,0,0,1,1.38-3.16A4.89,4.89,0,0,1,46,14.46h2.34A6.48,6.48,0,1,0,42,8h0v2.5a5,5,0,0,1-1.37,3.17A4.59,4.59,0,0,1,37.43,15h-2a6.48,6.48,0,1,0,4.17,11Z"/></g></g></svg>