<svg xmlns="http://www.w3.org/2000/svg" viewBox="0 0 15.89 16"><defs><style>.cls-1{fill:#8f8fd1;}</style></defs><title>Asset 1</title><g id="Layer_2" data-name="Layer 2"><g id="Layer_1-2" data-name="Layer 1"><g id="_Group_" data-name="&lt;Group&gt;"><path class="cls-1" d="M13.12,16H2.77A2.79,2.79,0,0,1,0,13.23V2.77A2.75,2.75,0,0,1,2.77,0H13.12a2.79,2.79,0,0,1,2.77,2.77V13.23A2.75,2.75,0,0,1,13.12,16ZM2.77.64A2.14,2.14,0,0,0,.64,2.77V13.23a2.14,2.14,0,0,0,2.13,2.13H13.12a2.14,2.14,0,0,0,2.13-2.13V2.77A2.14,2.14,0,0,0,13.12.64Z"/></g><g id="_Group_2" data-name="&lt;Group&gt;"><path class="cls-1" d="M9.49,11.73H6.56A2.14,2.14,0,0,1,4.43,9.6v-3A2.14,2.14,0,0,1,6.56,4.43H9.49a2.14,2.14,0,0,1,2.13,2.13v3A2.21,2.21,0,0,1,9.49,11.73Zm-3-6.83A1.46,1.46,0,0,0,5,6.4v3a1.46,1.46,0,0,0,1.49,1.49H9.44a1.46,1.46,0,0,0,1.49-1.49V6.51A1.46,1.46,0,0,0,9.44,5L6.51,4.91Z"/></g><g id="_Group_3" data-name="&lt;Group&gt;"><path class="cls-1" d="M9.49,11.73H6.56A2.14,2.14,0,0,1,4.43,9.6v-3A2.14,2.14,0,0,1,6.56,4.43H9.49a2.14,2.14,0,0,1,2.13,2.13v3A2.21,2.21,0,0,1,9.49,11.73Zm-3-6.83A1.46,1.46,0,0,0,5,6.4v3a1.46,1.46,0,0,0,1.49,1.49H9.44a1.46,1.46,0,0,0,1.49-1.49V6.51A1.46,1.46,0,0,0,9.44,5L6.51,4.91Z"/></g><g id="_Group_4" data-name="&lt;Group&gt;"><path class="cls-1" d="M12.69,4.37a1,1,0,1,1,1-1A1,1,0,0,1,12.69,4.37Zm0-1.44a.4.4,0,0,0-.37.37.37.37,0,0,0,.75,0A.4.4,0,0,0,12.69,2.93Z"/></g></g></g></svg>