<svg xmlns="http://www.w3.org/2000/svg" xmlns:xlink="http://www.w3.org/1999/xlink" width="299" height="799" viewBox="0 0 299 799">
    <defs>
        <path id="a" d="M.542.043h125.161V124.18H.542z"/>
        <path id="c" d="M.2.33h119.209v118.207H.199z"/>
        <path id="e" d="M.487.126h113.257v112.765H.487z"/>
        <path id="g" d="M.283.415H107.45v106.833H.283z"/>
        <path id="i" d="M.574.076h101.839v100.902H.573z"/>
        <path id="k" d="M.234.366h95.884v94.969H.234z"/>
        <path id="m" d="M.027.158h89.797v88.907H.027z"/>
        <path id="o" d="M.315.446H84.16v82.976H.315z"/>
        <path id="q" d="M.604.106h77.89v77.046H.604z"/>
        <path id="s" d="M.263.394h71.936v71.115H.263z"/>
        <path id="u" d="M.058.189h65.847V65.24H.058z"/>
        <path id="w" d="M.542.043h125.161V124.18H.542z"/>
        <path id="y" d="M.2.33h119.209v118.207H.199z"/>
        <path id="A" d="M.487.126h113.257v112.765H.487z"/>
        <path id="C" d="M.283.415H107.45v106.833H.283z"/>
        <path id="E" d="M.574.076h101.839v100.902H.573z"/>
        <path id="G" d="M.234.366h95.884v94.969H.234z"/>
        <path id="I" d="M.027.158h89.797v88.907H.027z"/>
        <path id="K" d="M.315.446H84.16v82.976H.315z"/>
        <path id="M" d="M.604.106h77.89v77.046H.604z"/>
        <path id="O" d="M.263.394h71.936v71.115H.263z"/>
        <path id="Q" d="M.058.189h65.847V65.24H.058z"/>
    </defs>
    <g fill="none" fill-rule="evenodd">
        <g transform="matrix(-1 0 0 1 299.502 674)">
            <mask id="b" fill="#fff">
                <use xlink:href="#a"/>
            </mask>
            <path stroke="#C4A97F" stroke-width="1.36" d="M125.703.042L.54 124.722" mask="url(#b)"/>
        </g>
        <g transform="matrix(-1 0 0 1 293.207 679.643)">
            <mask id="d" fill="#fff">
                <use xlink:href="#c"/>
            </mask>
            <path stroke="#C4A97F" stroke-width="1.36" d="M125.315.33L.2 124.963" mask="url(#d)"/>
        </g>
        <g transform="matrix(-1 0 0 1 287.542 685.287)">
            <mask id="f" fill="#fff">
                <use xlink:href="#e"/>
            </mask>
            <path stroke="#C4A97F" stroke-width="1.36" d="M125.553.126L.487 125.25" mask="url(#f)"/>
        </g>
        <g transform="matrix(-1 0 0 1 281.247 690.93)">
            <mask id="h" fill="#fff">
                <use xlink:href="#g"/>
            </mask>
            <path stroke="#C4A97F" stroke-width="1.36" d="M125.133.415L.283 125.51" mask="url(#h)"/>
        </g>
        <g transform="matrix(-1 0 0 1 275.582 697.2)">
            <mask id="j" fill="#fff">
                <use xlink:href="#i"/>
            </mask>
            <path stroke="#C4A97F" stroke-width="1.36" d="M126.122.076L.574 125.14" mask="url(#j)"/>
        </g>
        <g transform="matrix(-1 0 0 1 269.917 702.844)">
            <mask id="l" fill="#fff">
                <use xlink:href="#k"/>
            </mask>
            <path stroke="#C4A97F" stroke-width="1.36" d="M125.747.366L.234 125.393" mask="url(#l)"/>
        </g>
        <g transform="matrix(-1 0 0 1 263.622 709.114)">
            <mask id="n" fill="#fff">
                <use xlink:href="#m"/>
            </mask>
            <path stroke="#C4A97F" stroke-width="1.36" d="M125.315.158L.027 124.962" mask="url(#n)"/>
        </g>
        <g transform="matrix(-1 0 0 1 257.957 714.757)">
            <mask id="p" fill="#fff">
                <use xlink:href="#o"/>
            </mask>
            <path stroke="#C4A97F" stroke-width="1.36" d="M125.545.446L.315 125.192" mask="url(#p)"/>
        </g>
        <g transform="matrix(-1 0 0 1 252.292 721.028)">
            <mask id="r" fill="#fff">
                <use xlink:href="#q"/>
            </mask>
            <path stroke="#C4A97F" stroke-width="1.36" d="M125.768.106L.604 124.786" mask="url(#r)"/>
        </g>
        <g transform="matrix(-1 0 0 1 245.997 726.671)">
            <mask id="t" fill="#fff">
                <use xlink:href="#s"/>
            </mask>
            <path stroke="#C4A97F" stroke-width="1.36" d="M125.35.394L.263 124.996" mask="url(#t)"/>
        </g>
        <g transform="matrix(-1 0 0 1 239.702 732.314)">
            <mask id="v" fill="#fff">
                <use xlink:href="#u"/>
            </mask>
            <path stroke="#C4A97F" stroke-width="1.36" d="M124.797.189L.058 124.445" mask="url(#v)"/>
        </g>
        <g stroke="#00C5C5" stroke-width="2.687">
            <path d="M241.343 355c4.238 6.78 4.238 15.496 0 22.275l-1.164 1.865c-4.239 6.78-4.239 15.494 0 22.276l1.164 1.863c4.238 6.78 4.238 15.496 0 22.275-4.812 7.697-4.103 17.756 1.733 24.652l.356.42M257.64 355c4.236 6.78 4.236 15.496 0 22.275l-1.165 1.865c-4.239 6.78-4.239 15.494 0 22.276l1.165 1.863c4.236 6.78 4.236 15.496 0 22.275-4.811 7.697-4.102 17.756 1.733 24.652l.355.42M273.309 355c4.236 6.78 4.236 15.496 0 22.275l-1.165 1.865c-4.239 6.78-4.239 15.494 0 22.276l1.165 1.863c4.236 6.78 4.236 15.496 0 22.275-4.811 7.697-4.102 17.756 1.733 24.652l.355.42M289.604 355c4.237 6.78 4.237 15.496 0 22.275l-1.164 1.865c-4.239 6.78-4.239 15.494 0 22.276l1.164 1.863c4.237 6.78 4.237 15.496 0 22.275-4.81 7.697-4.103 17.756 1.733 24.652l.357.42"/>
        </g>
        <g>
            <g transform="matrix(-1 0 0 1 127 0)">
                <mask id="x" fill="#fff">
                    <use xlink:href="#w"/>
                </mask>
                <path stroke="#C4A97F" stroke-width="1.36" d="M125.703.042L.54 124.722" mask="url(#x)"/>
            </g>
            <g transform="matrix(-1 0 0 1 120.705 5.643)">
                <mask id="z" fill="#fff">
                    <use xlink:href="#y"/>
                </mask>
                <path stroke="#C4A97F" stroke-width="1.36" d="M125.315.33L.2 124.963" mask="url(#z)"/>
            </g>
            <g transform="matrix(-1 0 0 1 115.04 11.287)">
                <mask id="B" fill="#fff">
                    <use xlink:href="#A"/>
                </mask>
                <path stroke="#C4A97F" stroke-width="1.36" d="M125.553.126L.487 125.25" mask="url(#B)"/>
            </g>
            <g transform="matrix(-1 0 0 1 108.745 16.93)">
                <mask id="D" fill="#fff">
                    <use xlink:href="#C"/>
                </mask>
                <path stroke="#C4A97F" stroke-width="1.36" d="M125.133.415L.283 125.51" mask="url(#D)"/>
            </g>
            <g transform="matrix(-1 0 0 1 103.08 23.2)">
                <mask id="F" fill="#fff">
                    <use xlink:href="#E"/>
                </mask>
                <path stroke="#C4A97F" stroke-width="1.36" d="M126.122.076L.574 125.14" mask="url(#F)"/>
            </g>
            <g transform="matrix(-1 0 0 1 97.415 28.844)">
                <mask id="H" fill="#fff">
                    <use xlink:href="#G"/>
                </mask>
                <path stroke="#C4A97F" stroke-width="1.36" d="M125.747.366L.234 125.393" mask="url(#H)"/>
            </g>
            <g transform="matrix(-1 0 0 1 91.12 35.114)">
                <mask id="J" fill="#fff">
                    <use xlink:href="#I"/>
                </mask>
                <path stroke="#C4A97F" stroke-width="1.36" d="M125.315.158L.027 124.962" mask="url(#J)"/>
            </g>
            <g transform="matrix(-1 0 0 1 85.455 40.757)">
                <mask id="L" fill="#fff">
                    <use xlink:href="#K"/>
                </mask>
                <path stroke="#C4A97F" stroke-width="1.36" d="M125.545.446L.315 125.192" mask="url(#L)"/>
            </g>
            <g transform="matrix(-1 0 0 1 79.79 47.028)">
                <mask id="N" fill="#fff">
                    <use xlink:href="#M"/>
                </mask>
                <path stroke="#C4A97F" stroke-width="1.36" d="M125.768.106L.604 124.786" mask="url(#N)"/>
            </g>
            <g transform="matrix(-1 0 0 1 73.495 52.671)">
                <mask id="P" fill="#fff">
                    <use xlink:href="#O"/>
                </mask>
                <path stroke="#C4A97F" stroke-width="1.36" d="M125.35.394L.263 124.996" mask="url(#P)"/>
            </g>
            <g transform="matrix(-1 0 0 1 67.2 58.314)">
                <mask id="R" fill="#fff">
                    <use xlink:href="#Q"/>
                </mask>
                <path stroke="#C4A97F" stroke-width="1.36" d="M124.797.189L.058 124.445" mask="url(#R)"/>
            </g>
        </g>
    </g>
</svg>
