<svg xmlns="http://www.w3.org/2000/svg" xmlns:xlink="http://www.w3.org/1999/xlink" width="1150" height="570" viewBox="0 0 1150 570">
    <defs>
        <filter id="a" width="105.4%" height="111.3%" x="-2.7%" y="-5.7%" filterUnits="objectBoundingBox">
            <feOffset in="SourceAlpha" result="shadowOffsetOuter1"/>
            <feGaussianBlur in="shadowOffsetOuter1" result="shadowBlurOuter1" stdDeviation="10"/>
            <feColorMatrix in="shadowBlurOuter1" result="shadowMatrixOuter1" values="0 0 0 0 0 0 0 0 0 0 0 0 0 0 0 0 0 0 0.1 0"/>
            <feMerge>
                <feMergeNode in="shadowMatrixOuter1"/>
                <feMergeNode in="SourceGraphic"/>
            </feMerge>
        </filter>
        <path id="b" d="M0 0h1110v530H0z"/>
        <path id="d" d="M.198.225h147.509v166.728H.197z"/>
        <path id="f" d="M0 258h640V0H0z"/>
    </defs>
    <g fill="none" fill-rule="evenodd" filter="url(#a)" transform="translate(20 20)">
        <mask id="c" fill="#fff">
            <use xlink:href="#b"/>
        </mask>
        <use fill="#FFF" xlink:href="#b"/>
        <g mask="url(#c)">
            <g transform="translate(235 138)">
                <path fill="#848484" d="M620.52 127.517V98.73c0-.613-.342-.921-1.024-.921h-14.342c-5.672 0-8.504 2.97-8.504 8.912v21.313c0 5.94 2.832 8.91 8.504 8.91h5.838c3.073 0 5.43-.817 7.07-2.456 1.636-1.642 2.458-3.96 2.458-6.968v-.003zM609.66 143.5h-5.327c-4.715 0-8.418-1.331-11.117-3.996-2.698-2.664-4.047-6.385-4.047-11.164v-21.927c0-4.779 1.349-8.505 4.05-11.168 2.696-2.664 6.401-3.996 11.114-3.996h22.233c.954 0 1.434.48 1.434 1.433v49.383c0 .959-.48 1.435-1.434 1.435h-4.613c-.956 0-1.433-.476-1.433-1.435v-3.996h-.409c-1.708 3.622-5.191 5.431-10.45 5.431zm-94.825 0h-4.651c-.966 0-1.448-.476-1.448-1.435V92.682c0-.953.482-1.433 1.448-1.433h4.651c.963 0 1.448.48 1.448 1.433v3.996h.413c1.928-3.619 5.58-5.429 10.956-5.429h3.824c6.064 0 10.265 2.322 12.61 6.967 1.103-2.255 2.842-3.977 5.219-5.173a16.493 16.493 0 0 1 7.497-1.794h3.62c4.684 0 8.334 1.332 10.955 3.996 2.618 2.663 3.927 6.389 3.927 11.165v35.655c0 .959-.482 1.435-1.448 1.435h-4.65c-.966 0-1.449-.476-1.449-1.435v-35.347c0-5.94-2.892-8.91-8.68-8.91h-3.412c-3.1 0-5.495.87-7.184 2.613-1.689 1.738-2.532 4.114-2.532 7.117v34.527c0 .959-.483 1.435-1.448 1.435h-4.651c-.965 0-1.445-.476-1.445-1.435v-35.347c0-5.94-2.896-8.91-8.682-8.91h-3.827c-3.1 0-5.478.818-7.13 2.456-1.654 1.642-2.48 3.963-2.48 6.97v34.83c0 .96-.486 1.436-1.448 1.436h-.003zm-27.447-18.084V98.879c0-.63-.341-.942-1.024-.942h-14.24c-5.738 0-8.606 3.029-8.606 9.09v18.912c0 6.06 2.868 9.089 8.606 9.089h5.736c3.073 0 5.43-.837 7.07-2.509 1.64-1.669 2.458-4.037 2.458-7.103zm-10.859 16.296h-5.738c-4.646 0-8.266-1.356-10.859-4.07-2.599-2.722-3.894-6.517-3.894-11.393V106.71c0-4.875 1.348-8.673 4.05-11.387 2.693-2.714 6.398-4.074 11.11-4.074h22.234c.956 0 1.433.487 1.433 1.464v51.824c0 4.807-1.348 8.582-4.05 11.335-2.695 2.75-6.4 4.128-11.113 4.128H460.85c-1.026 0-1.536-.487-1.536-1.463v-3.866c0-.977.512-1.46 1.536-1.46h17.931c5.739 0 8.607-2.998 8.607-8.988v-8.046h-.408c-1.776 3.693-5.262 5.539-10.451 5.539v-.004zm-37.133.36v-49.09c0-.948.494-1.424 1.481-1.424h5.243c1.064 0 1.597.476 1.597 1.425v49.092c0 .955-.533 1.428-1.595 1.428h-5.13c-1.066 0-1.596-.473-1.596-1.428v-.002zm0-59.072v-9.573c0-.951.494-1.427 1.481-1.427h5.243c1.064 0 1.597.476 1.597 1.427v9.57c0 .954-.533 1.43-1.595 1.43h-5.241c-.99 0-1.485-.476-1.485-1.43V83zm-46.651 60.5h-4.613c-.957 0-1.433-.476-1.433-1.435V92.682c0-.953.476-1.433 1.433-1.433h4.613c.954 0 1.434.48 1.434 1.433v3.996h.408c1.708-3.619 5.192-5.429 10.45-5.429h5.739c4.643 0 8.262 1.332 10.858 3.996 2.597 2.663 3.894 6.389 3.894 11.165v35.655c0 .959-.479 1.435-1.433 1.435h-4.613c-.957 0-1.434-.476-1.434-1.435v-35.347c0-5.94-2.868-8.91-8.604-8.91h-5.738c-3.073 0-5.43.818-7.07 2.456-1.636 1.642-2.457 3.963-2.457 6.97v34.83c0 .96-.48 1.436-1.434 1.436zm-50.34-27.968h22.13c.682 0 1.026-.343 1.026-1.025v-7.89c0-5.874-2.87-8.811-8.607-8.811h-6.967c-5.738 0-8.606 2.937-8.606 8.811v7.89c0 .682.341 1.023 1.026 1.023l-.002.002zm28.478 27.968h-21.72c-4.712 0-8.418-1.331-11.116-3.996-2.699-2.662-4.047-6.385-4.047-11.164v-21.927c0-4.779 1.348-8.505 4.05-11.168 2.693-2.664 6.398-3.996 11.11-3.996h8.607c4.715 0 8.404 1.332 11.067 3.996 2.662 2.663 3.993 6.389 3.993 11.165v13.014c0 1.025-.479 1.537-1.433 1.537H342.4c-.682 0-1.026.308-1.026.92v6.252c0 5.94 2.871 8.913 8.61 8.913h20.898c.957 0 1.434.478 1.434 1.435v3.685c0 .891-.477 1.334-1.434 1.334z"/>
                <path fill="#A8A8A8" d="M309.545 92.983h-19.01v-.025c0-1.08-.935-1.958-2.089-1.958h-4.355c-1.156 0-2.091.878-2.091 1.958v4.082c0 1.08.935 1.958 2.09 1.958h4.356c1.154 0 2.089-.875 2.089-1.958v-.025h19.013c1.184 0 2.15.906 2.15 2.02v19.932c0 1.113-.963 2.019-2.153 2.019h-10.473v-.025c0-1.08-.935-1.958-2.091-1.958h-4.355c-1.153 0-2.091.875-2.091 1.958v4.082c0 1.08.935 1.957 2.09 1.957h4.356c1.156 0 2.091-.877 2.091-1.957v-.025h10.47c3.562 0 6.458-2.714 6.458-6.051V99.034c0-3.337-2.896-6.05-6.458-6.05h.003z"/>
                <path fill="#A8A8A8" d="M313.909 141.414h-4.354a2.098 2.098 0 0 0-2.09 2.103v.025h-19.01a2.162 2.162 0 0 1-2.151-2.165v-27.754c0-1.192.963-2.165 2.153-2.165h10.472v.028c0 1.159.935 2.1 2.091 2.1h4.355a2.097 2.097 0 0 0 2.09-2.103v-4.38a2.097 2.097 0 0 0-2.09-2.103h-4.355a2.098 2.098 0 0 0-2.091 2.104v.025H288.46c-3.564 0-6.46 2.914-6.46 6.494v27.754c0 3.58 2.896 6.497 6.457 6.497h19.009v.022c0 1.161.935 2.104 2.089 2.104h4.354a2.097 2.097 0 0 0 2.09-2.103v-4.38a2.097 2.097 0 0 0-2.09-2.103"/>
                <path stroke="#515151" stroke-width="1.199" d="M331 91h305M331 144h305"/>
                <path stroke="#B9B9BA" d="M334 86v63"/>
                <path fill="#848484" d="M620.52 127.517V98.73c0-.613-.342-.921-1.024-.921h-14.342c-5.672 0-8.504 2.97-8.504 8.912v21.313c0 5.94 2.832 8.91 8.504 8.91h5.838c3.073 0 5.43-.817 7.07-2.456 1.636-1.642 2.458-3.96 2.458-6.968v-.003zM609.66 143.5h-5.327c-4.715 0-8.418-1.331-11.117-3.996-2.698-2.664-4.047-6.385-4.047-11.164v-21.927c0-4.779 1.349-8.505 4.05-11.168 2.696-2.664 6.401-3.996 11.114-3.996h22.233c.954 0 1.434.48 1.434 1.433v49.383c0 .959-.48 1.435-1.434 1.435h-4.613c-.956 0-1.433-.476-1.433-1.435v-3.996h-.409c-1.708 3.622-5.191 5.431-10.45 5.431zm-94.825 0h-4.651c-.966 0-1.448-.476-1.448-1.435V92.682c0-.953.482-1.433 1.448-1.433h4.651c.963 0 1.448.48 1.448 1.433v3.996h.413c1.928-3.619 5.58-5.429 10.956-5.429h3.824c6.064 0 10.265 2.322 12.61 6.967 1.103-2.255 2.842-3.977 5.219-5.173a16.493 16.493 0 0 1 7.497-1.794h3.62c4.684 0 8.334 1.332 10.955 3.996 2.618 2.663 3.927 6.389 3.927 11.165v35.655c0 .959-.482 1.435-1.448 1.435h-4.65c-.966 0-1.449-.476-1.449-1.435v-35.347c0-5.94-2.892-8.91-8.68-8.91h-3.412c-3.1 0-5.495.87-7.184 2.613-1.689 1.738-2.532 4.114-2.532 7.117v34.527c0 .959-.483 1.435-1.448 1.435h-4.651c-.965 0-1.445-.476-1.445-1.435v-35.347c0-5.94-2.896-8.91-8.682-8.91h-3.827c-3.1 0-5.478.818-7.13 2.456-1.654 1.642-2.48 3.963-2.48 6.97v34.83c0 .96-.486 1.436-1.448 1.436h-.003zm-27.447-18.084V98.879c0-.63-.341-.942-1.024-.942h-14.24c-5.738 0-8.606 3.029-8.606 9.09v18.912c0 6.06 2.868 9.089 8.606 9.089h5.736c3.073 0 5.43-.837 7.07-2.509 1.64-1.669 2.458-4.037 2.458-7.103zm-10.859 16.296h-5.738c-4.646 0-8.266-1.356-10.859-4.07-2.599-2.722-3.894-6.517-3.894-11.393V106.71c0-4.875 1.348-8.673 4.05-11.387 2.693-2.714 6.398-4.074 11.11-4.074h22.234c.956 0 1.433.487 1.433 1.464v51.824c0 4.807-1.348 8.582-4.05 11.335-2.695 2.75-6.4 4.128-11.113 4.128H460.85c-1.026 0-1.536-.487-1.536-1.463v-3.866c0-.977.512-1.46 1.536-1.46h17.931c5.739 0 8.607-2.998 8.607-8.988v-8.046h-.408c-1.776 3.693-5.262 5.539-10.451 5.539v-.004zm-37.133.36v-49.09c0-.948.494-1.424 1.481-1.424h5.243c1.064 0 1.597.476 1.597 1.425v49.092c0 .955-.533 1.428-1.595 1.428h-5.13c-1.066 0-1.596-.473-1.596-1.428v-.002zm0-59.072v-9.573c0-.951.494-1.427 1.481-1.427h5.243c1.064 0 1.597.476 1.597 1.427v9.57c0 .954-.533 1.43-1.595 1.43h-5.241c-.99 0-1.485-.476-1.485-1.43V83zm-46.651 60.5h-4.613c-.957 0-1.433-.476-1.433-1.435V92.682c0-.953.476-1.433 1.433-1.433h4.613c.954 0 1.434.48 1.434 1.433v3.996h.408c1.708-3.619 5.192-5.429 10.45-5.429h5.739c4.643 0 8.262 1.332 10.858 3.996 2.597 2.663 3.894 6.389 3.894 11.165v35.655c0 .959-.479 1.435-1.433 1.435h-4.613c-.957 0-1.434-.476-1.434-1.435v-35.347c0-5.94-2.868-8.91-8.604-8.91h-5.738c-3.073 0-5.43.818-7.07 2.456-1.636 1.642-2.457 3.963-2.457 6.97v34.83c0 .96-.48 1.436-1.434 1.436zm-50.34-27.968h22.13c.682 0 1.026-.343 1.026-1.025v-7.89c0-5.874-2.87-8.811-8.607-8.811h-6.967c-5.738 0-8.606 2.937-8.606 8.811v7.89c0 .682.341 1.023 1.026 1.023l-.002.002zm28.478 27.968h-21.72c-4.712 0-8.418-1.331-11.116-3.996-2.699-2.662-4.047-6.385-4.047-11.164v-21.927c0-4.779 1.348-8.505 4.05-11.168 2.693-2.664 6.398-3.996 11.11-3.996h8.607c4.715 0 8.404 1.332 11.067 3.996 2.662 2.663 3.993 6.389 3.993 11.165v13.014c0 1.025-.479 1.537-1.433 1.537H342.4c-.682 0-1.026.308-1.026.92v6.252c0 5.94 2.871 8.913 8.61 8.913h20.898c.957 0 1.434.478 1.434 1.435v3.685c0 .891-.477 1.334-1.434 1.334z"/>
                <path stroke="#515151" stroke-width="1.199" d="M325 91h315M325 144h315M334 81v74M628 81v74"/>
                <g transform="translate(1)">
                    <mask id="e" fill="#fff">
                        <use xlink:href="#d"/>
                    </mask>
                    <path fill="#A8A8A8" d="M119.698 9.422h-82.47v-.11c0-5.019-4.06-9.087-9.069-9.087H9.267C4.258.225.197 4.293.197 9.312v18.929c0 5.019 4.061 9.087 9.07 9.087H28.16c5.009 0 9.07-4.068 9.07-9.087v-.11h82.469c5.148 0 9.336 4.197 9.336 9.355v92.206c0 5.158-4.188 9.354-9.336 9.354h-45.44v-.11c0-5.018-4.06-9.087-9.07-9.087H46.298c-5.01 0-9.07 4.069-9.07 9.088v18.928c0 5.02 4.06 9.088 9.07 9.088h18.892c5.009 0 9.07-4.069 9.07-9.088v-.11h45.439c15.444 0 28.009-12.589 28.009-28.063V37.486c0-15.475-12.565-28.064-28.009-28.064" mask="url(#e)"/>
                </g>
                <path fill="#A8A8A8" d="M139.9 220.791h-18.954c-5.026 0-9.1 4.08-9.1 9.113v.11H29.102c-5.165 0-9.367-4.209-9.367-9.381V100.367c0-5.173 4.202-9.382 9.367-9.382h45.59v.111c0 5.033 4.074 9.114 9.1 9.114h18.954c5.026 0 9.1-4.081 9.1-9.114V72.113c0-5.032-4.074-9.113-9.1-9.113H83.792c-5.026 0-9.1 4.08-9.1 9.113v.11h-45.59C13.607 72.223 1 84.849 1 100.367v120.266c0 15.518 12.607 28.143 28.102 28.143h82.744v.11c0 5.034 4.074 9.114 9.1 9.114H139.9c5.026 0 9.1-4.08 9.1-9.113v-18.983c0-5.033-4.074-9.113-9.1-9.113"/>
                <path stroke="#000" stroke-dasharray="4.955,4.955" stroke-linecap="round" stroke-linejoin="round" d="M20 10.5C20 5.254 15.747 1 10.5 1S1 5.254 1 10.5a9.5 9.5 0 0 0 19 0zM39 10.5A9.5 9.5 0 0 0 29.5 1C24.252 1 20 5.254 20 10.5c0 5.247 4.253 9.5 9.5 9.5a9.5 9.5 0 0 0 9.5-9.5zM39 29.5a9.5 9.5 0 0 0-9.5-9.5c-5.247 0-9.5 4.254-9.5 9.5s4.253 9.5 9.5 9.5a9.5 9.5 0 0 0 9.5-9.5zM131 37.5a9.5 9.5 0 0 0-9.5-9.5c-5.247 0-9.5 4.254-9.5 9.5s4.253 9.5 9.5 9.5a9.5 9.5 0 0 0 9.5-9.5zM39 100.5a9.5 9.5 0 0 0-9.5-9.5c-5.247 0-9.5 4.253-9.5 9.5s4.253 9.5 9.5 9.5a9.5 9.5 0 0 0 9.5-9.5zM131 130.5a9.5 9.5 0 0 0-9.5-9.5c-5.247 0-9.5 4.254-9.5 9.5s4.253 9.5 9.5 9.5a9.5 9.5 0 0 0 9.5-9.5zM38.807 222.394a9.497 9.497 0 0 0-7.412-11.2v-.001c-5.14-1.046-10.156 2.272-11.202 7.412a9.498 9.498 0 0 0 18.614 3.79z"/>
                <path stroke="#000" stroke-dasharray="4.955,4.955" stroke-linecap="round" stroke-linejoin="round" d="M20 29.5a9.5 9.5 0 0 0-19 0 9.5 9.5 0 0 0 9.5 9.5c5.247 0 9.5-4.254 9.5-9.5zM57 221c0-15.464-12.537-28-28-28-15.464 0-28 12.536-28 28s12.536 28 28 28c15.463 0 28-12.536 28-28zM57 100c0-15.464-12.537-28-28-28-15.464 0-28 12.536-28 28s12.536 28 28 28c15.463 0 28-12.536 28-28zM150 130c0-15.464-12.537-28-28-28-15.464 0-28 12.536-28 28s12.536 28 28 28c15.463 0 28-12.536 28-28zM93 72.5c0-5.246-4.253-9.5-9.5-9.5S74 67.254 74 72.5s4.253 9.5 9.5 9.5 9.5-4.254 9.5-9.5zM113 72.5a9.5 9.5 0 0 0-9.5-9.5c-5.247 0-9.5 4.254-9.5 9.5s4.253 9.5 9.5 9.5a9.5 9.5 0 0 0 9.5-9.5zM113 91.5a9.5 9.5 0 0 0-9.5-9.5c-5.247 0-9.5 4.253-9.5 9.5s4.253 9.5 9.5 9.5a9.5 9.5 0 0 0 9.5-9.5zM93 91.5a9.5 9.5 0 0 0-9.5-9.5c-5.247 0-9.5 4.253-9.5 9.5s4.253 9.5 9.5 9.5a9.5 9.5 0 0 0 9.5-9.5zM57 139.5a9.5 9.5 0 0 0-9.5-9.5c-5.247 0-9.5 4.253-9.5 9.5s4.253 9.5 9.5 9.5a9.5 9.5 0 0 0 9.5-9.5zM76 139.5a9.5 9.5 0 0 0-19 0 9.5 9.5 0 0 0 19 0z"/>
                <path stroke="#000" stroke-dasharray="4.955,4.955" stroke-linecap="round" stroke-linejoin="round" d="M76 157.5a9.5 9.5 0 0 0-9.5-9.5c-5.247 0-9.5 4.253-9.5 9.5a9.5 9.5 0 0 0 19 0zM57 157.5a9.5 9.5 0 0 0-9.5-9.5c-5.247 0-9.5 4.253-9.5 9.5s4.253 9.5 9.5 9.5a9.5 9.5 0 0 0 9.5-9.5zM131 229.5a9.5 9.5 0 0 0-9.5-9.5c-5.247 0-9.5 4.254-9.5 9.5s4.253 9.5 9.5 9.5a9.5 9.5 0 0 0 9.5-9.5zM150 229.5a9.5 9.5 0 0 0-9.5-9.5c-5.247 0-9.5 4.254-9.5 9.5s4.253 9.5 9.5 9.5a9.5 9.5 0 0 0 9.5-9.5z"/>
                <path stroke="#000" stroke-dasharray="4.955,4.955" stroke-linecap="round" stroke-linejoin="round" d="M150 247.5a9.5 9.5 0 0 0-19 0c0 5.246 4.253 9.5 9.5 9.5s9.5-4.254 9.5-9.5zM131 247.5a9.5 9.5 0 0 0-9.5-9.5c-5.247 0-9.5 4.253-9.5 9.5a9.5 9.5 0 0 0 19 0zM150 38c0-15.464-12.537-28-28-28-15.464 0-28 12.536-28 28s12.536 28 28 28c15.463 0 28-12.536 28-28z"/>
                <mask id="g" fill="#fff">
                    <use xlink:href="#f"/>
                </mask>
                <path stroke="#515151" stroke-width="1.445" d="M1 157h148V9H1z" mask="url(#g)"/>
                <path stroke="#515151" stroke-width="1.445" d="M148 129.672V248H0L.159 83" mask="url(#g)"/>
                <path stroke="#515151" stroke-width="1.445" d="M58 249h91v-91H58zM0 249h57v-57H0z" mask="url(#g)"/>
                <path stroke="#515151" stroke-width="1.445" d="M0 193h35v-35H0zM35 180h22v-22H35zM45.052 180s-.116 12 0 12" mask="url(#g)"/>
            </g>
        </g>
    </g>
</svg>
