<svg xmlns="http://www.w3.org/2000/svg" xmlns:xlink="http://www.w3.org/1999/xlink" width="200" height="51" viewBox="0 0 200 51">
    <defs>
        <path id="a" d="M.12.182H169.5v50.6H.12z"/>
    </defs>
    <g fill="none" fill-rule="evenodd">
        <g fill="#F8B686">
            <path d="M15.823 12.837H4.903v-.013c0-.61-.537-1.105-1.2-1.105H1.2c-.664 0-1.201.495-1.201 1.105v2.302c0 .61.537 1.105 1.201 1.105h2.502c.663 0 1.2-.493 1.2-1.105v-.013h10.922c.68 0 1.235.51 1.235 1.139v11.246c0 .629-.553 1.14-1.237 1.14H9.807v-.014c0-.61-.537-1.105-1.201-1.105H6.104c-.663 0-1.201.493-1.201 1.105v2.302c0 .61.537 1.105 1.201 1.105h2.502c.664 0 1.2-.495 1.2-1.105v-.013h6.016c2.046 0 3.71-1.531 3.71-3.415V16.252c0-1.883-1.664-3.415-3.71-3.415h.001z"/>
            <path d="M18.33 40.394h-2.502a1.204 1.204 0 0 0-1.2 1.205v.014H3.708a1.241 1.241 0 0 1-1.236-1.24V24.47a1.24 1.24 0 0 1 1.237-1.24h6.016v.016c0 .664.537 1.204 1.201 1.204h2.502a1.203 1.203 0 0 0 1.2-1.205v-2.51a1.202 1.202 0 0 0-1.2-1.205h-2.502a1.203 1.203 0 0 0-1.201 1.205v.015H3.71A3.72 3.72 0 0 0 0 24.47v15.901a3.72 3.72 0 0 0 3.709 3.723h10.92v.012c0 .666.537 1.206 1.2 1.206h2.5a1.202 1.202 0 0 0 1.202-1.206V41.6c.004-.661-.533-1.2-1.201-1.205"/>
        </g>
        <g transform="translate(30.469)">
            <mask id="b" fill="#fff">
                <use xlink:href="#a"/>
            </mask>
            <path fill="#38454E" d="M165.19 32.104V15.552c0-.353-.196-.53-.59-.53h-8.262c-3.268 0-4.9 1.708-4.9 5.125V32.4c0 3.415 1.632 5.123 4.9 5.123h3.363c1.77 0 3.13-.47 4.073-1.412.943-.944 1.416-2.277 1.416-4.007v-.001zm-6.256 9.19h-3.07c-2.716 0-4.849-.765-6.404-2.298-1.555-1.532-2.33-3.671-2.33-6.42V19.97c0-2.749.775-4.891 2.332-6.422 1.553-1.532 3.688-2.297 6.403-2.297h12.809c.55 0 .826.275.826.823v28.394c0 .552-.276.826-.826.826h-2.657c-.551 0-.827-.274-.827-.826v-2.297h-.235c-.984 2.082-2.991 3.123-6.02 3.123zm-54.631 0h-2.68c-.556 0-.834-.274-.834-.826V12.074c0-.548.278-.823.834-.823h2.68c.554 0 .834.275.834.823v2.298h.238c1.11-2.08 3.216-3.121 6.312-3.121h2.203c3.494 0 5.914 1.334 7.265 4.005.636-1.297 1.638-2.287 3.007-2.974a9.516 9.516 0 0 1 4.32-1.031h2.085c2.698 0 4.801.765 6.311 2.297 1.509 1.53 2.263 3.673 2.263 6.42v20.5c0 .552-.278.826-.834.826h-2.68c-.556 0-.834-.274-.834-.826V20.145c0-3.415-1.667-5.123-5.001-5.123h-1.966c-1.786 0-3.165.5-4.138 1.502-.974 1-1.46 2.365-1.46 4.092v19.852c0 .552-.277.826-.834.826h-2.68c-.555 0-.832-.274-.832-.826V20.145c0-3.415-1.668-5.123-5.001-5.123h-2.206c-1.786 0-3.155.47-4.108 1.411-.952.945-1.428 2.28-1.428 4.008v20.027c0 .552-.28.826-.834.826h-.002zM88.49 30.896V15.637c0-.362-.196-.541-.59-.541h-8.204c-3.306 0-4.958 1.741-4.958 5.226v10.874c0 3.486 1.652 5.226 4.958 5.226h3.305c1.77 0 3.128-.48 4.073-1.442.945-.96 1.416-2.321 1.416-4.084zm-6.256 9.37h-3.306c-2.676 0-4.762-.78-6.256-2.34-1.497-1.565-2.243-3.748-2.243-6.551V20.14c0-2.803.776-4.987 2.332-6.548 1.552-1.56 3.687-2.341 6.402-2.341h12.809c.551 0 .826.28.826.84V41.89c0 2.764-.777 4.935-2.333 6.518-1.553 1.581-3.688 2.373-6.403 2.373H73.2c-.591 0-.885-.28-.885-.841v-2.223c0-.562.295-.84.885-.84h10.33c3.306 0 4.96-1.724 4.96-5.167v-4.627h-.236c-1.023 2.124-3.03 3.185-6.021 3.185v-.002zm-21.393.207V12.247c0-.546.284-.82.853-.82h3.02c.614 0 .921.274.921.82v28.228c0 .548-.307.82-.92.82H61.76c-.613 0-.92-.272-.92-.82v-.002zm0-33.966V1.003c0-.548.284-.82.853-.82h3.02c.614 0 .921.272.921.82v5.502c0 .549-.307.822-.92.822h-3.02c-.57 0-.854-.273-.854-.822v.002zM33.964 41.294h-2.657c-.551 0-.826-.274-.826-.826V12.074c0-.548.275-.823.826-.823h2.657c.55 0 .826.275.826.823v2.298h.235c.984-2.08 2.991-3.121 6.021-3.121h3.306c2.675 0 4.76.765 6.256 2.297 1.495 1.53 2.243 3.673 2.243 6.42v20.5c0 .552-.276.826-.826.826h-2.657c-.551 0-.826-.274-.826-.826V20.145c0-3.415-1.652-5.123-4.957-5.123H40.28c-1.77 0-3.128.47-4.073 1.411-.943.945-1.416 2.28-1.416 4.008v20.027c0 .552-.276.826-.826.826zM4.962 25.214h12.75c.392 0 .59-.199.59-.591v-4.536c0-3.378-1.653-5.067-4.957-5.067H9.33c-3.306 0-4.958 1.69-4.958 5.067v4.536c0 .392.196.588.591.588l-.001.002zm16.407 16.08H8.856c-2.715 0-4.85-.765-6.405-2.298C.896 37.466.12 35.325.12 32.576V19.97c0-2.749.776-4.891 2.333-6.422 1.551-1.532 3.686-2.297 6.401-2.297h4.958c2.717 0 4.842.765 6.376 2.297 1.534 1.53 2.301 3.673 2.301 6.42v7.482c0 .59-.276.884-.826.884H4.96c-.393 0-.591.177-.591.53v3.594c0 3.415 1.653 5.125 4.96 5.125h12.04c.551 0 .826.275.826.825v2.119c0 .512-.275.767-.826.767z" mask="url(#b)"/>
        </g>
    </g>
</svg>
