<svg xmlns="http://www.w3.org/2000/svg" xmlns:xlink="http://www.w3.org/1999/xlink" width="200" height="51" viewBox="0 0 200 51">
    <defs>
        <path id="a" d="M.12.182H169.5v50.6H.12z"/>
        <linearGradient id="c" x1="0%" y1="147.611%" y2="0%">
            <stop offset="0%" stop-color="#F8B686"/>
            <stop offset="100%" stop-color="#F38181"/>
        </linearGradient>
        <path id="d" d="M10.698 8.684A1.185 1.185 0 0 0 9.52 9.876v.014H3.634C1.629 9.89 0 11.541 0 13.57v15.724c0 2.03 1.629 3.681 3.632 3.681h10.69v.014c0 .658.526 1.191 1.175 1.191h2.45a1.185 1.185 0 0 0 1.176-1.191v-2.481a1.184 1.184 0 0 0-1.177-1.193h-2.449a1.184 1.184 0 0 0-1.175 1.193v.014H3.63a1.22 1.22 0 0 1-1.21-1.228V13.57a1.22 1.22 0 0 1 1.212-1.227h5.89v.016c0 .656.525 1.19 1.176 1.19h2.449a1.184 1.184 0 0 0 1.175-1.192V9.876a1.184 1.184 0 0 0-1.175-1.192h-2.45z"/>
    </defs>
    <g fill="none" fill-rule="evenodd">
        <g transform="translate(30.469)">
            <mask id="b" fill="#fff">
                <use xlink:href="#a"/>
            </mask>
            <path fill="#38454E" d="M165.19 32.104V15.552c0-.353-.196-.53-.59-.53h-8.262c-3.268 0-4.9 1.708-4.9 5.125V32.4c0 3.415 1.632 5.123 4.9 5.123h3.363c1.77 0 3.13-.47 4.073-1.412.943-.944 1.416-2.277 1.416-4.007v-.001zm-6.256 9.19h-3.07c-2.716 0-4.849-.765-6.404-2.298-1.555-1.532-2.33-3.671-2.33-6.42V19.97c0-2.749.775-4.891 2.332-6.422 1.553-1.532 3.688-2.297 6.403-2.297h12.809c.55 0 .826.275.826.823v28.394c0 .552-.276.826-.826.826h-2.657c-.551 0-.827-.274-.827-.826v-2.297h-.235c-.984 2.082-2.991 3.123-6.02 3.123zm-54.631 0h-2.68c-.556 0-.834-.274-.834-.826V12.074c0-.548.278-.823.834-.823h2.68c.554 0 .834.275.834.823v2.298h.238c1.11-2.08 3.216-3.121 6.312-3.121h2.203c3.494 0 5.914 1.334 7.265 4.005.636-1.297 1.638-2.287 3.007-2.974a9.516 9.516 0 0 1 4.32-1.031h2.085c2.698 0 4.801.765 6.311 2.297 1.509 1.53 2.263 3.673 2.263 6.42v20.5c0 .552-.278.826-.834.826h-2.68c-.556 0-.834-.274-.834-.826V20.145c0-3.415-1.667-5.123-5.001-5.123h-1.966c-1.786 0-3.165.5-4.138 1.502-.974 1-1.46 2.365-1.46 4.092v19.852c0 .552-.277.826-.834.826h-2.68c-.555 0-.832-.274-.832-.826V20.145c0-3.415-1.668-5.123-5.001-5.123h-2.206c-1.786 0-3.155.47-4.108 1.411-.952.945-1.428 2.28-1.428 4.008v20.027c0 .552-.28.826-.834.826h-.002zM88.49 30.896V15.637c0-.362-.196-.541-.59-.541h-8.204c-3.306 0-4.958 1.741-4.958 5.226v10.874c0 3.486 1.652 5.226 4.958 5.226h3.305c1.77 0 3.128-.48 4.073-1.442.945-.96 1.416-2.321 1.416-4.084zm-6.256 9.37h-3.306c-2.676 0-4.762-.78-6.256-2.34-1.497-1.565-2.243-3.748-2.243-6.551V20.14c0-2.803.776-4.987 2.332-6.548 1.552-1.56 3.687-2.341 6.402-2.341h12.809c.551 0 .826.28.826.84V41.89c0 2.764-.777 4.935-2.333 6.518-1.553 1.581-3.688 2.373-6.403 2.373H73.2c-.591 0-.885-.28-.885-.841v-2.223c0-.562.295-.84.885-.84h10.33c3.306 0 4.96-1.724 4.96-5.167v-4.627h-.236c-1.023 2.124-3.03 3.185-6.021 3.185v-.002zm-21.393.207V12.247c0-.546.284-.82.853-.82h3.02c.614 0 .921.274.921.82v28.228c0 .548-.307.82-.92.82H61.76c-.613 0-.92-.272-.92-.82v-.002zm0-33.966V1.003c0-.548.284-.82.853-.82h3.02c.614 0 .921.272.921.82v5.502c0 .549-.307.822-.92.822h-3.02c-.57 0-.854-.273-.854-.822v.002zM33.964 41.294h-2.657c-.551 0-.826-.274-.826-.826V12.074c0-.548.275-.823.826-.823h2.657c.55 0 .826.275.826.823v2.298h.235c.984-2.08 2.991-3.121 6.021-3.121h3.306c2.675 0 4.76.765 6.256 2.297 1.495 1.53 2.243 3.673 2.243 6.42v20.5c0 .552-.276.826-.826.826h-2.657c-.551 0-.826-.274-.826-.826V20.145c0-3.415-1.652-5.123-4.957-5.123H40.28c-1.77 0-3.128.47-4.073 1.411-.943.945-1.416 2.28-1.416 4.008v20.027c0 .552-.276.826-.826.826zM4.962 25.214h12.75c.392 0 .59-.199.59-.591v-4.536c0-3.378-1.653-5.067-4.957-5.067H9.33c-3.306 0-4.958 1.69-4.958 5.067v4.536c0 .392.196.588.591.588l-.001.002zm16.407 16.08H8.856c-2.715 0-4.85-.765-6.405-2.298C.896 37.466.12 35.325.12 32.576V19.97c0-2.749.776-4.891 2.333-6.422 1.551-1.532 3.686-2.297 6.401-2.297h4.958c2.717 0 4.842.765 6.376 2.297 1.534 1.53 2.301 3.673 2.301 6.42v7.482c0 .59-.276.884-.826.884H4.96c-.393 0-.591.177-.591.53v3.594c0 3.415 1.653 5.125 4.96 5.125h12.04c.551 0 .826.275.826.825v2.119c0 .512-.275.767-.826.767z" mask="url(#b)"/>
        </g>
        <g fill="url(#c)" transform="translate(0 11)">
            <path d="M1.176.716C.526.716 0 1.221 0 1.843v2.349c0 .621.525 1.127 1.176 1.127h2.45c.648 0 1.174-.504 1.174-1.127v-.014h10.693c.665 0 1.209.52 1.209 1.161v11.47c0 .64-.542 1.162-1.212 1.162H9.601v-.014c0-.621-.526-1.127-1.177-1.127H5.976c-.649 0-1.176.504-1.176 1.127v2.349c0 .621.526 1.126 1.176 1.126h2.448c.65 0 1.177-.505 1.177-1.126v-.015h5.888c2.003 0 3.632-1.562 3.632-3.482V5.34c0-1.92-1.63-3.481-3.632-3.481H4.799v-.015C4.8 1.22 4.275.716 3.626.716h-2.45z"/>
            <use xlink:href="#d"/>
        </g>
    </g>
</svg>
