<svg xmlns="http://www.w3.org/2000/svg" xmlns:xlink="http://www.w3.org/1999/xlink" width="200" height="50" viewBox="0 0 200 50">
    <defs>
        <path id="a" d="M.12.177h169.89v49.042H.12z"/>
    </defs>
    <g fill="none" fill-rule="evenodd">
        <g fill="#F38082">
            <path d="M15.744 12.056H4.878v-.014c0-.61-.534-1.104-1.194-1.104h-2.49c-.66 0-1.194.495-1.194 1.104v2.303c0 .61.534 1.105 1.195 1.105h2.49c.659 0 1.193-.494 1.193-1.105v-.014h10.868c.676 0 1.229.512 1.229 1.14v11.246c0 .628-.55 1.14-1.231 1.14H9.758v-.015c0-.61-.535-1.104-1.196-1.104H6.074c-.66 0-1.196.493-1.196 1.104v2.303c0 .61.535 1.105 1.196 1.105h2.488c.661 0 1.196-.496 1.196-1.105v-.014h5.984c2.036 0 3.691-1.53 3.691-3.414V15.47c0-1.882-1.655-3.414-3.69-3.414z"/>
            <path d="M18.238 38.98h-2.49c-.663.005-1.197.528-1.193 1.169v.014H3.689c-.684-.006-1.233-.544-1.23-1.203V23.54c0-.662.551-1.203 1.231-1.203h5.986v.016c0 .644.534 1.167 1.195 1.167h2.49c.664-.004 1.199-.527 1.194-1.168v-2.433c.005-.642-.53-1.165-1.195-1.169h-2.489c-.664.004-1.2.527-1.195 1.169v.013H3.692C1.655 19.932 0 21.552 0 23.54v15.42c0 1.989 1.655 3.61 3.69 3.61h10.865v.011c0 .646.535 1.169 1.194 1.169h2.489c.664-.004 1.2-.527 1.195-1.169V40.15c.004-.641-.53-1.164-1.195-1.169"/>
        </g>
        <g transform="translate(29.96)">
            <mask id="b" fill="#fff">
                <use xlink:href="#a"/>
            </mask>
            <path fill="#38454E" d="M165.686 31.116V15.073c0-.342-.197-.514-.59-.514h-8.289c-3.277 0-4.914 1.656-4.914 4.968v11.877c0 3.31 1.637 4.966 4.914 4.966h3.374c1.776 0 3.139-.455 4.085-1.37.946-.914 1.42-2.206 1.42-3.883zm-6.274 8.907h-3.08c-2.724 0-4.863-.741-6.423-2.227-1.56-1.485-2.338-3.558-2.338-6.222V19.355c0-2.663.779-4.74 2.34-6.224 1.558-1.485 3.7-2.227 6.422-2.227h12.847c.552 0 .83.267.83.799v27.52c0 .535-.278.8-.83.8h-2.665c-.552 0-.829-.265-.829-.8v-2.226h-.235c-.987 2.018-3 3.026-6.04 3.026zm-54.796 0h-2.687c-.558 0-.837-.265-.837-.8v-27.52c0-.532.28-.799.837-.799h2.687c.556 0 .837.267.837.799v2.227h.238c1.114-2.017 3.226-3.026 6.331-3.026h2.21c3.504 0 5.932 1.294 7.287 3.883.637-1.257 1.643-2.217 3.016-2.883 1.34-.659 2.825-1 4.332-1h2.092c2.706 0 4.816.742 6.33 2.227 1.513 1.484 2.27 3.56 2.27 6.222v19.87c0 .535-.279.8-.837.8h-2.687c-.558 0-.837-.265-.837-.8V19.525c0-3.31-1.672-4.966-5.017-4.966h-1.971c-1.792 0-3.175.485-4.15 1.457-.977.968-1.465 2.292-1.465 3.966v19.241c0 .535-.278.8-.836.8h-2.688c-.558 0-.835-.265-.835-.8V19.525c0-3.31-1.673-4.966-5.016-4.966h-2.212c-1.792 0-3.165.456-4.12 1.369-.956.915-1.434 2.209-1.434 3.884v19.411c0 .535-.28.8-.836.8h-.002zm-15.86-10.078V15.156c0-.351-.197-.525-.592-.525h-8.228c-3.316 0-4.973 1.688-4.973 5.066v10.54c0 3.377 1.657 5.064 4.973 5.064h3.314c1.776 0 3.138-.465 4.086-1.397.947-.93 1.42-2.25 1.42-3.959zm-6.275 9.082h-3.316c-2.684 0-4.776-.756-6.275-2.268-1.501-1.517-2.25-3.632-2.25-6.35V19.52c0-2.716.78-4.833 2.34-6.346 1.556-1.513 3.698-2.27 6.42-2.27h12.848c.553 0 .829.272.829.816V40.6c0 2.68-.78 4.784-2.34 6.318-1.558 1.533-3.7 2.3-6.423 2.3H73.421c-.593 0-.888-.27-.888-.815V46.25c0-.545.297-.814.888-.814h10.361c3.316 0 4.974-1.67 4.974-5.009v-4.484h-.236c-1.026 2.058-3.04 3.087-6.04 3.087v-.002zm-21.457.201V11.87c0-.529.285-.794.855-.794h3.03c.615 0 .923.265.923.794v27.36c0 .531-.308.795-.922.795h-2.964c-.616 0-.922-.264-.922-.796v-.001zm0-32.921V.972c0-.53.285-.796.855-.796h3.03c.615 0 .923.265.923.796v5.333c0 .532-.308.797-.922.797h-3.029c-.572 0-.857-.265-.857-.797v.002zM34.066 40.023h-2.665c-.553 0-.829-.265-.829-.8v-27.52c0-.532.276-.799.829-.799h2.665c.551 0 .828.267.828.799v2.227h.236c.987-2.017 3-3.026 6.04-3.026h3.315c2.683 0 4.775.742 6.275 2.227 1.5 1.484 2.25 3.56 2.25 6.222v19.87c0 .535-.277.8-.828.8h-2.665c-.553 0-.83-.265-.83-.8V19.525c0-3.31-1.656-4.966-4.97-4.966H40.4c-1.776 0-3.138.456-4.086 1.369-.945.915-1.42 2.209-1.42 3.884v19.411c0 .535-.277.8-.828.8zM4.976 24.437h12.788c.395 0 .594-.192.594-.572v-4.397c0-3.273-1.659-4.91-4.973-4.91H9.358c-3.316 0-4.973 1.637-4.973 4.91v4.397c0 .38.197.57.593.57l-.002.002zm16.457 15.586H8.883c-2.724 0-4.865-.741-6.424-2.227C.899 36.313.12 34.238.12 31.574V19.355c0-2.663.78-4.74 2.34-6.224 1.556-1.485 3.698-2.227 6.421-2.227h4.973c2.725 0 4.856.742 6.395 2.227 1.539 1.484 2.308 3.56 2.308 6.222v7.253c0 .571-.278.857-.829.857H4.975c-.395 0-.593.171-.593.513v3.483c0 3.31 1.658 4.968 4.975 4.968h12.076c.553 0 .829.266.829.8v2.053c0 .496-.276.743-.829.743z" mask="url(#b)"/>
        </g>
    </g>
</svg>
