<svg xmlns="http://www.w3.org/2000/svg" xmlns:xlink="http://www.w3.org/1999/xlink" width="200" height="52" viewBox="0 0 200 52">
    <defs>
        <path id="a" d="M61.524.184c-.567 0-.85.275-.85.826v5.546c0 .553.283.828.852.828h3.011c.611 0 .917-.275.917-.828V1.01c0-.55-.306-.826-.918-.826h-3.012zm-.85 6.374v-.002.002zm63.146 5.819c-1.365.693-2.365 1.691-2.999 2.998-1.346-2.692-3.76-4.037-7.244-4.037h-2.198c-3.087 0-5.187 1.048-6.295 3.146h-.237v-2.315c0-.554-.278-.831-.831-.831h-2.673c-.554 0-.832.277-.832.83v28.615c0 .556.278.832.832.832h2.675c.552 0 .831-.276.831-.832V20.6c0-1.742.475-3.087 1.424-4.039.95-.949 2.316-1.422 4.098-1.422h2.198c3.325 0 4.988 1.72 4.988 5.163v20.481c0 .556.276.832.83.832h2.673c.555 0 .832-.276.832-.832V20.777c0-1.74.485-3.118 1.455-4.125.97-1.01 2.346-1.513 4.127-1.513h1.96c3.326 0 4.988 1.72 4.988 5.163v20.481c0 .556.277.832.831.832h2.673c.555 0 .832-.276.832-.832v-20.66c0-2.768-.753-4.927-2.256-6.47-1.506-1.543-3.604-2.315-6.295-2.315h-2.088c-1.495 0-2.969.356-4.299 1.039zm31.615-1.04c-2.707 0-4.836.773-6.385 2.317-1.552 1.542-2.326 3.701-2.326 6.47V32.83c0 2.77.774 4.926 2.325 6.47 1.55 1.544 3.677 2.315 6.386 2.315h3.061c3.022 0 5.024-1.049 6.005-3.147h.234v2.315c0 .556.275.832.824.832h2.65c.537 0 .812-.264.824-.797V12.134c-.012-.53-.287-.796-.824-.796h-12.774zm-4.413 21.316v-12.35c0-3.443 1.626-5.164 4.885-5.164h8.24c.392 0 .588.178.588.534v16.682c0 1.743-.472 3.086-1.412 4.038-.941.95-2.296 1.423-4.062 1.423h-3.354c-3.259 0-4.885-1.72-4.885-5.163zM78.945 11.338c-2.707 0-4.836.787-6.384 2.36-1.552 1.573-2.327 3.773-2.327 6.599v11.322c0 2.825.745 5.024 2.238 6.601 1.49 1.574 3.57 2.36 6.238 2.36h3.298c2.981 0 4.984-1.069 6.004-3.209h.234v4.663c0 3.47-1.648 5.208-4.945 5.208H73c-.588 0-.883.28-.883.846v2.24c0 .566.294.848.883.848H83.83c2.708 0 4.837-.798 6.386-2.391 1.552-1.595 2.326-3.784 2.326-6.57v-30.03c0-.565-.274-.847-.823-.847H78.945zm-4.412 20.101V20.48c0-3.512 1.647-5.266 4.944-5.266h8.181c.393 0 .588.18.588.545v15.377c0 1.777-.47 3.149-1.412 4.116-.942.97-2.296 1.453-4.061 1.453h-3.296c-3.297 0-4.944-1.754-4.944-5.266zm-33.6-20.101c-3.021 0-5.023 1.048-6.005 3.146h-.234v-2.315c0-.554-.276-.831-.824-.831h-2.65c-.55 0-.824.277-.824.83v28.615c0 .556.275.832.825.832h2.65c.547 0 .823-.276.823-.832V20.6c0-1.742.472-3.087 1.412-4.039.942-.949 2.296-1.422 4.062-1.422h3.297c3.295 0 4.943 1.72 4.943 5.163v20.481c0 .556.275.832.824.832h2.65c.548 0 .824-.276.824-.832v-20.66c0-2.768-.746-4.927-2.238-6.47-1.491-1.543-3.57-2.315-6.238-2.315h-3.297zm-32.103 0c-2.708 0-4.836.772-6.384 2.316C.894 15.196.12 17.355.12 20.124V32.83c0 2.77.774 4.927 2.325 6.47 1.55 1.544 3.679 2.315 6.386 2.315h12.48c.549 0 .823-.257.823-.773v-2.135c0-.555-.274-.832-.824-.832H9.303c-3.297 0-4.947-1.723-4.947-5.165v-3.622c0-.355.198-.533.59-.533h16.657c.549 0 .824-.297.824-.891v-7.54c0-2.769-.765-4.928-2.294-6.47-1.53-1.544-3.65-2.316-6.358-2.316H8.83zm-3.88 14.07c-.394 0-.59-.198-.59-.594v-4.571c0-3.404 1.648-5.106 4.944-5.106h4.004c3.295 0 4.944 1.702 4.944 5.106v4.571c0 .396-.197.595-.59.595H4.949l.001-.002zm56.574-13.892c-.567 0-.85.276-.85.826V40.79c0 .552.304.827.916.827h2.947c.611 0 .917-.275.917-.827V12.342c0-.55-.306-.826-.918-.826h-3.012z"/>
        <path id="c" d="M10.698 8.684A1.185 1.185 0 0 0 9.52 9.876v.014H3.634C1.629 9.89 0 11.541 0 13.57v15.724c0 2.03 1.629 3.681 3.632 3.681h10.69v.014c0 .658.526 1.191 1.175 1.191h2.45a1.185 1.185 0 0 0 1.176-1.191v-2.481a1.184 1.184 0 0 0-1.177-1.193h-2.449a1.184 1.184 0 0 0-1.175 1.193v.014H3.63a1.22 1.22 0 0 1-1.21-1.228V13.57a1.22 1.22 0 0 1 1.212-1.227h5.89v.016c0 .656.525 1.19 1.176 1.19h2.449a1.184 1.184 0 0 0 1.175-1.192V9.876a1.184 1.184 0 0 0-1.175-1.192h-2.45z"/>
    </defs>
    <g fill="none" fill-rule="evenodd">
        <g transform="translate(30.157 .273)">
            <mask id="b" fill="#fff">
                <use xlink:href="#a"/>
            </mask>
            <path fill="#BCBEC0" d="M61.524.184c-.567 0-.85.275-.85.826v5.546c0 .553.283.828.852.828h3.011c.611 0 .917-.275.917-.828V1.01c0-.55-.306-.826-.918-.826h-3.012zm-.85 6.374v-.002.002zm63.146 5.819c-1.365.693-2.365 1.691-2.999 2.998-1.346-2.692-3.76-4.037-7.244-4.037h-2.198c-3.087 0-5.187 1.048-6.295 3.146h-.237v-2.315c0-.554-.278-.831-.831-.831h-2.673c-.554 0-.832.277-.832.83v28.615c0 .556.278.832.832.832h2.675c.552 0 .831-.276.831-.832V20.6c0-1.742.475-3.087 1.424-4.039.95-.949 2.316-1.422 4.098-1.422h2.198c3.325 0 4.988 1.72 4.988 5.163v20.481c0 .556.276.832.83.832h2.673c.555 0 .832-.276.832-.832V20.777c0-1.74.485-3.118 1.455-4.125.97-1.01 2.346-1.513 4.127-1.513h1.96c3.326 0 4.988 1.72 4.988 5.163v20.481c0 .556.277.832.831.832h2.673c.555 0 .832-.276.832-.832v-20.66c0-2.768-.753-4.927-2.256-6.47-1.506-1.543-3.604-2.315-6.295-2.315h-2.088c-1.495 0-2.969.356-4.299 1.039zm31.615-1.04c-2.707 0-4.836.773-6.385 2.317-1.552 1.542-2.326 3.701-2.326 6.47V32.83c0 2.77.774 4.926 2.325 6.47 1.55 1.544 3.677 2.315 6.386 2.315h3.061c3.022 0 5.024-1.049 6.005-3.147h.234v2.315c0 .556.275.832.824.832h2.65c.537 0 .812-.264.824-.797V12.134c-.012-.53-.287-.796-.824-.796h-12.774zm-4.413 21.316v-12.35c0-3.443 1.626-5.164 4.885-5.164h8.24c.392 0 .588.178.588.534v16.682c0 1.743-.472 3.086-1.412 4.038-.941.95-2.296 1.423-4.062 1.423h-3.354c-3.259 0-4.885-1.72-4.885-5.163zM78.945 11.338c-2.707 0-4.836.787-6.384 2.36-1.552 1.573-2.327 3.773-2.327 6.599v11.322c0 2.825.745 5.024 2.238 6.601 1.49 1.574 3.57 2.36 6.238 2.36h3.298c2.981 0 4.984-1.069 6.004-3.209h.234v4.663c0 3.47-1.648 5.208-4.945 5.208H73c-.588 0-.883.28-.883.846v2.24c0 .566.294.848.883.848H83.83c2.708 0 4.837-.798 6.386-2.391 1.552-1.595 2.326-3.784 2.326-6.57v-30.03c0-.565-.274-.847-.823-.847H78.945zm-4.412 20.101V20.48c0-3.512 1.647-5.266 4.944-5.266h8.181c.393 0 .588.18.588.545v15.377c0 1.777-.47 3.149-1.412 4.116-.942.97-2.296 1.453-4.061 1.453h-3.296c-3.297 0-4.944-1.754-4.944-5.266zm-33.6-20.101c-3.021 0-5.023 1.048-6.005 3.146h-.234v-2.315c0-.554-.276-.831-.824-.831h-2.65c-.55 0-.824.277-.824.83v28.615c0 .556.275.832.825.832h2.65c.547 0 .823-.276.823-.832V20.6c0-1.742.472-3.087 1.412-4.039.942-.949 2.296-1.422 4.062-1.422h3.297c3.295 0 4.943 1.72 4.943 5.163v20.481c0 .556.275.832.824.832h2.65c.548 0 .824-.276.824-.832v-20.66c0-2.768-.746-4.927-2.238-6.47-1.491-1.543-3.57-2.315-6.238-2.315h-3.297zm-32.103 0c-2.708 0-4.836.772-6.384 2.316C.894 15.196.12 17.355.12 20.124V32.83c0 2.77.774 4.927 2.325 6.47 1.55 1.544 3.679 2.315 6.386 2.315h12.48c.549 0 .823-.257.823-.773v-2.135c0-.555-.274-.832-.824-.832H9.303c-3.297 0-4.947-1.723-4.947-5.165v-3.622c0-.355.198-.533.59-.533h16.657c.549 0 .824-.297.824-.891v-7.54c0-2.769-.765-4.928-2.294-6.47-1.53-1.544-3.65-2.316-6.358-2.316H8.83zm-3.88 14.07c-.394 0-.59-.198-.59-.594v-4.571c0-3.404 1.648-5.106 4.944-5.106h4.004c3.295 0 4.944 1.702 4.944 5.106v4.571c0 .396-.197.595-.59.595H4.949l.001-.002zm56.574-13.892c-.567 0-.85.276-.85.826V40.79c0 .552.304.827.916.827h2.947c.611 0 .917-.275.917-.827V12.342c0-.55-.306-.826-.918-.826h-3.012z" mask="url(#b)"/>
        </g>
        <g fill="#BCBEC0" transform="translate(0 10.895)">
            <path d="M1.176.716C.526.716 0 1.221 0 1.843v2.349c0 .621.525 1.127 1.176 1.127h2.45c.648 0 1.174-.504 1.174-1.127v-.014h10.693c.665 0 1.209.52 1.209 1.161v11.47c0 .64-.542 1.162-1.212 1.162H9.601v-.014c0-.621-.526-1.127-1.177-1.127H5.976c-.649 0-1.176.504-1.176 1.127v2.349c0 .621.526 1.126 1.176 1.126h2.448c.65 0 1.177-.505 1.177-1.126v-.015h5.888c2.003 0 3.632-1.562 3.632-3.482V5.34c0-1.92-1.63-3.481-3.632-3.481H4.799v-.015C4.8 1.22 4.275.716 3.626.716h-2.45z"/>
            <use xlink:href="#c"/>
        </g>
    </g>
</svg>
