<svg xmlns="http://www.w3.org/2000/svg" xmlns:xlink="http://www.w3.org/1999/xlink" width="197" height="158" viewBox="0 0 197 158">
    <defs>
        <path id="a" d="M.24.266h24.5v8.628H.24z"/>
        <path id="c" d="M0 .516h99.64V82.71H0z"/>
    </defs>
    <g fill="none" fill-rule="evenodd">
        <text fill="#F2E3A4" font-family="Muli-ExtraBold, Muli" font-size="18" font-weight="600">
            <tspan x="130" y="86">F2E3A4</tspan>
        </text>
        <g transform="translate(35.602 148.59)">
            <mask id="b" fill="#fff">
                <use xlink:href="#a"/>
            </mask>
            <path fill="#D0D2D3" d="M24.74 4.58c0 2.383-5.486 4.314-12.25 4.314C5.722 8.894.24 6.963.24 4.58S5.722.266 12.49.266c6.764 0 12.25 1.93 12.25 4.314" mask="url(#b)"/>
        </g>
        <path fill="#A6A8AB" d="M55.448 153.064c0 1.385-3.346 2.509-7.472 2.509-4.127 0-7.472-1.124-7.472-2.51 0-1.385 3.345-2.508 7.472-2.508 4.126 0 7.472 1.123 7.472 2.509"/>
        <path fill="#D0D2D3" d="M18.387 75.895l28.344 75.744c.75 1.94 3.665 1.002 3.14-1.01L26.34 67.545l-7.952 8.349z"/>
        <path fill="#A6A8AB" d="M22.296 71.641l4.411-1.538L49.65 149.71s.337 1.174.281 1.496c0 0-.069 1.142-1.3 1.45 0 0 .607-.39-.024-2.875-.63-2.486-21.983-74.9-26.31-78.14"/>
        <g transform="translate(0 .007)">
            <mask id="d" fill="#fff">
                <use xlink:href="#c"/>
            </mask>
            <path fill="#F2E3A4" d="M0 28.502L81.565.516 73.321 33.23l26.32 21.26-82.256 28.22z" mask="url(#d)"/>
        </g>
        <path fill="#CDBD79" d="M15.045 23.464l17.566 54.148-15.226 5.106L0 28.509z"/>
    </g>
</svg>
