<svg xmlns="http://www.w3.org/2000/svg" xmlns:xlink="http://www.w3.org/1999/xlink" width="346" height="196" viewBox="0 0 346 196">
    <defs>
        <path id="a" d="M.708.462h37.68V36H.708z"/>
    </defs>
    <g fill="none" fill-rule="evenodd">
        <path fill="#231F20" d="M29.479 34.67H26.42c-2.651 0-4.8-2.104-4.8-4.701v-9.173H8.853v9.173c0 2.597-2.149 4.7-4.8 4.7H.994A.984.984 0 0 1 0 33.698V2.303c0-.537.445-.973.994-.973h3.059c2.651 0 4.8 2.105 4.8 4.7v8.172H21.62V6.03c0-2.596 2.149-4.701 4.8-4.701h3.059c.549 0 .994.436.994.973v31.394a.984.984 0 0 1-.994.973M58.487 22.262L54.82 11.637l-3.715 10.625h7.38zM71.07 34.67h-4.654c-2.01 0-3.805-1.225-4.501-3.07l-1.035-2.744H48.66l-1.144 2.84c-.724 1.795-2.494 2.974-4.464 2.974h-4.621c-.706 0-1.193-.695-.94-1.34l12.32-31.376a.993.993 0 0 1 .928-.624h8.28c.415 0 .785.251.93.63l12.063 31.376c.248.645-.238 1.334-.942 1.334zM102.584 23.591c0 5.642-2.527 9.317-7.58 11.03-1.763.602-3.658.903-5.686.903-3.962 0-7.657-1.093-11.086-3.28a.984.984 0 0 1-.332-1.293l.863-1.59c1.196-2.204 3.962-3.135 6.253-2.045 1.372.652 2.729.98 4.069.98 1.149 0 2.123-.265 2.923-.79.933-.593 1.399-1.432 1.399-2.517 0-.988-.515-1.81-1.548-2.467-.766-.493-2.058-.996-3.872-1.506-2.198-.634-3.581-1.073-4.147-1.318-.899-.373-1.665-.812-2.298-1.316-1.814-1.464-2.723-3.676-2.723-6.636 0-3.09.94-5.652 2.819-7.685 2.194-2.39 5.12-3.586 8.777-3.586 3.354 0 6.647.753 9.876 2.26.506.235.71.854.453 1.342l-.872 1.661c-1.076 2.047-3.493 2.98-5.742 2.31a8.035 8.035 0 0 0-2.309-.343c-.95 0-1.8.236-2.55.711-.85.54-1.275 1.258-1.275 2.156 0 .883.558 1.644 1.674 2.28.5.296 1.998.802 4.496 1.52 3.131.897 5.362 2.17 6.694 3.815 1.15 1.403 1.724 3.204 1.724 5.404M140.204 34.67h-3.06c-2.65 0-4.8-2.104-4.8-4.701v-9.173h-12.767v9.173c0 2.597-2.15 4.7-4.8 4.7h-3.06a.984.984 0 0 1-.993-.972V2.303c0-.537.445-.973.994-.973h3.059c2.65 0 4.8 2.105 4.8 4.7v8.172h12.768V6.03c0-2.596 2.149-4.701 4.799-4.701h3.06c.549 0 .994.436.994.973v31.394a.984.984 0 0 1-.994.973M198.695 2.6l-10.238 31.393a.992.992 0 0 1-.947.677h-4.779c-2.096 0-3.949-1.331-4.578-3.29l-5.15-16.03-5.423 16.093c-.65 1.926-2.488 3.227-4.559 3.227h-4.79a.99.99 0 0 1-.953-.695l-9.556-31.393c-.19-.624.287-1.252.952-1.252h4.24c2.171 0 4.071 1.428 4.635 3.48l4.955 18.063 6.123-18.305c.645-1.931 2.485-3.238 4.56-3.238 2.112 0 3.975 1.352 4.591 3.33l5.671 18.213 5.425-18.162c.598-2.004 2.474-3.381 4.606-3.381h4.27c.672 0 1.15.642.945 1.27M232.21 18.012c0-2.351-.768-4.383-2.299-6.097-1.969-2.188-4.427-3.282-7.376-3.282-2.034 0-3.875.56-5.526 1.678a9.19 9.19 0 0 0-3.524 4.469 9.101 9.101 0 0 0-.599 3.232c0 2.254.764 4.27 2.299 6.049 1.899 2.204 4.349 3.306 7.35 3.306 3 0 5.458-1.094 7.376-3.282 1.531-1.746 2.299-3.771 2.299-6.073m9.178 0c0 4.527-1.538 8.5-4.615 11.919-3.507 3.893-8.252 5.838-14.238 5.838-5.968 0-10.707-1.945-14.213-5.838-3.076-3.42-4.614-7.392-4.614-11.92 0-2.066.415-4.187 1.247-6.361.832-2.175 1.943-4.034 3.341-5.581C211.804 2.178 216.551.23 222.535.23c5.986 0 10.731 1.947 14.238 5.838 3.077 3.42 4.615 7.4 4.615 11.943M265.411 12.065c0-1.185-.442-2.184-1.326-2.996-.834-.762-2.179-1.144-4.029-1.144h-1.652v8.305h1.652c1.87 0 3.211-.382 4.03-1.145.883-.83 1.325-1.834 1.325-3.02m10.43 22.605h-6.37a4.83 4.83 0 0 1-4.032-2.147l-7.035-10.652v8.098c0 2.596-2.148 4.7-4.799 4.7h-3.059a.984.984 0 0 1-.994-.972V2.303c0-.537.445-.973.994-.973h12.77c4.024 0 7 1.18 8.927 3.542 1.563 1.904 2.346 4.144 2.346 6.716 0 2.948-.899 5.3-2.696 7.06-1.146 1.123-2.726 1.904-4.737 2.344l9.474 12.113c.501.64.034 1.565-.789 1.565M313.815 34.67h-6.998a4.834 4.834 0 0 1-3.786-1.813L292.976 20.21v9.758c0 2.597-2.149 4.7-4.8 4.7h-3.058a.984.984 0 0 1-.995-.972V2.303c0-.537.445-.973.995-.973h3.058c2.651 0 4.8 2.105 4.8 4.7v9.05l9.356-11.915a4.834 4.834 0 0 1 3.805-1.835h6.404c.844 0 1.303.965.762 1.599l-12.125 14.179 13.404 15.97c.534.635.072 1.592-.767 1.592M346 23.591c0 5.642-2.527 9.317-7.581 11.03-1.762.602-3.657.903-5.686.903-3.961 0-7.656-1.093-11.086-3.28a.984.984 0 0 1-.331-1.293l.864-1.59c1.195-2.203 3.961-3.135 6.252-2.045 1.372.652 2.728.98 4.069.98 1.148 0 2.123-.265 2.923-.79.934-.593 1.4-1.432 1.4-2.517 0-.988-.516-1.81-1.55-2.467-.765-.493-2.056-.996-3.872-1.506-2.197-.634-3.58-1.073-4.145-1.318-.901-.373-1.665-.812-2.299-1.316-1.814-1.464-2.723-3.676-2.723-6.636 0-3.09.939-5.652 2.818-7.685 2.194-2.39 5.121-3.586 8.778-3.586 3.354 0 6.646.753 9.876 2.26a.982.982 0 0 1 .454 1.342l-.873 1.662c-1.076 2.047-3.493 2.978-5.741 2.31a8.04 8.04 0 0 0-2.309-.344c-.951 0-1.801.236-2.551.711-.85.54-1.274 1.258-1.274 2.156 0 .883.557 1.644 1.673 2.28.499.296 1.998.802 4.495 1.52 3.133.897 5.363 2.17 6.695 3.815 1.149 1.403 1.724 3.204 1.724 5.404"/>
        <path fill="#DBDBDA" d="M29.479 194.9H26.42c-2.651 0-4.8-2.104-4.8-4.7v-9.173H8.853v9.173c0 2.596-2.149 4.7-4.8 4.7H.994a.984.984 0 0 1-.994-.973v-31.393c0-.537.445-.974.994-.974h3.059c2.651 0 4.8 2.105 4.8 4.701v8.171H21.62v-8.17c0-2.597 2.149-4.702 4.8-4.702h3.059c.549 0 .994.437.994.974v31.393a.984.984 0 0 1-.994.973M58.487 182.493l-3.666-10.625-3.715 10.625h7.38zM71.07 194.9h-4.654c-2.01 0-3.805-1.224-4.501-3.07l-1.035-2.742H48.66l-1.144 2.838c-.724 1.796-2.494 2.974-4.464 2.974h-4.621c-.706 0-1.193-.693-.94-1.34l12.32-31.376a.993.993 0 0 1 .928-.624h8.28c.415 0 .785.251.93.631l12.063 31.376c.248.645-.238 1.333-.942 1.333zM102.584 183.822c0 5.642-2.527 9.316-7.58 11.028-1.763.604-3.658.905-5.686.905-3.962 0-7.657-1.093-11.086-3.28a.984.984 0 0 1-.332-1.294l.863-1.589c1.196-2.204 3.962-3.135 6.253-2.045 1.372.652 2.729.978 4.069.978 1.149 0 2.123-.263 2.923-.789.933-.592 1.399-1.43 1.399-2.517 0-.987-.515-1.809-1.548-2.466-.766-.493-2.058-.996-3.872-1.506-2.198-.635-3.581-1.073-4.147-1.318-.899-.374-1.665-.812-2.298-1.316-1.814-1.465-2.723-3.677-2.723-6.636 0-3.09.94-5.652 2.819-7.684 2.194-2.392 5.12-3.587 8.777-3.587 3.354 0 6.647.753 9.876 2.26.506.235.71.854.453 1.341l-.872 1.662c-1.076 2.047-3.493 2.98-5.742 2.31a8.068 8.068 0 0 0-2.309-.343c-.95 0-1.8.236-2.55.71-.85.54-1.275 1.26-1.275 2.157 0 .883.558 1.643 1.674 2.28.5.296 1.998.801 4.496 1.52 3.131.897 5.362 2.17 6.694 3.815 1.15 1.402 1.724 3.204 1.724 5.404M140.204 194.9h-3.06c-2.65 0-4.8-2.104-4.8-4.7v-9.173h-12.767v9.173c0 2.596-2.15 4.7-4.8 4.7h-3.06a.984.984 0 0 1-.993-.973v-31.393c0-.537.445-.974.994-.974h3.059c2.65 0 4.8 2.105 4.8 4.701v8.171h12.768v-8.17c0-2.597 2.149-4.702 4.799-4.702h3.06c.549 0 .994.437.994.974v31.393a.984.984 0 0 1-.994.973M198.695 162.83l-10.238 31.394a.99.99 0 0 1-.947.676h-4.779c-2.096 0-3.949-1.33-4.578-3.289l-5.15-16.03-5.423 16.092c-.65 1.927-2.488 3.227-4.559 3.227h-4.79a.99.99 0 0 1-.953-.695l-9.556-31.393c-.19-.624.287-1.252.952-1.252h4.24c2.171 0 4.071 1.428 4.635 3.482l4.955 18.062 6.123-18.306c.645-1.93 2.485-3.238 4.56-3.238 2.112 0 3.975 1.352 4.591 3.331l5.671 18.213 5.425-18.163c.598-2.004 2.474-3.38 4.606-3.38h4.27c.672 0 1.15.641.945 1.27"/>
        <g transform="translate(203 160)">
            <mask id="b" fill="#fff">
                <use xlink:href="#a"/>
            </mask>
            <path fill="#DBDBDA" d="M29.21 18.242c0-2.35-.768-4.383-2.299-6.097-1.969-2.187-4.427-3.28-7.376-3.28-2.034 0-3.875.558-5.526 1.676a9.192 9.192 0 0 0-3.524 4.47 9.092 9.092 0 0 0-.599 3.231c0 2.254.764 4.27 2.299 6.05 1.899 2.203 4.349 3.305 7.35 3.305 3 0 5.458-1.093 7.376-3.28 1.531-1.748 2.299-3.772 2.299-6.075m9.178 0c0 4.527-1.538 8.501-4.615 11.92C30.266 34.055 25.521 36 19.535 36c-5.968 0-10.707-1.945-14.213-5.838C2.246 26.743.708 22.77.708 18.242c0-2.066.415-4.187 1.247-6.36.832-2.176 1.943-4.036 3.341-5.582C8.804 2.408 13.551.462 19.535.462c5.986 0 10.731 1.946 14.238 5.838 3.077 3.42 4.615 7.4 4.615 11.942" mask="url(#b)"/>
        </g>
        <path fill="#DBDBDA" d="M265.411 172.296c0-1.186-.442-2.184-1.326-2.996-.834-.763-2.179-1.144-4.029-1.144h-1.652v8.304h1.652c1.87 0 3.211-.381 4.03-1.144.883-.83 1.325-1.834 1.325-3.02m10.43 22.604h-6.37a4.827 4.827 0 0 1-4.032-2.147l-7.035-10.651v8.098c0 2.596-2.148 4.7-4.799 4.7h-3.059a.983.983 0 0 1-.994-.972v-31.394c0-.537.445-.973.994-.973h12.77c4.024 0 7 1.18 8.927 3.542 1.563 1.905 2.346 4.143 2.346 6.716 0 2.948-.899 5.3-2.696 7.059-1.146 1.123-2.726 1.905-4.737 2.345l9.474 12.112c.501.64.034 1.565-.789 1.565M313.815 194.9h-6.998a4.836 4.836 0 0 1-3.786-1.812l-10.055-12.647v9.76c0 2.595-2.149 4.7-4.8 4.7h-3.058a.984.984 0 0 1-.995-.974v-31.393c0-.537.445-.974.995-.974h3.058c2.651 0 4.8 2.105 4.8 4.701v9.05l9.356-11.916a4.837 4.837 0 0 1 3.805-1.835h6.404c.844 0 1.303.965.762 1.6l-12.125 14.178 13.404 15.971c.534.635.072 1.591-.767 1.591M346 183.822c0 5.642-2.527 9.316-7.581 11.028-1.762.604-3.657.905-5.686.905-3.961 0-7.656-1.093-11.086-3.28a.985.985 0 0 1-.331-1.294l.864-1.589c1.195-2.204 3.961-3.135 6.252-2.045 1.372.652 2.728.978 4.069.978 1.148 0 2.123-.263 2.923-.789.934-.592 1.4-1.43 1.4-2.517 0-.987-.516-1.809-1.55-2.466-.765-.493-2.056-.996-3.872-1.506-2.197-.635-3.58-1.073-4.145-1.318-.901-.374-1.665-.812-2.299-1.316-1.814-1.465-2.723-3.677-2.723-6.636 0-3.09.939-5.652 2.818-7.684 2.194-2.392 5.121-3.587 8.778-3.587 3.354 0 6.646.753 9.876 2.26a.982.982 0 0 1 .454 1.342l-.873 1.662c-1.076 2.046-3.493 2.978-5.741 2.308a8.073 8.073 0 0 0-2.309-.342c-.951 0-1.801.236-2.551.71-.85.54-1.274 1.26-1.274 2.157 0 .883.557 1.643 1.673 2.28.499.296 1.998.801 4.495 1.52 3.133.897 5.363 2.17 6.695 3.815 1.149 1.402 1.724 3.204 1.724 5.404"/>
    </g>
</svg>
