<svg xmlns="http://www.w3.org/2000/svg" xmlns:xlink="http://www.w3.org/1999/xlink" width="1150" height="570" viewBox="0 0 1150 570">
    <defs>
        <filter id="a" width="105.4%" height="111.3%" x="-2.7%" y="-5.7%" filterUnits="objectBoundingBox">
            <feOffset in="SourceAlpha" result="shadowOffsetOuter1"/>
            <feGaussianBlur in="shadowOffsetOuter1" result="shadowBlurOuter1" stdDeviation="10"/>
            <feColorMatrix in="shadowBlurOuter1" result="shadowMatrixOuter1" values="0 0 0 0 0 0 0 0 0 0 0 0 0 0 0 0 0 0 0.1 0"/>
            <feMerge>
                <feMergeNode in="shadowMatrixOuter1"/>
                <feMergeNode in="SourceGraphic"/>
            </feMerge>
        </filter>
        <path id="b" d="M0 0h1110v530H0z"/>
    </defs>
    <g fill="none" fill-rule="evenodd" filter="url(#a)" transform="translate(20 20)">
        <mask id="c" fill="#fff">
            <use xlink:href="#b"/>
        </mask>
        <use fill="#FFF" xlink:href="#b"/>
        <g mask="url(#c)">
            <path fill="#A8A8A8" d="M293.935 261v-4.992c.054-2.687 1.488-5.035 2.762-6.31 1.417-1.417 3.951-2.757 6.311-2.764H308L295.065 234v4.992c-.102 2.582-1.364 4.957-2.74 6.333-1.356 1.355-3.544 2.709-6.333 2.74H281L293.935 261z"/>
            <path fill="#A8A8A8" d="M298.808 243.193c5.076 5.076 13.307 5.076 18.384 0 5.077-5.077 5.077-13.309 0-18.385-5.077-5.077-13.308-5.077-18.384 0-5.077 5.076-5.077 13.308 0 18.385M245.808 296.192c5.076 5.077 13.308 5.077 18.384 0 5.077-5.076 5.077-13.307 0-18.385-5.076-5.076-13.308-5.076-18.384 0-5.077 5.078-5.077 13.31 0 18.385M272.808 197.808c-5.077 5.076-5.077 13.307 0 18.384 5.076 5.077 13.308 5.077 18.384 0 5.077-5.077 5.077-13.308 0-18.384-5.076-5.077-13.308-5.077-18.384 0"/>
            <path fill="#A8A8A8" d="M266.935 234v-4.992c.054-2.687 1.488-5.035 2.762-6.31 1.417-1.417 3.951-2.757 6.311-2.764H281L268.065 207v4.992c-.102 2.582-1.364 4.957-2.74 6.333-1.356 1.355-3.544 2.709-6.333 2.74H254L266.935 234zM213.935 287v-4.992c.054-2.687 1.488-5.035 2.762-6.31 1.417-1.417 3.951-2.757 6.311-2.764H228L215.065 260v4.992c-.102 2.582-1.364 4.957-2.74 6.333-1.356 1.355-3.544 2.709-6.333 2.74H201L213.935 287zM240.935 313v-4.992c.054-2.687 1.488-5.035 2.762-6.31 1.417-1.417 3.951-2.757 6.311-2.764H255L242.065 286v4.992c-.102 2.582-1.364 4.957-2.74 6.333-1.356 1.355-3.544 2.709-6.333 2.74H228L240.935 313z"/>
            <path fill="#A8A8A8" d="M192.808 277.808c-5.077 5.076-5.077 13.307 0 18.385 5.076 5.076 13.308 5.076 18.384 0 5.077-5.078 5.077-13.31 0-18.385-5.076-5.077-13.308-5.077-18.384 0M219.808 322.192c5.076 5.077 13.307 5.077 18.384 0 5.077-5.076 5.077-13.307 0-18.385-5.077-5.076-13.308-5.076-18.384 0-5.077 5.078-5.077 13.31 0 18.385M317.192 277.808c-5.076-5.077-13.308-5.077-18.384 0-5.077 5.076-5.077 13.307 0 18.385 5.076 5.076 13.308 5.076 18.384 0 5.077-5.078 5.077-13.31 0-18.385"/>
            <path fill="#A8A8A8" d="M281 272.935h4.992c2.687.053 5.035 1.488 6.311 2.763 1.416 1.416 2.757 3.95 2.763 6.31V287L308 274.066h-4.992c-2.582-.104-4.956-1.366-6.333-2.741-1.354-1.356-2.709-3.545-2.74-6.333V260L281 272.935zM272.808 303.807c-5.077 5.077-5.077 13.309 0 18.385 5.076 5.077 13.308 5.077 18.384 0 5.077-5.076 5.077-13.308 0-18.385-5.076-5.076-13.308-5.076-18.384 0M201 246.935h4.992c2.687.053 5.035 1.488 6.31 2.763 1.417 1.416 2.757 3.95 2.763 6.31V261L228 248.066h-4.992c-2.582-.104-4.957-1.366-6.333-2.741-1.355-1.356-2.709-3.545-2.74-6.333V234L201 246.935zM238.192 197.808c-5.076-5.077-13.307-5.077-18.384 0-5.077 5.076-5.077 13.307 0 18.384s13.308 5.077 18.384 0c5.077-5.077 5.077-13.308 0-18.384M245.808 224.808c-5.077 5.076-5.077 13.307 0 18.384 5.076 5.077 13.308 5.077 18.384 0 5.077-5.077 5.077-13.308 0-18.384-5.076-5.077-13.308-5.077-18.384 0"/>
            <path fill="#A8A8A8" d="M219.808 250.808c-5.077 5.076-5.077 13.307 0 18.385 5.076 5.076 13.307 5.076 18.384 0 5.077-5.078 5.077-13.31 0-18.385-5.077-5.077-13.308-5.077-18.384 0M272.808 269.193c5.076 5.076 13.307 5.076 18.384 0 5.077-5.077 5.077-13.308 0-18.385-5.077-5.077-13.308-5.077-18.384 0-5.077 5.077-5.077 13.308 0 18.385M192.808 224.808c-5.077 5.076-5.077 13.307 0 18.385 5.076 5.076 13.308 5.076 18.384 0 5.077-5.078 5.077-13.309 0-18.385-5.076-5.077-13.308-5.077-18.384 0M395.336 286h-5.12a8.034 8.034 0 0 1-8.032-8.037V262.28h-21.368v15.682a8.035 8.035 0 0 1-8.032 8.037h-5.121a1.663 1.663 0 0 1-1.663-1.664v-53.672c0-.92.745-1.664 1.663-1.664h5.12a8.035 8.035 0 0 1 8.033 8.037v13.97h21.368v-13.97a8.034 8.034 0 0 1 8.032-8.037h5.12c.92 0 1.664.744 1.664 1.664v53.672c0 .92-.745 1.664-1.664 1.664M444.312 264.788l-6.185-18.166-6.27 18.166h12.455zM468 286h-10.307c-3.39 0-6.42-2.095-7.595-5.25l-1.747-4.689h-20.618l-1.93 4.854c-1.221 3.069-4.209 5.085-7.534 5.085H408l21.677-55.933A1.676 1.676 0 0 1 431.24 229h13.972c.698 0 1.324.429 1.57 1.077L468 286zM519 266.572c0 9.657-4.28 15.948-12.837 18.88-2.986 1.031-6.195 1.548-9.629 1.548-6.71 0-12.967-1.871-18.774-5.617a1.696 1.696 0 0 1-.561-2.212l1.462-2.723c2.024-3.77 6.708-5.366 10.587-3.501 2.325 1.117 4.622 1.676 6.892 1.676 1.946 0 3.595-.45 4.95-1.35 1.58-1.015 2.37-2.451 2.37-4.308 0-1.691-.874-3.099-2.623-4.224-1.297-.845-3.483-1.704-6.557-2.578-3.723-1.086-6.063-1.837-7.023-2.255-1.522-.64-2.82-1.392-3.89-2.255-3.074-2.505-4.612-6.292-4.612-11.359 0-5.29 1.59-9.676 4.774-13.155 3.715-4.093 8.67-6.139 14.863-6.139 5.68 0 11.256 1.29 16.725 3.867a1.692 1.692 0 0 1 .767 2.298l-1.477 2.845c-1.82 3.503-5.916 5.099-9.723 3.953a13.466 13.466 0 0 0-3.911-.587c-1.609 0-3.048.405-4.318 1.217-1.44.925-2.16 2.154-2.16 3.692 0 1.511.946 2.813 2.836 3.903.846.506 3.384 1.373 7.614 2.602 5.302 1.535 9.08 3.713 11.336 6.53 1.947 2.402 2.919 5.485 2.919 9.252M582.337 286h-5.12a8.034 8.034 0 0 1-8.033-8.037V262.28h-21.368v15.682a8.035 8.035 0 0 1-8.032 8.037h-5.12a1.664 1.664 0 0 1-1.664-1.664v-53.672c0-.92.745-1.664 1.663-1.664h5.12a8.035 8.035 0 0 1 8.033 8.037v13.97h21.368v-13.97a8.034 8.034 0 0 1 8.032-8.037h5.12c.92 0 1.664.744 1.664 1.664v53.672c0 .92-.745 1.664-1.663 1.664M680.92 231.171l-17.244 53.671a1.673 1.673 0 0 1-1.595 1.158h-8.049c-3.529 0-6.65-2.277-7.71-5.624l-8.676-27.406-9.132 27.512c-1.093 3.294-4.188 5.518-7.676 5.518h-8.07c-.74 0-1.391-.482-1.603-1.188l-16.094-53.672a1.666 1.666 0 0 1 1.603-2.14h7.14c3.656 0 6.857 2.441 7.806 5.952l8.346 30.88 10.312-31.296a8.078 8.078 0 0 1 7.681-5.536c3.556 0 6.694 2.311 7.731 5.693l9.55 31.14 9.138-31.053c1.008-3.425 4.167-5.78 7.757-5.78h7.19a1.666 1.666 0 0 1 1.594 2.171M737.412 257.52c0-4.034-1.303-7.523-3.905-10.466-3.343-3.754-7.519-5.632-12.528-5.632-3.455 0-6.582.96-9.386 2.879-2.8 1.918-4.796 4.478-5.986 7.67a15.788 15.788 0 0 0-1.019 5.55c0 3.868 1.3 7.327 3.906 10.381 3.226 3.784 7.388 5.676 12.485 5.676 5.095 0 9.27-1.878 12.528-5.632 2.602-2.999 3.905-6.474 3.905-10.426m15.588 0c0 7.77-2.612 14.59-7.837 20.46-5.959 6.681-14.019 10.02-24.184 10.02-10.136 0-18.187-3.339-24.142-10.02-5.224-5.87-7.837-12.69-7.837-20.46 0-3.548.706-7.188 2.119-10.92 1.412-3.733 3.301-6.925 5.673-9.58 5.96-6.68 14.023-10.02 24.187-10.02 10.165 0 18.225 3.34 24.184 10.02 5.225 5.87 7.837 12.702 7.837 20.5M792.737 247.354c0-2.026-.746-3.733-2.236-5.123-1.406-1.303-3.672-1.956-6.793-1.956h-2.783v14.198h2.783c3.152 0 5.415-.652 6.793-1.956 1.49-1.417 2.236-3.137 2.236-5.163M810.32 286H799.58a8.104 8.104 0 0 1-6.794-3.671l-11.86-18.21v13.844c0 4.44-3.622 8.037-8.091 8.037h-5.158a1.67 1.67 0 0 1-1.676-1.664v-53.672c0-.919.75-1.664 1.676-1.664h21.528c6.786 0 11.802 2.02 15.052 6.055 2.633 3.258 3.953 7.085 3.953 11.485 0 5.04-1.513 9.06-4.542 12.068-1.933 1.919-4.598 3.256-7.987 4.008l15.972 20.709c.844 1.094.058 2.675-1.33 2.675M874.345 286h-11.629a7.954 7.954 0 0 1-6.294-3.099l-16.709-21.622v16.684c0 4.44-3.571 8.037-7.976 8.037h-5.085a1.658 1.658 0 0 1-1.652-1.664v-53.672c0-.92.74-1.664 1.652-1.664h5.085c4.405 0 7.976 3.598 7.976 8.037v15.473l15.55-20.372a7.955 7.955 0 0 1 6.322-3.138h10.645c1.402 0 2.167 1.65 1.266 2.732l-20.15 24.243 22.275 27.305c.886 1.085.12 2.72-1.276 2.72M930 266.572c0 9.657-4.28 15.948-12.838 18.88-2.985 1.031-6.194 1.548-9.63 1.548-6.707 0-12.965-1.871-18.772-5.617a1.696 1.696 0 0 1-.561-2.212l1.461-2.723c2.025-3.77 6.708-5.366 10.588-3.5 2.325 1.116 4.622 1.675 6.89 1.675 1.947 0 3.597-.45 4.951-1.35 1.583-1.015 2.372-2.451 2.372-4.308 0-1.691-.875-3.099-2.625-4.224-1.296-.845-3.483-1.704-6.556-2.578-3.723-1.086-6.064-1.837-7.02-2.255-1.525-.64-2.82-1.392-3.894-2.255-3.073-2.505-4.61-6.292-4.61-11.359 0-5.29 1.588-9.676 4.771-13.155 3.716-4.093 8.672-6.139 14.865-6.139 5.68 0 11.254 1.29 16.726 3.867.856.405 1.202 1.463.767 2.3l-1.478 2.844c-1.82 3.503-5.916 5.098-9.723 3.952a13.46 13.46 0 0 0-3.91-.587c-1.61 0-3.049.405-4.32 1.217-1.44.925-2.157 2.154-2.157 3.692 0 1.511.944 2.813 2.834 3.903.844.506 3.384 1.373 7.611 2.602 5.306 1.535 9.083 3.713 11.34 6.53 1.944 2.402 2.918 5.485 2.918 9.252"/>
            <path stroke="#6D6D6D" stroke-dasharray="4.216,4.216" d="M268 211.5c0 5.8-4.701 10.5-10.5 10.5s-10.5-4.7-10.5-10.5 4.701-10.5 10.5-10.5 10.5 4.7 10.5 10.5zM240 309.5c0-5.798 4.701-10.5 10.5-10.5s10.5 4.702 10.5 10.5c0 5.8-4.701 10.5-10.5 10.5s-10.5-4.7-10.5-10.5zM314 263.5c0 5.8-4.701 10.5-10.5 10.5s-10.5-4.7-10.5-10.5 4.701-10.5 10.5-10.5 10.5 4.7 10.5 10.5z"/>
            <path stroke="#6D6D6D" stroke-dasharray="4.216,4.216" d="M293 256.5c0-5.8 4.7-10.5 10.5-10.5 5.799 0 10.5 4.7 10.5 10.5s-4.701 10.5-10.5 10.5c-5.8 0-10.5-4.7-10.5-10.5zM242 289.5c0 5.8-4.701 10.5-10.5 10.5s-10.5-4.7-10.5-10.5c0-5.798 4.701-10.5 10.5-10.5s10.5 4.702 10.5 10.5z"/>
            <path stroke="#6D6D6D" stroke-dasharray="4.216,4.216" d="M214 283.5c0-5.8 4.701-10.5 10.5-10.5s10.5 4.7 10.5 10.5-4.701 10.5-10.5 10.5-10.5-4.7-10.5-10.5zM273 283.5c0-5.8 4.701-10.5 10.5-10.5s10.5 4.7 10.5 10.5-4.701 10.5-10.5 10.5-10.5-4.7-10.5-10.5zM235 236.5c0 5.8-4.701 10.5-10.5 10.5s-10.5-4.7-10.5-10.5 4.701-10.5 10.5-10.5 10.5 4.7 10.5 10.5zM294 236.5c0 5.8-4.701 10.5-10.5 10.5s-10.5-4.7-10.5-10.5 4.701-10.5 10.5-10.5 10.5 4.7 10.5 10.5z"/>
            <path stroke="#6D6D6D" stroke-dasharray="4.216,4.216" d="M267 230.5c0-5.8 4.701-10.5 10.5-10.5s10.5 4.7 10.5 10.5-4.701 10.5-10.5 10.5-10.5-4.7-10.5-10.5zM216 263.5c0 5.8-4.701 10.5-10.5 10.5s-10.5-4.7-10.5-10.5 4.701-10.5 10.5-10.5 10.5 4.7 10.5 10.5z"/>
            <path stroke="#6D6D6D" stroke-dasharray="4.216,4.216" d="M195 256.5c0-5.8 4.701-10.5 10.5-10.5s10.5 4.7 10.5 10.5-4.701 10.5-10.5 10.5-10.5-4.7-10.5-10.5z"/>
            <path stroke="#4D4D4D" d="M241 207c0 7.18-5.82 13-13 13s-13-5.82-13-13 5.82-13 13-13 13 5.82 13 13zM241 260c0 7.18-5.82 13-13 13s-13-5.82-13-13 5.82-13 13-13 13 5.82 13 13zM241 313c0 7.18-5.82 13-13 13s-13-5.82-13-13 5.82-13 13-13 13 5.82 13 13zM294 207c0 7.18-5.82 13-13 13s-13-5.82-13-13 5.82-13 13-13 13 5.82 13 13zM294 260c0 7.18-5.82 13-13 13s-13-5.82-13-13 5.82-13 13-13 13 5.82 13 13zM294 313c0 7.18-5.82 13-13 13s-13-5.82-13-13 5.82-13 13-13 13 5.82 13 13zM307 248c-7.18 0-13-5.82-13-13s5.82-13 13-13 13 5.82 13 13-5.82 13-13 13zM254 248c-7.18 0-13-5.82-13-13s5.82-13 13-13 13 5.82 13 13-5.82 13-13 13zM201 248c-7.18 0-13-5.82-13-13s5.82-13 13-13 13 5.82 13 13-5.82 13-13 13zM307 300c-7.18 0-13-5.82-13-13s5.82-13 13-13 13 5.82 13 13-5.82 13-13 13zM254 300c-7.18 0-13-5.82-13-13s5.82-13 13-13 13 5.82 13 13-5.82 13-13 13zM201 300c-7.18 0-13-5.82-13-13s5.82-13 13-13 13 5.82 13 13-5.82 13-13 13zM346 235c0 7.18-5.82 13-13 13s-13-5.82-13-13 5.82-13 13-13 13 5.82 13 13zM1001 256.5c0 15.74-12.76 28.5-28.5 28.5S944 272.24 944 256.5s12.76-28.5 28.5-28.5 28.5 12.76 28.5 28.5zM346 229h655M346 286h655"/>
        </g>
    </g>
</svg>
