<svg xmlns="http://www.w3.org/2000/svg" width="100" height="99" viewBox="0 0 100 99">
    <g fill="none" fill-rule="evenodd">
        <path fill="#F05944" d="M56.884 62.881a9.354 9.354 0 0 1 0 13.42c-1.913 1.874-4.426 2.793-6.933 2.772h-3.664c-1.764.004-3.656.985-4.714 2.021-.953.934-2.024 2.652-2.064 4.617v2.686c.266 2.721-.62 5.532-2.749 7.615-3.784 3.707-9.917 3.707-13.7 0a9.351 9.351 0 0 1 0-13.42c2.128-2.084 4.996-2.953 7.775-2.692h2.741c2.083-.024 3.717-1.013 4.73-2.005 1.028-1.006 1.97-2.745 2.047-4.633V69.67a9.352 9.352 0 0 1 2.83-6.79c3.784-3.706 9.918-3.706 13.701 0M19.309 65.925c.04-1.966 1.11-3.683 2.064-4.617 1.057-1.035 2.95-2.017 4.713-2.02h2.627c2.832.315 5.777-.549 7.95-2.677a9.351 9.351 0 0 0 0-13.42c-1.936-1.895-4.484-2.806-7.02-2.763h-3.54c-1.928-.076-3.702-1-4.73-2.006-1.012-.992-2.023-2.593-2.047-4.632v-2.686c.266-2.722-.62-5.531-2.748-7.616-3.784-3.706-9.918-3.706-13.701 0a9.352 9.352 0 0 0 0 13.42c2.127 2.085 4.996 2.952 7.775 2.692h2.742c2.006.04 3.76 1.089 4.713 2.021 1.058 1.037 2.06 2.89 2.064 4.617v3.187a9.089 9.089 0 0 0-.018.773v3.278c-.077 1.888-1.02 3.626-2.047 4.633-1.013.991-2.648 1.982-4.73 2.006h-3.73l.012.01a9.76 9.76 0 0 0-6.82 2.777 9.352 9.352 0 0 0 0 13.42c3.783 3.707 9.917 3.707 13.7 0 2.072-2.03 2.968-4.746 2.77-7.4v-2.997z"/>
        <path fill="#613E97" d="M90.281 60.083l.01-.01h-3.728c-1.929-.074-3.703-.998-4.73-2.005-1.014-.991-2.024-2.593-2.049-4.632v-2.748a9.226 9.226 0 0 0-.017-1.835V46.28c.04-1.965 1.112-3.684 2.064-4.617 1.058-1.036 2.95-2.018 4.714-2.022h3.729l-.017-.016c2.497.014 5-.907 6.906-2.774a9.352 9.352 0 0 0 0-13.42c-3.784-3.706-9.918-3.706-13.701 0a9.355 9.355 0 0 0-2.833 6.764l-.017-.016v3.652c-.077 1.888-1.02 3.626-2.048 4.632-1.012.992-2.646 1.983-4.73 2.006h-2.628c-2.81-.293-5.724.572-7.878 2.683a9.352 9.352 0 0 0 0 13.42c2.172 2.128 5.117 2.991 7.95 2.676h2.574c2.006.039 3.76 1.089 4.714 2.021 1.057 1.036 2.06 2.89 2.063 4.617v3.419a9.334 9.334 0 0 0 2.812 6.978c3.783 3.706 9.917 3.706 13.7 0a9.351 9.351 0 0 0 0-13.42 9.762 9.762 0 0 0-6.86-2.779"/>
        <path fill="#F05944" d="M63.278 82.65a9.352 9.352 0 0 0 0 13.421c3.784 3.705 9.918 3.705 13.702 0a9.354 9.354 0 0 0 0-13.42c-3.784-3.707-9.918-3.707-13.702 0"/>
        <path fill="#613E97" d="M36.68 17.101a9.353 9.353 0 0 0 0-13.42c-3.783-3.705-9.918-3.705-13.701 0a9.353 9.353 0 0 0 0 13.42c3.783 3.707 9.918 3.707 13.701 0M56.825 36.822c2.147-2.102 3.032-4.943 2.742-7.687v-2.641c.04-1.966 1.111-3.684 2.063-4.618 1.058-1.036 2.952-2.016 4.714-2.02h3.49c2.571.07 5.163-.834 7.125-2.755a9.353 9.353 0 0 0 0-13.42c-3.784-3.705-9.918-3.705-13.7 0a9.36 9.36 0 0 0-2.838 6.72l-.01-.01v3.652c-.076 1.89-1.019 3.627-2.046 4.634-1.013.992-2.648 1.982-4.731 2.005h-3.03c-2.685-.17-5.427.71-7.48 2.72a9.354 9.354 0 0 0 0 13.42c3.783 3.707 9.918 3.707 13.7 0"/>
    </g>
</svg>
