<svg xmlns="http://www.w3.org/2000/svg" width="100" height="99" viewBox="0 0 100 99">
    <path fill="#613E97" fill-rule="evenodd" d="M56.825 36.396c2.147-2.103 3.032-4.943 2.742-7.688v-2.64c.04-1.967 1.111-3.685 2.063-4.618 1.058-1.036 2.952-2.018 4.714-2.022h3.49c2.571.072 5.163-.831 7.125-2.752a9.354 9.354 0 0 0 0-13.42c-3.784-3.706-9.918-3.706-13.7 0a9.36 9.36 0 0 0-2.838 6.719l-.01-.01v3.652c-.076 1.89-1.019 3.627-2.046 4.633-1.013.992-2.648 1.983-4.731 2.006h-3.03c-2.685-.171-5.427.71-7.48 2.72a9.353 9.353 0 0 0 0 13.42c3.783 3.706 9.918 3.706 13.7 0zM36.68 16.676a9.354 9.354 0 0 0 0-13.42c-3.784-3.706-9.918-3.706-13.7 0a9.352 9.352 0 0 0 0 13.42c3.782 3.704 9.916 3.704 13.7 0zm26.598 65.548a9.351 9.351 0 0 0 0 13.42c3.784 3.706 9.918 3.706 13.702 0a9.353 9.353 0 0 0 0-13.42c-3.784-3.705-9.918-3.705-13.702 0zm27.003-22.567l.01-.01h-3.729c-1.927-.075-3.702-.998-4.73-2.005-1.012-.992-2.023-2.593-2.047-4.632v-2.747a9.297 9.297 0 0 0-.017-1.836v-2.574c.04-1.966 1.11-3.684 2.062-4.617 1.059-1.036 2.952-2.017 4.715-2.021h3.729l-.017-.017c2.497.013 5-.908 6.905-2.774a9.352 9.352 0 0 0 0-13.42c-3.784-3.706-9.917-3.706-13.7 0a9.36 9.36 0 0 0-2.833 6.764l-.017-.017v3.652c-.077 1.889-1.02 3.626-2.047 4.634-1.013.99-2.648 1.982-4.73 2.004h-2.629c-2.81-.292-5.724.573-7.879 2.683a9.352 9.352 0 0 0 0 13.42c2.173 2.128 5.117 2.993 7.95 2.676h2.575c2.007.04 3.76 1.089 4.713 2.021 1.058 1.037 2.06 2.89 2.065 4.618v3.418a9.331 9.331 0 0 0 2.811 6.978c3.784 3.707 9.917 3.707 13.7 0a9.351 9.351 0 0 0 0-13.42 9.764 9.764 0 0 0-6.86-2.778zm-70.972 5.842c.04-1.966 1.11-3.684 2.064-4.617 1.057-1.036 2.95-2.017 4.713-2.021h2.627c2.832.316 5.777-.548 7.95-2.676a9.353 9.353 0 0 0 0-13.42c-1.936-1.896-4.484-2.807-7.02-2.763h-3.54c-1.928-.076-3.702-.999-4.73-2.006-1.012-.992-2.023-2.593-2.047-4.633v-2.685c.266-2.722-.62-5.532-2.748-7.616-3.784-3.706-9.918-3.706-13.701 0a9.351 9.351 0 0 0 0 13.42c2.127 2.084 4.996 2.953 7.775 2.692h2.742c2.006.039 3.76 1.089 4.713 2.021 1.058 1.037 2.06 2.89 2.064 4.618v3.185a9.089 9.089 0 0 0-.018.774v3.278c-.077 1.888-1.02 3.626-2.048 4.633-1.012.992-2.647 1.982-4.729 2.005h-3.73l.012.011a9.758 9.758 0 0 0-6.82 2.777 9.351 9.351 0 0 0 0 13.42c3.783 3.706 9.917 3.706 13.7 0 2.072-2.03 2.968-4.746 2.77-7.4v-2.997zm37.575-3.044a9.351 9.351 0 0 1 0 13.42c-1.913 1.874-4.426 2.792-6.933 2.771h-3.664c-1.764.004-3.656.986-4.714 2.022-.953.933-2.025 2.651-2.064 4.617v2.685c.266 2.722-.62 5.532-2.75 7.616-3.782 3.706-9.916 3.706-13.7 0a9.352 9.352 0 0 1 0-13.42c2.128-2.085 4.997-2.953 7.776-2.692h2.741c2.083-.024 3.718-1.014 4.73-2.006 1.028-1.006 1.97-2.744 2.047-4.632v-3.591a9.352 9.352 0 0 1 2.83-6.79c3.784-3.705 9.917-3.705 13.701 0z"/>
</svg>
