<svg xmlns="http://www.w3.org/2000/svg" width="346" height="36" viewBox="0 0 346 36">
    <g fill="#603C94" fill-rule="evenodd">
        <path d="M29.479 34.44H26.42c-2.651 0-4.8-2.105-4.8-4.701v-9.174H8.853v9.173c0 2.596-2.149 4.702-4.8 4.702H.994A.984.984 0 0 1 0 33.466V2.072C0 1.536.445 1.1.994 1.1h3.059c2.651 0 4.8 2.106 4.8 4.702v8.17H21.62v-8.17c0-2.597 2.149-4.702 4.8-4.702h3.059c.549 0 .994.437.994.973v31.393a.984.984 0 0 1-.994.974M58.487 22.032L54.82 11.407l-3.715 10.625h7.38zM71.07 34.44h-4.654c-2.01 0-3.805-1.226-4.501-3.072l-1.035-2.742H48.66l-1.144 2.839c-.724 1.795-2.494 2.975-4.464 2.975h-4.621c-.706 0-1.193-.695-.94-1.341l12.32-31.376a.993.993 0 0 1 .928-.624h8.28c.415 0 .785.25.93.63l12.063 31.377c.248.645-.238 1.334-.942 1.334zM102.584 23.36c0 5.642-2.527 9.317-7.58 11.029-1.763.603-3.658.905-5.686.905-3.962 0-7.657-1.093-11.086-3.281a.985.985 0 0 1-.332-1.293l.863-1.59c1.196-2.203 3.962-3.134 6.253-2.045 1.372.653 2.729.979 4.069.979 1.149 0 2.123-.263 2.923-.79.933-.591 1.399-1.43 1.399-2.516 0-.987-.515-1.81-1.548-2.467-.766-.493-2.058-.995-3.872-1.505-2.198-.635-3.581-1.074-4.147-1.318-.899-.374-1.665-.813-2.298-1.316-1.814-1.464-2.723-3.677-2.723-6.636 0-3.091.94-5.653 2.819-7.685C83.832 1.44 86.758.245 90.415.245c3.354 0 6.647.753 9.876 2.259.506.236.71.855.453 1.342l-.872 1.662c-1.076 2.047-3.493 2.978-5.742 2.309a8.068 8.068 0 0 0-2.309-.342c-.95 0-1.8.236-2.55.71-.85.54-1.275 1.259-1.275 2.157 0 .883.558 1.643 1.674 2.28.5.295 1.998.8 4.496 1.52 3.131.897 5.362 2.169 6.694 3.815 1.15 1.403 1.724 3.203 1.724 5.404M140.204 34.44h-3.06c-2.65 0-4.8-2.105-4.8-4.701v-9.174h-12.767v9.173c0 2.596-2.15 4.702-4.8 4.702h-3.06a.984.984 0 0 1-.993-.974V2.072c0-.536.445-.973.994-.973h3.059c2.65 0 4.8 2.106 4.8 4.702v8.17h12.768v-8.17c0-2.597 2.149-4.702 4.799-4.702h3.06c.549 0 .994.437.994.973v31.393a.984.984 0 0 1-.994.974M198.695 2.369l-10.238 31.394a.992.992 0 0 1-.947.677h-4.779c-2.096 0-3.949-1.332-4.578-3.29l-5.15-16.031-5.423 16.093c-.65 1.926-2.488 3.228-4.559 3.228h-4.79a.992.992 0 0 1-.953-.696L147.722 2.35c-.19-.624.287-1.252.952-1.252h4.24c2.171 0 4.071 1.428 4.635 3.48l4.955 18.064 6.123-18.306c.645-1.931 2.485-3.238 4.56-3.238 2.112 0 3.975 1.352 4.591 3.33l5.671 18.214 5.425-18.163c.598-2.004 2.474-3.381 4.606-3.381h4.27c.672 0 1.15.642.945 1.27M232.21 17.781c0-2.35-.768-4.383-2.299-6.097-1.969-2.188-4.427-3.282-7.376-3.282-2.034 0-3.875.56-5.526 1.677a9.197 9.197 0 0 0-3.524 4.47 9.097 9.097 0 0 0-.599 3.232c0 2.253.764 4.27 2.299 6.048 1.899 2.205 4.349 3.307 7.35 3.307 3 0 5.458-1.094 7.376-3.282 1.531-1.746 2.299-3.77 2.299-6.073m9.178 0c0 4.527-1.538 8.5-4.615 11.92-3.507 3.892-8.252 5.837-14.238 5.837-5.968 0-10.707-1.945-14.213-5.838-3.076-3.419-4.614-7.392-4.614-11.919 0-2.067.415-4.188 1.247-6.362.832-2.175 1.943-4.034 3.341-5.58C211.804 1.945 216.551 0 222.535 0c5.986 0 10.731 1.946 14.238 5.838 3.077 3.42 4.615 7.4 4.615 11.943M265.411 11.835c0-1.187-.442-2.185-1.326-2.997-.834-.761-2.179-1.143-4.029-1.143h-1.652v8.304h1.652c1.87 0 3.211-.382 4.03-1.145.883-.829 1.325-1.834 1.325-3.02m10.43 22.606h-6.37a4.828 4.828 0 0 1-4.032-2.148l-7.035-10.652v8.098c0 2.596-2.148 4.702-4.799 4.702h-3.059a.984.984 0 0 1-.994-.974V2.072c0-.536.445-.973.994-.973h12.77c4.024 0 7 1.181 8.927 3.542 1.563 1.904 2.346 4.143 2.346 6.716 0 2.949-.899 5.302-2.696 7.06-1.146 1.122-2.726 1.904-4.737 2.345l9.474 12.111c.501.642.034 1.567-.789 1.567M313.815 34.44h-6.998a4.834 4.834 0 0 1-3.786-1.813l-10.055-12.648v9.76c0 2.595-2.149 4.7-4.8 4.7h-3.058a.984.984 0 0 1-.995-.974V2.072c0-.536.445-.973.995-.973h3.058c2.651 0 4.8 2.106 4.8 4.702v9.05l9.356-11.917a4.834 4.834 0 0 1 3.805-1.835h6.404c.844 0 1.303.965.762 1.598l-12.125 14.18 13.404 15.97c.534.636.072 1.593-.767 1.593M346 23.36c0 5.642-2.527 9.317-7.581 11.029-1.762.603-3.657.905-5.686.905-3.961 0-7.656-1.093-11.086-3.281a.986.986 0 0 1-.331-1.293l.864-1.59c1.195-2.203 3.961-3.134 6.252-2.045 1.372.653 2.728.979 4.069.979 1.148 0 2.123-.263 2.923-.79.934-.591 1.4-1.43 1.4-2.516 0-.987-.516-1.81-1.55-2.467-.765-.493-2.056-.995-3.872-1.505-2.197-.635-3.58-1.074-4.145-1.318-.901-.374-1.665-.813-2.299-1.316-1.814-1.464-2.723-3.677-2.723-6.636 0-3.091.939-5.653 2.818-7.685 2.194-2.391 5.121-3.586 8.778-3.586 3.354 0 6.646.753 9.876 2.259a.984.984 0 0 1 .454 1.343l-.873 1.662c-1.076 2.046-3.493 2.978-5.741 2.309a8.04 8.04 0 0 0-2.309-.343c-.951 0-1.801.236-2.551.71-.85.54-1.274 1.259-1.274 2.157 0 .883.557 1.643 1.673 2.28.499.295 1.998.8 4.495 1.52 3.133.897 5.363 2.169 6.695 3.815C345.425 19.36 346 21.16 346 23.36"/>
    </g>
</svg>
