<svg xmlns="http://www.w3.org/2000/svg" width="182" height="175" viewBox="0 0 182 175">
    <g fill="#DBDBDA" fill-rule="evenodd">
        <path d="M60.32 39.49c-.119 5.89-3.32 11.04-6.166 13.836-3.16 3.104-8.812 6.045-14.08 6.057h-7.847c-8.461-.947-17.258 1.643-23.75 8.021a28.088 28.088 0 0 0 0 40.218c5.783 5.68 13.395 8.41 20.97 8.281H40.02c5.76.227 11.06 2.995 14.13 6.011 3.026 2.973 6.045 7.773 6.116 13.884v8.047c-.795 8.158 1.855 16.579 8.21 22.826 11.304 11.105 29.628 11.105 40.93 0a28.09 28.09 0 0 0 0-40.22c-6.357-6.247-14.925-8.847-23.229-8.067h-8.19c-5.993-.12-11.234-3.263-14.078-6.057-3.163-3.107-6.152-8.662-6.167-13.837v-9.55c.041-.774.078-1.541.054-2.316V76.8c.23-5.66 3.045-10.867 6.115-13.886 3.026-2.97 7.91-5.94 14.13-6.01h11.14l-.034-.033c7.376-.022 14.747-2.792 20.375-8.32a28.09 28.09 0 0 0 0-40.22c-11.301-11.108-29.625-11.108-40.928 0-6.189 6.082-8.865 14.224-8.275 22.175v8.983z"/>
        <text font-family="Muli-ExtraBold, Muli" font-size="18" font-weight="600">
            <tspan x="101" y="94">DBDBDA</tspan>
        </text>
    </g>
</svg>
