<svg xmlns="http://www.w3.org/2000/svg" xmlns:xlink="http://www.w3.org/1999/xlink" width="1110" height="256" viewBox="0 0 1110 256">
    <defs>
        <linearGradient id="b" x1="90.931%" x2="11.812%" y1="10.172%" y2="87.802%">
            <stop offset="0%" stop-color="#603D95"/>
            <stop offset="100%" stop-color="#E26158"/>
        </linearGradient>
        <path id="a" d="M331.388 81.074c-2.631 0-5.262.984-7.269 2.949a9.936 9.936 0 0 0-3.009 7.131l-.012-.012v3.879c-.081 2.001-1.083 3.843-2.175 4.914-1.071 1.053-2.805 2.103-5.016 2.127h-3.216c-2.847-.18-5.757.753-7.938 2.886a9.931 9.931 0 0 0 0 14.241c4.017 3.93 10.527 3.93 14.538 0 2.28-2.232 3.219-5.247 2.91-8.157v-2.805c.045-2.085 1.179-3.909 2.19-4.896 1.122-1.101 3.129-2.142 5.001-2.148h3.705c2.727.078 5.478-.882 7.56-2.922a9.928 9.928 0 0 0 0-14.238 10.362 10.362 0 0 0-7.269-2.949zm-42.738 0c-2.631 0-5.262.984-7.269 2.949a9.922 9.922 0 0 0 0 14.238c4.014 3.936 10.521 3.936 14.538 0a9.922 9.922 0 0 0 0-14.238 10.368 10.368 0 0 0-7.269-2.949zm56.904 23.904a9.926 9.926 0 0 0-3.006 7.176l-.018-.015v3.873c-.081 2.004-1.083 3.849-2.169 4.917-1.077 1.05-2.811 2.103-5.022 2.127h-2.787c-2.985-.312-6.072.606-8.361 2.847a9.919 9.919 0 0 0 0 14.235c2.307 2.262 5.43 3.177 8.436 2.841h2.733c2.127.045 3.987 1.155 5.001 2.148 1.122 1.098 2.184 3.063 2.187 4.896v3.627a9.911 9.911 0 0 0 2.985 7.404c4.014 3.933 10.521 3.933 14.538 0a9.922 9.922 0 0 0 0-14.238 10.36 10.36 0 0 0-7.281-2.949l.012-.009h-3.957c-2.046-.078-3.927-1.059-5.019-2.127-1.074-1.05-2.145-2.751-2.172-4.917v-2.913a9.6 9.6 0 0 0-.021-1.947v-2.733c.045-2.085 1.182-3.909 2.19-4.899 1.125-1.098 3.132-2.139 5.004-2.145h3.957l-.021-.018c2.652.015 5.307-.963 7.329-2.943a9.922 9.922 0 0 0 0-14.238 10.362 10.362 0 0 0-7.269-2.949c-2.631 0-5.262.984-7.269 2.949zm-85.503.06a9.926 9.926 0 0 0 0 14.241c2.256 2.211 5.304 3.132 8.25 2.856h2.91c2.13.042 3.99 1.155 5.001 2.145 1.122 1.098 2.187 3.063 2.19 4.899v3.378c-.015.276-.03.549-.018.822v3.48c-.084 2.001-1.083 3.846-2.172 4.914-1.077 1.053-2.811 2.103-5.022 2.127h-3.954l.009.012c-2.619.009-5.238.99-7.236 2.946a9.947 9.947 0 0 0-3.009 7.008v.225a9.935 9.935 0 0 0 3.009 7.005c4.017 3.936 10.524 3.936 14.538 0 2.199-2.151 3.147-5.034 2.94-7.851v-3.177c.042-2.088 1.179-3.909 2.19-4.902 1.122-1.098 3.129-2.136 5.001-2.142h2.787c3.006.333 6.129-.582 8.433-2.841a9.917 9.917 0 0 0 0-14.238c-2.052-2.01-4.758-2.979-7.446-2.931h-3.756c-2.046-.081-3.927-1.062-5.019-2.127-1.074-1.053-2.145-2.751-2.172-4.917v-2.85c.282-2.889-.657-5.868-2.916-8.082a10.362 10.362 0 0 0-7.269-2.949c-2.631 0-5.262.984-7.269 2.949zm42.768 41.799a9.908 9.908 0 0 0-3.003 7.206v3.81c-.081 2.001-1.083 3.843-2.172 4.914-1.077 1.05-2.808 2.103-5.016 2.127h-2.913c-2.946-.276-5.991.645-8.247 2.856a9.926 9.926 0 0 0 0 14.241c4.011 3.93 10.521 3.93 14.535 0 2.259-2.214 3.198-5.193 2.916-8.082v-2.85c.045-2.085 1.182-3.909 2.19-4.899 1.125-1.098 3.129-2.139 5.001-2.145h3.888c2.661.021 5.328-.951 7.359-2.94a9.922 9.922 0 0 0 0-14.238 10.362 10.362 0 0 0-7.272-2.949c-2.628 0-5.259.981-7.266 2.949zm21.321 20.976a9.922 9.922 0 0 0 0 14.238c4.014 3.933 10.524 3.933 14.538 0a9.928 9.928 0 0 0 0-14.238c-2.007-1.968-4.638-2.949-7.269-2.949-2.631 0-5.262.981-7.269 2.949z"/>
    </defs>
    <g fill="none" fill-rule="evenodd">
        <g transform="translate(0 52)">
            <path fill="#FFF" d="M0 0h1110v204H0z"/>
            <path fill="#603C94" d="M424.434 155.647h-4.15c-3.596 0-6.51-2.856-6.51-6.375v-12.44H396.46v12.44c0 3.52-2.913 6.375-6.51 6.375h-4.15c-.743 0-1.346-.59-1.346-1.32v-42.579c0-.729.603-1.32 1.347-1.32h4.149c3.597 0 6.51 2.853 6.51 6.375v11.085h17.316v-11.085c0-3.522 2.913-6.375 6.51-6.375h4.149c.747 0 1.35.591 1.35 1.32v42.58c0 .728-.603 1.32-1.35 1.32M463.777 138.82l-4.971-14.413-5.04 14.412h10.01zm17.067 16.826h-6.312c-2.724 0-5.16-1.662-6.105-4.164l-1.401-3.72H450.45l-1.551 3.852c-.984 2.433-3.384 4.032-6.057 4.032h-6.264c-.96 0-1.62-.942-1.275-1.818l16.71-42.555c.2-.51.699-.846 1.257-.846h11.232c.56 0 1.062.342 1.26.855l16.359 42.555c.339.876-.324 1.81-1.278 1.81zM523.586 140.621c0 7.65-3.429 12.636-10.28 14.958-2.392.819-4.963 1.227-7.714 1.227-5.373 0-10.383-1.482-15.036-4.449a1.34 1.34 0 0 1-.45-1.755l1.17-2.157c1.623-2.988 5.373-4.251 8.481-2.772 1.863.885 3.702 1.326 5.52 1.326 1.56 0 2.88-.357 3.966-1.068 1.263-.804 1.896-1.941 1.896-3.414 0-1.338-.699-2.457-2.1-3.345-1.038-.672-2.79-1.353-5.253-2.043-2.979-.861-4.854-1.455-5.622-1.788-1.22-.507-2.259-1.101-3.117-1.785-2.46-1.986-3.693-4.986-3.693-9 0-4.191 1.275-7.668 3.822-10.422 2.976-3.243 6.945-4.866 11.907-4.866 4.548 0 9.012 1.023 13.392 3.066.687.318.963 1.158.615 1.821l-1.185 2.253c-1.455 2.775-4.737 4.038-7.785 3.132a10.959 10.959 0 0 0-3.132-.465c-1.287 0-2.442.321-3.459.963-1.152.732-1.728 1.707-1.728 2.925 0 1.2.756 2.229 2.271 3.093.678.402 2.71 1.086 6.096 2.064 4.245 1.215 7.272 2.94 9.081 5.172 1.557 1.902 2.337 4.344 2.337 7.329"/>
            <mask id="c" fill="#fff">
                <use xlink:href="#a"/>
            </mask>
            <use fill="url(#b)" xlink:href="#a"/>
            <path d="M331.388 89.074c-2.631 0-5.262.984-7.269 2.949a9.936 9.936 0 0 0-3.009 7.131l-.012-.012v3.879c-.081 2.001-1.083 3.843-2.175 4.914-1.071 1.053-2.805 2.103-5.016 2.127h-3.216c-2.847-.18-5.757.753-7.938 2.886a9.931 9.931 0 0 0 0 14.241c4.017 3.93 10.527 3.93 14.538 0 2.28-2.232 3.219-5.247 2.91-8.157v-2.805c.045-2.085 1.179-3.909 2.19-4.896 1.122-1.101 3.129-2.142 5.001-2.148h3.705c2.727.078 5.478-.882 7.56-2.922a9.928 9.928 0 0 0 0-14.238 10.362 10.362 0 0 0-7.269-2.949zm-42.738 0c-2.631 0-5.262.984-7.269 2.949a9.922 9.922 0 0 0 0 14.238c4.014 3.936 10.521 3.936 14.538 0a9.922 9.922 0 0 0 0-14.238 10.368 10.368 0 0 0-7.269-2.949zm56.904 23.904a9.926 9.926 0 0 0-3.006 7.176l-.018-.015v3.873c-.081 2.004-1.083 3.849-2.169 4.917-1.077 1.05-2.811 2.103-5.022 2.127h-2.787c-2.985-.312-6.072.606-8.361 2.847a9.919 9.919 0 0 0 0 14.235c2.307 2.262 5.43 3.177 8.436 2.841h2.733c2.127.045 3.987 1.155 5.001 2.148 1.122 1.098 2.184 3.063 2.187 4.896v3.627a9.911 9.911 0 0 0 2.985 7.404c4.014 3.933 10.521 3.933 14.538 0a9.922 9.922 0 0 0 0-14.238 10.36 10.36 0 0 0-7.281-2.949l.012-.009h-3.957c-2.046-.078-3.927-1.059-5.019-2.127-1.074-1.05-2.145-2.751-2.172-4.917v-2.913a9.6 9.6 0 0 0-.021-1.947v-2.733c.045-2.085 1.182-3.909 2.19-4.899 1.125-1.098 3.132-2.139 5.004-2.145h3.957l-.021-.018c2.652.015 5.307-.963 7.329-2.943a9.922 9.922 0 0 0 0-14.238 10.362 10.362 0 0 0-7.269-2.949c-2.631 0-5.262.984-7.269 2.949zm-85.503.06a9.926 9.926 0 0 0 0 14.241c2.256 2.211 5.304 3.132 8.25 2.856h2.91c2.13.042 3.99 1.155 5.001 2.145 1.122 1.098 2.187 3.063 2.19 4.899v3.378c-.015.276-.03.549-.018.822v3.48c-.084 2.001-1.083 3.846-2.172 4.914-1.077 1.053-2.811 2.103-5.022 2.127h-3.954l.009.012c-2.619.009-5.238.99-7.236 2.946a9.947 9.947 0 0 0-3.009 7.008v.225a9.935 9.935 0 0 0 3.009 7.005c4.017 3.936 10.524 3.936 14.538 0 2.199-2.151 3.147-5.034 2.94-7.851v-3.177c.042-2.088 1.179-3.909 2.19-4.902 1.122-1.098 3.129-2.136 5.001-2.142h2.787c3.006.333 6.129-.582 8.433-2.841a9.917 9.917 0 0 0 0-14.238c-2.052-2.01-4.758-2.979-7.446-2.931h-3.756c-2.046-.081-3.927-1.062-5.019-2.127-1.074-1.053-2.145-2.751-2.172-4.917v-2.85c.282-2.889-.657-5.868-2.916-8.082a10.362 10.362 0 0 0-7.269-2.949c-2.631 0-5.262.984-7.269 2.949zm42.768 41.799a9.908 9.908 0 0 0-3.003 7.206v3.81c-.081 2.001-1.083 3.843-2.172 4.914-1.077 1.05-2.808 2.103-5.016 2.127h-2.913c-2.946-.276-5.991.645-8.247 2.856a9.926 9.926 0 0 0 0 14.241c4.011 3.93 10.521 3.93 14.535 0 2.259-2.214 3.198-5.193 2.916-8.082v-2.85c.045-2.085 1.182-3.909 2.19-4.899 1.125-1.098 3.129-2.139 5.001-2.145h3.888c2.661.021 5.328-.951 7.359-2.94a9.922 9.922 0 0 0 0-14.238 10.362 10.362 0 0 0-7.272-2.949c-2.628 0-5.259.981-7.266 2.949zm21.321 20.976a9.922 9.922 0 0 0 0 14.238c4.014 3.933 10.524 3.933 14.538 0a9.928 9.928 0 0 0 0-14.238c-2.007-1.968-4.638-2.949-7.269-2.949-2.631 0-5.262.981-7.269 2.949z" mask="url(#c)"/>
        </g>
        <g fill="#603C94">
            <path d="M574.61 207.647h-4.15c-3.596 0-6.51-2.856-6.51-6.375v-12.44h-17.318v12.44c0 3.52-2.913 6.375-6.51 6.375h-4.15c-.743 0-1.346-.59-1.346-1.32v-42.579c0-.729.603-1.32 1.347-1.32h4.149c3.597 0 6.51 2.853 6.51 6.375v11.085h17.319v-11.085c0-3.522 2.913-6.375 6.51-6.375h4.149c.744 0 1.347.591 1.347 1.32v42.58c0 .728-.603 1.32-1.347 1.32M653.941 164.15l-13.884 42.58a1.35 1.35 0 0 1-1.287.917h-6.48c-2.844 0-5.358-1.806-6.21-4.46l-6.987-21.745-7.353 21.828c-.882 2.613-3.372 4.377-6.183 4.377h-6.498a1.347 1.347 0 0 1-1.293-.942l-12.96-42.579c-.258-.849.39-1.698 1.293-1.698h5.748c2.946 0 5.523 1.935 6.285 4.722l6.723 24.498 8.304-24.828c.876-2.619 3.372-4.392 6.186-4.392 2.862 0 5.391 1.833 6.225 4.515l7.692 24.705 7.36-24.633c.81-2.72 3.353-4.587 6.245-4.587h5.79c.912 0 1.563.87 1.284 1.722M699.397 185.054c0-3.186-1.041-5.943-3.12-8.268-2.667-2.97-6.003-4.452-10.002-4.452-2.757 0-5.256.759-7.497 2.274-2.235 1.518-3.828 3.54-4.78 6.063a12.398 12.398 0 0 0-.812 4.383c0 3.057 1.038 5.79 3.12 8.202 2.577 2.99 5.898 4.485 9.969 4.485 4.068 0 7.404-1.482 10.002-4.45 2.079-2.37 3.12-5.114 3.12-8.237m12.447 0c0 6.14-2.085 11.529-6.258 16.167-4.758 5.277-11.193 7.917-19.311 7.917-8.094 0-14.523-2.64-19.278-7.917-4.17-4.638-6.258-10.026-6.258-16.167 0-2.805.564-5.682 1.692-8.628 1.128-2.95 2.637-5.472 4.53-7.57 4.758-5.28 11.196-7.92 19.314-7.92s14.553 2.64 19.31 7.92c4.174 4.636 6.259 10.036 6.259 16.198M744.426 176.988c0-1.608-.6-2.96-1.797-4.062-1.13-1.035-2.955-1.554-5.466-1.554h-2.238v11.265h2.238c2.535 0 4.356-.519 5.466-1.554 1.197-1.122 1.797-2.487 1.797-4.095m14.148 30.66h-8.643c-2.208 0-4.266-1.098-5.466-2.913l-9.54-14.448v10.983c0 3.522-2.916 6.378-6.51 6.378h-4.149a1.336 1.336 0 0 1-1.347-1.323V163.75c0-.729.603-1.323 1.347-1.323h17.32c5.46 0 9.494 1.605 12.107 4.806 2.118 2.583 3.18 5.62 3.18 9.111 0 3.996-1.218 7.188-3.654 9.573-1.554 1.521-3.699 2.583-6.423 3.18l12.846 16.428c.681.867.048 2.124-1.068 2.124M810.076 207.647h-9.492c-2.007 0-3.9-.909-5.133-2.46l-13.638-17.15v13.235c0 3.52-2.913 6.375-6.51 6.375h-4.149c-.744 0-1.347-.59-1.347-1.32v-42.579c0-.729.603-1.32 1.347-1.32h4.15c3.596 0 6.51 2.853 6.51 6.375v12.276l12.69-16.16a6.551 6.551 0 0 1 5.16-2.49h8.684c1.146 0 1.77 1.307 1.035 2.165l-16.443 19.233 18.177 21.66c.723.861.096 2.16-1.04 2.16M853.73 192.621c0 7.65-3.43 12.636-10.284 14.958-2.388.819-4.96 1.227-7.71 1.227-5.373 0-10.383-1.482-15.036-4.449a1.34 1.34 0 0 1-.45-1.755l1.17-2.157c1.623-2.988 5.373-4.251 8.48-2.772 1.864.885 3.703 1.326 5.52 1.326 1.558 0 2.88-.357 3.964-1.068 1.269-.804 1.902-1.941 1.902-3.414 0-1.338-.702-2.457-2.103-3.345-1.038-.672-2.79-1.353-5.253-2.043-2.98-.861-4.854-1.455-5.622-1.788-1.221-.507-2.26-1.101-3.117-1.785-2.46-1.986-3.693-4.986-3.693-9 0-4.191 1.272-7.668 3.822-10.422 2.973-3.243 6.945-4.866 11.904-4.866 4.55 0 9.012 1.023 13.395 3.066.687.318.963 1.158.615 1.821l-1.185 2.253c-1.455 2.775-4.737 4.038-7.785 3.132a10.959 10.959 0 0 0-3.132-.465c-1.287 0-2.442.321-3.46.963-1.151.732-1.727 1.707-1.727 2.925 0 1.2.756 2.229 2.27 3.093.676.402 2.71 1.086 6.097 2.064 4.248 1.215 7.272 2.94 9.08 5.172 1.558 1.902 2.338 4.344 2.338 7.329"/>
        </g>
        <text fill="#393939" font-family="MavenPro-Medium, Maven Pro" font-size="32" font-weight="400" transform="translate(0 -87)">
            <tspan x="2" y="107">Final Logo</tspan>
        </text>
    </g>
</svg>
