<svg xmlns="http://www.w3.org/2000/svg" xmlns:xlink="http://www.w3.org/1999/xlink" width="1110" height="530" viewBox="0 0 1110 530">
    <defs>
        <path id="a" d="M.647.2H551V130H.647z"/>
        <path id="c" d="M0 .2h62.3v67.496H0z"/>
        <path id="e" d="M.647.2H551V130H.647z"/>
        <path id="g" d="M.647.2H551V130H.647z"/>
        <path id="i" d="M0 .2h62.3v67.496H0z"/>
        <path id="k" d="M.647.2H551V130H.647z"/>
    </defs>
    <g fill="none" fill-rule="evenodd">
        <path fill="#FFF" d="M0 0h1110v530H0z"/>
        <path fill="#FFF" d="M0 0h1110v530H0z"/>
        <g transform="translate(328 210.8)">
            <mask id="b" fill="#fff">
                <use xlink:href="#a"/>
            </mask>
            <path fill="#38454E" d="M536.997 68.672v-54.35c0-1.157-.639-1.739-1.916-1.739h-26.848c-10.618 0-15.919 5.608-15.919 16.827v40.238c0 11.215 5.301 16.822 15.92 16.822h10.928c5.753 0 10.166-1.542 13.234-4.636 3.064-3.1 4.601-7.476 4.601-13.157v-.005zM516.67 98.848h-9.974c-8.826 0-15.758-2.513-20.809-7.544-5.052-5.031-7.576-12.056-7.576-21.079V28.829c0-9.024 2.524-16.059 7.581-21.085C490.938 2.713 497.875.2 506.696.2h41.62C550.1.2 551 1.104 551 2.905v93.233c0 1.812-.899 2.71-2.685 2.71h-8.634c-1.79 0-2.684-.898-2.684-2.71v-7.544h-.764c-3.198 6.838-9.719 10.254-19.563 10.254zm-177.509 0h-8.707c-1.807 0-2.71-.898-2.71-2.71V2.905c0-1.801.903-2.705 2.71-2.705h8.707c1.802 0 2.71.904 2.71 2.705v7.544h.773C346.254 3.616 353.091.2 363.154.2h7.158c11.35 0 19.216 4.382 23.604 13.151 2.066-4.257 5.321-7.507 9.771-9.766A30.657 30.657 0 0 1 417.721.2h6.775c8.77 0 15.603 2.513 20.51 7.544 4.9 5.026 7.35 12.061 7.35 21.079v67.315c0 1.812-.903 2.71-2.71 2.71h-8.707c-1.806 0-2.71-.898-2.71-2.71V29.405c0-11.214-5.415-16.822-16.25-16.822h-6.387c-5.805 0-10.285 1.641-13.448 4.932-3.16 3.282-4.74 7.767-4.74 13.437v65.186c0 1.812-.903 2.71-2.71 2.71h-8.707c-1.806 0-2.705-.898-2.705-2.71V29.405c0-11.214-5.42-16.822-16.25-16.822h-7.166c-5.805 0-10.254 1.542-13.348 4.636-3.094 3.1-4.642 7.482-4.642 13.157v65.762c0 1.812-.908 2.71-2.71 2.71h-.005zm-51.38-34.142V14.603c0-1.189-.638-1.776-1.916-1.776H259.21c-10.742 0-16.11 5.717-16.11 17.159v35.706c0 11.443 5.368 17.16 16.11 17.16h10.737c5.753 0 10.166-1.579 13.235-4.736 3.068-3.151 4.6-7.621 4.6-13.41zm-20.327 30.767h-10.742c-8.696 0-15.473-2.559-20.327-7.684-4.865-5.14-7.289-12.305-7.289-21.511V29.389c0-9.205 2.523-16.375 7.58-21.5C241.718 2.765 248.654.2 257.476.2h41.618c1.792 0 2.684.919 2.684 2.762v97.843c0 9.076-2.523 16.205-7.58 21.402-5.047 5.192-11.983 7.793-20.804 7.793h-35.29c-1.92 0-2.877-.919-2.877-2.762v-7.3c0-1.843.96-2.757 2.876-2.757h33.567c10.742 0 16.111-5.659 16.111-16.967V85.022h-.763c-3.324 6.973-9.85 10.457-19.564 10.457v-.006zm-69.51.68V3.471c0-1.791.924-2.69 2.772-2.69h9.813c1.993 0 2.99.899 2.99 2.69v92.688c0 1.801-.997 2.694-2.985 2.694h-9.605c-1.993 0-2.986-.893-2.986-2.694v-.006zm-87.33 2.695h-8.635c-1.79 0-2.683-.898-2.683-2.71V2.905c0-1.801.892-2.705 2.683-2.705h8.635c1.786 0 2.685.904 2.685 2.705v7.544h.762C117.261 3.616 123.781.2 133.625.2h10.742c8.692 0 15.467 2.513 20.327 7.544 4.86 5.026 7.29 12.061 7.29 21.079v67.315c0 1.812-.899 2.71-2.684 2.71h-8.635c-1.79 0-2.685-.898-2.685-2.71V29.405c0-11.214-5.368-16.822-16.105-16.822h-10.742c-5.753 0-10.166 1.542-13.235 4.636-3.063 3.1-4.599 7.482-4.599 13.157v65.762c0 1.812-.899 2.71-2.685 2.71zM16.38 46.046h41.428c1.277 0 1.92-.649 1.92-1.937V29.213c0-11.09-5.374-16.635-16.11-16.635H30.573c-10.742 0-16.11 5.545-16.11 16.635v14.896c0 1.288.638 1.931 1.921 1.931l-.006.006zM69.69 98.848H29.032c-8.82 0-15.758-2.513-20.809-7.544C3.171 86.278.647 79.248.647 70.225V28.829c0-9.024 2.524-16.059 7.58-21.085C13.27 2.713 20.207.2 29.027.2h16.111c8.826 0 15.732 2.513 20.715 7.544 4.985 5.026 7.477 12.061 7.477 21.079v24.569c0 1.937-.897 2.903-2.684 2.903H16.374c-1.277 0-1.92.581-1.92 1.739v11.801c0 11.215 5.373 16.827 16.115 16.827H69.69c1.792 0 2.685.904 2.685 2.711v6.957c0 1.682-.893 2.518-2.685 2.518z" mask="url(#b)"/>
        </g>
        <g transform="translate(230 210.8)">
            <mask id="d" fill="#fff">
                <use xlink:href="#c"/>
            </mask>
            <path fill="#F38082" d="M50.471 3.918H15.638V3.87C15.638 1.846 13.925.2 11.812.2h-7.98C1.712.2 0 1.846 0 3.87v7.654c0 2.025 1.713 3.67 3.831 3.67h7.981c2.113 0 3.826-1.64 3.826-3.67v-.046h34.84c2.17 0 3.94 1.697 3.94 3.784v37.372c0 2.088-1.766 3.785-3.947 3.785H31.282v-.046c0-2.025-1.713-3.671-3.832-3.671h-7.98c-2.113 0-3.832 1.64-3.832 3.67v7.654c0 2.024 1.714 3.67 3.832 3.67h7.98c2.12 0 3.832-1.645 3.832-3.67v-.047h19.184c6.526 0 11.833-5.088 11.833-11.345V15.262c0-6.256-5.307-11.344-11.833-11.344h.005z" mask="url(#d)"/>
        </g>
        <path fill="#F38082" d="M288.472 304.181h-7.979a3.86 3.86 0 0 0-3.828 3.883v.047h-34.838a3.976 3.976 0 0 1-3.94-3.997v-51.235c0-2.202 1.765-3.998 3.945-3.998h19.19v.052c0 2.139 1.714 3.878 3.832 3.878h7.98a3.857 3.857 0 0 0 3.831-3.883v-8.084a3.857 3.857 0 0 0-3.83-3.884h-7.98a3.858 3.858 0 0 0-3.833 3.884v.046h-19.185c-6.53 0-11.837 5.379-11.837 11.989v51.235c0 6.609 5.306 11.993 11.832 11.993h34.833v.041c0 2.145 1.714 3.884 3.828 3.884h7.98a3.857 3.857 0 0 0 3.831-3.883V308.064a3.857 3.857 0 0 0-3.832-3.883"/>
        <g transform="translate(328 210.8)">
            <mask id="f" fill="#fff">
                <use xlink:href="#e"/>
            </mask>
            <path fill="#38454E" d="M536.997 68.672v-54.35c0-1.157-.639-1.739-1.916-1.739h-26.848c-10.618 0-15.919 5.608-15.919 16.827v40.238c0 11.215 5.301 16.822 15.92 16.822h10.928c5.753 0 10.166-1.542 13.234-4.636 3.064-3.1 4.601-7.476 4.601-13.157v-.005zM516.67 98.848h-9.974c-8.826 0-15.758-2.513-20.809-7.544-5.052-5.031-7.576-12.056-7.576-21.079V28.829c0-9.024 2.524-16.059 7.581-21.085C490.938 2.713 497.875.2 506.696.2h41.62C550.1.2 551 1.104 551 2.905v93.233c0 1.812-.899 2.71-2.685 2.71h-8.634c-1.79 0-2.684-.898-2.684-2.71v-7.544h-.764c-3.198 6.838-9.719 10.254-19.563 10.254zm-177.509 0h-8.707c-1.807 0-2.71-.898-2.71-2.71V2.905c0-1.801.903-2.705 2.71-2.705h8.707c1.802 0 2.71.904 2.71 2.705v7.544h.773C346.254 3.616 353.091.2 363.154.2h7.158c11.35 0 19.216 4.382 23.604 13.151 2.066-4.257 5.321-7.507 9.771-9.766A30.657 30.657 0 0 1 417.721.2h6.775c8.77 0 15.603 2.513 20.51 7.544 4.9 5.026 7.35 12.061 7.35 21.079v67.315c0 1.812-.903 2.71-2.71 2.71h-8.707c-1.806 0-2.71-.898-2.71-2.71V29.405c0-11.214-5.415-16.822-16.25-16.822h-6.387c-5.805 0-10.285 1.641-13.448 4.932-3.16 3.282-4.74 7.767-4.74 13.437v65.186c0 1.812-.903 2.71-2.71 2.71h-8.707c-1.806 0-2.705-.898-2.705-2.71V29.405c0-11.214-5.42-16.822-16.25-16.822h-7.166c-5.805 0-10.254 1.542-13.348 4.636-3.094 3.1-4.642 7.482-4.642 13.157v65.762c0 1.812-.908 2.71-2.71 2.71h-.005zm-51.38-34.142V14.603c0-1.189-.638-1.776-1.916-1.776H259.21c-10.742 0-16.11 5.717-16.11 17.159v35.706c0 11.443 5.368 17.16 16.11 17.16h10.737c5.753 0 10.166-1.579 13.235-4.736 3.068-3.151 4.6-7.621 4.6-13.41zm-20.327 30.767h-10.742c-8.696 0-15.473-2.559-20.327-7.684-4.865-5.14-7.289-12.305-7.289-21.511V29.389c0-9.205 2.523-16.375 7.58-21.5C241.718 2.765 248.654.2 257.476.2h41.618c1.792 0 2.684.919 2.684 2.762v97.843c0 9.076-2.523 16.205-7.58 21.402-5.047 5.192-11.983 7.793-20.804 7.793h-35.29c-1.92 0-2.877-.919-2.877-2.762v-7.3c0-1.843.96-2.757 2.876-2.757h33.567c10.742 0 16.111-5.659 16.111-16.967V85.022h-.763c-3.324 6.973-9.85 10.457-19.564 10.457v-.006zm-69.51.68V3.471c0-1.791.924-2.69 2.772-2.69h9.813c1.993 0 2.99.899 2.99 2.69v92.688c0 1.801-.997 2.694-2.985 2.694h-9.605c-1.993 0-2.986-.893-2.986-2.694v-.006zm-87.33 2.695h-8.635c-1.79 0-2.683-.898-2.683-2.71V2.905c0-1.801.892-2.705 2.683-2.705h8.635c1.786 0 2.685.904 2.685 2.705v7.544h.762C117.261 3.616 123.781.2 133.625.2h10.742c8.692 0 15.467 2.513 20.327 7.544 4.86 5.026 7.29 12.061 7.29 21.079v67.315c0 1.812-.899 2.71-2.684 2.71h-8.635c-1.79 0-2.685-.898-2.685-2.71V29.405c0-11.214-5.368-16.822-16.105-16.822h-10.742c-5.753 0-10.166 1.542-13.235 4.636-3.063 3.1-4.599 7.482-4.599 13.157v65.762c0 1.812-.899 2.71-2.685 2.71zM16.38 46.046h41.428c1.277 0 1.92-.649 1.92-1.937V29.213c0-11.09-5.374-16.635-16.11-16.635H30.573c-10.742 0-16.11 5.545-16.11 16.635v14.896c0 1.288.638 1.931 1.921 1.931l-.006.006zM69.69 98.848H29.032c-8.82 0-15.758-2.513-20.809-7.544C3.171 86.278.647 79.248.647 70.225V28.829c0-9.024 2.524-16.059 7.58-21.085C13.27 2.713 20.207.2 29.027.2h16.111c8.826 0 15.732 2.513 20.715 7.544 4.985 5.026 7.477 12.061 7.477 21.079v24.569c0 1.937-.897 2.903-2.684 2.903H16.374c-1.277 0-1.92.581-1.92 1.739v11.801c0 11.215 5.373 16.827 16.115 16.827H69.69c1.792 0 2.685.904 2.685 2.711v6.957c0 1.682-.893 2.518-2.685 2.518z" mask="url(#f)"/>
        </g>
        <g>
            <g transform="translate(328 210.8)">
                <mask id="h" fill="#fff">
                    <use xlink:href="#g"/>
                </mask>
                <path fill="#38454E" d="M536.997 68.672v-54.35c0-1.157-.639-1.739-1.916-1.739h-26.848c-10.618 0-15.919 5.608-15.919 16.827v40.238c0 11.215 5.301 16.822 15.92 16.822h10.928c5.753 0 10.166-1.542 13.234-4.636 3.064-3.1 4.601-7.476 4.601-13.157v-.005zM516.67 98.848h-9.974c-8.826 0-15.758-2.513-20.809-7.544-5.052-5.031-7.576-12.056-7.576-21.079V28.829c0-9.024 2.524-16.059 7.581-21.085C490.938 2.713 497.875.2 506.696.2h41.62C550.1.2 551 1.104 551 2.905v93.233c0 1.812-.899 2.71-2.685 2.71h-8.634c-1.79 0-2.684-.898-2.684-2.71v-7.544h-.764c-3.198 6.838-9.719 10.254-19.563 10.254zm-177.509 0h-8.707c-1.807 0-2.71-.898-2.71-2.71V2.905c0-1.801.903-2.705 2.71-2.705h8.707c1.802 0 2.71.904 2.71 2.705v7.544h.773C346.254 3.616 353.091.2 363.154.2h7.158c11.35 0 19.216 4.382 23.604 13.151 2.066-4.257 5.321-7.507 9.771-9.766A30.657 30.657 0 0 1 417.721.2h6.775c8.77 0 15.603 2.513 20.51 7.544 4.9 5.026 7.35 12.061 7.35 21.079v67.315c0 1.812-.903 2.71-2.71 2.71h-8.707c-1.806 0-2.71-.898-2.71-2.71V29.405c0-11.214-5.415-16.822-16.25-16.822h-6.387c-5.805 0-10.285 1.641-13.448 4.932-3.16 3.282-4.74 7.767-4.74 13.437v65.186c0 1.812-.903 2.71-2.71 2.71h-8.707c-1.806 0-2.705-.898-2.705-2.71V29.405c0-11.214-5.42-16.822-16.25-16.822h-7.166c-5.805 0-10.254 1.542-13.348 4.636-3.094 3.1-4.642 7.482-4.642 13.157v65.762c0 1.812-.908 2.71-2.71 2.71h-.005zm-51.38-34.142V14.603c0-1.189-.638-1.776-1.916-1.776H259.21c-10.742 0-16.11 5.717-16.11 17.159v35.706c0 11.443 5.368 17.16 16.11 17.16h10.737c5.753 0 10.166-1.579 13.235-4.736 3.068-3.151 4.6-7.621 4.6-13.41zm-20.327 30.767h-10.742c-8.696 0-15.473-2.559-20.327-7.684-4.865-5.14-7.289-12.305-7.289-21.511V29.389c0-9.205 2.523-16.375 7.58-21.5C241.718 2.765 248.654.2 257.476.2h41.618c1.792 0 2.684.919 2.684 2.762v97.843c0 9.076-2.523 16.205-7.58 21.402-5.047 5.192-11.983 7.793-20.804 7.793h-35.29c-1.92 0-2.877-.919-2.877-2.762v-7.3c0-1.843.96-2.757 2.876-2.757h33.567c10.742 0 16.111-5.659 16.111-16.967V85.022h-.763c-3.324 6.973-9.85 10.457-19.564 10.457v-.006zm-69.51.68V3.471c0-1.791.924-2.69 2.772-2.69h9.813c1.993 0 2.99.899 2.99 2.69v92.688c0 1.801-.997 2.694-2.985 2.694h-9.605c-1.993 0-2.986-.893-2.986-2.694v-.006zm-87.33 2.695h-8.635c-1.79 0-2.683-.898-2.683-2.71V2.905c0-1.801.892-2.705 2.683-2.705h8.635c1.786 0 2.685.904 2.685 2.705v7.544h.762C117.261 3.616 123.781.2 133.625.2h10.742c8.692 0 15.467 2.513 20.327 7.544 4.86 5.026 7.29 12.061 7.29 21.079v67.315c0 1.812-.899 2.71-2.684 2.71h-8.635c-1.79 0-2.685-.898-2.685-2.71V29.405c0-11.214-5.368-16.822-16.105-16.822h-10.742c-5.753 0-10.166 1.542-13.235 4.636-3.063 3.1-4.599 7.482-4.599 13.157v65.762c0 1.812-.899 2.71-2.685 2.71zM16.38 46.046h41.428c1.277 0 1.92-.649 1.92-1.937V29.213c0-11.09-5.374-16.635-16.11-16.635H30.573c-10.742 0-16.11 5.545-16.11 16.635v14.896c0 1.288.638 1.931 1.921 1.931l-.006.006zM69.69 98.848H29.032c-8.82 0-15.758-2.513-20.809-7.544C3.171 86.278.647 79.248.647 70.225V28.829c0-9.024 2.524-16.059 7.58-21.085C13.27 2.713 20.207.2 29.027.2h16.111c8.826 0 15.732 2.513 20.715 7.544 4.985 5.026 7.477 12.061 7.477 21.079v24.569c0 1.937-.897 2.903-2.684 2.903H16.374c-1.277 0-1.92.581-1.92 1.739v11.801c0 11.215 5.373 16.827 16.115 16.827H69.69c1.792 0 2.685.904 2.685 2.711v6.957c0 1.682-.893 2.518-2.685 2.518z" mask="url(#h)"/>
            </g>
            <g transform="translate(230 210.8)">
                <mask id="j" fill="#fff">
                    <use xlink:href="#i"/>
                </mask>
                <path fill="#F38082" d="M50.471 3.918H15.638V3.87C15.638 1.846 13.925.2 11.812.2h-7.98C1.712.2 0 1.846 0 3.87v7.654c0 2.025 1.713 3.67 3.831 3.67h7.981c2.113 0 3.826-1.64 3.826-3.67v-.046h34.84c2.17 0 3.94 1.697 3.94 3.784v37.372c0 2.088-1.766 3.785-3.947 3.785H31.282v-.046c0-2.025-1.713-3.671-3.832-3.671h-7.98c-2.113 0-3.832 1.64-3.832 3.67v7.654c0 2.024 1.714 3.67 3.832 3.67h7.98c2.12 0 3.832-1.645 3.832-3.67v-.047h19.184c6.526 0 11.833-5.088 11.833-11.345V15.262c0-6.256-5.307-11.344-11.833-11.344h.005z" mask="url(#j)"/>
            </g>
            <path fill="#F38082" d="M288.472 304.181h-7.979a3.86 3.86 0 0 0-3.828 3.883v.047h-34.838a3.976 3.976 0 0 1-3.94-3.997v-51.235c0-2.202 1.765-3.998 3.945-3.998h19.19v.052c0 2.139 1.714 3.878 3.832 3.878h7.98a3.857 3.857 0 0 0 3.831-3.883v-8.084a3.857 3.857 0 0 0-3.83-3.884h-7.98a3.858 3.858 0 0 0-3.833 3.884v.046h-19.185c-6.53 0-11.837 5.379-11.837 11.989v51.235c0 6.609 5.306 11.993 11.832 11.993h34.833v.041c0 2.145 1.714 3.884 3.828 3.884h7.98a3.857 3.857 0 0 0 3.831-3.883V308.064a3.857 3.857 0 0 0-3.832-3.883"/>
            <g transform="translate(328 210.8)">
                <mask id="l" fill="#fff">
                    <use xlink:href="#k"/>
                </mask>
                <path fill="#38454E" d="M536.997 68.672v-54.35c0-1.157-.639-1.739-1.916-1.739h-26.848c-10.618 0-15.919 5.608-15.919 16.827v40.238c0 11.215 5.301 16.822 15.92 16.822h10.928c5.753 0 10.166-1.542 13.234-4.636 3.064-3.1 4.601-7.476 4.601-13.157v-.005zM516.67 98.848h-9.974c-8.826 0-15.758-2.513-20.809-7.544-5.052-5.031-7.576-12.056-7.576-21.079V28.829c0-9.024 2.524-16.059 7.581-21.085C490.938 2.713 497.875.2 506.696.2h41.62C550.1.2 551 1.104 551 2.905v93.233c0 1.812-.899 2.71-2.685 2.71h-8.634c-1.79 0-2.684-.898-2.684-2.71v-7.544h-.764c-3.198 6.838-9.719 10.254-19.563 10.254zm-177.509 0h-8.707c-1.807 0-2.71-.898-2.71-2.71V2.905c0-1.801.903-2.705 2.71-2.705h8.707c1.802 0 2.71.904 2.71 2.705v7.544h.773C346.254 3.616 353.091.2 363.154.2h7.158c11.35 0 19.216 4.382 23.604 13.151 2.066-4.257 5.321-7.507 9.771-9.766A30.657 30.657 0 0 1 417.721.2h6.775c8.77 0 15.603 2.513 20.51 7.544 4.9 5.026 7.35 12.061 7.35 21.079v67.315c0 1.812-.903 2.71-2.71 2.71h-8.707c-1.806 0-2.71-.898-2.71-2.71V29.405c0-11.214-5.415-16.822-16.25-16.822h-6.387c-5.805 0-10.285 1.641-13.448 4.932-3.16 3.282-4.74 7.767-4.74 13.437v65.186c0 1.812-.903 2.71-2.71 2.71h-8.707c-1.806 0-2.705-.898-2.705-2.71V29.405c0-11.214-5.42-16.822-16.25-16.822h-7.166c-5.805 0-10.254 1.542-13.348 4.636-3.094 3.1-4.642 7.482-4.642 13.157v65.762c0 1.812-.908 2.71-2.71 2.71h-.005zm-51.38-34.142V14.603c0-1.189-.638-1.776-1.916-1.776H259.21c-10.742 0-16.11 5.717-16.11 17.159v35.706c0 11.443 5.368 17.16 16.11 17.16h10.737c5.753 0 10.166-1.579 13.235-4.736 3.068-3.151 4.6-7.621 4.6-13.41zm-20.327 30.767h-10.742c-8.696 0-15.473-2.559-20.327-7.684-4.865-5.14-7.289-12.305-7.289-21.511V29.389c0-9.205 2.523-16.375 7.58-21.5C241.718 2.765 248.654.2 257.476.2h41.618c1.792 0 2.684.919 2.684 2.762v97.843c0 9.076-2.523 16.205-7.58 21.402-5.047 5.192-11.983 7.793-20.804 7.793h-35.29c-1.92 0-2.877-.919-2.877-2.762v-7.3c0-1.843.96-2.757 2.876-2.757h33.567c10.742 0 16.111-5.659 16.111-16.967V85.022h-.763c-3.324 6.973-9.85 10.457-19.564 10.457v-.006zm-69.51.68V3.471c0-1.791.924-2.69 2.772-2.69h9.813c1.993 0 2.99.899 2.99 2.69v92.688c0 1.801-.997 2.694-2.985 2.694h-9.605c-1.993 0-2.986-.893-2.986-2.694v-.006zm-87.33 2.695h-8.635c-1.79 0-2.683-.898-2.683-2.71V2.905c0-1.801.892-2.705 2.683-2.705h8.635c1.786 0 2.685.904 2.685 2.705v7.544h.762C117.261 3.616 123.781.2 133.625.2h10.742c8.692 0 15.467 2.513 20.327 7.544 4.86 5.026 7.29 12.061 7.29 21.079v67.315c0 1.812-.899 2.71-2.684 2.71h-8.635c-1.79 0-2.685-.898-2.685-2.71V29.405c0-11.214-5.368-16.822-16.105-16.822h-10.742c-5.753 0-10.166 1.542-13.235 4.636-3.063 3.1-4.599 7.482-4.599 13.157v65.762c0 1.812-.899 2.71-2.685 2.71zM16.38 46.046h41.428c1.277 0 1.92-.649 1.92-1.937V29.213c0-11.09-5.374-16.635-16.11-16.635H30.573c-10.742 0-16.11 5.545-16.11 16.635v14.896c0 1.288.638 1.931 1.921 1.931l-.006.006zM69.69 98.848H29.032c-8.82 0-15.758-2.513-20.809-7.544C3.171 86.278.647 79.248.647 70.225V28.829c0-9.024 2.524-16.059 7.58-21.085C13.27 2.713 20.207.2 29.027.2h16.111c8.826 0 15.732 2.513 20.715 7.544 4.985 5.026 7.477 12.061 7.477 21.079v24.569c0 1.937-.897 2.903-2.684 2.903H16.374c-1.277 0-1.92.581-1.92 1.739v11.801c0 11.215 5.373 16.827 16.115 16.827H69.69c1.792 0 2.685.904 2.685 2.711v6.957c0 1.682-.893 2.518-2.685 2.518z" mask="url(#l)"/>
            </g>
        </g>
    </g>
</svg>
