<svg xmlns="http://www.w3.org/2000/svg" xmlns:xlink="http://www.w3.org/1999/xlink" width="110" height="120" viewBox="0 0 110 120">
    <defs>
        <path id="a" d="M.244.088h108.63v119.877H.243z"/>
    </defs>
    <g fill="none" fill-rule="evenodd" transform="translate(.387)">
        <mask id="b" fill="#fff">
            <use xlink:href="#a"/>
        </mask>
        <path fill="#523D93" d="M77.655 30.873l31.218 10.96-10.92-31.26L67.103.088l10.552 30.785zm-28.432 24.6L71.855 32.44 61.158 1.227 32.672 29.689a2.993 2.993 0 0 0 0 4.235 3 3 0 0 0 4.239 0l4.709-4.706a2.998 2.998 0 0 1 4.238 0 2.991 2.991 0 0 1 0 4.234L22.313 56.978a2.994 2.994 0 0 0 0 4.236 2.998 2.998 0 0 0 4.238 0l18.836-18.821a2.998 2.998 0 0 1 4.238 0 2.993 2.993 0 0 1 0 4.235l-10.36 10.35a2.994 2.994 0 0 0 0 4.236 2.999 2.999 0 0 0 4.239 0l5.732-5.728-.013-.012zm26.87-18.8L53.5 59.67l-.023-.022c-.1.133-.198.27-.32.39L40.678 72.506a2.994 2.994 0 0 0 0 4.235 3 3 0 0 0 4.238 0L67.05 54.626a2.998 2.998 0 0 1 4.238 0 2.994 2.994 0 0 1 0 4.236L57.631 72.506a2.993 2.993 0 0 0 0 4.235 3 3 0 0 0 4.238 0l8.947-8.94a3 3 0 0 1 4.239 0 2.993 2.993 0 0 1 0 4.235L62.81 84.269a2.993 2.993 0 0 0 0 4.235 3 3 0 0 0 4.238 0L107.787 47.8 76.094 36.674zM32.203 102.15a2.99 2.99 0 0 0-3.98-.211l-.023-.024-4.709 4.705.023.024a2.983 2.983 0 0 0 .212 3.976 2.989 2.989 0 0 0 3.98.211l.023.023 4.71-4.705-.025-.023a2.983 2.983 0 0 0-.211-3.976zm12.714-12.704a2.99 2.99 0 0 0-3.979-.212l-.023-.023-4.71 4.705.024.023a2.983 2.983 0 0 0 .212 3.976 2.988 2.988 0 0 0 3.979.212l.024.024 4.708-4.706-.023-.023a2.983 2.983 0 0 0-.212-3.976zM11.01 106.384a2.988 2.988 0 0 0-3.978-.212l-.024-.024-4.71 4.705.024.024a2.983 2.983 0 0 0 .212 3.976 2.988 2.988 0 0 0 3.98.211l.023.025 4.71-4.706-.025-.023a2.983 2.983 0 0 0-.212-3.976zM23.725 93.68a2.989 2.989 0 0 0-3.98-.212l-.022-.024-4.71 4.706.024.024a2.982 2.982 0 0 0 .212 3.975 2.989 2.989 0 0 0 3.979.212l.024.024 4.709-4.706-.024-.023a2.983 2.983 0 0 0-.212-3.976zM36.44 80.975a2.988 2.988 0 0 0-3.98-.21l-.023-.025-4.709 4.706.024.024a2.982 2.982 0 0 0 .211 3.975 2.989 2.989 0 0 0 3.98.212l.023.023 4.71-4.705-.024-.024a2.982 2.982 0 0 0-.212-3.976zM35.027 65.45a2.988 2.988 0 0 0-3.979-.212l-.024-.024-4.709 4.705.024.024a2.982 2.982 0 0 0 .212 3.976 2.99 2.99 0 0 0 3.979.212l.023.023 4.71-4.705-.024-.024a2.983 2.983 0 0 0-.212-3.975zM11.481 55.097a2.989 2.989 0 0 0-3.978-.211l-.024-.024-4.71 4.705.024.023a2.983 2.983 0 0 0 .212 3.976 2.988 2.988 0 0 0 3.979.212l.024.023 4.709-4.705-.024-.024a2.983 2.983 0 0 0-.212-3.975zm3.768 59.756a2.993 2.993 0 0 0 0 4.235 3 3 0 0 0 4.238 0 2.992 2.992 0 0 0 0-4.235 2.998 2.998 0 0 0-4.238 0zm33.905-33.878a2.993 2.993 0 0 0 0 4.235 2.998 2.998 0 0 0 4.239 0 2.993 2.993 0 0 0 0-4.235 3 3 0 0 0-4.239 0zm-11.773 28.703a2.993 2.993 0 0 0 0 4.234 3 3 0 0 0 4.239 0 2.993 2.993 0 0 0 0-4.234 2.998 2.998 0 0 0-4.239 0zm8.477-8.47a2.992 2.992 0 0 0 0 4.234 2.998 2.998 0 0 0 4.238 0 2.992 2.992 0 0 0 0-4.234 2.998 2.998 0 0 0-4.238 0zm8.476-8.47a2.993 2.993 0 0 0 0 4.235 3 3 0 0 0 4.239 0 2.992 2.992 0 0 0 0-4.234 3 3 0 0 0-4.239 0zM1.121 95.093a2.992 2.992 0 0 0 0 4.234 2.998 2.998 0 0 0 4.239 0 2.992 2.992 0 0 0 0-4.234 2.998 2.998 0 0 0-4.239 0zm8.477-8.47a2.994 2.994 0 0 0 0 4.235 3 3 0 0 0 4.238 0 2.994 2.994 0 0 0 0-4.235 3 3 0 0 0-4.238 0zm8.476-8.47a2.992 2.992 0 0 0 0 4.235 3 3 0 0 0 4.239 0 2.993 2.993 0 0 0 0-4.234 2.998 2.998 0 0 0-4.239 0zM15.72 46.629a2.991 2.991 0 0 0 0 4.234 2.997 2.997 0 0 0 4.238 0 2.991 2.991 0 0 0 0-4.234 2.997 2.997 0 0 0-4.238 0zm8.476-8.47a2.994 2.994 0 0 0 0 4.235 3 3 0 0 0 4.238 0 2.993 2.993 0 0 0 0-4.235 3 3 0 0 0-4.238 0zm-6.122 27.29a2.992 2.992 0 0 1 0 4.235 2.998 2.998 0 0 1-4.238 0 2.992 2.992 0 0 1 0-4.234 2.998 2.998 0 0 1 4.238 0z" mask="url(#b)"/>
    </g>
</svg>
