<svg xmlns="http://www.w3.org/2000/svg" width="345" height="198" viewBox="0 0 345 198">
    <g fill="none" fill-rule="evenodd">
        <g fill="#C6C6C6">
            <path d="M18.79 174.752c5.074 0 8.039-3.167 8.039-7.298v-.138c0-4.751-3.163-7.299-8.238-7.299H10.75v14.735h8.04zM.262 155.986c0-2.811 2.27-5.09 5.072-5.09h14.392c10.96 0 17.588 6.521 17.588 15.94v.133c0 10.67-8.269 16.203-18.573 16.203H10.75v8.961c0 2.473-1.695 4.69-4.115 5.157-3.439.662-6.372-1.775-6.372-4.963v-36.341zM85.597 178.362l-6.388-15.269-6.389 15.27h12.777zm-28.568 12.38l16.107-36.506c1.122-2.518 3.168-4.041 5.941-4.041h.594c2.773 0 4.753 1.523 5.875 4.041l16.107 36.505c.879 1.938.815 3.41-1.398 5.657-.774.785-1.816 1.304-2.917 1.3-2.363-.01-3.94-1.399-4.86-3.512l-3.103-7.288H69.043l-3.234 7.62c-.859 1.986-2.575 3.18-4.687 3.18-2.64 0-4.687-2.12-4.687-4.771 0-.729.264-1.457.594-2.186zM121.904 155.555c0-3.387 3.231-5.938 6.887-4.9 2.16.612 3.599 2.616 3.599 4.818v15.756l19.338-18.808c1.294-1.267 2.587-2 4.425-2 2.928 0 4.835 2.2 4.835 4.734 0 1.602-.749 2.802-1.907 3.87l-13.413 12.27 14.639 18.007c.817 1 1.43 2.068 1.43 3.602 0 2.867-2.247 5.002-5.311 5.002-2.042 0-3.268-1.001-4.426-2.467l-13.618-17.475-5.992 5.47v9.419c0 2.202-1.44 4.207-3.6 4.82-3.655 1.036-6.886-1.515-6.886-4.902v-37.216zM181.326 192.816v-37.07c0-2.68 2.163-4.85 4.831-4.85h27.228c1.803 0 3.48 1.053 4.162 2.728 1.358 3.338-1.13 6.394-4.35 6.394h-21.385v9.822h17.566c2.19 0 4.188 1.476 4.624 3.629.603 2.968-1.645 5.493-4.477 5.493h-17.713v9.823h21.73c2.175 0 4.153 1.459 4.618 3.59.65 2.985-1.679 5.53-4.62 5.53h-27.143c-2.8 0-5.071-2.278-5.071-5.089M251.934 160.017h-10.137c-2.15 0-4.132-1.402-4.645-3.498-.725-2.958 1.681-5.623 4.704-5.623h30.702c2.15 0 4.132 1.403 4.644 3.5.723 2.959-1.683 5.621-4.705 5.621H262.42v32.37c0 2.483-1.708 4.715-4.142 5.162-3.427.628-6.344-1.744-6.344-4.845v-32.687zM333.726 174.16v-.13c0-7.781-5.685-14.265-13.697-14.265-8.01 0-13.567 6.354-13.567 14.135v.13c0 7.781 5.685 14.265 13.696 14.265 8.012 0 13.568-6.354 13.568-14.135m-37.051 0v-.13c0-12.95 10.178-23.556 24.182-23.556 14.006 0 24.055 10.476 24.055 23.426v.13c0 12.95-10.18 23.557-24.185 23.557-14.004 0-24.052-10.477-24.052-23.426"/>
        </g>
        <g fill="#000">
            <path d="M18.79 24.752c5.074 0 8.039-3.167 8.039-7.298v-.138c0-4.751-3.163-7.299-8.238-7.299H10.75v14.735h8.04zM.262 5.986c0-2.811 2.27-5.09 5.072-5.09h14.392c10.96 0 17.588 6.521 17.588 15.94v.133c0 10.67-8.269 16.203-18.573 16.203H10.75v8.961c0 2.473-1.695 4.69-4.115 5.157-3.439.662-6.372-1.775-6.372-4.963V5.986zM85.597 28.362L79.21 13.093l-6.389 15.27h12.777zM57.03 40.742L73.136 4.235C74.258 1.718 76.304.195 79.077.195h.594c2.773 0 4.753 1.523 5.875 4.041l16.107 36.505c.879 1.938.815 3.41-1.398 5.657-.774.785-1.816 1.304-2.917 1.3-2.363-.01-3.94-1.399-4.86-3.512l-3.103-7.288H69.043l-3.234 7.62c-.859 1.986-2.575 3.18-4.687 3.18-2.64 0-4.687-2.12-4.687-4.771 0-.729.264-1.457.594-2.186zM121.904 5.555c0-3.387 3.231-5.938 6.887-4.9 2.16.612 3.599 2.616 3.599 4.818V21.23L151.728 2.42c1.294-1.267 2.587-2 4.425-2 2.928 0 4.835 2.2 4.835 4.734 0 1.602-.749 2.802-1.907 3.87l-13.413 12.27 14.639 18.007c.817 1 1.43 2.068 1.43 3.602 0 2.867-2.247 5.002-5.311 5.002-2.042 0-3.268-1.001-4.426-2.467l-13.618-17.475-5.992 5.47v9.419c0 2.202-1.44 4.207-3.6 4.82-3.655 1.036-6.886-1.515-6.886-4.902V5.555zM181.326 42.816V5.746c0-2.68 2.163-4.85 4.831-4.85h27.228c1.803 0 3.48 1.053 4.162 2.728 1.358 3.338-1.13 6.394-4.35 6.394h-21.385v9.822h17.566c2.19 0 4.188 1.476 4.624 3.629.603 2.968-1.645 5.493-4.477 5.493h-17.713v9.823h21.73c2.175 0 4.153 1.459 4.618 3.59.65 2.985-1.679 5.53-4.62 5.53h-27.143c-2.8 0-5.071-2.278-5.071-5.089M251.934 10.017h-10.137c-2.15 0-4.132-1.402-4.645-3.498-.725-2.958 1.681-5.623 4.704-5.623h30.702c2.15 0 4.132 1.403 4.644 3.5.723 2.959-1.683 5.621-4.705 5.621H262.42v32.37c0 2.483-1.708 4.715-4.142 5.162-3.427.628-6.344-1.744-6.344-4.845V10.017zM333.726 24.16v-.13c0-7.781-5.685-14.265-13.697-14.265-8.01 0-13.567 6.354-13.567 14.135v.13c0 7.781 5.685 14.265 13.696 14.265 8.012 0 13.568-6.354 13.568-14.135m-37.051 0v-.13c0-12.95 10.178-23.556 24.182-23.556 14.006 0 24.055 10.476 24.055 23.426v.13c0 12.95-10.18 23.557-24.185 23.557-14.004 0-24.052-10.477-24.052-23.426"/>
        </g>
    </g>
</svg>
