<svg xmlns="http://www.w3.org/2000/svg" width="109" height="119" viewBox="0 0 109 119">
    <path fill="#000" fill-rule="evenodd" d="M77.397 30.653l30.96 10.87-10.83-31.002L66.932.12l10.465 30.532zM49.2 55.05l22.446-22.844L61.036 1.25l-28.25 28.227a2.968 2.968 0 0 0 0 4.2 2.973 2.973 0 0 0 4.204 0l4.67-4.667a2.974 2.974 0 0 1 4.203 0 2.967 2.967 0 0 1 0 4.2l-23.35 23.331a2.97 2.97 0 0 0 0 4.2 2.974 2.974 0 0 0 4.203 0l18.68-18.664a2.973 2.973 0 0 1 4.203 0 2.968 2.968 0 0 1 0 4.199L39.325 56.542a2.97 2.97 0 0 0 0 4.2 2.975 2.975 0 0 0 4.203 0l5.685-5.68-.013-.012zM75.85 36.406L53.442 59.21l-.023-.022c-.099.133-.196.267-.317.388L40.726 71.942a2.968 2.968 0 0 0 0 4.2 2.974 2.974 0 0 0 4.203 0L66.88 54.21a2.973 2.973 0 0 1 4.203 0 2.968 2.968 0 0 1 0 4.2L57.54 71.941a2.967 2.967 0 0 0 0 4.2 2.974 2.974 0 0 0 4.203 0l8.873-8.867a2.973 2.973 0 0 1 4.204 0 2.968 2.968 0 0 1 0 4.2L62.676 83.608a2.968 2.968 0 0 0 0 4.199 2.973 2.973 0 0 0 4.203 0l40.401-40.368L75.85 36.406zm-43.53 64.933a2.965 2.965 0 0 0-3.946-.21l-.023-.023-4.67 4.666.023.024a2.959 2.959 0 0 0 .21 3.943 2.964 2.964 0 0 0 3.946.21l.024.023 4.67-4.666-.023-.023a2.959 2.959 0 0 0-.21-3.944zm12.61-12.6a2.965 2.965 0 0 0-3.946-.208l-.023-.024-4.671 4.666.024.024a2.958 2.958 0 0 0 .21 3.943 2.963 2.963 0 0 0 3.946.21l.024.024 4.67-4.667-.024-.023a2.959 2.959 0 0 0-.21-3.944zm-33.625 16.8a2.963 2.963 0 0 0-3.946-.21l-.024-.023-4.67 4.666.023.023a2.96 2.96 0 0 0 .21 3.944 2.963 2.963 0 0 0 3.947.21l.023.024 4.67-4.667-.023-.024a2.957 2.957 0 0 0-.21-3.942zm12.61-12.599a2.964 2.964 0 0 0-3.947-.21l-.023-.023-4.671 4.667.024.023a2.957 2.957 0 0 0 .21 3.942 2.963 2.963 0 0 0 3.946.21l.024.024 4.67-4.667-.024-.023a2.957 2.957 0 0 0-.21-3.943zm12.609-12.599a2.963 2.963 0 0 0-3.946-.21l-.024-.024-4.67 4.667.023.024a2.957 2.957 0 0 0 .21 3.942 2.963 2.963 0 0 0 3.947.21l.023.024 4.67-4.666-.023-.024a2.957 2.957 0 0 0-.21-3.943zm-1.401-15.4a2.963 2.963 0 0 0-3.946-.208l-.024-.025-4.67 4.667.024.024a2.956 2.956 0 0 0 .21 3.942 2.964 2.964 0 0 0 3.946.21l.023.024 4.67-4.666-.023-.023a2.96 2.96 0 0 0-.21-3.944zM11.771 54.677a2.964 2.964 0 0 0-3.946-.21l-.024-.023-4.67 4.666.023.024a2.959 2.959 0 0 0 .21 3.943 2.964 2.964 0 0 0 3.946.21l.024.023 4.67-4.667-.023-.023a2.958 2.958 0 0 0-.21-3.943zm3.736 59.263a2.968 2.968 0 0 0 0 4.2 2.973 2.973 0 0 0 4.203 0 2.966 2.966 0 0 0 0-4.2 2.973 2.973 0 0 0-4.203 0zm33.625-33.598a2.968 2.968 0 0 0 0 4.2 2.974 2.974 0 0 0 4.204 0 2.968 2.968 0 0 0 0-4.2 2.973 2.973 0 0 0-4.204 0zm-11.675 28.465a2.968 2.968 0 0 0 0 4.2 2.973 2.973 0 0 0 4.203 0 2.968 2.968 0 0 0 0-4.2 2.973 2.973 0 0 0-4.203 0zm8.406-8.4a2.968 2.968 0 0 0 0 4.2 2.973 2.973 0 0 0 4.203 0 2.968 2.968 0 0 0 0-4.2 2.974 2.974 0 0 0-4.203 0zm8.407-8.399a2.968 2.968 0 0 0 0 4.2 2.974 2.974 0 0 0 4.203 0 2.967 2.967 0 0 0 0-4.2 2.973 2.973 0 0 0-4.203 0zM1.496 94.34a2.968 2.968 0 0 0 0 4.2 2.973 2.973 0 0 0 4.204 0 2.968 2.968 0 0 0 0-4.2 2.974 2.974 0 0 0-4.204 0zm8.407-8.4a2.97 2.97 0 0 0 0 4.2 2.975 2.975 0 0 0 4.203 0 2.97 2.97 0 0 0 0-4.2 2.973 2.973 0 0 0-4.203 0zm8.406-8.398a2.966 2.966 0 0 0 0 4.199 2.973 2.973 0 0 0 4.203 0 2.968 2.968 0 0 0 0-4.2 2.973 2.973 0 0 0-4.203 0zm-2.335-31.265a2.967 2.967 0 0 0 0 4.2 2.972 2.972 0 0 0 4.203 0 2.967 2.967 0 0 0 0-4.2 2.973 2.973 0 0 0-4.203 0zm8.406-8.4a2.97 2.97 0 0 0 0 4.2 2.975 2.975 0 0 0 4.203 0 2.968 2.968 0 0 0 0-4.2 2.973 2.973 0 0 0-4.203 0zm-6.07 27.065a2.968 2.968 0 0 1 0 4.2 2.973 2.973 0 0 1-4.204 0 2.968 2.968 0 0 1 0-4.2 2.974 2.974 0 0 1 4.203 0z"/>
</svg>
