<svg xmlns="http://www.w3.org/2000/svg" width="349" height="356" viewBox="0 0 349 356">
    <g fill="none" fill-rule="evenodd">
        <path fill="#FFF" d="M0 0h348.876v356H0z"/>
        <g fill="#C6C6C6">
            <path d="M40.338 335.523c4.413 0 6.991-2.754 6.991-6.345v-.12c0-4.132-2.75-6.347-7.163-6.347h-6.819v12.812h6.991zM24.23 319.205a4.418 4.418 0 0 1 4.41-4.426h12.515c9.53 0 15.294 5.67 15.294 13.861v.115c0 9.279-7.19 14.09-16.15 14.09h-6.95v7.793c0 2.15-1.474 4.078-3.578 4.484-2.99.575-5.541-1.544-5.541-4.316v-31.6zM98.433 338.663l-5.555-13.278-5.556 13.278h11.11zM73.59 349.427l14.007-31.744c.975-2.189 2.755-3.514 5.166-3.514h.516c2.411 0 4.133 1.325 5.109 3.514l14.006 31.744c.764 1.686.709 2.965-1.216 4.919-.672.683-1.58 1.134-2.536 1.13-2.055-.008-3.426-1.216-4.227-3.054l-2.698-6.337h-17.68l-2.812 6.626c-.746 1.728-2.24 2.765-4.075 2.765-2.296 0-4.076-1.844-4.076-4.148 0-.634.23-1.267.516-1.9zM130.003 318.83c0-2.945 2.81-5.163 5.99-4.261 1.877.533 3.129 2.275 3.129 4.19v13.7l16.815-16.354c1.125-1.101 2.25-1.74 3.848-1.74 2.547 0 4.204 1.914 4.204 4.118 0 1.392-.65 2.436-1.657 3.364l-11.664 10.67 12.73 15.659c.71.87 1.243 1.798 1.243 3.132 0 2.493-1.954 4.35-4.619 4.35-1.775 0-2.842-.871-3.848-2.146l-11.842-15.195-5.21 4.755v8.191c0 1.915-1.252 3.659-3.13 4.191-3.18.902-5.989-1.316-5.989-4.262v-32.361zM181.675 351.231v-32.235a4.209 4.209 0 0 1 4.201-4.217h23.677c1.567 0 3.025.915 3.618 2.372 1.181 2.903-.982 5.56-3.782 5.56h-18.596v8.542h15.275c1.903 0 3.642 1.283 4.021 3.155.524 2.58-1.43 4.776-3.894 4.776h-15.402v8.542h18.896c1.891 0 3.611 1.268 4.016 3.123.565 2.594-1.46 4.808-4.018 4.808h-23.603a4.418 4.418 0 0 1-4.41-4.426M243.073 322.71h-8.815c-1.87 0-3.593-1.218-4.04-3.041-.63-2.572 1.463-4.89 4.091-4.89h26.698c1.87 0 3.593 1.22 4.038 3.044.629 2.573-1.463 4.888-4.091 4.888h-8.763v28.148c0 2.159-1.485 4.1-3.602 4.488-2.98.546-5.516-1.517-5.516-4.213V322.71zM314.197 335.009v-.113c0-6.767-4.944-12.405-11.911-12.405-6.965 0-11.797 5.526-11.797 12.292v.113c0 6.766 4.943 12.404 11.909 12.404 6.967 0 11.799-5.525 11.799-12.291m-32.219 0v-.113c0-11.26 8.85-20.483 21.028-20.483 12.179 0 20.917 9.11 20.917 20.37v.113c0 11.26-8.851 20.484-21.03 20.484-12.177 0-20.915-9.11-20.915-20.37"/>
        </g>
        <g fill="#000">
            <path d="M40.338 178.523c4.413 0 6.991-2.754 6.991-6.345v-.12c0-4.132-2.75-6.347-7.163-6.347h-6.819v12.812h6.991zM24.23 162.205a4.418 4.418 0 0 1 4.41-4.426h12.515c9.53 0 15.294 5.67 15.294 13.861v.115c0 9.279-7.19 14.09-16.15 14.09h-6.95v7.793c0 2.15-1.474 4.078-3.578 4.484-2.99.575-5.541-1.544-5.541-4.316v-31.6zM98.433 181.663l-5.555-13.278-5.556 13.278h11.11zM73.59 192.427l14.007-31.744c.975-2.189 2.755-3.514 5.166-3.514h.516c2.411 0 4.133 1.325 5.109 3.514l14.006 31.744c.764 1.686.709 2.965-1.216 4.919-.672.683-1.58 1.134-2.536 1.13-2.055-.008-3.426-1.216-4.227-3.054l-2.698-6.337h-17.68l-2.812 6.626c-.746 1.728-2.24 2.765-4.075 2.765-2.296 0-4.076-1.844-4.076-4.148 0-.634.23-1.267.516-1.9zM130.003 161.83c0-2.945 2.81-5.163 5.99-4.261 1.877.533 3.129 2.275 3.129 4.19v13.7l16.815-16.354c1.125-1.101 2.25-1.74 3.848-1.74 2.547 0 4.204 1.914 4.204 4.118 0 1.392-.65 2.436-1.657 3.364l-11.664 10.67 12.73 15.659c.71.87 1.243 1.798 1.243 3.132 0 2.493-1.954 4.35-4.619 4.35-1.775 0-2.842-.871-3.848-2.146l-11.842-15.195-5.21 4.755v8.191c0 1.915-1.252 3.659-3.13 4.191-3.18.902-5.989-1.316-5.989-4.262v-32.361zM181.675 194.231v-32.235a4.209 4.209 0 0 1 4.201-4.217h23.677c1.567 0 3.025.915 3.618 2.372 1.181 2.903-.982 5.56-3.782 5.56h-18.596v8.542h15.275c1.903 0 3.642 1.283 4.021 3.155.524 2.58-1.43 4.776-3.894 4.776h-15.402v8.542h18.896c1.891 0 3.611 1.268 4.016 3.123.565 2.594-1.46 4.808-4.018 4.808h-23.603a4.418 4.418 0 0 1-4.41-4.426M243.073 165.71h-8.815c-1.87 0-3.593-1.218-4.04-3.041-.63-2.572 1.463-4.89 4.091-4.89h26.698c1.87 0 3.593 1.22 4.038 3.044.629 2.573-1.463 4.888-4.091 4.888h-8.763v28.148c0 2.159-1.485 4.1-3.602 4.488-2.98.546-5.516-1.517-5.516-4.213V165.71zM314.197 178.009v-.113c0-6.767-4.944-12.405-11.911-12.405-6.965 0-11.797 5.526-11.797 12.292v.113c0 6.766 4.943 12.404 11.909 12.404 6.967 0 11.799-5.525 11.799-12.291m-32.219 0v-.113c0-11.26 8.85-20.483 21.028-20.483 12.179 0 20.917 9.11 20.917 20.37v.113c0 11.26-8.851 20.484-21.03 20.484-12.177 0-20.915-9.11-20.915-20.37"/>
        </g>
        <g fill="#523D93">
            <path d="M40.338 21.474c4.413 0 6.991-2.754 6.991-6.345v-.12c0-4.132-2.75-6.347-7.163-6.347h-6.819v12.812h6.991zM24.23 5.156A4.418 4.418 0 0 1 28.639.73h12.515c9.53 0 15.294 5.67 15.294 13.86v.116c0 9.279-7.19 14.09-16.15 14.09h-6.95v7.793c0 2.15-1.474 4.079-3.578 4.483-2.99.576-5.541-1.543-5.541-4.315v-31.6zM98.433 24.614l-5.555-13.278-5.556 13.278h11.11zM73.59 35.378L87.597 3.635C88.572 1.445 90.352.12 92.763.12h.516c2.411 0 4.133 1.325 5.109 3.515l14.006 31.743c.764 1.686.709 2.965-1.216 4.918-.672.684-1.58 1.135-2.536 1.131-2.055-.008-3.426-1.215-4.227-3.053l-2.698-6.338h-17.68l-2.812 6.626c-.746 1.728-2.24 2.765-4.075 2.765-2.296 0-4.076-1.844-4.076-4.148 0-.634.23-1.267.516-1.9zM130.003 4.782c0-2.946 2.81-5.164 5.99-4.262 1.877.532 3.129 2.276 3.129 4.19v13.7l16.815-16.354c1.125-1.101 2.25-1.74 3.848-1.74 2.547 0 4.204 1.914 4.204 4.118 0 1.392-.65 2.436-1.657 3.364l-11.664 10.67 12.73 15.659c.71.87 1.243 1.798 1.243 3.132 0 2.493-1.954 4.35-4.619 4.35-1.775 0-2.842-.871-3.848-2.146l-11.842-15.195-5.21 4.755v8.191c0 1.915-1.252 3.659-3.13 4.191-3.18.902-5.989-1.316-5.989-4.262V4.782zM181.675 37.183V4.947A4.209 4.209 0 0 1 185.876.73h23.677c1.567 0 3.025.916 3.618 2.372 1.181 2.903-.982 5.56-3.782 5.56h-18.596v8.542h15.275c1.903 0 3.642 1.283 4.021 3.155.524 2.58-1.43 4.776-3.894 4.776h-15.402v8.542h18.896c1.891 0 3.611 1.269 4.016 3.123.565 2.594-1.46 4.808-4.018 4.808h-23.603a4.418 4.418 0 0 1-4.41-4.425M243.073 8.662h-8.815c-1.87 0-3.593-1.22-4.04-3.042-.63-2.572 1.463-4.89 4.091-4.89h26.698c1.87 0 3.593 1.22 4.038 3.044.629 2.572-1.463 4.888-4.091 4.888h-8.763v28.147c0 2.16-1.485 4.1-3.602 4.489-2.98.546-5.516-1.517-5.516-4.213V8.662zM314.197 20.96v-.113c0-6.767-4.944-12.404-11.911-12.404-6.965 0-11.797 5.525-11.797 12.29v.114c0 6.766 4.943 12.404 11.909 12.404 6.967 0 11.799-5.525 11.799-12.291m-32.219 0v-.113c0-11.26 8.85-20.483 21.028-20.483 12.179 0 20.917 9.11 20.917 20.37v.113c0 11.26-8.851 20.484-21.03 20.484-12.177 0-20.915-9.11-20.915-20.37"/>
        </g>
    </g>
</svg>
