<svg xmlns="http://www.w3.org/2000/svg" width="636" height="356" viewBox="0 0 636 356">
    <g fill="none" fill-rule="evenodd">
        <path fill="#FFF" d="M0 0h636v356H0z"/>
        <path fill="#00C5C5" d="M11.453 37.457c0-14.36 11.726-26.044 26.147-26.044 14.417 0 26.147 11.685 26.147 26.044 0 14.362-11.73 26.05-26.147 26.05-14.42 0-26.147-11.688-26.147-26.05m45.999 31.752C68.087 62.589 75.2 50.849 75.2 37.457c0-9.44-3.552-18.053-9.36-24.647 2.676-.899 5.484-1.397 8.37-1.397V0a37.477 37.477 0 0 0-18.316 4.764A37.412 37.412 0 0 0 37.6 0C16.865 0 0 16.801 0 37.457c0 13.399 7.12 25.142 17.761 31.765-4.162 2.58-7.863 5.928-10.788 10.006l9.327 6.627a26.26 26.26 0 0 1 21.3-10.938c14.417 0 26.147 11.685 26.147 26.05a25.93 25.93 0 0 1-3.62 13.231L69.99 120a37.324 37.324 0 0 0 5.21-19.032c0-13.393-7.113-25.132-17.748-31.759"/>
        <path fill="#6A9AC7" d="M11.453 273.457c0-14.36 11.726-26.044 26.147-26.044 14.417 0 26.147 11.685 26.147 26.044 0 14.362-11.73 26.05-26.147 26.05-14.42 0-26.147-11.688-26.147-26.05m45.999 31.752c10.635-6.62 17.748-18.36 17.748-31.752 0-9.44-3.552-18.053-9.36-24.647 2.676-.899 5.484-1.397 8.37-1.397V236a37.477 37.477 0 0 0-18.316 4.764A37.412 37.412 0 0 0 37.6 236C16.865 236 0 252.801 0 273.457c0 13.399 7.12 25.142 17.761 31.765-4.162 2.58-7.863 5.928-10.788 10.006l9.327 6.627a26.26 26.26 0 0 1 21.3-10.938c14.417 0 26.147 11.685 26.147 26.05a25.93 25.93 0 0 1-3.62 13.231L69.99 356a37.324 37.324 0 0 0 5.21-19.032c0-13.393-7.113-25.132-17.748-31.759"/>
        <path fill="#C4A97F" d="M291.453 37.457c0-14.36 11.726-26.044 26.147-26.044 14.417 0 26.147 11.685 26.147 26.044 0 14.362-11.73 26.05-26.147 26.05-14.42 0-26.147-11.688-26.147-26.05m45.999 31.752c10.635-6.62 17.748-18.36 17.748-31.752 0-9.44-3.552-18.053-9.36-24.647 2.676-.899 5.484-1.397 8.37-1.397V0a37.477 37.477 0 0 0-18.316 4.764A37.412 37.412 0 0 0 317.6 0C296.865 0 280 16.801 280 37.457c0 13.399 7.12 25.142 17.761 31.765-4.162 2.58-7.863 5.928-10.788 10.006l9.327 6.627a26.26 26.26 0 0 1 21.3-10.938c14.417 0 26.147 11.685 26.147 26.05a25.93 25.93 0 0 1-3.62 13.231L349.99 120a37.324 37.324 0 0 0 5.21-19.032c0-13.393-7.113-25.132-17.748-31.759"/>
        <path fill="#B7C4BE" d="M291.453 273.457c0-14.36 11.726-26.044 26.147-26.044 14.417 0 26.147 11.685 26.147 26.044 0 14.362-11.73 26.05-26.147 26.05-14.42 0-26.147-11.688-26.147-26.05m45.999 31.752c10.635-6.62 17.748-18.36 17.748-31.752 0-9.44-3.552-18.053-9.36-24.647 2.676-.899 5.484-1.397 8.37-1.397V236a37.477 37.477 0 0 0-18.316 4.764A37.412 37.412 0 0 0 317.6 236c-20.735 0-37.6 16.801-37.6 37.457 0 13.399 7.12 25.142 17.761 31.765-4.162 2.58-7.863 5.928-10.788 10.006l9.327 6.627a26.26 26.26 0 0 1 21.3-10.938c14.417 0 26.147 11.685 26.147 26.05a25.93 25.93 0 0 1-3.62 13.231L349.99 356a37.324 37.324 0 0 0 5.21-19.032c0-13.393-7.113-25.132-17.748-31.759"/>
        <path fill="#000" d="M571.453 37.457c0-14.36 11.726-26.044 26.147-26.044 14.417 0 26.147 11.685 26.147 26.044 0 14.362-11.73 26.05-26.147 26.05-14.42 0-26.147-11.688-26.147-26.05m45.999 31.752c10.635-6.62 17.748-18.36 17.748-31.752 0-9.44-3.552-18.053-9.36-24.647 2.676-.899 5.484-1.397 8.37-1.397V0a37.477 37.477 0 0 0-18.316 4.764A37.412 37.412 0 0 0 597.6 0C576.865 0 560 16.801 560 37.457c0 13.399 7.12 25.142 17.761 31.765-4.162 2.58-7.863 5.928-10.788 10.006l9.327 6.627a26.26 26.26 0 0 1 21.3-10.938c14.417 0 26.147 11.685 26.147 26.05a25.93 25.93 0 0 1-3.62 13.231L629.99 120a37.324 37.324 0 0 0 5.21-19.032c0-13.393-7.113-25.132-17.748-31.759"/>
        <path fill="#B7C4BE" d="M571.453 273.457c0-14.36 11.726-26.044 26.147-26.044 14.417 0 26.147 11.685 26.147 26.044 0 14.362-11.73 26.05-26.147 26.05-14.42 0-26.147-11.688-26.147-26.05m45.999 31.752c10.635-6.62 17.748-18.36 17.748-31.752 0-9.44-3.552-18.053-9.36-24.647 2.676-.899 5.484-1.397 8.37-1.397V236a37.477 37.477 0 0 0-18.316 4.764A37.412 37.412 0 0 0 597.6 236c-20.735 0-37.6 16.801-37.6 37.457 0 13.399 7.12 25.142 17.761 31.765-4.162 2.58-7.863 5.928-10.788 10.006l9.327 6.627a26.26 26.26 0 0 1 21.3-10.938c14.417 0 26.147 11.685 26.147 26.05a25.93 25.93 0 0 1-3.62 13.231L629.99 356a37.324 37.324 0 0 0 5.21-19.032c0-13.393-7.113-25.132-17.748-31.759"/>
    </g>
</svg>
