<svg xmlns="http://www.w3.org/2000/svg" width="256" height="124" viewBox="0 0 256 124">
    <g fill="none" fill-rule="evenodd">
        <path fill="#EBEBEB" d="M0 124h256V0H0z"/>
        <path fill="#00C5C5" d="M65.091 92l-3.613-2.26a10.595 10.595 0 0 0 1.326-5.152c0-5.593-4.3-10.144-9.581-10.144-3.09 0-6.008 1.592-7.806 4.26L42 76.123C44.585 72.289 48.78 70 53.223 70 60.82 70 67 76.545 67 84.588c0 2.61-.66 5.175-1.909 7.412"/>
        <path fill="#00C5C5" d="M53 50.418c-5.368 0-9.735 4.523-9.735 10.082 0 5.56 4.367 10.082 9.735 10.082 5.369 0 9.736-4.522 9.736-10.082 0-5.56-4.367-10.082-9.736-10.082M53 75c-7.72 0-14-6.505-14-14.5S45.28 46 53 46s14 6.505 14 14.5S60.72 75 53 75M102 50.418c-5.368 0-9.735 4.523-9.735 10.082 0 5.56 4.367 10.082 9.735 10.082 5.369 0 9.736-4.522 9.736-10.082 0-5.56-4.367-10.082-9.736-10.082M102 75c-7.72 0-14-6.505-14-14.5S94.28 46 102 46s14 6.505 14 14.5S109.72 75 102 75M196.5 58.29h19c-.975-4.5-4.864-7.872-9.5-7.872s-8.525 3.373-9.5 7.873M206 75c-7.72 0-14-6.505-14-14.5S198.28 46 206 46s14 6.505 14 14.5v2.208h-23.5c.975 4.501 4.864 7.874 9.5 7.874 3.023 0 5.824-1.418 7.684-3.89l3.365 2.713C214.375 72.961 210.348 75 206 75M134 50.418c-5.368 0-9.735 4.523-9.735 10.082 0 5.56 4.367 10.082 9.735 10.082 5.368 0 9.735-4.522 9.735-10.082 0-5.56-4.367-10.082-9.735-10.082M134 75c-7.72 0-14-6.505-14-14.5S126.28 46 134 46s14 6.505 14 14.5S141.72 75 134 75M74.96 60H71c0-7.72 5.832-14 13-14v4.265c-4.985 0-9.04 4.368-9.04 9.735"/>
        <path fill="#00C5C5" d="M61.44 52L59 48.527A13.836 13.836 0 0 1 67 46v4.245A9.614 9.614 0 0 0 61.44 52M71 75h4V46h-4zM172 57h-4.289c0-3.588-2.786-6.507-6.211-6.507-3.425 0-6.211 2.919-6.211 6.507H151c0-6.065 4.71-11 10.5-11S172 50.935 172 57"/>
        <path fill="#00C5C5" d="M188 75h-4.289V56.85c0-3.54-2.786-6.418-6.211-6.418-3.424 0-6.211 2.878-6.211 6.418v18.148H167V56.85c0-5.982 4.711-10.85 10.5-10.85 5.79 0 10.5 4.868 10.5 10.85V75zM151 75h4V46h-4z"/>
    </g>
</svg>
