<svg xmlns="http://www.w3.org/2000/svg" width="349" height="356" viewBox="0 0 349 356">
    <g fill="none" fill-rule="evenodd">
        <path fill="#FFF" d="M0 0h348.876v356H0z"/>
        <g fill="#00C5C5">
            <path d="M73.842 70.787l-5.7-3.428a15.582 15.582 0 0 0 2.09-7.815c0-8.485-6.78-15.386-15.114-15.386-4.873 0-9.477 2.413-12.312 6.46l-5.39-3.915c4.076-5.815 10.694-9.287 17.702-9.287 11.985 0 21.736 9.927 21.736 22.128 0 3.96-1.042 7.85-3.012 11.243"/>
            <path d="M55.112 6.778c-8.337 0-15.118 6.939-15.118 15.469s6.781 15.47 15.118 15.47 15.119-6.94 15.119-15.47c0-8.53-6.782-15.47-15.119-15.47m0 37.717c-11.988 0-21.741-9.98-21.741-22.247C33.37 9.979 43.124 0 55.112 0s21.742 9.979 21.742 22.247c0 12.266-9.754 22.247-21.742 22.247M132.978 6.778c-8.337 0-15.119 6.939-15.119 15.469s6.782 15.47 15.119 15.47c8.336 0 15.118-6.94 15.118-15.47 0-8.53-6.782-15.47-15.118-15.47m0 37.717c-11.989 0-21.742-9.98-21.742-22.247C111.236 9.979 120.989 0 132.978 0c11.988 0 21.741 9.979 21.741 22.247 0 12.266-9.753 22.247-21.741 22.247M283.056 18.857h29.505c-1.512-6.904-7.553-12.08-14.752-12.08-7.2 0-13.24 5.176-14.753 12.08m14.753 25.637c-11.99 0-21.742-9.98-21.742-22.248C276.067 9.98 285.82 0 297.81 0c11.988 0 21.742 9.98 21.742 22.246v3.389h-36.495c1.513 6.906 7.554 12.08 14.753 12.08 4.695 0 9.044-2.176 11.934-5.97l5.225 4.164c-4.153 5.456-10.408 8.585-17.159 8.585M182.528 6.778c-8.337 0-15.118 6.939-15.118 15.469s6.78 15.47 15.118 15.47c8.336 0 15.119-6.94 15.119-15.47 0-8.53-6.783-15.47-15.119-15.47m0 37.717c-11.988 0-21.741-9.98-21.741-22.247C160.787 9.979 170.54 0 182.528 0s21.742 9.979 21.742 22.247c0 12.266-9.754 22.247-21.742 22.247M90.71 22.247h-6.777C83.933 9.98 93.913 0 106.18 0v6.778c-8.53 0-15.47 6.939-15.47 15.47"/>
            <path d="M68.73 9.101l-4.01-5.268C68.581 1.325 73.126 0 77.864 0v6.439c-3.295 0-6.454.92-9.136 2.662M83.933 44.494h7.078V0h-7.078zM244.72 16.18h-6.816c0-5.278-4.428-9.57-9.87-9.57-5.442 0-9.87 4.292-9.87 9.57h-6.816c0-8.92 7.485-16.18 16.686-16.18 9.2 0 16.685 7.26 16.685 16.18"/>
            <path d="M271.011 44.494h-6.815V16.646c0-5.43-4.427-9.846-9.87-9.846-5.442 0-9.87 4.416-9.87 9.846v27.845h-6.816V16.646C237.64 7.47 245.126 0 254.326 0s16.685 7.469 16.685 16.646v27.848zM211.348 44.494h7.079V0h-7.079z"/>
        </g>
        <g fill="#C4A97F">
            <path d="M74.294 212.003l-5.756-3.384a15.12 15.12 0 0 0 2.112-7.715c0-8.376-6.845-15.188-15.26-15.188-4.92 0-9.567 2.382-12.43 6.377l-5.442-3.864a22.034 22.034 0 0 1 17.873-9.169c12.1 0 21.944 9.8 21.944 21.844 0 3.91-1.053 7.75-3.041 11.099"/>
            <path d="M55.353 148.65c-8.43 0-15.286 6.806-15.286 15.174 0 8.369 6.856 15.176 15.286 15.176 8.428 0 15.285-6.807 15.285-15.176 0-8.368-6.857-15.175-15.285-15.175m0 37c-12.12 0-21.982-9.792-21.982-21.825 0-12.035 9.861-21.824 21.982-21.824 12.12 0 21.982 9.79 21.982 21.824 0 12.033-9.862 21.825-21.982 21.825M133.326 148.65c-8.428 0-15.285 6.806-15.285 15.174 0 8.369 6.857 15.176 15.285 15.176 8.429 0 15.286-6.807 15.286-15.176 0-8.368-6.857-15.175-15.286-15.175m0 37c-12.12 0-21.982-9.792-21.982-21.825 0-12.035 9.862-21.824 21.982-21.824s21.982 9.79 21.982 21.824c0 12.033-9.861 21.825-21.982 21.825M282.652 160.499h29.832c-1.53-6.773-7.636-11.85-14.915-11.85-7.28 0-13.386 5.077-14.917 11.85m14.917 25.15c-12.122 0-21.982-9.791-21.982-21.826 0-12.033 9.86-21.823 21.982-21.823 12.12 0 21.982 9.79 21.982 21.823v3.325h-36.899c1.53 6.775 7.638 11.85 14.917 11.85 4.747 0 9.144-2.135 12.065-5.855l5.283 4.084c-4.198 5.352-10.522 8.422-17.348 8.422M182.267 148.65c-8.43 0-15.285 6.806-15.285 15.174 0 8.369 6.856 15.176 15.285 15.176s15.286-6.807 15.286-15.176c0-8.368-6.857-15.175-15.286-15.175m0 37c-12.12 0-21.982-9.792-21.982-21.825 0-12.035 9.862-21.824 21.982-21.824s21.982 9.79 21.982 21.824c0 12.033-9.861 21.825-21.982 21.825M90.793 164.236h-6.822c0-12.26 10.047-22.236 22.396-22.236v6.775c-8.587 0-15.574 6.935-15.574 15.461"/>
            <path d="M68.94 151.06l-4.048-5.244c3.9-2.497 8.488-3.816 13.272-3.816v6.41c-3.326 0-6.516.915-9.224 2.65M83.97 185.649h6.637V142H83.97zM244.065 157.648h-6.776c0-5.105-4.403-9.256-9.814-9.256-5.41 0-9.814 4.151-9.814 9.256h-6.776c0-8.627 7.442-15.648 16.59-15.648 9.147 0 16.59 7.02 16.59 15.648"/>
            <path d="M270.61 185.649h-6.776v-27.32c0-5.326-4.402-9.659-9.814-9.659-5.411 0-9.814 4.333-9.814 9.66v27.316h-6.777V158.33c0-9.003 7.443-16.33 16.59-16.33 9.149 0 16.59 7.327 16.59 16.33v27.319zM210.885 185.649h6.636V142h-6.636z"/>
        </g>
        <g fill="#000">
            <path d="M73.686 355.787l-5.745-3.38a15.106 15.106 0 0 0 2.108-7.705c0-8.365-6.834-15.169-15.233-15.169-4.911 0-9.551 2.38-12.409 6.37l-5.432-3.86a21.992 21.992 0 0 1 17.841-9.157c12.079 0 21.906 9.787 21.906 21.816 0 3.905-1.05 7.74-3.036 11.085"/>
            <path d="M54.861 291.682c-8.383 0-15.202 6.841-15.202 15.251 0 8.411 6.819 15.252 15.202 15.252 8.382 0 15.202-6.84 15.202-15.252 0-8.41-6.82-15.25-15.202-15.25m0 37.185c-12.054 0-21.861-9.84-21.861-21.935C33 294.838 42.807 285 54.861 285s21.86 9.838 21.86 21.933c0 12.094-9.806 21.935-21.86 21.935M132.368 291.682c-8.382 0-15.202 6.841-15.202 15.251 0 8.411 6.82 15.252 15.202 15.252s15.202-6.84 15.202-15.252c0-8.41-6.82-15.25-15.202-15.25m0 37.185c-12.054 0-21.861-9.84-21.861-21.935 0-12.095 9.807-21.933 21.861-21.933s21.86 9.838 21.86 21.933c0 12.094-9.806 21.935-21.86 21.935M282.484 303.592h29.668c-1.52-6.807-7.594-11.91-14.833-11.91-7.24 0-13.313 5.103-14.835 11.91m14.835 25.276c-12.055 0-21.861-9.84-21.861-21.935 0-12.094 9.806-21.933 21.86-21.933 12.055 0 21.862 9.84 21.862 21.933v3.34h-36.696c1.522 6.81 7.596 11.911 14.835 11.911 4.72 0 9.094-2.146 12-5.885l5.253 4.104c-4.176 5.38-10.465 8.465-17.253 8.465M182.052 291.682c-8.383 0-15.202 6.841-15.202 15.251 0 8.411 6.819 15.252 15.202 15.252 8.382 0 15.202-6.84 15.202-15.252 0-8.41-6.82-15.25-15.202-15.25m0 37.185c-12.054 0-21.861-9.84-21.861-21.935 0-12.095 9.807-21.933 21.861-21.933s21.86 9.838 21.86 21.933c0 12.094-9.806 21.935-21.86 21.935M90.64 307.93h-6.962c0-12.643 10.253-22.93 22.854-22.93v6.986c-8.763 0-15.892 7.153-15.892 15.945"/>
            <path d="M68.738 293.973l-3.94-5.194c3.795-2.473 8.261-3.779 12.918-3.779v6.348c-3.238 0-6.343.908-8.978 2.625M83.678 328.868h6.955V285h-6.955zM243.66 300.952h-6.697c0-5.204-4.351-9.436-9.699-9.436-5.347 0-9.699 4.232-9.699 9.436h-6.696c0-8.795 7.354-15.952 16.395-15.952 9.04 0 16.396 7.157 16.396 15.952"/>
            <path d="M269.496 328.868h-6.697v-27.456c0-5.354-4.35-9.708-9.699-9.708-5.347 0-9.699 4.354-9.699 9.708v27.452h-6.697v-27.452c0-9.048 7.356-16.412 16.396-16.412 9.041 0 16.396 7.364 16.396 16.412v27.456zM210.869 328.868h6.955V285h-6.955z"/>
        </g>
    </g>
</svg>
