<svg xmlns="http://www.w3.org/2000/svg" width="256" height="123" viewBox="0 0 256 123">
    <g fill="none" fill-rule="evenodd">
        <path fill="#000" d="M0 123h256V0H0z"/>
        <g fill="#C4A97F">
            <path d="M62.015 92l-3.76-2.26a10.266 10.266 0 0 0 1.38-5.152c0-5.594-4.469-10.144-9.964-10.144-3.213 0-6.247 1.592-8.118 4.26L38 76.122C40.688 72.29 45.051 70 49.67 70 57.573 70 64 76.544 64 84.588c0 2.612-.685 5.175-1.985 7.412"/>
            <path d="M49.5 50.418c-5.56 0-10.083 4.523-10.083 10.081 0 5.56 4.523 10.083 10.083 10.083 5.56 0 10.083-4.523 10.083-10.083 0-5.558-4.523-10.081-10.083-10.081M49.5 75C41.505 75 35 68.494 35 60.5 35 52.503 41.505 46 49.5 46S64 52.504 64 60.5C64 68.493 57.495 75 49.5 75M100.5 50.418c-5.56 0-10.083 4.523-10.083 10.081 0 5.56 4.523 10.083 10.083 10.083 5.56 0 10.083-4.523 10.083-10.083 0-5.558-4.523-10.081-10.083-10.081m0 24.582C92.505 75 86 68.494 86 60.5c0-7.996 6.505-14.5 14.5-14.5S115 52.504 115 60.5c0 7.994-6.505 14.5-14.5 14.5M197.66 58.29h19.68c-1.01-4.5-5.038-7.872-9.84-7.872-4.8 0-8.83 3.373-9.84 7.873M207.5 75c-7.996 0-14.5-6.505-14.5-14.5 0-7.996 6.504-14.5 14.5-14.5S222 52.504 222 60.5v2.209h-24.34c1.01 4.5 5.04 7.874 9.84 7.874a10.03 10.03 0 0 0 7.96-3.892l3.484 2.714A14.414 14.414 0 0 1 207.5 75M132.5 50.418c-5.56 0-10.083 4.523-10.083 10.081 0 5.56 4.524 10.083 10.083 10.083 5.56 0 10.082-4.523 10.082-10.083 0-5.558-4.523-10.081-10.082-10.081m0 24.582c-7.996 0-14.5-6.506-14.5-14.5 0-7.996 6.504-14.5 14.5-14.5 7.995 0 14.5 6.504 14.5 14.5 0 7.994-6.505 14.5-14.5 14.5M72.265 60H68c0-7.72 6.28-14 14-14v4.266c-5.368 0-9.735 4.367-9.735 9.734"/>
            <path d="M58.44 52L56 48.527A13.833 13.833 0 0 1 64 46v4.245A9.613 9.613 0 0 0 58.44 52M68 75h4V46h-4zM172 57h-4.289c0-3.588-2.786-6.506-6.21-6.506-3.425 0-6.212 2.918-6.212 6.506H151c0-6.065 4.711-11 10.5-11 5.79 0 10.5 4.935 10.5 11"/>
            <path d="M189 75h-4.289V56.85c0-3.54-2.785-6.418-6.211-6.418-3.425 0-6.211 2.879-6.211 6.417v18.149H168V56.849C168 50.868 172.711 46 178.5 46c5.79 0 10.5 4.868 10.5 10.85V75zM151 75h4V46h-4z"/>
        </g>
    </g>
</svg>
