<svg xmlns="http://www.w3.org/2000/svg" width="256" height="124" viewBox="0 0 256 124">
    <g fill="none" fill-rule="evenodd">
        <path fill="#FFF" d="M0 124h256V0H0z"/>
        <g fill="#000">
            <path d="M50.709 95l-4.337-2.568a11.538 11.538 0 0 0 1.591-5.855c0-6.356-5.157-11.526-11.497-11.526a11.52 11.52 0 0 0-9.366 4.84L23 76.958A16.565 16.565 0 0 1 36.466 70C45.583 70 53 77.437 53 86.577A16.6 16.6 0 0 1 50.709 95"/>
            <path d="M36.5 47.027c-6.327 0-11.474 5.146-11.474 11.473 0 6.327 5.147 11.473 11.474 11.473S47.974 64.827 47.974 58.5c0-6.327-5.147-11.473-11.474-11.473M36.5 75C27.402 75 20 67.597 20 58.5 20 49.4 27.402 42 36.5 42 45.598 42 53 49.401 53 58.5 53 67.597 45.598 75 36.5 75M95.5 47.027c-6.327 0-11.474 5.146-11.474 11.473 0 6.327 5.147 11.473 11.474 11.473s11.474-5.146 11.474-11.473c0-6.327-5.147-11.473-11.474-11.473M95.5 75C86.402 75 79 67.597 79 58.5 79 49.4 86.402 42 95.5 42c9.098 0 16.5 7.401 16.5 16.5 0 9.097-7.402 16.5-16.5 16.5M208.303 55.986h22.393c-1.148-5.12-5.732-8.96-11.196-8.96-5.464 0-10.048 3.84-11.197 8.96M219.5 75c-9.099 0-16.5-7.403-16.5-16.5 0-9.098 7.401-16.5 16.5-16.5 9.098 0 16.5 7.402 16.5 16.5v2.513h-27.697c1.15 5.122 5.733 8.96 11.197 8.96 3.563 0 6.864-1.615 9.057-4.428l3.965 3.088A16.403 16.403 0 0 1 219.5 75M133.5 47.027c-6.327 0-11.474 5.146-11.474 11.473 0 6.327 5.147 11.473 11.474 11.473s11.474-5.146 11.474-11.473c0-6.327-5.147-11.473-11.474-11.473m0 27.973c-9.098 0-16.5-7.403-16.5-16.5 0-9.099 7.402-16.5 16.5-16.5 9.098 0 16.5 7.401 16.5 16.5 0 9.097-7.402 16.5-16.5 16.5M63.179 59H58c0-9.374 7.626-17 17-17v5.18c-6.518 0-11.821 5.302-11.821 11.82"/>
            <path d="M47.05 49L44 44.948C46.938 43.02 50.396 42 54 42v4.952c-2.506 0-4.91.708-6.95 2.048M58 75h5V42h-5zM179 54h-5.106c0-3.914-3.317-7.098-7.394-7.098s-7.394 3.184-7.394 7.098H154c0-6.616 5.607-12 12.5-12 6.892 0 12.5 5.384 12.5 12"/>
            <path d="M199 75h-5.106V54.346c0-4.027-3.316-7.303-7.393-7.303-4.078 0-7.395 3.276-7.395 7.303v20.652H174V54.346C174 47.539 179.608 42 186.5 42c6.893 0 12.5 5.54 12.5 12.346V75zM154 75h5V42h-5z"/>
        </g>
    </g>
</svg>
