<svg xmlns="http://www.w3.org/2000/svg" xmlns:xlink="http://www.w3.org/1999/xlink" width="48" height="48" viewBox="0 0 48 48">
    <defs>
        <path id="a" d="M.156 0h7.806v7.806H.156z"/>
    </defs>
    <g fill="none" fill-rule="evenodd" opacity=".5">
        <path fill="#000" d="M8.294 36.27A8.294 8.294 0 0 0 0 44.565c0 4.58 16.588 4.58 16.588 0a8.294 8.294 0 0 0-8.294-8.295M8.294 34.806a3.904 3.904 0 1 0 0-7.807 3.904 3.904 0 0 0 0 7.807M39.494 36.27a8.294 8.294 0 0 0-8.294 8.295c0 4.58 16.588 4.58 16.588 0a8.294 8.294 0 0 0-8.294-8.295M35.591 30.903a3.903 3.903 0 1 0 7.807 0 3.903 3.903 0 0 0-7.807 0M32.154 17.565a8.294 8.294 0 1 0-16.59 0c0 4.58 16.59 4.58 16.59 0"/>
        <g transform="translate(19.8)">
            <mask id="b" fill="#fff">
                <use xlink:href="#a"/>
            </mask>
            <path fill="#000" d="M4.059 7.806a3.903 3.903 0 1 0 0-7.806 3.903 3.903 0 0 0 0 7.806" mask="url(#b)"/>
        </g>
        <path fill="#000" d="M7.559 25.2a1.2 1.2 0 0 0 1.2-1.2c0-3.416 1.162-6.7 3.269-9.36l1.028 1.12 1.651-5.25-5.373 1.194 1.045 1.139A17.468 17.468 0 0 0 6.359 24a1.2 1.2 0 0 0 1.2 1.2M31.837 37.812a1.2 1.2 0 0 0-1.532-.73 14.929 14.929 0 0 1-6.59.781c-.768-.08-1.529-.22-2.272-.413l.617-1.402-5.471.597 3.252 4.44.624-1.416a17.571 17.571 0 0 0 4.84.677c1.98 0 3.924-.335 5.802-1.001a1.2 1.2 0 0 0 .73-1.533M32.167 11.389a15.064 15.064 0 0 1 6.083 8.071l-1.498.217L40.159 24l2.04-5.112-1.535.222a17.465 17.465 0 0 0-7.174-9.724 1.201 1.201 0 0 0-1.323 2.003"/>
    </g>
</svg>
