<svg xmlns="http://www.w3.org/2000/svg" width="48" height="48" viewBox="0 0 48 48">
    <g fill="none" fill-rule="evenodd" opacity=".5">
        <path fill="#000" d="M0 16h16V0H0zM32 16h16V0H32zM16 32h16V16H16zM0 48h16V32H0zM32 48h16V32H32z"/>
        <path fill="#FFF" d="M11.417 6.34L4.482 4.482l1.858 6.936 1.903-1.903 2.638 2.639 1.273-1.273-2.639-2.639zM6.485 40.243L3.847 42.88l1.272 1.273 2.638-2.639 1.903 1.902 1.858-6.935-6.935 1.858zM43.417 38.34l-6.935-1.858 1.858 6.935 1.902-1.902 2.64 2.639 1.272-1.273-2.64-2.639zM40.243 9.515l2.638 2.639 1.273-1.273-2.639-2.639 1.902-1.902-6.935-1.858 1.858 6.936zM22.485 24.243l-2.638 2.638 1.272 1.273 2.639-2.639 1.902 1.902 1.858-6.935-6.936 1.858z"/>
    </g>
</svg>
