<svg xmlns="http://www.w3.org/2000/svg" xmlns:xlink="http://www.w3.org/1999/xlink" width="48" height="48" viewBox="0 0 48 48">
    <defs>
        <path id="a" d="M0 47.407h47.407V.237H0z"/>
    </defs>
    <g fill="none" fill-rule="evenodd" opacity=".5">
        <path fill="#000" d="M0 22.281h36.148V.593H0v21.688zm2.371-2.37h31.407V2.963H2.371v16.948zM11.26 47.763h36.147V26.075H11.26v21.688zm2.37-2.371h31.407V28.444H13.63v16.948z"/>
        <g transform="translate(0 .356)">
            <path fill="#000" d="M18.37 8.533a2.373 2.373 0 0 1 2.37 2.37 2.373 2.373 0 0 1-2.37 2.371 2.373 2.373 0 0 1-2.37-2.37 2.373 2.373 0 0 1 2.37-2.37m0 7.11a4.746 4.746 0 0 0 4.741-4.74 4.746 4.746 0 0 0-4.74-4.74 4.746 4.746 0 0 0-4.741 4.74 4.746 4.746 0 0 0 4.74 4.74"/>
            <mask id="b" fill="#fff">
                <use xlink:href="#a"/>
            </mask>
            <path fill="#000" d="M27.852 38.756h4.74v-4.741h-4.74v4.74zm-2.37 2.37h9.481v-9.482h-9.482v9.482z" mask="url(#b)"/>
        </g>
    </g>
</svg>
