<svg xmlns="http://www.w3.org/2000/svg" xmlns:xlink="http://www.w3.org/1999/xlink" width="48" height="48" viewBox="0 0 48 48">
    <defs>
        <path id="a" d="M0 0h39.33v39.044H0z"/>
    </defs>
    <g fill="none" fill-rule="evenodd">
        <path fill="#000" d="M19.538 18.331c-4.97 0-9 4-9 8.935 0 4.934 18 4.934 18 0 0-4.935-4.03-8.935-9-8.935M19.538 16.754c2.338 0 4.235-1.882 4.235-4.204s-1.897-4.205-4.235-4.205c-2.34 0-4.236 1.883-4.236 4.205s1.897 4.204 4.236 4.204"/>
        <g>
            <mask id="b" fill="#fff">
                <use xlink:href="#a"/>
            </mask>
            <path fill="#000" d="M19.665 36.662c-4.612 0-8.947-1.784-12.209-5.02-6.73-6.683-6.73-17.557 0-24.24 3.262-3.236 7.597-5.02 12.209-5.02 4.612 0 8.947 1.784 12.208 5.02 6.731 6.683 6.731 17.557 0 24.24-3.261 3.236-7.596 5.02-12.208 5.02M33.57 5.718C29.73 1.906 24.698 0 19.665 0 14.632 0 9.6 1.906 5.76 5.718c-7.68 7.624-7.68 19.984 0 27.608 3.84 3.812 8.872 5.718 13.905 5.718 5.033 0 10.065-1.906 13.905-5.718 7.68-7.624 7.68-19.984 0-27.608" mask="url(#b)"/>
        </g>
        <path fill="#000" d="M47.475 45.967L34.156 32.745l-1.697 1.684 13.32 13.223a1.207 1.207 0 0 0 1.696 0 1.185 1.185 0 0 0 0-1.685"/>
    </g>
</svg>
