<svg xmlns="http://www.w3.org/2000/svg" width="48" height="48" viewBox="0 0 48 48">
    <g fill="#000" fill-rule="evenodd" opacity=".5">
        <path d="M0 0v48h48V0H0zm2.4 11h43.2V2.4H2.4V11zm0 34.6h43.2V24.8H2.4v20.8z"/>
        <path d="M25.8 42.143h16.8v-13.8H25.8zM5.4 42.143h16.8v-13.8H5.4zM7.2 4.8c-.99 0-1.8.81-1.8 1.8s.81 1.8 1.8 1.8S9 7.59 9 6.6s-.81-1.8-1.8-1.8M13.2 4.8c-.99 0-1.8.81-1.8 1.8s.81 1.8 1.8 1.8S15 7.59 15 6.6s-.81-1.8-1.8-1.8M19.2 4.8c-.99 0-1.8.81-1.8 1.8s.81 1.8 1.8 1.8S21 7.59 21 6.6s-.81-1.8-1.8-1.8"/>
    </g>
</svg>
