<svg xmlns="http://www.w3.org/2000/svg" xmlns:xlink="http://www.w3.org/1999/xlink" width="48" height="48" viewBox="0 0 48 48">
    <defs>
        <path id="a" d="M0 48h48V0H0z"/>
    </defs>
    <g fill="none" fill-rule="evenodd">
        <path fill="#EA1C49" d="M0 48h12V36H0v12zm2.4-2.4h7.2v-7.2H2.4v7.2zM18 48h12V36H18v12zm2.4-2.4h7.2v-7.2h-7.2v7.2z"/>
        <g>
            <path fill="#EA1C49" d="M6 18a3 3 0 1 0 0-6 3 3 0 0 0 0 6M42 6a3 3 0 1 0 0-6 3 3 0 0 0 0 6M24 10.8a3 3 0 1 0 0-6 3 3 0 0 0 0 6"/>
            <mask id="b" fill="#fff">
                <use xlink:href="#a"/>
            </mask>
            <path fill="#EA1C49" d="M38.4 45.6h7.2v-7.2h-7.2v7.2zM36 48h12V36H36v12zM4.8 33h2.4V22.2H4.8zM22.8 33h2.4V15.6h-2.4zM40.8 33h2.4V10.8h-2.4z" mask="url(#b)"/>
        </g>
    </g>
</svg>
