<svg xmlns="http://www.w3.org/2000/svg" xmlns:xlink="http://www.w3.org/1999/xlink" width="47" height="48" viewBox="0 0 47 48">
    <defs>
        <path id="a" d="M0 47.407h47V.237H0z"/>
    </defs>
    <g fill="none" fill-rule="evenodd">
        <path fill="#EA1C49" d="M0 22.281h35.837V.593H0v21.688zm2.35-2.37h31.138V2.963H2.351v16.948zM11.162 47.763H47V26.075H11.163v21.688zm2.35-2.371H44.65V28.444H13.513v16.948z"/>
        <g transform="translate(0 .356)">
            <path fill="#EA1C49" d="M18.213 8.533a2.363 2.363 0 0 1 2.35 2.37 2.363 2.363 0 0 1-2.35 2.371 2.363 2.363 0 0 1-2.35-2.37 2.363 2.363 0 0 1 2.35-2.37m0 7.11c2.591 0 4.7-2.126 4.7-4.74 0-2.614-2.109-4.74-4.7-4.74-2.592 0-4.7 2.126-4.7 4.74 0 2.614 2.108 4.74 4.7 4.74"/>
            <mask id="b" fill="#fff">
                <use xlink:href="#a"/>
            </mask>
            <path fill="#EA1C49" d="M27.613 38.756h4.7v-4.741h-4.7v4.74zm-2.35 2.37h9.4v-9.482h-9.4v9.482z" mask="url(#b)"/>
        </g>
    </g>
</svg>
