<svg id="Layer_1" xmlns="http://www.w3.org/2000/svg" viewBox="0 0 130 50"><style>.st0{fill:#6d6e71}.st1{fill:none}.st2{fill:#7ac4ea}.st3{fill:#0a6093}.st4{fill:url(#XMLID_164_)}.st5{fill:#648678}.st6{fill:#5785bf}.st7{fill:#e57121}.st8{fill:none;stroke:#6d6e71;stroke-width:3.74;stroke-miterlimit:10}.st9{fill:#057db7}.st10{stroke:#057db7;stroke-width:3.74}.st10,.st11,.st12,.st13{fill:none;stroke-miterlimit:10}.st11{stroke:#648678}.st11,.st12,.st13{stroke-width:40;stroke-linecap:round;stroke-linejoin:round}.st12{stroke:#5785bf}.st13{stroke:#e57121}.st14{fill:#31b6f4}.st15{fill:#fff}.st16{fill:#e3f1fb}.st17{opacity:.5;fill:none}.st18{fill-rule:evenodd;clip-rule:evenodd;fill:#6d6e71}.st19{fill:none;stroke:#6d6e71;stroke-width:2.7379;stroke-miterlimit:10}</style><g id="XMLID_84_"><path class="st0" d="M-683-38l-.7-2.6-7.1 1.2c-.6 1.6-1 3.2-1.2 4.9l9-3.5z" id="XMLID_163_"/><path class="st0" d="M-674.3-40.5l-5.6 2.2 1 4.8 5.1-1.8z" id="XMLID_162_"/><path class="st0" d="M-683.9-41.3l-1.7-6.1c-2 2.1-3.6 4.5-4.8 7.2l6.5-1.1z" id="XMLID_161_"/><path class="st0" d="M-685.4-24.7l5.1-1-.7-4.8-4.9 1.7z" id="XMLID_160_"/><path class="st0" d="M-686.8-35.6l.8 5.9 4.9-1.6-.2-1.3 1.6-.6-1-4.8z" id="XMLID_159_"/><path class="st0" d="M-674.2-48.9l9.5-4.9c-1.4-.3-2.9-.4-4.4-.4-1.9 0-3.7.2-5.5.7l.4 4.6z" id="XMLID_158_"/><path class="st0" d="M-685.2-16.9l-.9-6.9-5.1 1c.4 2.2 1.1 4.7 2 7.4l4.4-1.6-.4.1z" id="XMLID_157_"/><path class="st0" d="M-653.9-48.5l-1.7.7 1.9 5.2 3.7-1.4c-1-1.7-2.4-3.2-3.9-4.5z" id="XMLID_156_"/><g id="XMLID_137_"><path class="st0" d="M-650.4-37.8l-3.2.6-2 4 4.8.8z" id="XMLID_155_"/><path class="st0" d="M-656.8-32.6l-3.6-.7-2.2 5 3.9-.4z" id="XMLID_154_"/><path class="st0" d="M-653.5-39.2l-5.5 2 3.5 2 1.3-2.7z" id="XMLID_153_"/><path class="st0" d="M-664.7-28.2l1.2-.1 2.2-5.1-2.4-.4z" id="XMLID_152_"/><path class="st0" d="M-651.1-28.4l-7.4 1.1-1.3 2.7 6.4-.8-.4.8 2.5-.5z" id="XMLID_151_"/><path class="st0" d="M-648.1-27.5l1.7.7c.1-.6.1-1.1.2-1.7.1-.5.1-1.1.1-1.6l-2 2.6z" id="XMLID_150_"/><path class="st0" d="M-651.8-18.8l-3.3 2-.1-.1.2 4.6 2.7.1z" id="XMLID_149_"/><path class="st0" d="M-654.2-23.7l-1.2 3.1.2 3 3.5-2.2.3-4.5z" id="XMLID_148_"/><path class="st0" d="M-650.8-31.5l-5.2-1-2.1 4.3 7.1-1.1z" id="XMLID_147_"/><path class="st0" d="M-656.1-18.9l-2.7 6.6h3z" id="XMLID_146_"/><path class="st0" d="M-659.2-27.8l-5.7.5-.6 3.4 4.7-.6z" id="XMLID_145_"/><path class="st0" d="M-656.4-33.4l.5-1.1-4.1-2.3-3.4 1.2-.2.9z" id="XMLID_144_"/><path class="st0" d="M-651.1-16.7l-.3 4.5h1.1c.6-1.4 1.2-2.9 1.7-4.5h-2.5z" id="XMLID_143_"/><path class="st0" d="M-650.3-27.6l-.2 2.6.1.5h-.1l-.2 2.6 3.7-1.1c.2-1 .4-2 .5-3l-3.8-1.6z" id="XMLID_142_"/><path class="st0" d="M-647.2-22.1l-3.6 1-.3 3.5h2.6c.6-1.4 1-2.9 1.3-4.5z" id="XMLID_141_"/><path class="st0" d="M-653.1-38.1l5.6-1.2c-.2-.6-.5-1.2-.8-1.8l-4.2 1.5-.6 1.5z" id="XMLID_140_"/><path class="st0" d="M-650.2-28.4l1.4.6 2.8-3.7c0-.9-.1-1.9-.2-2.8l-3.5.3-.5 5.6z" id="XMLID_139_"/><path class="st0" d="M-649.5-38l-.2 3.1 3.3-.3c-.2-1.1-.5-2.2-.8-3.3l-2.3.5z" id="XMLID_138_"/></g><g id="XMLID_134_"><path class="st0" d="M-686.9-30.3l-.7-4.9-4.5 1.8c-.1.7-.1 1.5-.1 2.2v.5l5.3.4z" id="XMLID_136_"/><path class="st0" d="M-686.8-29.5l-5.3-.5v.1c.1 1.3.3 3.5.8 6.3l5.2-1-.7-4.9z" id="XMLID_135_"/></g><g id="XMLID_131_"><path class="st0" d="M-680.6-24.8l-4.7.9.9 6.4z" id="XMLID_133_"/><path class="st0" d="M-679.3-18.9l-.8-5.3-3.5 6.8z" id="XMLID_132_"/></g><g id="XMLID_128_"><path class="st0" d="M-678.7-48.2l3.5-3-.2-2.2c-1.7.5-3.3 1.2-4.8 2l1.5 3.2z" id="XMLID_130_"/><path class="st0" d="M-680.9-51c-1.4.9-2.8 1.9-4 3l1.2 4.1 4.4-3.8-1.6-3.3z" id="XMLID_129_"/></g><g id="XMLID_125_"><path class="st0" d="M-658.5-51.7l-4.6 2.5 3.6 2 4.8-1.9c-1.1-1-2.4-1.9-3.8-2.6z" id="XMLID_127_"/><path class="st0" d="M-659.4-52.1c-1.3-.6-2.7-1.1-4.1-1.5l-3.9 2 3.5 1.9 4.5-2.4z" id="XMLID_126_"/></g><g id="XMLID_122_"><path class="st0" d="M-670-43.1l9.6-3.7-7.8-4.3-1.2.6z" id="XMLID_124_"/><path class="st0" d="M-670.4-50l-3.7 1.9.5 6.4 2.7-1z" id="XMLID_123_"/></g><g id="XMLID_94_"><path class="st0" d="M-672.3 1.2l.3-5.2-3.3-.1-.7 4.5z" id="XMLID_121_"/><path class="st0" d="M-675.2-4.9l5.2.2.9-4.4-5.5-.1z" id="XMLID_120_"/><path class="st0" d="M-683.6-5.3l7.6.3.2-1.6-6.3-1.6z" id="XMLID_119_"/><path class="st0" d="M-676.2-4.2l-3.2-.1-.6 2.3 3.4.6z" id="XMLID_118_"/><path class="st0" d="M-670 2.5l-6.1-1.3-.4 2.3 5.6 1.7z" id="XMLID_117_"/><path class="st0" d="M-684.5-5.3l1.6-3.1-3.8-.9c.7 1.3 1.4 2.6 2.2 4z" id="XMLID_116_"/><path class="st0" d="M-668.2 5l.8-1.9-1.7-.4-.6 1.5z" id="XMLID_115_"/><path class="st0" d="M-680.7.3c1 1.3 2.1 2.6 3.3 3.9l.7-4.8-3.6-.7-.4 1.6z" id="XMLID_114_"/><path class="st0" d="M-663.3-9.1l4.3 2.6 3.4-2.5z" id="XMLID_113_"/><path class="st0" d="M-671.1-4l-.4 5.4 3.2.7-.1-6z" id="XMLID_112_"/><path class="st0" d="M-670 5l-1.6 4.5-.4-.1c.2.2.4.4.7.5l4.2-3.3L-670 5z" id="XMLID_111_"/><path class="st0" d="M-656.7-4.3l-4.4-2.6-1.1 2.4z" id="XMLID_110_"/><path class="st0" d="M-669.1-4.7l6 .2 1.3-2.8-3-1.8h-3.4z" id="XMLID_109_"/><path class="st0" d="M-680.2-4.3l-3.7-.1c.8 1.3 1.7 2.6 2.7 3.9l1-3.8z" id="XMLID_108_"/><path class="st0" d="M-682.5-9.2l3.2-6.2-8.6 3.1c.3.7.6 1.3.9 2l4.5 1.1z" id="XMLID_107_"/><path class="st0" d="M-681.7-9l6 1.5.3-1.7h-2.5l-.8-5.7z" id="XMLID_105_"/><path class="st0" d="M-654.2-9l-4 3 3 1.8h.6c.9-1.5 1.9-3.1 2.7-4.7l-2.3-.1z" id="XMLID_104_"/><path class="st0" d="M-671.2 6l-5.4-1.6-.1.6c1.3 1.4 2.8 2.8 4.4 4.1l1.1-3.1z" id="XMLID_103_"/><path class="st0" d="M-662.7 4.1l-2.9 2.3 1.6.8c.9-.8 1.8-1.8 2.8-2.8l-1.5-.3z" id="XMLID_102_"/><path class="st0" d="M-662.7 1.2l-2.8-5h-2l.1 6.1 4 .8z" id="XMLID_101_"/><path class="st0" d="M-666.6 3.3l-.9 2.1 1.1.6 2.6-2.1z" id="XMLID_100_"/><path class="st0" d="M-669.4 9.4l-1.2 1c.4.3.7.6 1.1.9l.1-1.9z" id="XMLID_99_"/><path class="st0" d="M-664.7 7.8l-1.6-.9-2.4 1.9h.1l-.1 2.3c.8-.5 2.2-1.6 4-3.3z" id="XMLID_98_"/><path class="st0" d="M-660-3.6l-.8 2 2.6 2.4c1-1.3 2.1-2.7 3.1-4.2l-4.9-.2z" id="XMLID_97_"/><path class="st0" d="M-658.7 1.5l-2.4-2.3-1.6 4 2 .4c.7-.6 1.3-1.3 2-2.1z" id="XMLID_96_"/><path class="st0" d="M-660.9-3.6l-3.6-.1 2.2 3.9z" id="XMLID_95_"/></g><g id="XMLID_91_"><path class="st0" d="M-659.7-40.4l5.3-2-2-5.1-4.4 1.7z" id="XMLID_93_"/><path class="st0" d="M-661.6-45.5l-4.2 1.7 3.7 4.2 1.6-.6z" id="XMLID_92_"/></g><g id="XMLID_88_"><path class="st0" d="M-665-38.5l2-.8-3.6-4.2-4.3 1.7z" id="XMLID_90_"/><path class="st0" d="M-671.9-41.4l-1.6.6.5 5.2 7-2.6z" id="XMLID_89_"/></g><g id="XMLID_85_"><path class="st0" d="M-676.8-40.4l-4-5-2.7 2.3 1.3 4.8 1.4-.5v-.1l.4-.1z" id="XMLID_87_"/><path class="st0" d="M-676-40.7l1.6-.7-.7-8.8-5.1 4.3z" id="XMLID_86_"/></g></g><path id="XMLID_83_" class="st0" d="M-678.5-30.4l2.6 17.9 12.5.1 3.7-8.7L-670-20l1.9-14.2z"/><path class="st1" d="M-704.8-57h70v70h-70z"/><g id="XMLID_3_"><path class="st2" d="M-683.8 43.7l-.7-2.6-7.1 1.2c-.6 1.6-1 3.2-1.2 4.9l9-3.5z" id="XMLID_82_"/><path class="st2" d="M-675.1 41.2l-5.7 2.2 1 4.8 5.1-1.8z" id="XMLID_81_"/><path class="st2" d="M-684.8 40.4l-1.7-6.1c-2 2.1-3.6 4.5-4.8 7.2l6.5-1.1z" id="XMLID_80_"/><path class="st2" d="M-686.2 56.9l5.1-.9-.8-4.8-4.9 1.6z" id="XMLID_79_"/><path class="st2" d="M-687.7 46.1l.8 5.9 4.9-1.7-.2-1.2 1.6-.6-.9-4.8z" id="XMLID_78_"/><path class="st2" d="M-675 32.7l9.5-4.9c-1.4-.3-2.9-.4-4.4-.4-1.9 0-3.7.2-5.5.7l.4 4.6z" id="XMLID_77_"/><path class="st2" d="M-686 64.8l-.9-6.9-5.1 1c.4 2.2 1.1 4.7 2 7.4l4.4-1.6-.4.1z" id="XMLID_76_"/><path class="st2" d="M-654.7 33.2l-1.7.7 1.9 5.2 3.7-1.4c-1.1-1.7-2.4-3.2-3.9-4.5z" id="XMLID_75_"/><g id="XMLID_56_"><path class="st2" d="M-651.2 43.9l-3.3.6-1.9 4 4.8.8z" id="XMLID_74_"/><path class="st2" d="M-657.7 49.1l-3.6-.7-2.2 4.9 3.9-.3z" id="XMLID_73_"/><path class="st2" d="M-654.4 42.5l-5.5 2 3.5 2 1.4-2.7h-.1.1z" id="XMLID_72_"/><path class="st2" d="M-665.6 53.5l1.2-.1 2.3-5.1-2.5-.5z" id="XMLID_71_"/><path class="st2" d="M-651.9 53.2l-7.5 1.2-1.3 2.7 6.4-.9-.3.9 2.4-.5z" id="XMLID_70_"/><path class="st2" d="M-649 54.2l1.7.7c.1-.6.1-1.1.2-1.7.1-.5.1-1.1.1-1.6l-2 2.6z" id="XMLID_69_"/><path class="st2" d="M-652.6 62.9l-3.4 2-.1-.1.2 4.6h2.8z" id="XMLID_68_"/><path class="st2" d="M-655 58l-1.3 3h.1l.1 3 3.5-2.1.4-4.5z" id="XMLID_67_"/><path class="st2" d="M-651.7 50.1l-5.1-.9-2.1 4.3 7-1.1z" id="XMLID_66_"/><path class="st2" d="M-657 62.7l-2.7 6.7h3z" id="XMLID_65_"/><path class="st2" d="M-660 53.9l-5.7.5-.6 3.4 4.6-.6z" id="XMLID_64_"/><path class="st2" d="M-657.3 48.3l.6-1.1-4.2-2.3-3.4 1.2-.2.9z" id="XMLID_63_"/><path class="st2" d="M-652 65l-.3 4.5h1.1c.6-1.4 1.2-2.9 1.7-4.5h-2.5z" id="XMLID_62_"/><path class="st2" d="M-651.2 54.1l-.2 2.6.1.5h-.1l-.2 2.6 3.7-1.1c.2-1 .4-2 .5-3l-3.8-1.6z" id="XMLID_61_"/><path class="st2" d="M-648.1 59.6l-3.6 1-.3 3.5h2.6c.6-1.4 1-2.9 1.3-4.5z" id="XMLID_60_"/><path class="st2" d="M-654 43.6l5.6-1.2c-.2-.6-.5-1.2-.8-1.8l-4.2 1.5-.6 1.5z" id="XMLID_59_"/><path class="st2" d="M-651.1 53.3l1.4.6 2.8-3.7c0-.9-.1-1.9-.2-2.8l-3.5.3-.5 5.6z" id="XMLID_58_"/><path class="st2" d="M-650.4 43.7l-.2 3.1 3.3-.3c-.2-1.1-.5-2.2-.8-3.3l-2.3.5z" id="XMLID_57_"/></g><g id="XMLID_53_"><path class="st2" d="M-687.8 51.4l-.7-4.9-4.5 1.8c-.1.7-.1 1.5-.1 2.2v.5l5.3.4z" id="XMLID_55_"/><path class="st2" d="M-687.7 52.2l-5.3-.5v.1c.1 1.3.3 3.5.8 6.3l5.2-1-.7-4.9z" id="XMLID_54_"/></g><g id="XMLID_50_"><path class="st2" d="M-681.5 56.9l-4.6.9.8 6.4z" id="XMLID_52_"/><path class="st2" d="M-680.1 62.8l-.8-5.3-3.5 6.8z" id="XMLID_51_"/></g><g id="XMLID_47_"><path class="st2" d="M-679.6 33.4l3.5-3-.2-2.2c-1.7.5-3.3 1.2-4.8 2l1.5 3.2z" id="XMLID_49_"/><path class="st2" d="M-681.8 30.6c-1.4.9-2.8 1.9-4 3l1.2 4.1 4.4-3.8-1.6-3.3z" id="XMLID_48_"/></g><g id="XMLID_44_"><path class="st2" d="M-659.3 30l-4.6 2.5 3.6 2 4.8-1.9c-1.1-1-2.4-1.9-3.8-2.6z" id="XMLID_46_"/><path class="st2" d="M-660.2 29.5c-1.3-.6-2.7-1.1-4.1-1.5l-3.9 2 3.4 2 4.6-2.5z" id="XMLID_45_"/></g><g id="XMLID_41_"><path class="st2" d="M-670.8 38.6l9.5-3.7-7.8-4.3-1.2.6z" id="XMLID_43_"/><path class="st2" d="M-671.3 31.7l-3.7 1.9.6 6.4 2.6-1z" id="XMLID_42_"/></g><g id="XMLID_13_"><path class="st2" d="M-673.2 82.9l.4-5.2-3.4-.1-.7 4.5z" id="XMLID_40_"/><path class="st2" d="M-676.1 76.7l5.3.2.9-4.3-5.5-.1z" id="XMLID_39_"/><path class="st2" d="M-684.4 76.4l7.5.3.3-1.7-6.3-1.5z" id="XMLID_38_"/><path class="st2" d="M-677 77.5l-3.3-.1-.6 2.2 3.5.7z" id="XMLID_37_"/><path class="st2" d="M-670.8 84.2l-6.2-1.3-.3 2.3 5.5 1.7z" id="XMLID_36_"/><path class="st2" d="M-685.3 76.4l1.6-3.1-3.8-.9c.6 1.3 1.4 2.6 2.2 4z" id="XMLID_35_"/><path class="st2" d="M-669.1 86.7l.8-1.9-1.7-.4-.5 1.5z" id="XMLID_34_"/><path class="st2" d="M-681.6 82c1 1.3 2.1 2.6 3.3 3.9l.7-4.8-3.6-.7-.4 1.6z" id="XMLID_33_"/><path class="st2" d="M-664.2 72.6l4.4 2.6 3.4-2.5z" id="XMLID_32_"/><path class="st2" d="M-672 77.7l-.4 5.4 3.3.7-.1-6z" id="XMLID_31_"/><path class="st2" d="M-670.8 86.7l-1.6 4.5-.4-.2c.2.2.4.4.7.5l4.2-3.3-2.9-1.5z" id="XMLID_30_"/><path class="st2" d="M-657.6 77.4l-4.3-2.6-1.2 2.4z" id="XMLID_29_"/><path class="st2" d="M-670 77l6 .2 1.4-2.8-3.1-1.8h-3.4z" id="XMLID_28_"/><path class="st2" d="M-681.1 77.4l-3.7-.1c.8 1.3 1.7 2.6 2.7 3.9l1-3.8z" id="XMLID_27_"/><path class="st2" d="M-683.4 72.5l3.2-6.2-8.6 3.1c.3.7.6 1.3.9 2l4.5 1.1z" id="XMLID_26_"/><path class="st2" d="M-682.6 72.7l6.1 1.5.2-1.7-2.4-.1-.8-5.6z" id="XMLID_24_"/><path class="st2" d="M-655.1 72.7l-4 3 3 1.8h.6c.9-1.5 1.9-3.1 2.7-4.7l-2.3-.1z" id="XMLID_23_"/><path class="st2" d="M-672 87.7l-5.4-1.6-.1.6c1.3 1.4 2.8 2.8 4.4 4.1l1.1-3.1z" id="XMLID_22_"/><path class="st2" d="M-663.6 85.8l-2.9 2.3 1.6.8c.9-.8 1.8-1.8 2.8-2.8l-1.5-.3z" id="XMLID_21_"/><path class="st2" d="M-663.6 82.9l-2.7-5-2.1-.1.1 6.1 4 .9z" id="XMLID_20_"/><path class="st2" d="M-667.5 85l-.9 2.1 1.1.6 2.7-2.1z" id="XMLID_19_"/><path class="st2" d="M-670.3 91.1l-1.2 1c.4.3.7.6 1.1.9l.1-1.9z" id="XMLID_18_"/><path class="st2" d="M-665.5 89.5l-1.6-.9-2.4 1.9h.1l-.1 2.3c.7-.5 2.1-1.6 4-3.3z" id="XMLID_17_"/><path class="st2" d="M-660.9 78.1l-.8 2 2.6 2.4c1-1.3 2.1-2.7 3.1-4.2l-4.9-.2z" id="XMLID_16_"/><path class="st2" d="M-659.6 83.2l-2.4-2.3-1.6 4 2 .4c.7-.6 1.4-1.3 2-2.1z" id="XMLID_15_"/><path class="st2" d="M-661.7 78.1l-3.7-.1 2.2 3.9z" id="XMLID_14_"/></g><g id="XMLID_10_"><path class="st2" d="M-660.6 41.2l5.3-1.9-1.9-5.1-4.5 1.7z" id="XMLID_12_"/><path class="st2" d="M-662.5 36.2l-4.2 1.7 3.7 4.2 1.7-.6z" id="XMLID_11_"/></g><g id="XMLID_7_"><path class="st2" d="M-665.8 43.1l2-.7-3.7-4.2-4.3 1.7z" id="XMLID_9_"/><path class="st2" d="M-672.8 40.2l-1.5.7.4 5.2 7-2.6z" id="XMLID_8_"/></g><g id="XMLID_4_"><path class="st2" d="M-677.6 41.3l-4.1-5-2.6 2.3-.1-.1 1.3 4.9 1.4-.5v-.1l.4-.1z" id="XMLID_6_"/><path class="st2" d="M-676.8 41l1.6-.7-.8-8.9-5 4.4z" id="XMLID_5_"/></g></g><path id="XMLID_2_" class="st3" d="M-679.4 51.3l2.6 17.9 12.6.1 3.6-8.7-10.3 1 1.9-14.1z"/><path class="st1" d="M-704.8 25h70v70h-70z"/><linearGradient id="XMLID_164_" gradientUnits="userSpaceOnUse" x1="-498.818" y1="-241.114" x2="-457.752" y2="-282.181" gradientTransform="translate(0 322)"><stop offset="0" stop-color="#f05a44"/><stop offset="1" stop-color="#613e97"/></linearGradient><path id="XMLID_5189_" class="st4" d="M-474.1 68c2.2 2.2 2.2 5.8 0 8.1-1.1 1.1-2.6 1.7-4.1 1.7h-2.2c-1 0-2.2.6-2.8 1.2-.6.6-1.2 1.6-1.2 2.8v1.6c.2 1.6-.4 3.3-1.6 4.6-2.2 2.2-5.8 2.2-8.1 0-2.2-2.2-2.2-5.8 0-8.1 1.3-1.3 2.9-1.8 4.6-1.6h1.6c1.2 0 2.2-.6 2.8-1.2.6-.6 1.2-1.7 1.2-2.8v-2.2c0-1.5.5-3 1.7-4.1 2.3-2.3 5.9-2.3 8.1 0zm-22.1 1.8c0-1.2.7-2.2 1.2-2.8.6-.6 1.7-1.2 2.8-1.2h1.5c1.7.2 3.4-.3 4.7-1.6 2.2-2.2 2.2-5.8 0-8.1-1.1-1.1-2.6-1.7-4.1-1.7h-2.1c-1.1 0-2.2-.6-2.8-1.2-.6-.6-1.2-1.6-1.2-2.8v-1.6c.2-1.6-.4-3.3-1.6-4.6-2.2-2.2-5.8-2.2-8.1 0-2.2 2.2-2.2 5.8 0 8.1 1.3 1.3 2.9 1.8 4.6 1.6h1.6c1.2 0 2.2.7 2.8 1.2.6.6 1.2 1.7 1.2 2.8v4.4c0 1.1-.6 2.2-1.2 2.8s-1.6 1.2-2.8 1.2h-2.2c-1.5 0-2.9.6-4 1.7-2.2 2.2-2.2 5.8 0 8.1 2.2 2.2 5.8 2.2 8.1 0 1.2-1.2 1.7-2.9 1.6-4.4v-1.9zm41.8-3.5h-2.2c-1.1 0-2.2-.6-2.8-1.2s-1.2-1.6-1.2-2.8V58c0-1.2.7-2.2 1.2-2.8.6-.6 1.7-1.2 2.8-1.2h2.2c1.5 0 2.9-.5 4.1-1.7 2.2-2.2 2.2-5.8 0-8.1-2.2-2.2-5.8-2.2-8.1 0-1.1 1.1-1.7 2.6-1.7 4.1v2.2c0 1.1-.6 2.2-1.2 2.8-.6.6-1.6 1.2-2.8 1.2h-1.5c-1.7-.2-3.4.3-4.6 1.6-2.2 2.2-2.2 5.8 0 8.1 1.3 1.3 3 1.8 4.7 1.6h1.5c1.2 0 2.2.7 2.8 1.2.6.6 1.2 1.7 1.2 2.8v2.1c0 1.5.5 3 1.7 4.2 2.2 2.2 5.8 2.2 8.1 0 2.2-2.2 2.2-5.8 0-8.1-1.3-1.2-2.8-1.7-4.2-1.7zm-15.9 13.6c-2.2 2.2-2.2 5.8 0 8.1 2.2 2.2 5.8 2.2 8.1 0 2.2-2.2 2.2-5.8 0-8.1-2.3-2.3-5.9-2.3-8.1 0zM-486 40.4c2.2-2.2 2.2-5.8 0-8.1s-5.8-2.2-8.1 0-2.2 5.8 0 8.1c2.3 2.3 5.9 2.3 8.1 0zm11.9 11.9c1.3-1.3 1.8-3 1.6-4.6v-1.6c0-1.2.7-2.2 1.2-2.8.6-.6 1.7-1.2 2.8-1.2h2.1c1.5 0 3-.5 4.2-1.7 2.2-2.2 2.2-5.8 0-8.1-2.2-2.2-5.8-2.2-8.1 0-1.1 1.1-1.7 2.6-1.7 4v2.2c0 1.1-.6 2.2-1.2 2.8-.6.6-1.6 1.2-2.8 1.2h-1.8c-1.6-.1-3.2.4-4.4 1.6-2.2 2.2-2.2 5.8 0 8.1s5.8 2.3 8.1.1z"/><path class="st1" d="M-513.8 25h70v70h-70z"/><path id="XMLID_8469_" class="st0" d="M-474.2-13.7c2.2 2.2 2.2 5.8 0 8.1-1.1 1.1-2.6 1.7-4.1 1.7h-2.2c-1 0-2.2.6-2.8 1.2s-1.2 1.6-1.2 2.8v1.6c.2 1.6-.4 3.3-1.6 4.6-2.2 2.2-5.8 2.2-8.1 0-2.2-2.2-2.2-5.8 0-8.1 1.3-1.3 2.9-1.8 4.6-1.6h1.6c1.2 0 2.2-.6 2.8-1.2s1.2-1.7 1.2-2.8v-2.2c0-1.5.5-3 1.7-4.1 2.2-2.2 5.8-2.2 8.1 0zm-22.2 1.8c0-1.2.7-2.2 1.2-2.8.6-.6 1.7-1.2 2.8-1.2h1.5c1.7.2 3.4-.3 4.7-1.6 2.2-2.2 2.2-5.8 0-8.1-1.1-1.1-2.6-1.7-4.1-1.7h-2.1c-1.1 0-2.2-.6-2.8-1.2-.6-.6-1.2-1.6-1.2-2.8v-1.6c.2-1.6-.4-3.3-1.6-4.6-2.2-2.2-5.8-2.2-8.1 0-2.2 2.2-2.2 5.8 0 8.1 1.3 1.3 2.9 1.8 4.6 1.6h1.6c1.2 0 2.2.7 2.8 1.2.6.6 1.2 1.7 1.2 2.8v4.4c0 1.1-.6 2.2-1.2 2.8s-1.6 1.2-2.8 1.2h-2.2c-1.5 0-2.9.6-4 1.7-2.2 2.2-2.2 5.8 0 8.1 2.2 2.2 5.8 2.2 8.1 0 1.2-1.2 1.7-2.9 1.6-4.4v-1.9zm41.8-3.5h-2.2c-1.1 0-2.2-.6-2.8-1.2s-1.2-1.6-1.2-2.8v-4.3c0-1.2.7-2.2 1.2-2.8.6-.6 1.7-1.2 2.8-1.2h2.2c1.5 0 2.9-.5 4.1-1.7 2.2-2.2 2.2-5.8 0-8.1-2.2-2.2-5.8-2.2-8.1 0-1.1 1.1-1.7 2.6-1.7 4.1v2.2c0 1.1-.6 2.2-1.2 2.8-.6.6-1.6 1.2-2.8 1.2h-1.5c-1.7-.2-3.4.3-4.6 1.6-2.2 2.2-2.2 5.8 0 8.1 1.3 1.3 3 1.8 4.7 1.6h1.5c1.2 0 2.2.7 2.8 1.2.6.6 1.2 1.7 1.2 2.8v2.1c0 1.5.5 3 1.7 4.2 2.2 2.2 5.8 2.2 8.1 0 2.2-2.2 2.2-5.8 0-8.1-1.2-1.1-2.7-1.7-4.2-1.7zm-15.9 13.6c-2.2 2.2-2.2 5.8 0 8.1 2.2 2.2 5.8 2.2 8.1 0 2.2-2.2 2.2-5.8 0-8.1s-5.8-2.3-8.1 0zm-15.6-39.4c2.2-2.2 2.2-5.8 0-8.1s-5.8-2.2-8.1 0c-2.2 2.2-2.2 5.8 0 8.1 2.2 2.2 5.8 2.2 8.1 0zm11.8 11.8c1.3-1.3 1.8-3 1.6-4.6v-1.6c0-1.2.7-2.2 1.2-2.8.6-.6 1.7-1.2 2.8-1.2h2.1c1.5 0 3-.5 4.2-1.7 2.2-2.2 2.2-5.8 0-8.1-2.2-2.2-5.8-2.2-8.1 0-1.1 1.1-1.7 2.6-1.7 4v2.2c0 1.1-.6 2.2-1.2 2.8s-1.6 1.2-2.8 1.2h-1.8c-1.6-.1-3.2.4-4.4 1.6-2.2 2.2-2.2 5.8 0 8.1 2.3 2.3 5.9 2.3 8.1.1z"/><path class="st1" d="M-513.8-57h70v70h-70zm179 82h70v70h-70z"/><path class="st5" d="M-288.7 55.2c-1.6 0-3.2-.6-4.5-1.9-2.4-2.5-2.3-6.4.1-8.8l11.5-11.1c2.5-2.4 6.4-2.3 8.8.1 2.4 2.5 2.3 6.4-.1 8.8l-11.5 11.1c-1.2 1.2-2.8 1.8-4.3 1.8z"/><path class="st6" d="M-277.9 88.8c-1.6 0-3.1-.6-4.3-1.8l-11.5-11.1c-2.5-2.4-2.5-6.3-.1-8.8 2.4-2.5 6.3-2.5 8.8-.1l11.5 11.1c2.5 2.4 2.5 6.3.1 8.8-1.3 1.2-2.9 1.9-4.5 1.9z"/><path class="st7" d="M-320.8 88.9c-1.5 0-3-.5-4.2-1.6-2.6-2.3-2.8-6.2-.4-8.8l16.5-18.3-16.5-18.3c-2.3-2.6-2.1-6.5.4-8.8 2.6-2.3 6.5-2.1 8.8.4l20.3 22.5c2.1 2.4 2.1 6 0 8.4l-20.3 22.5c-1.2 1.3-2.9 2-4.6 2z"/><path class="st1" d="M-334.8-57h70v70h-70z"/><path class="st0" d="M-288.7-26.8c-1.6 0-3.2-.6-4.5-1.9-2.4-2.5-2.3-6.4.1-8.8l11.5-11.1c2.5-2.4 6.4-2.3 8.8.1 2.4 2.5 2.3 6.4-.1 8.8l-11.5 11.1c-1.2 1.2-2.8 1.8-4.3 1.8zm10.8 33.6c-1.6 0-3.1-.6-4.3-1.8l-11.5-11.1c-2.5-2.4-2.5-6.3-.1-8.8 2.4-2.5 6.3-2.5 8.8-.1l11.5 11.1c2.5 2.4 2.5 6.3.1 8.8-1.3 1.2-2.9 1.9-4.5 1.9zm-42.9.1c-1.5 0-3-.5-4.2-1.6-2.6-2.3-2.8-6.2-.4-8.8l16.5-18.3-16.5-18.3c-2.3-2.6-2.1-6.5.4-8.8 2.6-2.3 6.5-2.1 8.8.4l20.3 22.5c2.1 2.4 2.1 6 0 8.4l-20.3 22.5c-1.2 1.3-2.9 2-4.6 2zm-229.8-35.6h-5v13.5h9.3v-4.3h-4.3zm-10.4 9.2v-9.2h-4.9v4.7l-7 4.4-1.4-.8 7-4.4-3.1-2-7 4.4-1.2-.8 7-4.4-3.1-2-7.9 5c-1.1-2.9-4-4.1-7.5-4.1h-5.4v13.6h6.6c3.1 0 5.5-1.6 6.4-4.2l7.9 5 8.8-5.5v4.8h9.3v-4.4l-4.5-.1zm-29.1.3h-.7v-5.3h.7c1.8 0 2.9.8 2.9 2.7 0 1.8-1.3 2.6-2.9 2.6z"/><circle class="st8" cx="-570.8" cy="-22" r="31"/><path class="st1" d="M-605.8-57h70v70h-70z"/><path class="st9" d="M-550.6 53.2h-4.9v13.6h9.3v-4.3h-4.4zm-10.4 9.3v-9.2h-4.9V58l-7 4.4-1.4-.8 7-4.4-3.1-2-7 4.4-1.2-.9 7-4.4-3.1-2-7.9 5c-1.1-2.9-4-4.1-7.5-4.1h-5.4v13.6h6.6c3.1 0 5.5-1.6 6.4-4.2l7.9 5 8.8-5.5v4.8h9.3v-4.4h-4.5zm-29.1.2h-.7v-5.3h.7c1.8 0 2.9.8 2.9 2.7 0 1.9-1.2 2.6-2.9 2.6z"/><circle class="st10" cx="-570.8" cy="60" r="31"/><path class="st1" d="M-605.8 25h70v70h-70z"/><path class="st11" d="M546-361l36.7-35.8"/><path class="st12" d="M544-289l36.7 35.7"/><path class="st13" d="M443.1-397.3l65.1 72.1-65.1 72.2"/><path class="st5" d="M781-341c-5.2 0-10.4-2-14.3-6.1-7.7-7.9-7.5-20.6.4-28.3l36.7-35.7c7.9-7.7 20.6-7.5 28.3.4s7.5 20.6-.4 28.3L795-346.7c-4 3.8-9 5.7-14 5.7z"/><path class="st6" d="M815.7-233.3c-5 0-10.1-1.9-13.9-5.7l-36.7-35.7c-7.9-7.7-8.1-20.4-.4-28.3s20.4-8.1 28.3-.4l36.7 35.7c7.9 7.7 8.1 20.4.4 28.3-4 4.1-9.2 6.1-14.4 6.1z"/><path class="st7" d="M678-233c-4.8 0-9.6-1.7-13.4-5.2-8.2-7.4-8.8-20-1.4-28.2l53.1-58.8-53.1-58.7c-7.4-8.2-6.8-20.8 1.4-28.2 8.2-7.4 20.8-6.8 28.2 1.4l65.2 72.2c6.9 7.6 6.9 19.2 0 26.8l-65.2 72.2c-3.9 4.3-9.3 6.5-14.8 6.5z"/><path class="st1" d="M-420.8-57h70v70h-70z"/><path class="st0" d="M-374.7-26.8c-1.6 0-3.2-.6-4.5-1.9-2.4-2.5-2.3-6.4.1-8.8l11.5-11.1c2.5-2.4 6.4-2.3 8.8.1 2.4 2.4 2.3 6.4-.1 8.8l-11.5 11.1c-1.2 1.2-2.8 1.8-4.3 1.8zm10.8 33.6c-1.6 0-3.1-.6-4.3-1.8l-11.5-11.1c-2.5-2.4-2.5-6.3-.1-8.8s6.3-2.5 8.8-.1l11.5 11.1c2.5 2.4 2.5 6.3.1 8.8-1.3 1.2-2.9 1.9-4.5 1.9zm-42.9.1c-1.5 0-3-.5-4.2-1.6-2.6-2.3-2.8-6.2-.4-8.8l16.5-18.3-16.5-18.3c-2.3-2.6-2.1-6.5.4-8.8 2.6-2.3 6.5-2.1 8.8.4l20.3 22.5c2.1 2.4 2.1 6 0 8.4l-20.3 22.5c-1.2 1.3-2.9 2-4.6 2z"/><path class="st1" d="M-420.8 25h70v70h-70z"/><path class="st5" d="M-374.7 55.2c-1.6 0-3.2-.6-4.5-1.9-2.4-2.5-2.3-6.4.1-8.8l11.5-11.1c2.5-2.4 6.4-2.3 8.8.1 2.4 2.5 2.3 6.4-.1 8.8l-11.5 11.1c-1.2 1.2-2.8 1.8-4.3 1.8z"/><path class="st6" d="M-363.9 88.8c-1.6 0-3.1-.6-4.3-1.8l-11.5-11.1c-2.5-2.4-2.5-6.3-.1-8.8s6.3-2.5 8.8-.1l11.5 11.1c2.5 2.4 2.5 6.3.1 8.8-1.3 1.2-2.9 1.9-4.5 1.9z"/><path class="st7" d="M-406.8 88.9c-1.5 0-3-.5-4.2-1.6-2.6-2.3-2.8-6.2-.4-8.8l16.5-18.3-16.5-18.3c-2.3-2.6-2.1-6.5.4-8.8 2.6-2.3 6.5-2.1 8.8.4l20.3 22.5c2.1 2.4 2.1 6 0 8.4l-20.3 22.5c-1.2 1.3-2.9 2-4.6 2z"/><g id="XMLID_1650_"><circle id="XMLID_1659_" class="st14" cx="-186.3" cy="-30.5" r="26.5"/><g id="XMLID_1651_"><g id="XMLID_1652_"><path id="XMLID_1656_" class="st15" d="M-179.1-42.6l2-2c.5-.5.5-1.4 0-2l-.1-.1c-.5-.5-1.4-.5-2 0l-2.1 2.1c-1.6-1.1-3.6-1.7-5.7-1.7-5.7 0-10.4 4.7-10.4 10.4s4.7 10.4 10.4 10.4 10.4-4.7 10.4-10.4c0-2.5-.9-4.9-2.5-6.7zm-7.8 14.2c-4.1 0-7.4-3.3-7.4-7.4s3.3-7.4 7.4-7.4 7.4 3.3 7.4 7.4-3.3 7.4-7.4 7.4z"/><g id="XMLID_1653_"><g id="XMLID_1654_"><path id="XMLID_1655_" class="st16" d="M-176.6-11.5c-.8 0-1.4-.6-1.4-1.4 0-4.2-2.7-8-6.8-8.9-3.3-.8-6.6.3-8.8 2.7-.5.5-1.3.7-1.9.3-.7-.5-.8-1.5-.2-2.2 2.6-2.9 6.5-4.4 10.5-3.8 5.8.9 10 6.1 10 12 0 .7-.6 1.3-1.4 1.3z"/></g></g></g></g></g><path id="XMLID_4021_" class="st17" d="M0 0h130v50H0z"/><path class="st1" d="M41.5 1.5h47v47h-47z"/><path class="st5" d="M72.4 21.8c-1.1 0-2.1-.4-3-1.3-1.6-1.7-1.5-4.3.1-5.9l7.7-7.4c1.7-1.6 4.3-1.5 5.9.1 1.6 1.7 1.5 4.3-.1 5.9l-7.7 7.4c-.8.8-1.8 1.2-2.9 1.2z"/><path class="st6" d="M79.7 44.3c-1.1 0-2.1-.4-2.9-1.2l-7.7-7.4c-1.7-1.6-1.7-4.2-.1-5.9 1.6-1.7 4.2-1.7 5.9-.1l7.7 7.4c1.7 1.6 1.7 4.2.1 5.9-.9.8-1.9 1.3-3 1.3z"/><path class="st7" d="M50.9 44.4c-1 0-2-.3-2.8-1.1-1.7-1.5-1.9-4.2-.3-5.9l11.1-12.3-11.1-12.2c-1.5-1.7-1.4-4.4.3-5.9s4.4-1.4 5.9.3l13.6 15.1c1.4 1.6 1.4 4 0 5.6L54 43c-.8.9-1.9 1.4-3.1 1.4z"/><path id="XMLID_4019_" class="st17" d="M130.4 0h130v50h-130z"/><path class="st18" d="M210.2 20.1h-3.6V30h6.8v-3.2h-3.2v-6.7zm-7.6 6.7v-6.7H199v3.4l-5.1 3.2-1.1-.6 5.1-3.2-2.3-1.5-5.1 3.2-.9-.6 5.1-3.2-2.3-1.4-5.8 3.6c-.8-2.1-2.9-3-5.5-3h-3.9v10h4.8c2.3 0 4.1-1.2 4.7-3.1l5.8 3.7 6.5-4.1V30h6.8v-3.2h-3.2zm-21.3.2h-.5v-3.8h.5c1.3 0 2.1.6 2.1 2 0 1.3-.9 1.8-2.1 1.8z"/><circle class="st19" cx="195.4" cy="25" r="22.7"/><path id="XMLID_4017_" class="st17" d="M260.7 0h130v50h-130z"/><g id="XMLID_384_"><path class="st0" d="M315.6 13l-.5-1.9-5.2.9c-.4 1.1-.7 2.3-.9 3.6l6.6-2.6z" id="XMLID_801_"/><path class="st0" d="M322 11.1l-4.1 1.6.7 3.6 3.7-1.4z" id="XMLID_800_"/><path class="st0" d="M314.9 10.5l-1.2-4.4c-1.5 1.5-2.7 3.3-3.5 5.2l4.7-.8z" id="XMLID_799_"/><path class="st0" d="M313.8 22.7l3.8-.8-.6-3.5-3.6 1.3z" id="XMLID_798_"/><path class="st0" d="M312.8 14.7l.6 4.3 3.6-1.2-.2-.9 1.2-.4-.7-3.5z" id="XMLID_797_"/><path class="st0" d="M322 4.9l6.9-3.6c-1.1-.2-2.1-.3-3.2-.3-1.4 0-2.7.2-4 .5l.3 3.4z" id="XMLID_796_"/><path class="st0" d="M314 28.4l-.7-5-3.7.7c.3 1.6.8 3.4 1.5 5.4l3.2-1.1h-.3z" id="XMLID_795_"/><path class="st0" d="M336.9 5.2l-1.3.5 1.4 3.8 2.7-1c-.7-1.2-1.7-2.3-2.8-3.3z" id="XMLID_794_"/><g id="XMLID_775_"><path class="st0" d="M339.5 13.1l-2.4.5-1.4 2.8 3.5.7z" id="XMLID_793_"/><path class="st0" d="M334.8 16.9l-2.7-.5-1.6 3.6 2.8-.2z" id="XMLID_792_"/><path class="st0" d="M337.1 12.1l-3.9 1.4 2.5 1.5 1-1.9V13z" id="XMLID_791_"/><path class="st0" d="M329 20.1h.8l1.7-3.8-1.8-.3z" id="XMLID_790_"/><path class="st0" d="M339 19.9l-5.5.9-1 1.9 4.7-.6-.2.7 1.8-.4z" id="XMLID_789_"/><path class="st0" d="M341.1 20.6l1.2.5c0-.4.1-.8.1-1.2 0-.4.1-.8.1-1.2l-1.4 1.9z" id="XMLID_788_"/><path class="st0" d="M338.4 27l-2.4 1.5-.1-.1.2 3.4h2z" id="XMLID_787_"/><path class="st0" d="M336.7 23.4l-.9 2.3.1 2.1 2.6-1.5.2-3.3z" id="XMLID_786_"/><path class="st0" d="M339.1 17.7l-3.7-.7-1.6 3.1 5.2-.8z" id="XMLID_785_"/><path class="st0" d="M335.3 26.9l-2 4.8 2.2.1z" id="XMLID_784_"/><path class="st0" d="M333 20.4l-4.1.4-.5 2.5 3.4-.5z" id="XMLID_783_"/><path class="st0" d="M335 16.3l.4-.8-3-1.7-2.5.9-.1.7z" id="XMLID_782_"/><path class="st0" d="M338.9 28.5l-.2 3.3h.8c.4-1 .9-2.1 1.2-3.3h-1.8z" id="XMLID_781_"/><path class="st0" d="M339.5 20.6l-.1 1.9.1.3h-.1l-.1 1.9 2.7-.8c.1-.7.3-1.4.4-2.2l-2.9-1.1z" id="XMLID_780_"/><path class="st0" d="M341.8 24.6l-2.6.8-.2 2.6h1.9c.3-1.1.6-2.2.9-3.4z" id="XMLID_779_"/><path class="st0" d="M337.4 12.9l4.1-.8c-.2-.5-.4-.9-.6-1.3l-3 1.1-.5 1z" id="XMLID_778_"/><path class="st0" d="M339.6 20l1 .4 2-2.7c0-.7-.1-1.4-.1-2.1l-2.6.2-.3 4.2z" id="XMLID_777_"/><path class="st0" d="M340.1 12.9l-.2 2.3 2.4-.2c-.1-.8-.3-1.6-.6-2.4l-1.6.3z" id="XMLID_776_"/></g><g id="XMLID_772_"><path class="st0" d="M312.7 18.6l-.5-3.6-3.3 1.3c-.1.5-.1 1.1-.1 1.6v.3l3.9.4z" id="XMLID_774_"/><path class="st0" d="M312.8 19.2l-3.9-.4v.1c.1 1 .2 2.6.6 4.6l3.8-.7-.5-3.6z" id="XMLID_773_"/></g><g id="XMLID_769_"><path class="st0" d="M317.3 22.6l-3.4.6.6 4.7z" id="XMLID_771_"/><path class="st0" d="M318.3 26.9l-.6-3.8-2.5 4.9z" id="XMLID_770_"/></g><g id="XMLID_766_"><path class="st0" d="M318.7 5.4l2.6-2.2-.1-1.6c-1.2.4-2.4.8-3.5 1.5l1 2.3z" id="XMLID_768_"/><path class="st0" d="M317.1 3.4c-1 .6-2 1.4-2.9 2.2l.8 3 3.2-2.8-1.1-2.4z" id="XMLID_767_"/></g><g id="XMLID_763_"><path class="st0" d="M333.5 2.9l-3.3 1.8 2.7 1.5 3.5-1.4c-.9-.7-1.8-1.3-2.9-1.9z" id="XMLID_765_"/><path class="st0" d="M332.9 2.6c-1-.4-2-.8-3-1.1L327 3l2.5 1.4 3.4-1.8z" id="XMLID_764_"/></g><g id="XMLID_760_"><path class="st0" d="M325.1 9.2l7-2.7-5.7-3.2-.9.5z" id="XMLID_762_"/><path class="st0" d="M324.8 4.2l-2.7 1.4.4 4.7 1.9-.8z" id="XMLID_761_"/></g><g id="XMLID_732_"><path class="st0" d="M323.4 41.6l.3-3.8-2.5-.1-.5 3.4z" id="XMLID_759_"/><path class="st0" d="M321.3 37.1l3.8.2.7-3.2-4.1-.1z" id="XMLID_758_"/><path class="st0" d="M315.2 36.9l5.5.2.2-1.2-4.6-1.1z" id="XMLID_757_"/><path class="st0" d="M320.6 37.7l-2.4-.1-.4 1.7 2.5.4z" id="XMLID_756_"/><path class="st0" d="M325.1 42.6l-4.5-.9-.2 1.7 4 1.2z" id="XMLID_755_"/><path class="st0" d="M314.5 36.9l1.2-2.3-2.8-.7c.5 1 1 2 1.6 3z" id="XMLID_754_"/><path class="st0" d="M326.4 44.4l.6-1.4-1.3-.2-.4 1.1z" id="XMLID_753_"/><path class="st0" d="M317.3 41c.7 1 1.5 1.9 2.4 2.8l.5-3.5-2.6-.5-.3 1.2z" id="XMLID_752_"/><path class="st0" d="M330 34.1l3.2 1.9 2.4-1.8z" id="XMLID_751_"/><path class="st0" d="M324.3 37.9l-.3 3.9 2.4.5-.1-4.4z" id="XMLID_750_"/><path class="st0" d="M325.1 44.4l-1.2 3.3-.3-.1c.2.1.3.3.5.4l3.1-2.4-2.1-1.2z" id="XMLID_749_"/><path class="st0" d="M334.8 37.6l-3.2-1.9-.8 1.8z" id="XMLID_748_"/><path class="st0" d="M325.7 37.3l4.4.2 1-2.1-2.2-1.3h-2.5z" id="XMLID_747_"/><path class="st0" d="M317.6 37.6l-2.7-.1c.6 1 1.2 1.9 2 2.9l.7-2.8z" id="XMLID_746_"/><path class="st0" d="M315.9 34.1l2.3-4.5-6.3 2.3.6 1.5 3.4.7z" id="XMLID_745_"/><path class="st0" d="M316.5 34.2l4.4 1.1.2-1.3h-1.8l-.6-4.1z" id="XMLID_743_"/><path class="st0" d="M336.6 34.2l-2.9 2.2 2.2 1.3h.4c.7-1.1 1.4-2.2 2-3.5h-1.7z" id="XMLID_742_"/><path class="st0" d="M324.2 45.2l-4-1.2-.1.5c1 1 2.1 2 3.2 3l.9-2.3z" id="XMLID_741_"/><path class="st0" d="M330.4 43.8l-2.1 1.7 1.2.6c.6-.6 1.3-1.3 2-2.1l-1.1-.2z" id="XMLID_740_"/><path class="st0" d="M330.4 41.7l-2-3.7h-1.5l.1 4.4 2.9.6z" id="XMLID_739_"/><path class="st0" d="M327.6 43.2l-.7 1.5.8.4 2-1.5z" id="XMLID_738_"/><path class="st0" d="M325.5 47.7l-.9.7c.3.2.5.4.8.6l.1-1.3z" id="XMLID_737_"/><path class="st0" d="M329 46.5l-1.2-.6-1.7 1.4h.1l-.1 1.7c.5-.4 1.6-1.3 2.9-2.5z" id="XMLID_736_"/><path class="st0" d="M332.4 38.2l-.6 1.4 1.9 1.8c.8-1 1.5-2 2.3-3.1l-3.6-.1z" id="XMLID_735_"/><path class="st0" d="M333.4 41.9l-1.7-1.6-1.1 3 1.5.3c.3-.6.8-1.2 1.3-1.7z" id="XMLID_734_"/><path class="st0" d="M331.8 38.1l-2.7-.1 1.6 2.9z" id="XMLID_733_"/></g><g id="XMLID_729_"><path class="st0" d="M332.6 11.2l3.9-1.4-1.4-3.8-3.3 1.3z" id="XMLID_731_"/><path class="st0" d="M331.2 7.5l-3 1.2 2.7 3.1 1.2-.4z" id="XMLID_730_"/></g><g id="XMLID_726_"><path class="st0" d="M328.8 12.6l1.4-.6-2.6-3.1-3.2 1.2z" id="XMLID_728_"/><path class="st0" d="M323.7 10.4l-1.2.5.4 3.8 5.1-1.9z" id="XMLID_727_"/></g><g id="XMLID_723_"><path class="st0" d="M320.1 11.2l-2.9-3.6-2 1.6 1 3.5 1-.3v-.1l.3-.1z" id="XMLID_725_"/><path class="st0" d="M320.7 11l1.2-.5-.6-6.5-3.7 3.2z" id="XMLID_724_"/></g></g><path id="XMLID_265_" class="st0" d="M318.8 18.5l2 13.1 9.1.1 2.7-6.4-7.5.8 1.4-10.4z"/></svg>