<svg id="Layer_1" xmlns="http://www.w3.org/2000/svg" viewBox="0 0 59 59"><style>.st0{fill:#fff}</style><g id="XMLID_1650_"><g id="XMLID_1651_"><g id="XMLID_1652_"><path id="XMLID_1656_" class="st0" d="M36.7 17.4l2-2c.5-.5.5-1.4 0-2l-.1-.1c-.5-.5-1.4-.5-2 0l-2.1 2.1c-1.6-1.1-3.6-1.7-5.7-1.7-5.7 0-10.4 4.7-10.4 10.4s4.7 10.4 10.4 10.4 10.4-4.7 10.4-10.4c0-2.5-.9-4.9-2.5-6.7zm-7.8 14.2c-4.1 0-7.4-3.3-7.4-7.4s3.3-7.4 7.4-7.4 7.4 3.3 7.4 7.4-3.3 7.4-7.4 7.4z"/><g id="XMLID_1653_"><g id="XMLID_1654_"><path id="XMLID_1655_" class="st0" d="M39.2 48.5c-.8 0-1.4-.6-1.4-1.4 0-4.2-2.7-8-6.8-8.9-3.3-.8-6.6.3-8.8 2.7-.5.5-1.3.7-1.9.3-.7-.5-.8-1.5-.2-2.2 2.6-2.9 6.5-4.4 10.5-3.8 5.8.9 10 6.1 10 12 0 .7-.6 1.3-1.4 1.3z"/></g></g></g></g></g></svg>