<?xml version="1.0" encoding="UTF-8"?>
<svg width="60px" height="31px" viewBox="0 0 60 31" version="1.1" xmlns="http://www.w3.org/2000/svg" xmlns:xlink="http://www.w3.org/1999/xlink">
    <!-- Generator: Sketch 49.3 (51167) - http://www.bohemiancoding.com/sketch -->
    <title>Page 1 Copy 3</title>
    <desc>Created with Sketch.</desc>
    <defs>
        <polygon id="path-1" points="0 0.243322807 12.266625 0.243322807 12.266625 30.455814 0 30.455814"></polygon>
        <polygon id="path-3" points="0.0882321429 0.508780702 4.77482143 0.508780702 4.77482143 6.34765789 0.0882321429 6.34765789"></polygon>
    </defs>
    <g id="ASSETS" stroke="none" stroke-width="1" fill="none" fill-rule="evenodd">
        <g id="v" transform="translate(-602.000000, -72.000000)">
            <g id="Page-1-Copy-3" transform="translate(602.000000, 72.000000)">
                <g id="Group-3" transform="translate(0.000000, 0.300754)">
                    <mask id="mask-2" fill="white">
                        <use xlink:href="#path-1"></use>
                    </mask>
                    <g id="Clip-2"></g>
                    <path d="M12.2569821,29.3322 C11.0510893,30.0473754 9.64698214,30.455814 8.14966071,30.455814 C3.649125,30.455814 0.0143035714,26.8587263 -0.000160714286,22.1826211 C-0.0135535714,17.6174632 1.94555357,14.2819719 3.87948214,10.5021474 C6.75948214,4.87646316 7.82769643,2.85384912 8.09930357,0.243322807 C8.09930357,0.243322807 9.43966071,1.89774386 9.240375,4.17760351 C9.10323214,5.74990175 8.10144643,8.55186667 6.82966071,11.6453404 C5.80591071,14.1351298 4.63269643,16.6776737 4.02573214,18.6654807 C3.40001786,20.7158316 3.35180357,22.0917965 3.75841071,23.787007 C3.90680357,24.4053754 4.13823214,25.0291825 4.455375,25.5964281 C6.74126786,29.6791825 11.8675179,29.3925684 12.266625,29.3273053 L12.2569821,29.3322 Z" id="Fill-1" fill="#EC1944" mask="url(#mask-2)"></path>
                </g>
                <path d="M12.0812143,19.3800579 C13.3556786,20.2997246 13.2844286,21.5250404 13.2844286,21.5250404 C13.2844286,22.9477772 12.1481786,24.1013035 10.7472857,24.1013035 C9.34585714,24.1013035 8.20907143,22.9477772 8.20907143,21.5250404 C8.20907143,21.3640579 8.26264286,21.007286 8.26264286,21.007286 C8.66067857,18.9112509 10.7028214,14.8904965 11.3328214,12.2739877 C12.0024643,9.48888246 10.1644286,6.81363684 10.1644286,6.81363684 C10.1644286,6.81363684 10.5988929,7.8061807 7.93692857,13.8734789 C6.69996429,16.6923035 5.94032143,18.4946544 5.54335714,19.6073912 C5.12067857,20.7913737 5.13032143,21.7360579 5.13032143,22.0748825 C5.13032143,25.2156719 7.64764286,27.7598474 10.7456786,27.7419 C13.8056786,27.7234088 16.3021071,25.1683561 16.2951429,22.0623737 C16.2887143,18.9776018 13.6540714,17.0354789 12.078,16.0788298 C11.1421071,15.5099526 11.1421071,14.6180228 11.1421071,14.6180228 L10.7344286,15.934707 C10.2860357,17.4172684 10.8340714,18.5174965 11.8899643,19.2446368 C11.9547857,19.2897772 12.0190714,19.3349175 12.0812143,19.3800579" id="Fill-4" fill="#EC1944"></path>
                <path d="M20.9989286,11.2168877 C21.19875,11.2168877 21.3610714,11.3816772 21.3610714,11.5845368 L21.3610714,17.8351158 C21.3610714,18.0439579 21.4173214,18.2076596 21.5314286,18.3267649 C21.645,18.4458702 21.8046429,18.5051509 22.0108929,18.5051509 C22.0885714,18.5051509 22.18125,18.4948175 22.2873214,18.4730632 C22.2889286,18.4725193 22.29,18.4725193 22.2916071,18.4719754 C22.4571429,18.4382561 22.6189286,18.5410456 22.6553571,18.7085544 C22.6901786,18.8722561 22.5910714,19.0343263 22.4308929,19.0751158 C22.3644643,19.0925193 22.29375,19.1077474 22.2182143,19.1218877 C22.0226786,19.1577825 21.8544643,19.1757298 21.7125,19.1757298 C21.37875,19.1757298 21.11625,19.0805544 20.9239286,18.8891158 C20.7326786,18.6982211 20.63625,18.4295544 20.63625,18.0836596 L20.63625,11.5845368 C20.63625,11.3816772 20.7985714,11.2168877 20.9989286,11.2168877" id="Fill-6" fill="#191919"></path>
                <path d="M24.0338036,18.7432526 L24.0338036,13.8447088 C24.0338036,13.6418491 24.196125,13.4770596 24.3964821,13.4770596 C24.5963036,13.4770596 24.758625,13.6418491 24.758625,13.8447088 L24.758625,18.7432526 C24.758625,18.9466561 24.5963036,19.1109018 24.3964821,19.1109018 C24.196125,19.1109018 24.0338036,18.9466561 24.0338036,18.7432526 M24.0338036,11.9308667 L24.0338036,11.5844281 C24.0338036,11.3815684 24.196125,11.2167789 24.3964821,11.2167789 C24.5963036,11.2167789 24.758625,11.3815684 24.758625,11.5844281 L24.758625,11.9308667 C24.758625,12.1337263 24.5963036,12.2985158 24.3964821,12.2985158 C24.196125,12.2985158 24.0338036,12.1337263 24.0338036,11.9308667" id="Fill-8" fill="#191919"></path>
                <path d="M29.4668036,18.5794421 C29.5150179,18.7290035 29.4410893,18.8910737 29.2980536,18.9503544 C29.2123393,18.9862491 29.1276964,19.0199684 29.0821607,19.0351965 C28.9760893,19.0716351 28.8550179,19.1037228 28.7200179,19.1325474 C28.5850179,19.1613719 28.4435893,19.1760561 28.2946607,19.1760561 C28.1382321,19.1760561 27.9887679,19.1543018 27.8468036,19.1113368 C27.7048393,19.0678281 27.5805536,19.0009333 27.4739464,18.9106526 C27.3673393,18.8209158 27.2821607,18.7072491 27.2184107,18.5701965 C27.1546607,18.4331439 27.1225179,18.2748807 27.1225179,18.0943193 L27.1225179,14.0610561 L26.6430536,14.0610561 C26.4844821,14.0610561 26.355375,13.9305298 26.355375,13.7690035 C26.355375,13.6074772 26.4844821,13.4769509 26.6430536,13.4769509 L27.1225179,13.4769509 L27.1225179,11.9416351 C27.1225179,11.7382316 27.2848393,11.573986 27.4846607,11.573986 C27.6844821,11.573986 27.8468036,11.7382316 27.8468036,11.9416351 L27.8468036,13.4769509 L28.8373393,13.4769509 C28.9964464,13.4769509 29.1250179,13.6074772 29.1250179,13.7690035 C29.1250179,13.9305298 28.9964464,14.0610561 28.8373393,14.0610561 L27.8468036,14.0610561 L27.8468036,17.8887404 C27.8607321,18.0981263 27.9335893,18.2509509 28.065375,18.3488456 C28.196625,18.4456526 28.3471607,18.4946 28.5180536,18.4946 C28.7237679,18.4946 28.9048393,18.4603368 29.0612679,18.3918105 C29.0623393,18.3912667 29.0639464,18.3907228 29.0655536,18.3896351 C29.2257321,18.3194772 29.4105536,18.4037754 29.464125,18.5712842 L29.4668036,18.5794421 Z" id="Fill-10" fill="#191919"></path>
                <path d="M33.56625,18.5759614 C33.615,18.7271544 33.54,18.8914 33.3948214,18.9517684 C33.3107143,18.9865754 33.2276786,19.0197509 33.1826786,19.0355228 C33.0766071,19.0714175 32.9555357,19.1040491 32.8205357,19.1323298 C32.6855357,19.1611544 32.5441071,19.1758386 32.3941071,19.1758386 C32.2382143,19.1758386 32.0892857,19.1540842 31.9473214,19.1111193 C31.8053571,19.0676105 31.6805357,19.0012596 31.5744643,18.9109789 C31.4678571,18.8206982 31.3826786,18.7075754 31.3189286,18.5705228 C31.2551786,18.4334702 31.2230357,18.2746632 31.2230357,18.0946456 L31.2230357,14.0608386 L30.7435714,14.0608386 C30.585,14.0608386 30.4558929,13.9303123 30.4558929,13.7693298 C30.4558929,13.6078035 30.585,13.4772772 30.7435714,13.4772772 L31.2230357,13.4772772 L31.2230357,11.9414175 C31.2230357,11.7385579 31.3853571,11.5737684 31.5851786,11.5737684 C31.785,11.5737684 31.9473214,11.7385579 31.9473214,11.9414175 L31.9473214,13.4772772 L32.9378571,13.4772772 C33.0964286,13.4772772 33.2255357,13.6078035 33.2255357,13.7693298 C33.2255357,13.9303123 33.0964286,14.0608386 32.9378571,14.0608386 L31.9473214,14.0608386 L31.9473214,17.8890667 C31.96125,18.0984526 32.0341071,18.2512772 32.1658929,18.3486281 C32.2971429,18.4459789 32.4476786,18.4949263 32.6180357,18.4949263 C32.8242857,18.4949263 33.0053571,18.4606632 33.16125,18.3921368 C33.1628571,18.3910491 33.1644643,18.3905053 33.1660714,18.3899614 C33.32625,18.3198035 33.5105357,18.4035579 33.5646429,18.5716105 L33.56625,18.5759614 Z" id="Fill-12" fill="#191919"></path>
                <path d="M35.4831429,11.2168877 C35.6829643,11.2168877 35.8452857,11.3816772 35.8452857,11.5845368 L35.8452857,17.8351158 C35.8452857,18.0439579 35.9020714,18.2076596 36.0156429,18.3267649 C36.1292143,18.4458702 36.2888571,18.5051509 36.4951071,18.5051509 C36.5733214,18.5051509 36.6654643,18.4948175 36.7720714,18.4730632 C36.7731429,18.4725193 36.77475,18.4725193 36.7758214,18.4719754 C36.9413571,18.4382561 37.1031429,18.5410456 37.1395714,18.7085544 C37.1743929,18.8722561 37.0752857,19.0343263 36.9156429,19.0751158 C36.8492143,19.0925193 36.7779643,19.1077474 36.7024286,19.1218877 C36.5074286,19.1577825 36.3392143,19.1757298 36.1967143,19.1757298 C35.8629643,19.1757298 35.6004643,19.0805544 35.4086786,18.8891158 C35.2168929,18.6982211 35.121,18.4295544 35.121,18.0836596 L35.121,11.5845368 C35.121,11.3816772 35.2833214,11.2168877 35.4831429,11.2168877" id="Fill-14" fill="#191919"></path>
                <path d="M41.9702679,15.9966526 C42.5274107,15.9966526 42.8852679,15.3766526 42.594375,14.8937053 C42.5134821,14.7593719 42.4175893,14.6331965 42.3050893,14.5260561 C42.1197321,14.3503895 41.9145536,14.2051789 41.6766964,14.1045649 C41.4388393,14.003407 41.1849107,13.9528281 40.9149107,13.9528281 C40.6449107,13.9528281 40.389375,14.003407 40.1483036,14.1045649 C39.9061607,14.2051789 39.695625,14.3460386 39.5145536,14.5260561 C39.3329464,14.7060737 39.1877679,14.9225298 39.0779464,15.1748807 C38.9675893,15.4272316 38.9016964,15.7013368 38.8802679,15.9966526 L41.9702679,15.9966526 Z M40.9149107,19.2190211 C40.5099107,19.2190211 40.1391964,19.141793 39.8016964,18.986793 C39.4641964,18.831793 39.1716964,18.6191439 38.9236607,18.3488456 C38.6745536,18.0785474 38.4811607,17.7663719 38.3429464,17.413407 C38.2041964,17.0604421 38.1350893,16.6813719 38.1350893,16.2778281 C38.1350893,15.8813544 38.2041964,15.5082667 38.3429464,15.1585649 C38.4811607,14.8088632 38.6729464,14.5026702 38.9177679,14.2394421 C39.163125,13.976214 39.4561607,13.7673719 39.7963393,13.6123719 C40.1375893,13.4573719 40.5066964,13.3796 40.9047321,13.3796 C41.3091964,13.3796 41.6799107,13.4573719 42.0174107,13.6123719 C42.3549107,13.7673719 42.6570536,13.9669684 42.8858036,14.2448807 C42.9527679,14.3264596 43.014375,14.4091263 43.070625,14.4912491 C43.6652679,15.3652316 43.029375,16.5590035 41.9825893,16.5590035 L38.8909821,16.5590035 C38.9124107,16.8619333 38.9820536,17.1409333 39.099375,17.3970912 C39.2161607,17.6527053 39.3672321,17.8746 39.5515179,18.0622316 C39.7363393,18.2498632 39.9474107,18.3956175 40.1852679,18.5000386 C40.423125,18.6044596 40.6770536,18.6566702 40.9470536,18.6566702 C41.124375,18.6566702 41.3022321,18.6316526 41.4795536,18.5810737 C41.656875,18.5310386 41.8208036,18.4619684 41.9697321,18.3760386 C42.1186607,18.2890211 42.253125,18.1829684 42.3741964,18.056793 C42.4411607,17.9871789 42.4990179,17.913214 42.5483036,17.835986 C42.6216964,17.7212316 42.7615179,17.6706526 42.8911607,17.7065474 C43.1054464,17.7652842 43.1927679,18.0247053 43.0609821,18.2063544 C43.0170536,18.2667228 42.969375,18.3249158 42.9179464,18.3809333 C42.7615179,18.5506175 42.5804464,18.6985474 42.3741964,18.8247228 C42.1684821,18.9508982 41.9408036,19.0477053 41.6922321,19.1162316 C41.4441964,19.1847579 41.1849107,19.2190211 40.9149107,19.2190211 Z" id="Fill-16" fill="#191919"></path>
                <path d="M23.55825,28.8421281 C23.8636071,28.8421281 24.1427143,28.7790404 24.3950357,28.6523211 C24.6462857,28.5266895 24.86325,28.3570053 25.0443214,28.1443561 C25.2253929,27.931707 25.3673571,27.6902333 25.4702143,27.4199351 C25.5736071,27.1496368 25.6245,26.870093 25.6245,26.5818474 C25.6245,26.2865316 25.5773571,26.0015491 25.4809286,25.7274439 C25.3850357,25.4538825 25.2500357,25.2102333 25.0764643,24.9981281 C24.9023571,24.7849351 24.6928929,24.6157947 24.4475357,24.4896193 C24.2027143,24.3634439 23.9348571,24.2998123 23.6434286,24.2998123 C23.42325,24.2998123 23.2175357,24.3384263 23.02575,24.4134789 C22.8339643,24.4896193 22.6561071,24.5924088 22.49325,24.7218474 C22.3298571,24.8518298 22.1846786,25.0013912 22.0561071,25.1705316 C21.9286071,25.3402158 21.8225357,25.5186018 21.7373571,25.7056895 L21.7373571,27.4580053 C21.7652143,27.6521632 21.8418214,27.8343561 21.9655714,28.0040404 C22.0903929,28.1737246 22.2393214,28.3194789 22.4134286,28.4418474 C22.5875357,28.5642158 22.7755714,28.6621105 22.9780714,28.7339 C23.1805714,28.8062333 23.3734286,28.8421281 23.55825,28.8421281 M23.7286071,29.4904088 C23.28825,29.4904088 22.8853929,29.3789175 22.5200357,29.1553912 C22.1541429,28.9324088 21.8686071,28.6441632 21.6623571,28.2901105 L21.6623571,29.0531456 C21.6623571,29.2353386 21.5166429,29.3827246 21.3371786,29.3827246 C21.15825,29.3827246 21.0125357,29.2353386 21.0125357,29.0531456 L21.0125357,21.8562509 C21.0125357,21.6528474 21.1748571,21.4886018 21.3746786,21.4886018 C21.5750357,21.4886018 21.7373571,21.6528474 21.7373571,21.8562509 L21.7373571,24.9274263 C21.9853929,24.5456368 22.2837857,24.2372684 22.632,24.0028649 C22.9796786,23.7684614 23.3846786,23.6515316 23.8459286,23.6515316 C24.2364643,23.6515316 24.5862857,23.7341982 24.8953929,23.9000754 C25.2039643,24.0659526 25.467,24.2878474 25.6834286,24.5652158 C25.8998571,24.8425842 26.067,25.1563912 26.1837857,25.506093 C26.3011071,25.8557947 26.3595,26.2141982 26.3595,26.5818474 C26.3595,26.9783211 26.2925357,27.3535842 26.1575357,27.7065491 C26.0225357,28.0600579 25.8377143,28.3678825 25.6036071,28.6311105 C25.3695,28.8943386 25.0903929,29.1031807 24.7673571,29.2587246 C24.4437857,29.4131807 24.09825,29.4904088 23.7286071,29.4904088" id="Fill-18" fill="#191919"></path>
                <path d="M30.886125,24.0812351 C30.886125,24.2547263 30.758625,24.3983053 30.5888036,24.4222351 C30.2218393,24.4744456 29.8945179,24.6027965 29.6079107,24.8083754 C29.2457679,25.0677965 28.9902321,25.4251123 28.8413036,25.8792351 L28.8413036,29.0363404 C28.8413036,29.2277789 28.688625,29.3827789 28.5005893,29.3827789 L28.4577321,29.3827789 C28.2691607,29.3827789 28.1170179,29.2277789 28.1170179,29.0363404 L28.1170179,24.0942877 C28.1170179,23.9039368 28.2691607,23.7489368 28.4577321,23.7489368 C28.6457679,23.7489368 28.7989821,23.9039368 28.7989821,24.0942877 L28.7989821,25.1004281 C29.0041607,24.6680596 29.2816607,24.3292351 29.6293393,24.0839544 C29.813625,23.9539719 30.0043393,23.8555333 30.2041607,23.7978842 C30.301125,23.7690596 30.4077321,23.7511123 30.5079107,23.7396912 C30.709875,23.717393 30.886125,23.8756561 30.886125,24.0812351" id="Fill-20" fill="#191919"></path>
                <path d="M33.8791071,28.9287105 C34.2551786,28.9287105 34.6017857,28.8563772 34.9173214,28.7122544 C35.2333929,28.5681316 35.4733929,28.376693 35.6367857,28.1390263 C35.7005357,28.074307 35.7482143,28.0041491 35.7803571,27.9280088 C35.8125,27.8524123 35.8285714,27.7822544 35.8285714,27.7169912 L35.8285714,26.7984123 C35.5869643,26.7043246 35.3367857,26.6319912 35.0775,26.5819561 C34.8182143,26.5319211 34.5541071,26.5063596 34.2841071,26.5063596 C33.7730357,26.5063596 33.3567857,26.6140439 33.0380357,26.8310439 C32.7182143,27.0469561 32.5580357,27.3313947 32.5580357,27.6849035 C32.5580357,27.8578509 32.5923214,28.0199211 32.6598214,28.171114 C32.7273214,28.3228509 32.8189286,28.4544649 32.93625,28.5659561 C33.0535714,28.6779912 33.1939286,28.7660965 33.3567857,28.8308158 C33.5207143,28.8960789 33.6942857,28.9287105 33.8791071,28.9287105 Z M35.9239286,28.4414123 C35.6689286,28.7813246 35.3469643,29.0402018 34.9607143,29.2202193 C34.5733929,29.4002368 34.1566071,29.4905175 33.70875,29.4905175 C33.4457143,29.4905175 33.2025,29.4453772 32.9791071,29.3556404 C32.7551786,29.2653596 32.5601786,29.1413596 32.3935714,28.9825526 C32.2264286,28.8242895 32.0967857,28.6382895 32.0046429,28.4256404 C31.9119643,28.2135351 31.8658929,27.9845702 31.8658929,27.7387456 C31.8658929,27.4940088 31.9226786,27.2666754 32.0367857,27.0578333 C32.1498214,26.8489912 32.3094643,26.6684298 32.5157143,26.516693 C32.7219643,26.3655 32.9667857,26.2485702 33.2507143,26.1653596 C33.5346429,26.0832368 33.8469643,26.0408158 34.1882143,26.0408158 C34.4716071,26.0408158 34.7598214,26.0663772 35.05125,26.1169561 C35.3416071,26.1675351 35.6014286,26.2398684 35.8285714,26.3334123 L35.8285714,25.8249035 C35.8285714,25.3278158 35.6898214,24.9324298 35.4128571,24.6409211 C35.1364286,24.3488684 34.7528571,24.203114 34.2626786,24.203114 C33.97875,24.203114 33.6878571,24.2607632 33.3894643,24.3760614 C33.16875,24.4614474 32.9458929,24.5740263 32.7214286,24.714886 C32.5901786,24.7970088 32.4171429,24.7475175 32.3453571,24.6093772 C32.2783929,24.482114 32.3196429,24.323307 32.4407143,24.2482544 C33.0830357,23.8501491 33.7082143,23.6516404 34.3157143,23.6516404 C35.0116071,23.6516404 35.5585714,23.8496053 35.9560714,24.2460789 C36.3535714,24.6425526 36.5528571,25.1907632 36.5528571,25.8896228 L36.5528571,28.4310789 L36.5528571,29.0641316 C36.5528571,29.2414298 36.4114286,29.3850088 36.2367857,29.3850088 C36.0616071,29.3850088 35.9207143,29.2403421 35.92125,29.0625 L35.9239286,28.4414123 Z" id="Fill-22" fill="#191919"></path>
                <g id="Group-26" transform="translate(55.178571, 23.142860)">
                    <mask id="mask-4" fill="white">
                        <use xlink:href="#path-3"></use>
                    </mask>
                    <g id="Clip-25"></g>
                    <path d="M2.10144643,5.78585088 C2.47751786,5.78585088 2.824125,5.71351754 3.13966071,5.56939474 C3.45573214,5.42527193 3.69573214,5.23383333 3.859125,4.99616667 C3.922875,4.93144737 3.97055357,4.86128947 4.00269643,4.78514912 C4.03483929,4.70955263 4.05091071,4.63939474 4.05091071,4.57413158 L4.05091071,3.65555263 C3.80930357,3.56146491 3.559125,3.48913158 3.29983929,3.43909649 C3.04055357,3.3890614 2.77644643,3.3635 2.50644643,3.3635 C1.995375,3.3635 1.579125,3.47118421 1.260375,3.68818421 C0.940553571,3.90409649 0.780375,4.18853509 0.780375,4.54204386 C0.780375,4.71499123 0.814660714,4.8770614 0.882160714,5.02825439 C0.949660714,5.17999123 1.04126786,5.31160526 1.15858929,5.42309649 C1.27591071,5.53513158 1.41626786,5.62323684 1.579125,5.68795614 C1.74305357,5.7532193 1.916625,5.78585088 2.10144643,5.78585088 Z M4.14626786,5.29855263 C3.89126786,5.63846491 3.56930357,5.89734211 3.18305357,6.07735965 C2.79573214,6.25737719 2.37894643,6.34765789 1.93108929,6.34765789 C1.66805357,6.34765789 1.42483929,6.30251754 1.20144643,6.2127807 C0.977517857,6.1225 0.782517857,5.9985 0.615910714,5.83969298 C0.448767857,5.68142982 0.319125,5.49542982 0.226982143,5.2827807 C0.134303571,5.07067544 0.0882321429,4.84171053 0.0882321429,4.59588596 C0.0882321429,4.35114912 0.145017857,4.12381579 0.259125,3.91497368 C0.372160714,3.70613158 0.531803571,3.52557018 0.738053571,3.37383333 C0.944303571,3.22264035 1.189125,3.10571053 1.47305357,3.0225 C1.75698214,2.94037719 2.06930357,2.89795614 2.41055357,2.89795614 C2.69394643,2.89795614 2.98216071,2.92351754 3.27358929,2.97409649 C3.56394643,3.02467544 3.82376786,3.09700877 4.05091071,3.19055263 L4.05091071,2.68204386 C4.05091071,2.18495614 3.91216071,1.78957018 3.63519643,1.4980614 C3.35876786,1.20600877 2.97519643,1.06025439 2.48501786,1.06025439 C2.20108929,1.06025439 1.91019643,1.11790351 1.61180357,1.23320175 C1.39108929,1.31858772 1.16823214,1.43116667 0.943767857,1.57202632 C0.812517857,1.65414912 0.639482143,1.60465789 0.567696429,1.46651754 C0.500732143,1.33925439 0.541982143,1.18044737 0.663053571,1.10539474 C1.305375,0.707289474 1.93055357,0.508780702 2.53805357,0.508780702 C3.23394643,0.508780702 3.78091071,0.706745614 4.17841071,1.1032193 C4.57591071,1.49969298 4.77519643,2.04790351 4.77519643,2.74676316 L4.77519643,5.2882193 L4.77519643,5.92127193 C4.77519643,6.09857018 4.63376786,6.24214912 4.459125,6.24214912 C4.28394643,6.24214912 4.14305357,6.09748246 4.14358929,5.91964035 L4.14626786,5.29855263 Z" id="Fill-24" fill="#191919" mask="url(#mask-4)"></path>
                </g>
                <path d="M42.9543214,29.3827789 C42.7539643,29.3827789 42.5916429,29.2179895 42.5916429,29.014586 L42.5916429,26.236007 C42.5916429,25.5942526 42.4834286,25.1145684 42.267,24.7974982 C42.0505714,24.4804281 41.7328929,24.3216211 41.3134286,24.3216211 C41.1077143,24.3216211 40.9036071,24.3634982 40.7011071,24.4461649 C40.4986071,24.5288316 40.3089643,24.6424982 40.1311071,24.7871649 C39.9537857,24.9307439 39.7989643,25.1004281 39.6677143,25.294586 C39.5364643,25.4898316 39.4389643,25.7019368 39.3746786,25.9330772 L39.3746786,29.014586 C39.3746786,29.2179895 39.2134286,29.3827789 39.0130714,29.3827789 C38.81325,29.3827789 38.6509286,29.2179895 38.6509286,29.014586 L38.6509286,21.8563053 C38.6509286,21.6529018 38.81325,21.4886561 39.0130714,21.4886561 C39.2134286,21.4886561 39.3746786,21.6529018 39.3746786,21.8563053 L39.3746786,25.0242877 C39.5948571,24.5995333 39.90075,24.2645158 40.29075,24.0192351 C40.6818214,23.7739544 41.1045,23.651586 41.5587857,23.651586 C41.8780714,23.651586 42.1480714,23.7108667 42.36825,23.8299719 C42.5878929,23.9490772 42.7689643,24.1144105 42.9114643,24.3270596 C43.0539643,24.5402526 43.1562857,24.7958667 43.2205714,25.0949895 C43.2843214,25.3941123 43.3164643,25.7236912 43.3164643,26.084814 L43.3164643,29.014586 C43.3164643,29.2179895 43.1541429,29.3827789 42.9543214,29.3827789" id="Fill-27" fill="#191919"></path>
                <path d="M53.2856786,29.3827789 C53.0858571,29.3827789 52.9235357,29.2179895 52.9235357,29.014586 L52.9235357,26.236007 C52.9235357,25.5801123 52.8206786,25.0966211 52.6149643,24.7871649 C52.4087143,24.4766211 52.1033571,24.3216211 51.6988929,24.3216211 C51.4856786,24.3216211 51.2853214,24.3618667 51.09675,24.4407263 C50.9087143,24.5201298 50.7346071,24.6321649 50.5749643,24.7757439 C50.4153214,24.9204105 50.2749643,25.0911825 50.1538929,25.2896912 C50.0333571,25.4882 49.9412143,25.7057439 49.8774643,25.9439544 L49.8774643,29.014586 C49.8774643,29.2179895 49.7151429,29.3827789 49.5153214,29.3827789 C49.3149643,29.3827789 49.1531786,29.2179895 49.1531786,29.014586 L49.1531786,26.236007 C49.1531786,25.5648842 49.0535357,25.0786737 48.8547857,24.7757439 C48.6555,24.4733579 48.3506786,24.3216211 47.9387143,24.3216211 C47.51925,24.3216211 47.1469286,24.4695509 46.8206786,24.7654105 C46.4933571,25.0607263 46.25925,25.4501298 46.1172857,25.9330772 L46.1172857,29.014586 C46.1172857,29.2179895 45.9549643,29.3827789 45.7551429,29.3827789 C45.5547857,29.3827789 45.393,29.2179895 45.393,29.014586 L45.393,24.0839544 C45.393,23.8984982 45.5408571,23.7489368 45.723,23.7489368 C45.9056786,23.7489368 46.0535357,23.8984982 46.0535357,24.0839544 L46.0535357,25.0242877 C46.2806786,24.5919193 46.5785357,24.2552702 46.9481786,24.0137965 C47.31675,23.7723228 47.7255,23.651586 48.1728214,23.651586 C48.6415714,23.651586 49.0160357,23.7848316 49.29675,24.0513228 C49.5769286,24.317814 49.7494286,24.6680596 49.8137143,25.1004281 C50.33175,24.1345333 51.0453214,23.651586 51.9544286,23.651586 C52.26675,23.651586 52.5313929,23.7086912 52.7478214,23.8239895 C52.96425,23.9398316 53.1388929,24.1040772 53.2701429,24.3167263 C53.4013929,24.5288316 53.4972857,24.7849895 53.5578214,25.0841123 C53.6178214,25.3832351 53.6483571,25.7171649 53.6483571,26.084814 L53.6483571,29.014586 C53.6483571,29.2179895 53.4860357,29.3827789 53.2856786,29.3827789" id="Fill-29" fill="#191919"></path>
            </g>
        </g>
    </g>
</svg>