<svg xmlns="http://www.w3.org/2000/svg" xmlns:xlink="http://www.w3.org/1999/xlink" width="88" height="88" viewBox="0 0 88 88">
    <defs>
        <path id="a" d="M24.26 10.402a5.197 5.197 0 0 1-5.193-5.2A5.197 5.197 0 0 1 24.259 0a5.197 5.197 0 0 1 5.193 5.201 5.197 5.197 0 0 1-5.193 5.201zM82.806 88a5.197 5.197 0 0 1-5.192-5.201 5.197 5.197 0 0 1 5.192-5.201 5.197 5.197 0 0 1 5.193 5.2A5.197 5.197 0 0 1 82.807 88zM5.193 82.525A5.197 5.197 0 0 1 0 77.324a5.197 5.197 0 0 1 5.193-5.201 5.197 5.197 0 0 1 5.192 5.2 5.197 5.197 0 0 1-5.192 5.202zm45.366-65.63c17.357 0 31.429 15.901 31.429 35.518 0 19.615-14.072 35.517-31.429 35.517H19.131V16.895h31.428zm17.226 53.848c3.7-5.09 5.822-11.76 5.822-18.302 0-12.333-9.036-26.075-22-26.075h-8.04v-2.824l-9.77 6.376 9.77 6.376V33.47h8.04c6.422 0 15.714 6.755 15.714 18.971 0 9.706-6.315 20.098-15.714 20.098H28.559c-1.735 0-3.142 1.59-3.142 3.552s1.407 3.552 3.142 3.552h23.048c6.262 0 12.008-3.161 16.178-8.9z"/>
    </defs>
    <g fill="none" fill-rule="evenodd">
        <mask id="b" fill="#fff">
            <use xlink:href="#a"/>
        </mask>
        <use fill="#EA1C49" xlink:href="#a"/>
        <g fill="#EE4B6E" mask="url(#b)">
            <path d="M0 0h88v88H0z"/>
        </g>
    </g>
</svg>
