<svg id="Layer_1" data-name="Layer 1" xmlns="http://www.w3.org/2000/svg" viewBox="0 0 196 58.5"><defs><style>.cls-1{fill:#ea1c45;}.cls-2{fill:#181818;}</style></defs><title>logo</title><path class="cls-1" d="M24.55,55A15.22,15.22,0,0,1,1.67,41.81c0-8.39,3.63-14.52,7.24-21.47C14.28,10,16.28,6.27,16.79,1.47a10.87,10.87,0,0,1,2.13,7.24c-.26,2.89-2.13,8-4.5,13.73C12.5,27,10.31,31.69,9.18,35.35a15.94,15.94,0,0,0-.5,9.41A13.16,13.16,0,0,0,10,48.09c4.27,7.51,13.84,7,14.58,6.86Z"/><path class="cls-1" d="M24.22,36.11a4.82,4.82,0,0,1,2.24,3.94,4.74,4.74,0,1,1-9.47,0,9.51,9.51,0,0,1,.1-.95c.74-3.85,4.56-11.25,5.73-16.06,1.25-5.12-2.18-10-2.18-10s.81,1.83-4.16,13c-2.31,5.19-3.72,8.5-4.47,10.55a12.67,12.67,0,0,0-.77,4.53,10.42,10.42,0,1,0,20.84,0c0-5.67-4.93-9.24-7.87-11a3.38,3.38,0,0,1-1.74-2.69l-.77,2.42a5.06,5.06,0,0,0,2.16,6.09l.36.25"/><path class="cls-2" d="M41.5,20.76h0a.67.67,0,0,1,.67.67V33a1.28,1.28,0,0,0,.32.91,1.22,1.22,0,0,0,.9.32,2.68,2.68,0,0,0,.52-.06h0a.58.58,0,0,1,.68.44.58.58,0,0,1-.42.67c-.13,0-.26.06-.4.09a5.12,5.12,0,0,1-1,.1,2,2,0,0,1-1.47-.53,2,2,0,0,1-.54-1.48v-12a.67.67,0,0,1,.68-.67"/><path class="cls-2" d="M47.17,22.07v-.64a.68.68,0,0,1,1.36,0v.64a.68.68,0,0,1-1.36,0m0,12.55v-9a.68.68,0,0,1,1.36,0v9a.68.68,0,0,1-1.36,0"/><path class="cls-2" d="M57.33,34.32A.53.53,0,0,1,57,35l-.4.16a5.13,5.13,0,0,1-.68.18,4.09,4.09,0,0,1-.8.08,2.94,2.94,0,0,1-.84-.12,1.92,1.92,0,0,1-.69-.37,1.79,1.79,0,0,1-.48-.63,2,2,0,0,1-.18-.87V26h-.9a.54.54,0,0,1-.53-.54.54.54,0,0,1,.53-.54H53V22.09a.68.68,0,1,1,1.35,0v2.83h1.86a.54.54,0,0,1,.54.54.55.55,0,0,1-.54.54H54.3v7a1.12,1.12,0,0,0,.41.85,1.47,1.47,0,0,0,.85.26,2.54,2.54,0,0,0,1-.19h0a.55.55,0,0,1,.74.34Z"/><path class="cls-2" d="M65,34.31a.58.58,0,0,1-.32.7l-.39.15a5.13,5.13,0,0,1-.68.18,4.09,4.09,0,0,1-.8.08A2.94,2.94,0,0,1,62,35.3a1.92,1.92,0,0,1-.69-.37,1.7,1.7,0,0,1-.48-.63,2,2,0,0,1-.18-.87V26h-.9a.54.54,0,0,1-.53-.54.54.54,0,0,1,.53-.54h.9V22.09a.68.68,0,1,1,1.35,0v2.83h1.86a.54.54,0,0,1,.54.54.55.55,0,0,1-.54.54H62v7a1.12,1.12,0,0,0,.41.85,1.47,1.47,0,0,0,.85.26,2.54,2.54,0,0,0,1-.19h0a.56.56,0,0,1,.75.34Z"/><path class="cls-2" d="M68.59,20.76h0a.68.68,0,0,1,.68.67V33a1.27,1.27,0,0,0,.31.91,1.25,1.25,0,0,0,.9.32,2.68,2.68,0,0,0,.52-.06h0a.58.58,0,0,1,.68.44.57.57,0,0,1-.42.67c-.13,0-.26.06-.4.09a5.12,5.12,0,0,1-1,.1,2,2,0,0,1-1.47-.53,2,2,0,0,1-.54-1.48v-12a.67.67,0,0,1,.68-.67"/><path class="cls-2" d="M78.75,35.5a4.9,4.9,0,0,1-2.08-.43A5.26,5.26,0,0,1,75,33.9a5.43,5.43,0,0,1-1.08-1.73,5.59,5.59,0,0,1-.39-2.09A5.43,5.43,0,0,1,73.94,28a5.08,5.08,0,0,1,2.71-2.85,5.25,5.25,0,0,1,4.16,0,4.42,4.42,0,0,1,1.62,1.16c.13.15.24.31.35.46a2.45,2.45,0,0,1-2,3.81H75a4.35,4.35,0,0,0,1.24,2.77,3.79,3.79,0,0,0,1.18.8,3.45,3.45,0,0,0,1.43.29,3.38,3.38,0,0,0,1-.14,4,4,0,0,0,.92-.38,3.26,3.26,0,0,0,.76-.58A3,3,0,0,0,81.8,33a.59.59,0,1,1,1,.68,2.69,2.69,0,0,1-.27.32,4.48,4.48,0,0,1-1,.82,5.24,5.24,0,0,1-1.28.54,5.34,5.34,0,0,1-1.45.19m2-5.94a1.35,1.35,0,0,0,1.17-2,3.23,3.23,0,0,0-.54-.68,3.88,3.88,0,0,0-1.18-.77,3.56,3.56,0,0,0-1.42-.28,3.66,3.66,0,0,0-1.44.28,3.6,3.6,0,0,0-1.18.77,3.81,3.81,0,0,0-.82,1.2,4.41,4.41,0,0,0-.37,1.51Z"/><path class="cls-2" d="M45.8,54.42a4.22,4.22,0,0,1-2.26-.62,4.43,4.43,0,0,1-1.6-1.59v1.41a.61.61,0,0,1-.61.6.6.6,0,0,1-.61-.6V40.36a.68.68,0,1,1,1.35,0V46a6,6,0,0,1,1.68-1.7A4,4,0,0,1,46,43.66a4.2,4.2,0,0,1,2,.46,4.75,4.75,0,0,1,1.48,1.23,5.88,5.88,0,0,1,.93,1.73,6.09,6.09,0,0,1,.33,2,5.81,5.81,0,0,1-.38,2.08,5.6,5.6,0,0,1-1,1.7A4.87,4.87,0,0,1,47.74,54a4.41,4.41,0,0,1-1.94.43m-.32-1.19a3.58,3.58,0,0,0,1.57-.35,3.84,3.84,0,0,0,1.21-.94,4.58,4.58,0,0,0,.8-1.33,4.35,4.35,0,0,0,.29-1.55,4.63,4.63,0,0,0-.27-1.57,4.37,4.37,0,0,0-.76-1.35,3.69,3.69,0,0,0-1.18-.93,3.28,3.28,0,0,0-1.5-.35,3.19,3.19,0,0,0-1.16.21,3.92,3.92,0,0,0-1,.57,4.55,4.55,0,0,0-.82.82,5,5,0,0,0-.6,1v3.23a2.28,2.28,0,0,0,.43,1,3.6,3.6,0,0,0,.84.81A4.24,4.24,0,0,0,44.4,53a3.31,3.31,0,0,0,1.08.2"/><path class="cls-2" d="M59.19,44.46a.63.63,0,0,1-.56.62,4.1,4.1,0,0,0-1.83.72,3.77,3.77,0,0,0-1.44,2v5.82a.63.63,0,0,1-.64.63h-.07a.63.63,0,0,1-.64-.63V44.48a.64.64,0,1,1,1.27,0v1.85a4.81,4.81,0,0,1,1.56-1.87,3.68,3.68,0,0,1,1.07-.53,3.57,3.57,0,0,1,.57-.1.64.64,0,0,1,.71.63"/><path class="cls-2" d="M68.61,52.49a4.75,4.75,0,0,1-1.8,1.43,5.47,5.47,0,0,1-2.34.5,3.59,3.59,0,0,1-1.37-.25A3.3,3.3,0,0,1,62,53.49a3.08,3.08,0,0,1-.73-1A3.12,3.12,0,0,1,61,51.2a2.59,2.59,0,0,1,.32-1.26,3,3,0,0,1,.89-1,4.62,4.62,0,0,1,1.38-.64,6,6,0,0,1,1.75-.23,9,9,0,0,1,1.62.14,6.36,6.36,0,0,1,1.45.4v-.94a3,3,0,0,0-.78-2.18,2.82,2.82,0,0,0-2.15-.81,4.63,4.63,0,0,0-1.63.32,7.26,7.26,0,0,0-1.25.62.49.49,0,0,1-.7-.19.51.51,0,0,1,.17-.67,6.78,6.78,0,0,1,3.51-1.1,4.19,4.19,0,0,1,3.07,1.1,4.07,4.07,0,0,1,1.12,3v5.85a.6.6,0,0,1-1.19,0Zm-3.83.9a4.79,4.79,0,0,0,2-.4,3.16,3.16,0,0,0,1.34-1.06,1.25,1.25,0,0,0,.27-.39,1,1,0,0,0,.09-.38v-1.7a9.37,9.37,0,0,0-1.4-.4,8.18,8.18,0,0,0-1.49-.14,4.13,4.13,0,0,0-2.33.6,1.83,1.83,0,0,0-.9,1.58,2.26,2.26,0,0,0,.19.89,2.37,2.37,0,0,0,.52.73,2.35,2.35,0,0,0,.79.49,2.61,2.61,0,0,0,1,.18"/><path class="cls-2" d="M112.38,52.49a4.71,4.71,0,0,1-1.81,1.43,5.4,5.4,0,0,1-2.34.5,3.58,3.58,0,0,1-1.36-.25,3.45,3.45,0,0,1-1.1-.68,3.2,3.2,0,0,1-.72-1,3,3,0,0,1-.26-1.26,2.49,2.49,0,0,1,.32-1.26,3,3,0,0,1,.89-1,4.62,4.62,0,0,1,1.38-.64,6,6,0,0,1,1.75-.23,8.83,8.83,0,0,1,1.61.14,6.45,6.45,0,0,1,1.46.4v-.94a3,3,0,0,0-.78-2.18,2.83,2.83,0,0,0-2.15-.81,4.58,4.58,0,0,0-1.63.32,7.26,7.26,0,0,0-1.25.62.5.5,0,0,1-.71-.19.52.52,0,0,1,.18-.67,6.75,6.75,0,0,1,3.51-1.1,4.21,4.21,0,0,1,3.07,1.1,4.06,4.06,0,0,1,1.11,3v5.85a.59.59,0,0,1-.59.59.6.6,0,0,1-.59-.6Zm-3.83.9a4.82,4.82,0,0,0,2-.4,3.22,3.22,0,0,0,1.34-1.06,1.25,1.25,0,0,0,.27-.39,1,1,0,0,0,.09-.38v-1.7a9.16,9.16,0,0,0-1.41-.4,8.07,8.07,0,0,0-1.48-.14,4.11,4.11,0,0,0-2.33.6,1.83,1.83,0,0,0-.9,1.58,2.09,2.09,0,0,0,.19.89,2.37,2.37,0,0,0,.52.73,2.35,2.35,0,0,0,.79.49,2.61,2.61,0,0,0,1,.18"/><path class="cls-2" d="M81.76,54.22h0a.67.67,0,0,1-.68-.67V48.43a4.61,4.61,0,0,0-.61-2.65,2,2,0,0,0-1.78-.88,3.1,3.1,0,0,0-1.15.23,4.12,4.12,0,0,0-1.06.63,4.29,4.29,0,0,0-.87.93,4.11,4.11,0,0,0-.55,1.18v5.68a.68.68,0,0,1-1.35,0V40.36a.68.68,0,1,1,1.35,0v5.83a4.79,4.79,0,0,1,1.72-1.85,4.44,4.44,0,0,1,2.37-.68,3.15,3.15,0,0,1,1.51.33,2.9,2.9,0,0,1,1,.92,4.1,4.1,0,0,1,.58,1.41,8.67,8.67,0,0,1,.18,1.83v5.4a.68.68,0,0,1-.68.67"/><path class="cls-2" d="M101.08,54.22h0a.68.68,0,0,1-.68-.67V48.43a4.91,4.91,0,0,0-.57-2.67,1.93,1.93,0,0,0-1.72-.86,2.8,2.8,0,0,0-1.12.22,3.31,3.31,0,0,0-1,.62,4,4,0,0,0-.78.94,4.52,4.52,0,0,0-.52,1.21v5.66a.68.68,0,0,1-1.36,0V48.43a4.88,4.88,0,0,0-.56-2.69,1.91,1.91,0,0,0-1.71-.84,3,3,0,0,0-2.09.82,4.57,4.57,0,0,0-1.32,2.15v5.68a.68.68,0,0,1-1.35,0V44.46a.62.62,0,0,1,.62-.62.61.61,0,0,1,.61.62v1.73a5.05,5.05,0,0,1,1.68-1.86,4.17,4.17,0,0,1,2.29-.67,2.94,2.94,0,0,1,2.1.74,3.2,3.2,0,0,1,1,1.93,4.43,4.43,0,0,1,4-2.67,3.22,3.22,0,0,1,1.49.32,2.57,2.57,0,0,1,1,.91,4.07,4.07,0,0,1,.54,1.41,9.47,9.47,0,0,1,.17,1.85v5.4a.67.67,0,0,1-.68.67"/><rect class="cls-2" x="121.39" y="29.62" width="0.64" height="23.97"/><path class="cls-2" d="M133.44,53.92a5.35,5.35,0,0,1-1.72-.29,4,4,0,0,1-1.44-.84l.45-.66a4.63,4.63,0,0,0,1.29.78,3.88,3.88,0,0,0,1.41.26,2.49,2.49,0,0,0,1.45-.37,1.19,1.19,0,0,0,.54-1,.89.89,0,0,0-.14-.53,1.2,1.2,0,0,0-.43-.36,3.25,3.25,0,0,0-.71-.29l-1-.25A11.31,11.31,0,0,1,132,50a3.06,3.06,0,0,1-.79-.36,1.22,1.22,0,0,1-.46-.5,1.6,1.6,0,0,1-.15-.74,2.14,2.14,0,0,1,.22-1,1.91,1.91,0,0,1,.61-.71,2.73,2.73,0,0,1,.89-.43,3.88,3.88,0,0,1,1.09-.15,4.19,4.19,0,0,1,1.58.29,3,3,0,0,1,1.14.74l-.47.58a2.74,2.74,0,0,0-1-.65,3.54,3.54,0,0,0-1.25-.22,3.26,3.26,0,0,0-.73.08,1.7,1.7,0,0,0-.58.25,1.4,1.4,0,0,0-.4.44,1.28,1.28,0,0,0-.15.63,1,1,0,0,0,.11.5.78.78,0,0,0,.33.32,3.24,3.24,0,0,0,.58.25l.86.22c.49.12.91.23,1.28.35a3.88,3.88,0,0,1,.91.4,1.6,1.6,0,0,1,.56.57,1.57,1.57,0,0,1,.19.81,2,2,0,0,1-.8,1.64A3.4,3.4,0,0,1,133.44,53.92Z"/><path class="cls-2" d="M142.32,53.42l-.25.11a2.49,2.49,0,0,1-.39.14,3.7,3.7,0,0,1-.49.14,3.48,3.48,0,0,1-.58,0,2.35,2.35,0,0,1-.6-.08,1.34,1.34,0,0,1-.86-.73,1.54,1.54,0,0,1-.13-.63V47h-1v-.78h1V43.7h1v2.55h1.73V47H140v5.11a.78.78,0,0,0,.29.62,1,1,0,0,0,.62.19,1.83,1.83,0,0,0,.73-.13,4,4,0,0,0,.41-.2Z"/><path class="cls-2" d="M146.63,53.92a2.11,2.11,0,0,1-1.83-.82,4.07,4.07,0,0,1-.6-2.43V46.25h1V50.5c0,1.7.59,2.55,1.75,2.55a2.49,2.49,0,0,0,.85-.14,2.94,2.94,0,0,0,.78-.42,3.24,3.24,0,0,0,.63-.65,3.47,3.47,0,0,0,.46-.85V46.25h1V52.5c0,.27.12.41.35.41v.87l-.28,0h-.15a.82.82,0,0,1-.57-.25.88.88,0,0,1-.22-.62v-.87a3.51,3.51,0,0,1-1.33,1.37A3.62,3.62,0,0,1,146.63,53.92Z"/><path class="cls-2" d="M156.66,53.92a3.3,3.3,0,0,1-1.44-.32,3.81,3.81,0,0,1-1.15-.86,4.17,4.17,0,0,1-.74-1.24,4.08,4.08,0,0,1-.27-1.47,4.48,4.48,0,0,1,.26-1.51,3.86,3.86,0,0,1,.72-1.25,3.28,3.28,0,0,1,1.08-.84,3,3,0,0,1,1.38-.32,3,3,0,0,1,1.69.5,3.81,3.81,0,0,1,1.16,1.21v-4.6h1V52.5c0,.27.12.41.35.41v.87a1.77,1.77,0,0,1-.35,0,.87.87,0,0,1-.6-.22.68.68,0,0,1-.26-.55v-.73a3.34,3.34,0,0,1-1.22,1.17A3.17,3.17,0,0,1,156.66,53.92Zm.22-.87a2.21,2.21,0,0,0,.77-.14,3.13,3.13,0,0,0,.77-.4,2.49,2.49,0,0,0,.62-.59,1.62,1.62,0,0,0,.31-.73V48.86a2.82,2.82,0,0,0-.42-.73,3.6,3.6,0,0,0-.63-.6,2.92,2.92,0,0,0-.76-.4,2.25,2.25,0,0,0-.79-.15,2.35,2.35,0,0,0-1.1.26,2.84,2.84,0,0,0-.85.69,3.28,3.28,0,0,0-.54,1,3.67,3.67,0,0,0-.19,1.13,3.19,3.19,0,0,0,.81,2.12,3.08,3.08,0,0,0,.89.66A2.57,2.57,0,0,0,156.88,53.05Z"/><path class="cls-2" d="M163.28,44.67V43.22h1v1.45Zm0,9.11V46.25h1v7.53Z"/><path class="cls-2" d="M170.36,53.92a3.5,3.5,0,0,1-1.5-.31,3.82,3.82,0,0,1-1.18-.85,3.76,3.76,0,0,1-.77-1.24,4.15,4.15,0,0,1-.28-1.49,4,4,0,0,1,.29-1.5,3.88,3.88,0,0,1,2-2.1,3.45,3.45,0,0,1,1.48-.32,3.57,3.57,0,0,1,1.5.32,3.78,3.78,0,0,1,1.19.86,4,4,0,0,1,.78,1.24,4.16,4.16,0,0,1,.28,1.5,4,4,0,0,1-.28,1.49,3.76,3.76,0,0,1-.77,1.24,3.64,3.64,0,0,1-1.19.85A3.55,3.55,0,0,1,170.36,53.92Zm-2.73-3.87a3,3,0,0,0,.22,1.17,3.2,3.2,0,0,0,.58,1,2.73,2.73,0,0,0,.87.64,2.41,2.41,0,0,0,1.06.23,2.6,2.6,0,0,0,1.07-.23,2.79,2.79,0,0,0,.87-.66,2.92,2.92,0,0,0,.59-1,3.06,3.06,0,0,0,.22-1.18,3.24,3.24,0,0,0-.81-2.15,2.92,2.92,0,0,0-.87-.65,2.46,2.46,0,0,0-1.07-.24,2.38,2.38,0,0,0-1.05.24,2.79,2.79,0,0,0-.87.66,3.08,3.08,0,0,0-.59,1A3.2,3.2,0,0,0,167.63,50.05Z"/><path class="cls-2" d="M133.44,38.15a3.17,3.17,0,0,1-1.44-.32,3.7,3.7,0,0,1-1.14-.85,4.15,4.15,0,0,1-1-2.69,4.38,4.38,0,0,1,.26-1.5,4,4,0,0,1,.71-1.24,3.16,3.16,0,0,1,1.08-.84,3,3,0,0,1,1.37-.31,2.93,2.93,0,0,1,1.68.49,3.75,3.75,0,0,1,1.15,1.2V27.53h1v9.22c0,.27.12.4.35.4V38a1.7,1.7,0,0,1-.35,0,.87.87,0,0,1-.6-.22.7.7,0,0,1-.26-.54v-.73a3.26,3.26,0,0,1-1.2,1.16A3.16,3.16,0,0,1,133.44,38.15Zm.21-.86a2.47,2.47,0,0,0,.77-.14,3.32,3.32,0,0,0,.77-.4,2.59,2.59,0,0,0,.61-.58,1.62,1.62,0,0,0,.31-.73V33.13a2.82,2.82,0,0,0-.42-.73,3.47,3.47,0,0,0-.62-.59,3,3,0,0,0-.76-.41,2.48,2.48,0,0,0-.79-.14,2.34,2.34,0,0,0-1.09.26,2.65,2.65,0,0,0-.84.68,3.07,3.07,0,0,0-.54,1,3.56,3.56,0,0,0-.19,1.12,3.19,3.19,0,0,0,.81,2.11,2.84,2.84,0,0,0,.88.65A2.56,2.56,0,0,0,133.65,37.29Z"/><path class="cls-2" d="M143.25,38.15a3.7,3.7,0,0,1-3.47-2.39,4,4,0,0,1-.28-1.51,3.91,3.91,0,0,1,.28-1.49,3.77,3.77,0,0,1,.77-1.22,3.59,3.59,0,0,1,1.19-.83,3.76,3.76,0,0,1,3,0,3.31,3.31,0,0,1,1.17.84,3.75,3.75,0,0,1,.76,1.22,3.79,3.79,0,0,1,.28,1.46v.23a.51.51,0,0,1,0,.16h-6.4a3.13,3.13,0,0,0,.28,1.11,2.93,2.93,0,0,0,.61.89,2.73,2.73,0,0,0,.85.58,2.53,2.53,0,0,0,1,.21,3,3,0,0,0,.72-.1,2.79,2.79,0,0,0,.66-.28,2.18,2.18,0,0,0,.54-.42,1.81,1.81,0,0,0,.38-.55l.84.23A2.29,2.29,0,0,1,146,37a3.59,3.59,0,0,1-1.66,1A4,4,0,0,1,143.25,38.15ZM146,33.87a3.06,3.06,0,0,0-.88-1.95,2.73,2.73,0,0,0-.85-.56,2.69,2.69,0,0,0-1-.2,2.79,2.79,0,0,0-1,.2,2.68,2.68,0,0,0-1.44,1.42,3.29,3.29,0,0,0-.27,1.09Z"/><path class="cls-2" d="M151.65,38.15a5.2,5.2,0,0,1-1.71-.28A4,4,0,0,1,148.5,37l.45-.66a4.73,4.73,0,0,0,1.28.78,3.83,3.83,0,0,0,1.4.26,2.49,2.49,0,0,0,1.45-.37,1.18,1.18,0,0,0,.54-1,.84.84,0,0,0-.15-.52,1.19,1.19,0,0,0-.42-.37,3,3,0,0,0-.71-.28c-.28-.08-.61-.17-1-.25s-.8-.21-1.12-.32a2.84,2.84,0,0,1-.78-.36,1.26,1.26,0,0,1-.46-.49,1.65,1.65,0,0,1-.15-.74,2.07,2.07,0,0,1,.22-1,2,2,0,0,1,.6-.71,2.83,2.83,0,0,1,.89-.43,4.22,4.22,0,0,1,1.09-.14,4.13,4.13,0,0,1,1.56.28,3.13,3.13,0,0,1,1.14.74l-.48.57a2.57,2.57,0,0,0-1-.64,3.49,3.49,0,0,0-1.24-.22,3.24,3.24,0,0,0-.72.08,1.79,1.79,0,0,0-.58.25,1.3,1.3,0,0,0-.4.44,1.38,1.38,0,0,0-.14.62,1,1,0,0,0,.1.49.87.87,0,0,0,.33.33,2.67,2.67,0,0,0,.58.24c.24.07.52.15.86.22s.9.23,1.26.35a3.7,3.7,0,0,1,.91.4,1.58,1.58,0,0,1,.56.56,1.66,1.66,0,0,1,.18.8,1.94,1.94,0,0,1-.79,1.64A3.4,3.4,0,0,1,151.65,38.15Z"/><path class="cls-2" d="M156.88,29V27.53h1V29Zm0,9V30.53h1V38Z"/><path class="cls-2" d="M163.73,38.11a3.18,3.18,0,0,1-1.42-.32,3.85,3.85,0,0,1-1.83-2.08,4.06,4.06,0,0,1-.26-1.42,4.66,4.66,0,0,1,.25-1.49,4.09,4.09,0,0,1,.71-1.24,3.65,3.65,0,0,1,1.1-.85,3.18,3.18,0,0,1,1.42-.31,2.87,2.87,0,0,1,1.66.48,4.64,4.64,0,0,1,1.21,1.21V30.53h.88V38a3,3,0,0,1-.3,1.37,2.88,2.88,0,0,1-.79,1,3.28,3.28,0,0,1-1.16.6,4.73,4.73,0,0,1-1.42.2,4.08,4.08,0,0,1-2.08-.46,3.59,3.59,0,0,1-1.28-1.23L161,39a2.65,2.65,0,0,0,1.17,1.06,3.68,3.68,0,0,0,1.58.34,3.53,3.53,0,0,0,1-.15,2.47,2.47,0,0,0,.85-.45,1.94,1.94,0,0,0,.58-.74,2.39,2.39,0,0,0,.22-1.06V36.56a3.05,3.05,0,0,1-1.18,1.13A3.15,3.15,0,0,1,163.73,38.11Zm.27-.82a2.5,2.5,0,0,0,.85-.15,2.93,2.93,0,0,0,.75-.43,2.49,2.49,0,0,0,.57-.6,1.9,1.9,0,0,0,.3-.67V33.13a3.11,3.11,0,0,0-.43-.75,2.88,2.88,0,0,0-.62-.59,3.26,3.26,0,0,0-.74-.39,2.45,2.45,0,0,0-.8-.14,2.29,2.29,0,0,0-1.12.27,2.68,2.68,0,0,0-.84.69,3.21,3.21,0,0,0-.53,1,3.49,3.49,0,0,0-.18,1.11,3.19,3.19,0,0,0,.81,2.1,3,3,0,0,0,.89.65A2.63,2.63,0,0,0,164,37.29Z"/><path class="cls-2" d="M176.61,38h-1V33.83a3.68,3.68,0,0,0-.39-1.94,1.35,1.35,0,0,0-1.21-.6,2.43,2.43,0,0,0-.87.16,2.8,2.8,0,0,0-.79.44,3.28,3.28,0,0,0-.66.68,2.62,2.62,0,0,0-.41.86V38h-1V30.53h.89v1.69a3.56,3.56,0,0,1,1.32-1.32,3.63,3.63,0,0,1,1.86-.5,2.19,2.19,0,0,1,1,.23,1.77,1.77,0,0,1,.69.64,2.93,2.93,0,0,1,.38,1,7.9,7.9,0,0,1,.11,1.34Z"/></svg>