<svg xmlns="http://www.w3.org/2000/svg" xmlns:xlink="http://www.w3.org/1999/xlink" width="120" height="120" viewBox="0 0 120 120">
    <defs>
        <linearGradient id="a" x1="0%" y1="100%" y2="0%">
            <stop offset="0%" stop-color="#F8B686"/>
            <stop offset="100%" stop-color="#F38181"/>
        </linearGradient>
        <path id="b" d="M0 1.984h119.908v99.924H0z"/>
    </defs>
    <g fill="none" fill-rule="evenodd">
        <path fill="url(#a)" d="M30 120h60V0H30z"/>
        <g transform="translate(0 18)">
            <mask id="c" fill="#fff">
                <use xlink:href="#b"/>
            </mask>
            <path fill="#393939" d="M115.91 97.91H3.996V83.92c.006-5.516 4.478-9.986 9.994-9.992 5.516.008 9.986 4.476 9.992 9.992a2 2 0 0 0 3.996 0c0-2.97 1.262-7.994 5.996-7.994a6.003 6.003 0 0 1 5.994 5.996c0 5.51 4.93 9.992 10.992 9.992 3.712 0 7.002-1.682 8.992-4.252 1.992 2.57 5.28 4.252 8.994 4.252 6.06 0 10.992-4.482 10.992-9.992a6.003 6.003 0 0 1 5.994-5.996c2.792 0 5.996.91 5.996 7.994a2 2 0 1 0 3.996 0c.006-5.516 4.476-9.984 9.992-9.992 5.516.008 9.986 4.476 9.992 9.992v13.99h.002zM23.982 65.934a8.005 8.005 0 0 1 7.794 6.232c-2.666.588-4.616 2.24-5.896 4.392a14.027 14.027 0 0 0-8.986-6.32 8.003 8.003 0 0 1 7.088-4.304zm73.942 0a7.987 7.987 0 0 1 6.94 4.04 13.994 13.994 0 0 0-10.648 6.288 8.282 8.282 0 0 0-4.184-3.6 8.004 8.004 0 0 1 7.892-6.728zm11.448 4.43a12.007 12.007 0 0 0-11.448-8.426 12.006 12.006 0 0 0-11.82 9.994l-.172-.002a10.005 10.005 0 0 0-9.992 9.992c0 3.306-3.136 5.996-6.994 5.996-3.856 0-6.994-2.69-6.994-5.996a2 2 0 0 0-3.996 0c0 3.306-3.14 5.996-6.996 5.996-3.856 0-6.994-2.69-6.994-5.996a10.01 10.01 0 0 0-8.132-9.816 12.009 12.009 0 0 0-11.852-10.168 12.008 12.008 0 0 0-11.326 8.06C5.566 70.668 0 76.656 0 83.92v15.988a2 2 0 0 0 2 2h115.908a2 2 0 0 0 2-2V83.92c0-6.52-4.488-12.012-10.536-13.556zM59.954 29.962a3.999 3.999 0 0 1 3.996 3.998 4 4 0 0 1-3.996 3.996 3.998 3.998 0 0 1 0-7.994zm0 11.992a7.999 7.999 0 0 0 7.992-7.994 7.997 7.997 0 0 0-7.992-7.994 8 8 0 0 0-7.994 7.994 7.998 7.998 0 0 0 7.994 7.994zm0-35.972a4 4 0 0 1 3.996 3.996 4 4 0 0 1-3.996 3.996 4 4 0 0 1-3.998-3.996 4 4 0 0 1 3.998-3.996zm0 11.99a7.999 7.999 0 0 0 7.992-7.994 7.999 7.999 0 0 0-7.992-7.994 8 8 0 0 0-7.994 7.994 8 8 0 0 0 7.994 7.994z" mask="url(#c)"/>
        </g>
        <path fill="#393939" d="M113.91 39.968a1.998 1.998 0 1 0-1.932-1.934 2 2 0 0 0 1.934 1.934h-.002zM90.516 27.392c.776.78 2.036.784 2.818.006l.006-.006 2.584-2.584 2.586 2.584c.776.78 2.036.784 2.816.006l.008-.006a1.994 1.994 0 0 0 .004-2.822l-.004-.004-2.584-2.584 2.584-2.582a1.997 1.997 0 1 0-2.824-2.824l-2.586 2.584-2.584-2.584a1.997 1.997 0 1 0-2.824 2.824l2.584 2.584-2.584 2.584a1.994 1.994 0 0 0-.002 2.822l.002.004v-.002zM29.976 63.84c0-9.072 3.474-14.686 6.124-17.652.404 6.102 2.08 12.186 5.074 17.954l-11.198 7.742V63.84zM56.824 9.234l3.13-2.628 3.128 2.628.004.002c18.074 15.122 22.026 38.682 9.588 57.32a28.414 28.414 0 0 0-1.96 3.39H49.192a28.663 28.663 0 0 0-1.98-3.42c-12.416-18.612-8.462-42.17 9.612-57.292zM89.93 63.84l-.09 8.09-11.106-7.774c3-5.764 4.678-11.85 5.082-17.956 2.648 2.968 6.114 8.58 6.114 17.64zM67.946 81.936H51.96v-.222a26.3 26.3 0 0 0-1.18-7.772h18.346a26.394 26.394 0 0 0-1.18 7.774v.22zM28.162 75.48c1.34.7 2.96.592 4.198-.276l10.814-7.57c.244.388.492.776.748 1.162a24.422 24.422 0 0 1 2.064 3.698c.046.162.114.316.2.462a22.302 22.302 0 0 1 1.776 8.758v2.22a2 2 0 0 0 2 2h19.984a2 2 0 0 0 1.998-2v-2.218c0-3.046.6-5.978 1.792-8.782a2 2 0 0 0 .18-.42 25.308 25.308 0 0 1 2.102-3.768c.246-.366.484-.74.718-1.11l10.81 7.566a4.054 4.054 0 0 0 5.646-.988 4.06 4.06 0 0 0 .734-2.33V63.84c0-14.086-7.5-21.084-10.084-23.074-.722-12.736-6.934-25.178-18.19-34.596L61.24 2.466a2.003 2.003 0 0 0-2.57 0L54.258 6.17c-11.25 9.414-17.462 21.85-18.182 34.588-2.574 1.98-10.094 8.978-10.094 23.082v8.044a4.04 4.04 0 0 0 2.182 3.596h-.002zm29.792 14.45v1.998a2.001 2.001 0 1 0 3.998 0v-2a2.001 2.001 0 1 0-3.998 0v.002zm7.994 0v5.994a2 2 0 0 0 3.998 0V89.93a2 2 0 1 0-3.998 0zm-15.988 0v5.994a2 2 0 0 0 3.998 0V89.93a2.001 2.001 0 1 0-3.998 0zM15.988 61.95a2 2 0 1 1-.001 4.002 2 2 0 0 1 .001-4.002M9.992 7.988a10.12 10.12 0 0 0 2.004 2.004 10.12 10.12 0 0 0-2.004 2.004 10.173 10.173 0 0 0-2.004-2.004 10.228 10.228 0 0 0 2.004-2.004zM2 11.99a6.001 6.001 0 0 1 5.994 5.996 2 2 0 1 0 3.996 0 6 6 0 0 1 5.996-5.996 2 2 0 0 0 0-3.996 6.002 6.002 0 0 1-5.996-5.996 2 2 0 0 0-3.996 0 6.003 6.003 0 0 1-5.996 5.996 2 2 0 1 0 0 3.996H2z"/>
    </g>
</svg>
