<svg xmlns="http://www.w3.org/2000/svg" width="112" height="108" viewBox="0 0 112 108">
    <g fill="#F38082" fill-rule="nonzero">
        <path d="M18.667 11.676c-4.411 0-8 3.929-8 8.756 0 4.828 3.589 8.757 8 8.757 4.41 0 8-3.929 8-8.757 0-4.827-3.59-8.756-8-8.756zm0 13.621c-2.45 0-4.445-2.181-4.445-4.865 0-2.683 1.995-4.864 4.445-4.864s4.444 2.181 4.444 4.864c0 2.684-1.995 4.865-4.444 4.865z"/>
        <ellipse cx="94" cy="19.703" rx="3.333" ry="2.189"/>
        <ellipse cx="88.667" cy="19.703" rx="3.333" ry="2.189"/>
        <ellipse cx="99.333" cy="19.703" rx="3.333" ry="2.189"/>
        <ellipse cx="94" cy="19.703" rx="3.333" ry="2.189"/>
        <ellipse cx="72.667" cy="19.703" rx="3.333" ry="2.189"/>
        <ellipse cx="78" cy="19.703" rx="3.333" ry="2.189"/>
        <ellipse cx="62" cy="19.703" rx="3.333" ry="2.189"/>
        <path d="M112 32.894V9.247C112 4.148 108.142 0 103.398 0H8.602C3.858 0 0 4.148 0 9.247v23.647c0 2.948 1.312 5.546 3.317 7.24C1.312 41.83 0 44.43 0 47.377v23.646c0 5.1 3.858 9.247 8.602 9.247h94.796c4.744 0 8.602-4.148 8.602-9.247V47.377c0-2.948-1.312-5.547-3.317-7.24 2.005-1.697 3.317-4.295 3.317-7.243zm-3.733 14.483v23.646c0 2.886-2.184 5.234-4.869 5.234H8.602c-2.685.002-4.869-2.346-4.869-5.234V47.377c0-2.886 2.184-5.234 4.869-5.234h94.795c2.686 0 4.87 2.348 4.87 5.234zM8.602 38.129c-2.685 0-4.869-2.348-4.869-5.235V9.247c0-2.885 2.184-5.233 4.869-5.233h94.795c2.686 0 4.87 2.348 4.87 5.233v23.647c0 2.885-2.184 5.233-4.869 5.233H8.602v.002z"/>
        <path d="M18.667 68.595c4.41 0 8-3.602 8-8.027 0-4.426-3.59-8.027-8-8.027-4.411 0-8 3.6-8 8.027s3.589 8.027 8 8.027zm0-12.487c2.45 0 4.444 2 4.444 4.46s-1.995 4.459-4.444 4.459c-2.45 0-4.445-2-4.445-4.46s1.995-4.459 4.445-4.459zM61.226 103.622c-1.724 0-3.123.674-3.123 1.465 0 .379-.106.751-.315 1.11-.446.764.546 1.55 2.21 1.754.27.033.54.049.806.049 1.38 0 2.642-.423 3.016-1.063.35-.599.528-1.222.528-1.848v-.068c0-.792-1.399-1.4-3.122-1.4zM52.406 106.535c0-.373.104-.743.304-1.1.435-.773-.567-1.564-2.242-1.767-1.675-.2-3.384.262-3.819 1.037a3.725 3.725 0 0 0-.504 1.86l3.13.004h-3.13c0 .8 1.4 1.431 3.13 1.431 1.732.001 3.131-.664 3.131-1.465z"/>
        <ellipse cx="88.667" cy="62.027" rx="3.333" ry="3.649"/>
        <ellipse cx="99.333" cy="62.027" rx="3.333" ry="3.649"/>
        <ellipse cx="72.667" cy="62.027" rx="3.333" ry="3.649"/>
        <ellipse cx="62" cy="62.027" rx="3.333" ry="3.649"/>
        <path d="M27.517 103.622h-2.222c-1.227 0-2.223.978-2.223 2.189 0 1.21.996 2.189 2.223 2.189h2.222c1.227 0 2.222-.979 2.222-2.19 0-1.21-.995-2.188-2.222-2.188zM39.053 103.622h-2.222c-1.227 0-2.222.978-2.222 2.189 0 1.21.995 2.189 2.222 2.189h2.222c1.227 0 2.222-.979 2.222-2.19 0-1.21-.995-2.188-2.222-2.188zM4.444 103.622H2.222C.996 103.622 0 104.6 0 105.81 0 107.02.996 108 2.222 108h2.222c1.227 0 2.223-.979 2.223-2.19 0-1.21-.996-2.188-2.223-2.188zM15.98 103.622h-2.222c-1.226 0-2.222.978-2.222 2.189 0 1.21.996 2.189 2.222 2.189h2.223c1.226 0 2.222-.979 2.222-2.19 0-1.21-.996-2.188-2.222-2.188zM73.662 103.622H71.44c-1.227 0-2.223.978-2.223 2.189 0 1.21.996 2.189 2.223 2.189h2.222c1.227 0 2.222-.979 2.222-2.19 0-1.21-.995-2.188-2.222-2.188zM85.198 103.622h-2.222c-1.227 0-2.222.978-2.222 2.189 0 1.21.995 2.189 2.222 2.189h2.222c1.227 0 2.222-.979 2.222-2.19 0-1.21-.995-2.188-2.222-2.188zM108.27 103.622h-2.222c-1.226 0-2.222.978-2.222 2.189 0 1.21.996 2.189 2.222 2.189h2.223c1.226 0 2.222-.979 2.222-2.19 0-1.21-.996-2.188-2.222-2.188zM96.734 103.622h-2.222c-1.227 0-2.222.978-2.222 2.189 0 1.21.995 2.189 2.222 2.189h2.222c1.227 0 2.223-.979 2.223-2.19 0-1.21-.996-2.188-2.223-2.188zM60 96.324v-1.46c0-.806-1.493-1.459-3.333-1.459s-3.334.653-3.334 1.46v1.46c0 .806 1.494 1.459 3.334 1.459S60 97.13 60 96.324zM53.333 84.649v1.46c0 .806 1.494 1.459 3.334 1.459S60 86.915 60 86.108v-1.46c0-.806-1.493-1.459-3.333-1.459s-3.334.653-3.334 1.46z"/>
    </g>
</svg>
