<svg xmlns="http://www.w3.org/2000/svg" width="114" height="108" viewBox="0 0 114 108">
    <g fill="#F38082" fill-rule="evenodd">
        <path d="M48.08 104.539c-2.41 0-4.371-1.812-4.371-4.038 0-2.227 1.96-4.038 4.37-4.038s4.372 1.811 4.372 4.038c0 2.226-1.961 4.038-4.371 4.038m1.873-11.334V65.468c0-.956-.838-1.73-1.873-1.73H35.592c-1.035 0-1.874.774-1.874 1.73s.839 1.73 1.874 1.73h10.615v26.007c-3.576.784-6.245 3.756-6.245 7.296 0 4.135 3.642 7.499 8.118 7.499 4.476 0 8.117-3.364 8.117-7.5 0-3.539-2.669-6.511-6.244-7.295M67.347 104.539c-2.41 0-4.37-1.812-4.37-4.038 0-2.227 1.96-4.038 4.37-4.038s4.371 1.811 4.371 4.038c0 2.226-1.96 4.038-4.37 4.038m1.873-11.334V65.468c0-.956-.839-1.73-1.874-1.73H54.86c-1.035 0-1.873.774-1.873 1.73s.838 1.73 1.873 1.73h10.615v26.007c-3.575.784-6.244 3.756-6.244 7.296 0 4.135 3.641 7.499 8.117 7.499 4.476 0 8.118-3.364 8.118-7.5 0-3.539-2.669-6.511-6.244-7.295M100.906 92.236c-2.458 0-4.457-1.764-4.457-3.932 0-2.169 2-3.933 4.457-3.933s4.457 1.764 4.457 3.933c0 2.168-2 3.932-4.457 3.932m0-11.235c-3.907 0-7.188 2.4-8.053 5.617h-4.045V65.423c0-.931-.855-1.685-1.91-1.685H74.164c-1.055 0-1.91.754-1.91 1.685s.855 1.685 1.91 1.685h10.824v21.196c0 .93.855 1.685 1.91 1.685h5.955c.865 3.217 4.146 5.618 8.053 5.618 4.564 0 8.277-3.276 8.277-7.303S105.47 81 100.906 81"/>
        <path d="M14.553 92.192c-2.34 0-4.244-1.787-4.244-3.984 0-2.196 1.904-3.983 4.244-3.983s4.245 1.787 4.245 3.983c0 2.197-1.904 3.984-4.245 3.984m95.115-55.416c-2.451-2.857-5.781-4.973-9.487-6.053-.417-8.082-3.99-15.622-10.148-21.354C83.54 3.327 74.93 0 65.787 0 53.78 0 42.67 5.876 36.422 15.43a16.568 16.568 0 0 0-4.714-.676c-7.431 0-13.821 4.923-15.362 11.633C6.802 28.711 0 36.874 0 46.233c0 11.306 9.8 20.504 21.847 20.504h4.227V86.5h-3.852c-.824-3.258-3.948-5.69-7.669-5.69-4.347 0-7.883 3.318-7.883 7.397 0 4.08 3.536 7.399 7.883 7.399 3.72 0 6.845-2.433 7.669-5.691h5.672c1.005 0 1.819-.764 1.819-1.708V65.03c0-.944-.814-1.708-1.82-1.708h-6.046c-10.04 0-18.209-7.666-18.209-17.09 0-8.131 6.16-15.18 14.646-16.76.766-.142 1.35-.726 1.45-1.452.784-5.616 5.931-9.851 11.974-9.851 1.662 0 3.275.312 4.792.929.86.35 1.861.028 2.315-.741C44.244 9.14 54.579 3.415 65.787 3.415c16.829 0 30.644 12.847 30.796 28.639.007.789.59 1.47 1.409 1.648 7.283 1.581 12.37 7.591 12.37 14.614 0 8.275-7.173 15.006-15.99 15.006h-.989c-1.005 0-1.82.764-1.82 1.708 0 .943.815 1.707 1.82 1.707h.99c10.822 0 19.627-8.264 19.627-18.42 0-4.188-1.539-8.287-4.332-11.541"/>
        <path d="M87.185 33.64h.01c.622-.01 1.12-.88 1.115-1.944a42.565 42.565 0 0 0-1.04-9.224c-.225-.991-.877-1.48-1.456-1.094-.578.387-.864 1.504-.638 2.495a36.27 36.27 0 0 1 .885 7.858c.006 1.058.508 1.908 1.124 1.908M81.7 22.334c.379.45.927.682 1.48.682.431 0 .864-.14 1.222-.43.817-.66.932-1.845.257-2.645-4.998-5.922-12.332-9.318-20.12-9.318-1.06 0-1.92.84-1.92 1.879 0 1.037.86 1.878 1.92 1.878a22.403 22.403 0 0 1 17.16 7.954"/>
    </g>
</svg>
