<svg xmlns="http://www.w3.org/2000/svg" width="170" height="169" viewBox="0 0 170 169">
    <g fill="none" fill-rule="evenodd">
        <path stroke="#C4A97F" stroke-width="1.714" d="M124.4 167.327H44.946c-24.257 0-43.922-19.549-43.922-43.663V44.682c0-24.115 19.665-43.663 43.922-43.663H124.4c24.257 0 43.922 19.548 43.922 43.663v78.982c0 24.114-19.665 43.663-43.922 43.663z"/>
        <path fill="#C4A97F" d="M105.577 31.507L97.65 20.3c7.635-5.336 16.62-8.155 25.987-8.155v13.7c-6.514 0-12.76 1.958-18.06 5.663M118.56 156.203l-11.864-6.967a31.103 31.103 0 0 0 4.353-15.883c0-17.245-14.112-31.271-31.456-31.271-10.143 0-19.723 4.907-25.625 13.132l-11.22-7.958C51.235 95.438 65.008 88.38 79.594 88.38c24.943 0 45.236 20.174 45.236 44.972 0 8.049-2.168 15.953-6.27 22.85"/>
        <path fill="#C4A97F" d="M79.593 25.844c-17.346 0-31.457 14.026-31.457 31.268 0 17.243 14.111 31.27 31.456 31.27 17.346 0 31.457-14.027 31.457-31.27 0-17.242-14.112-31.268-31.457-31.268m0 76.238c-24.944 0-45.236-20.175-45.236-44.97 0-24.797 20.292-44.969 45.236-44.969 24.944 0 45.237 20.172 45.237 44.969 0 24.795-20.293 44.97-45.236 44.97"/>
        <path stroke="#C4A97F" stroke-width="1.714" d="M1.024 123.664c0 24.114 19.665 43.663 43.923 43.663H124.4c3.291 0 6.494-.372 9.58-1.055L1.023 80.1v43.564zM123.637 1.018v32.563h43.253s-7.335-32.563-43.253-32.563z"/>
    </g>
</svg>
