<svg xmlns="http://www.w3.org/2000/svg" xmlns:xlink="http://www.w3.org/1999/xlink" width="100" height="99" viewBox="0 0 100 99">
    <defs>
        <path id="a" d="M0 .8h99.19v97.867H0z"/>
    </defs>
    <g fill="none" fill-rule="evenodd">
        <g transform="translate(0 -.466)">
            <mask id="b" fill="#fff">
                <use xlink:href="#a"/>
            </mask>
            <path fill="#000" d="M73.149 98.667H26.042C11.659 98.667 0 87.163 0 72.972V26.493C0 12.303 11.66.8 26.042.8h47.107C87.53.8 99.19 12.303 99.19 26.493v46.48c0 14.19-11.66 25.694-26.041 25.694" mask="url(#b)"/>
        </g>
        <path fill="#FFF" d="M61.989 18.275l-4.7-6.596c4.527-3.14 9.854-4.8 15.408-4.8v8.063a18.687 18.687 0 0 0-10.708 3.333M69.686 91.654l-7.035-4.099a18.202 18.202 0 0 0 2.581-9.348c0-10.146-8.366-18.401-18.65-18.401-6.013 0-11.693 2.888-15.193 7.727l-6.65-4.683c5.03-6.953 13.196-11.107 21.843-11.107 14.79 0 26.82 11.874 26.82 26.464 0 4.738-1.285 9.388-3.716 13.447"/>
        <path fill="#FFF" d="M46.583 14.942c-10.284 0-18.65 8.253-18.65 18.4 0 10.148 8.366 18.402 18.65 18.402 10.284 0 18.65-8.254 18.65-18.402 0-10.147-8.366-18.4-18.65-18.4m0 44.864c-14.79 0-26.82-11.872-26.82-26.464 0-14.592 12.03-26.463 26.82-26.463 14.789 0 26.82 11.87 26.82 26.463 0 14.592-12.031 26.464-26.82 26.464"/>
    </g>
</svg>
