<svg xmlns="http://www.w3.org/2000/svg" xmlns:xlink="http://www.w3.org/1999/xlink" width="117" height="120" viewBox="0 0 117 120">
    <defs>
        <linearGradient id="a" x1="0%" y1="100%" y2="0%">
            <stop offset="0%" stop-color="#F8B686"/>
            <stop offset="100%" stop-color="#F38181"/>
        </linearGradient>
        <path id="b" d="M0 1.543h116.977v116.735H.001z"/>
        <path id="d" d="M0 120h116.977V0H0z"/>
    </defs>
    <g fill="none" fill-rule="evenodd">
        <path fill="url(#a)" d="M28.38 120h60.217V0H28.38z"/>
        <g>
            <mask id="c" fill="#fff">
                <use xlink:href="#b"/>
            </mask>
            <path fill="#393939" d="M110.914 112.236c-3.38 3.354-8.844 3.354-12.222 0a8.605 8.605 0 0 1 0-12.178c3.378-3.354 8.841-3.354 12.222 0a8.605 8.605 0 0 1 0 12.178zm-52.425-6L18.284 83.114v-46.23l40.205-23.12 40.205 23.12v46.232l-40.205 23.12zm-40.203 6c-3.38 3.354-8.844 3.354-12.222 0a8.605 8.605 0 0 1 0-12.178c3.378-3.354 8.842-3.354 12.222 0a8.605 8.605 0 0 1 0 12.178zM6.064 19.942a8.605 8.605 0 0 1 0-12.178c3.378-3.354 8.842-3.354 12.222 0a8.605 8.605 0 0 1 0 12.178c-3.38 3.354-8.844 3.354-12.222 0zM98.692 7.764c3.378-3.354 8.841-3.354 12.222 0a8.605 8.605 0 0 1 0 12.178c-3.38 3.354-8.844 3.354-12.222 0a8.605 8.605 0 0 1 0-12.178zm-1.239 88.588l-5.492-5.47 9.21-5.294c.531-.352.885-.884.885-1.588V35.824c0-.706-.354-1.236-.885-1.588l-9.21-5.294 5.492-5.472c4.781 3.53 11.512 3.178 15.936-1.234 4.747-4.672 4.79-12.294.1-17.022l-.1-.098c-4.691-4.726-12.337-4.77-17.08-.094-.034.03-.066.062-.096.094C91.785 9.53 91.43 16.236 95.149 21l-6.022 6-29.753-16.764a1.608 1.608 0 0 0-1.77 0l-29.577 16.94-6.022-6a12.29 12.29 0 0 0-1.063-15.88C16.25.57 8.603.526 3.858 5.198l-.096.098C-.983 9.97-1.025 17.59 3.665 22.318l.097.094c4.251 4.236 10.98 4.764 15.94 1.236l5.49 5.47-9.208 5.294c-.532.352-.887.882-.887 1.588v48.176c0 .706.355 1.236.887 1.588l9.209 5.294-5.668 5.294c-4.782-3.528-11.512-3.176-15.938 1.236a12.009 12.009 0 0 0-.098 17.022l.098.094c4.691 4.728 12.339 4.77 17.084.096l.094-.096c4.428-4.41 4.781-11.116 1.064-15.88l6.022-6 29.576 16.94c.353.178.53.178.883.178.355 0 .532 0 .887-.178l29.577-16.94 6.022 6a12.288 12.288 0 0 0 1.063 15.878c4.691 4.728 12.339 4.77 17.084.096l.094-.096a12.002 12.002 0 0 0 .095-17.018c-.03-.034-.065-.066-.095-.096-3.894-4.412-10.803-4.764-15.584-1.236z" mask="url(#c)"/>
            <mask id="e" fill="#fff">
                <use xlink:href="#d"/>
            </mask>
            <path fill="#393939" d="M37.766 86.118h41.975v-6.706H37.766v6.706zm0-16.588h41.975v-6.706H37.766v6.706zm0-16.588h41.975v-6.706H37.766v6.706zM48.924 36h19.659v-8.824H48.924V36zm34.358 28.588V61.06c0-1.058-.707-1.764-1.768-1.764H35.996c-1.064 0-1.77.706-1.77 1.764v3.178c-3.367-.708-5.846-3.18-5.846-6.358 0-3.178 2.48-5.824 5.845-6.352v3.176c0 1.06.709 1.764 1.77 1.764h45.519c1.061 0 1.768-.706 1.768-1.764V44.468c0-1.06-.707-1.764-1.768-1.764H60.612V39.35h9.92c1.064 0 1.77-.704 1.77-1.764V25.234c0-1.06-.708-1.766-1.77-1.766H47.154c-1.064 0-1.77.706-1.77 1.766v12.352c0 1.06.708 1.764 1.77 1.764h9.918v3.354H35.996c-1.064 0-1.77.706-1.77 1.764V48c-5.314.706-9.389 4.94-9.389 9.882 0 5.118 4.075 9.176 9.388 9.882v3.53c0 1.06.709 1.764 1.77 1.764h45.519c1.061 0 1.768-.706 1.768-1.764V68.12c3.366.706 5.847 3.176 5.847 6.352 0 3.178-2.48 5.824-5.847 6.354V77.65c0-1.06-.707-1.766-1.768-1.766H35.996c-1.064 0-1.77.706-1.77 1.766v10.234c0 1.06.708 1.766 1.77 1.766h45.518c1.061 0 1.768-.706 1.768-1.766v-3.53c5.315-.704 9.388-4.94 9.388-9.88 0-4.942-4.073-9.178-9.388-9.884v-.002z" mask="url(#e)"/>
        </g>
    </g>
</svg>
