<svg xmlns="http://www.w3.org/2000/svg" xmlns:xlink="http://www.w3.org/1999/xlink" width="165" height="122" viewBox="0 0 165 122">
    <defs>
        <linearGradient id="a" x1="0%" y1="100%" y2="0%">
            <stop offset="0%" stop-color="#F8B686"/>
            <stop offset="100%" stop-color="#F38181"/>
        </linearGradient>
        <path id="b" d="M0 .023h163.403V119.98H0z"/>
    </defs>
    <g fill="none" fill-rule="evenodd">
        <path fill="url(#a)" d="M52 120h60V0H52z"/>
        <path fill="#393939" d="M144.166 57.503c-5.56-6.224-15.986-6.295-16.426-6.295-1.322.085-2.362 2.556-2.324 5.512.038 2.838 1.056 5.122 2.324 5.202 2.69 0 10.5.927 14.286 5.168 1.194 1.267 2.622.13 3.188-2.544.552-2.597.088-5.704-1.048-7.043"/>
        <g>
            <mask id="c" fill="#fff">
                <use xlink:href="#b"/>
            </mask>
            <path fill="#393939" d="M144.443 75.697a12.858 12.858 0 0 1-9.426 3.654c-6.928-.206-12.562-6.308-12.562-13.6v-4.47c0-.374-.088-.742-.254-1.074l-1.478-2.956a7.852 7.852 0 0 1-.826-3.508V53.6c.004-5.742 4.658-10.398 10.402-10.402h20.638v9.938c0 1.616-.374 3.208-1.096 4.654l-1.208 2.416c-.166.334-.252.7-.252 1.074v5.118a12.862 12.862 0 0 1-3.938 9.3zm-6.276 24.004l-8.182-11.325a19.06 19.06 0 0 0 .226-2.967V83.3c2.567 1.173 5.26 1.77 7.965 1.765 2.697 0 5.375-.563 7.95-1.673v2.016c0 .997.09 1.97.26 2.908l-8.219 11.384zM92.95 95.807a.183.183 0 0 1-.149.088c-.096.012-.137-.035-.16-.057l-7.174-7.137 13.53-9.204 2.87 3.001-8.917 13.31zm-11.217-8.764L68.773 76.14v-5.496c3.984 2.663 8.45 4.044 12.984 4.017 4.576 0 8.98-1.344 12.936-3.899v5.378L81.735 87.043h-.002zm-8.196 8.797c-.024.022-.07.067-.163.055a.182.182 0 0 1-.144-.086L64.311 82.5l2.869-3.002 13.531 9.208-7.176 7.14.002-.005zM58.531 45.043v-5.94c0-.36-.08-.714-.238-1.038a22.989 22.989 0 0 1-2.32-10.062v-5.116c0-9.97 8.11-18.08 18.08-18.08h33.438v23.2c0 3.484-.778 6.868-2.32 10.06-.16.322-.24.678-.24 1.04v6.814a22.97 22.97 0 0 1-7.338 16.93 23.53 23.53 0 0 1-1.838 1.556l-.038.03c-4.436 3.366-9.864 5-15.534 4.634-12.14-.788-21.652-11.34-21.652-24.028zM35.497 89.62v-4.397c6.01-2.978 10.698-7.147 13.49-12.003.618 3.166 1.515 6.176 2.91 8.797-2.036 1.785-6.85 5.12-16.4 7.603zm-10.07-10.262c-7.154-.008-12.952-5.806-12.96-12.96a2.392 2.392 0 0 0-2.788-2.362l.02-.614c.054-1.644.106-3.2.202-4.534.304-4.3 2.022-8.264 4.838-11.16a14.788 14.788 0 0 1 10.688-4.53c4.054 0 7.85 1.608 10.688 4.53 2.816 2.896 4.536 6.86 4.84 11.16.094 1.332.146 2.89.2 4.532l.014.428c-2.602-4.012-6.626-6.97-11.822-8.64-4.8-1.542-8.93-1.446-9.104-1.442a2.4 2.4 0 0 0-1.658.732l-4.32 4.478a2.395 2.395 0 0 0 3.448 3.326l3.594-3.73c3.094.152 13.052 1.31 16.926 9.836a12.931 12.931 0 0 1-12.806 10.95zm7.424 17.565c-2.852 3.76-7.325 3.757-10.177 0l-3.115-4.102c.523-1.364.811-2.907.811-4.528v-4.95c4.812 2.073 9.964 2.073 14.773 0v4.95c0 1.62.29 3.164.816 4.532l-3.108 4.094v.004zm-8.778-7.317c-9.561-2.476-14.355-5.783-16.4-7.586 1.396-2.624 2.301-5.639 2.912-8.814 2.813 4.845 7.491 9.005 13.488 11.989v4.411zM156.1 88.1l-9.884-2.826a1.002 1.002 0 0 1-.726-.958v-3.302c.806-.56 1.572-1.18 2.288-1.876a17.612 17.612 0 0 0 5.39-12.74v-4.554l.956-1.912a15.277 15.277 0 0 0 1.604-6.792V40.803a2.398 2.398 0 0 0-2.396-2.394h-23.03c-8.376 0-15.192 6.816-15.192 15.19v.144c0 1.952.46 3.906 1.334 5.648l1.226 2.452v3.91a18.674 18.674 0 0 0 7.678 15.1v3.462c0 .53 0 .752-1.976 1.318l-4.822 1.376-13.954-5.074a2.387 2.387 0 0 0-.654-1.834l-4.456-4.684v-7.862c.47-.39.934-.788 1.384-1.21a28.096 28.096 0 0 0 8.852-20.426v-6.28a27.688 27.688 0 0 0 2.558-11.634V2.413c0-1.32-1.074-2.39-2.394-2.39H74.053c-12.61 0-22.868 10.258-22.868 22.866v5.118c0 4.028.86 7.94 2.56 11.636v5.402c0 8.948 3.98 17.012 10.238 22.324v8.048l-4.458 4.686a2.385 2.385 0 0 0-.654 1.832L44.143 87.29c-1.05.384-2.046.906-2.96 1.552l-2.312-1.158c6.886-2.996 9.068-7.208 9.17-7.42a2.385 2.385 0 0 0 0-2.14c-1.724-3.452-1.932-9.778-2.1-14.86a132.466 132.466 0 0 0-.21-4.714c-.818-11.478-9.546-20.14-20.304-20.14-10.76 0-19.486 8.662-20.304 20.14-.098 1.424-.154 3.024-.21 4.714-.168 5.084-.376 11.408-2.102 14.86a2.398 2.398 0 0 0 0 2.14c.104.212 2.28 4.416 9.18 7.416l-6.424 3.214A10.017 10.017 0 0 0 0 99.901v17.682a2.396 2.396 0 0 0 2.396 2.396 2.397 2.397 0 0 0 2.392-2.396V99.901a5.26 5.26 0 0 1 2.92-4.728l8-4 2.78 2.646a10.052 10.052 0 0 0 6.94 2.772 10.052 10.052 0 0 0 6.938-2.772l2.782-2.646 2.608 1.306a12.595 12.595 0 0 0-1.926 6.682v18.422a2.396 2.396 0 0 0 2.394 2.396 2.396 2.396 0 0 0 2.394-2.396V99.161a7.871 7.871 0 0 1 5.162-7.372l15.528-5.644 6.466 9.694a4.949 4.949 0 0 0 7.624.754l3.94-3.94v24.93a2.396 2.396 0 0 0 2.396 2.396 2.397 2.397 0 0 0 2.394-2.396v-24.93l3.942 3.94a4.93 4.93 0 0 0 3.992 1.428 4.924 4.924 0 0 0 3.63-2.18l6.464-9.696 15.528 5.644a7.866 7.866 0 0 1 5.162 7.372v18.422a2.396 2.396 0 1 0 4.79 0v-18.42a12.651 12.651 0 0 0-3.542-8.758l.592-.168c.766-.202 1.51-.472 2.226-.806l6.112 6.112v22.04a2.396 2.396 0 0 0 4.79 0V95.545l6.068-6.07c.32.164.658.3 1.02.404l9.882 2.822a5.305 5.305 0 0 1 3.834 5.08v19.802a2.394 2.394 0 0 0 4.786 0v-19.8a10.114 10.114 0 0 0-7.304-9.686v.002z" mask="url(#c)"/>
        </g>
        <path fill="#393939" d="M115.693 104.953c-4.525 0-8.2 1.173-8.2 2.623v11.226c.123 1.452 3.908 2.59 8.44 2.55 4.347-.041 7.843-1.16 7.96-2.55v-11.226c0-1.447-3.675-2.623-8.2-2.623zm-56.301 0c-4.529 0-8.207 1.168-8.207 2.611v11.176c.007 1.445 3.685 2.613 8.214 2.613 4.52-.002 8.186-1.17 8.186-2.613v-11.176c0-1.44-3.665-2.61-8.193-2.61zm41.949-74.668c-9.054-10.847-27.996-8.776-35.72-7.382-2.424.432-4.214 2.931-4.196 5.87v6.605c.038 1.584 1.14 2.832 2.46 2.787 1.27-.046 2.29-1.268 2.326-2.787v-6.605c0-.096.052-.183.126-.192 3.084-.559 9.208-1.421 15.548-.91 7.464.594 12.872 2.837 16.07 6.669.906 1.155 2.422 1.213 3.386.127.962-1.086 1.008-2.9.104-4.055l-.104-.127zm-82.906 72.714c-4.53 0-8.196 1.072-8.196 2.394v12.19c.13 1.324 3.906 2.362 8.436 2.326 4.345-.038 7.834-1.058 7.964-2.326v-12.19c0-1.32-3.674-2.396-8.204-2.396V103zm138.142-3.166c-4.53 0-8.196 1.074-8.196 2.396v15.354c.13 1.324 3.906 2.362 8.436 2.326 4.338-.038 7.834-1.058 7.964-2.326V102.23c0-1.32-3.674-2.396-8.204-2.396z"/>
    </g>
</svg>
