<svg xmlns="http://www.w3.org/2000/svg" xmlns:xlink="http://www.w3.org/1999/xlink" width="119" height="97" viewBox="0 0 119 97">
    <defs>
        <path id="a" d="M0 97h119V21.903H0z"/>
    </defs>
    <g fill="none" fill-rule="evenodd">
        <path fill="#F38082" d="M42.299 21.903c1.184 0 2.154-1.06 2.154-2.353 0-8.198 6.108-14.87 13.613-14.87S71.68 11.353 71.68 19.55c0 1.293.97 2.353 2.155 2.353 1.183 0 2.154-1.06 2.154-2.353C75.988 8.766 67.962 0 58.09 0S40.145 8.766 40.145 19.55c0 1.293.97 2.353 2.154 2.353"/>
        <mask id="b" fill="#fff">
            <use xlink:href="#a"/>
        </mask>
        <path fill="#F38082" d="M84.541 71.496c0 11.428-8.615 20.733-19.25 20.733h-3.6V34.852h21.56c.706 0 1.29.629 1.29 1.39v35.254zM57.31 92.229h-3.602c-10.634 0-19.25-9.305-19.25-20.733V36.24c0-.76.585-1.39 1.29-1.39H57.31V92.23zm59.475-35.857H88.97v-9.699h7.033c5.403 0 9.832-4.744 9.832-10.563V24.288c0-1.31-.998-2.385-2.215-2.385-1.217 0-2.214 1.075-2.214 2.385V36.11c0 3.224-2.434 5.819-5.403 5.819H88.97v-5.688c0-3.381-2.555-6.133-5.694-6.133H35.724c-3.139 0-5.694 2.752-5.694 6.133v5.714h-7.033c-2.993 0-5.403-2.62-5.403-5.819V24.315c0-1.31-.997-2.386-2.214-2.386s-2.215 1.075-2.215 2.386v11.821c0 5.82 4.405 10.563 9.832 10.563h7.033v9.699H2.215C.998 56.398 0 57.473 0 58.783c0 1.31.998 2.385 2.215 2.385H30.03v9.62h-7.033c-5.403 0-9.832 4.744-9.832 10.564v11.82c0 1.311.998 2.386 2.215 2.386 1.217 0 2.214-1.075 2.214-2.385V81.352c0-3.224 2.434-5.82 5.403-5.82h7.325C32.122 87.695 41.906 97 53.684 97h11.608c11.778 0 21.585-9.332 23.362-21.468h7.35c2.992 0 5.402 2.621 5.402 5.82v11.82c0 1.311.997 2.386 2.214 2.386s2.215-1.075 2.215-2.385V81.352c0-5.82-4.405-10.564-9.832-10.564H88.97v-9.62h27.815c1.217 0 2.215-1.074 2.215-2.385-.024-1.337-.998-2.411-2.215-2.411z" mask="url(#b)"/>
    </g>
</svg>
