<svg xmlns="http://www.w3.org/2000/svg" xmlns:xlink="http://www.w3.org/1999/xlink" width="168" height="168" viewBox="0 0 168 168">
    <defs>
        <linearGradient id="b" x1="5.66%" x2="98.109%" y1="96.806%" y2="3.219%">
            <stop offset="0%" stop-color="#09B2CD"/>
            <stop offset="100%" stop-color="#00C5C5"/>
        </linearGradient>
        <path id="a" d="M44.391.698C20.133.698.468 20.246.468 44.36v78.983c0 24.114 19.665 43.663 43.923 43.663h79.453c24.257 0 43.922-19.549 43.922-43.663V44.36c0-24.114-19.665-43.662-43.922-43.662H44.391z"/>
        <path id="d" d="M.401 12.685C5.737 8.51 12.452 5.998 19.769 5.998c17.321 0 31.363 13.958 31.363 31.178 0 7.273-2.527 13.95-6.728 19.253 7.294-5.709 11.994-14.545 11.994-24.49C56.398 14.72 42.358.762 25.036.762 15.032.762 6.143 5.435.401 12.685"/>
        <path id="f" d="M.947 12.288C6.283 8.113 12.998 5.6 20.315 5.6c17.321 0 31.362 13.96 31.362 31.178 0 7.274-2.526 13.95-6.726 19.253 7.294-5.709 11.994-14.546 11.994-24.489 0-17.22-14.042-31.177-31.362-31.177C15.579.365 6.691 5.037.947 12.288"/>
        <path id="h" d="M.468 43.816c0 24.115 19.665 43.663 43.923 43.663h79.453c3.292 0 6.494-.371 9.578-1.053L.468.252v43.564z"/>
        <path id="j" d="M.468.253h132.955v87.226H.468z"/>
        <path id="l" d="M.08.698h43.254V33.26H.08z"/>
        <path id="n" d="M.081.455l44.685 23.532V11.555s-.047-6.82-1.433-11.1H.081z"/>
    </defs>
    <g fill="none" fill-rule="evenodd">
        <g transform="translate(0 .296)">
            <mask id="c" fill="#fff">
                <use xlink:href="#a"/>
            </mask>
            <use fill="url(#b)" xlink:href="#a"/>
            <path d="M44.391.698C20.133.698.468 20.246.468 44.36v78.983c0 24.114 19.665 43.663 43.923 43.663h79.453c24.257 0 43.922-19.549 43.922-43.663V44.36c0-24.114-19.665-43.662-43.922-43.662H44.391z" mask="url(#c)"/>
        </g>
        <g fill="#FFF">
            <path d="M105.02 31.483l-7.927-11.209c7.635-5.336 16.621-8.155 25.988-8.155v13.7c-6.514 0-12.759 1.959-18.06 5.664M118.004 156.178l-11.864-6.967a31.112 31.112 0 0 0 4.352-15.883c0-17.244-14.111-31.27-31.456-31.27-10.142 0-19.722 4.907-25.625 13.131l-11.218-7.958c8.485-11.817 22.257-18.874 36.843-18.874 24.944 0 45.237 20.174 45.237 44.971 0 8.05-2.168 15.953-6.27 22.85"/>
            <path d="M79.036 25.82c-17.345 0-31.456 14.026-31.456 31.267 0 17.243 14.111 31.27 31.456 31.27s31.456-14.027 31.456-31.27c0-17.241-14.111-31.268-31.456-31.268m0 76.238c-24.943 0-45.236-20.175-45.236-44.97 0-24.796 20.293-44.968 45.236-44.968 24.943 0 45.236 20.172 45.236 44.968 0 24.795-20.293 44.97-45.236 44.97"/>
        </g>
        <g transform="translate(54 25.148)">
            <mask id="e" fill="#fff">
                <use xlink:href="#d"/>
            </mask>
            <use fill="#000" fill-opacity=".1" xlink:href="#d"/>
            <path d="M.401 12.685C5.737 8.51 12.452 5.998 19.769 5.998c17.321 0 31.363 13.958 31.363 31.178 0 7.273-2.527 13.95-6.728 19.253 7.294-5.709 11.994-14.545 11.994-24.49C56.398 14.72 42.358.762 25.036.762 15.032.762 6.143 5.435.401 12.685" mask="url(#e)"/>
        </g>
        <g transform="translate(53 101.693)">
            <mask id="g" fill="#fff">
                <use xlink:href="#f"/>
            </mask>
            <use fill="#000" fill-opacity=".1" xlink:href="#f"/>
            <path d="M.947 12.288C6.283 8.113 12.998 5.6 20.315 5.6c17.321 0 31.362 13.96 31.362 31.178 0 7.274-2.526 13.95-6.726 19.253 7.294-5.709 11.994-14.546 11.994-24.489 0-17.22-14.042-31.177-31.362-31.177C15.579.365 6.691 5.037.947 12.288" mask="url(#g)"/>
        </g>
        <g transform="translate(0 79.823)">
            <mask id="i" fill="#fff">
                <use xlink:href="#h"/>
            </mask>
            <path d="M.468 43.816c0 24.115 19.665 43.663 43.923 43.663h79.453c3.292 0 6.494-.371 9.578-1.053L.468.252v43.564z" mask="url(#i)"/>
        </g>
        <g transform="translate(0 79.823)">
            <mask id="k" fill="#fff">
                <use xlink:href="#j"/>
            </mask>
            <path fill="#C4A97F" d="M.468 43.816c0 24.115 19.665 43.663 43.923 43.663h79.453c3.292 0 6.494-.371 9.579-1.054L.468.253v43.563z" mask="url(#k)"/>
        </g>
        <path stroke="#FFF" stroke-width="1.714" d="M.468 80.075l.718.465"/>
        <path stroke="#FFF" stroke-dasharray="1.725,1.725" stroke-width="1.714" d="M2.63 81.477l129.353 83.838"/>
        <path stroke="#FFF" stroke-width="1.714" d="M132.705 165.783l.718.465"/>
        <g transform="translate(123 .296)">
            <mask id="m" fill="#fff">
                <use xlink:href="#l"/>
            </mask>
            <path fill="#C4A97F" d="M.08.698V33.26h43.254S35.999.698.08.698" mask="url(#m)"/>
        </g>
        <g transform="translate(123 33.101)">
            <mask id="o" fill="#fff">
                <use xlink:href="#n"/>
            </mask>
            <use fill="#000" fill-opacity=".05" xlink:href="#n"/>
            <path d="M.081.455l44.685 23.532V11.555s-.047-6.82-1.433-11.1H.081z" mask="url(#o)"/>
        </g>
    </g>
</svg>
