<svg xmlns="http://www.w3.org/2000/svg" xmlns:xlink="http://www.w3.org/1999/xlink" width="99" height="99" viewBox="0 0 99 99">
    <defs>
        <path id="a" d="M.994.8h97.868v97.867H.994z"/>
    </defs>
    <g fill="none" fill-rule="evenodd">
        <g transform="translate(0 -.466)">
            <mask id="b" fill="#fff">
                <use xlink:href="#a"/>
            </mask>
            <path fill="#C4A97F" d="M73.167 98.667H26.69C12.497 98.667.994 87.163.994 72.972V26.493C.994 12.303 12.497.8 26.689.8h46.478c14.191 0 25.695 11.503 25.695 25.693v46.48c0 14.19-11.504 25.694-25.695 25.694" mask="url(#b)"/>
        </g>
        <path fill="#FFF" d="M62.156 18.275l-4.638-6.596a26.296 26.296 0 0 1 15.203-4.8v8.063c-3.81 0-7.464 1.152-10.565 3.333M69.75 91.654l-6.94-4.099a18.387 18.387 0 0 0 2.546-9.348c0-10.146-8.253-18.401-18.401-18.401a18.456 18.456 0 0 0-14.991 7.727l-6.563-4.683c4.964-6.953 13.022-11.107 21.554-11.107 14.592 0 26.462 11.874 26.462 26.464 0 4.738-1.268 9.388-3.666 13.447"/>
        <path fill="#FFF" d="M46.955 14.942c-10.146 0-18.401 8.253-18.401 18.4 0 10.148 8.255 18.402 18.401 18.402 10.147 0 18.402-8.254 18.402-18.402 0-10.147-8.255-18.4-18.402-18.4m0 44.864c-14.592 0-26.462-11.872-26.462-26.464 0-14.592 11.87-26.463 26.462-26.463 14.59 0 26.463 11.87 26.463 26.463 0 14.592-11.872 26.464-26.463 26.464"/>
    </g>
</svg>
