<svg xmlns="http://www.w3.org/2000/svg" xmlns:xlink="http://www.w3.org/1999/xlink" width="100" height="99" viewBox="0 0 100 99">
    <defs>
        <linearGradient id="b" x1="0%" y1="50%" y2="50%">
            <stop offset="0%" stop-color="#EEE"/>
            <stop offset="100%" stop-color="#8F8F8F"/>
        </linearGradient>
        <path id="a" d="M26.262.803C11.882.803.222 12.344.222 26.583v46.636C.222 87.459 11.882 99 26.262 99H73.37C87.75 99 99.41 87.458 99.41 73.219V26.583c0-14.239-11.66-25.78-26.042-25.78H26.262z"/>
    </defs>
    <g fill="none" fill-rule="evenodd">
        <g>
            <mask id="c" fill="#fff">
                <use xlink:href="#a"/>
            </mask>
            <use fill="url(#b)" xlink:href="#a"/>
            <path d="M26.262.803C11.882.803.222 12.344.222 26.583v46.636C.222 87.459 11.882 99 26.262 99H73.37C87.75 99 99.41 87.458 99.41 73.219V26.583c0-14.239-11.66-25.78-26.042-25.78H26.262z" mask="url(#c)"/>
        </g>
        <path fill="#FFF" d="M62.576 18L58 11.633C62.407 8.603 67.593 7 73 7v7.782c-3.76 0-7.364 1.112-10.424 3.218M70.258 92l-7.082-4.108a18.178 18.178 0 0 0 2.599-9.369c0-10.17-8.424-18.442-18.78-18.442-6.054 0-11.775 2.894-15.298 7.744L25 63.132C30.066 56.162 38.287 52 46.994 52 61.887 52 74 63.9 74 78.523A26.13 26.13 0 0 1 70.258 92"/>
        <path fill="#FFF" d="M47 15.074c-10.351 0-18.775 8.265-18.775 18.425 0 10.162 8.424 18.428 18.775 18.428 10.353 0 18.776-8.266 18.776-18.428 0-10.16-8.423-18.425-18.776-18.425M47 60c-14.887 0-27-11.888-27-26.5C20 18.886 32.113 7 47 7c14.888 0 27 11.887 27 26.5C74 48.111 61.888 60 47 60"/>
    </g>
</svg>
