<svg id="Layer_1" xmlns="http://www.w3.org/2000/svg" viewBox="0 0 64 88.5"><style>.st0{fill:#eb1944}.st1{fill:none;stroke:#eb1944;stroke-width:3;stroke-miterlimit:10}.st2{fill:#fff}.st3{fill:none;stroke:#fff;stroke-width:3;stroke-miterlimit:10}</style><g id="XMLID_739_"><g id="XMLID_740_"><g id="XMLID_780_"><path id="XMLID_782_" class="st0" d="M37.9 50.9c-2 1.3-4.3 2-6.8 2-7.4 0-13.4-6.3-13.4-14.5 0-8 3.2-13.8 6.4-20.4C28.8 8.1 30.6 4.6 31 0c0 0 2.2 2.9 1.9 6.9-.2 2.8-1.9 7.7-4 13.1-1.7 4.4-3.6 8.8-4.6 12.3-1 3.6-1.1 6-.4 9 .2 1.1.6 2.2 1.1 3.2 3.8 7 12.2 6.5 12.9 6.4z"/><path id="XMLID_781_" class="st0" d="M37.6 33c2.1 1.6 2 3.8 2 3.8 0 2.5-1.9 4.5-4.2 4.5s-4.2-2-4.2-4.5c0-.3.1-.9.1-.9.7-3.7 4-10.7 5-15.3 1.1-4.9-1.9-9.6-1.9-9.6s.7 1.7-3.7 12.4c-2 4.9-3.3 8.1-3.9 10-.7 2.1-.7 3.7-.7 4.3 0 5.5 4.1 9.9 9.2 9.9 5 0 9.1-4.5 9.1-9.9s-4.3-8.8-6.9-10.5c-1.5-1-1.5-2.6-1.5-2.6l-.7 2.3c-.7 2.6.2 4.5 1.9 5.8.2.1.3.2.4.3z"/></g><g id="XMLID_741_"><path id="XMLID_774_" class="st0" d="M14.1 56.5c.3 0 .6.3.6.6V68c0 .4.1.7.3.9.2.2.4.3.8.3.1 0 .3 0 .5-.1.3-.1.5.1.6.4.1.3-.1.6-.4.6-.1 0-.2.1-.3.1-.3.1-.6.1-.8.1-.5 0-1-.2-1.3-.5-.3-.3-.5-.8-.5-1.4V57.1c-.1-.3.1-.6.5-.6z"/><path id="XMLID_766_" class="st0" d="M19.1 57.7v-.6c0-.4.3-.6.6-.6s.6.3.6.6v.6c0 .4-.3.6-.6.6-.4.1-.6-.2-.6-.6zm0 12v-8.6c0-.4.3-.6.6-.6s.6.3.6.6v8.6c0 .4-.3.6-.6.6-.4 0-.6-.3-.6-.6z"/><path id="XMLID_764_" class="st0" d="M28 69.4c.1.3 0 .5-.3.6-.1.1-.3.1-.4.1-.2.1-.4.1-.6.2-.2.1-.5.1-.7.1-.3 0-.5 0-.7-.1l-.6-.3c-.2-.2-.3-.4-.4-.6-.1-.2-.2-.5-.2-.8v-7.1h-.8c-.3 0-.5-.2-.5-.5s.2-.5.5-.5h.8v-2.7c0-.4.3-.6.6-.6s.6.3.6.6v2.7H27c.3 0 .5.2.5.5s-.2.5-.5.5h-1.6v6.7c0 .4.1.6.4.8.2.2.5.3.7.3.3 0 .6-.1.9-.2.2-.2.5 0 .6.3z"/><path id="XMLID_762_" class="st0" d="M34.7 69.4c.1.3 0 .6-.3.7-.1.1-.3.1-.3.1-.2.1-.4.1-.6.2-.2.1-.5.1-.7.1-.3 0-.5 0-.7-.1l-.6-.3c-.2-.2-.3-.4-.4-.6-.1-.2-.2-.5-.2-.8v-7.1h-.8c-.3 0-.5-.2-.5-.5s.2-.5.5-.5h.8v-2.7c0-.4.3-.6.6-.6s.6.3.6.6v2.7h1.6c.3 0 .5.2.5.5s-.2.5-.5.5h-1.6v6.7c0 .4.1.6.4.8.2.2.5.3.7.3.3 0 .6-.1.9-.2.2-.3.5-.1.6.2z"/><path id="XMLID_760_" class="st0" d="M37.9 56.5c.3 0 .6.3.6.6V68c0 .4.1.7.3.9.2.2.4.3.8.3.1 0 .3 0 .5-.1.3-.1.5.1.6.4.1.3-.1.6-.4.6-.1 0-.2.1-.3.1-.3.1-.6.1-.8.1-.5 0-1-.2-1.3-.5-.3-.3-.5-.8-.5-1.4V57.1c-.1-.3.2-.6.5-.6z"/><path id="XMLID_757_" class="st0" d="M46.8 70.5c-.7 0-1.3-.1-1.8-.4-.6-.3-1-.6-1.4-1.1-.4-.5-.7-1-1-1.6-.2-.6-.3-1.3-.3-2s.1-1.3.3-2c.2-.6.5-1.1.9-1.6s.9-.8 1.4-1.1c.6-.3 1.2-.4 1.8-.4.7 0 1.3.1 1.8.4.6.3 1.1.6 1.4 1.1.1.1.2.3.3.4 1 1.5-.1 3.6-1.8 3.6h-5.1c0 .5.1 1 .3 1.5.2.4.4.8.7 1.2.3.3.7.6 1 .8.4.2.8.3 1.3.3.3 0 .6 0 .9-.1.3-.1.6-.2.8-.4.2-.2.5-.3.7-.6.1-.1.2-.3.3-.4.1-.2.4-.3.6-.2.4.1.5.6.3.9-.1.1-.2.2-.2.3-.3.3-.6.6-.9.8-.3.2-.7.4-1.1.5-.3 0-.7.1-1.2.1zm1.7-5.6c.9 0 1.5-1.1 1-1.9-.1-.2-.3-.5-.5-.6-.3-.3-.6-.6-1-.7-.4-.2-.8-.3-1.3-.3-.4 0-.9.1-1.3.3-.4.2-.7.4-1 .7-.3.3-.5.7-.7 1.1-.2.4-.3.9-.3 1.4h5.1z"/><path id="XMLID_754_" class="st0" d="M4.5 88.5c-.7 0-1.4-.2-2-.6-.6-.4-1.1-.9-1.4-1.5v1.3c0 .3-.2.6-.5.6-.4 0-.6-.3-.6-.6V75.1c0-.4.3-.6.6-.6s.6.3.6.6v5.4c.4-.7.9-1.2 1.5-1.6.6-.4 1.2-.6 2-.6.6 0 1.2.1 1.7.4.5.3.9.7 1.3 1.2s.6 1 .8 1.6c.2.6.3 1.2.3 1.9s-.1 1.3-.3 2c-.3.6-.6 1.1-1 1.6s-.8.8-1.4 1.1c-.5.2-1 .4-1.6.4zm-.3-1.2c.5 0 1-.1 1.4-.3.4-.2.8-.5 1.1-.9.3-.4.5-.8.7-1.3.2-.5.3-1 .3-1.5s-.1-1-.2-1.5c-.3-.4-.5-.8-.8-1.2-.3-.4-.6-.7-1-.9-.4-.2-.8-.3-1.3-.3-.4 0-.7.1-1 .2-.3.1-.6.3-.9.5-.3.2-.5.5-.7.8-.2.3-.4.6-.5.9v3.1c0 .3.2.7.4 1 .2.3.4.6.7.8.3.2.6.4.9.5.3.1.6.1.9.1z"/><path id="XMLID_752_" class="st0" d="M16.2 79c0 .3-.2.6-.5.6-.6.1-1.1.3-1.6.7-.6.5-1 1.1-1.3 1.9v5.5c0 .3-.3.6-.6.6h-.1c-.3 0-.6-.3-.6-.6V79c0-.3.3-.6.6-.6s.6.3.6.6v1.8c.3-.8.8-1.3 1.4-1.8.3-.2.6-.4.9-.5.2 0 .3-.1.5-.1.4 0 .7.2.7.6z"/><path id="XMLID_749_" class="st0" d="M24.5 86.6c-.4.6-.9 1-1.6 1.4-.6.3-1.3.5-2.1.5-.4 0-.8-.1-1.2-.2s-.7-.4-1-.7c-.3-.3-.5-.6-.6-1-.2-.4-.2-.8-.2-1.2 0-.4.1-.8.3-1.2.2-.4.4-.7.8-.9.3-.3.7-.5 1.2-.6.5-.1 1-.2 1.5-.2s.9 0 1.4.1c.5.1.9.2 1.3.4v-.9c0-.9-.2-1.6-.7-2.1-.5-.5-1.1-.8-1.9-.8-.5 0-.9.1-1.4.3-.4.1-.7.3-1.1.6-.2.1-.5.1-.6-.2-.1-.2 0-.5.2-.6 1.1-.7 2.1-1 3.1-1 1.1 0 2 .3 2.7 1 .7.7 1 1.7 1 2.9v5.5c0 .3-.2.6-.5.6s-.5-.3-.5-.6l-.1-1.1zm-3.4.9c.6 0 1.2-.1 1.7-.4.5-.3.9-.6 1.2-1 .1-.1.2-.2.2-.4.1-.1.1-.3.1-.4v-1.6c-.4-.2-.8-.3-1.2-.4-.4-.1-.9-.1-1.3-.1-.8 0-1.5.2-2 .6-.5.4-.8.9-.8 1.5 0 .3.1.6.2.9.1.3.3.5.5.7.2.2.4.3.7.5.2 0 .4.1.7.1z"/><path id="XMLID_746_" class="st0" d="M63 86.6c-.4.6-.9 1-1.6 1.4-.6.3-1.3.5-2.1.5-.4 0-.8-.1-1.2-.2s-.7-.4-1-.7c-.3-.3-.5-.6-.6-1-.2-.4-.2-.8-.2-1.2 0-.4.1-.8.3-1.2.2-.4.4-.7.8-.9.3-.3.7-.5 1.2-.6.5-.1 1-.2 1.5-.2s.9 0 1.4.1c.5.1.9.2 1.3.4v-.9c0-.9-.2-1.6-.7-2.1-.5-.5-1.1-.8-1.9-.8-.5 0-.9.1-1.4.3-.4.1-.7.3-1.1.6-.2.1-.5.1-.6-.2-.1-.2 0-.5.2-.6 1.1-.7 2.1-1 3.1-1 1.1 0 2 .3 2.7 1 .7.7 1 1.7 1 2.9v5.5c0 .3-.2.6-.5.6s-.5-.3-.5-.6l-.1-1.1zm-3.4.9c.6 0 1.2-.1 1.7-.4.5-.3.9-.6 1.2-1 .1-.1.2-.2.2-.4.1-.1.1-.3.1-.4v-1.6c-.4-.2-.8-.3-1.2-.4-.4-.1-.9-.1-1.3-.1-.8 0-1.5.2-2 .6-.5.4-.8.9-.8 1.5 0 .3.1.6.2.9.1.3.3.5.5.7.2.2.4.3.7.5.1 0 .4.1.7.1z"/><path id="XMLID_744_" class="st0" d="M36.1 88.3c-.3 0-.6-.3-.6-.6v-4.9c0-1.1-.2-2-.5-2.5-.4-.6-.9-.8-1.6-.8-.3 0-.7.1-1 .2-.3.1-.6.3-.9.6-.3.3-.5.5-.8.9-.2.3-.4.7-.5 1.1v5.4c0 .4-.3.6-.6.6s-.6-.3-.6-.6V75.1c0-.4.3-.6.6-.6s.6.3.6.6v5.5c.4-.7.9-1.3 1.5-1.8.6-.4 1.3-.6 2.1-.6.5 0 1 .1 1.3.3.4.2.7.5.9.9.2.4.4.8.5 1.3.1.5.2 1.1.2 1.7v5.1c0 .5-.3.8-.6.8z"/><path id="XMLID_742_" class="st0" d="M53 88.3c-.3 0-.6-.3-.6-.6v-4.9c0-1.1-.2-2-.5-2.5s-.8-.8-1.5-.8c-.4 0-.7.1-1 .2-.3.1-.6.3-.9.6-.3.3-.5.6-.7.9-.2.3-.4.7-.5 1.1v5.4c0 .4-.3.6-.6.6s-.6-.3-.6-.6v-4.9c0-1.2-.2-2-.5-2.6-.3-.5-.8-.8-1.5-.8s-1.3.3-1.8.8-.9 1.2-1.2 2v5.4c0 .4-.3.6-.6.6s-.6-.3-.6-.6V79c0-.3.2-.6.5-.6s.5.3.5.6v1.6c.4-.8.9-1.3 1.5-1.8.6-.4 1.3-.6 2-.6.8 0 1.4.2 1.8.7.5.5.7 1.1.8 1.8.9-1.7 2-2.5 3.5-2.5.5 0 .9.1 1.3.3.4.2.6.5.9.9.2.4.4.8.5 1.3.1.5.1 1.1.1 1.7v5.1c.3.5.1.8-.3.8z"/></g></g></g><g id="XMLID_735_"><path id="XMLID_738_" class="st1" d="M180 77.7h22"/><path id="XMLID_737_" class="st1" d="M180 70.2h22"/><path id="XMLID_736_" class="st1" d="M180 62.7h22"/></g><g id="XMLID_5_"><g id="XMLID_6_"><g id="XMLID_37_"><path id="XMLID_39_" class="st2" d="M37.9-106.1c-2 1.3-4.3 2-6.8 2-7.4 0-13.4-6.3-13.4-14.5 0-8 3.2-13.8 6.4-20.4 4.7-9.8 6.5-13.4 6.9-17.9 0 0 2.2 2.9 1.9 6.9-.2 2.8-1.9 7.7-4 13.1-1.7 4.4-3.6 8.8-4.6 12.3-1 3.6-1.1 6-.4 9 .2 1.1.6 2.2 1.1 3.2 3.8 6.9 12.2 6.4 12.9 6.3z"/><path id="XMLID_38_" class="st2" d="M37.6-124c2.1 1.6 2 3.8 2 3.8 0 2.5-1.9 4.5-4.2 4.5s-4.2-2-4.2-4.5c0-.3.1-.9.1-.9.7-3.7 4-10.7 5-15.3 1.1-4.9-1.9-9.6-1.9-9.6s.7 1.7-3.7 12.4c-2 4.9-3.3 8.1-3.9 10-.7 2.1-.7 3.7-.7 4.3 0 5.5 4.1 9.9 9.2 9.9 5 0 9.1-4.5 9.1-9.9s-4.3-8.8-6.9-10.5c-1.5-1-1.5-2.6-1.5-2.6l-.7 2.3c-.7 2.6.2 4.5 1.9 5.8.2.1.3.2.4.3z"/></g><g id="XMLID_7_"><path id="XMLID_35_" class="st2" d="M14.1-100.5c.3 0 .6.3.6.6V-89c0 .4.1.7.3.9.2.2.4.3.8.3.1 0 .3 0 .5-.1.3-.1.5.1.6.4.1.3-.1.6-.4.6-.1 0-.2.1-.3.1-.3.1-.6.1-.8.1-.5 0-1-.2-1.3-.5-.3-.3-.5-.8-.5-1.4V-100c-.1-.2.1-.5.5-.5z"/><path id="XMLID_32_" class="st2" d="M19.1-99.3v-.6c0-.4.3-.6.6-.6s.6.3.6.6v.6c0 .4-.3.6-.6.6-.4.1-.6-.2-.6-.6zm0 12v-8.6c0-.4.3-.6.6-.6s.6.3.6.6v8.6c0 .4-.3.6-.6.6-.4 0-.6-.3-.6-.6z"/><path id="XMLID_30_" class="st2" d="M28-87.6c.1.3 0 .5-.3.6-.1.1-.3.1-.4.1-.2.1-.4.1-.6.2-.2.1-.5.1-.7.1-.3 0-.5 0-.7-.1l-.6-.3c-.2-.2-.3-.4-.4-.6-.1-.2-.2-.5-.2-.8v-7.1h-.8c-.3 0-.5-.2-.5-.5s.2-.5.5-.5h.8v-2.7c0-.4.3-.6.6-.6s.6.3.6.6v2.7H27c.3 0 .5.2.5.5s-.2.5-.5.5h-1.6v6.7c0 .4.1.6.4.8.2.2.5.3.7.3.3 0 .6-.1.9-.2.2-.2.5 0 .6.3z"/><path id="XMLID_28_" class="st2" d="M34.7-87.6c.1.3 0 .6-.3.7-.1.1-.3.1-.3.1-.2.1-.4.1-.6.2-.2.1-.5.1-.7.1-.3 0-.5 0-.7-.1l-.6-.3c-.2-.2-.3-.4-.4-.6-.1-.2-.2-.5-.2-.8v-7.1h-.8c-.3 0-.5-.2-.5-.5s.2-.5.5-.5h.8v-2.7c0-.4.3-.6.6-.6s.6.3.6.6v2.7h1.6c.3 0 .5.2.5.5s-.2.5-.5.5h-1.6v6.7c0 .4.1.6.4.8.2.2.5.3.7.3.3 0 .6-.1.9-.2.2-.3.5-.1.6.2z"/><path id="XMLID_26_" class="st2" d="M37.9-100.5c.3 0 .6.3.6.6V-89c0 .4.1.7.3.9.2.2.4.3.8.3.1 0 .3 0 .5-.1.3-.1.5.1.6.4.1.3-.1.6-.4.6-.1 0-.2.1-.3.1-.3.1-.6.1-.8.1-.5 0-1-.2-1.3-.5-.3-.3-.5-.8-.5-1.4V-100c-.1-.2.2-.5.5-.5z"/><path id="XMLID_23_" class="st2" d="M46.8-86.5c-.7 0-1.3-.1-1.8-.4-.6-.3-1-.6-1.4-1.1-.4-.5-.7-1-1-1.6-.2-.6-.3-1.3-.3-2s.1-1.3.3-2c.2-.6.5-1.1.9-1.6s.9-.8 1.4-1.1c.6-.3 1.2-.4 1.8-.4.7 0 1.3.1 1.8.4.6.3 1.1.6 1.4 1.1.1.1.2.3.3.4 1 1.5-.1 3.6-1.8 3.6h-5.1c0 .5.1 1 .3 1.5.2.4.4.8.7 1.2.3.3.7.6 1 .8.4.2.8.3 1.3.3.3 0 .6 0 .9-.1.3-.1.6-.2.8-.4.2-.2.5-.3.7-.6.1-.1.2-.3.3-.4.1-.2.4-.3.6-.2.4.1.5.6.3.9-.1.1-.2.2-.2.3-.3.3-.6.6-.9.8-.3.2-.7.4-1.1.5-.3 0-.7.1-1.2.1zm1.7-5.6c.9 0 1.5-1.1 1-1.9-.1-.2-.3-.5-.5-.6-.3-.3-.6-.6-1-.7-.4-.2-.8-.3-1.3-.3-.4 0-.9.1-1.3.3-.4.2-.7.4-1 .7-.3.3-.5.7-.7 1.1-.2.4-.3.9-.3 1.4h5.1z"/><path id="XMLID_20_" class="st2" d="M4.5-68.5c-.7 0-1.4-.2-2-.6-.6-.4-1.1-.9-1.4-1.5v1.3c0 .3-.2.6-.5.6-.4 0-.6-.3-.6-.6v-12.6c0-.4.3-.6.6-.6s.6.3.6.6v5.4c.4-.7.9-1.2 1.5-1.6.6-.4 1.2-.6 2-.6.6 0 1.2.1 1.7.4.5.3.9.7 1.3 1.2s.6 1 .8 1.6c.2.6.3 1.2.3 1.9s-.1 1.3-.3 2c-.3.6-.6 1.1-1 1.6s-.8.8-1.4 1.1c-.5.2-1 .4-1.6.4zm-.3-1.2c.5 0 1-.1 1.4-.3.4-.2.8-.5 1.1-.9.3-.4.5-.8.7-1.3.2-.5.3-1 .3-1.5s-.1-1-.2-1.5c-.3-.4-.5-.8-.8-1.2-.3-.4-.6-.7-1-.9-.4-.2-.8-.3-1.3-.3-.4 0-.7.1-1 .2-.3.1-.6.3-.9.5-.3.2-.5.5-.7.8-.2.3-.4.6-.5.9v3.1c0 .3.2.7.4 1 .2.3.4.6.7.8.3.2.6.4.9.5.3.1.6.1.9.1z"/><path id="XMLID_18_" class="st2" d="M16.2-78c0 .3-.2.6-.5.6-.6.1-1.1.3-1.6.7-.6.5-1 1.1-1.3 1.9v5.5c0 .3-.3.6-.6.6h-.1c-.3 0-.6-.3-.6-.6V-78c0-.3.3-.6.6-.6s.6.3.6.6v1.8c.3-.8.8-1.3 1.4-1.8.3-.2.6-.4.9-.5.2 0 .3-.1.5-.1.4 0 .7.2.7.6z"/><path id="XMLID_15_" class="st2" d="M24.5-70.4c-.4.6-.9 1-1.6 1.4-.6.3-1.3.5-2.1.5-.4 0-.8-.1-1.2-.2s-.7-.4-1-.7c-.3-.3-.5-.6-.6-1-.2-.4-.2-.8-.2-1.2 0-.4.1-.8.3-1.2.2-.4.4-.7.8-.9.3-.3.7-.5 1.2-.6.5-.1 1-.2 1.5-.2s.9 0 1.4.1c.5.1.9.2 1.3.4v-.9c0-.9-.2-1.6-.7-2.1-.5-.5-1.1-.8-1.9-.8-.5 0-.9.1-1.4.3-.4.1-.7.3-1.1.6-.2.1-.5.1-.6-.2-.1-.2 0-.5.2-.6 1.1-.7 2.1-1 3.1-1 1.1 0 2 .3 2.7 1 .7.7 1 1.7 1 2.9v5.5c0 .3-.2.6-.5.6s-.5-.3-.5-.6l-.1-1.1zm-3.4.9c.6 0 1.2-.1 1.7-.4.5-.3.9-.6 1.2-1 .1-.1.2-.2.2-.4.1-.1.1-.3.1-.4v-1.6c-.4-.2-.8-.3-1.2-.4-.4-.1-.9-.1-1.3-.1-.8 0-1.5.2-2 .6-.5.4-.8.9-.8 1.5 0 .3.1.6.2.9.1.3.3.5.5.7.2.2.4.3.7.5.2 0 .4.1.7.1z"/><path id="XMLID_12_" class="st2" d="M63-70.4c-.4.6-.9 1-1.6 1.4-.6.3-1.3.5-2.1.5-.4 0-.8-.1-1.2-.2s-.7-.4-1-.7c-.3-.3-.5-.6-.6-1-.2-.4-.2-.8-.2-1.2 0-.4.1-.8.3-1.2.2-.4.4-.7.8-.9.3-.3.7-.5 1.2-.6.5-.1 1-.2 1.5-.2s.9 0 1.4.1c.5.1.9.2 1.3.4v-.9c0-.9-.2-1.6-.7-2.1-.5-.5-1.1-.8-1.9-.8-.5 0-.9.1-1.4.3-.4.1-.7.3-1.1.6-.2.1-.5.1-.6-.2-.1-.2 0-.5.2-.6 1.1-.7 2.1-1 3.1-1 1.1 0 2 .3 2.7 1 .7.7 1 1.7 1 2.9v5.5c0 .3-.2.6-.5.6s-.5-.3-.5-.6l-.1-1.1zm-3.4.9c.6 0 1.2-.1 1.7-.4.5-.3.9-.6 1.2-1 .1-.1.2-.2.2-.4.1-.1.1-.3.1-.4v-1.6c-.4-.2-.8-.3-1.2-.4-.4-.1-.9-.1-1.3-.1-.8 0-1.5.2-2 .6-.5.4-.8.9-.8 1.5 0 .3.1.6.2.9.1.3.3.5.5.7.2.2.4.3.7.5.1 0 .4.1.7.1z"/><path id="XMLID_10_" class="st2" d="M36.1-68.7c-.3 0-.6-.3-.6-.6v-4.9c0-1.1-.2-2-.5-2.5-.4-.6-.9-.8-1.6-.8-.3 0-.7.1-1 .2-.3.1-.6.3-.9.6-.3.3-.5.5-.8.9-.2.3-.4.7-.5 1.1v5.4c0 .4-.3.6-.6.6s-.6-.3-.6-.6v-12.5c0-.4.3-.6.6-.6s.6.3.6.6v5.5c.4-.7.9-1.3 1.5-1.8.6-.4 1.3-.6 2.1-.6.5 0 1 .1 1.3.3.4.2.7.5.9.9.2.4.4.8.5 1.3.1.5.2 1.1.2 1.7v5.1c0 .4-.3.7-.6.7z"/><path id="XMLID_8_" class="st2" d="M53-68.7c-.3 0-.6-.3-.6-.6v-4.9c0-1.1-.2-2-.5-2.5s-.8-.8-1.5-.8c-.4 0-.7.1-1 .2-.3.1-.6.3-.9.6-.3.3-.5.6-.7.9-.2.3-.4.7-.5 1.1v5.4c0 .4-.3.6-.6.6s-.6-.3-.6-.6v-4.9c0-1.2-.2-2-.5-2.6-.3-.5-.8-.8-1.5-.8s-1.3.3-1.8.8-.9 1.2-1.2 2v5.4c0 .4-.3.6-.6.6s-.6-.3-.6-.6V-78c0-.3.2-.6.5-.6s.5.3.5.6v1.6c.4-.8.9-1.3 1.5-1.8.6-.4 1.3-.6 2-.6.8 0 1.4.2 1.8.7.5.5.7 1.1.8 1.8.9-1.7 2-2.5 3.5-2.5.5 0 .9.1 1.3.3.4.2.6.5.9.9.2.4.4.8.5 1.3.1.5.1 1.1.1 1.7v5.1c.3.5.1.8-.3.8z"/></g></g></g><g id="XMLID_1_"><path id="XMLID_4_" class="st3" d="M180-79.3h22"/><path id="XMLID_3_" class="st3" d="M180-86.8h22"/><path id="XMLID_2_" class="st3" d="M180-94.3h22"/></g></svg>