<svg xmlns="http://www.w3.org/2000/svg" width="129" height="77" viewBox="0 0 129 77">
    <g fill="#F38082" fill-rule="evenodd">
        <path d="M112.718 30.649c-7.059 0-12.752-6.01-12.752-13.341 0-7.332 5.693-13.342 12.639-13.342 3.985 0 7.514 1.923 9.791 4.928-.113 0-.113.12-.227.12l-12.183 10.938-4.099-6.25c-.57-.841-1.708-1.082-2.505-.48-.797.6-1.024 1.802-.455 2.643l5.237 8.053c.342.481.797.721 1.253.842h.227c.456 0 .911-.12 1.139-.481l13.435-12.02c.57 1.563.911 3.246.911 5.049.228 7.331-5.465 13.341-12.41 13.341m0-30.649c-8.995 0-16.282 7.692-16.282 17.188 0 9.495 7.287 17.187 16.281 17.187 8.995 0 16.282-7.692 16.282-17.188C129 7.693 121.713 0 112.718 0M95.031 73.118H18.94c-8.467 0-15.263-7.522-15.263-16.622 0-9.22 6.908-16.621 15.263-16.621h76.092c8.467 0 15.263 7.522 15.263 16.621 0 9.1-6.796 16.622-15.263 16.622m0-37.368H18.94C8.467 35.75 0 44.97 0 56.375 0 67.779 8.467 77 18.94 77H95.03c10.473 0 18.94-9.22 18.94-20.625 0-11.404-8.467-20.625-18.94-20.625"/>
        <path d="M34.475 54.4h-2.192l2.653-2.806c.692-.764.692-2.04 0-2.932-.692-.765-1.846-.892-2.653-.127l-2.884 3.06v-2.806c0-1.147-.807-2.039-1.846-2.039-1.038 0-1.845.892-1.845 2.04v2.422L23.17 48.28c-.692-.765-1.846-.893-2.653-.128-.692.765-.808 2.04-.116 2.933l2.769 3.187h-2.538c-1.038 0-1.846.892-1.846 2.04 0 1.147.808 2.039 1.846 2.039h2.307l-2.653 2.805c-.692.765-.807 2.04-.115 2.932.346.382.807.637 1.384.637.461 0 .923-.127 1.269-.51l2.884-3.06v2.806c0 1.147.807 2.039 1.845 2.039 1.039 0 1.846-.892 1.846-2.04v-2.422l2.538 2.932c.346.383.807.638 1.384.638.462 0 .923-.128 1.27-.51.691-.765.807-2.04.114-2.932l-2.768-3.187h2.538c1.038 0 1.845-.893 1.845-2.04s-.807-2.04-1.845-2.04M54.501 54.349h-2.206l2.67-2.786c.698-.76.814-2.027.117-2.913-.697-.76-1.858-.887-2.67-.127l-2.904 3.04v-2.787c0-1.14-.813-2.026-1.858-2.026-1.045 0-1.858.887-1.858 2.026v2.407l-2.554-2.787c-.697-.76-1.858-.886-2.671-.126-.697.76-.813 2.026-.116 2.913l2.787 3.166h-2.555c-1.045 0-1.858.886-1.858 2.026 0 1.14.813 2.026 1.858 2.026h2.206l-2.67 2.786c-.697.76-.813 2.027-.116 2.913.348.38.812.634 1.393.634.464 0 .929-.127 1.277-.507l2.903-3.04v2.786c0 1.14.813 2.027 1.858 2.027 1.045 0 1.858-.887 1.858-2.027v-2.406l2.555 2.913c.348.38.813.633 1.393.633.465 0 .93-.126 1.277-.506.697-.76.813-2.026.117-2.913l-2.787-3.293H54.5c1.045 0 1.858-.886 1.858-2.026 0-1.14-.813-2.026-1.858-2.026M74.437 54.4h-2.192l2.653-2.806c.692-.764.808-2.04.116-2.932-.692-.765-1.846-.892-2.653-.127l-2.884 3.06v-2.806c0-1.147-.808-2.039-1.846-2.039s-1.846.892-1.846 2.04v2.422l-2.537-2.932c-.693-.765-1.846-.893-2.654-.128-.691.765-.807 2.04-.115 2.933l2.769 3.187H60.71c-1.038 0-1.846.892-1.846 2.04 0 1.147.808 2.039 1.846 2.039H62.9l-2.653 2.805c-.692.765-.807 2.04-.115 2.932.346.382.807.637 1.384.637.462 0 .923-.127 1.27-.51l2.883-3.06v2.806c0 1.147.807 2.039 1.846 2.039 1.038 0 1.845-.892 1.845-2.04v-2.422L71.9 64.47c.346.383.807.638 1.384.638.462 0 .923-.128 1.27-.51.692-.765.807-2.04.115-2.932l-2.653-3.187h2.537c1.038 0 1.846-.893 1.846-2.04s-.923-2.04-1.961-2.04M94.579 54.4h-2.206l2.67-2.806c.697-.764.813-2.04.117-2.932-.697-.765-1.858-.892-2.671-.127l-2.903 3.06v-2.806c0-1.147-.813-2.039-1.858-2.039-1.045 0-1.858.892-1.858 2.04v2.422l-2.555-2.932c-.696-.765-1.857-.893-2.67-.128-.697.765-.813 2.04-.116 2.933l2.786 3.187h-2.554c-1.045 0-1.858.892-1.858 2.04 0 1.147.813 2.039 1.858 2.039h2.206l-2.67 2.805c-.697.765-.813 2.04-.117 2.932.349.382.813.637 1.394.637.464 0 .929-.127 1.277-.51l2.903-3.06v2.806c0 1.147.813 2.039 1.858 2.039 1.045 0 1.858-.892 1.858-2.04v-2.422l2.554 2.932c.349.383.813.638 1.394.638.465 0 .929-.128 1.277-.51.697-.765.813-2.04.116-2.932l-2.787-3.187h2.555c1.045 0 1.858-.893 1.858-2.04s-.813-2.04-1.858-2.04"/>
    </g>
</svg>
