<svg xmlns="http://www.w3.org/2000/svg" width="104" height="91" viewBox="0 0 104 91">
    <g fill="#F38082" fill-rule="nonzero">
        <path d="M102.088 80.278H68.186v-4.536c0-1.139-.855-2.062-1.911-2.062H53.912V62.408h20.774c1.056 0 1.912-.923 1.912-2.062V17.994c0-.547-.201-1.071-.56-1.458L61.27.604A1.843 1.843 0 0 0 59.917 0H29.314c-1.056 0-1.912.923-1.912 2.062v58.284c0 1.139.856 2.062 1.912 2.062h20.774V73.68H37.725c-1.055 0-1.911.923-1.911 2.062v4.536H1.912C.856 80.278 0 81.2 0 82.34c0 1.139.856 2.062 1.912 2.062h33.902v4.536c0 1.139.856 2.062 1.911 2.062h28.55c1.056 0 1.911-.923 1.911-2.062v-4.536h33.902c1.056 0 1.912-.923 1.912-2.062 0-1.139-.856-2.062-1.912-2.062zM61.83 7.04l8.243 8.89h-8.243v-8.89zM31.225 4.124h26.78v13.87c0 1.139.856 2.062 1.912 2.062h12.858v38.228h-41.55V4.124zm33.138 82.752H39.637v-9.072h24.726v9.072z"/>
        <path d="M66.942 44H40.058C38.92 44 38 45.12 38 46.5s.921 2.5 2.058 2.5h26.884C68.08 49 69 47.88 69 46.5s-.92-2.5-2.058-2.5z"/>
        <path d="M66.942 44H40.058C38.92 44 38 45.12 38 46.5s.921 2.5 2.058 2.5h26.884C68.08 49 69 47.88 69 46.5s-.92-2.5-2.058-2.5z"/>
        <path d="M66.942 44H40.058C38.92 44 38 45.12 38 46.5s.921 2.5 2.058 2.5h26.884C68.08 49 69 47.88 69 46.5s-.92-2.5-2.058-2.5z"/>
    </g>
</svg>
