<svg xmlns="http://www.w3.org/2000/svg" xmlns:xlink="http://www.w3.org/1999/xlink" width="100" height="99" viewBox="0 0 100 99">
    <defs>
        <path id="a" d="M.786.8h99.191v97.867H.787z"/>
    </defs>
    <g fill="none" fill-rule="evenodd">
        <g transform="translate(0 -.466)">
            <mask id="b" fill="#fff">
                <use xlink:href="#a"/>
            </mask>
            <path fill="#E3E3E3" d="M73.935 98.667H26.827c-14.381 0-26.04-11.504-26.04-25.695V26.493C.786 12.303 12.445.8 26.826.8h47.108c14.383 0 26.042 11.503 26.042 25.693v46.48c0 14.19-11.66 25.694-26.042 25.694" mask="url(#b)"/>
        </g>
        <path fill="#B0B0B0" d="M62.775 18.275l-4.7-6.596c4.527-3.14 9.854-4.8 15.408-4.8v8.063a18.687 18.687 0 0 0-10.708 3.333M70.472 91.654l-7.035-4.099a18.19 18.19 0 0 0 2.583-9.348c0-10.146-8.368-18.401-18.652-18.401-6.012 0-11.693 2.888-15.192 7.727l-6.651-4.683c5.03-6.953 13.196-11.107 21.843-11.107 14.79 0 26.82 11.874 26.82 26.464 0 4.738-1.285 9.388-3.716 13.447"/>
        <path fill="#B0B0B0" d="M47.369 14.942c-10.284 0-18.65 8.253-18.65 18.4 0 10.148 8.366 18.402 18.65 18.402 10.283 0 18.65-8.254 18.65-18.402 0-10.147-8.367-18.4-18.65-18.4m0 44.864c-14.79 0-26.82-11.872-26.82-26.464 0-14.592 12.03-26.463 26.82-26.463 14.789 0 26.82 11.87 26.82 26.463 0 14.592-12.031 26.464-26.82 26.464"/>
    </g>
</svg>
