<svg xmlns="http://www.w3.org/2000/svg" xmlns:xlink="http://www.w3.org/1999/xlink" width="100" height="99" viewBox="0 0 100 99">
    <defs>
        <linearGradient id="b" x1="100%" x2="0%" y1="0%" y2="100%">
            <stop offset="0%" stop-color="#00C5C5"/>
            <stop offset="100%" stop-color="#09B2CD"/>
        </linearGradient>
        <path id="a" d="M26.595.8C12.214.8.553 12.303.553 26.493v46.479c0 14.192 11.66 25.695 26.042 25.695h47.108c14.38 0 26.04-11.503 26.04-25.695V26.493C99.743 12.303 88.083.8 73.703.8H26.595z"/>
    </defs>
    <g fill="none" fill-rule="evenodd">
        <g transform="translate(0 -.466)">
            <mask id="c" fill="#fff">
                <use xlink:href="#a"/>
            </mask>
            <use fill="url(#b)" xlink:href="#a"/>
            <path d="M26.595.8C12.214.8.553 12.303.553 26.493v46.479c0 14.192 11.66 25.695 26.042 25.695h47.108c14.38 0 26.04-11.503 26.04-25.695V26.493C99.743 12.303 88.083.8 73.703.8H26.595z" mask="url(#c)"/>
        </g>
        <path fill="#FFF" d="M62.542 18.275l-4.7-6.596c4.527-3.14 9.854-4.8 15.408-4.8v8.063a18.687 18.687 0 0 0-10.708 3.333M70.24 91.654l-7.034-4.099a18.2 18.2 0 0 0 2.58-9.348c0-10.146-8.366-18.401-18.65-18.401-6.013 0-11.694 2.888-15.193 7.727l-6.651-4.683c5.031-6.953 13.196-11.107 21.843-11.107 14.79 0 26.82 11.874 26.82 26.464 0 4.738-1.283 9.388-3.716 13.447"/>
        <path fill="#FFF" d="M47.136 14.942c-10.283 0-18.65 8.253-18.65 18.4 0 10.148 8.367 18.402 18.65 18.402 10.283 0 18.65-8.254 18.65-18.402 0-10.147-8.367-18.4-18.65-18.4m0 44.864c-14.788 0-26.82-11.872-26.82-26.464 0-14.592 12.032-26.463 26.82-26.463 14.789 0 26.82 11.87 26.82 26.463 0 14.592-12.031 26.464-26.82 26.464"/>
    </g>
</svg>
