<svg xmlns="http://www.w3.org/2000/svg" viewBox="0 0 25.33 16"><defs><style>.cls-1{fill:#f15379;}</style></defs><title>Asset 8</title><g id="Layer_2" data-name="Layer 2"><g id="Layer_1-2" data-name="Layer 1"><g id="Behance"><path class="cls-1" d="M7.25,16H0V0H7.79A4.8,4.8,0,0,1,12,1.81a3.92,3.92,0,0,1,.8,2.51A3.58,3.58,0,0,1,12,6.77a2.68,2.68,0,0,1-.69.64,3.65,3.65,0,0,1,1.33,1.23,4.36,4.36,0,0,1,.64,2.4,5.3,5.3,0,0,1-.69,2.61,2.9,2.9,0,0,1-1.17,1.23,4.52,4.52,0,0,1-1.87.8A8.5,8.5,0,0,1,7.25,16ZM.64,15.36H7.25c.69,0,1.44-.11,2.13-.16a3.66,3.66,0,0,0,1.6-.69,3.55,3.55,0,0,0,1-1.17A4.18,4.18,0,0,0,12.59,11a3.78,3.78,0,0,0-.53-2.08h0a3.41,3.41,0,0,0-1.6-1.23l-.69-.16.64-.37a6.16,6.16,0,0,0,1.07-.8,3.13,3.13,0,0,0,.64-2.08,3.18,3.18,0,0,0-.64-2.13A4.38,4.38,0,0,0,7.73.64H.53V15.41H.64Zm19,.53a6.24,6.24,0,0,1-4.11-1.44,5.68,5.68,0,0,1-1.81-4.64,6.37,6.37,0,0,1,1.6-4.64,5.75,5.75,0,0,1,4.21-1.6,6.27,6.27,0,0,1,2.67.53,5.77,5.77,0,0,1,2.08,1.71,5.92,5.92,0,0,1,.91,2.4h0a12.66,12.66,0,0,1,.11,2.24v.27h-8a2.12,2.12,0,0,0,1,1.71,2.52,2.52,0,0,0,1.44.37,2.31,2.31,0,0,0,1.44-.43,3.38,3.38,0,0,0,.53-.64l.11-.16h3.47v.37a3.6,3.6,0,0,1-1.17,2.13A5.47,5.47,0,0,1,19.68,15.89ZM19.57,4.21a4.9,4.9,0,0,0-3.73,1.44A5.77,5.77,0,0,0,14.4,9.87,5.13,5.13,0,0,0,16,14.08a5.49,5.49,0,0,0,3.68,1.23,5.39,5.39,0,0,0,3.95-1.49,4,4,0,0,0,.91-1.44h-2.4a3.91,3.91,0,0,1-.53.69,2.72,2.72,0,0,1-1.81.53A4.12,4.12,0,0,1,18,13.17a3.16,3.16,0,0,1-1.33-2.61v-.37h8.05a8.66,8.66,0,0,0-.11-1.81,5.71,5.71,0,0,0-.8-2.13A3.83,3.83,0,0,0,22,4.75,5,5,0,0,0,19.57,4.21ZM7.09,13.33H3.52V8.59H7.09a5.21,5.21,0,0,1,1.71.27,2.07,2.07,0,0,1,1.17,2A2.3,2.3,0,0,1,8.8,13.07,4.76,4.76,0,0,1,7.09,13.33Zm-3-.64H7a3.46,3.46,0,0,0,1.44-.27,1.61,1.61,0,0,0,.8-1.6,1.23,1.23,0,0,0-.8-1.33,4.75,4.75,0,0,0-1.33-.27H4.21l-.11,3.47ZM22.35,9h-5.6l.11-.37a2.72,2.72,0,0,1,.91-1.87,2.85,2.85,0,0,1,2-.69,2.72,2.72,0,0,1,2.77,2.67Zm-4.91-.64h4.21A1.71,1.71,0,0,0,21,7.15a2.14,2.14,0,0,0-1.49-.53A2,2,0,0,0,18,7.15,3,3,0,0,0,17.44,8.32ZM7.09,6.72H3.52V2.67h3.2a5.55,5.55,0,0,1,1.87.27A1.71,1.71,0,0,1,9.65,4.64a1.61,1.61,0,0,1-.8,1.6A3.43,3.43,0,0,1,7.09,6.72Zm-3-.64H7a2.31,2.31,0,0,0,1.44-.37c.37-.16.43-.53.43-1.07a1.21,1.21,0,0,0-.64-1.17,5.12,5.12,0,0,0-1.71-.16H3.95l.16,2.77ZM23,2.88H16.21V.64H23Zm-6.24-.64h5.55v-1H16.75Z"/></g></g></g></svg>