<svg xmlns="http://www.w3.org/2000/svg" width="48" height="48" viewBox="0 0 48 48">
    <g fill="#EA1C49" fill-rule="evenodd">
        <path d="M0 48h48V0H0v48zm2.4-37.05h43.2V2.4H2.4v8.55zm0 34.65h43.2V13.35H2.4V45.6z"/>
        <path d="M7.2 8.4c.99 0 1.8-.81 1.8-1.8s-.81-1.8-1.8-1.8-1.8.81-1.8 1.8.81 1.8 1.8 1.8M13.2 8.4c.99 0 1.8-.81 1.8-1.8s-.81-1.8-1.8-1.8-1.8.81-1.8 1.8.81 1.8 1.8 1.8M19.2 8.4c.99 0 1.8-.81 1.8-1.8s-.81-1.8-1.8-1.8-1.8.81-1.8 1.8.81 1.8 1.8 1.8M25.784 32.28l5.467 5.469 1.697-1.697-5.468-5.468 4.484-4.483-14.564-3.9L21.3 36.762z"/>
    </g>
</svg>
