<svg xmlns="http://www.w3.org/2000/svg" width="57" height="48" viewBox="0 0 57 48">
    <g fill="none" fill-rule="evenodd">
        <path stroke="#000" stroke-width="3" d="M2.597 1.5C1.99 1.5 1.5 1.99 1.5 2.602v33.53c0 .616.482 1.102 1.088 1.102h17.416l7.747 8.978c.333.386.803.385 1.149-.01l7.874-8.968h17.629c.608 0 1.097-.49 1.097-1.101V2.602c0-.62-.478-1.102-1.097-1.102H2.597z"/>
        <path d="M3 3v33.752h6.542L17.227 46l8.42-9.248H55V3z"/>
        <path fill="#000" d="M10.576 10c-.318 0-.576.299-.576.666v1.668c0 .368.254.666.576.666h32.848c.318 0 .576-.299.576-.666v-1.668c0-.368-.254-.666-.576-.666H10.576zM10.576 18c-.318 0-.576.299-.576.666v1.668c0 .368.254.666.576.666h32.848c.318 0 .576-.299.576-.666v-1.668c0-.368-.254-.666-.576-.666H10.576zM10.535 26c-.296 0-.535.299-.535.666v1.668c0 .368.243.666.535.666h21.93c.296 0 .535-.299.535-.666v-1.668c0-.368-.243-.666-.535-.666h-21.93z"/>
    </g>
</svg>
