<svg xmlns="http://www.w3.org/2000/svg" xmlns:xlink="http://www.w3.org/1999/xlink" width="48" height="48" viewBox="0 0 48 48">
    <defs>
        <path id="a" d="M0 48h48V0H0z"/>
    </defs>
    <g fill="none" fill-rule="evenodd" opacity=".5">
        <path fill="#000" d="M16.2 33h11.4v-6.6h-8.4v-4.2h-5.4v-5.4h9V9h-3V4.8H24V0C10.745 0 0 10.745 0 24s10.745 24 24 24v-3h-3.6v-3H24v-4.8h-7.8V33z"/>
        <mask id="b" fill="#fff">
            <use xlink:href="#a"/>
        </mask>
        <path fill="#000" d="M26.4 10.8h5.4V7.2h-5.4zM37.2 8.4h5.4V4.8h-5.4zM28.8 3.6h5.4V0h-5.4zM31.2 18h6.3v-4.2h-6.3zM44.1 18H48v-4.2h-3.9zM24 23.9h6v-4h-6zM38.4 25.1h6v-4h-6zM38.4 38.9h6v-4h-6zM31.8 32.3h6v-4h-6zM28.2 40.7h6v-4h-6zM26.4 47.9h6v-4h-6z" mask="url(#b)"/>
    </g>
</svg>
