<svg xmlns="http://www.w3.org/2000/svg" xmlns:xlink="http://www.w3.org/1999/xlink" width="48" height="48" viewBox="0 0 48 48">
    <defs>
        <path id="a" d="M.2.2h11.2v11.2H.2z"/>
    </defs>
    <g fill="none" fill-rule="evenodd" opacity=".5">
        <path fill="#000" d="M29.457 21.272L19.2 18.524l2.748 10.258 3.157-3.157 3.851 3.85 1.195-1.195-3.85-3.85z"/>
        <path fill="#000" d="M24 37.684c-7.546 0-13.684-6.139-13.684-13.684 0-7.545 6.138-13.684 13.684-13.684 7.546 0 13.684 6.139 13.684 13.684 0 7.545-6.138 13.684-13.684 13.684m0-29.768c-8.883 0-16.084 7.2-16.084 16.084 0 8.883 7.201 16.084 16.084 16.084S40.084 32.883 40.084 24 32.883 7.916 24 7.916"/>
        <g transform="translate(36.6 36.6)">
            <mask id="b" fill="#fff">
                <use xlink:href="#a"/>
            </mask>
            <path fill="#000" d="M5.8.2a5.6 5.6 0 1 0 0 11.2A5.6 5.6 0 0 0 5.8.2" mask="url(#b)"/>
        </g>
        <path fill="#000" d="M2.7 42.6a2.7 2.7 0 1 0 0 5.4 2.7 2.7 0 0 0 0-5.4M43.8 8.4a4.2 4.2 0 1 0 0-8.4 4.2 4.2 0 0 0 0 8.4M10.8 5.4A5.4 5.4 0 1 0 0 5.4a5.4 5.4 0 0 0 10.8 0"/>
    </g>
</svg>
