<svg xmlns="http://www.w3.org/2000/svg" xmlns:xlink="http://www.w3.org/1999/xlink" width="36" height="48" viewBox="0 0 36 48">
    <defs>
        <path id="a" d="M0 .388h35.939V25.8H0z"/>
    </defs>
    <g fill="none" fill-rule="evenodd">
        <g transform="translate(0 22.2)">
            <mask id="b" fill="#fff">
                <use xlink:href="#a"/>
            </mask>
            <path fill="#000" d="M17.97 23.4c-9.313 0-15.57-2.608-15.57-5.043 0-8.585 6.984-15.57 15.57-15.57 8.585 0 15.569 6.985 15.569 15.57 0 2.435-6.257 5.043-15.57 5.043m0-23.012C8.045.388 0 8.433 0 18.357 0 23.319 8.985 25.8 17.97 25.8s17.97-2.481 17.97-7.443c0-9.924-8.046-17.97-17.97-17.97" mask="url(#b)"/>
        </g>
        <path fill="#000" d="M17.97 2.4c4.435 0 8.044 3.609 8.044 8.044 0 4.437-3.609 8.044-8.045 8.044-4.435 0-8.044-3.607-8.044-8.044 0-4.435 3.609-8.044 8.044-8.044m0 18.488c5.769 0 10.445-4.675 10.445-10.444C28.414 4.676 23.738 0 17.969 0 12.201 0 7.525 4.676 7.525 10.444c0 5.769 4.676 10.444 10.444 10.444"/>
    </g>
</svg>
