<svg xmlns="http://www.w3.org/2000/svg" width="48" height="48" viewBox="0 0 48 48">
    <g fill="#000" fill-rule="evenodd" opacity=".5">
        <path d="M25.8 42.6h16.8V28.8H25.8zM5.4 42.6h16.8V28.8H5.4z"/>
        <path d="M0 0v48h48V0H0zm2.4 10.95h43.2V2.4H2.4v8.55zm0 34.65h43.2V27H2.4v18.6z"/>
        <path d="M7.2 8.4c.99 0 1.8-.81 1.8-1.8s-.81-1.8-1.8-1.8-1.8.81-1.8 1.8.81 1.8 1.8 1.8M13.2 8.4c.99 0 1.8-.81 1.8-1.8s-.81-1.8-1.8-1.8-1.8.81-1.8 1.8.81 1.8 1.8 1.8M19.2 8.4c.99 0 1.8-.81 1.8-1.8s-.81-1.8-1.8-1.8-1.8.81-1.8 1.8.81 1.8 1.8 1.8"/>
    </g>
</svg>
