<svg xmlns="http://www.w3.org/2000/svg" width="48" height="48" viewBox="0 0 48 48">
    <g fill="#EA1C49" fill-rule="evenodd">
        <path d="M0 0v48h48V0H0zm2.4 10.95h43.2V2.4H2.4v8.55zm0 34.65h43.2V13.35H2.4V45.6z"/>
        <path d="M7.2 4.8c-.99 0-1.8.81-1.8 1.8s.81 1.8 1.8 1.8S9 7.59 9 6.6s-.81-1.8-1.8-1.8M13.2 4.8c-.99 0-1.8.81-1.8 1.8s.81 1.8 1.8 1.8S15 7.59 15 6.6s-.81-1.8-1.8-1.8M19.2 4.8c-.99 0-1.8.81-1.8 1.8s.81 1.8 1.8 1.8S21 7.59 21 6.6s-.81-1.8-1.8-1.8M32.057 36.862a8.057 8.057 0 1 0-16.114 0c0 4.45 16.114 4.45 16.114 0M24 27.383a3.791 3.791 0 1 0 0-7.582 3.791 3.791 0 0 0 0 7.582"/>
    </g>
</svg>
