<svg xmlns="http://www.w3.org/2000/svg" width="48" height="48" viewBox="0 0 48 48">
    <g fill="#EA1C49" fill-rule="evenodd">
        <path d="M12 4.8v2.4h33.6v15.6h-6.874v-4.185L29.4 24l9.326 5.385V25.2H48V4.8zM0 23.1v20.1h26.674v4.186L36 42l-9.326-5.386V40.8H2.4V25.5H18.15v-2.4zM10.427 11.04A5.213 5.213 0 1 0 0 11.04c0 2.88 10.427 2.88 10.427 0M5.214 4.907a2.454 2.454 0 1 0 0-4.907 2.454 2.454 0 0 0 0 4.907"/>
        <path d="M18.73 28.44c0 2.88 10.427 2.88 10.427 0a5.214 5.214 0 0 0-10.427 0M26.397 19.853a2.454 2.454 0 1 0-4.907.001 2.454 2.454 0 0 0 4.907 0M42.786 40.627a5.213 5.213 0 0 0-5.213 5.213c0 2.88 10.427 2.88 10.427 0a5.213 5.213 0 0 0-5.214-5.213M45.24 37.253a2.453 2.453 0 1 0-4.907 0 2.453 2.453 0 0 0 4.907 0"/>
    </g>
</svg>
