<svg id="Layer_1" xmlns="http://www.w3.org/2000/svg" viewBox="0 0 22 27"><style>.st0{fill:#ad0c00}.st1{fill:#fff}</style><path class="st0" d="M-21.5 12.5c0-3.2 2.6-4.7 2.7-4.8-1.5-2.2-3.8-2.5-4.6-2.5-2-.2-3.8 1.2-4.8 1.2s-2.5-1.1-4.2-1.1c-2.1 0-4.1 1.2-5.2 3.2-2.2 3.9-.6 9.6 1.6 12.7 1.1 1.5 2.3 3.3 4 3.2 1.6-.1 2.2-1 4.1-1s2.5 1 4.2 1c1.7 0 2.8-1.6 3.9-3.1 1.2-1.8 1.7-3.5 1.7-3.6-.1-.1-3.4-1.3-3.4-5.2zm-3.2-9.3c.9-1.1 1.5-2.5 1.3-4-1.3.1-2.8.8-3.7 1.9-.8.9-1.5 2.4-1.3 3.9 1.4.1 2.8-.8 3.7-1.8z"/><path class="st1" d="M14.4 3l.3-.4.3-.4.6-.9c.1-.1 0-.3-.1-.3-.1-.1-.3 0-.3.1l-.7 1-.3.4-.3.4c-.9-.4-1.9-.6-2.9-.6s-2 .2-2.9.5l-.3-.4-.3-.4-.6-1C6.8.9 6.7.9 6.6.9c-.2.1-.2.3-.1.4l.6.9.3.4.2.4c-2 1-3.4 2.8-3.4 4.9h13.7C17.8 5.8 16.4 4 14.4 3zM8.1 5.9c-.4 0-.7-.3-.7-.7s.3-.7.7-.7c.4 0 .7.3.7.7s-.3.7-.7.7zm5.8 0c-.4 0-.7-.3-.7-.7s.3-.7.7-.7c.4 0 .7.3.7.7s-.3.7-.7.7zm-9.6 3h-.1v10.7c0 .9.7 1.5 1.5 1.5h1.1c0 .1-.1.3-.1.4v3.1c0 .8.7 1.5 1.5 1.5s1.5-.7 1.5-1.5v-3.1c0-.1 0-.3-.1-.4h2.7c0 .1-.1.3-.1.4v3.1c0 .8.7 1.5 1.5 1.5s1.5-.7 1.5-1.5v-3.1c0-.1 0-.3-.1-.4h1.1c.9 0 1.5-.7 1.5-1.5V8.9H4.3zm-2.6 0c-.8 0-1.5.7-1.5 1.5v6.3c0 .8.7 1.5 1.5 1.5s1.5-.7 1.5-1.5v-6.3c0-.9-.7-1.5-1.5-1.5zm18.6 0c-.8 0-1.5.7-1.5 1.5v6.3c0 .8.7 1.5 1.5 1.5s1.5-.7 1.5-1.5v-6.3c-.1-.9-.7-1.5-1.5-1.5z"/></svg>