<svg id="Layer_1" xmlns="http://www.w3.org/2000/svg" xmlns:xlink="http://www.w3.org/1999/xlink" viewBox="0 0 817 682"><style>.st0{clip-path:url(#SVGID_2_)}.st1{fill:url(#XMLID_2_)}.st2{fill:#fff}</style><defs><path id="SVGID_1_" d="M.9.6h815.3v680.9H.9z"/></defs><clipPath id="SVGID_2_"><use xlink:href="#SVGID_1_" overflow="visible"/></clipPath><g id="XMLID_2389_" class="st0"><linearGradient id="XMLID_2_" gradientUnits="userSpaceOnUse" x1="1090.769" y1="113.289" x2="-30.92" y2="492.238"><stop offset=".134" stop-color="#f05844"/><stop offset="1" stop-color="#603d97"/></linearGradient><path id="XMLID_2424_" class="st1" d="M-5.7-7.5h834.9v700.4H-5.7z"/><g id="XMLID_2390_"><g id="XMLID_2398_"><g id="XMLID_2400_"><path id="XMLID_2422_" class="st2" d="M273.9 364.2h-4.4c-3.8 0-6.9-3-6.9-6.7v-13h-18.2v13c0 3.7-3.1 6.7-6.9 6.7h-4.4c-.8 0-1.4-.6-1.4-1.4v-44.6c0-.8.6-1.4 1.4-1.4h4.4c3.8 0 6.9 3 6.9 6.7v11.6h18.2v-11.6c0-3.7 3.1-6.7 6.9-6.7h4.4c.8 0 1.4.6 1.4 1.4v44.6c0 .8-.6 1.4-1.4 1.4z"/><path id="XMLID_2419_" class="st2" d="M333.3 364.2h-6.6c-2.9 0-5.4-1.7-6.4-4.4l-1.5-3.9h-17.4l-1.6 4c-1 2.6-3.6 4.2-6.4 4.2h-6.6c-1 0-1.7-1-1.3-1.9l17.6-44.6c.2-.5.7-.9 1.3-.9h11.8c.6 0 1.1.4 1.3.9l17.2 44.6c.3 1-.4 2-1.4 2zm-18-17.7l-5.2-15.1-5.3 15.1h10.5z"/><path id="XMLID_2417_" class="st2" d="M378.2 348.5c0 8-3.6 13.2-10.8 15.7-2.5.9-5.2 1.3-8.1 1.3-5.7 0-10.9-1.6-15.8-4.7-.6-.4-.8-1.2-.5-1.8l1.2-2.3c1.7-3.1 5.7-4.5 8.9-2.9 2 .9 3.9 1.4 5.8 1.4 1.6 0 3-.4 4.2-1.1 1.3-.8 2-2 2-3.6 0-1.4-.7-2.6-2.2-3.5-1.1-.7-2.9-1.4-5.5-2.1-3.1-.9-5.1-1.5-5.9-1.9-1.3-.5-2.4-1.2-3.3-1.9-2.6-2.1-3.9-5.2-3.9-9.4 0-4.4 1.3-8 4-10.9 3.1-3.4 7.3-5.1 12.5-5.1 4.8 0 9.5 1.1 14.1 3.2.7.3 1 1.2.6 1.9l-1.2 2.4c-1.5 2.9-5 4.2-8.2 3.3-1.1-.3-2.2-.5-3.3-.5-1.4 0-2.6.3-3.6 1-1.2.8-1.8 1.8-1.8 3.1s.8 2.3 2.4 3.2c.7.4 2.9 1.1 6.4 2.2 4.5 1.3 7.7 3.1 9.6 5.4 1.6 1.9 2.4 4.5 2.4 7.6z"/><path id="XMLID_2413_" class="st2" d="M431.9 364.2h-4.4c-3.8 0-6.9-3-6.9-6.7v-13h-18.2v13c0 3.7-3.1 6.7-6.9 6.7h-4.4c-.8 0-1.4-.6-1.4-1.4v-44.6c0-.8.6-1.4 1.4-1.4h4.4c3.8 0 6.9 3 6.9 6.7v11.6h18.2v-11.6c0-3.7 3.1-6.7 6.9-6.7h4.4c.8 0 1.4.6 1.4 1.4v44.6c.1.8-.6 1.4-1.4 1.4z"/><path id="XMLID_2411_" class="st2" d="M515.4 318.6l-14.6 44.6c-.2.6-.7 1-1.4 1h-6.8c-3 0-5.6-1.9-6.5-4.7l-7.4-22.8-7.7 22.9c-.9 2.7-3.5 4.6-6.5 4.6h-6.8c-.6 0-1.2-.4-1.4-1l-13.6-44.6c-.3-.9.4-1.8 1.4-1.8h6.1c3.1 0 5.8 2 6.6 4.9l7.1 25.7 8.7-26c.9-2.7 3.5-4.6 6.5-4.6s5.7 1.9 6.6 4.7l8.1 25.9 7.7-25.8c.9-2.8 3.5-4.8 6.6-4.8h6.1c.8 0 1.5.9 1.2 1.8z"/><path id="XMLID_2408_" class="st2" d="M576.4 340.6c0 6.4-2.2 12.1-6.6 16.9-5 5.5-11.8 8.3-20.3 8.3s-15.3-2.8-20.3-8.3c-4.4-4.9-6.6-10.5-6.6-16.9 0-2.9.6-6 1.8-9 1.2-3.1 2.8-5.7 4.8-7.9 5-5.5 11.8-8.3 20.3-8.3s15.3 2.8 20.3 8.3c4.4 4.8 6.6 10.5 6.6 16.9zm-13.1 0c0-3.3-1.1-6.2-3.3-8.7-2.8-3.1-6.3-4.7-10.5-4.7-2.9 0-5.5.8-7.9 2.4-2.4 1.6-4 3.7-5 6.4-.6 1.5-.9 3-.9 4.6 0 3.2 1.1 6.1 3.3 8.6 2.7 3.1 6.2 4.7 10.5 4.7s7.8-1.6 10.5-4.7c2.2-2.4 3.3-5.3 3.3-8.6z"/><path id="XMLID_2405_" class="st2" d="M625.5 364.2h-9.1c-2.3 0-4.5-1.1-5.8-3.1l-10-15.1v11.5c0 3.7-3.1 6.7-6.9 6.7h-4.4c-.8 0-1.4-.6-1.4-1.4v-44.6c0-.8.6-1.4 1.4-1.4h18.2c5.7 0 10 1.7 12.7 5 2.2 2.7 3.3 5.9 3.3 9.5 0 4.2-1.3 7.5-3.8 10-1.6 1.6-3.9 2.7-6.8 3.3l13.5 17.2c1 1.1.3 2.4-.9 2.4zm-14.9-32.1c0-1.7-.6-3.1-1.9-4.3-1.2-1.1-3.1-1.6-5.8-1.6h-2.4V338h2.4c2.7 0 4.6-.5 5.8-1.6 1.3-1.2 1.9-2.7 1.9-4.3z"/><path id="XMLID_2403_" class="st2" d="M679.7 364.2h-10c-2.1 0-4.1-1-5.4-2.6l-14.3-18v13.9c0 3.7-3.1 6.7-6.9 6.7h-4.4c-.8 0-1.4-.6-1.4-1.4v-44.6c0-.8.6-1.4 1.4-1.4h4.4c3.8 0 6.9 3 6.9 6.7v12.9l13.4-16.9c1.3-1.6 3.3-2.6 5.4-2.6h9.1c1.2 0 1.9 1.4 1.1 2.3l-17.3 20.2 19.1 22.7c.8.7.1 2.1-1.1 2.1z"/><path id="XMLID_2401_" class="st2" d="M725.7 348.5c0 8-3.6 13.2-10.8 15.7-2.5.9-5.2 1.3-8.1 1.3-5.7 0-10.9-1.6-15.8-4.7-.6-.4-.8-1.2-.5-1.8l1.2-2.3c1.7-3.1 5.7-4.5 8.9-2.9 2 .9 3.9 1.4 5.8 1.4 1.6 0 3-.4 4.2-1.1 1.3-.8 2-2 2-3.6 0-1.4-.7-2.6-2.2-3.5-1.1-.7-2.9-1.4-5.5-2.1-3.1-.9-5.1-1.5-5.9-1.9-1.3-.5-2.4-1.2-3.3-1.9-2.6-2.1-3.9-5.2-3.9-9.4 0-4.4 1.3-8 4-10.9 3.1-3.4 7.3-5.1 12.5-5.1 4.8 0 9.5 1.1 14.1 3.2.7.3 1 1.2.6 1.9l-1.2 2.4c-1.5 2.9-5 4.2-8.2 3.3-1.1-.3-2.2-.5-3.3-.5-1.4 0-2.6.3-3.6 1-1.2.8-1.8 1.8-1.8 3.1s.8 2.3 2.4 3.2c.7.4 2.9 1.1 6.4 2.2 4.5 1.3 7.7 3.1 9.6 5.4 1.5 1.9 2.4 4.5 2.4 7.6z"/></g></g><path id="XMLID_2391_" class="st2" d="M161.2 357.2c4.2 4.1 4.2 10.8 0 14.9-2.1 2.1-4.9 3.1-7.7 3.1h-4.1c-2 0-4.1 1.1-5.3 2.2-1.1 1-2.3 2.9-2.3 5.1v3c.3 3-.7 6.2-3.1 8.5-4.2 4.1-11.1 4.1-15.3 0-4.2-4.1-4.2-10.8 0-14.9 2.4-2.3 5.6-3.3 8.7-3h3.1c2.3 0 4.2-1.1 5.3-2.2 1.1-1.1 2.2-3.1 2.3-5.2v-4c0-2.7 1-5.5 3.2-7.6 4.1-4 11-4 15.2.1zm-41.9 3.4c0-2.2 1.2-4.1 2.3-5.1 1.2-1.2 3.3-2.2 5.3-2.2h2.9c3.2.4 6.5-.6 8.9-3 4.2-4.1 4.2-10.8 0-14.9-2.2-2.1-5-3.1-7.8-3.1h-4c-2.2-.1-4.1-1.1-5.3-2.2-1.1-1.1-2.3-2.9-2.3-5.2v-3c.3-3-.7-6.2-3.1-8.5-4.2-4.1-11.1-4.1-15.3 0-4.2 4.1-4.2 10.8 0 14.9 2.4 2.3 5.6 3.3 8.7 3h3.1c2.2 0 4.2 1.2 5.3 2.2 1.2 1.2 2.3 3.2 2.3 5.1v8c-.1 2.1-1.1 4-2.3 5.2-1.1 1.1-3 2.2-5.3 2.2h-4.2c-2.8 0-5.5 1-7.6 3.1-4.2 4.1-4.2 10.8 0 14.9s11.1 4.1 15.3 0c2.3-2.3 3.3-5.3 3.1-8.2v-3.2zm79.2-6.5h-4.2c-2.2-.1-4.1-1.1-5.3-2.2-1.1-1.1-2.3-2.9-2.3-5.2v-3.1c.1-.7.1-1.4 0-2v-2.9c0-2.2 1.2-4.1 2.3-5.1 1.2-1.2 3.3-2.2 5.3-2.2h4.2c2.8 0 5.6-1 7.7-3.1 4.2-4.1 4.2-10.8 0-14.9s-11.1-4.1-15.3 0c-2.1 2.1-3.2 4.8-3.2 7.5v4.1c-.1 2.1-1.1 4-2.3 5.2-1.1 1.1-3 2.2-5.3 2.2h-2.9c-3.1-.3-6.4.6-8.8 3-4.2 4.1-4.2 10.8 0 14.9 2.4 2.4 5.7 3.3 8.9 3h2.9c2.2 0 4.2 1.2 5.3 2.2 1.2 1.2 2.3 3.2 2.3 5.1v3.8c-.1 2.8.9 5.6 3.1 7.8 4.2 4.1 11.1 4.1 15.3 0 4.2-4.1 4.2-10.8 0-14.9-2.1-2.2-4.9-3.2-7.7-3.2zm-30.1 25.1c-4.2 4.1-4.2 10.8 0 14.9s11.1 4.1 15.3 0c4.2-4.1 4.2-10.8 0-14.9-4.3-4.2-11.1-4.2-15.3 0zm-29.7-72.9c4.2-4.1 4.2-10.8 0-14.9s-11.1-4.1-15.3 0c-4.2 4.1-4.2 10.8 0 14.9s11 4.1 15.3 0zm22.5 21.9c2.4-2.3 3.4-5.5 3.1-8.6v-2.9c0-2.2 1.2-4.1 2.3-5.1 1.2-1.2 3.3-2.2 5.3-2.2h3.9c2.9.1 5.8-.9 8-3.1 4.2-4.1 4.2-10.8 0-14.9s-11.1-4.1-15.3 0c-2.1 2.1-3.2 4.8-3.2 7.5v4.1c-.1 2.1-1.1 4-2.3 5.2-1.1 1.1-3 2.2-5.3 2.2h-3.4c-3-.2-6.1.8-8.4 3-4.2 4.1-4.2 10.8 0 14.9 4.2 4 11 4 15.3-.1z"/></g></g></svg>