<svg id="Layer_1" xmlns="http://www.w3.org/2000/svg" xmlns:xlink="http://www.w3.org/1999/xlink" viewBox="0 0 542 327"><style>.st0{fill:#f05844}.st0,.st1{clip-path:url(#SVGID_2_)}.st2{fill:#fff}</style><defs><path id="SVGID_1_" d="M0 0h542v327H0z"/></defs><clipPath id="SVGID_2_"><use xlink:href="#SVGID_1_" overflow="visible"/></clipPath><path class="st0" d="M-49-13.4h616.4v353.9H-49z"/><g id="XMLID_1994_" class="st1"><g id="XMLID_1995_"><g id="XMLID_2282_"><path id="XMLID_2326_" class="st2" d="M221.3 179.3c4.6 4.5 4.6 11.8 0 16.3-2.3 2.3-5.4 3.4-8.4 3.4h-4.5c-2.1 0-4.5 1.2-5.7 2.5-1.2 1.1-2.5 3.2-2.5 5.6v3.3c.3 3.3-.8 6.7-3.3 9.2-4.6 4.5-12.1 4.5-16.7 0s-4.6-11.8 0-16.3c2.6-2.5 6.1-3.6 9.5-3.3h3.3c2.5 0 4.5-1.2 5.8-2.4 1.3-1.2 2.4-3.3 2.5-5.6v-4.4c0-3 1.1-6 3.4-8.2 4.5-4.6 12-4.6 16.6-.1zm-45.8 3.7c0-2.4 1.4-4.5 2.5-5.6 1.3-1.3 3.6-2.4 5.7-2.5h3.2c3.4.4 7-.7 9.7-3.2 4.6-4.5 4.6-11.8 0-16.3-2.4-2.3-5.5-3.4-8.5-3.4h-4.3c-2.3-.1-4.5-1.2-5.8-2.4-1.2-1.2-2.5-3.1-2.5-5.6v-3.3c.3-3.3-.8-6.7-3.3-9.2-4.6-4.5-12.1-4.5-16.7 0s-4.6 11.8 0 16.3c2.6 2.5 6.1 3.6 9.5 3.3h3.3c2.4 0 4.6 1.3 5.7 2.5 1.3 1.3 2.5 3.5 2.5 5.6v8.8c-.1 2.3-1.2 4.4-2.5 5.6-1.2 1.2-3.2 2.4-5.8 2.4h-4.5c-3 0-6 1.1-8.3 3.4-4.6 4.5-4.6 11.8 0 16.3s12.1 4.5 16.7 0c2.5-2.5 3.6-5.8 3.4-9V183zm86.5-7.1h-4.5c-2.3-.1-4.5-1.2-5.8-2.4-1.2-1.2-2.5-3.1-2.5-5.6v-3.3c.1-.7.1-1.5 0-2.2v-3.1c0-2.4 1.4-4.5 2.5-5.6 1.3-1.3 3.6-2.4 5.7-2.5h4.5c3 0 6.1-1.1 8.4-3.4 4.6-4.5 4.6-11.8 0-16.3s-12.1-4.5-16.7 0c-2.3 2.3-3.5 5.2-3.4 8.2v4.4c-.1 2.3-1.2 4.4-2.5 5.6-1.2 1.2-3.2 2.4-5.8 2.4h-3.2c-3.4-.4-7 .7-9.6 3.3-4.6 4.5-4.6 11.8 0 16.3 2.6 2.6 6.2 3.6 9.7 3.2h3.1c2.4 0 4.6 1.3 5.7 2.5 1.3 1.3 2.5 3.5 2.5 5.6v4.1c-.1 3.1 1 6.1 3.4 8.5 4.6 4.5 12.1 4.5 16.7 0s4.6-11.8 0-16.3c-2.2-2.3-5.2-3.4-8.2-3.4zm-32.9 27.4c-4.6 4.5-4.6 11.8 0 16.3s12.1 4.5 16.7 0 4.6-11.8 0-16.3-12.1-4.5-16.7 0zm-32.4-79.6c4.6-4.5 4.6-11.8 0-16.3s-12.1-4.5-16.7 0-4.6 11.8 0 16.3 12.1 4.5 16.7 0zm24.5 24c2.6-2.6 3.7-6 3.3-9.3v-3.2c0-2.4 1.4-4.5 2.5-5.6 1.3-1.3 3.6-2.4 5.7-2.5h4.2c3.1.1 6.3-1 8.7-3.3 4.6-4.5 4.6-11.8 0-16.3s-12.1-4.5-16.7 0c-2.3 2.3-3.5 5.2-3.5 8.2v4.4c-.1 2.3-1.2 4.4-2.5 5.6-1.2 1.2-3.2 2.4-5.8 2.4h-3.7c-3.3-.2-6.6.9-9.1 3.3-4.6 4.5-4.6 11.8 0 16.3 4.8 4.5 12.3 4.5 16.9 0z"/></g><g id="XMLID_1996_"><path id="XMLID_2280_" class="st2" d="M317.2 112.6h-5.7v20.2h-6.9v-20.2H299V107h18.2v5.6z"/><path id="XMLID_2272_" class="st2" d="M344.9 132.9H338v-10.7h-9.9v10.7h-6.9v-25.8h6.9v10h9.9v-10h6.9v25.8z"/><path id="XMLID_2262_" class="st2" d="M358.3 132.9h-6.9v-25.8h6.9v25.8z"/><path id="XMLID_2217_" class="st2" d="M391.3 132.9h-6.9l-12.7-15.8v15.8h-6.9v-25.8h6.9l12.7 15.8v-15.8h6.9v25.8z"/><path id="XMLID_2215_" class="st2" d="M422.6 132.9h-8.9l-8.9-11.2v11.2h-6.9v-25.8h6.9v10.6l8.4-10.6h8.5l-10.5 12.2 11.4 13.6z"/><path id="XMLID_2210_" class="st2" d="M321.6 157.9c0 2.3-.6 4.3-1.7 5.8-1.5 2-3.9 3-7.3 3h-4.3v8.6h-6.9v-25.8h11c3.1 0 5.5.9 7.1 2.7 1.4 1.4 2.1 3.3 2.1 5.7zm-7.1.1c0-1-.3-1.7-.9-2.3-.6-.6-1.6-.9-2.9-.9h-2.3v6.4h2.3c1.5 0 2.5-.3 3.1-.9.4-.6.7-1.4.7-2.3z"/><path id="XMLID_2205_" class="st2" d="M341.4 175.2h-15.1v-25.8h6.9v20.2h8.3v5.6z"/><path id="XMLID_2041_" class="st2" d="M371.1 175.2h-7.3l-1.7-4.5h-9.5l-1.8 4.5h-7.3l10.2-25.8h7.5l9.9 25.8zm-10.9-9.6l-2.9-8.2-2.9 8.2h5.8z"/><path id="XMLID_2003_" class="st2" d="M398.2 149.4l-9.9 13.4v12.4h-6.9v-12.4l-9.6-13.4h8.2l5 7 4.8-7h8.4z"/><path id="XMLID_2001_" class="st2" d="M339 191.7l-8.5 25.8h-7l-4.8-15-5.1 15h-7l-7.9-25.8h7.2l4.6 16.7 5.6-16.7h5.5l5.2 16.7 5-16.7h7.2z"/><path id="XMLID_1999_" class="st2" d="M349.6 217.5h-6.9v-25.8h6.9v25.8z"/><path id="XMLID_1997_" class="st2" d="M382.6 217.5h-6.9L363 201.7v15.8h-6.9v-25.8h6.9l12.7 15.8v-15.8h6.9v25.8z"/></g></g></g></svg>