<svg id="Layer_1" xmlns="http://www.w3.org/2000/svg" viewBox="0 0 155 155"><style>.st0{fill:none;stroke:#f1f1f2;stroke-width:3;stroke-miterlimit:10}.st1{opacity:.5}.st2{fill:none;stroke:#f1f1f2;stroke-miterlimit:10}</style><ellipse id="XMLID_1983_" class="st0" cx="47.2" cy="16.9" rx="14.4" ry="14.4"/><g class="st1"><g id="XMLID_1980_"><ellipse id="XMLID_1982_" class="st2" cx="73.5" cy="21.5" rx="12" ry="12"/><ellipse id="XMLID_1981_" class="st2" cx="81.4" cy="21.5" rx="12" ry="12"/></g><ellipse id="XMLID_1979_" class="st2" cx="73.5" cy="81.7" rx="12" ry="12"/><ellipse id="XMLID_1978_" class="st2" cx="81.4" cy="81.7" rx="12" ry="12"/><g id="XMLID_1975_"><ellipse id="XMLID_1977_" class="st2" cx="81.4" cy="134.1" rx="12" ry="12"/><ellipse id="XMLID_1976_" class="st2" cx="73.5" cy="134.1" rx="12" ry="12"/></g><ellipse id="XMLID_1974_" class="st2" cx="81.4" cy="73.9" rx="12" ry="12"/><ellipse id="XMLID_1973_" class="st2" cx="73.5" cy="73.9" rx="12" ry="12"/><ellipse id="XMLID_1972_" class="st2" cx="133.6" cy="81.7" rx="12" ry="12"/><ellipse id="XMLID_1971_" class="st2" cx="133.6" cy="73.9" rx="12" ry="12"/><ellipse id="XMLID_1970_" class="st2" cx="51.4" cy="111.8" rx="12" ry="12"/><ellipse id="XMLID_1969_" class="st2" cx="51.4" cy="104.1" rx="12" ry="12"/><ellipse id="XMLID_1968_" class="st2" cx="43.5" cy="104.1" rx="12" ry="12"/><ellipse id="XMLID_1967_" class="st2" cx="103.6" cy="111.8" rx="12" ry="12"/><ellipse id="XMLID_1965_" class="st2" cx="111.6" cy="104.1" rx="12" ry="12"/><ellipse id="XMLID_1964_" class="st2" cx="103.6" cy="104.1" rx="12" ry="12"/><ellipse id="XMLID_1962_" class="st2" cx="43.5" cy="51.1" rx="12" ry="12"/><ellipse id="XMLID_1959_" class="st2" cx="51.4" cy="51.1" rx="12" ry="12"/><ellipse id="XMLID_1958_" class="st2" cx="51.4" cy="43.4" rx="12" ry="12"/><ellipse id="XMLID_1957_" class="st2" cx="103.6" cy="51.1" rx="12" ry="12"/><ellipse id="XMLID_1956_" class="st2" cx="111.6" cy="51.1" rx="12" ry="12"/><ellipse id="XMLID_1955_" class="st2" cx="103.6" cy="43.4" rx="12" ry="12"/><ellipse id="XMLID_1954_" class="st2" cx="21.1" cy="81.7" rx="12" ry="12"/><ellipse id="XMLID_1953_" class="st2" cx="21.1" cy="73.9" rx="12" ry="12"/></g><ellipse id="XMLID_1952_" class="st0" cx="47.2" cy="77.6" rx="14.4" ry="14.4"/><ellipse id="XMLID_1951_" class="st0" cx="47.2" cy="138.1" rx="14.4" ry="14.4"/><ellipse id="XMLID_1950_" class="st0" cx="107.8" cy="16.9" rx="14.4" ry="14.4"/><ellipse id="XMLID_1949_" class="st0" cx="107.8" cy="77.6" rx="14.4" ry="14.4"/><ellipse id="XMLID_1948_" class="st0" cx="107.8" cy="138.1" rx="14.4" ry="14.4"/><ellipse id="XMLID_1933_" class="st0" cx="138.1" cy="47.7" rx="14.4" ry="14.4"/><ellipse id="XMLID_1932_" class="st0" cx="77.4" cy="47.7" rx="14.4" ry="14.4"/><ellipse id="XMLID_1931_" class="st0" cx="16.9" cy="47.7" rx="14.4" ry="14.4"/><ellipse id="XMLID_1930_" class="st0" cx="138.1" cy="108" rx="14.4" ry="14.4"/><ellipse id="XMLID_1929_" class="st0" cx="77.4" cy="108" rx="14.4" ry="14.4"/><ellipse id="XMLID_1927_" class="st0" cx="16.9" cy="108" rx="14.4" ry="14.4"/></svg>