<svg id="Layer_1" xmlns="http://www.w3.org/2000/svg" viewBox="0 0 155 155"><style>.st0{fill:#fff}.st1{opacity:.5}.st2{fill:none;stroke:#f1f1f2;stroke-miterlimit:10}</style><ellipse id="XMLID_1920_" class="st0" cx="47.2" cy="16.9" rx="14.4" ry="14.4"/><g class="st1"><g id="XMLID_1917_"><ellipse id="XMLID_1919_" class="st2" cx="73.5" cy="21.5" rx="12" ry="12"/><ellipse id="XMLID_1918_" class="st2" cx="81.4" cy="21.5" rx="12" ry="12"/></g><ellipse id="XMLID_1916_" class="st2" cx="73.5" cy="81.7" rx="12" ry="12"/><ellipse id="XMLID_1911_" class="st2" cx="81.4" cy="81.7" rx="12" ry="12"/><g id="XMLID_1890_"><ellipse id="XMLID_1910_" class="st2" cx="81.4" cy="134.1" rx="12" ry="12"/><ellipse id="XMLID_1909_" class="st2" cx="73.5" cy="134.1" rx="12" ry="12"/></g><ellipse id="XMLID_1889_" class="st2" cx="81.4" cy="73.9" rx="12" ry="12"/><ellipse id="XMLID_1888_" class="st2" cx="73.5" cy="73.9" rx="12" ry="12"/><ellipse id="XMLID_1887_" class="st2" cx="133.6" cy="81.7" rx="12" ry="12"/><ellipse id="XMLID_1886_" class="st2" cx="133.6" cy="73.9" rx="12" ry="12"/><ellipse id="XMLID_1885_" class="st2" cx="51.4" cy="111.8" rx="12" ry="12"/><ellipse id="XMLID_1884_" class="st2" cx="51.4" cy="104.1" rx="12" ry="12"/><ellipse id="XMLID_1883_" class="st2" cx="43.5" cy="104.1" rx="12" ry="12"/><ellipse id="XMLID_1879_" class="st2" cx="103.6" cy="111.8" rx="12" ry="12"/><ellipse id="XMLID_1878_" class="st2" cx="111.6" cy="104.1" rx="12" ry="12"/><ellipse id="XMLID_1843_" class="st2" cx="103.6" cy="104.1" rx="12" ry="12"/><ellipse id="XMLID_1841_" class="st2" cx="43.5" cy="51.1" rx="12" ry="12"/><ellipse id="XMLID_1840_" class="st2" cx="51.4" cy="51.1" rx="12" ry="12"/><ellipse id="XMLID_1833_" class="st2" cx="51.4" cy="43.4" rx="12" ry="12"/><ellipse id="XMLID_1831_" class="st2" cx="103.6" cy="51.1" rx="12" ry="12"/><ellipse id="XMLID_1830_" class="st2" cx="111.6" cy="51.1" rx="12" ry="12"/><ellipse id="XMLID_1829_" class="st2" cx="103.6" cy="43.4" rx="12" ry="12"/><ellipse id="XMLID_1827_" class="st2" cx="21.1" cy="81.7" rx="12" ry="12"/><ellipse id="XMLID_1747_" class="st2" cx="21.1" cy="73.9" rx="12" ry="12"/></g><ellipse id="XMLID_1727_" class="st0" cx="47.2" cy="77.6" rx="14.4" ry="14.4"/><ellipse id="XMLID_1670_" class="st0" cx="47.2" cy="138.1" rx="14.4" ry="14.4"/><ellipse id="XMLID_1655_" class="st0" cx="107.8" cy="16.9" rx="14.4" ry="14.4"/><ellipse id="XMLID_1591_" class="st0" cx="107.8" cy="77.6" rx="14.4" ry="14.4"/><ellipse id="XMLID_1590_" class="st0" cx="107.8" cy="138.1" rx="14.4" ry="14.4"/><ellipse id="XMLID_1584_" class="st0" cx="138.1" cy="47.7" rx="14.4" ry="14.4"/><ellipse id="XMLID_1583_" class="st0" cx="77.4" cy="47.7" rx="14.4" ry="14.4"/><ellipse id="XMLID_1569_" class="st0" cx="16.9" cy="47.7" rx="14.4" ry="14.4"/><ellipse id="XMLID_1568_" class="st0" cx="138.1" cy="108" rx="14.4" ry="14.4"/><ellipse id="XMLID_1567_" class="st0" cx="77.4" cy="108" rx="14.4" ry="14.4"/><ellipse id="XMLID_1566_" class="st0" cx="16.9" cy="108" rx="14.4" ry="14.4"/></svg>