<svg id="Branding" xmlns="http://www.w3.org/2000/svg" viewBox="0 0 210 209.6"><style>.st0{fill:#fff0cd}.st1{fill:#ffffe6}.st2{fill:none;stroke:#f49782;stroke-width:3;stroke-linecap:round;stroke-linejoin:round;stroke-miterlimit:10}.st3,.st4{fill:#f49782}.st4{fill-rule:evenodd;clip-rule:evenodd}</style><g id="XMLID_2351_"><path id="XMLID_2428_" class="st0" d="M129.3 176.4c-.3 9.4-7.3 13.6-14 16.9-7 3.4-14.2 5.9-14.5 15.4.3-9-6.9-12.7-13.5-16.7-6.1-3.7-12.5-7.5-12.5-16.1 0-.4-.3-1.4 0-1.2 25.4 11.8 54.5 1.7 54.5 1.7z"/><path id="XMLID_2426_" class="st0" d="M80.5 33.6c-.4.2 0-.8.1-1.2.6-8.5 7.2-11.9 13.6-15.2 6.8-3.5 14.2-6.6 14.6-15.7-.4 9.5 6.7 12.5 13.4 16.4 6.5 3.7 13.2 8.4 12.8 17.8 0 0-28.4-12.1-54.5-2.1z"/><path id="XMLID_2424_" class="st0" d="M136.6 36.9c-.4-.2.6-.6.9-.8 6.5-5.6 13.6-3.3 20.4-1.1 7.2 2.3 14.8 5.4 21.4-.7-7 6.4-4.1 13.6-2.2 21 1.9 7.2 3.3 15.3-3.6 21.6 0 0-11.4-28.6-36.9-40z"/><path id="XMLID_2422_" class="st0" d="M175.7 79.3c-.2-.4.8 0 1.2 0 8.6.5 12 7.1 15.4 13.4 3.6 6.7 6.9 14.1 15.9 14.4-9.5-.2-12.4 6.9-16.2 13.6-3.7 6.5-8.3 13.3-17.7 13 0 0 11.8-28.5 1.4-54.4z"/><path id="XMLID_2420_" class="st0" d="M172.3 137.1c.2-.4.6.6.9.9 5.9 6.3 3.9 13.4 1.9 20.3-2 7.3-4.8 15 1.6 21.3-6.7-6.7-13.7-3.6-21.2-1.3-7.2 2.2-15.1 3.9-21.8-2.7.1 0 28.3-12.6 38.6-38.5z"/><path id="XMLID_2418_" class="st0" d="M35.6 77.3c-6.9-6.4-5.5-14.4-3.6-21.6 2-7.5 4.8-14.6-2.2-21 6.7 6.1 14.2 3.1 21.4.7 6.8-2.2 13.9-4.5 20.4 1.1.3.3 1.3.7.9.8-25.5 11.4-36.9 40-36.9 40z"/><path id="XMLID_2416_" class="st0" d="M34.9 134.1c-9.4.2-14-6.5-17.7-13-3.8-6.8-6.7-13.9-16.2-13.6 9.1-.2 12.3-7.6 15.9-14.4 3.4-6.3 6.8-12.9 15.4-13.4.4 0 1.4-.4 1.2 0-10.4 25.9 1.4 54.4 1.4 54.4z"/><path id="XMLID_2414_" class="st0" d="M73.6 171.7c-6.7 6.7-14.7 4.9-21.8 2.7-7.4-2.3-14.4-5.4-21.2 1.3 6.4-6.4 3.7-14 1.6-21.3-1.9-6.9-3.9-14 1.9-20.3.3-.3.7-1.3.9-.9 10.4 26 38.6 38.5 38.6 38.5z"/><path id="XMLID_2413_" class="st1" d="M98.8 161.3c-32.3 0-58.6-26.2-58.6-58.5s26.2-58.5 58.6-58.5c0 0-39.9 17.9-37.6 59.8 2.3 42.7 37.6 57.2 37.6 57.2z"/><path id="XMLID_2412_" class="st2" d="M192.2 90.6c-3.7-6.5-7.5-13.3-17-13l-2-2.9c6.7-6.7 5-14.6 2.7-21.8-2.3-7.4-5.4-14.4 1.3-21.1-6.4 6.4-14.1 3.7-21.4 1.6-7.2-2-14.7-4.1-21.2 2.8l.2.2c-1.4-.6-2.7-1.7-2.7-1.7 0-9.4-6.9-13.8-13.5-17.3-6.9-3.6-14-6.4-14-15.9 0 9-7.4 12.5-14 16.2-6.5 3.7-13.3 7.5-13 16.9 0 0-1.3 1-2.6 1.6l.1-.1c-6.5-6.9-14-4.8-21.2-2.8-7.3 2-15 4.8-21.4-1.6 6.7 6.7 3.6 13.7 1.3 21.1C31.7 60 30 68 36.6 74.6c-.7 1.5-1.9 3-1.9 3-9.5-.3-13.3 6.5-17 13-3.7 6.6-7.2 14-16.3 14 9.5 0 12.3 7.2 15.9 14 3.5 6.6 7.9 13.5 17.4 13.5 0 0 1.2 1.5 1.9 3-6.8 6.5-4.7 13.9-2.7 21.1 2 7.3 4.8 15-1.6 21.4 6.7-6.7 13.7-3.6 21.2-1.3 7.2 2.2 15.1 3.9 21.8-2.7l-.1-.1c1.3.6 2.5 1.6 2.5 1.6-.3 9.5 6.5 13.3 13 16.9 6.6 3.7 14 7.2 14 16.2 0-9.5 7.2-12.2 14-15.9 6.6-3.5 13.5-7.9 13.5-17.3 0 0 1.5-1.2 3-1.9 6.6 6.5 14.6 4.8 21.7 2.6 7.4-2.3 14.5-5.4 21.2 1.3-6.4-6.4-3.7-14-1.6-21.4 2-7.2 4.1-14.7-2.8-21.2l1.5-2.4c9.4 0 13.9-6.8 17.4-13.5 3.6-6.9 6.4-14 15.9-14-9.1.1-12.6-7.3-16.3-13.9z"/><path id="XMLID_2410_" class="st2" d="M175.2 77.6c9.5-.3 13.3 6.5 17 13 3.7 6.6 7.2 14 16.3 14-9.5 0-12.3 7.2-15.9 14-3.5 6.6-7.9 13.5-17.4 13.5"/><path id="XMLID_2408_" class="st2" d="M34.7 132c-9.4 0-13.9-6.8-17.4-13.5-3.6-6.9-6.4-14-15.9-14 9.1 0 12.5-7.3 16.3-14 3.7-6.5 7.5-13.3 17-13"/><path id="XMLID_2406_" class="st2" d="M77.7 34.7c-.3-9.5 6.5-13.3 13-16.9 6.6-3.7 14-7.2 14-16.2 0 9.5 7.2 12.2 14 15.9 6.6 3.5 13.5 7.9 13.5 17.3"/><path id="XMLID_2404_" class="st2" d="M132.3 175c0 9.4-6.9 13.8-13.5 17.3-6.9 3.6-14 6.4-14 15.9 0-9-7.4-12.5-14-16.2-6.5-3.7-13.3-7.5-13-16.9"/><path id="XMLID_2402_" class="st2" d="M134.7 36.2c6.5-6.9 14-4.8 21.2-2.8 7.3 2 15 4.8 21.4-1.6-6.7 6.7-3.6 13.7-1.3 21.1 2.2 7.1 3.9 15.1-2.7 21.8"/><path id="XMLID_2400_" class="st2" d="M75.3 173.5c-6.7 6.7-14.7 5-21.8 2.7-7.4-2.3-14.5-5.4-21.2 1.3 6.4-6.4 3.7-14 1.6-21.4-2-7.2-4.1-14.7 2.8-21.2"/><path id="XMLID_2398_" class="st2" d="M36.7 74.7C30 68 31.7 60 33.9 52.9c2.3-7.4 5.4-14.4-1.3-21.1 6.4 6.4 14.1 3.7 21.4 1.6 7.2-2 14.7-4.1 21.2 2.8"/><path id="XMLID_2396_" class="st2" d="M173.7 134.5c6.9 6.5 4.8 14 2.8 21.2-2 7.3-4.8 15 1.6 21.4-6.7-6.7-13.7-3.6-21.2-1.3-7.2 2.2-15.1 3.9-21.8-2.7"/><path id="XMLID_2392_" class="st3" d="M119.6 84.4H88.2l2.2 4.1h20.5v4.6s-10.9-1.9-15 3.4c-3.2 4.1-2.1 14.8 2.9 18.1s10.8 1.6 10.8 1.6h1.4v4.7c0 2.4 1.9 4.3 4.3 4.3V88.4h6.6l-2.3-4zm-8.9 13.4v13l-9.6-11.9c3.6-2.4 9.6-1.1 9.6-1.1zm-12.2 7.9c-.3-2.4.2-4.1 1-5.3l9.3 11.8c-3.2.8-9.4 1.3-10.3-6.5z"/><path id="XMLID_2355_" class="st4" d="M105 37.5l.6 1.7 1.8.1-1.4 1.1.5 1.7-1.5-1-1.5 1 .5-1.7-1.4-1.1 1.8-.1.6-1.7zm11.7 1.1l.3 1.7 1.7.4-1.6.8.2 1.8-1.3-1.2-1.6.7.8-1.6-1.2-1.3 1.8.3.9-1.6zm11.3 3v1.8l1.7.7-1.7.5-.1 1.8-1-1.4-1.7.4 1-1.4-.9-1.5 1.7.5 1-1.4zm10.7 4.9l-.3 1.7 1.5 1-1.7.2-.4 1.7-.8-1.6-1.8.1 1.3-1.2-.7-1.7 1.6.8 1.3-1zm9.6 6.8l-.6 1.7 1.3 1.2-1.8-.1-.7 1.6-.5-1.7-1.8-.2 1.5-1-.4-1.7 1.4 1.1 1.6-.9zm8.3 8.3l-.9 1.5 1.1 1.4-1.7-.4-1 1.5-.2-1.8-1.7-.5 1.6-.7-.1-1.8 1.2 1.3 1.7-.5zm6.8 9.6l-1.1 1.4.8 1.6-1.6-.7-1.2 1.3.1-1.8-1.6-.8 1.7-.4.3-1.8.9 1.5 1.7-.3zm4.9 10.6l-1.4 1.1.5 1.7-1.5-.9-1.4 1 .5-1.7-1.4-1.1 1.8-.1.6-1.7.7 1.6 1.6.1zm3.1 11.3l-1.5.9.2 1.8-1.3-1.2-1.6.8.7-1.6-1.2-1.3 1.8.2.8-1.6.4 1.7 1.7.3zm1 11.7l-1.7.6-.1 1.8-1.1-1.4-1.7.5 1-1.5-1-1.5 1.7.5 1.1-1.4.1 1.8 1.7.6zm-1 11.7l-1.7.3-.4 1.7-.8-1.6-1.8.2 1.2-1.3-.7-1.6 1.6.8 1.3-1.2-.2 1.7 1.5 1zm-3.1 11.3h-1.8l-.7 1.7-.5-1.7-1.8-.1 1.4-1-.4-1.7 1.4 1 1.5-.9-.6 1.7 1.5 1zm-4.9 10.7l-1.7-.3-1 1.5-.2-1.7-1.7-.4 1.6-.8-.1-1.8 1.2 1.3 1.7-.7-.8 1.6 1 1.3zm-6.8 9.6l-1.7-.6-1.2 1.3.1-1.8-1.6-.7 1.7-.5.2-1.8 1 1.5 1.8-.4-1.1 1.4.8 1.6zm-8.3 8.3l-1.5-.9-1.4 1.1.4-1.7-1.5-1 1.8-.2.5-1.7.7 1.6 1.8-.1-1.3 1.2.5 1.7zm-9.6 6.7l-1.4-1.1-1.6.8.7-1.6-1.3-1.2 1.8.1.8-1.6.4 1.7 1.8.3-1.5.9.3 1.7zm-10.7 5l-1.1-1.4-1.7.5.9-1.5-1-1.4 1.7.4 1.1-1.4.1 1.8 1.7.6-1.6.7-.1 1.7zm-11.3 3l-.9-1.5-1.8.2 1.2-1.3-.8-1.6 1.6.7 1.3-1.2-.2 1.8 1.6.8-1.7.4-.3 1.7zm-11.7 1l-.6-1.7-1.8-.1 1.4-1.1-.5-1.7 1.5 1 1.5-1-.5 1.7 1.4 1.1-1.8.1-.6 1.7zm-11.7-1l-.3-1.7-1.7-.4 1.6-.8-.2-1.8 1.3 1.2 1.6-.7-.8 1.6 1.2 1.3-1.8-.3-.9 1.6zm-11.4-3v-1.8l-1.7-.7 1.7-.5.1-1.8 1 1.4 1.7-.4-1 1.4.9 1.5-1.7-.6-1 1.5zm-10.6-5l.3-1.7-1.5-1 1.7-.2.4-1.7.8 1.6 1.8-.1-1.3 1.2.7 1.7-1.6-.8-1.3 1zm-9.6-6.7l.6-1.7-1.3-1.2 1.8.1.7-1.6.5 1.7 1.8.2-1.5 1 .4 1.8-1.4-1.1-1.6.8zm-8.4-8.3l.9-1.5-1.1-1.4 1.7.4 1-1.5.2 1.8 1.7.5-1.6.7v1.8l-1.2-1.3-1.6.5zm-6.7-9.6l1.1-1.4-.8-1.6 1.6.7 1.2-1.3-.1 1.8 1.6.8-1.7.4-.3 1.8-.9-1.5-1.7.3zm-5-10.7l1.4-1.1-.5-1.7 1.5.9 1.5-1-.4 1.7 1.4 1.1-1.8.1-.6 1.7-.7-1.6-1.8-.1zm-3-11.3l1.5-.9-.2-1.8 1.3 1.2 1.6-.8-.7 1.6 1.2 1.3-1.8-.2-.8 1.6-.4-1.7-1.7-.3zm-1-11.7l1.7-.6.1-1.8 1.1 1.4 1.7-.5-1 1.5 1 1.5-1.7-.5-1.1 1.4-.1-1.8-1.7-.6zm1-11.7l1.7-.3.4-1.7.8 1.6 1.8-.2-1.2 1.3.7 1.6-1.6-.8-1.3 1.2.2-1.7-1.5-1zm3-11.3h1.8l.7-1.7.5 1.7 1.8.1L45 83l.4 1.7-1.4-1-1.5.9.5-1.6-1.4-1.2zm5-10.6l1.7.3 1-1.5.2 1.8 1.7.4-1.6.8.1 1.8-1.2-1.3-1.7.7.8-1.6-1-1.4zm6.7-9.6l1.7.6 1.2-1.3-.1 1.8 1.6.7-1.7.5-.2 1.8-1-1.5-1.8.4 1.1-1.4-.8-1.6zm8.4-8.3l1.5.9 1.4-1.1-.4 1.7 1.5 1-1.7.2-.5 1.7-.7-1.6-1.8.1 1.3-1.2-.6-1.7zm9.6-6.8l1.4 1.1 1.6-.8-.7 1.6 1.3 1.3-1.8-.1-.8 1.6-.4-1.7-1.8-.3 1.5-.9-.3-1.8zm10.6-4.9L83 43l1.7-.5-.9 1.5 1 1.4-1.7-.4-1.1 1.4v-1.8l-1.7-.6 1.6-.7v-1.7zm11.4-3l.9 1.5 1.8-.2-1.2 1.3.8 1.6-1.7-.8-1.3 1.2.2-1.8-1.6-.8 1.7-.4.4-1.6z"/><ellipse id="XMLID_2354_" class="st2" cx="105" cy="104.8" rx="53.3" ry="28.3"/><ellipse id="XMLID_2353_" class="st2" cx="105" cy="104.8" rx="55.3" ry="55.3"/><ellipse id="XMLID_2352_" class="st2" cx="105" cy="104.8" rx="74.3" ry="74.4"/></g></svg>