<svg id="Layer_1" xmlns="http://www.w3.org/2000/svg" viewBox="0 0 210 211.2"><style>.st0{fill:#fff0cd}.st1{fill:#ffffe6}.st2{fill:none;stroke:#f49782;stroke-width:3;stroke-linecap:round;stroke-linejoin:round;stroke-miterlimit:10}.st3{fill:#f49782}.st4{fill:none;stroke:#f49782;stroke-width:3;stroke-linecap:round;stroke-linejoin:round;stroke-miterlimit:10;stroke-dasharray:.25,10}</style><g id="XMLID_2443_"><path id="XMLID_2484_" class="st0" d="M132.2 180c-.3 9.1-7 13.2-13.5 16.3-6.7 3.3-13.7 5.7-14 14.9.3-8.7-6.7-12.3-13-16.1-5.9-3.6-12-7.3-12.1-15.6 0-.4-.3-1.4 0-1.2 24.4 11.5 52.6 1.7 52.6 1.7z"/><path id="XMLID_2482_" class="st0" d="M81.8 33.1c-.4.1 0-.8 0-1.2.6-8.3 7-11.5 13.1-14.7 6.5-3.3 13.8-6.4 14.1-15.1-.4 9.1 6.5 12.1 12.9 15.8 6.3 3.6 12.7 8.1 12.4 17.2.1 0-27.3-11.7-52.5-2z"/><path id="XMLID_2480_" class="st0" d="M135.9 36.2c-.4-.2.6-.6.9-.8 6.3-5.4 13.1-3.2 19.7-1.1 7 2.3 14.3 5.2 20.7-.7-6.7 6.2-4 13.1-2.1 20.3 1.9 7 3.2 14.7-3.5 20.9 0 .1-11.1-27.6-35.7-38.6z"/><path id="XMLID_2478_" class="st0" d="M178.6 79.6c-.2-.4.8 0 1.2 0 8.3.5 11.6 6.8 14.9 12.9 3.4 6.5 6.6 13.6 15.4 13.9-9.1-.2-12 6.6-15.7 13.1-3.5 6.3-8 12.8-17.1 12.6 0 .1 11.3-27.4 1.3-52.5z"/><path id="XMLID_2476_" class="st0" d="M177 137.9c.2-.4.6.6.9.9 5.7 6.1 3.7 12.9 1.9 19.6-2 7.1-4.6 14.4 1.6 20.6-6.5-6.5-13.3-3.4-20.4-1.2-6.9 2.1-14.6 3.8-21.1-2.6 0 0 27.2-12.2 37.1-37.3z"/><path id="XMLID_2474_" class="st0" d="M38.4 75.3c-6.7-6.2-5.4-13.9-3.5-20.9 1.9-7.2 4.6-14.1-2.1-20.3 6.4 5.9 13.7 3 20.7.7 6.6-2.1 13.4-4.3 19.7 1.1.3.3 1.3.6.9.8-24.6 10.9-35.7 38.6-35.7 38.6z"/><path id="XMLID_2472_" class="st0" d="M32.7 135.1c-9.1.2-13.5-6.3-17.1-12.6C12 116 9.1 109.1 0 109.3c8.7-.2 11.9-7.4 15.4-13.9C18.6 89.3 22 83 30.3 82.5c.4 0 1.4-.4 1.2 0-10.1 25 1.2 52.6 1.2 52.6z"/><path id="XMLID_2470_" class="st0" d="M73.5 178.9c-6.4 6.4-14.2 4.8-21.1 2.6-7.2-2.2-13.9-5.2-20.4 1.2 6.2-6.2 3.6-13.5 1.6-20.6-1.9-6.7-3.8-13.5 1.9-19.6.3-.3.7-1.2.9-.9 9.8 25.1 37.1 37.3 37.1 37.3z"/><path id="XMLID_2469_" class="st1" d="M99.1 156.3c-31.2 0-56.5-25.3-56.5-56.5s25.3-56.5 56.5-56.5c0 0-38.5 17.3-36.3 57.7 2.3 41.4 36.3 55.3 36.3 55.3z"/><g id="XMLID_2444_"><path id="XMLID_2468_" class="st2" d="M191.9 89.8c-3.7-6.5-7.4-13.2-16.8-12.9l-2-2.9c6.6-6.6 4.9-14.5 2.7-21.6-2.3-7.3-5.4-14.3 1.3-20.9-6.3 6.3-13.9 3.6-21.2 1.6-7.2-2-14.6-4.1-21 2.8l.2.2c-1.4-.6-2.7-1.7-2.7-1.7 0-9.3-6.8-13.7-13.4-17.2-6.8-3.6-13.9-6.3-13.9-15.7 0 9-7.3 12.4-13.9 16.1C84.7 21.2 78 25 78.3 34.4c0 0-1.3 1-2.5 1.6l.1-.1c-6.4-6.8-13.9-4.8-21-2.8-7.3 2-14.8 4.7-21.2-1.6 6.6 6.6 3.6 13.6 1.3 20.9-2.2 7.1-3.9 14.9 2.6 21.5-.7 1.5-1.9 3-1.9 3-9.4-.3-13.2 6.4-16.8 12.9-3.7 6.6-7.1 13.8-16.1 13.8 9.4 0 12.1 7.1 15.7 13.9 3.5 6.6 7.9 13.3 17.2 13.3 0 0 1.2 1.5 1.9 3-6.7 6.4-4.7 13.8-2.7 20.9 2 7.2 4.7 14.8-1.6 21.2 6.6-6.6 13.6-3.6 21-1.3 7.1 2.2 15 3.9 21.6-2.7l-.1-.1c1.3.5 2.5 1.5 2.5 1.5-.3 9.4 6.4 13.1 12.9 16.8 6.6 3.7 13.9 7.1 13.9 16.1 0-9.4 7.1-12.1 13.9-15.7 6.6-3.5 13.4-7.8 13.4-17.2 0 0 1.5-1.2 3-1.9 6.6 6.5 14.5 4.8 21.5 2.6 7.3-2.3 14.3-5.3 21 1.3-6.3-6.3-3.6-13.9-1.6-21.2 2-7.2 4.1-14.6-2.8-21l1.5-2.4c9.3 0 13.7-6.8 17.2-13.3 3.6-6.8 6.3-13.9 15.7-13.9-8.8.1-12.3-7.2-16-13.7z"/><path id="XMLID_2466_" class="st2" d="M142.1 132c0 3.5.6 6.9 1.7 10.1-3.2-1.1-6.6-1.7-10.1-1.7-12.4 0-23.2 7.3-28.2 17.8-5.1-10.5-15.8-17.8-28.2-17.8-3.5 0-6.9.6-10.1 1.7 1.1-3.2 1.7-6.6 1.7-10.1 0-12.4-7.3-23.1-17.8-28.2C61.6 98.7 68.9 88 68.9 75.6c0-3.5-.6-6.9-1.7-10.1 3.2 1.1 6.6 1.7 10.1 1.7 12.4 0 23.2-7.3 28.2-17.8 5.1 10.5 15.8 17.8 28.2 17.8 3.5 0 6.9-.6 10.1-1.7-1.1 3.2-1.7 6.6-1.7 10.1 0 12.4 7.3 23.1 17.8 28.2-10.5 5.1-17.8 15.9-17.8 28.2z"/><g id="XMLID_2449_"><path id="XMLID_2464_" class="st2" d="M175.1 76.9c9.4-.3 13.2 6.4 16.8 12.9 3.7 6.6 7.1 13.8 16.1 13.8-9.4 0-12.1 7.1-15.7 13.9-3.5 6.6-7.9 13.3-17.2 13.3"/><path id="XMLID_2462_" class="st2" d="M35.9 130.8c-9.3 0-13.7-6.8-17.2-13.3-3.6-6.8-6.3-13.9-15.7-13.9 9 0 12.4-7.3 16.1-13.8 3.7-6.5 7.4-13.2 16.8-12.9"/><path id="XMLID_2460_" class="st2" d="M78.5 34.4c-.3-9.4 6.4-13.1 12.9-16.8 6.6-3.7 13.9-7.1 13.9-16.1 0 9.4 7.1 12.1 13.9 15.7 6.6 3.5 13.4 7.8 13.4 17.2"/><path id="XMLID_2458_" class="st2" d="M132.5 173.3c0 9.3-6.8 13.7-13.4 17.2-6.8 3.6-13.9 6.3-13.9 15.7 0-9-7.3-12.4-13.9-16.1-6.5-3.6-13.2-7.4-12.9-16.8"/><path id="XMLID_2456_" class="st2" d="M134.9 35.9c6.4-6.8 13.9-4.8 21-2.8 7.3 2 14.8 4.7 21.2-1.6-6.6 6.6-3.6 13.6-1.3 20.9 2.2 7.1 3.9 15-2.7 21.6"/><path id="XMLID_2454_" class="st2" d="M76 171.9c-6.6 6.6-14.5 4.9-21.6 2.7-7.3-2.3-14.3-5.3-21 1.3 6.3-6.3 3.6-13.9 1.6-21.2-2-7.2-4.1-14.6 2.8-21"/><path id="XMLID_2452_" class="st2" d="M37.8 74c-6.6-6.6-4.9-14.5-2.7-21.6 2.3-7.3 5.4-14.3-1.3-20.9 6.3 6.3 13.9 3.6 21.2 1.6 7.2-2 14.6-4.1 21 2.8"/><path id="XMLID_2450_" class="st2" d="M173.6 133.2c6.9 6.4 4.8 13.8 2.8 21-2 7.2-4.7 14.8 1.6 21.2-6.6-6.6-13.6-3.6-21-1.3-7.1 2.2-15 3.9-21.6-2.7"/></g><path id="XMLID_2448_" class="st3" d="M118.4 80.9c.1 0 .1 0 0 0 .9 1.7 1.7 2.9 2.4 4.5h-10.4v9H97.8c-1.3 0-2.2 1.2-2.4 2.1-.1.9-.1 1.8.5 2.5.5.7 1.1 1.1 1.9 1.1 1.1.1 2.2-.1 3.3-.3 1.3-.2 2.5-.4 3.8-.5 2-.2 3.8.3 5.5 1.4 1.8 1.2 2.8 3 3.1 5.1.2 1.7 0 3.5-.7 5.1-.4.9-.9 1.8-1.6 2.5-.7.6-1.3 1.4-2.1 1.9-1.1.8-2.3 1.3-3.6 1.6-1 .2-1.9.2-2.9.4-.1 0-.3.1-.5.1 1.7 2.7 3.3 5.4 4.9 8.1-.4.3-.8.5-1.2.8-1.3.9-3.1.5-3.9-.9-1.3-2.4-2.7-4.8-4-7.2-.2-.3-.4-.7-.5-1-.1-.3-.3-.4-.5-.4-1.8-.4-3.2-1.6-4.5-2.8-.4-.4-.7-.8-1-1.2-.1-.1-.1-.3 0-.4.9-1 1.9-2 2.9-3 .8 1 1.6 1.8 2.6 2.4 1 .6 2.1 1.1 3.3 1.3.9.1 1.8 0 2.8-.1.9-.1 1.8-.3 2.6-.5 1.9-.5 3.3-1.7 3.8-3.7.4-1.6.2-3.2-1.3-4.3-.8-.6-1.7-.9-2.7-.7-1.4.2-2.9.5-4.3.7-2.1.3-4.2.2-6.2-.9-1.9-1-3-2.6-3.4-4.6-.4-2.1-.2-4.1 1-6 .8-1.3 2-2.1 3.4-2.5.4-.1 1.2-.2 1.6-.2h8.6v-4.7H92.5c0-.4-2.4-4.5-2.4-4.5l28.3-.2z"/><ellipse id="XMLID_2447_" class="st2" cx="105.5" cy="103.9" rx="73.7" ry="73.8"/><ellipse id="XMLID_2446_" class="st2" cx="105.5" cy="103.9" rx="60.2" ry="60.3"/><ellipse id="XMLID_2445_" class="st4" cx="105.5" cy="103.9" rx="67.1" ry="67.2"/></g></g></svg>