<svg id="Branding" xmlns="http://www.w3.org/2000/svg" viewBox="0 0 182 182"><style>.st0{fill:#fff0cd}.st1{fill:#ffffe6}.st2{fill:none;stroke:#f49782;stroke-width:3;stroke-linecap:round;stroke-linejoin:round;stroke-miterlimit:10}.st3{fill:#f49782}</style><g id="XMLID_2351_"><path id="XMLID_2428_" class="st0" d="M112.2 152.9c-.3 8.2-6.3 11.8-12.1 14.7-6.1 2.9-12.3 5.1-12.6 13.4.3-7.8-6-11-11.7-14.5-5.3-3.2-10.8-6.5-10.8-14 0-.3-.3-1.2 0-1 22 10.1 47.2 1.4 47.2 1.4z"/><path id="XMLID_2426_" class="st0" d="M70 29c-.3.2 0-.7.1-1 .5-7.4 6.2-10.4 11.8-13.3 5.9-3 12.3-5.7 12.7-13.6-.3 8.2 5.8 10.8 11.6 14.2 5.6 3.2 11.5 7.3 11.1 15.4 0 .1-24.6-10.4-47.3-1.7z"/><path id="XMLID_2424_" class="st0" d="M118.6 31.8c-.3-.2.5-.5.8-.7 5.6-4.9 11.8-2.9 17.7-1 6.2 2 12.8 4.7 18.6-.6-6.1 5.6-3.6 11.8-1.9 18.2 1.6 6.2 2.9 13.3-3.1 18.7 0 .1-10-24.7-32.1-34.6z"/><path id="XMLID_2422_" class="st0" d="M152.5 68.6c-.2-.3.7 0 1 0 7.5.4 10.4 6.2 13.4 11.6 3.1 5.8 6 12.2 13.8 12.5-8.2-.2-10.8 6-14.1 11.8-3.2 5.6-7.2 11.5-15.4 11.3.2 0 10.4-24.7 1.3-47.2z"/><path id="XMLID_2420_" class="st0" d="M149.5 118.8c.2-.3.5.5.8.8 5.1 5.6 3.4 11.6 1.6 17.6-1.7 6.3-4.2 13 1.4 18.5-5.8-5.8-11.9-3.1-18.4-1.1-6.2 1.9-13.1 3.4-18.9-2.3.2-.1 24.6-11.1 33.5-33.5z"/><path id="XMLID_2418_" class="st0" d="M31 66.9c-6-5.6-4.8-12.5-3.1-18.7 1.7-6.5 4.2-12.7-1.9-18.2 5.8 5.3 12.3 2.7 18.6.6 5.9-1.9 12.1-3.9 17.7 1 .3.3 1.1.6.8.7C41 42.1 31 66.9 31 66.9z"/><path id="XMLID_2416_" class="st0" d="M30.4 116.2c-8.2.2-12.1-5.6-15.4-11.3C11.7 99 9.2 92.7 1 93.1c7.9-.2 10.7-6.6 13.8-12.5C17.7 75 20.7 69.4 28.2 69c.3 0 1.2-.3 1 0-9.1 22.4 1.2 47.2 1.2 47.2z"/><path id="XMLID_2414_" class="st0" d="M63.9 148.8c-5.8 5.8-12.8 4.3-18.9 2.3-6.4-2-12.5-4.7-18.4 1.1 5.6-5.6 3.2-12.1 1.4-18.5-1.6-6-3.4-12.1 1.6-17.6.3-.3.6-1.1.8-.8 9.1 22.6 33.5 33.5 33.5 33.5z"/><path id="XMLID_2413_" class="st1" d="M85.8 139.8c-28 0-50.8-22.7-50.8-50.7s22.7-50.7 50.8-50.7c0 0-34.6 15.5-32.6 51.9 2.1 36.9 32.6 49.5 32.6 49.5z"/><path id="XMLID_2412_" class="st2" d="M166.8 78.4c-3.2-5.6-6.5-11.5-14.7-11.3l-1.7-2.5c5.8-5.8 4.3-12.7 2.3-18.9-2-6.4-4.7-12.5 1.1-18.3-5.6 5.6-12.2 3.2-18.6 1.4-6.2-1.7-12.8-3.6-18.4 2.4l.2.2c-1.2-.5-2.3-1.5-2.3-1.5 0-8.2-6-12-11.7-15-6-3.1-12.1-5.6-12.1-13.8 0 7.8-6.4 10.8-12.1 14.1-5.6 3.2-11.5 6.5-11.3 14.7 0 0-1.1.9-2.3 1.4l.1-.1c-5.4-6-12-4.2-18.3-2.4-6.3 1.7-13 4.2-18.6-1.4 5.8 5.8 3.1 11.9 1.1 18.3-1.9 6.2-3.3 13.2 2.4 18.9-.6 1.2-1.6 2.5-1.6 2.5-8.2-.3-11.5 5.6-14.7 11.3C12.2 84 9.2 90.6 1.3 90.6c8.2 0 10.7 6.2 13.8 12.1 3 5.7 6.9 11.7 15.1 11.7 0 0 1 1.3 1.6 2.6-5.9 5.6-4.1 12.1-2.3 18.3 1.7 6.3 4.2 13-1.4 18.6 5.8-5.8 11.9-3.1 18.4-1.1 6.2 1.9 13.1 3.4 18.9-2.3l-.1-.1c1.1.5 2.2 1.4 2.2 1.4-.3 8.2 5.6 11.5 11.3 14.7 5.8 3.2 12.1 6.2 12.1 14.1 0-8.2 6.2-10.6 12.1-13.8 5.7-3 11.7-6.9 11.7-15 0 0 1.3-1 2.6-1.6 5.7 5.6 12.7 4.2 18.8 2.3 6.4-2 12.6-4.7 18.4 1.1-5.6-5.6-3.2-12.1-1.4-18.6 1.7-6.2 3.6-12.8-2.4-18.4l1.3-2.1c8.2 0 12.1-5.9 15.1-11.7 3.1-6 5.6-12.1 13.8-12.1-7.7-.1-10.9-6.6-14.1-12.3z"/><path id="XMLID_2410_" class="st2" d="M152.1 67.2c8.2-.3 11.5 5.6 14.7 11.3 3.2 5.8 6.2 12.1 14.1 12.1-8.2 0-10.7 6.2-13.8 12.1-3 5.7-6.9 11.7-15.1 11.7"/><path id="XMLID_2408_" class="st2" d="M30.3 114.3c-8.2 0-12.1-5.9-15.1-11.7-3.1-6-5.6-12.1-13.8-12.1 7.9 0 10.8-6.3 14.1-12.1C18.7 72.7 22 66.7 30.3 67"/><path id="XMLID_2406_" class="st2" d="M67.5 29.9c-.3-8.2 5.6-11.5 11.3-14.6 5.7-3.2 12.1-6.2 12.1-14.1 0 8.2 6.2 10.6 12.1 13.8 5.7 3 11.7 6.9 11.7 15"/><path id="XMLID_2404_" class="st2" d="M114.9 151.7c0 8.2-6 12-11.7 15-6 3.1-12.1 5.6-12.1 13.8 0-7.8-6.4-10.8-12.1-14.1-5.6-3.2-11.5-6.5-11.3-14.7"/><path id="XMLID_2402_" class="st2" d="M117 31.2c5.6-6 12.1-4.2 18.4-2.4 6.3 1.7 13 4.2 18.6-1.4-5.8 5.8-3.1 11.9-1.1 18.3 1.9 6.2 3.4 13.1-2.3 18.9"/><path id="XMLID_2400_" class="st2" d="M65.5 150.3c-5.8 5.8-12.8 4.3-18.9 2.3-6.4-2-12.6-4.7-18.4 1.1 5.6-5.6 3.2-12.1 1.4-18.6-1.7-6.2-3.6-12.8 2.4-18.4"/><path id="XMLID_2398_" class="st2" d="M31.9 64.6c-5.8-5.8-4.3-12.7-2.4-18.9 2-6.4 4.7-12.5-1.1-18.3C34 33 40.6 30.6 47 28.8c6.2-1.7 12.8-3.6 18.4 2.4"/><path id="XMLID_2396_" class="st2" d="M150.9 116.5c6 5.6 4.2 12.1 2.4 18.4-1.7 6.3-4.2 13 1.4 18.6-5.8-5.8-11.9-3.1-18.4-1.1-6.2 1.9-13.1 3.4-18.9-2.3"/><path id="XMLID_2392_" class="st3" d="M103.8 73H76.7l1.9 3.6h17.9v4s-9.5-1.6-13 2.9c-2.8 3.6-1.9 12.8 2.5 15.7 4.3 2.9 9.4 1.4 9.4 1.4h1.2v4.1c0 2.1 1.6 3.7 3.7 3.7V76.6h5.7l-2.2-3.6zm-7.6 11.7V96l-8.3-10.3c3-2.2 8.3-1 8.3-1zm-10.7 6.8c-.3-2.1.2-3.6.9-4.6l8.1 10.2c-2.7.8-8.2 1.2-9-5.6z"/><path id="XMLID_2355_" class="st3" d="M91.3 32.4l.5 1.5 1.6.1-1.2 1 .4 1.5-1.3-1-1.3.9.4-1.5-1.2-1 1.6-.1.5-1.4zm10 .9l.3 1.5 1.5.3-1.4.7.2 1.6-1.1-1-1.3.6.7-1.4-1-1.1 1.6.3.5-1.5zm9.9 2.6v1.6l1.5.6-1.5.4-.1 1.6-.9-1.2-1.5.3.9-1.2-.8-1.3 1.5.4.9-1.2zm9.3 4.3l-.3 1.5 1.3.9-1.5.2-.3 1.5-.7-1.4-1.6.1 1.1-1-.6-1.5 1.4.7 1.2-1zm8.3 5.9l-.5 1.5 1.1 1-1.6-.1-.6 1.4-.4-1.5-1.6-.2 1.3-.9-.3-1.5 1.2 1 1.4-.7zm7.2 7.2l-.8 1.3 1 1.2-1.5-.3-.9 1.3-.2-1.6-1.5-.4 1.4-.6-.1-1.6 1 1.1 1.6-.4zm5.8 8.3l-1 1.2.7 1.4-1.4-.6-1 1.1.1-1.6-1.4-.7 1.5-.3.3-1.6.8 1.3 1.4-.2zm4.4 9.3l-1.2 1 .4 1.5-1.3-.8-1.2.9.4-1.5-1.2-1 1.6-.1.5-1.5.6 1.4 1.4.1zm2.6 9.7l-1.3.8.2 1.6-1.1-1-1.4.7.6-1.4-1-1.1 1.6.2.7-1.4.3 1.5 1.4.1zm.8 10.1l-1.5.5-.1 1.6-1-1.2-1.5.4.9-1.3-.9-1.3 1.5.4 1-1.2.1 1.6 1.5.5zm-.8 10.2l-1.5.3-.3 1.5-.7-1.4-1.6.2 1-1.1-.6-1.4 1.4.7 1.1-1-.2 1.5 1.4.7zm-2.6 9.8h-1.6l-.6 1.5-.4-1.5-1.6-.1 1.2-.9-.3-1.5 1.2.9 1.3-.8-.5 1.5 1.3.9zm-4.4 9.3l-1.5-.3-.9 1.3-.2-1.5-1.5-.3 1.4-.7-.1-1.6 1 1.1 1.5-.6-.7 1.4 1 1.2zm-5.8 8.3l-1.5-.5-1 1.1.1-1.6-1.4-.6 1.5-.4.2-1.6.9 1.3 1.6-.3-1 1.2.6 1.4zm-7.2 7.2l-1.3-.8-1.2 1 .3-1.5-1.3-.9 1.6-.2.4-1.5.6 1.4 1.6-.1-1.1 1 .4 1.6zm-8.3 5.8l-1.2-1-1.4.7.6-1.4-1.1-1 1.6.1.7-1.4.3 1.5 1.6.3-1.3.8.2 1.4zm-9.3 4.4l-1-1.2-1.5.4.8-1.3-.9-1.2 1.5.3 1-1.2.1 1.6 1.5.5-1.4.6-.1 1.5zm-9.9 2.6l-.8-1.3-1.6.2 1-1.1-.7-1.4 1.4.6 1.1-1-.2 1.6 1.4.7-1.5.3-.1 1.4zm-10 .8l-.5-1.5-1.6-.1 1.2-1-.4-1.5 1.3.9 1.3-.9-.4 1.5 1.2 1-1.6.1-.5 1.5zm-10.2-.8l-.3-1.5-1.5-.3 1.4-.7-.2-1.6 1.1 1 1.4-.6-.7 1.4 1 1.1-1.6-.3-.6 1.5zm-10-2.6v-1.5l-1.5-.6 1.5-.4.1-1.6.9 1.2 1.5-.3-.9 1.2.8 1.3-1.5-.5-.9 1.2zm-9.1-4.4l.3-1.5-1.3-.9 1.5-.2.3-1.5.7 1.4 1.6-.1-1.1 1 .6 1.5-1.4-.7-1.2 1zm-8.4-5.8l.5-1.5-1.1-1 1.6.1.6-1.4.4 1.5 1.6.2-1.3.9.3 1.6-1.2-1-1.4.6zm-7.3-7.2l.8-1.3-1-1.2 1.5.3.9-1.3.2 1.6 1.5.4-1.4.6v1.6l-1-1.1-1.5.4zm-5.7-8.3l1-1.2-.7-1.3 1.4.6 1-1.1-.1 1.6 1.4.7-1.5.3-.3 1.6-.8-1.3-1.4.1zm-4.3-9.3l1.2-1-.4-1.5 1.3.8 1.3-.9-.4 1.6 1.2 1-1.6.1-.5 1.5-.6-1.4-1.5-.2zm-2.6-9.8l1.3-.9-.3-1.5 1.1 1 1.4-.7-.6 1.4 1 1.1-1.6-.2-.7 1.4-.3-1.5-1.3-.1zm-.9-10.2l1.5-.5.1-1.6 1 1.2 1.5-.4-1 1.3.9 1.3-1.5-.4-1 1.2v-1.5l-1.5-.6zm.9-10.1l1.5-.3.3-1.5.7 1.4 1.6-.2-1 1.1.6 1.4-1.4-.7-1.1 1 .2-1.5-1.4-.7zm2.6-9.7h1.5l.6-1.5.4 1.5 1.6.1-1.2 1 .3 1.5-1.2-.9-1.3.8.4-1.4-1.1-1.1zm4.3-9.3l1.5.3.9-1.3.2 1.6 1.5.3-1.4.7v1.5l-1-1.1-1.5.6.7-1.4-.9-1.2zm5.7-8.3l1.5.5 1-1.1-.1 1.6 1.4.6-1.5.4-.1 1.7-.9-1.3-1.6.3 1-1.2-.7-1.5zm7.3-7.2l1.3.8 1.2-1-.3 1.5 1.3.9-1.5.2-.4 1.3-.6-1.3-1.6.1 1.1-1-.5-1.5zm8.4-5.9l1.2 1 1.4-.7L64 42l1.1 1.1-1.6-.2-.7 1.4-.3-1.5-1.6-.3 1.4-.8-.3-1.5zm9.1-4.3l1 1.2 1.5-.4-.8 1.3.9 1.2-1.5-.2-1 1.2v-1.6l-1.5-.5 1.4-.6v-1.6zm10-2.6l.8 1.3 1.6-.2-1 1.1.7 1.4-1.5-.8-1.1 1 .2-1.6-1.6-.5 1.5-.3.4-1.4z"/><ellipse id="XMLID_2354_" class="st2" cx="91.3" cy="90.7" rx="46.2" ry="24.5"/><ellipse id="XMLID_2353_" class="st2" cx="91.3" cy="90.7" rx="48" ry="48"/><ellipse id="XMLID_2352_" class="st2" cx="91.3" cy="90.7" rx="64.5" ry="64.5"/></g></svg>