<svg id="Layer_1" xmlns="http://www.w3.org/2000/svg" viewBox="0 0 182 182"><style>.st0{fill:#fff0cd}.st1{fill:#ffffe6}.st2{fill:none;stroke:#f49782;stroke-width:3;stroke-linecap:round;stroke-linejoin:round;stroke-miterlimit:10}.st3{fill:#f49782}</style><g id="XMLID_3318_"><path id="XMLID_3549_" class="st0" d="M111.9 152.8c-.3 7.6-5.9 11-11.3 13.7-5.6 2.8-11.5 4.7-11.8 12.4.3-7.4-5.6-10.3-10.9-13.5-4.9-3-10.2-6.2-10.2-13 0-.3-.3-1.1 0-1 20.7 9.6 44.2 1.4 44.2 1.4z"/><path id="XMLID_3536_" class="st0" d="M69.7 29.8c-.3.1 0-.7 0-1 .5-6.9 5.9-9.5 11.1-12.3 5.4-2.8 11.5-5.3 11.8-12.7C92.3 11.4 98 14 103.5 17c5.2 3 10.7 6.9 10.4 14.5-.2 0-23.1-9.9-44.2-1.7z"/><path id="XMLID_3534_" class="st0" d="M119.9 33c-.3-.2.5-.4.8-.7 5.2-4.5 11-2.7 16.5-.8 5.9 2 11.9 4.3 17.4-.6-5.6 5.2-3.4 11-1.7 17 1.5 5.9 2.7 12.3-3 17.5-.1.1-9.4-23.1-30-32.4z"/><path id="XMLID_3532_" class="st0" d="M150.8 68.8c-.1-.3.7 0 1 0 6.9.4 9.8 5.8 12.4 10.8 2.9 5.4 5.5 11.4 12.8 11.6-7.7-.2-10.1 5.5-13.1 11-3 5.2-6.7 10.7-14.4 10.6.3-.1 9.8-23.2 1.3-44z"/><path id="XMLID_3530_" class="st0" d="M149.6 117.5c.1-.3.5.4.7.7 4.7 5.1 3.1 10.8 1.5 16.4-1.6 5.9-3.9 12.1 1.3 17.3-5.4-5.4-11.2-2.9-17.1-1-5.8 1.8-12.3 3.2-17.7-2.2.2.1 23-10.2 31.3-31.2z"/><path id="XMLID_3528_" class="st0" d="M33.3 65c-5.6-5.2-4.5-11.7-3-17.5 1.6-6.1 3.9-11.8-1.7-17 5.3 4.9 11.5 2.5 17.4.6 5.5-1.8 11.2-3.6 16.5.8.3.2 1 .5.8.7-20.7 9.3-30 32.4-30 32.4z"/><path id="XMLID_3526_" class="st0" d="M28.5 115.2c-7.6.2-11.3-5.2-14.4-10.6-3-5.4-5.4-11.2-13.1-11 7.4-.2 10.1-6.3 12.8-11.6 2.7-5.1 5.5-10.4 12.4-10.8.3 0 1.1-.3 1 0-8.2 20.9 1.3 44 1.3 44z"/><path id="XMLID_3524_" class="st0" d="M62.6 151.8c-5.4 5.3-11.8 4-17.7 2.2-6-2-11.7-4.4-17.1 1 5.2-5.2 3-11.3 1.3-17.3-1.5-5.5-3.2-11.3 1.5-16.4.3-.3.6-1 .7-.7 8.5 21.1 31.3 31.2 31.3 31.2z"/><path id="XMLID_3523_" class="st1" d="M84.3 132.9c-26.2 0-47.4-21.2-47.4-47.3s21.3-47.3 47.4-47.3c0 0-32.2 14.5-30.4 48.4 1.8 34.5 30.4 46.2 30.4 46.2z"/><g id="XMLID_3396_"><path id="XMLID_3522_" class="st2" d="M166.6 78.7c-3.2-5.6-6.5-11.5-14.7-11.2l-1.7-2.5c5.8-5.8 4.3-12.6 2.4-18.9-2-6.4-4.6-12.4 1.1-18.3-5.5 5.5-12.2 3.2-18.5 1.3-6.3-1.7-12.7-3.6-18.4 2.5l.2.2c-1.2-.5-2.4-1.4-2.4-1.4 0-8.1-6-11.9-11.7-15-6-3.1-12.1-5.5-12.1-13.7 0 7.8-6.4 10.8-12.1 14-5.6 3.2-11.5 6.5-11.2 14.7 0 0-1.1.8-2.3 1.3l.1-.1c-5.6-6-12.1-4.1-18.4-2.5-6.3 1.7-12.9 4.1-18.5-1.3 5.8 5.8 3.1 11.8 1.1 18.3-2 6.2-3.4 12.9 2.4 18.8-.6 1.3-1.6 2.6-1.6 2.6-8.2-.3-11.5 5.6-14.7 11.2-3.2 5.8-6.3 12-14.1 12 8.2 0 10.7 6.3 13.8 12.1 3 5.8 6.9 11.6 15.1 11.6 0 0 1 1.3 1.6 2.6-5.9 5.6-4.1 12-2.4 18.2 1.7 6.3 4.1 12.8-1.3 18.4 5.8-5.8 11.8-3.1 18.4-1.1 6.3 2 13 3.4 18.9-2.4l-.1-.1c1.1.5 2.2 1.3 2.2 1.3-.3 8.2 5.6 11.5 11.2 14.6 5.8 3.2 12.1 6.3 12.1 14 0-8.2 6.3-10.6 12.1-13.7 5.8-3 11.7-6.9 11.7-15 0 0 1.3-1 2.6-1.6 5.8 5.6 12.6 4.1 18.8 2.3 6.4-2 12.5-4.6 18.4 1.1-5.5-5.5-3.2-12.1-1.3-18.4 1.7-6.3 3.6-12.7-2.5-18.4l1.3-2.1c8.1 0 12-5.9 15.1-11.6 3.1-5.9 5.5-12.1 13.8-12.1-8.2.3-11.2-5.9-14.4-11.7z"/><ellipse id="XMLID_3521_" class="st2" cx="91.2" cy="91.1" rx="64.4" ry="64.4"/><g id="XMLID_3500_"><path id="XMLID_3519_" class="st2" d="M151.9 67.5c8.2-.3 11.5 5.6 14.7 11.2 3.2 5.8 6.3 12 14.1 12-8.2 0-10.7 6.3-13.8 12.1-3 5.8-6.9 11.6-15.1 11.6"/><path id="XMLID_3517_" class="st2" d="M30.4 114.6c-8.1 0-12-5.9-15.1-11.6-3.1-5.9-5.5-12.1-13.8-12.1 7.9 0 10.8-6.3 14.1-12 3.2-5.6 6.5-11.5 14.7-11.2"/><path id="XMLID_3515_" class="st2" d="M67.5 30.5c-.3-8.2 5.6-11.5 11.2-14.6 5.8-3.2 12.1-6.3 12.1-14 0 8.2 6.3 10.6 12.1 13.7 5.8 3 11.7 6.9 11.7 15"/><path id="XMLID_3513_" class="st2" d="M114.7 151.5c0 8.1-6 11.9-11.7 15-6 3.1-12.1 5.5-12.1 13.7 0-7.8-6.4-10.8-12.1-14-5.6-3.2-11.5-6.5-11.2-14.6"/><path id="XMLID_3511_" class="st2" d="M116.8 31.7c5.6-6 12.1-4.1 18.4-2.5 6.3 1.7 12.9 4.1 18.5-1.3-5.8 5.8-3.1 11.8-1.1 18.3 2 6.2 3.4 13-2.4 18.9"/><path id="XMLID_3507_" class="st2" d="M65.4 150.4c-5.8 5.8-12.7 4.2-18.9 2.4-6.4-2-12.5-4.6-18.4 1.1 5.5-5.5 3.2-12.1 1.3-18.4-1.7-6.3-3.6-12.7 2.5-18.4"/><path id="XMLID_3504_" class="st2" d="M32 65c-5.8-5.8-4.3-12.6-2.4-18.9 2-6.4 4.6-12.4-1.1-18.3C34 33.3 40.7 31 47 29.1c6.3-1.7 12.7-3.6 18.4 2.5"/><path id="XMLID_3502_" class="st2" d="M150.6 116.6c6 5.6 4.1 12 2.5 18.4-1.7 6.3-4.1 12.8 1.3 18.4-5.8-5.8-11.8-3.1-18.4-1.1-6.3 2-13 3.4-18.9-2.4"/></g><g id="XMLID_3493_"><path id="XMLID_3494_" class="st3" d="M100.9 92.9v14c-2.3-1.3-3.6-3.7-3.6-6.4v-5.8c-1.8.8-3.4 1.3-4.6 1.3-1.4 0-3.2-.8-5.2-2.5-2.3-1.8-3.4-3.6-3.4-5.3v-9.7h-5.6l-1.8-3.4h27.2l1.8 3.4H101v14.4zm-3.7-2.4V78.6h-9.5v9.9c0 3.1 1 4.6 3.2 4.6 2.1-.1 4.2-.8 6.3-2.6z"/></g><g id="XMLID_3408_"><path id="XMLID_3490_" class="st3" d="M91.2 32l-3.3 5.8h6.5z"/><path id="XMLID_3489_" class="st3" d="M91.2 150.1l3.2-5.8h-6.5z"/><path id="XMLID_3488_" class="st3" d="M80.8 32.8l-2.3 6.4 6.6-1.2z"/><path id="XMLID_3487_" class="st3" d="M101.4 149.3l2.3-6.4-6.6 1.2z"/><path id="XMLID_3485_" class="st3" d="M70.8 35.5l-1.1 6.6 6.3-2.3z"/><path id="XMLID_3483_" class="st3" d="M111.4 146.6l1.1-6.6-6.3 2.2z"/><path id="XMLID_3482_" class="st3" d="M61.6 39.8v6.8l5.7-3.4z"/><path id="XMLID_3481_" class="st3" d="M120.7 142.2v-6.7l-5.7 3.4z"/><path id="XMLID_3480_" class="st3" d="M54.2 52.3l5.1-4.3-6.2-2.2z"/><path id="XMLID_3479_" class="st3" d="M128 129.7l-5.1 4.3 6.3 2.2z"/><path id="XMLID_3477_" class="st3" d="M48 59.3l4.3-5.1-6.6-1.1z"/><path id="XMLID_3476_" class="st3" d="M134.3 122.8l-4.3 5.1 6.5 1.1z"/><path id="XMLID_3475_" class="st3" d="M46.5 61.5h-6.7l3.3 5.7z"/><path id="XMLID_3474_" class="st3" d="M139.1 114.9l-3.4 5.6h6.8z"/><path id="XMLID_3473_" class="st3" d="M39.7 76l2.4-6.3-6.7 1.1z"/><path id="XMLID_3471_" class="st3" d="M142.5 106l-2.3 6.4 6.6-1.1z"/><path id="XMLID_3470_" class="st3" d="M38 85.1l1.1-6.6-6.4 2.3z"/><path id="XMLID_3469_" class="st3" d="M144.3 97l-1.1 6.6 6.3-2.3z"/><path id="XMLID_3468_" class="st3" d="M37.7 94.4v-6.7l-5.8 3.4z"/><path id="XMLID_3467_" class="st3" d="M144.5 87.7v6.7l5.8-3.3z"/><path id="XMLID_3465_" class="st3" d="M38 97l-5.3 4.3 6.4 2.3z"/><path id="XMLID_3464_" class="st3" d="M149.5 80.8l-6.3-2.3 1.1 6.6z"/><path id="XMLID_3463_" class="st3" d="M39.7 106l-4.3 5.3 6.7 1.1z"/><path id="XMLID_3462_" class="st3" d="M142.5 76l4.3-5.2-6.6-1.1z"/><path id="XMLID_3461_" class="st3" d="M43.1 114.9l-3.3 5.6h6.7z"/><path id="XMLID_3459_" class="st3" d="M139.1 67.2l3.4-5.7h-6.8z"/><path id="XMLID_3458_" class="st3" d="M45.7 129l6.6-1.1-4.3-5.1z"/><path id="XMLID_3456_" class="st3" d="M136.5 53.1l-6.5 1.1 4.3 5.1z"/><path id="XMLID_3455_" class="st3" d="M53.1 136.2l6.2-2.2-5.1-4.3z"/><path id="XMLID_3453_" class="st3" d="M129.2 45.8l-6.3 2.2 5.1 4.3z"/><path id="XMLID_3452_" class="st3" d="M61.6 142.2l5.7-3.3-5.7-3.4z"/><path id="XMLID_3451_" class="st3" d="M120.7 39.8l-5.7 3.4 5.7 3.4z"/><path id="XMLID_3450_" class="st3" d="M69.7 140l1.1 6.6 5.2-4.4z"/><path id="XMLID_3449_" class="st3" d="M112.5 42.1l-1.1-6.6-5.2 4.3z"/><path id="XMLID_3448_" class="st3" d="M78.5 142.9l2.3 6.4 4.3-5.2z"/><path id="XMLID_3447_" class="st3" d="M103.7 39.2l-2.3-6.4-4.3 5.2z"/><path id="XMLID_3435_" class="st3" d="M91.2 142.6c28.5 0 51.8-23.1 51.8-51.5s-23.3-51.5-51.8-51.5-51.8 23-51.8 51.5 23.2 51.5 51.8 51.5zm0-101.3c27.5 0 49.9 22.3 49.9 49.7s-22.4 49.7-49.9 49.7S41.3 118.4 41.3 91s22.3-49.7 49.9-49.7z"/><path id="XMLID_3409_" class="st3" d="M91.2 139.7c27 0 48.9-21.9 48.9-48.7s-22-48.7-48.9-48.7-48.9 22-48.9 48.8 22 48.6 48.9 48.6zm0-96.4c26.4 0 47.8 21.4 47.8 47.7 0 26.3-21.5 47.7-47.8 47.7S43.4 117.3 43.4 91c-.1-26.2 21.4-47.7 47.8-47.7z"/></g><path id="XMLID_3401_" class="st2" d="M91.2 138.8L50 66.7h82.2z"/></g></g></svg>