<svg id="Layer_1" xmlns="http://www.w3.org/2000/svg" viewBox="0 0 182 182"><style>.st0{fill:#fff0cd}.st1{fill:#ffffe6}.st2{fill:none;stroke:#f49782;stroke-width:3;stroke-linecap:round;stroke-linejoin:round;stroke-miterlimit:10}.st3{fill:#f49782}</style><g id="XMLID_1726_"><path id="XMLID_2264_" class="st0" d="M113.6 152.1c-.3 7.6-5.9 11-11.4 13.7-5.7 2.8-11.5 4.7-11.8 12.5.3-7.4-5.7-10.4-10.9-13.6-4.9-3.1-10.2-6.1-10.2-13.2 0-.3-.3-1.1 0-1 20.5 9.8 44.3 1.6 44.3 1.6z"/><path id="XMLID_2262_" class="st0" d="M71.1 28.5c-.3.1 0-.7 0-1 .5-7 5.9-9.7 11.1-12.3 5.4-2.8 11.5-5.3 11.9-12.7-.3 7.5 5.5 10.1 10.9 13.2 5.3 3.1 10.7 6.9 10.4 14.5-.1.1-23.1-9.8-44.3-1.7z"/><path id="XMLID_2217_" class="st0" d="M116.6 31.2c-.3-.2.5-.4.8-.7 5.3-4.5 11-2.7 16.6-.8 5.9 2 12 4.3 17.5-.6-5.7 5.2-3.4 11-1.7 17.1 1.5 5.9 2.7 12.4-3 17.6-.1-.1-9.4-23.3-30.2-32.6z"/><path id="XMLID_2215_" class="st0" d="M152.6 67.7c-.1-.3.7 0 1 0 7 .4 9.8 5.8 12.5 10.9 2.9 5.4 5.6 11.4 13 11.6-7.7-.2-10.1 5.6-13.2 11-3 5.3-6.7 10.8-14.4 10.6 0 .1 9.6-23 1.1-44.1z"/><path id="XMLID_2213_" class="st0" d="M151.3 116.8c.1-.3.5.4.7.7 4.7 5.1 3.1 10.9 1.5 16.4-1.6 5.9-3.9 12.1 1.3 17.4-5.4-5.3-11.2-2.9-17.2-1-5.9 1.9-12.3 3.2-17.7-2.2 0-.1 23-10.4 31.4-31.3z"/><path id="XMLID_2211_" class="st0" d="M34.6 64c-5.7-5.2-4.5-11.7-3-17.6 1.6-6.1 3.9-11.9-1.7-17.1 5.3 4.9 11.5 2.5 17.5.6 5.6-1.9 11.3-3.6 16.6.8.3.2 1 .5.8.7C43.9 40.8 34.6 64 34.6 64z"/><path id="XMLID_2209_" class="st0" d="M29.8 114.3c-7.6.2-11.4-5.3-14.4-10.6-3.1-5.4-5.4-11.3-13.2-11 7.4-.2 10.1-6.2 13-11.6 2.7-5.1 5.6-10.4 12.5-10.9.3 0 1.1-.3 1 0-8.5 21 1.1 44.1 1.1 44.1z"/><path id="XMLID_2207_" class="st0" d="M64 151.1c-5.4 5.3-11.9 4-17.7 2.2-6-2-11.7-4.4-17.2 1 5.2-5.2 3-11.4 1.3-17.4-1.5-5.6-3.2-11.4 1.5-16.4.3-.3.6-1 .7-.7 8.5 21.1 31.4 31.3 31.4 31.3z"/><path id="XMLID_2206_" class="st1" d="M85.6 132.2c-26.3 0-47.6-21.3-47.6-47.5s21.3-47.5 47.6-47.5c0 0-32.4 14.5-30.5 48.5 2 34.8 30.5 46.5 30.5 46.5z"/><ellipse id="XMLID_2198_" class="st2" cx="91.5" cy="92.5" rx="47.1" ry="47.1"/><ellipse id="XMLID_2197_" class="st2" cx="90.9" cy="91.1" rx="64.6" ry="64.6"/><g id="XMLID_2179_"><path id="XMLID_2195_" class="st2" d="M152 67.4c8.2-.3 11.5 5.7 14.8 11.3 3.2 5.8 6.3 12 14.2 12-8.2 0-10.7 6.3-13.8 12.1-3.1 5.8-6.9 11.6-15.1 11.6"/><path id="XMLID_2193_" class="st2" d="M29.9 114.7c-8.1 0-12-5.9-15.1-11.6C11.7 97.2 9.2 90.9 1 90.9c7.9 0 10.9-6.4 14.2-12 3.2-5.7 6.5-11.5 14.8-11.3"/><path id="XMLID_2191_" class="st2" d="M67.2 30.2c-.3-8.2 5.7-11.5 11.3-14.7 5.8-3.2 12.1-6.3 12.1-14.1 0 8.2 6.3 10.6 12.1 13.7 5.8 3.1 11.7 6.9 11.7 15"/><path id="XMLID_2189_" class="st2" d="M114.7 151.9c0 8.1-6 12-11.7 15-6 3.1-12.1 5.6-12.1 13.7 0-7.8-6.4-10.9-12.1-14.1-5.7-3.2-11.5-6.5-11.3-14.7"/><path id="XMLID_2187_" class="st2" d="M116.8 31.5c5.7-6 12.1-4.2 18.4-2.5 6.4 1.7 13.1 4.2 18.6-1.4-5.9 5.9-3.1 11.9-1.1 18.3 2 6.2 3.4 13.2-2.4 18.9"/><path id="XMLID_2185_" class="st2" d="M65.1 150.6c-5.9 5.9-12.7 4.2-18.9 2.4-6.4-2-12.5-4.7-18.4 1.1 5.6-5.6 3.2-12.1 1.4-18.5-1.7-6.3-3.6-12.7 2.5-18.4"/><path id="XMLID_2183_" class="st2" d="M31.6 64.9C25.7 59 27.3 52.3 29.2 46c2-6.4 4.7-12.5-1.1-18.3 5.6 5.6 12.2 3.2 18.6 1.4 6.3-1.7 12.7-3.6 18.4 2.5"/><path id="XMLID_2180_" class="st2" d="M150.6 116.8c6 5.7 4.2 12 2.5 18.4-1.7 6.4-4.2 13 1.4 18.5-5.9-5.9-11.9-3.1-18.4-1.1-6.3 2-13.2 3.4-18.9-2.4"/></g><path id="XMLID_2167_" class="st3" d="M101.3 77.3H79l1.5 2.9H95v3.3s-7.7-1.3-10.7 2.5c-2.3 3-1.4 10.7 2 12.7 3.5 2.4 7.4.6 7.4.6h.9l.3 3.8c0 1.6 1.4 3.1 3.1 3.1V80.1h4.7l-1.4-2.8zm-6.8 18.8s-8.1 2.5-8.6-4.9c.3-6.7 8.6-4.5 8.6-4.5v9.4z"/><path id="XMLID_2166_" class="st2" d="M90.9 138L51 69.4h79.9z"/><ellipse id="XMLID_2165_" class="st2" cx="90.8" cy="92.2" rx="22.8" ry="22.7"/><g id="XMLID_1727_"><path id="XMLID_2162_" class="st3" d="M91.5 32.6c-2.5 0-4.3 2-4.3 4.3 0 2.4 2 4.3 4.3 4.3 2.5 0 4.3-2 4.3-4.3 0-2.4-2-4.3-4.3-4.3zm0 6.5c-1.2 0-2.3-1-2.3-2.3s1-2.3 2.3-2.3c1.2 0 2.3 1 2.3 2.3-.2 1.3-1.1 2.3-2.3 2.3z"/><path id="XMLID_2159_" class="st3" d="M91.5 144.4c-2.5 0-4.3 2-4.3 4.3s2 4.3 4.3 4.3c2.5 0 4.3-2 4.3-4.3s-2-4.3-4.3-4.3zm0 6.6c-1.2 0-2.3-1-2.3-2.3 0-1.2 1-2.3 2.3-2.3 1.2 0 2.3 1 2.3 2.3-.2 1.3-1.1 2.3-2.3 2.3z"/><path id="XMLID_2153_" class="st3" d="M61.1 40.6c-2.1 1.2-2.8 3.9-1.5 6 1.2 2.1 3.9 2.8 6 1.5 2.1-1.2 2.8-3.9 1.5-6-1.1-2-3.8-2.8-6-1.5zm3.4 5.6c-1 .6-2.5.3-3.1-.8-.6-1-.3-2.5.8-3.1 1-.6 2.5-.3 3.1.8.7 1.3.3 2.5-.8 3.1z"/><path id="XMLID_2146_" class="st3" d="M117.3 137.5c-2.1 1.2-2.8 3.9-1.5 6 1.2 2.1 3.9 2.8 6 1.5 2.1-1.2 2.8-3.9 1.5-6-1.3-2-4-2.7-6-1.5zm3.3 5.7c-1 .6-2.5.3-3.1-.8-.6-1-.3-2.5.8-3.1 1-.6 2.5-.3 3.1.8.6 1.1.3 2.5-.8 3.1z"/><path id="XMLID_2134_" class="st3" d="M40.7 68.6c2.1 1.2 4.7.5 6-1.5s.5-4.7-1.5-6-4.7-.5-6 1.5c-1.3 2.1-.6 4.8 1.5 6zm.3-4.9c.6-1 2-1.4 3.1-.8 1 .6 1.4 2 .8 3.1-.7 1-2 1.4-3.1.8-1.1-.6-1.4-2.1-.8-3.1z"/><path id="XMLID_2126_" class="st3" d="M142.1 117.1c-2.1-1.2-4.7-.5-6 1.5s-.5 4.7 1.5 6c2.1 1.2 4.7.5 6-1.5 1.4-2.2.7-4.9-1.5-6zm-.2 4.8c-.6 1-2 1.4-3.1.8-1-.6-1.4-2-.8-3.1.6-1 2-1.4 3.1-.8 1 .6 1.5 2.1.8 3.1z"/><path id="XMLID_2117_" class="st3" d="M39.8 92.8c0-2.5-2-4.3-4.3-4.3-2.5 0-4.3 2-4.3 4.3 0 2.5 2 4.3 4.3 4.3 2.2 0 4.3-1.8 4.3-4.3zm-6.6 0c0-1.2 1-2.3 2.3-2.3s2.3 1 2.3 2.3c0 1.2-1 2.3-2.3 2.3-1.3 0-2.3-1.1-2.3-2.3z"/><path id="XMLID_2108_" class="st3" d="M147.6 88.5c-2.5 0-4.3 2-4.3 4.3 0 2.5 2 4.3 4.3 4.3 2.5 0 4.3-2 4.3-4.3 0-2.5-2-4.3-4.3-4.3zm0 6.6c-1.2 0-2.3-1-2.3-2.3 0-1.2 1-2.3 2.3-2.3s2.3 1 2.3 2.3c-.2 1.2-1.2 2.3-2.3 2.3z"/><path id="XMLID_2102_" class="st3" d="M46.6 118.6c-1.2-2.1-3.9-2.8-6-1.5-2.1 1.2-2.8 3.9-1.5 6s3.9 2.8 6 1.5c2-1.3 2.8-3.9 1.5-6zm-2.6 4.1c-1 .6-2.5.3-3.1-.8-.6-1.1-.3-2.5.8-3.1 1-.6 2.5-.3 3.1.8.6 1.2.2 2.5-.8 3.1z"/><path id="XMLID_2089_" class="st3" d="M136.2 67c1.2 2.1 3.9 2.8 6 1.5 2.1-1.2 2.8-3.9 1.5-6-1.2-2.1-3.9-2.8-6-1.5-1.9 1.3-2.8 3.9-1.5 6zm2.7-4.1c1-.6 2.5-.3 3.1.8.6 1 .3 2.5-.8 3.1-1 .6-2.5.3-3.1-.8-.6-1.1-.3-2.5.8-3.1z"/><path id="XMLID_2080_" class="st3" d="M65.6 137.5c-2.1-1.2-4.7-.5-6 1.5s-.5 4.7 1.5 6c2.1 1.2 4.7.5 6-1.5 1.2-2.2.6-4.9-1.5-6zm-.2 4.8c-.6 1-2 1.4-3.1.8-1-.6-1.4-2-.8-3.1.6-1 2-1.4 3.1-.8 1 .8 1.4 2.1.8 3.1z"/><path id="XMLID_1990_" class="st3" d="M121.7 40.6c-2.1-1.2-4.7-.5-6 1.5-1.2 2.1-.5 4.7 1.5 6 2.1 1.2 4.7.5 6-1.5 1.3-2.2.5-4.8-1.5-6zm-.3 4.9c-.6 1-2 1.4-3.1.8-1-.6-1.4-2-.8-3.1.6-1 2-1.4 3.1-.8 1.1.6 1.4 2 .8 3.1z"/><ellipse id="XMLID_1989_" transform="rotate(-10.027 81.688 37.694)" class="st3" cx="81.7" cy="37.7" rx="2.3" ry="2.3"/><ellipse id="XMLID_1954_" transform="rotate(-10.027 101.225 147.894)" class="st3" cx="101.2" cy="147.9" rx="2.3" ry="2.3"/><ellipse id="XMLID_1928_" transform="rotate(-20.049 72.248 40.286)" class="st3" cx="72.2" cy="40.3" rx="2.3" ry="2.3"/><ellipse id="XMLID_1911_" transform="rotate(-20.049 110.697 145.424)" class="st3" cx="110.7" cy="145.4" rx="2.3" ry="2.3"/><path id="XMLID_1910_" class="st3" d="M53.9 48.3c-.9.8-1 2.2-.3 3.1.8.9 2.2 1 3.1.3.9-.8 1-2.2.3-3.1-.7-1-2.1-1.1-3.1-.3z"/><path id="XMLID_1909_" class="st3" d="M126 133.9c-.9.8-1 2.2-.3 3.1.8.9 2.2 1 3.1.3.9-.8 1-2.2.3-3.1-.7-.9-2.1-1-3.1-.3z"/><path id="XMLID_1908_" class="st3" d="M46.7 55.4c-.8.9-.7 2.4.3 3.1.9.8 2.4.7 3.1-.3.8-.9.7-2.4-.3-3.1-.9-.7-2.2-.6-3.1.3z"/><path id="XMLID_1890_" class="st3" d="M132.7 127.3c-.8.9-.7 2.4.3 3.1.9.8 2.4.7 3.1-.3.8-.9.7-2.4-.3-3.1-1-.8-2.3-.6-3.1.3z"/><ellipse id="XMLID_1872_" transform="rotate(-69.952 38.782 73.687)" class="st3" cx="38.8" cy="73.7" rx="2.3" ry="2.3"/><ellipse id="XMLID_1871_" transform="rotate(-69.952 144.193 111.907)" class="st3" cx="144.2" cy="111.9" rx="2.3" ry="2.3"/><ellipse id="XMLID_1828_" transform="rotate(-79.973 36.178 83.141)" class="st3" cx="36.2" cy="83.1" rx="2.3" ry="2.3"/><ellipse id="XMLID_1822_" transform="rotate(-79.973 146.63 102.498)" class="st3" cx="146.6" cy="102.5" rx="2.3" ry="2.3"/><ellipse id="XMLID_1807_" transform="rotate(-9.97 36.173 102.563)" class="st3" cx="36.2" cy="102.6" rx="2.3" ry="2.3"/><ellipse id="XMLID_1804_" transform="rotate(-9.97 146.668 83.026)" class="st3" cx="146.7" cy="83" rx="2.3" ry="2.3"/><ellipse id="XMLID_1803_" transform="rotate(-20.049 38.81 111.905)" class="st3" cx="38.8" cy="111.9" rx="2.3" ry="2.3"/><ellipse id="XMLID_1801_" transform="rotate(-20.049 144.196 73.673)" class="st3" cx="144.2" cy="73.7" rx="2.3" ry="2.3"/><path id="XMLID_1800_" class="st3" d="M47.1 127.1c-.9.8-1 2.2-.3 3.1.8.9 2.2 1 3.1.3.9-.8 1-2.2.3-3.1-.9-1-2.2-1.2-3.1-.3z"/><path id="XMLID_1798_" class="st3" d="M135.9 58.6c.9-.8 1-2.2.3-3.1-.8-.9-2.2-1-3.1-.3-.9.8-1 2.2-.3 3.1s2 1.1 3.1.3z"/><path id="XMLID_1746_" class="st3" d="M53.7 134.2c-.8.9-.7 2.4.3 3.1.9.8 2.4.7 3.1-.3.8-.9.7-2.4-.3-3.1-.9-.7-2.3-.7-3.1.3z"/><path id="XMLID_1741_" class="st3" d="M125.8 48.5c-.8.9-.7 2.4.3 3.1.9.8 2.4.7 3.1-.3.8-.9.7-2.4-.3-3.1-.9-.7-2.4-.6-3.1.3z"/><ellipse id="XMLID_1731_" transform="rotate(-69.952 72.289 145.302)" class="st3" cx="72.3" cy="145.3" rx="2.3" ry="2.3"/><ellipse id="XMLID_1730_" transform="rotate(-69.952 110.624 40.162)" class="st3" cx="110.6" cy="40.2" rx="2.3" ry="2.3"/><ellipse id="XMLID_1729_" transform="rotate(-79.973 81.675 147.953)" class="st3" cx="81.7" cy="147.9" rx="2.3" ry="2.3"/><ellipse id="XMLID_1728_" transform="rotate(-79.973 101.207 37.68)" class="st3" cx="101.2" cy="37.7" rx="2.3" ry="2.3"/></g></g></svg>