<svg xmlns="http://www.w3.org/2000/svg" viewBox="0 0 70 70"><defs><style>.cls-1{fill:none;}.cls-2{fill:#0177c0;}.cls-3{fill:#e3f2f8;}</style></defs><title>Asset 2</title><g id="Layer_2" data-name="Layer 2"><g id="Layer_1-2" data-name="Layer 1"><rect class="cls-1" width="70" height="70"/><polygon id="_Path_" data-name="&lt;Path&gt;" class="cls-2" points="25.4 25.92 28.09 44.21 40.88 44.36 44.6 35.47 34.07 36.52 36.05 22.05 25.4 25.92"/><g id="_Group_" data-name="&lt;Group&gt;"><g id="_Group_2" data-name="&lt;Group&gt;"><path class="cls-3" d="M20.88,18.2l-.73-2.61-7.21,1.23a23.39,23.39,0,0,0-1.26,5Z"/></g><g id="_Group_3" data-name="&lt;Group&gt;"><polygon class="cls-3" points="29.75 15.62 24.01 17.87 25.01 22.79 30.2 20.91 29.75 15.62"/></g><g id="_Group_4" data-name="&lt;Group&gt;"><path class="cls-3" d="M19.92,14.77l-1.74-6.2A23.58,23.58,0,0,0,13.3,15.9Z"/></g><g id="_Group_5" data-name="&lt;Group&gt;"><polygon class="cls-3" points="18.4 31.72 23.61 30.73 22.89 25.82 17.85 27.53 18.4 31.72"/></g><g id="_Group_6" data-name="&lt;Group&gt;"><polygon class="cls-3" points="16.94 20.64 17.73 26.68 22.76 24.98 22.57 23.67 24.22 23.08 23.22 18.18 16.94 20.64"/></g><g id="_Group_7" data-name="&lt;Group&gt;"><path class="cls-3" d="M29.84,7l9.7-5a23.63,23.63,0,0,0-10.11.23Z"/></g><g id="_Group_8" data-name="&lt;Group&gt;"><path class="cls-3" d="M18.61,39.72l-.93-7-5.22,1a59,59,0,0,0,2.08,7.57L19,39.67Z"/></g><g id="_Group_9" data-name="&lt;Group&gt;"><path class="cls-3" d="M50.61,7.42l-1.79.7,2,5.31L54.64,12A23.68,23.68,0,0,0,50.61,7.42Z"/></g><g id="_Group_10" data-name="&lt;Group&gt;"><g id="_Group_11" data-name="&lt;Group&gt;"><polygon class="cls-3" points="54.18 18.34 50.87 19.02 48.87 23.06 53.77 23.93 54.18 18.34"/></g><g id="_Group_12" data-name="&lt;Group&gt;"><polygon class="cls-3" points="47.62 23.68 43.88 23.02 41.69 28.04 45.62 27.7 47.62 23.68"/></g><g id="_Group_13" data-name="&lt;Group&gt;"><polygon class="cls-3" points="50.94 16.99 45.37 19.01 48.95 21.01 50.28 18.32 50.27 18.29 50.3 18.28 50.94 16.99"/></g><g id="_Group_14" data-name="&lt;Group&gt;"><polygon class="cls-3" points="39.52 28.22 40.74 28.12 43.03 22.86 40.53 22.42 39.52 28.22"/></g><g id="_Group_15" data-name="&lt;Group&gt;"><polygon class="cls-3" points="53.48 27.94 45.84 29.15 44.5 31.86 51.05 31 50.69 31.86 53.23 31.33 53.48 27.94"/></g><g id="_Group_16" data-name="&lt;Group&gt;"><path class="cls-3" d="M56.51,28.89l1.7.72c.07-.58.13-1.16.18-1.74s.11-1.11.14-1.67Z"/></g><g id="_Group_17" data-name="&lt;Group&gt;"><polygon class="cls-3" points="52.75 37.78 49.33 39.88 49.25 39.75 49.46 44.45 52.26 44.48 52.75 37.78"/></g><g id="_Group_18" data-name="&lt;Group&gt;"><polygon class="cls-3" points="50.31 32.8 49.02 35.92 49.07 35.91 49.21 38.97 52.83 36.74 53.16 32.2 50.31 32.8"/></g><g id="_Group_19" data-name="&lt;Group&gt;"><polygon class="cls-3" points="53.71 24.77 48.48 23.84 46.3 28.22 53.54 27.08 53.71 24.77"/></g><g id="_Group_20" data-name="&lt;Group&gt;"><polygon class="cls-3" points="48.31 37.65 45.52 44.41 48.62 44.44 48.31 37.65"/></g><g id="_Group_21" data-name="&lt;Group&gt;"><polygon class="cls-3" points="45.19 28.58 39.37 29.08 38.75 32.61 43.49 31.99 45.19 28.58"/></g><g id="_Group_22" data-name="&lt;Group&gt;"><polygon class="cls-3" points="48.01 22.9 48.57 21.76 44.32 19.39 40.84 20.66 40.67 21.59 48.01 22.9"/></g><g id="_Group_23" data-name="&lt;Group&gt;"><path class="cls-3" d="M53.43,39.94,53.1,44.5h1.12c.63-1.46,1.2-3,1.72-4.56Z"/></g><g id="_Group_24" data-name="&lt;Group&gt;"><path class="cls-3" d="M54.25,28.84l-.2,2.66.1.48L54,32l-.19,2.62,3.77-1.1q.29-1.5.5-3.07Z"/></g><g id="_Group_25" data-name="&lt;Group&gt;"><path class="cls-3" d="M57.41,34.47l-3.65,1.06-.26,3.57H56.2C56.66,37.61,57.07,36.07,57.41,34.47Z"/></g><g id="_Group_26" data-name="&lt;Group&gt;"><path class="cls-3" d="M51.34,18.07l5.76-1.18q-.35-.95-.78-1.85l-4.24,1.54Z"/></g><g id="_Group_27" data-name="&lt;Group&gt;"><path class="cls-3" d="M54.32,28l1.4.59,2.84-3.79a23.72,23.72,0,0,0-.21-2.87l-3.6.3Z"/></g><g id="_Group_28" data-name="&lt;Group&gt;"><path class="cls-3" d="M55,18.17l-.23,3.18,3.42-.28a23.39,23.39,0,0,0-.84-3.38Z"/></g></g><g id="_Group_29" data-name="&lt;Group&gt;"><g id="_Group_30" data-name="&lt;Group&gt;"><path class="cls-3" d="M16.8,26,16.13,21l-4.57,1.79c-.07.76-.11,1.52-.11,2.3,0,0,0,.17,0,.47Z"/></g><g id="_Group_31" data-name="&lt;Group&gt;"><path class="cls-3" d="M16.91,26.87l-5.43-.5v.09a49.87,49.87,0,0,0,.81,6.42l5.27-1Z"/></g></g><g id="_Group_32" data-name="&lt;Group&gt;"><g id="_Group_33" data-name="&lt;Group&gt;"><polygon class="cls-3" points="23.24 31.66 18.51 32.55 19.38 39.09 23.24 31.66"/></g><g id="_Group_34" data-name="&lt;Group&gt;"><polygon class="cls-3" points="24.63 37.67 23.84 32.32 20.25 39.23 24.63 37.67"/></g></g><g id="_Group_35" data-name="&lt;Group&gt;"><g id="_Group_36" data-name="&lt;Group&gt;"><path class="cls-3" d="M25.21,7.7,28.8,4.62,28.6,2.39a23.41,23.41,0,0,0-4.95,2Z"/></g><g id="_Group_37" data-name="&lt;Group&gt;"><path class="cls-3" d="M22.93,4.84A23.62,23.62,0,0,0,18.87,7.9l1.18,4.23,4.49-3.86Z"/></g></g><g id="_Group_38" data-name="&lt;Group&gt;"><g id="_Group_39" data-name="&lt;Group&gt;"><path class="cls-3" d="M45.9,4.17,41.23,6.71l3.73,2L49.89,6.8A23.57,23.57,0,0,0,45.9,4.17Z"/></g><g id="_Group_40" data-name="&lt;Group&gt;"><path class="cls-3" d="M45,3.72a23.39,23.39,0,0,0-4.17-1.49l-4,2.07,3.53,1.93Z"/></g></g><g id="_Group_41" data-name="&lt;Group&gt;"><g id="_Group_42" data-name="&lt;Group&gt;"><polygon class="cls-3" points="34.15 12.99 43.94 9.14 35.93 4.76 34.69 5.41 34.15 12.99"/></g><g id="_Group_43" data-name="&lt;Group&gt;"><polygon class="cls-3" points="33.71 5.92 29.92 7.89 30.49 14.43 33.17 13.37 33.71 5.92"/></g></g><g id="_Group_44" data-name="&lt;Group&gt;"><g id="_Group_45" data-name="&lt;Group&gt;"><polygon class="cls-3" points="31.76 58.23 32.11 52.91 28.68 52.79 27.99 57.41 31.76 58.23"/></g><g id="_Group_46" data-name="&lt;Group&gt;"><polygon class="cls-3" points="28.8 51.95 34.16 52.15 35.07 47.67 29.44 47.61 28.8 51.95"/></g><g id="_Group_47" data-name="&lt;Group&gt;"><polygon class="cls-3" points="20.25 51.64 27.95 51.92 28.21 50.22 21.78 48.62 20.25 51.64"/></g><g id="_Group_48" data-name="&lt;Group&gt;"><polygon class="cls-3" points="27.83 52.76 24.52 52.63 23.87 54.92 27.41 55.59 27.83 52.76"/></g><g id="_Group_49" data-name="&lt;Group&gt;"><polygon class="cls-3" points="34.16 59.61 27.87 58.25 27.52 60.62 33.19 62.35 34.16 59.61"/></g><g id="_Group_50" data-name="&lt;Group&gt;"><path class="cls-3" d="M19.32,51.6h0l1.63-3.2-3.85-1C17.76,48.82,18.5,50.21,19.32,51.6Z"/></g><g id="_Group_51" data-name="&lt;Group&gt;"><polygon class="cls-3" points="35.91 62.12 36.74 60.17 34.99 59.79 34.44 61.33 35.91 62.12"/></g><g id="_Group_52" data-name="&lt;Group&gt;"><path class="cls-3" d="M23.2,57.34q1.54,2,3.37,4l.73-4.9-3.64-.68Z"/></g><g id="_Group_53" data-name="&lt;Group&gt;"><polygon class="cls-3" points="40.94 47.74 45.41 50.4 48.85 47.84 40.94 47.74"/></g><g id="_Group_54" data-name="&lt;Group&gt;"><polygon class="cls-3" points="32.95 52.95 32.59 58.41 35.89 59.13 35.79 53.05 32.95 52.95"/></g><g id="_Group_55" data-name="&lt;Group&gt;"><path class="cls-3" d="M34.16,62.13,32.54,66.7l-.39-.14.67.54,4.27-3.4Z"/></g><g id="_Group_56" data-name="&lt;Group&gt;"><polygon class="cls-3" points="47.71 52.65 43.24 49.99 42.08 52.44 47.71 52.65"/></g><g id="_Group_57" data-name="&lt;Group&gt;"><polygon class="cls-3" points="35.01 52.18 41.16 52.41 42.52 49.56 39.43 47.73 35.92 47.69 35.01 52.18"/></g><g id="_Group_58" data-name="&lt;Group&gt;"><path class="cls-3" d="M23.65,52.6l-3.82-.14q1.24,2,2.72,4Z"/></g><g id="_Group_59" data-name="&lt;Group&gt;"><path class="cls-3" d="M21.34,47.64l3.22-6.34-8.81,3.14q.42,1,.89,2Z"/></g><g id="_Group_60" data-name="&lt;Group&gt;"><polygon class="cls-3" points="25.14 41.09 25.14 41.09 25.14 41.09 25.14 41.09"/></g><g id="_Group_61" data-name="&lt;Group&gt;"><polygon class="cls-3" points="22.17 47.85 28.33 49.38 28.59 47.6 26.09 47.57 25.24 41.81 22.17 47.85"/></g><g id="_Group_62" data-name="&lt;Group&gt;"><path class="cls-3" d="M50.24,47.85l-4,3,3.09,1.84.58,0c1-1.51,1.9-3.13,2.77-4.85Z"/></g><g id="_Group_63" data-name="&lt;Group&gt;"><path class="cls-3" d="M32.91,63.15l-5.52-1.68-.09.63a57.29,57.29,0,0,0,4.5,4.18Z"/></g><g id="_Group_64" data-name="&lt;Group&gt;"><path class="cls-3" d="M41.55,61.21,38.6,63.56l1.61.86c.89-.84,1.84-1.8,2.84-2.88Z"/></g><g id="_Group_65" data-name="&lt;Group&gt;"><polygon class="cls-3" points="41.58 58.25 38.76 53.16 36.63 53.08 36.73 59.31 40.83 60.19 41.58 58.25"/></g><g id="_Group_66" data-name="&lt;Group&gt;"><polygon class="cls-3" points="37.58 60.35 36.65 62.51 37.8 63.13 40.49 60.98 37.58 60.35"/></g><g id="_Group_67" data-name="&lt;Group&gt;"><path class="cls-3" d="M34.71,66.66l-1.22,1,1.15.87Z"/></g><g id="_Group_68" data-name="&lt;Group&gt;"><path class="cls-3" d="M39.56,65l-1.67-.9-2.41,1.92h.1l-.08,2.36A48.77,48.77,0,0,0,39.56,65Z"/></g><g id="_Group_69" data-name="&lt;Group&gt;"><path class="cls-3" d="M44.35,53.37l-.78,2,2.61,2.5c1.05-1.33,2.11-2.78,3.14-4.34Z"/></g><g id="_Group_70" data-name="&lt;Group&gt;"><path class="cls-3" d="M45.65,58.54l-2.41-2.3-1.59,4.13,2,.44Q44.66,59.75,45.65,58.54Z"/></g><g id="_Group_71" data-name="&lt;Group&gt;"><polygon class="cls-3" points="43.46 53.33 39.74 53.2 41.97 57.22 43.46 53.33"/></g></g><g id="_Group_72" data-name="&lt;Group&gt;"><g id="_Group_73" data-name="&lt;Group&gt;"><polygon class="cls-3" points="44.64 15.67 50.02 13.72 48.05 8.43 43.47 10.23 44.64 15.67"/></g><g id="_Group_74" data-name="&lt;Group&gt;"><polygon class="cls-3" points="42.68 10.54 38.4 12.22 42.16 16.57 43.84 15.96 42.68 10.54"/></g></g><g id="_Group_75" data-name="&lt;Group&gt;"><g id="_Group_76" data-name="&lt;Group&gt;"><polygon class="cls-3" points="39.26 17.62 41.31 16.87 37.58 12.54 33.19 14.26 39.26 17.62"/></g><g id="_Group_77" data-name="&lt;Group&gt;"><polygon class="cls-3" points="32.18 14.66 30.56 15.3 31.02 20.61 38.21 18 32.18 14.66"/></g></g><g id="_Group_78" data-name="&lt;Group&gt;"><g id="_Group_79" data-name="&lt;Group&gt;"><polygon class="cls-3" points="27.19 15.72 23.08 10.64 20.34 12.99 20.27 12.92 21.66 17.89 23.05 17.34 23.03 17.26 23.5 17.17 27.19 15.72"/></g><g id="_Group_80" data-name="&lt;Group&gt;"><polygon class="cls-3" points="28 15.4 29.67 14.74 28.89 5.65 23.71 10.09 28 15.4"/></g></g></g></g></g></svg>