<svg id="Layer_1" xmlns="http://www.w3.org/2000/svg" viewBox="0 0 123 47"><style>.st0{fill:#8f8fd1}.st1{fill:#f15379}</style><path class="st0" d="M68.4 18.5h-8.1V.6H69c2.2 0 3.8.7 4.7 2 .6.8.9 1.7.9 2.8 0 1.1-.3 2.1-.9 2.8-.2.3-.5.5-.8.7.6.3 1.1.8 1.5 1.4.5.7.7 1.7.7 2.7 0 1.1-.3 2.1-.8 2.9-.3.6-.8 1.1-1.3 1.4-.6.4-1.3.8-2.1.9-.8.2-1.6.3-2.5.3zm-7.4-.7h7.4c.8 0 1.6-.1 2.4-.2.7-.1 1.3-.4 1.8-.8.4-.3.8-.8 1.1-1.3.5-.7.7-1.6.7-2.6 0-.9-.2-1.7-.6-2.3-.4-.6-1-1.1-1.8-1.4l-.8-.2.7-.4c.5-.3.9-.6 1.2-.9.5-.6.7-1.3.7-2.3 0-.9-.2-1.8-.7-2.4-.8-1.1-2.2-1.7-4.2-1.7h-8v16.5zm21.3.6c-1.7 0-3.2-.5-4.6-1.6-1.3-1.1-2-2.8-2-5.2 0-2.2.6-4 1.8-5.2 1.2-1.2 2.8-1.8 4.7-1.8 1.1 0 2.1.2 3 .6.9.4 1.7 1.1 2.3 1.9.5.8.9 1.7 1 2.7.1.6.1 1.4.1 2.5v.3h-8.9c.1.9.5 1.6 1.1 1.9.4.3 1 .4 1.6.4.7 0 1.2-.2 1.6-.5.2-.2.4-.4.6-.7l.1-.2h3.9v.4c-.1.8-.5 1.6-1.3 2.4-1.3 1.5-2.9 2.1-5 2.1zm-.1-13.1c-1.7 0-3.1.5-4.2 1.6s-1.6 2.6-1.6 4.7c0 2.2.6 3.7 1.8 4.7 1.2 1 2.6 1.4 4.1 1.4 1.9 0 3.3-.6 4.4-1.7.5-.6.9-1.1 1-1.6H85c-.2.3-.4.6-.6.8-.5.4-1.2.6-2 .6s-1.4-.2-2-.5c-.9-.6-1.4-1.5-1.5-2.9V12h9c0-.9 0-1.5-.1-2-.1-.9-.5-1.7-.9-2.4-.5-.8-1.2-1.3-2-1.7-.8-.4-1.7-.6-2.7-.6zm-14 10.2h-4v-5.3h4c.8 0 1.4.1 1.9.3.8.4 1.3 1.1 1.3 2.2 0 1.2-.4 2-1.3 2.5-.4.2-1.1.3-1.9.3zm-3.3-.7h3.3c.7 0 1.2-.1 1.6-.3.6-.3.9-.9.9-1.8 0-.8-.3-1.3-.9-1.5-.3-.2-.8-.2-1.5-.3H65v3.9zm20.4-4.2H79l.1-.4c.1-.9.4-1.6 1-2.1.5-.5 1.3-.8 2.2-.8.8 0 1.6.3 2.1.8.6.5.9 1.2 1 2.2l-.1.3zm-5.5-.7h4.7c-.1-.6-.3-1-.7-1.3-.5-.4-1-.6-1.7-.6s-1.3.2-1.7.6c-.2.3-.5.8-.6 1.3zM68.2 8.1h-4V3.6h3.6c.9 0 1.6.1 2.1.3.5.2 1.2.7 1.2 1.9 0 .9-.3 1.5-.9 1.8-.5.3-1.2.5-2 .5zm-3.3-.7h3.3c.7 0 1.2-.1 1.6-.4.4-.2.5-.6.5-1.2 0-.9-.4-1.1-.7-1.3-.5-.2-1.1-.2-1.9-.2h-2.9v3.1zM86 3.8h-7.6V1.3H86v2.5zm-7-.7h6.2V2H79v1.1z" id="Behance_1_"/><path class="st0" d="M107.1 18.5c-2.2 0-4.4-.6-6.3-1.7-.3-.2-.4-.5-.3-.8.1-.3.4-.5.7-.5h.5c1.3 0 2.6-.3 3.7-.9-1.4-.5-2.5-1.6-3-3.1-.1-.2 0-.4.1-.6l.1-.1c-1.1-.9-1.8-2.3-1.8-3.8 0-.2.1-.4.3-.5.1-.1.3-.1.4-.1-.4-.7-.6-1.5-.6-2.4 0-.8.2-1.7.7-2.4.1-.2.3-.3.5-.3s.4.1.5.2c1.9 2.3 4.6 3.8 7.6 4.1 0-.5 0-1 .1-1.5.4-1.6 1.6-2.9 3.1-3.4 1.7-.5 3.4-.1 4.7 1 0 0 .1.1.2.1.8-.2 1.5-.5 2.1-.9.2-.1.5-.1.7 0 .2.2.3.4.2.6-.1.4-.3.7-.5 1.1.1 0 .2-.1.3-.1.2-.1.5 0 .7.2.2.2.2.5 0 .7-.5.8-1.1 1.4-1.8 2-.1.1-.2.2-.2.3 0 1.5-.3 3.1-.8 4.5-.6 1.5-1.4 2.9-2.4 4-1.1 1.3-2.5 2.3-4 3-1.7.9-3.5 1.3-5.5 1.3zm-5.9-2.3c1.8 1 3.9 1.6 6 1.6 1.8 0 3.6-.4 5.1-1.1 1.4-.7 2.7-1.6 3.7-2.8 1-1.1 1.8-2.4 2.3-3.8.5-1.4.8-2.8.8-4.2 0-.4.2-.7.4-.9.6-.4 1-1 1.5-1.5-.4.1-.7.3-1.1.3l-1.3.3.9-.9c.4-.4.8-.9 1-1.4-.6.3-1.3.6-2 .8-.3.1-.6 0-.8-.2-1.1-.9-2.6-1.3-4-.8-1.3.4-2.4 1.5-2.7 2.9-.1.5-.2 1-.1 1.5 0 .1 0 .3-.1.4-.1.1-.2.2-.4.2-3.2-.3-6.1-1.8-8.2-4.3-.3.6-.5 1.2-.5 1.9 0 1.1.4 2.1 1.2 2.9l.9.9-1.2-.3-.9-.3c.1 1.5 1 2.9 2.4 3.6l1.4.6h-2.3c.5 1.4 1.7 2.4 3.2 2.6l.9.1-.7.5c-1.4 1-3.1 1.5-4.8 1.5h-.6zm.8-14.1z" id="XMLID_14_"/><path class="st0" d="M38.4 18.5c-4.9 0-8.9-4-8.9-8.9s4-8.9 8.9-8.9 8.9 4 8.9 8.9-4 8.9-8.9 8.9zm0-17.2c-4.5 0-8.2 3.7-8.2 8.2s3.7 8.2 8.2 8.2 8.2-3.7 8.2-8.2-3.7-8.2-8.2-8.2z" id="XMLID_9_"/><path class="st0" d="M40.9 18.2l-.7-.1c.9-9.2-6.3-15.5-6.4-15.6l.5-.5c0 .1 7.5 6.6 6.6 16.2z" id="XMLID_7_"/><path class="st0" d="M33.6 16.6l-.6-.3c0-.1 3.7-7.7 14-7.1v.7c-9.9-.6-13.4 6.6-13.4 6.7z" id="XMLID_6_"/><path class="st0" d="M31 9.4h-1.2l.1-.7c.1 0 8.5.8 14.3-5.3l.5.5C40 8.8 33.6 9.4 31 9.4z" id="XMLID_5_"/><path class="st0" d="M15.8 18.5H4.2c-1.7 0-3.1-1.4-3.1-3.1V3.7C1.1 2 2.5.6 4.2.6h11.6c1.7 0 3.1 1.4 3.1 3.1v11.7c0 1.7-1.4 3.1-3.1 3.1zM4.2 1.3c-1.3 0-2.4 1.1-2.4 2.4v11.7c0 1.3 1.1 2.4 2.4 2.4h11.6c1.3 0 2.4-1.1 2.4-2.4V3.7c0-1.3-1.1-2.4-2.4-2.4H4.2z" id="XMLID_298_"/><path class="st0" d="M11.7 13.7H8.4c-1.3 0-2.4-1.1-2.4-2.4V7.9c0-1.3 1.1-2.4 2.4-2.4h3.3c1.3 0 2.4 1.1 2.4 2.4v3.4c0 1.3-1.1 2.4-2.4 2.4zM8.4 6.1c-1 0-1.7.8-1.7 1.7v3.4c0 1 .8 1.7 1.7 1.7h3.3c1 0 1.7-.8 1.7-1.7V7.9c0-1-.8-1.7-1.7-1.7H8.4z" id="XMLID_296_"/><path class="st0" d="M11.7 13.7H8.4c-1.3 0-2.4-1.1-2.4-2.4V7.9c0-1.3 1.1-2.4 2.4-2.4h3.3c1.3 0 2.4 1.1 2.4 2.4v3.4c0 1.3-1.1 2.4-2.4 2.4zM8.4 6.1c-1 0-1.7.8-1.7 1.7v3.4c0 1 .8 1.7 1.7 1.7h3.3c1 0 1.7-.8 1.7-1.7V7.9c0-1-.8-1.7-1.7-1.7H8.4z" id="XMLID_229_"/><path class="st0" d="M15.3 5.5c-.6 0-1.1-.5-1.1-1.1s.5-1.1 1.1-1.1c.6 0 1.1.5 1.1 1.1s-.5 1.1-1.1 1.1zm0-1.6c-.2 0-.4.2-.4.4s.2.4.4.4.4-.2.4-.4-.2-.4-.4-.4z" id="XMLID_15_"/><path class="st1" d="M68.4 46.5h-8.1V28.6H69c2.2 0 3.8.7 4.7 2 .6.8.9 1.7.9 2.8 0 1.1-.3 2.1-.9 2.8-.2.3-.5.5-.8.7.6.3 1.1.8 1.5 1.4.5.7.7 1.7.7 2.7 0 1.1-.3 2.1-.8 2.9-.3.6-.8 1.1-1.3 1.4-.6.4-1.3.8-2.1.9-.8.2-1.6.3-2.5.3zm-7.4-.7h7.4c.8 0 1.6-.1 2.4-.2.7-.1 1.3-.4 1.8-.8.4-.3.8-.8 1.1-1.3.5-.7.7-1.6.7-2.6 0-.9-.2-1.7-.6-2.3-.4-.6-1-1.1-1.8-1.4l-.8-.2.7-.4c.5-.3.9-.6 1.2-.9.5-.6.7-1.3.7-2.3 0-.9-.2-1.8-.7-2.4-.8-1.1-2.2-1.7-4.2-1.7h-8v16.5zm21.3.6c-1.7 0-3.2-.5-4.6-1.6-1.3-1.1-2-2.8-2-5.2 0-2.2.6-4 1.8-5.2 1.2-1.2 2.8-1.8 4.7-1.8 1.1 0 2.1.2 3 .6.9.4 1.7 1.1 2.3 1.9.5.8.9 1.7 1 2.7.1.6.1 1.4.1 2.5v.3h-8.9c.1.9.5 1.6 1.1 1.9.4.3 1 .4 1.6.4.7 0 1.2-.2 1.6-.5.2-.2.4-.4.6-.7l.1-.2h3.9v.4c-.1.8-.5 1.6-1.3 2.4-1.3 1.5-2.9 2.1-5 2.1zm-.1-13.1c-1.7 0-3.1.5-4.2 1.6s-1.6 2.6-1.6 4.7c0 2.2.6 3.7 1.8 4.7 1.2 1 2.6 1.4 4.1 1.4 1.9 0 3.3-.6 4.4-1.7.5-.6.9-1.1 1-1.6H85c-.2.3-.4.6-.6.8-.5.4-1.2.6-2 .6s-1.4-.2-2-.5c-.9-.6-1.4-1.5-1.5-2.9V40h9c0-.9 0-1.5-.1-2-.1-.9-.5-1.7-.9-2.4-.5-.8-1.2-1.3-2-1.7-.8-.4-1.7-.6-2.7-.6zm-14 10.2h-4v-5.3h4c.8 0 1.4.1 1.9.3.8.4 1.3 1.1 1.3 2.2 0 1.2-.4 2-1.3 2.5-.4.2-1.1.3-1.9.3zm-3.3-.7h3.3c.7 0 1.2-.1 1.6-.3.6-.3.9-.9.9-1.8 0-.8-.3-1.3-.9-1.5-.3-.2-.8-.2-1.5-.3H65v3.9zm20.4-4.2H79l.1-.4c.1-.9.4-1.6 1-2.1.5-.5 1.3-.8 2.2-.8.8 0 1.6.3 2.1.8.6.5.9 1.2 1 2.2l-.1.3zm-5.5-.7h4.7c-.1-.6-.3-1-.7-1.3-.5-.4-1-.6-1.7-.6s-1.3.2-1.7.6c-.2.3-.5.8-.6 1.3zm-11.6-1.8h-4v-4.5h3.6c.9 0 1.6.1 2.1.3.5.2 1.2.7 1.2 1.9 0 .9-.3 1.5-.9 1.8-.5.3-1.2.5-2 .5zm-3.3-.7h3.3c.7 0 1.2-.1 1.6-.4.4-.2.5-.6.5-1.2 0-.9-.4-1.1-.7-1.3-.5-.2-1.1-.2-1.9-.2h-2.9v3.1zM86 31.8h-7.6v-2.4H86v2.4zm-7-.7h6.2v-1H79v1z" id="Behance_2_"/><path class="st1" d="M107.1 46.5c-2.2 0-4.4-.6-6.3-1.7-.3-.2-.4-.5-.3-.8.1-.3.4-.5.7-.5h.5c1.3 0 2.6-.3 3.7-.9-1.4-.5-2.5-1.6-3-3.1-.1-.2 0-.4.1-.6l.1-.1c-1.1-.9-1.8-2.3-1.8-3.8 0-.2.1-.4.3-.5.1-.1.3-.1.4-.1-.4-.7-.6-1.5-.6-2.4 0-.8.2-1.7.7-2.4.1-.2.3-.3.5-.3s.4.1.5.2c1.9 2.3 4.6 3.8 7.6 4.1 0-.5 0-1 .1-1.5.4-1.6 1.6-2.9 3.1-3.4 1.7-.5 3.4-.1 4.7 1 0 0 .1.1.2.1.8-.2 1.5-.5 2.1-.9.2-.1.5-.1.7 0 .2.2.3.4.2.6-.1.4-.3.7-.5 1.1.1 0 .2-.1.3-.1.2-.1.5 0 .7.2.2.2.2.5 0 .7-.5.8-1.1 1.4-1.8 2-.1.1-.2.2-.2.3 0 1.5-.3 3.1-.8 4.5-.6 1.5-1.4 2.9-2.4 4-1.1 1.3-2.5 2.3-4 3-1.7.9-3.5 1.3-5.5 1.3zm-5.9-2.3c1.8 1 3.9 1.6 6 1.6 1.8 0 3.6-.4 5.1-1.1 1.4-.7 2.7-1.6 3.7-2.8 1-1.1 1.8-2.4 2.3-3.8.5-1.4.8-2.8.8-4.2 0-.4.2-.7.4-.9.6-.4 1-1 1.5-1.5-.4.1-.7.3-1.1.3l-1.3.3.9-.9c.4-.4.8-.9 1-1.4-.6.3-1.3.6-2 .8-.3.1-.6 0-.8-.2-1.1-.9-2.6-1.3-4-.8-1.3.4-2.4 1.5-2.7 2.9-.1.5-.2 1-.1 1.5 0 .1 0 .3-.1.4-.1.1-.2.2-.4.2-3.2-.3-6.1-1.8-8.2-4.3-.3.6-.5 1.2-.5 1.9 0 1.1.4 2.1 1.2 2.9l.9.9-1.2-.3-.9-.3c.1 1.5 1 2.9 2.4 3.6l1.4.6h-2.3c.5 1.4 1.7 2.4 3.2 2.6l.9.1-.7.5c-1.4 1-3.1 1.5-4.8 1.5h-.6zm.8-14.1z" id="XMLID_16_"/><path class="st1" d="M38.4 46.5c-4.9 0-8.9-4-8.9-8.9s4-8.9 8.9-8.9 8.9 4 8.9 8.9-4 8.9-8.9 8.9zm0-17.2c-4.5 0-8.2 3.7-8.2 8.2s3.7 8.2 8.2 8.2 8.2-3.7 8.2-8.2-3.7-8.2-8.2-8.2z" id="XMLID_13_"/><path class="st1" d="M40.9 46.2l-.7-.1c.9-9.2-6.3-15.5-6.4-15.6l.5-.5c0 .1 7.5 6.6 6.6 16.2z" id="XMLID_12_"/><path class="st1" d="M33.6 44.6l-.6-.3c0-.1 3.7-7.7 14-7.1v.7c-9.9-.6-13.4 6.6-13.4 6.7z" id="XMLID_11_"/><path class="st1" d="M31 37.4h-1.2l.1-.7c.1 0 8.5.8 14.3-5.3l.5.5C40 36.8 33.6 37.4 31 37.4z" id="XMLID_10_"/><path class="st1" d="M15.8 46.5H4.2c-1.7 0-3.1-1.4-3.1-3.1V31.7c0-1.7 1.4-3.1 3.1-3.1h11.6c1.7 0 3.1 1.4 3.1 3.1v11.7c0 1.7-1.4 3.1-3.1 3.1zM4.2 29.3c-1.3 0-2.4 1.1-2.4 2.4v11.7c0 1.3 1.1 2.4 2.4 2.4h11.6c1.3 0 2.4-1.1 2.4-2.4V31.7c0-1.3-1.1-2.4-2.4-2.4H4.2z" id="XMLID_4_"/><path class="st1" d="M11.7 41.7H8.4c-1.3 0-2.4-1.1-2.4-2.4v-3.4c0-1.3 1.1-2.4 2.4-2.4h3.3c1.3 0 2.4 1.1 2.4 2.4v3.4c0 1.3-1.1 2.4-2.4 2.4zm-3.3-7.6c-1 0-1.7.8-1.7 1.7v3.4c0 1 .8 1.7 1.7 1.7h3.3c1 0 1.7-.8 1.7-1.7v-3.4c0-1-.8-1.7-1.7-1.7H8.4z" id="XMLID_3_"/><path class="st1" d="M11.7 41.7H8.4c-1.3 0-2.4-1.1-2.4-2.4v-3.4c0-1.3 1.1-2.4 2.4-2.4h3.3c1.3 0 2.4 1.1 2.4 2.4v3.4c0 1.3-1.1 2.4-2.4 2.4zm-3.3-7.6c-1 0-1.7.8-1.7 1.7v3.4c0 1 .8 1.7 1.7 1.7h3.3c1 0 1.7-.8 1.7-1.7v-3.4c0-1-.8-1.7-1.7-1.7H8.4z" id="XMLID_2_"/><path class="st1" d="M15.3 33.5c-.6 0-1.1-.5-1.1-1.1 0-.6.5-1.1 1.1-1.1.6 0 1.1.5 1.1 1.1 0 .5-.5 1.1-1.1 1.1zm0-1.6c-.2 0-.4.2-.4.4s.2.4.4.4.4-.2.4-.4-.2-.4-.4-.4z" id="XMLID_1_"/></svg>