<svg id="Layer_1" xmlns="http://www.w3.org/2000/svg" viewBox="0 0 30 19"><style>.st0,.st1{fill:none;stroke:#f15379;stroke-width:.7;stroke-miterlimit:10}.st1{stroke:#8f8fd1}.st2{fill:#f15379}.st3{fill:none;stroke:#f15379;stroke-miterlimit:10}</style><path id="Behance_9_" class="st0" d="M26.2 3.3h-6.9V1.6h6.9v1.7zm-11.6 7.1c.4.7.7 1.5.7 2.5s-.3 1.9-.8 2.7c-.3.5-.7 1-1.2 1.3-.5.4-1.2.7-1.9.9-.7.2-1.6.2-2.4.2H1.2V.9h8.3c2.1 0 3.6.6 4.5 1.8.5.7.8 1.6.8 2.6 0 1.1-.3 1.9-.8 2.5-.3.4-.7.7-1.3 1 .8.4 1.5.9 1.9 1.6zM5.1 7.7h3.6c.7 0 1.4-.1 1.8-.4.5-.3.7-.8.7-1.5 0-.8-.3-1.3-.9-1.6-.5-.2-1.1-.3-2-.3H5.1v3.8zm6.5 5c0-.9-.4-1.5-1.1-1.8-.4-.2-1-.3-1.7-.3H5.1v4.6h3.6c.7 0 1.3-.1 1.7-.3.9-.5 1.2-1.2 1.2-2.2zm17.1-2.8c.1.6.1 1.4.1 2.4h-9c0 1.2.5 2.1 1.3 2.6.5.3 1.1.5 1.8.5s1.3-.2 1.8-.6c.3-.2.5-.5.7-.8h3.3c-.1.7-.5 1.5-1.2 2.2-1.1 1.2-2.7 1.8-4.6 1.8-1.6 0-3.1-.5-4.3-1.5-1.3-1-1.9-2.7-1.9-4.9 0-2.1.6-3.8 1.7-4.9S21 5 22.8 5c1.1 0 2 .2 2.9.6s1.6 1 2.1 1.8c.4.7.8 1.5.9 2.5zm-3.2.3c-.1-.9-.3-1.5-.9-1.9-.5-.4-1.1-.7-1.9-.7s-1.5.2-1.9.7c-.5.5-.7 1.1-.9 1.9h5.6z"/><path id="XMLID_8_" class="st1" d="M98.8 27.3c-.5.2-.9.4-1.4.5.5-.5.9-1.2 1.2-1.9.1-.2-.2-.4-.3-.3-.7.4-1.4.7-2.2.9H96c-.1 0-.3-.1-.4-.1-.8-.7-1.9-1.1-3-1.1-.5 0-.9.1-1.4.2-1.4.4-2.6 1.6-2.9 3.1-.1.6-.2 1.1-.1 1.6v.1l-.1.1c-3.2-.3-6-1.8-8-4.3-.1-.1-.3-.1-.4 0-.4.7-.6 1.5-.6 2.2 0 1.2.5 2.3 1.3 3.2-.4-.1-.7-.2-1-.4-.2-.1-.3 0-.3.2 0 1.8 1 3.4 2.6 4.1h-.1c-.2 0-.5 0-.8-.1-.2 0-.3.1-.3.3.5 1.6 1.9 2.8 3.5 3-1.4.9-3 1.4-4.6 1.4h-.5c-.2 0-.3.1-.3.3s0 .3.2.4c1.9 1.1 4 1.7 6.2 1.7 1.9 0 3.7-.4 5.3-1.1 1.5-.7 2.8-1.6 3.8-2.9 1-1.1 1.8-2.5 2.4-3.9.5-1.4.8-2.9.8-4.3v-.1c0-.2.1-.4.3-.6.7-.6 1.3-1.2 1.8-1.9-.1-.1-.3-.4-.6-.3z"/><ellipse id="XMLID_36_" class="st1" cx="13" cy="40.5" rx="8.5" ry="8.6"/><path id="XMLID_35_" class="st1" d="M8.6 33.2s7.4 6.4 6.5 15.9"/><path id="XMLID_34_" class="st1" d="M7.9 47.4s3.5-7.5 13.7-6.9"/><path id="XMLID_33_" class="st1" d="M4.5 39.9s8.6.9 14.6-5.4"/><path id="XMLID_37_" class="st1" d="M-15.2 37.1h-11.6c-1.5 0-2.7-1.2-2.7-2.7V22.7c0-1.5 1.2-2.7 2.7-2.7h11.6c1.5 0 2.7 1.2 2.7 2.7v11.7c0 1.5-1.2 2.7-2.7 2.7z"/><path id="XMLID_32_" class="st1" d="M-19.3 32.3h-3.3c-1.2 0-2.1-.9-2.1-2.1v-3.4c0-1.2.9-2.1 2.1-2.1h3.3c1.2 0 2.1.9 2.1 2.1v3.4c-.1 1.1-1 2.1-2.1 2.1z"/><path id="XMLID_31_" class="st1" d="M-19.3 32.3h-3.3c-1.2 0-2.1-.9-2.1-2.1v-3.4c0-1.2.9-2.1 2.1-2.1h3.3c1.2 0 2.1.9 2.1 2.1v3.4c-.1 1.1-1 2.1-2.1 2.1z"/><ellipse id="XMLID_30_" class="st1" cx="-15.7" cy="23.3" rx=".8" ry=".8"/><g id="XMLID_43_"><g id="XMLID_44_"><path id="Behance_1_" class="st2" d="M-77-18.4h-4.4v-1.1h4.4v1.1zm-7.4 4.5c.3.4.4 1 .4 1.6 0 .7-.2 1.2-.5 1.8-.2.3-.5.6-.8.9-.4.3-.8.5-1.2.6H-93v-11h5.3c1.3 0 2.3.4 2.9 1.2.3.5.5 1 .5 1.7s-.2 1.2-.5 1.6c-.2.2-.5.4-.8.6.5.2 1 .5 1.2 1zm-6-1.8h2.3c.5 0 .9-.1 1.2-.3.3-.2.4-.5.4-1s-.2-.9-.6-1c-.3-.1-.8-.2-1.3-.2h-2.1v2.5zm4.2 3.2c0-.6-.2-1-.7-1.2-.3-.1-.6-.2-1.1-.2h-2.4v2.9h2.3c.5 0 .8-.1 1.1-.2.5-.1.8-.6.8-1.3zm10.9-1.8c.1.4.1.9.1 1.6H-81c0 .8.3 1.3.8 1.7.3.2.7.3 1.1.3.5 0 .9-.1 1.1-.4.2-.1.3-.3.4-.5h2.1c-.1.5-.3.9-.8 1.4-.7.8-1.7 1.2-3 1.2-1.1 0-2-.3-2.8-1-.8-.6-1.2-1.7-1.2-3.2 0-1.4.4-2.4 1.1-3.1.7-.7 1.7-1.1 2.8-1.1.7 0 1.3.1 1.9.4.6.2 1 .6 1.4 1.2.5.4.7.9.8 1.5zm-2.1.2c0-.5-.2-1-.6-1.2-.3-.3-.7-.4-1.2-.4s-.9.2-1.2.5c-.3.3-.5.7-.6 1.2l3.6-.1z"/></g></g><g id="XMLID_41_"><path id="XMLID_42_" class="st3" d="M-51.6-18.7l-.9.3c.3-.3.6-.7.8-1.2 0-.1-.1-.2-.2-.2-.4.3-.9.5-1.4.6h-.1c-.1 0-.2 0-.2-.1-.5-.5-1.2-.7-1.9-.7-.3 0-.6 0-.9.1-.9.3-1.6 1-1.9 2-.1.4-.1.7-.1 1v.1h-.1c-2-.2-3.9-1.2-5.1-2.7-.1-.1-.2-.1-.2 0-.3.4-.4.9-.4 1.4 0 .8.3 1.5.9 2-.2-.1-.4-.1-.7-.3-.1-.1-.2 0-.2.1 0 1.1.7 2.2 1.7 2.6h-.6c-.1 0-.2.1-.2.2.3 1 1.2 1.8 2.3 1.9-.9.6-1.9.9-3 .9h-.3c-.1 0-.2.1-.2.2s0 .2.1.2c1.2.7 2.6 1.1 3.9 1.1 1.2 0 2.3-.2 3.4-.7.9-.4 1.8-1.1 2.5-1.8.6-.7 1.2-1.6 1.5-2.5.3-.9.5-1.8.5-2.8 0-.1.1-.3.2-.4.4-.4.8-.8 1.1-1.2 0 0-.1-.2-.3-.1z"/></g><g id="XMLID_5_"><g id="XMLID_6_"><path id="XMLID_40_" class="st3" d="M-127.3-9h-5.4c-1.5 0-2.7-1.2-2.7-2.7v-5.5c0-1.5 1.2-2.7 2.7-2.7h5.4c1.5 0 2.7 1.2 2.7 2.7v5.5c0 1.5-1.2 2.7-2.7 2.7z"/><path id="XMLID_39_" class="st3" d="M-129.7-12.1h-.6c-1.2 0-2.1-.9-2.1-2.1v-.7c0-1.2.9-2.1 2.1-2.1h.6c1.2 0 2.1.9 2.1 2.1v.7c-.1 1.2-1 2.1-2.1 2.1z"/><ellipse id="XMLID_38_" class="st2" cx="-127.5" cy="-17.8" rx=".9" ry=".9"/></g></g><g id="XMLID_2_"><g id="XMLID_7_"><ellipse id="XMLID_4_" class="st3" cx="-108.6" cy="-14.5" rx="5.5" ry="5.5"/><path id="XMLID_3_" class="st3" d="M-111.4-19.1s4.8 4.1 4.2 10.1"/><path id="XMLID_9_" class="st3" d="M-111.9-10.1s2.2-4.8 8.7-4.4"/><path id="XMLID_1_" class="st3" d="M-114.1-14.9s5.5.6 9.4-3.5"/></g></g></svg>