<svg id="Layer_1" xmlns="http://www.w3.org/2000/svg" viewBox="0 0 19 19"><style>.st0{fill:none;stroke:#8f8fd1;stroke-width:.7;stroke-miterlimit:10}</style><path id="Behance_9_" class="st0" d="M57.8 27.8h-6.9V26h6.9v1.8zm-11.6 7c.4.7.7 1.5.7 2.5s-.3 1.9-.8 2.7c-.3.5-.7 1-1.2 1.3-.5.4-1.2.7-1.9.9-.7.2-1.6.2-2.4.2h-7.8V25.3h8.3c2.1 0 3.6.6 4.5 1.8.5.7.8 1.6.8 2.6 0 1.1-.3 1.9-.8 2.5-.3.4-.7.7-1.3 1 .8.4 1.5.9 1.9 1.6zm-9.4-2.7h3.6c.7 0 1.4-.1 1.8-.4.5-.3.7-.8.7-1.5 0-.8-.3-1.3-.9-1.6-.5-.2-1.2-.3-2-.3h-3.2v3.8zm6.5 5c0-.9-.4-1.5-1.1-1.8-.4-.2-1-.3-1.7-.3h-3.7v4.6h3.6c.7 0 1.3-.1 1.7-.3.8-.5 1.2-1.2 1.2-2.2zm17-2.8c.1.6.1 1.4.1 2.4h-9c0 1.2.5 2.1 1.3 2.6.5.3 1.1.5 1.8.5s1.3-.2 1.8-.6c.3-.2.5-.5.7-.8h3.3c-.1.7-.5 1.5-1.2 2.2-1.1 1.2-2.7 1.8-4.6 1.8-1.6 0-3.1-.5-4.3-1.5-1.3-1-1.9-2.7-1.9-4.9 0-2.1.6-3.8 1.7-4.9 1.1-1.1 2.6-1.7 4.4-1.7 1.1 0 2 .2 2.9.6.9.4 1.6 1 2.1 1.8.5.7.8 1.5.9 2.5zm-3.2.3c-.1-.9-.3-1.5-.9-1.9-.5-.4-1.1-.7-1.9-.7-.8 0-1.5.2-1.9.7-.5.5-.7 1.1-.9 1.9h5.6z"/><path id="XMLID_8_" class="st0" d="M93.3 27.3c-.5.2-.9.4-1.4.5.5-.5.9-1.2 1.2-1.9.1-.2-.2-.4-.3-.3-.7.4-1.4.7-2.2.9h-.1c-.1 0-.3-.1-.4-.1-.8-.7-1.9-1.1-3-1.1-.5 0-.9.1-1.4.2-1.4.4-2.6 1.6-2.9 3.1-.1.6-.2 1.1-.1 1.6v.1l-.1.1c-3.2-.3-6-1.8-8-4.3-.1-.1-.3-.1-.4 0-.4.7-.6 1.5-.6 2.2 0 1.2.5 2.3 1.3 3.2-.4-.1-.7-.2-1-.4-.2-.1-.3 0-.3.2 0 1.8 1 3.4 2.6 4.1h-.1c-.2 0-.5 0-.8-.1-.2 0-.3.1-.3.3.5 1.6 1.9 2.8 3.5 3-1.4.9-3 1.4-4.6 1.4h-.5c-.2 0-.3.1-.3.3 0 .2 0 .3.2.4 1.9 1.1 4 1.7 6.2 1.7 1.9 0 3.7-.4 5.3-1.1 1.5-.7 2.8-1.6 3.8-2.9 1-1.1 1.8-2.5 2.4-3.9.5-1.4.8-2.9.8-4.3v-.1c0-.2.1-.4.3-.6.7-.6 1.3-1.2 1.8-1.9-.1-.1-.3-.4-.6-.3z"/><ellipse id="XMLID_36_" class="st0" cx="9.5" cy="9.5" rx="8.5" ry="8.6"/><path id="XMLID_35_" class="st0" d="M5.1 2.2s7.4 6.4 6.5 15.9"/><path id="XMLID_34_" class="st0" d="M4.4 16.4s3.5-7.5 13.7-6.9"/><path id="XMLID_33_" class="st0" d="M1 8.9s8.6.9 14.6-5.4"/><path id="XMLID_37_" class="st0" d="M-32.7 34.1h-11.6c-1.5 0-2.7-1.2-2.7-2.7V19.7c0-1.5 1.2-2.7 2.7-2.7h11.6c1.5 0 2.7 1.2 2.7 2.7v11.7c0 1.5-1.2 2.7-2.7 2.7z"/><path id="XMLID_32_" class="st0" d="M-36.8 29.3h-3.3c-1.2 0-2.1-.9-2.1-2.1v-3.4c0-1.2.9-2.1 2.1-2.1h3.3c1.2 0 2.1.9 2.1 2.1v3.4c-.1 1.1-1 2.1-2.1 2.1z"/><path id="XMLID_31_" class="st0" d="M-36.8 29.3h-3.3c-1.2 0-2.1-.9-2.1-2.1v-3.4c0-1.2.9-2.1 2.1-2.1h3.3c1.2 0 2.1.9 2.1 2.1v3.4c-.1 1.1-1 2.1-2.1 2.1z"/><ellipse id="XMLID_30_" class="st0" cx="-33.2" cy="20.3" rx=".8" ry=".8"/></svg>