<svg xmlns="http://www.w3.org/2000/svg" viewBox="0 0 70 70"><defs><style>.cls-1{fill:none;}.cls-2{fill:#e91e46;}</style></defs><title>Asset 3</title><g id="Layer_2" data-name="Layer 2"><g id="Layer_1-2" data-name="Layer 1"><rect class="cls-1" width="70" height="70"/><path class="cls-2" d="M26.84,57.64A15.41,15.41,0,0,1,25.3,53.7c-.9-3.69-.79-6.68.59-11.15s3.93-9.86,6.19-15.28c2.81-6.73,5-12.83,5.33-16.25a12.48,12.48,0,0,0-1.35-6.68,8.86,8.86,0,0,0-1-1.64,7.91,7.91,0,0,0-.87-.92,17,17,0,0,1-.9,7.15c-1.4,3.73-3.8,8.29-7.73,15.85C21.3,33,17,40.27,17,50.21a17.88,17.88,0,0,0,18,18,18.82,18.82,0,0,0,9.34-2.29h0C43.48,66,31.89,66.52,26.84,57.64Z"/><path class="cls-2" d="M51.85,44C50,40.1,46.2,37.78,43.68,36.27a3.73,3.73,0,0,1-2-3.17l-1,2.86a5.91,5.91,0,0,0,2.55,7.2l.42.29a6.21,6.21,0,0,1,2.43,3.23,4.46,4.46,0,0,1,.23,1.44,5.61,5.61,0,1,1-11.21,0A11.13,11.13,0,0,1,35.25,47c.88-4.56,5.39-13.31,6.78-19,1.48-6.06-2.58-11.88-2.58-11.88s1,2.16-4.92,15.36c-2.73,6.13-4.41,10.06-5.29,12.48a15.07,15.07,0,0,0-.91,5.37,12.33,12.33,0,1,0,24.66,0A11.79,11.79,0,0,0,51.85,44Z"/></g></g></svg>