<svg id="Layer_1" xmlns="http://www.w3.org/2000/svg" viewBox="0 0 177.6 68.3"><style>.st0{fill:#6d6e71}.st1{opacity:.5;fill:none}.st2{fill-rule:evenodd;clip-rule:evenodd;fill:#6d6e71}.st3{fill:none;stroke:#6d6e71;stroke-width:3.74;stroke-miterlimit:10}.st4{fill:url(#XMLID_4_)}.st5{fill-rule:evenodd;clip-rule:evenodd;fill:#057db7}.st6{fill:none;stroke:#057db7;stroke-width:3.74;stroke-miterlimit:10}.st7{fill:#7ac4ea}.st8{fill:#0a6093}</style><path id="XMLID_8469_" class="st0" d="M92.7-123.7c2.2 2.2 2.2 5.8 0 8.1-1.1 1.1-2.6 1.7-4.1 1.7h-2.2c-1 0-2.2.6-2.8 1.2-.6.6-1.2 1.6-1.2 2.8v1.6c.2 1.6-.4 3.3-1.6 4.6-2.2 2.2-5.8 2.2-8.1 0s-2.2-5.8 0-8.1c1.3-1.3 2.9-1.8 4.6-1.6H79c1.2 0 2.2-.6 2.8-1.2.6-.6 1.2-1.7 1.2-2.8v-2.2c0-1.5.5-3 1.7-4.1 2.2-2.2 5.8-2.2 8 0zm-22.1 1.8c0-1.2.7-2.2 1.2-2.8.6-.6 1.7-1.2 2.8-1.2h1.5c1.7.2 3.4-.3 4.7-1.6 2.2-2.2 2.2-5.8 0-8.1-1.1-1.1-2.6-1.7-4.1-1.7h-2.1c-1.1 0-2.2-.6-2.8-1.2-.6-.6-1.2-1.6-1.2-2.8v-1.6c.2-1.6-.4-3.3-1.6-4.6-2.2-2.2-5.8-2.2-8.1 0-2.2 2.2-2.2 5.8 0 8.1 1.3 1.3 2.9 1.8 4.6 1.6h1.6c1.2 0 2.2.7 2.8 1.2.6.6 1.2 1.7 1.2 2.8v4.4c0 1.1-.6 2.2-1.2 2.8-.6.6-1.6 1.2-2.8 1.2h-2.2c-1.5 0-2.9.6-4 1.7-2.2 2.2-2.2 5.8 0 8.1 2.2 2.2 5.8 2.2 8.1 0 1.2-1.2 1.7-2.9 1.6-4.4v-1.9zm41.8-3.5h-2.2c-1.1 0-2.2-.6-2.8-1.2-.6-.6-1.2-1.6-1.2-2.8v-4.3c0-1.2.7-2.2 1.2-2.8.6-.6 1.7-1.2 2.8-1.2h2.2c1.5 0 2.9-.5 4.1-1.7 2.2-2.2 2.2-5.8 0-8.1-2.2-2.2-5.8-2.2-8.1 0-1.1 1.1-1.7 2.6-1.7 4.1v2.2c0 1.1-.6 2.2-1.2 2.8-.6.6-1.6 1.2-2.8 1.2h-1.5c-1.7-.2-3.4.3-4.6 1.6-2.2 2.2-2.2 5.8 0 8.1 1.3 1.3 3 1.8 4.7 1.6h1.5c1.2 0 2.2.7 2.8 1.2.6.6 1.2 1.7 1.2 2.8v2.1c0 1.5.5 3 1.7 4.2 2.2 2.2 5.8 2.2 8.1 0 2.2-2.2 2.2-5.8 0-8.1-1.3-1.1-2.8-1.7-4.2-1.7zm-15.9 13.6c-2.2 2.2-2.2 5.8 0 8.1 2.2 2.2 5.8 2.2 8.1 0 2.2-2.2 2.2-5.8 0-8.1-2.3-2.3-5.9-2.3-8.1 0zm-15.7-39.4c2.2-2.2 2.2-5.8 0-8.1-2.2-2.2-5.8-2.2-8.1 0-2.2 2.2-2.2 5.8 0 8.1 2.3 2.2 5.9 2.2 8.1 0zm11.9 11.8c1.3-1.3 1.8-3 1.6-4.6v-1.6c0-1.2.7-2.2 1.2-2.8.6-.6 1.7-1.2 2.8-1.2h2.1c1.5 0 3-.5 4.2-1.7 2.2-2.2 2.2-5.8 0-8.1-2.2-2.2-5.8-2.2-8.1 0-1.1 1.1-1.7 2.6-1.7 4v2.2c0 1.1-.6 2.2-1.2 2.8-.6.6-1.6 1.2-2.8 1.2H89c-1.6-.1-3.2.4-4.4 1.6-2.2 2.2-2.2 5.8 0 8.1s5.8 2.3 8.1.1z"/><path id="XMLID_8468_" class="st1" d="M-.1-165.7h177.6v68.3H-.1z"/><path id="XMLID_8467_" class="st1" d="M237-165.7h177.6v68.3H237z"/><path class="st2" d="M346-138.2h-4.9v13.5h9.3v-4.3H346v-9.2zm-10.3 9.2v-9.2h-4.9v4.7l-7 4.4-1.4-.8 7-4.4-3.1-2-7 4.4-1.2-.8 7-4.4-3.1-2-7.9 5c-1.1-2.9-4-4.1-7.5-4.1H301v13.6h6.6c3.1 0 5.5-1.6 6.4-4.2l7.9 5 8.8-5.5v4.8h9.3v-4.4h-4.3v-.1zm-29.2.3h-.7v-5.3h.7c1.8 0 2.9.8 2.9 2.7 0 1.8-1.2 2.6-2.9 2.6z"/><circle class="st3" cx="325.8" cy="-131.5" r="31"/><path id="XMLID_8466_" class="st1" d="M483-165.7h177.6v68.3H483z"/><g id="XMLID_8079_"><path class="st0" d="M558-148l-.7-2.6-7.1 1.2c-.6 1.6-1 3.2-1.2 4.9l9-3.5z" id="XMLID_669_"/><path class="st0" d="M566.7-150.5l-5.6 2.2.9 4.8 5.1-1.8z" id="XMLID_668_"/><path class="st0" d="M557.1-151.3l-1.7-6.1c-2 2.1-3.6 4.5-4.8 7.2l6.5-1.1z" id="XMLID_667_"/><path class="st0" d="M555.6-134.7l5.1-1-.7-4.8-5 1.7z" id="XMLID_666_"/><path class="st0" d="M554.1-145.6l.8 5.9 4.9-1.6-.1-1.3 1.6-.6-1-4.8z" id="XMLID_665_"/><path class="st0" d="M566.8-158.9l9.5-4.9c-1.4-.3-2.9-.4-4.4-.4-1.9 0-3.7.2-5.5.7l.4 4.6z" id="XMLID_664_"/><path class="st0" d="M555.8-126.9l-.9-6.9-5.1 1c.4 2.2 1.1 4.7 2 7.4l4.4-1.6-.4.1z" id="XMLID_663_"/><path class="st0" d="M587.1-158.5l-1.7.7 1.9 5.2 3.7-1.4c-1.1-1.7-2.4-3.2-3.9-4.5z" id="XMLID_662_"/><g id="XMLID_643_"><path class="st0" d="M590.6-147.8l-3.3.6-1.9 4 4.8.8z" id="XMLID_661_"/><path class="st0" d="M584.2-142.6l-3.7-.7-2.1 5 3.8-.4z" id="XMLID_660_"/><path class="st0" d="M587.4-149.2l-5.4 2 3.5 2 1.3-2.7z" id="XMLID_659_"/><path class="st0" d="M576.2-138.2l1.2-.1 2.3-5.1-2.5-.4z" id="XMLID_658_"/><path class="st0" d="M589.9-138.4l-7.5 1.1-1.3 2.7 6.4-.8-.3.8 2.5-.5z" id="XMLID_657_"/><path class="st0" d="M592.9-137.5l1.7.7c.1-.6.1-1.1.2-1.7.1-.5.1-1.1.1-1.6l-2 2.6z" id="XMLID_656_"/><path class="st0" d="M589.2-128.8l-3.4 2v-.1l.2 4.6 2.7.1z" id="XMLID_655_"/><path class="st0" d="M586.8-133.7l-1.3 3.1h.1l.1 3 3.6-2.2.3-4.5z" id="XMLID_654_"/><path class="st0" d="M590.1-141.5l-5.1-1-2.1 4.3 7.1-1.1z" id="XMLID_653_"/><path class="st0" d="M584.8-128.9l-2.7 6.6h3z" id="XMLID_652_"/><path class="st0" d="M581.8-137.8l-5.7.5-.6 3.4 4.6-.6z" id="XMLID_651_"/><path class="st0" d="M584.5-143.4l.6-1.1-4.2-2.3-3.4 1.2-.1.9z" id="XMLID_650_"/><path class="st0" d="M589.9-126.7l-.3 4.5h1.1c.6-1.4 1.2-2.9 1.7-4.5h-2.5z" id="XMLID_649_"/><path class="st0" d="M590.7-137.6l-.2 2.6.1.5h-.1l-.2 2.6 3.7-1.1c.2-1 .4-2 .5-3l-3.8-1.6z" id="XMLID_648_"/><path class="st0" d="M593.7-132.1l-3.6 1-.3 3.5h2.6c.6-1.4 1-2.9 1.3-4.5z" id="XMLID_647_"/><path class="st0" d="M587.8-148.1l5.6-1.2c-.2-.6-.5-1.2-.8-1.8l-4.2 1.5-.6 1.5z" id="XMLID_646_"/><path class="st0" d="M590.7-138.4l1.4.6 2.8-3.7c0-.9-.1-1.9-.2-2.8l-3.5.3-.5 5.6z" id="XMLID_645_"/><path class="st0" d="M591.4-148l-.2 3.1 3.3-.3c-.2-1.1-.5-2.2-.8-3.3l-2.3.5z" id="XMLID_644_"/></g><g id="XMLID_640_"><path class="st0" d="M554-140.3l-.7-4.9-4.5 1.8c-.1.7-.1 1.5-.1 2.2v.5l5.3.4z" id="XMLID_642_"/><path class="st0" d="M554.1-139.5l-5.3-.5v.1c.1 1.3.3 3.5.8 6.3l5.2-1-.7-4.9z" id="XMLID_641_"/></g><g id="XMLID_637_"><path class="st0" d="M560.3-134.8l-4.6.9.8 6.4z" id="XMLID_639_"/><path class="st0" d="M561.7-128.9l-.8-5.3-3.5 6.8z" id="XMLID_638_"/></g><g id="XMLID_634_"><path class="st0" d="M562.2-158.2l3.5-3-.2-2.2c-1.7.5-3.3 1.2-4.8 2l1.5 3.2z" id="XMLID_636_"/><path class="st0" d="M560-161c-1.4.9-2.8 1.9-4 3l1.2 4.1 4.4-3.8-1.6-3.3z" id="XMLID_635_"/></g><g id="XMLID_631_"><path class="st0" d="M582.5-161.7l-4.6 2.5 3.6 2 4.8-1.9c-1.1-1-2.4-1.9-3.8-2.6z" id="XMLID_633_"/><path class="st0" d="M581.6-162.1c-1.3-.6-2.7-1.1-4.1-1.5l-3.9 2 3.5 1.9 4.5-2.4z" id="XMLID_632_"/></g><g id="XMLID_628_"><path class="st0" d="M571-153.1l9.6-3.7-7.9-4.3-1.2.6z" id="XMLID_630_"/><path class="st0" d="M570.6-160l-3.8 1.9.6 6.4 2.6-1z" id="XMLID_629_"/></g><g id="XMLID_600_"><path class="st0" d="M568.6-108.8l.4-5.2-3.4-.1-.6 4.5z" id="XMLID_627_"/><path class="st0" d="M565.7-114.9l5.3.2.9-4.4-5.5-.1z" id="XMLID_626_"/><path class="st0" d="M557.4-115.3l7.5.3.3-1.6-6.3-1.6z" id="XMLID_625_"/><path class="st0" d="M564.8-114.2l-3.2-.1-.7 2.3 3.5.6z" id="XMLID_624_"/><path class="st0" d="M571-107.5l-6.2-1.3-.3 2.3 5.5 1.7z" id="XMLID_623_"/><path class="st0" d="M556.5-115.3l1.6-3.1-3.8-.9c.6 1.3 1.4 2.6 2.2 4z" id="XMLID_622_"/><path class="st0" d="M572.7-105l.8-1.9-1.7-.4-.5 1.5z" id="XMLID_621_"/><path class="st0" d="M560.3-109.7c1 1.3 2.1 2.6 3.3 3.9l.7-4.8-3.6-.7-.4 1.6z" id="XMLID_620_"/><path class="st0" d="M577.6-119.1l4.4 2.6 3.4-2.5z" id="XMLID_619_"/><path class="st0" d="M569.8-114l-.3 5.4 3.2.7-.1-6z" id="XMLID_618_"/><path class="st0" d="M571-105l-1.6 4.5-.4-.1c.2.2.4.4.7.5l4.2-3.3-2.9-1.6z" id="XMLID_617_"/><path class="st0" d="M584.2-114.3l-4.3-2.6-1.2 2.4z" id="XMLID_616_"/><path class="st0" d="M571.8-114.7l6 .2 1.4-2.8-3-1.8h-3.5z" id="XMLID_615_"/><path class="st0" d="M560.7-114.3l-3.7-.1c.8 1.3 1.7 2.6 2.7 3.9l1-3.8z" id="XMLID_614_"/><path class="st0" d="M558.4-119.2l3.2-6.2-8.6 3.1c.3.7.6 1.3.9 2l4.5 1.1z" id="XMLID_613_"/><path class="st0" d="M559.3-119l6 1.5.2-1.7h-2.4l-.8-5.7z" id="XMLID_611_"/><path class="st0" d="M586.7-119l-4 3 3 1.8h.6c.9-1.5 1.9-3.1 2.7-4.7l-2.3-.1z" id="XMLID_610_"/><path class="st0" d="M569.8-104l-5.4-1.6-.1.6c1.3 1.4 2.8 2.8 4.4 4.1l1.1-3.1z" id="XMLID_609_"/><path class="st0" d="M578.2-105.9l-2.9 2.3 1.6.8c.9-.8 1.8-1.8 2.8-2.8l-1.5-.3z" id="XMLID_608_"/><path class="st0" d="M578.3-108.8l-2.8-5h-2.1l.1 6.1 4 .8z" id="XMLID_607_"/><path class="st0" d="M574.3-106.7l-.9 2.1 1.2.6 2.6-2.1z" id="XMLID_606_"/><path class="st0" d="M571.5-100.6l-1.2 1c.4.3.7.6 1.1.9l.1-1.9z" id="XMLID_605_"/><path class="st0" d="M576.3-102.2l-1.6-.9-2.4 1.9h.1l-.1 2.3c.7-.5 2.1-1.6 4-3.3z" id="XMLID_604_"/><path class="st0" d="M581-113.6l-.8 2 2.6 2.4c1-1.3 2.1-2.7 3.1-4.2l-4.9-.2z" id="XMLID_603_"/><path class="st0" d="M582.2-108.5l-2.4-2.3-1.6 4 2 .4c.8-.6 1.4-1.3 2-2.1z" id="XMLID_602_"/><path class="st0" d="M580.1-113.6l-3.6-.1 2.1 3.9z" id="XMLID_601_"/></g><g id="XMLID_597_"><path class="st0" d="M581.3-150.4l5.2-2-1.9-5.1-4.5 1.7z" id="XMLID_599_"/><path class="st0" d="M579.3-155.5l-4.2 1.7 3.7 4.2 1.7-.6z" id="XMLID_598_"/></g><g id="XMLID_594_"><path class="st0" d="M576-148.5l2-.8-3.7-4.2-4.3 1.7z" id="XMLID_596_"/><path class="st0" d="M569.1-151.4l-1.6.6.4 5.2 7.1-2.6z" id="XMLID_595_"/></g><g id="XMLID_591_"><path class="st0" d="M564.2-150.4l-4-5-2.7 2.3h-.1l1.4 4.8 1.3-.5v-.1l.5-.1z" id="XMLID_593_"/><path class="st0" d="M565-150.7l1.6-.7-.8-8.8-5 4.3z" id="XMLID_592_"/></g></g><path id="XMLID_8077_" class="st0" d="M562.4-140.4l2.7 17.9 12.5.1 3.6-8.7-10.3 1.1 1.9-14.2z"/><linearGradient id="XMLID_4_" gradientUnits="userSpaceOnUse" x1="68.081" y1="54.85" x2="109.147" y2="13.784"><stop offset="0" stop-color="#f05a44"/><stop offset="1" stop-color="#613e97"/></linearGradient><path id="XMLID_5189_" class="st4" d="M92.8 42c2.2 2.2 2.2 5.8 0 8.1-1.1 1.1-2.6 1.7-4.1 1.7h-2.2c-1 0-2.2.6-2.8 1.2-.6.6-1.2 1.6-1.2 2.8v1.6c.2 1.6-.4 3.3-1.6 4.6-2.2 2.2-5.8 2.2-8.1 0s-2.2-5.8 0-8.1c1.3-1.3 2.9-1.8 4.6-1.6H79c1.2 0 2.2-.6 2.8-1.2.6-.6 1.2-1.7 1.2-2.8v-2.2c0-1.5.5-3 1.7-4.1 2.3-2.3 5.9-2.3 8.1 0zm-22.1 1.8c0-1.2.7-2.2 1.2-2.8.6-.6 1.7-1.2 2.8-1.2h1.5c1.7.2 3.4-.3 4.7-1.6 2.2-2.2 2.2-5.8 0-8.1-1.1-1.1-2.6-1.7-4.1-1.7h-2.1c-1.1 0-2.2-.6-2.8-1.2-.6-.6-1.2-1.6-1.2-2.8v-1.6c.2-1.6-.4-3.3-1.6-4.6-2.2-2.2-5.8-2.2-8.1 0-2.2 2.2-2.2 5.8 0 8.1 1.3 1.3 2.9 1.8 4.6 1.6h1.6c1.2 0 2.2.7 2.8 1.2.6.6 1.2 1.7 1.2 2.8v4.4c0 1.1-.6 2.2-1.2 2.8-.6.6-1.6 1.2-2.8 1.2H65c-1.5 0-2.9.6-4 1.7-2.2 2.2-2.2 5.8 0 8.1 2.2 2.2 5.8 2.2 8.1 0 1.2-1.2 1.7-2.9 1.6-4.4v-1.9zm41.8-3.5h-2.2c-1.1 0-2.2-.6-2.8-1.2-.6-.6-1.2-1.6-1.2-2.8V32c0-1.2.7-2.2 1.2-2.8.6-.6 1.7-1.2 2.8-1.2h2.2c1.5 0 2.9-.5 4.1-1.7 2.2-2.2 2.2-5.8 0-8.1-2.2-2.2-5.8-2.2-8.1 0-1.1 1.1-1.7 2.6-1.7 4.1v2.2c0 1.1-.6 2.2-1.2 2.8-.6.6-1.6 1.2-2.8 1.2h-1.5c-1.7-.2-3.4.3-4.6 1.6-2.2 2.2-2.2 5.8 0 8.1 1.3 1.3 3 1.8 4.7 1.6h1.5c1.2 0 2.2.7 2.8 1.2.6.6 1.2 1.7 1.2 2.8v2.1c0 1.5.5 3 1.7 4.2 2.2 2.2 5.8 2.2 8.1 0 2.2-2.2 2.2-5.8 0-8.1-1.3-1.2-2.7-1.7-4.2-1.7zM96.6 53.9c-2.2 2.2-2.2 5.8 0 8.1 2.2 2.2 5.8 2.2 8.1 0 2.2-2.2 2.2-5.8 0-8.1s-5.9-2.3-8.1 0zM80.9 14.4c2.2-2.2 2.2-5.8 0-8.1-2.2-2.2-5.8-2.2-8.1 0s-2.2 5.8 0 8.1c2.3 2.3 5.9 2.3 8.1 0zm11.9 11.9c1.3-1.3 1.8-3 1.6-4.6v-1.6c0-1.2.7-2.2 1.2-2.8.6-.6 1.7-1.2 2.8-1.2h2.1c1.5 0 3-.5 4.2-1.7 2.2-2.2 2.2-5.8 0-8.1-2.2-2.2-5.8-2.2-8.1 0-1.1 1.1-1.7 2.6-1.7 4v2.2c0 1.1-.6 2.2-1.2 2.8-.6.6-1.6 1.2-2.8 1.2h-1.8c-1.6-.1-3.2.4-4.4 1.6-2.2 2.2-2.2 5.8 0 8.1 2.3 2.3 5.9 2.3 8.1.1z"/><path id="XMLID_5188_" class="st1" d="M0 0h177.6v68.3H0z"/><path id="XMLID_5184_" class="st1" d="M237.2 0h177.6v68.3H237.2z"/><path class="st5" d="M346.2 27.4h-5V41h9.3v-4.3h-4.3v-9.3zm-10.4 9.3v-9.2h-4.9v4.7l-7 4.4-1.4-.8 7-4.4-3.1-2-7 4.4-1.2-.8 7-4.4-3.1-2-7.9 5c-1.1-2.9-4-4.1-7.5-4.1h-5.4V41h6.6c3.1 0 5.5-1.6 6.4-4.2l7.9 5 8.8-5.5v4.8h9.3v-4.4h-4.5zm-29.1.2h-.7v-5.3h.7c1.8 0 2.9.8 2.9 2.7 0 1.9-1.3 2.6-2.9 2.6z"/><circle class="st6" cx="325.9" cy="34.2" r="31"/><path id="XMLID_5181_" class="st1" d="M482.2 0h177.6v68.3H482.2z"/><g id="XMLID_678_"><path class="st7" d="M557.1 17.7l-.7-2.6-7.1 1.2c-.6 1.6-1 3.2-1.2 4.9l9-3.5z" id="XMLID_753_"/><path class="st7" d="M565.8 15.2l-5.6 2.2 1 4.8 5.1-1.8z" id="XMLID_752_"/><path class="st7" d="M556.2 14.4l-1.7-6.1c-2 2.1-3.6 4.5-4.8 7.2l6.5-1.1z" id="XMLID_751_"/><path class="st7" d="M554.7 30.9l5.1-.9-.7-4.8-4.9 1.6z" id="XMLID_750_"/><path class="st7" d="M553.3 20.1l.8 5.9 4.9-1.7-.2-1.2 1.6-.6-1-4.8z" id="XMLID_748_"/><path class="st7" d="M565.9 6.7l9.5-4.9c-1.4-.3-2.9-.4-4.4-.4-1.9 0-3.7.2-5.5.7l.4 4.6z" id="XMLID_747_"/><path class="st7" d="M554.9 38.8l-.9-6.9-5.1 1c.4 2.2 1.1 4.7 2 7.4l4.4-1.6-.4.1z" id="XMLID_746_"/><path class="st7" d="M586.2 7.2l-1.7.7 1.9 5.2 3.7-1.4c-1-1.7-2.4-3.2-3.9-4.5z" id="XMLID_745_"/><g id="XMLID_726_"><path class="st7" d="M589.7 17.9l-3.2.6-2 4 4.8.8z" id="XMLID_744_"/><path class="st7" d="M583.3 23.1l-3.7-.7-2.1 4.9 3.8-.3z" id="XMLID_743_"/><path class="st7" d="M586.5 16.5l-5.4 2 3.5 2 1.3-2.7z" id="XMLID_742_"/><path class="st7" d="M575.4 27.5l1.2-.1 2.2-5.1-2.4-.5z" id="XMLID_741_"/><path class="st7" d="M589 27.2l-7.4 1.2-1.4 2.7 6.5-.9-.4.9 2.5-.5z" id="XMLID_740_"/><path class="st7" d="M592 28.2l1.7.7c.1-.6.1-1.1.2-1.7.1-.5.1-1.1.1-1.6l-2 2.6z" id="XMLID_739_"/><path class="st7" d="M588.3 36.9l-3.3 2-.1-.1.2 4.6h2.7z" id="XMLID_738_"/><path class="st7" d="M585.9 32l-1.2 3 .2 3 3.5-2.1.3-4.5z" id="XMLID_737_"/><path class="st7" d="M589.3 24.1l-5.2-.9-2.1 4.3 7.1-1.1z" id="XMLID_736_"/><path class="st7" d="M584 36.7l-2.7 6.7h3z" id="XMLID_735_"/><path class="st7" d="M580.9 27.9l-5.7.5-.6 3.4 4.7-.6z" id="XMLID_734_"/><path class="st7" d="M583.7 22.3l.5-1.1-4.1-2.3-3.4 1.2-.2.9z" id="XMLID_733_"/><path class="st7" d="M589 39l-.3 4.5h1.1c.6-1.4 1.2-2.9 1.7-4.5H589z" id="XMLID_732_"/><path class="st7" d="M589.8 28.1l-.2 2.6.1.5h-.1l-.2 2.6 3.7-1.1c.2-1 .4-2 .5-3l-3.8-1.6z" id="XMLID_731_"/><path class="st7" d="M592.9 33.6l-3.6 1-.3 3.5h2.6c.5-1.4.9-2.9 1.3-4.5z" id="XMLID_730_"/><path class="st7" d="M586.9 17.6l5.6-1.2c-.2-.6-.5-1.2-.8-1.8l-4.2 1.5-.6 1.5z" id="XMLID_729_"/><path class="st7" d="M589.9 27.3l1.4.6 2.8-3.7c0-.9-.1-1.9-.2-2.8l-3.5.3-.5 5.6z" id="XMLID_728_"/><path class="st7" d="M590.6 17.7l-.2 3.1 3.3-.3c-.2-1.1-.5-2.2-.8-3.3l-2.3.5z" id="XMLID_727_"/></g><g id="XMLID_723_"><path class="st7" d="M553.1 25.4l-.7-4.9-4.5 1.8c-.1.7-.1 1.5-.1 2.2v.5l5.3.4z" id="XMLID_725_"/><path class="st7" d="M553.3 26.2l-5.3-.5v.1c.1 1.3.3 3.5.8 6.3l5.2-1-.7-4.9z" id="XMLID_724_"/></g><g id="XMLID_720_"><path class="st7" d="M559.4 30.9l-4.6.9.9 6.4z" id="XMLID_722_"/><path class="st7" d="M560.8 36.8l-.8-5.3-3.5 6.8z" id="XMLID_721_"/></g><g id="XMLID_717_"><path class="st7" d="M561.4 7.4l3.5-3-.2-2.2c-1.7.5-3.3 1.2-4.8 2l1.5 3.2z" id="XMLID_719_"/><path class="st7" d="M559.1 4.6c-1.4.9-2.8 1.9-4 3l1.2 4.1 4.4-3.8-1.6-3.3z" id="XMLID_718_"/></g><g id="XMLID_714_"><path class="st7" d="M581.6 4L577 6.5l3.6 2 4.8-1.9c-1.1-1-2.4-1.9-3.8-2.6z" id="XMLID_716_"/><path class="st7" d="M580.7 3.5c-1.3-.6-2.7-1.1-4.1-1.5l-3.9 2 3.5 1.9 4.5-2.4z" id="XMLID_715_"/></g><g id="XMLID_711_"><path class="st7" d="M570.1 12.6l9.6-3.7-7.8-4.3-1.3.6z" id="XMLID_713_"/><path class="st7" d="M569.7 5.7L566 7.6l.5 6.4 2.7-1z" id="XMLID_712_"/></g><g id="XMLID_683_"><path class="st7" d="M567.8 56.9l.3-5.2-3.3-.1-.7 4.5z" id="XMLID_710_"/><path class="st7" d="M564.9 50.7l5.2.2.9-4.3-5.5-.1z" id="XMLID_709_"/><path class="st7" d="M556.5 50.4l7.6.3.2-1.7-6.3-1.5z" id="XMLID_708_"/><path class="st7" d="M563.9 51.5l-3.2-.1-.6 2.2 3.4.7z" id="XMLID_707_"/><path class="st7" d="M570.1 58.2l-6.1-1.3-.4 2.3 5.6 1.7z" id="XMLID_706_"/><path class="st7" d="M555.6 50.4l1.6-3.1-3.8-.9c.7 1.3 1.4 2.6 2.2 4z" id="XMLID_705_"/><path class="st7" d="M571.8 60.7l.9-1.9-1.8-.4-.5 1.5z" id="XMLID_704_"/><path class="st7" d="M559.4 56c1 1.3 2.1 2.6 3.3 3.9l.7-4.8-3.6-.7-.4 1.6z" id="XMLID_703_"/><path class="st7" d="M576.8 46.6l4.3 2.6 3.4-2.5z" id="XMLID_702_"/><path class="st7" d="M568.9 51.7l-.3 5.4 3.2.7-.1-6z" id="XMLID_701_"/><path class="st7" d="M570.1 60.7l-1.6 4.5-.4-.1c.2.2.4.4.7.5l4.2-3.3-2.9-1.6z" id="XMLID_700_"/><path class="st7" d="M583.4 51.4l-4.4-2.6-1.1 2.4z" id="XMLID_699_"/><path class="st7" d="M571 51l6 .2 1.3-2.8-3-1.8h-3.4z" id="XMLID_698_"/><path class="st7" d="M559.8 51.4l-3.7-.1c.8 1.3 1.7 2.6 2.7 3.9l1-3.8z" id="XMLID_697_"/><path class="st7" d="M557.6 46.5l3.2-6.2-8.6 3.1c.3.7.6 1.3.9 2l4.5 1.1z" id="XMLID_696_"/><path class="st7" d="M558.4 46.7l6 1.5.3-1.7-2.5-.1-.8-5.6z" id="XMLID_694_"/><path class="st7" d="M585.9 46.7l-4 3 3 1.8h.6c.9-1.5 1.9-3.1 2.7-4.7l-2.3-.1z" id="XMLID_693_"/><path class="st7" d="M568.9 61.7l-5.4-1.6-.1.6c1.3 1.4 2.8 2.8 4.4 4.1l1.1-3.1z" id="XMLID_692_"/><path class="st7" d="M577.4 59.8l-2.9 2.3 1.6.8c.9-.8 1.8-1.8 2.8-2.8l-1.5-.3z" id="XMLID_691_"/><path class="st7" d="M577.4 56.9l-2.8-5-2.1-.1.1 6.1 4.1.9z" id="XMLID_690_"/><path class="st7" d="M573.5 59l-.9 2.1 1.1.6 2.6-2.1z" id="XMLID_689_"/><path class="st7" d="M570.7 65.1l-1.2 1c.4.3.7.6 1.1.9l.1-1.9z" id="XMLID_688_"/><path class="st7" d="M575.4 63.5l-1.6-.9-2.4 1.9h.1l-.1 2.3c.7-.5 2.2-1.6 4-3.3z" id="XMLID_687_"/><path class="st7" d="M580.1 52.1l-.8 2 2.6 2.4c1-1.3 2.1-2.7 3.1-4.2l-4.9-.2z" id="XMLID_686_"/><path class="st7" d="M581.4 57.2l-2.4-2.3-1.6 4 2 .4c.7-.6 1.3-1.3 2-2.1z" id="XMLID_685_"/><path class="st7" d="M579.2 52.1l-3.6-.1 2.2 3.9z" id="XMLID_684_"/></g><g id="XMLID_680_"><path class="st7" d="M580.4 15.2l5.2-1.9-1.9-5.1-4.5 1.7z" id="XMLID_682_"/><path class="st7" d="M578.5 10.2l-4.2 1.7 3.7 4.2 1.6-.6z" id="XMLID_681_"/></g><g id="XMLID_676_"><path class="st7" d="M575.1 17.1l2-.7-3.6-4.2-4.3 1.7z" id="XMLID_679_"/><path class="st7" d="M568.2 14.2l-1.6.7.5 5.2 7-2.6z" id="XMLID_677_"/></g><g id="XMLID_673_"><path class="st7" d="M563.3 15.3l-4-5-2.7 2.3-.1-.1 1.4 4.9 1.4-.5-.1-.1.5-.1z" id="XMLID_675_"/><path class="st7" d="M564.1 15l1.6-.7-.7-8.9-5.1 4.4z" id="XMLID_674_"/></g></g><path id="XMLID_1_" class="st8" d="M561.6 25.3l2.6 17.9 12.5.1 3.6-8.7-10.3 1 2-14.1z"/></svg>