<svg id="Layer_1" xmlns="http://www.w3.org/2000/svg" viewBox="0 0 210 209.4"><style>.st0{fill:#fff0cd}.st1{fill:#ffffe6}.st2{fill:none;stroke:#f49782;stroke-width:3;stroke-linecap:round;stroke-linejoin:round;stroke-miterlimit:10}.st3{fill:#f49782}</style><g id="XMLID_1726_"><path id="XMLID_2264_" class="st0" d="M131 175c-.3 8.8-6.8 12.7-13.1 15.8-6.5 3.2-13.3 5.5-13.6 14.4.3-8.5-6.5-11.9-12.6-15.6-5.7-3.5-11.7-7-11.7-15.1 0-.4-.3-1.3 0-1.2 23.7 11.2 51 1.7 51 1.7z"/><path id="XMLID_2262_" class="st0" d="M82.1 32.7c-.4.1 0-.8 0-1.2.6-8 6.8-11.1 12.8-14.2 6.3-3.2 13.3-6.2 13.7-14.7-.3 8.8 6.3 11.7 12.6 15.3 6.1 3.5 12.3 7.9 12 16.7-.1.1-26.7-11.2-51.1-1.9z"/><path id="XMLID_2217_" class="st0" d="M134.6 35.8c-.4-.2.6-.5.9-.8 6.1-5.2 12.7-3.1 19.1-1 6.8 2.2 13.8 5 20.1-.7-6.5 6-3.9 12.7-2 19.7 1.8 6.8 3.1 14.3-3.4 20.2-.1 0-10.8-26.8-34.7-37.4z"/><path id="XMLID_2215_" class="st0" d="M176 77.8c-.1-.4.8 0 1.2 0 8 .5 11.3 6.6 14.4 12.5 3.3 6.3 6.4 13.2 14.9 13.4-8.9-.2-11.6 6.4-15.2 12.7-3.4 6.1-7.7 12.4-16.6 12.2 0 .1 11-26.5 1.3-50.8z"/><path id="XMLID_2213_" class="st0" d="M174.5 134.3c.1-.4.6.5.8.8 5.5 5.9 3.6 12.5 1.8 19-1.9 6.8-4.5 14 1.5 20-6.3-6.2-12.9-3.3-19.8-1.2-6.7 2.1-14.2 3.7-20.4-2.5 0-.1 26.4-11.9 36.1-36.1z"/><path id="XMLID_2211_" class="st0" d="M40.1 73.6c-6.5-6-5.2-13.5-3.4-20.2 1.9-7 4.5-13.7-2-19.7 6.2 5.7 13.3 2.9 20.1.7 6.4-2.1 13-4.2 19.1 1 .3.2 1.2.6.9.8-24 10.6-34.7 37.4-34.7 37.4z"/><path id="XMLID_2209_" class="st0" d="M34.5 131.5c-8.8.2-13.1-6.1-16.6-12.2-3.5-6.3-6.3-13-15.2-12.7 8.5-.2 11.6-7.1 14.9-13.4 3.1-5.9 6.4-12 14.4-12.5.4 0 1.3-.4 1.2 0-9.7 24.1 1.3 50.8 1.3 50.8z"/><path id="XMLID_2207_" class="st0" d="M74 173.9c-6.3 6.2-13.7 4.6-20.4 2.5-6.9-2.2-13.5-5.1-19.8 1.2 6-6 3.4-13.1 1.5-20-1.8-6.4-3.7-13.1 1.8-19 .3-.3.7-1.2.8-.8 9.7 24.3 36.1 36.1 36.1 36.1z"/><path id="XMLID_2206_" class="st1" d="M98.9 152.1c-30.3 0-54.8-24.5-54.8-54.7s24.5-54.7 54.8-54.7c0 0-37.3 16.7-35.2 55.9 2.3 40 35.2 53.5 35.2 53.5z"/><ellipse id="XMLID_2198_" class="st2" cx="105.6" cy="106.3" rx="54.2" ry="54.2"/><ellipse id="XMLID_2197_" class="st2" cx="105" cy="104.7" rx="74.4" ry="74.4"/><g id="XMLID_2179_"><path id="XMLID_2195_" class="st2" d="M175.3 77.5c9.5-.3 13.3 6.5 17 13 3.7 6.6 7.2 13.9 16.3 13.9-9.5 0-12.3 7.2-15.9 14-3.5 6.6-7.9 13.4-17.4 13.4"/><path id="XMLID_2193_" class="st2" d="M34.7 131.9c-9.4 0-13.9-6.8-17.4-13.4-3.6-6.8-6.4-14-15.9-14 9.1 0 12.5-7.3 16.3-13.9 3.7-6.5 7.5-13.3 17-13"/><path id="XMLID_2191_" class="st2" d="M77.7 34.6c-.3-9.5 6.5-13.3 13-16.9 6.6-3.7 14-7.2 14-16.2 0 9.5 7.2 12.2 14 15.8 6.6 3.5 13.5 7.9 13.5 17.3"/><path id="XMLID_2189_" class="st2" d="M132.3 174.8c0 9.4-6.9 13.8-13.5 17.3-6.9 3.6-14 6.4-14 15.8 0-9-7.4-12.5-14-16.2-6.5-3.7-13.3-7.5-13-16.9"/><path id="XMLID_2187_" class="st2" d="M134.7 36.1c6.5-6.9 14-4.8 21.2-2.8 7.3 2 15 4.8 21.4-1.6-6.7 6.7-3.6 13.7-1.3 21.1 2.2 7.1 3.9 15.1-2.7 21.8"/><path id="XMLID_2185_" class="st2" d="M75.3 173.3c-6.7 6.7-14.7 4.9-21.8 2.7-7.4-2.3-14.5-5.4-21.2 1.3 6.4-6.4 3.7-14 1.6-21.3-2-7.2-4.1-14.7 2.8-21.2"/><path id="XMLID_2183_" class="st2" d="M36.7 74.6C30 67.9 31.7 60 34 52.8c2.3-7.4 5.4-14.4-1.3-21.1 6.4 6.4 14.1 3.7 21.4 1.6 7.2-2 14.7-4.1 21.2 2.8"/><path id="XMLID_2180_" class="st2" d="M173.7 134.3c6.9 6.5 4.8 13.9 2.8 21.2-2 7.3-4.8 14.9 1.6 21.3-6.7-6.7-13.7-3.6-21.2-1.3-7.2 2.2-15.1 3.9-21.8-2.7"/></g><path id="XMLID_2167_" class="st3" d="M116.9 88.8H91.3l1.8 3.3h16.7v3.8s-8.9-1.5-12.3 2.8c-2.6 3.4-1.7 12.3 2.3 14.7 4 2.7 8.5.7 8.5.7h1.1l.3 4.4c0 1.9 1.6 3.5 3.5 3.5V92h5.4l-1.7-3.2zm-7.7 21.7s-9.3 2.9-10-5.7c.4-7.7 10-5.2 10-5.2v10.9z"/><path id="XMLID_2166_" class="st2" d="M105 158.8L58.9 79.7h92.2z"/><ellipse id="XMLID_2165_" class="st2" cx="104.9" cy="106" rx="26.3" ry="26.2"/><g id="XMLID_1727_"><path id="XMLID_2162_" class="st3" d="M105.6 37.3c-2.8 0-5 2.2-5 5s2.3 5 5 5c2.8 0 5-2.2 5-5s-2.3-5-5-5zm0 7.6c-1.4 0-2.6-1.2-2.6-2.6 0-1.4 1.2-2.6 2.6-2.6 1.4 0 2.6 1.2 2.6 2.6-.1 1.4-1.2 2.6-2.6 2.6z"/><path id="XMLID_2159_" class="st3" d="M105.6 166.1c-2.8 0-5 2.2-5 5s2.3 5 5 5c2.8 0 5-2.2 5-5s-2.3-5-5-5zm0 7.6c-1.4 0-2.6-1.2-2.6-2.6 0-1.4 1.2-2.6 2.6-2.6 1.4 0 2.6 1.2 2.6 2.6-.1 1.5-1.2 2.6-2.6 2.6z"/><path id="XMLID_2153_" class="st3" d="M70.7 46.6c-2.4 1.4-3.2 4.5-1.8 6.9 1.4 2.4 4.5 3.2 6.9 1.8 2.4-1.4 3.2-4.5 1.8-6.9-1.4-2.4-4.4-3.2-6.9-1.8zm3.9 6.5c-1.2.7-2.8.3-3.5-.9-.7-1.2-.3-2.8.9-3.5 1.2-.7 2.8-.3 3.5.9.7 1.3.3 2.8-.9 3.5z"/><path id="XMLID_2146_" class="st3" d="M135.3 158.2c-2.4 1.4-3.2 4.5-1.8 6.9 1.4 2.4 4.5 3.2 6.9 1.8 2.4-1.4 3.2-4.5 1.8-6.9-1.4-2.4-4.5-3.2-6.9-1.8zm3.8 6.5c-1.2.7-2.8.3-3.5-.9-.7-1.2-.3-2.8.9-3.5 1.2-.7 2.8-.3 3.5.9.8 1.3.4 2.8-.9 3.5z"/><path id="XMLID_2134_" class="st3" d="M47.1 78.9c2.4 1.4 5.5.6 6.9-1.8 1.4-2.4.6-5.5-1.8-6.9-2.4-1.4-5.5-.6-6.9 1.8-1.4 2.4-.6 5.5 1.8 6.9zm.3-5.7c.7-1.2 2.3-1.7 3.5-.9 1.2.7 1.7 2.3.9 3.5s-2.3 1.7-3.5.9c-1.2-.7-1.6-2.3-.9-3.5z"/><path id="XMLID_2126_" class="st3" d="M164 134.6c-2.4-1.4-5.5-.6-6.9 1.8-1.4 2.4-.6 5.5 1.8 6.9 2.4 1.4 5.5.6 6.9-1.8 1.5-2.5.6-5.5-1.8-6.9zm-.3 5.6c-.7 1.2-2.3 1.7-3.5.9-1.2-.7-1.7-2.3-.9-3.5.7-1.2 2.3-1.7 3.5-.9 1.2.7 1.6 2.3.9 3.5z"/><path id="XMLID_2117_" class="st3" d="M46 106.7c0-2.8-2.3-5-5-5-2.8 0-5 2.2-5 5s2.3 5 5 5 5-2.2 5-5zm-7.6 0c0-1.4 1.2-2.6 2.6-2.6s2.6 1.2 2.6 2.6c0 1.4-1.2 2.6-2.6 2.6s-2.6-1.2-2.6-2.6z"/><path id="XMLID_2108_" class="st3" d="M170.2 101.7c-2.8 0-5 2.2-5 5s2.3 5 5 5c2.8 0 5-2.2 5-5s-2.3-5-5-5zm0 7.6c-1.4 0-2.6-1.2-2.6-2.6 0-1.4 1.2-2.6 2.6-2.6 1.4 0 2.6 1.2 2.6 2.6-.1 1.4-1.2 2.6-2.6 2.6z"/><path id="XMLID_2102_" class="st3" d="M54 136.4c-1.4-2.4-4.5-3.2-6.9-1.8-2.4 1.4-3.2 4.5-1.8 6.9 1.4 2.4 4.5 3.2 6.9 1.8 2.3-1.4 3.2-4.5 1.8-6.9zm-3.1 4.8c-1.2.7-2.8.3-3.5-.9-.7-1.2-.3-2.8.9-3.5 1.2-.7 2.8-.3 3.5.9.8 1.2.3 2.7-.9 3.5z"/><path id="XMLID_2089_" class="st3" d="M157.1 77c1.4 2.4 4.5 3.2 6.9 1.8 2.4-1.4 3.2-4.5 1.8-6.9-1.4-2.4-4.5-3.2-6.9-1.8-2.3 1.4-3.2 4.5-1.8 6.9zm3.1-4.7c1.2-.7 2.8-.3 3.5.9.7 1.2.3 2.8-.9 3.5-1.2.7-2.8.3-3.5-.9-.7-1.2-.3-2.8.9-3.5z"/><path id="XMLID_2080_" class="st3" d="M75.8 158.2c-2.4-1.4-5.5-.6-6.9 1.8-1.4 2.4-.6 5.5 1.8 6.9 2.4 1.4 5.5.6 6.9-1.8 1.4-2.5.6-5.6-1.8-6.9zm-.3 5.6c-.7 1.2-2.3 1.7-3.5.9-1.2-.7-1.7-2.3-.9-3.5.7-1.2 2.3-1.7 3.5-.9 1.2.7 1.6 2.3.9 3.5z"/><path id="XMLID_1990_" class="st3" d="M140.4 46.6c-2.4-1.4-5.5-.6-6.9 1.8-1.4 2.4-.6 5.5 1.8 6.9 2.4 1.4 5.5.6 6.9-1.8 1.4-2.5.6-5.5-1.8-6.9zm-.3 5.6c-.7 1.2-2.3 1.7-3.5.9-1.2-.7-1.7-2.3-.9-3.5.7-1.2 2.3-1.7 3.5-.9 1.2.7 1.6 2.3.9 3.5z"/><ellipse id="XMLID_1989_" transform="rotate(-10.027 94.34 43.267)" class="st3" cx="94.3" cy="43.3" rx="2.6" ry="2.6"/><ellipse id="XMLID_1954_" transform="rotate(-10.027 116.774 170.162)" class="st3" cx="116.8" cy="170.2" rx="2.6" ry="2.6"/><ellipse id="XMLID_1928_" transform="rotate(-20.049 83.466 46.176)" class="st3" cx="83.5" cy="46.2" rx="2.6" ry="2.6"/><ellipse id="XMLID_1911_" transform="rotate(-20.049 127.649 167.26)" class="st3" cx="127.7" cy="167.3" rx="2.6" ry="2.6"/><path id="XMLID_1910_" class="st3" d="M62.4 55.4c-1.1.9-1.2 2.5-.3 3.6.9 1.1 2.5 1.2 3.6.3 1.1-.9 1.2-2.5.3-3.6-.9-1.1-2.5-1.2-3.6-.3z"/><path id="XMLID_1909_" class="st3" d="M145.4 154.1c-1.1.9-1.2 2.5-.3 3.6.9 1.1 2.5 1.2 3.6.3 1.1-.9 1.2-2.5.3-3.6-.9-1.1-2.5-1.2-3.6-.3z"/><path id="XMLID_1908_" class="st3" d="M54.1 63.6c-.9 1.1-.8 2.7.3 3.6 1.1.9 2.7.8 3.6-.3s.8-2.7-.3-3.6c-1.1-.9-2.7-.7-3.6.3z"/><path id="XMLID_1890_" class="st3" d="M153.1 146.5c-.9 1.1-.8 2.7.3 3.6 1.1.9 2.7.8 3.6-.3.9-1.1.8-2.7-.3-3.6-1.1-1-2.7-.8-3.6.3z"/><ellipse id="XMLID_1872_" transform="rotate(-69.952 44.86 84.68)" class="st3" cx="44.9" cy="84.7" rx="2.6" ry="2.6"/><ellipse id="XMLID_1871_" transform="rotate(-69.952 166.259 128.753)" class="st3" cx="166.3" cy="128.8" rx="2.6" ry="2.6"/><ellipse id="XMLID_1828_" transform="rotate(-79.973 41.947 95.531)" class="st3" cx="41.9" cy="95.5" rx="2.6" ry="2.6"/><ellipse id="XMLID_1822_" transform="rotate(-79.973 169.181 117.907)" class="st3" cx="169.2" cy="117.9" rx="2.6" ry="2.6"/><ellipse id="XMLID_1807_" transform="rotate(-9.97 41.958 117.908)" class="st3" cx="41.9" cy="117.9" rx="2.6" ry="2.6"/><ellipse id="XMLID_1804_" transform="rotate(-9.97 169.18 95.515)" class="st3" cx="169.2" cy="95.5" rx="2.6" ry="2.6"/><ellipse id="XMLID_1803_" transform="rotate(-20.049 44.858 128.754)" class="st3" cx="44.9" cy="128.8" rx="2.6" ry="2.6"/><ellipse id="XMLID_1801_" transform="rotate(-20.049 166.26 84.685)" class="st3" cx="166.3" cy="84.7" rx="2.6" ry="2.6"/><path id="XMLID_1800_" class="st3" d="M54.4 146.2c-1.1.9-1.2 2.5-.3 3.6.9 1.1 2.5 1.2 3.6.3 1.1-.9 1.2-2.5.3-3.6-.9-1.1-2.5-1.3-3.6-.3z"/><path id="XMLID_1798_" class="st3" d="M156.7 67.3c1.1-.9 1.2-2.5.3-3.6-.9-1.1-2.5-1.2-3.6-.3-1.1.9-1.2 2.5-.3 3.6.9 1 2.5 1.2 3.6.3z"/><path id="XMLID_1746_" class="st3" d="M62.1 154.4c-.9 1.1-.8 2.7.3 3.6 1.1.9 2.7.8 3.6-.3.9-1.1.8-2.7-.3-3.6-1.1-.9-2.7-.8-3.6.3z"/><path id="XMLID_1741_" class="st3" d="M145.1 55.7c-.9 1.1-.8 2.7.3 3.6 1.1.9 2.7.8 3.6-.3.9-1.1.8-2.7-.3-3.6-1.1-.9-2.7-.8-3.6.3z"/><ellipse id="XMLID_1731_" transform="rotate(-69.952 83.466 167.259)" class="st3" cx="83.5" cy="167.3" rx="2.6" ry="2.6"/><ellipse id="XMLID_1730_" transform="rotate(-69.952 127.653 46.175)" class="st3" cx="127.7" cy="46.2" rx="2.6" ry="2.6"/><ellipse id="XMLID_1729_" transform="rotate(-79.973 94.347 170.17)" class="st3" cx="94.3" cy="170.2" rx="2.6" ry="2.6"/><ellipse id="XMLID_1728_" transform="rotate(-79.973 116.78 43.268)" class="st3" cx="116.8" cy="43.3" rx="2.6" ry="2.6"/></g></g></svg>