<svg id="Layer_1" xmlns="http://www.w3.org/2000/svg" viewBox="0 0 182 182"><style>.st0{fill:#fff0cd}.st1{fill:#ffffe6}.st2,.st3{fill:none;stroke:#f49782;stroke-width:3;stroke-linecap:round;stroke-linejoin:round;stroke-miterlimit:10}.st3{stroke-dasharray:.25,10}.st4{fill:#f49782}</style><g id="XMLID_11_"><path id="XMLID_1508_" class="st0" d="M113.3 152.8c-.3 7.6-5.9 11-11.4 13.7-5.5 2.8-11.5 4.8-11.8 12.5.3-7.4-5.5-10.3-10.9-13.5-4.9-3-10.2-6.1-10.2-13 0-.3-.3-1.1 0-1 20.6 9.6 44.3 1.3 44.3 1.3z"/><path id="XMLID_1506_" class="st0" d="M71 29.4c-.3.1 0-.7 0-1 .5-6.9 5.9-9.6 11.1-12.3 5.4-2.8 11.5-5.4 11.9-12.7-.3 7.6 5.4 10.2 10.9 13.3 5.3 3 10.7 6.9 10.4 14.5-.3 0-23.2-10-44.3-1.8z"/><path id="XMLID_1504_" class="st0" d="M116.4 31.9c-.3-.2.5-.4.8-.7 5.3-4.5 11-2.7 16.5-.9 5.9 1.8 12 4.3 17.5-.6-5.5 5.2-3.4 11-1.7 17.1 1.6 5.9 2.7 12.4-3 17.5 0 .2-9.4-23-30.1-32.4z"/><path id="XMLID_1472_" class="st0" d="M152.3 68.5c-.1-.3.7 0 1 0 6.9.4 9.8 5.7 12.5 10.9 2.9 5.4 5.5 11.5 12.8 11.6-7.7-.2-10.1 5.5-13.2 11-3 5.3-6.7 10.8-14.4 10.6.2.1 9.9-23.1 1.3-44.1z"/><path id="XMLID_1470_" class="st0" d="M151 117.5c.1-.3.5.4.7.7 4.8 5.1 3.1 10.9 1.6 16.4-1.6 5.9-3.9 12.2 1.3 17.4-5.4-5.3-11.2-2.9-17.2-1-5.8 1.8-12.3 3.2-17.7-2.2.1-.1 23.1-10.2 31.3-31.3z"/><path id="XMLID_1468_" class="st0" d="M34.5 64.8c-5.5-5.2-4.5-11.7-3-17.5 1.6-6.1 3.9-11.9-1.7-17.1 5.4 4.9 11.5 2.5 17.5.6 5.5-1.8 11.3-3.6 16.5.9.3.2 1 .5.8.7-20.9 9.2-30.1 32.4-30.1 32.4z"/><path id="XMLID_1466_" class="st0" d="M29.7 114.9c-7.6.2-11.4-5.3-14.4-10.6-3-5.4-5.4-11.3-13.2-11 7.4-.2 10.1-6.2 12.8-11.6 2.7-5.1 5.5-10.4 12.5-10.9.3 0 1.1-.3 1 0-8.3 21.1 1.3 44.1 1.3 44.1z"/><path id="XMLID_1464_" class="st0" d="M63.9 151.8c-5.4 5.3-11.9 4-17.7 2.2-6-1.8-11.7-4.4-17.2 1 5.2-5.2 3-11.4 1.3-17.4-1.6-5.5-3.2-11.4 1.6-16.4.3-.3.6-1 .7-.7 8.5 21.2 31.3 31.3 31.3 31.3z"/><path id="XMLID_1463_" class="st1" d="M85.6 132.8c-26.3 0-47.6-21.3-47.6-47.5S59.3 38 85.6 38c0 0-32.4 14.5-30.6 48.5 2 34.7 30.6 46.3 30.6 46.3z"/><path id="XMLID_1462_" class="st2" d="M166.7 78.7c-3.2-5.5-6.5-11.5-14.8-11.3l-1.7-2.5c5.8-5.8 4.3-12.6 2.3-18.8-2-6.4-4.7-12.5 1.1-18.3-5.5 5.5-12.2 3.2-18.6 1.4-6.3-1.7-12.7-3.6-18.4 2.4l.2.2c-1.2-.5-2.3-1.5-2.3-1.5 0-8.2-6-12-11.7-15-6-3.1-12.2-5.5-12.2-13.7 0 7.8-6.4 10.9-12.2 14.1-5.5 3.2-11.5 6.5-11.3 14.7 0 0-1.1.9-2.3 1.4l.1-.1c-5.5-6-12.2-4.2-18.4-2.4-6.3 1.7-12.9 4.2-18.6-1.4 5.8 5.8 3.1 11.9 1.1 18.3-1.8 6.2-3.4 12.9 2.3 18.8-.6 1.3-1.6 2.6-1.6 2.6-8.2-.3-11.5 5.5-14.8 11.3-3 5.5-6 11.9-13.9 11.9 8.2 0 10.7 6.3 13.8 12.2 3 5.7 6.9 11.6 15.1 11.6 0 0 1 1.3 1.6 2.6-5.9 5.5-4.1 12.1-2.3 18.2 1.7 6.3 4.2 12.8-1.4 18.5 5.8-5.8 11.9-3.1 18.4-1.1 6.3 1.8 13 3.4 18.9-2.3l-.1-.1c1.1.5 2.2 1.4 2.2 1.4-.3 8.2 5.5 11.5 11.3 14.7 5.7 3.2 12.2 6.3 12.2 14.1 0-8.2 6.3-10.6 12.2-13.7 5.7-3 11.7-6.9 11.7-15 0 0 1.3-1 2.6-1.6 5.7 5.5 12.6 4.2 18.8 2.3 6.4-2 12.5-4.7 18.4 1.1-5.5-5.5-3.2-12.2-1.4-18.5 1.7-6.3 3.6-12.7-2.4-18.3l1.3-2.1c8.2 0 12.1-5.9 15.1-11.6 3.1-5.9 5.5-12.2 13.8-12.2-7.8-.3-10.8-6.6-14.1-12.3z"/><ellipse id="XMLID_1461_" class="st2" cx="91.1" cy="91" rx="64.5" ry="64.4"/><g id="XMLID_1023_"><path id="XMLID_1459_" class="st2" d="M152 67.5c8.2-.3 11.5 5.5 14.8 11.3 3.2 5.7 6.3 12.1 14.2 12.1-8.2 0-10.7 6.3-13.8 12.2-3 5.7-6.9 11.6-15.1 11.6"/><path id="XMLID_1455_" class="st2" d="M30.2 114.5c-8.2 0-12.1-5.9-15.1-11.6C11.9 97 9.6 90.7 1.2 90.7c7.9 0 10.9-6.3 14.2-12.1 3.2-5.5 6.5-11.5 14.8-11.3"/><path id="XMLID_1453_" class="st2" d="M67.5 30.2C67.2 22 73 18.7 78.8 15.5 84.4 12.3 91 9.2 91 1.4c0 8.2 6.3 10.6 12.2 13.7 5.7 3 11.7 6.9 11.7 15"/><path id="XMLID_1451_" class="st2" d="M114.7 151.7c0 8.2-6 12-11.7 15-6 3.1-12.2 5.5-12.2 13.7 0-7.8-6.4-10.9-12.2-14.1-5.5-3.2-11.5-6.5-11.3-14.7"/><path id="XMLID_1449_" class="st2" d="M116.9 31.5c5.5-6 12.2-4.2 18.4-2.4 6.3 1.7 12.9 4.2 18.6-1.4-5.8 5.8-3.1 11.9-1.1 18.3 1.8 6.2 3.4 13-2.3 18.8"/><path id="XMLID_1445_" class="st2" d="M65.3 150.4c-5.8 5.8-12.7 4.3-18.9 2.3-6.4-2-12.5-4.7-18.4 1.1 5.5-5.5 3.2-12.2 1.4-18.5-1.7-6.3-3.6-12.7 2.4-18.3"/><path id="XMLID_1197_" class="st2" d="M31.8 64.9C26.1 59 27.4 52.3 29.5 46c2-6.4 4.7-12.5-1.1-18.3 5.5 5.5 12.2 3.2 18.6 1.4 6.3-1.7 12.7-3.6 18.4 2.4"/><path id="XMLID_1167_" class="st2" d="M150.6 116.7c6 5.5 4.2 12.1 2.4 18.3-1.7 6.3-4.2 12.8 1.4 18.5-5.8-5.8-11.9-3.1-18.4-1.1-6.3 1.8-13 3.4-18.9-2.3"/></g><ellipse id="XMLID_1005_" class="st2" cx="91.1" cy="91" rx="52.7" ry="52.7"/><ellipse id="XMLID_608_" class="st3" cx="91.1" cy="91" rx="58.8" ry="58.8"/><path id="XMLID_501_" class="st2" d="M89.7 38.6l-43.9 78.8h90.6z"/><path id="XMLID_500_" class="st2" d="M89.7 143.3L45.8 64.6h90.6z"/><path id="XMLID_88_" class="st4" d="M99.6 103.1c-1.6 0-2.8-1.2-2.8-2.8v-6.6c-1.1.8-2.3 1.6-3.4 2.3-.1.7-.1 1.6-.3 2.3-.6 2.7-2.8 4.4-5.5 4.5-2.2.1-4.1-.7-5.8-2-2.3-1.6-3.9-3.9-5.3-6.3-.4-.8-.9-1.6-1.3-2.3-.3-.3-.2-.6.2-.9.2-.1.3-.3.4-.4 1.1 1 2.1 2.1 2.8 3.4 1.2 2.3 2.9 4 5.2 5.1 1.6.7 3.1.7 4.7.1 1-.3 1.6-1.1 2-2.2.5-1.7.6-3.4-.4-4.9-.5-.9-1.4-1.1-2.3-1.3-.2 0-.3.1-.4.1-.2.1-.3.1-.5.2-1 .3-1.7.3-2.3-.6-.3-.4-.8-.7-1.1-1 .4-.6.9-1 1.5-1 2.1-.3 5.1-3.5 3.7-6.3-.6-1.2-2-1.8-3.3-1.8-.4 0-.9.1-1.4.1-1 .1-1.6.8-2.3 1.6-.3.3-.6.7-1 1.1-.6-.7-1.2-1.3-1.7-1.8-.1-.2-.1-.6.1-.9.5-1 1.3-1.6 2.3-2.1 3-1.6 6.2-.5 8.4 1.8.9 1 1.6 2 1.8 3.3.5 2 0 3.7-1.2 5.3l-.3.3v.1c1.1.9 2.2 1.8 2.9 3.2 2-1.2 3.7-2.6 4.3-4.9.1-.4.1-.9.1-1.3v-5.4h-4.7L91 78h13.5l1.8 2.8c-1.4-.1-4.5 0-5.9 0-.4 0-.5.1-.5.5-.3 6.7-.3 15.1-.3 21.8z"/></g></svg>