<svg id="Layer_1" xmlns="http://www.w3.org/2000/svg" viewBox="0 0 182 182"><style>.st0{fill:#fff0cd}.st1{fill:#ffffe6}.st2{fill:none;stroke:#f49782;stroke-width:3;stroke-linecap:round;stroke-linejoin:round;stroke-miterlimit:10}.st3{fill:#f49782}</style><g id="XMLID_2506_"><path id="XMLID_2745_" class="st0" d="M113.2 153c-.3 7.6-5.9 11-11.4 13.7-5.7 2.8-11.5 4.7-11.8 12.5.3-7.4-5.7-10.3-10.9-13.6-4.9-3.1-10.2-6.1-10.2-13 0-.3-.3-1.1 0-1 20.6 9.5 44.3 1.4 44.3 1.4z"/><path id="XMLID_2743_" class="st0" d="M70.8 29.6c-.3.1 0-.7 0-1 .5-7 5.9-9.7 11.1-12.3 5.4-2.8 11.5-5.3 11.9-12.7-.3 7.6 5.4 10.2 10.9 13.3 5.2 3.1 10.7 6.9 10.4 14.5-.1-.2-23.2-10.1-44.3-1.8z"/><path id="XMLID_2741_" class="st0" d="M121.2 32.8c-.3-.2.5-.4.8-.7 5.2-4.5 11-2.7 16.5-.8 5.9 2 11.9 4.3 17.5-.6-5.7 5.2-3.4 11-1.7 17.1 1.5 5.9 2.7 12.4-3 17.6-.1-.2-9.3-23.4-30.1-32.6z"/><path id="XMLID_2739_" class="st0" d="M152.1 68.6c-.1-.3.7 0 1 0 7 .4 9.8 5.8 12.5 10.9 2.9 5.4 5.5 11.4 12.9 11.6-7.7-.2-10.1 5.5-13.2 11-3 5.2-6.7 10.8-14.4 10.6.2 0 9.8-23 1.2-44.1z"/><path id="XMLID_2737_" class="st0" d="M150.9 117.6c.1-.3.5.4.7.7 4.7 5.1 3.1 10.9 1.5 16.4-1.6 5.9-3.9 12.1 1.3 17.4-5.4-5.3-11.2-2.9-17.2-1-5.9 1.8-12.3 3.2-17.7-2.2.2-.2 23.1-10.2 31.4-31.3z"/><path id="XMLID_2735_" class="st0" d="M34.3 64.9c-5.7-5.2-4.5-11.7-3-17.6 1.6-6.1 3.9-11.9-1.7-17.1 5.3 4.9 11.5 2.5 17.5.6 5.5-1.8 11.3-3.6 16.5.8.3.2 1 .5.8.7-20.9 9.4-30.1 32.6-30.1 32.6z"/><path id="XMLID_2733_" class="st0" d="M29.6 115.1c-7.6.2-11.4-5.2-14.4-10.6-3.1-5.4-5.4-11.3-13.2-11 7.4-.1 10.1-6.1 13-11.5 2.7-5.1 5.5-10.4 12.5-10.9.3 0 1.1-.3 1 0-8.5 20.9 1.1 44 1.1 44z"/><path id="XMLID_2731_" class="st0" d="M63.8 151.9c-5.4 5.3-11.9 4-17.7 2.2-6-2-11.7-4.4-17.2 1 5.2-5.2 3-11.4 1.3-17.4-1.5-5.5-3.2-11.4 1.5-16.4.3-.3.6-1 .7-.7 8.5 21.1 31.4 31.3 31.4 31.3z"/><path id="XMLID_2730_" class="st1" d="M85.3 133c-26.3 0-47.6-21.3-47.6-47.5S59 38.2 85.3 38.2c0 0-32.4 14.5-30.5 48.5 2 34.6 30.5 46.3 30.5 46.3z"/><ellipse id="XMLID_2729_" class="st2" cx="91.1" cy="90.8" rx="45.4" ry="45.4"/><path id="XMLID_2728_" class="st2" d="M166.7 78.6c-3.2-5.7-6.5-11.5-14.8-11.3l-1.7-2.5c5.9-5.9 4.3-12.6 2.4-18.9-2-6.4-4.7-12.5 1.1-18.3-5.5 5.5-12.2 3.2-18.6 1.4-6.3-1.7-12.7-3.6-18.4 2.5l.2.2c-1.2-.5-2.4-1.4-2.4-1.4 0-8.1-6-11.9-11.7-15-6-3.1-12.1-5.5-12.1-13.7 0 7.8-6.4 10.9-12.1 14.1-5.7 3.2-11.5 6.5-11.3 14.7 0 0-1.1.8-2.3 1.4l.1-.1c-5.7-6-12.1-4.2-18.4-2.5-6.4 1.7-13 4.2-18.6-1.4 5.9 5.9 3.1 11.9 1.1 18.3-2 6.2-3.4 13 2.4 18.8-.6 1.3-1.6 2.6-1.6 2.6-8.2-.3-11.5 5.7-14.8 11.3-3.2 5.8-6.3 12-14.2 12 8.2 0 10.7 6.3 13.8 12.1 3.1 5.8 6.9 11.7 15.1 11.7 0 0 1 1.3 1.6 2.6-5.9 5.7-4.1 12-2.4 18.3 1.7 6.4 4.2 12.9-1.4 18.5 5.9-5.9 11.9-3.1 18.4-1.1 6.3 2 13 3.4 18.9-2.4l-.1-.1c1.1.5 2.2 1.4 2.2 1.4-.3 8.2 5.7 11.5 11.3 14.7 5.8 3.2 12.1 6.3 12.1 14.1 0-8.2 6.3-10.6 12.1-13.7 5.8-3.1 11.7-6.9 11.7-15 0 0 1.3-1 2.6-1.6 5.8 5.7 12.6 4.2 18.8 2.3 6.4-2 12.5-4.7 18.4 1.1-5.5-5.5-3.2-12.1-1.4-18.5 1.7-6.3 3.6-12.7-2.5-18.4l1.3-2.1c8.1 0 12-5.9 15.1-11.7 3.1-5.9 5.5-12.1 13.8-12.1-7.4-.2-10.4-6.7-13.7-12.3z"/><ellipse id="XMLID_2727_" class="st2" cx="91.1" cy="90.8" rx="64.5" ry="64.5"/><g id="XMLID_2640_"><path id="XMLID_2725_" class="st2" d="M152 67.3c8.2-.3 11.5 5.7 14.8 11.3 3.2 5.8 6.3 12 14.2 12-8.2 0-10.7 6.3-13.8 12.1-3.1 5.8-6.9 11.7-15.1 11.7"/><path id="XMLID_2723_" class="st2" d="M30.1 114.4c-8.1 0-12-5.9-15.1-11.7-3.1-5.9-5.5-12.1-13.8-12.1 7.9 0 10.9-6.4 14.2-12 3.2-5.7 6.5-11.5 14.8-11.3"/><path id="XMLID_2651_" class="st2" d="M67.4 30.2C67.1 22 73 18.7 78.7 15.5c5.8-3.2 12.1-6.3 12.1-14.1 0 8.2 6.3 10.6 12.1 13.7 5.8 3.1 11.7 6.9 11.7 15"/><path id="XMLID_2649_" class="st2" d="M114.7 151.6c0 8.1-6 11.9-11.7 15-6 3.1-12.1 5.5-12.1 13.7 0-7.8-6.4-10.9-12.1-14.1-5.7-3.2-11.5-6.5-11.3-14.7"/><path id="XMLID_2647_" class="st2" d="M116.9 31.4c5.7-6 12.1-4.2 18.4-2.5 6.4 1.7 13 4.2 18.6-1.4-5.9 5.9-3.1 11.9-1.1 18.3 2 6.2 3.4 13-2.4 18.9"/><path id="XMLID_2645_" class="st2" d="M65.3 150.4c-5.9 5.9-12.7 4.2-18.9 2.4-6.4-2-12.5-4.7-18.4 1.1 5.5-5.5 3.2-12.1 1.4-18.5-1.7-6.3-3.6-12.7 2.5-18.4"/><path id="XMLID_2643_" class="st2" d="M31.8 64.7C26 59 27.5 52.1 29.4 45.9c2-6.4 4.7-12.5-1.1-18.3 5.5 5.5 12.2 3.2 18.6 1.4 6.3-1.7 12.7-3.6 18.4 2.5"/><path id="XMLID_2641_" class="st2" d="M150.7 116.6c6 5.7 4.2 12 2.5 18.4s-4.2 12.9 1.4 18.5c-5.9-5.9-11.9-3.1-18.4-1.1-6.3 2-13 3.4-18.9-2.4"/></g><path id="XMLID_2637_" class="st3" d="M105.9 72.4H74.2l2.2 4H83v13.9h-3.1c-.6 0-.8.8-.4 1.1l6.8 5.8c.4.3 1.1.1 1.1-.5v-2.8c0-.3.3-.7.7-.7h9.1c.6 0 1.1.5 1.1 1.1l.1 10.9c0 2.4 2 4.2 4.3 4.2v-33h5.5l-2.3-4zm-9 17.9H88c-.5 0-.9-.4-.9-.9v-13h11.1v12.4c0 .9-.6 1.5-1.3 1.5z"/><g id="XMLID_2508_"><path id="XMLID_2634_" class="st3" d="M91.1 30.7c-2.5 0-4.3 2-4.3 4.3 0 2.4 2 4.3 4.3 4.3s4.3-2 4.3-4.3c0-2.4-1.8-4.3-4.3-4.3zm0 6.6c-1.2 0-2.3-1-2.3-2.3 0-1.2 1-2.3 2.3-2.3s2.3 1 2.3 2.3c0 1.2-1.1 2.3-2.3 2.3z"/><path id="XMLID_2631_" class="st3" d="M91.1 142.4c-2.5 0-4.3 2-4.3 4.3s2 4.3 4.3 4.3 4.3-2 4.3-4.3-1.8-4.3-4.3-4.3zm0 6.5c-1.2 0-2.3-1-2.3-2.3 0-1.2 1-2.3 2.3-2.3s2.3 1 2.3 2.3c0 1.4-1.1 2.3-2.3 2.3z"/><path id="XMLID_2628_" class="st3" d="M60.9 38.7c-2.1 1.2-2.8 3.8-1.6 5.9 1.2 2.1 3.9 2.8 6 1.5 2.1-1.2 2.8-3.9 1.5-6-1.1-1.9-3.8-2.6-5.9-1.4zm3.3 5.8c-1 .6-2.5.3-3.1-.8-.6-1-.3-2.5.8-3.1 1-.6 2.5-.3 3.1.8.6 1 .2 2.4-.8 3.1z"/><path id="XMLID_2625_" class="st3" d="M116.9 135.5c-2.1 1.2-2.8 3.9-1.5 6s3.9 2.8 6 1.5 2.8-3.9 1.5-6c-1.3-2-3.9-2.7-6-1.5zm3.4 5.7c-1 .6-2.5.3-3.1-.8-.6-1-.3-2.5.8-3.1 1-.6 2.5-.3 3.1.8.5 1.2.2 2.4-.8 3.1z"/><path id="XMLID_2622_" class="st3" d="M40.3 66.8c2.1 1.2 4.7.5 6-1.5 1.2-2.1.5-4.7-1.5-6-2.1-1.2-4.7-.5-6 1.5-1.2 2-.5 4.7 1.5 6zm.4-5c.6-1 2-1.4 3.1-.8 1 .6 1.4 2 .8 3.1-.6 1-2 1.4-3.1.8-1.2-.7-1.5-1.9-.8-3.1z"/><path id="XMLID_2619_" class="st3" d="M141.9 115c-2.1-1.2-4.7-.5-6 1.5-1.2 2.1-.5 4.7 1.5 6 2.1 1.2 4.7.5 6-1.5 1.2-2.1.5-4.7-1.5-6zm-.4 4.9c-.6 1-2 1.4-3.1.8-1-.6-1.4-2-.8-3.1.6-1 2-1.4 3.1-.8 1.2.7 1.5 2 .8 3.1z"/><path id="XMLID_2616_" class="st3" d="M39.4 90.8c0-2.5-2-4.3-4.3-4.3-2.5 0-4.3 2-4.3 4.3 0 2.5 2 4.3 4.3 4.3 2.4.2 4.3-1.8 4.3-4.3zm-6.6 0c0-1.2 1-2.3 2.3-2.3 1.2 0 2.3 1 2.3 2.3 0 1.2-1 2.3-2.3 2.3-1.2 0-2.3-1-2.3-2.3z"/><path id="XMLID_2613_" class="st3" d="M147.1 86.5c-2.5 0-4.3 2-4.3 4.3 0 2.5 2 4.3 4.3 4.3 2.5 0 4.3-2 4.3-4.3s-1.8-4.3-4.3-4.3zm0 6.6c-1.2 0-2.3-1-2.3-2.3 0-1.2 1-2.3 2.3-2.3 1.2 0 2.3 1 2.3 2.3 0 1.3-1.1 2.3-2.3 2.3z"/><path id="XMLID_2610_" class="st3" d="M46.3 116.6c-1.2-2.1-3.9-2.8-6-1.5-2.1 1.2-2.8 3.9-1.5 6s3.9 2.8 6 1.5c2-1.2 2.7-4 1.5-6zm-2.7 4.2c-1 .6-2.5.3-3.1-.8-.6-1-.3-2.5.8-3.1 1-.6 2.5-.3 3.1.8.8 1 .4 2.5-.8 3.1z"/><path id="XMLID_2564_" class="st3" d="M135.9 65.1c1.2 2.1 3.9 2.8 6 1.5 2.1-1.2 2.8-3.9 1.5-6-1.2-2.1-3.9-2.8-6-1.5-2.1 1.3-2.7 4-1.5 6zm2.7-4.1c1-.6 2.5-.3 3.1.8.6 1 .3 2.5-.8 3.1-1 .6-2.5.3-3.1-.8-.8-1-.4-2.5.8-3.1z"/><path id="XMLID_2536_" class="st3" d="M65.2 135.5c-2.1-1.2-4.7-.5-6 1.5-1.2 2.1-.5 4.7 1.5 6 2.1 1.2 4.7.5 6-1.5 1.4-2.2.7-4.8-1.5-6zm-.2 4.9c-.6 1-2 1.4-3.1.8-1-.6-1.4-2-.8-3.1.6-1 2-1.4 3.1-.8 1 .7 1.4 2 .8 3.1z"/><path id="XMLID_2533_" class="st3" d="M121.3 38.7c-2.1-1.2-4.7-.5-6 1.5-1.2 2.1-.5 4.7 1.5 6s4.7.5 6-1.5c1.3-2.2.6-4.8-1.5-6zm-.3 4.8c-.6 1-2 1.4-3.1.8-1-.6-1.4-2-.8-3.1.6-1 2-1.4 3.1-.8 1.1.8 1.4 2.1.8 3.1z"/><ellipse id="XMLID_2532_" transform="rotate(-10.027 81.338 35.836)" class="st3" cx="81.3" cy="35.8" rx="2.3" ry="2.3"/><ellipse id="XMLID_2531_" transform="rotate(-10.027 100.769 145.974)" class="st3" cx="100.8" cy="146" rx="2.3" ry="2.3"/><ellipse id="XMLID_2530_" transform="rotate(-20.049 71.9 38.411)" class="st3" cx="71.9" cy="38.4" rx="2.3" ry="2.3"/><ellipse id="XMLID_2529_" transform="rotate(-20.049 110.307 143.384)" class="st3" cx="110.3" cy="143.4" rx="2.3" ry="2.3"/><path id="XMLID_2528_" class="st3" d="M53.6 46.3c-.9.8-1 2.2-.3 3.1.7.9 2.2 1 3.1.3.9-.8 1-2.2.3-3.1-.7-.9-2.1-1-3.1-.3z"/><path id="XMLID_2527_" class="st3" d="M125.7 132c-.9.8-1 2.2-.3 3.1.8.9 2.2 1 3.1.3.9-.8 1-2.2.3-3.1-.7-1-2.1-1.1-3.1-.3z"/><path id="XMLID_2526_" class="st3" d="M46.4 53.5c-.8.9-.7 2.4.3 3.1.9.8 2.4.7 3.1-.3.8-.9.7-2.4-.3-3.1-.8-.7-2.2-.6-3.1.3z"/><path id="XMLID_2525_" class="st3" d="M132.3 125.3c-.8.9-.7 2.4.3 3.1.9.8 2.4.7 3.1-.3.8-.9.7-2.4-.3-3.1-.8-.7-2.3-.6-3.1.3z"/><ellipse id="XMLID_2524_" transform="rotate(-69.952 38.492 71.726)" class="st3" cx="38.5" cy="71.7" rx="2.3" ry="2.3"/><ellipse id="XMLID_2523_" transform="rotate(-69.952 143.792 109.961)" class="st3" cx="143.8" cy="110" rx="2.3" ry="2.3"/><ellipse id="XMLID_2522_" transform="rotate(-79.973 35.877 81.106)" class="st3" cx="35.9" cy="81.1" rx="2.3" ry="2.3"/><ellipse id="XMLID_2521_" transform="rotate(-79.973 146.219 100.566)" class="st3" cx="146.2" cy="100.6" rx="2.3" ry="2.3"/><ellipse id="XMLID_2520_" transform="rotate(-9.97 35.939 100.552)" class="st3" cx="35.9" cy="100.6" rx="2.3" ry="2.3"/><ellipse id="XMLID_2519_" transform="rotate(-9.97 146.28 81.122)" class="st3" cx="146.3" cy="81.1" rx="2.3" ry="2.3"/><ellipse id="XMLID_2518_" transform="rotate(-20.049 38.493 109.993)" class="st3" cx="38.5" cy="110" rx="2.3" ry="2.3"/><ellipse id="XMLID_2517_" transform="rotate(-20.049 143.713 71.802)" class="st3" cx="143.7" cy="71.8" rx="2.3" ry="2.3"/><path id="XMLID_2516_" class="st3" d="M46.8 125.1c-.9.8-1 2.2-.3 3.1.7.9 2.2 1 3.1.3.9-.7 1-2.2.3-3.1-.7-.9-2.3-1.1-3.1-.3z"/><path id="XMLID_2515_" class="st3" d="M135.4 56.7c.9-.8 1-2.2.3-3.1-.7-.9-2.2-1-3.1-.3s-1 2.2-.3 3.1c.8 1 2.3 1 3.1.3z"/><path id="XMLID_2514_" class="st3" d="M53.4 132.2c-.8.9-.7 2.4.3 3.1.9.8 2.4.7 3.1-.3.8-.9.7-2.4-.3-3.1-.9-.7-2.4-.6-3.1.3z"/><path id="XMLID_2513_" class="st3" d="M125.3 46.6c-.8.9-.7 2.4.3 3.1.9.8 2.4.7 3.1-.3.8-.9.7-2.4-.3-3.1-.8-.7-2.2-.6-3.1.3z"/><ellipse id="XMLID_2512_" transform="rotate(-69.952 71.966 143.359)" class="st3" cx="72" cy="143.4" rx="2.3" ry="2.3"/><ellipse id="XMLID_2511_" transform="rotate(-69.952 110.316 38.33)" class="st3" cx="110.3" cy="38.3" rx="2.3" ry="2.3"/><ellipse id="XMLID_2510_" transform="rotate(-79.973 81.343 145.934)" class="st3" cx="81.3" cy="145.9" rx="2.3" ry="2.3"/><ellipse id="XMLID_2509_" transform="rotate(-79.973 100.808 35.833)" class="st3" cx="100.8" cy="35.8" rx="2.3" ry="2.3"/></g><path id="XMLID_2507_" class="st2" d="M60.2 60h62v61.7h-62z"/></g></svg>