<svg id="Layer_1" xmlns="http://www.w3.org/2000/svg" viewBox="0 0 380 365"><style>.st0{opacity:.52;fill:#604768;enable-background:new}.st1{fill:url(#SVGID_1_)}.st2{fill:url(#SVGID_2_)}.st3{fill:#fefefe}.st4{fill:#fe92a0}.st5{fill:#fe94a1}.st6{fill:#feb9c2}.st7{fill:#fedee2}.st8{fill:url(#SVGID_3_)}.st10,.st9{fill:#ed6279}.st10{opacity:.37;enable-background:new}.st11{fill:url(#SVGID_4_)}.st12{fill:#fedadf}.st13{fill:#fe93a0}.st14{fill:url(#SVGID_5_)}.st15{fill:#fedce0}.st16{fill:#feb9c1}.st17{fill:#fe94a0}.st18{fill:#feb8c1}.st19{fill:#fedde1}.st20{fill:none;stroke:#ed6279;stroke-width:1.2865;stroke-miterlimit:10}.st21{fill:#ff8083}.st22{fill:#ff8c83}.st23{fill:#ff7583}.st24{fill:#ff9183}.st25{fill:#ffa68e}.st26{fill:#9b5532}.st27,.st28{fill:none;stroke:#b73b55;stroke-width:1.2865;stroke-miterlimit:10}.st28{stroke-linecap:round}.st29{fill:#489abf}.st30{fill:#0c80a8}.st31{fill:none;stroke:#0c80a8;stroke-width:1.2865;stroke-miterlimit:10}.st32{fill:#773d24}.st33{fill:#69bbd1}.st34{fill:#5a3e74}.st35{fill:#483060}.st36{fill:none;stroke:#483060;stroke-width:1.2865;stroke-miterlimit:10}.st37{fill:#6b5284}</style><path id="XMLID_1109_" class="st0" d="M149.2 250.8s-93.3 34.9-68.3 57.9c0 0 8.6 8 25 10.5 0 0 17.4 24.4 63.9 20.1 0 0 25.3-3.3 38.6-17 6.3-6.5 6.7-4.5 15.3-7.4 7.8-2.6 24.1-8.4 31.8-20.1 16.9-25.6-65.6-45.7-106.3-44z"/><linearGradient id="SVGID_1_" gradientUnits="userSpaceOnUse" x1="207.56" y1="275.057" x2="251.691" y2="275.057"><stop offset="0" stop-color="#ff7b83"/><stop offset="1" stop-color="#ff9f83"/></linearGradient><path class="st1" d="M207.6 294.6v-48.5c1.4-.2 2.7.2 4 .5 2 .4 3.9.9 5.9.9.7 0 1.3.2 1.6.9 1.9 3.5 5.1 5.5 8.6 7 5.2 2.2 10.7 3.2 16.3 3.7 1.9.2 3.7.3 5.6.5.9.1 1.2.5 1.2 1.4 1.6 9.1.8 17.7 0 26.6 0 2.3-.9 4.3-2.1 6.2-3.7 5.8-8.7 10-15.7 10.3-4.4.2-9.2-.6-13.6-1.2-3.3-.5-6.3-1.7-9-3.7-1.6-1.2-2.6-2.7-2.8-4.6z"/><linearGradient id="SVGID_2_" gradientUnits="userSpaceOnUse" x1="184.031" y1="319.801" x2="151.477" y2="256.664"><stop offset="0" stop-color="#ff7b83"/><stop offset="1" stop-color="#ff9f83"/></linearGradient><path class="st2" d="M211.2 270h1.4c.5.2.7.7.8 1.2.3 1.5.4 2.9.5 4.4.2 5.9 1.4 11.9-.1 17.6-.8 2.8-2.9 7.5-4.8 11.8-1.5 3.5-2.6 7-5 10-3.1 3.9-6.7 7.6-11 10-5.1 2.8-10.3 4.7-16.1 5.5-2.5.4-5 1.4-7.5 1.5H167c-1.1.1-2.2-.1-3.3.1h-1c-1-.2-1.9-.2-2.9 0h-1.7c-1.9-.3-3.9-1.2-5.8-1.4-3.8-.4-7.5-1.4-11.1-2.9-4.2-1.7-7.1-5.1-10.3-8.3-3.3-3.3-5.8-7.3-7.5-11.7-1.4-3.7-2-7.4-2.1-11.3 0-.2 0-.3-.1-.4v-.7c.3-.5.1-.9.1-1.4-.1-.4.1-.8-.1-1.2v-3.1c.2-.7.2-1.4 0-2.2 0-.4-1 1.2-1 .8.3-2 .3-4 .5-5.9.2-1.8.3-2.8 2.9-3.1 8.4-.9 16.8-1.9 25.1-2.7 7.7-.8 15.5-1.7 23.2-2.5 6.8-.7 13.7-1.5 20.5-2.3 6.1-.7 12.2-1.4 18.4-1.6.2-.1.3-.2.4-.2z"/><path class="st3" d="M211.2 270c-1.4.6-2.9.5-4.3.7-15.3 1.7-30.5 3.4-45.8 5-12.8 1.4-25.5 2.8-38.3 4.2-.9.1-1.3.4-1.5 1.3-.4 2-.7 4.1-.9 6.2 0 .3.1.7-.3.9V271c0-.8.2-1 1-1h90.1z"/><path class="st4" d="M163.7 332.1c1.1-.5 2.3-.1 3.4-.2.2.1.1.2 0 .2h-3.4z"/><path class="st5" d="M159.8 332.1c1-.4 1.9-.4 2.9 0h-2.9zm-39.6-42.7c.4.7.4 1.4 0 2.2v-2.2z"/><path class="st6" d="M167 332.1v-.2h1.2c.2.1.2.2 0 .2H167z"/><path class="st7" d="M168.2 332.1v-.2h1.2v.2h-1.2z"/><linearGradient id="SVGID_3_" gradientUnits="userSpaceOnUse" x1="59.448" y1="246.078" x2="197.442" y2="160.082"><stop offset="0" stop-color="#ff7b83"/><stop offset="1" stop-color="#ff9f83"/></linearGradient><path class="st8" d="M157.2 296.1h-1.7c-1.3-.3-2.5-.1-3.8-.1h-3.1c-7.6 0-15-1-22.1-3.5-8.1-2.8-15.3-7-21.3-13.2-4.7-4.9-8.1-10.6-10.5-17-1.9-5-2.9-10.2-3.4-15.5-.3-3.4-.1-6.9-.2-10.3 0-1.7 0-2.6-1.6-2.9-1.4-.2-2.8.7-4.1.2-3.7-1.4-6.3-3.9-6.1-8.5v-5.4c0-7.2-.1-14.3 0-21.5.2-15.5 0-31 .1-46.5.1-7.9 0-15.8.1-23.7 0-4.1 1.2-8 2.8-11.7 3.7-8.8 9.9-15.6 17.2-21.5 7.2-5.8 15.3-10 23.8-13.4 11.2-4.6 22.9-7.5 34.8-9.6 4-.7 8-.9 12-1 1.7 0 3.4-.2 5.1-.1h3.3c.7-.1 1.3.1 2-.1h8.4c.9.3 1.8.1 2.6.1h3c11.4 0 22.7 2.5 33.8 4.9 5.6 1.2 11.1 2.7 16.5 4.5 8 2.7 15.4 5.6 22.8 9.6 6.5 3.5 12.2 7.4 18 12 5.4 4.2 9.4 8 13 14 2.6 4.4 4.3 8 4 13-.3 5-2.6 9.5-6 13-5.5 5.7-11.4 8.3-19 10-5 1.1-10.2 2.7-15.3 2.6-3.4-.1-6.8-.7-10.1-1-4-.4-7.9-.9-11.9-1.4-3.3-.4-6.5-1.1-9.8-.9-3.1.1-6.2.5-9.1 2-3 1.5-4.1 3.9-3.4 7.2.8 3.5 2.5 6.5 4.9 9.1 2.5 2.7 3.7 5.8 4.1 9.4.3 2.7 0 5.3-.4 8-.2 1.1-.2 2.3 0 3.5.3 1.9.2 3.8.2 5.7V226c0 3.2-.1 6.4.2 9.6.5 4.5-.7 8.7-1.7 13-1.1 4.6-2.5 9.1-4.4 13.4-2 4.6-4.5 8.8-8 12.6-3.1 3.3-6.5 6.4-10.3 8.9-5.9 3.8-12.2 6.4-18.9 8.4-5.8 1.7-11.8 3-17.8 3.7-2.7.3-5.3.3-8 .5-.1-.1-.4-.2-.7 0z"/><path id="XMLID_1066_" class="st9" d="M211.7 284.3s3.4-2.8 7.2-6.7c6.3-6.4 15.1-9.4 23.9-8.5 3 .3 5.9.1 8.3-1.1v-11.1L220 246.8l-11.7 24 3.4 13.5z"/><path id="XMLID_1064_" class="st9" d="M120.8 289.7s50 18.9 89.4-13.7l1.7-2-.4 4.2s-23.4 32.8-81.9 29.7c0 0-5.3-.4-7.6-3.8 0 .2-1.7-6.8-1.2-14.4z"/><path id="XMLID_1063_" class="st10" d="M97.2 191.8s16.6 14 28.9 18.3c0 0-25.8-11.1-34.5 5.2.1.1.1-9.3 5.6-23.5z"/><path id="XMLID_1062_" class="st9" d="M85.4 180.1s-3.7 45.8 5.2 51.5c0 0-1.1-25.4 6.6-39.9 0 .1-7-4.3-11.8-11.6z"/><linearGradient id="SVGID_4_" gradientUnits="userSpaceOnUse" x1="294.983" y1="184.751" x2="172" y2="189.196"><stop offset="0" stop-color="#ff7b83"/><stop offset="1" stop-color="#ff9f83"/></linearGradient><path class="st11" d="M246.7 261.6H245c-2-.3-5-1.2-6.9-1.5-4-.5-7.5-3.3-11.1-5.1-1.8-.9-2.4-.8-4-2-2.3-1.8-3.6-2.5-4.2-5.4-1.9-10.3-3.8-20.7-5.4-31-1.4-8.5-2.7-17-3.8-25.5-.6-5-1.2-10.1-1.8-15.1-.3-3.1-.5-6.3-.6-9.4-.2-5.4-.3-10.7-.2-16.1 0-2.3-.1-4.7.5-7 1.1-4.5 3.1-8.6 6-12.3 2.8-3.5 6.2-6 10.1-8.1 6.1-3.3 12.4-6.2 19-8.3 5.8-1.8 11.6-3.2 17.6-3.9 3.8-.4 7.7-.5 11.6-.4h4.3c4.3.1 8.7-.1 13 .8 6.3 1.3 9 2.8 11.9 8.7.9 2 2 5.9 2 8 0 18.2.1 36.8 0 55 0 6.4.2 12.6 0 19-.1 2.8 0 3.2 0 6 0 1.1-.3 3.2-1 4-2 2.4-4.7 4.2-8 4.2-1.2 0-1.4.3-1.4 1.5 0 6.9-1.7 15-4.6 21.3-2.4 5.1-5.8 8.2-10 12-5.2 4.7-10.2 7.9-16.9 9.5-2.9.7-5.8.7-8.6 1.1h-4.3c-.5-.2-1-.2-1.5 0z"/><path class="st12" d="M276.2 110.4v.2h-4.6v-.2h4.6z"/><path class="st13" d="M246.7 261.6c.5-.3 1-.3 1.4 0h-1.4z"/><radialGradient id="SVGID_5_" cx="185.224" cy="136.61" r="110.356" gradientTransform="matrix(.9787 -.2055 .1084 .5163 -10.858 104.137)" gradientUnits="userSpaceOnUse"><stop offset="0" stop-color="#ff9f83"/><stop offset="1" stop-color="#ff7b83"/></radialGradient><path class="st14" d="M79.4 141.6v-.7c.2-.5.2-1 0-1.4v-2.4c.2-.8.2-1.6 0-2.4v-1.2c.3-1.8.4-3.6.2-5.5-.4-4.2.6-8.1 2.4-11.8 3.2-6.9 7.8-12.7 13.4-17.8 4.6-4.1 9.7-7.6 15.1-10.5 7.1-3.9 14.6-7 22.3-9.4 8.7-2.7 17.5-4.8 26.5-6.2 3.5-.5 7-.6 10.5-.7 1.8-.1 3.6-.2 5.4-.1h2.7c1-.1 2.1.1 3.1-.1h7c.7.3 1.5.1 2.2.1h4.1c9.1.1 18.2.9 27.1 2.6 8.5 1.6 16.9 3.7 25 6.5 4.8 1.7 9.5 3.7 14.2 5.8 7.5 3.4 14.4 7.7 21.3 12.3 4.1 2.7 7.9 5.8 11.2 9.3 3.8 4 7.1 8.2 9 13.4.7 2 .7 4 .8 6v2.8c.2 4.5-1.7 8.3-4.5 11.7-4.9 5.8-11.3 9.1-18.4 11.1-6.2 1.7-12.5 2.5-19 2.2-3.1-.1-6.3-.7-9.4-1-4.5-.5-9-1-13.6-1.6-2.7-.3-5.3-.9-8-.7-2.7.2-5.4.5-8 1.5-3.7 1.4-5.2 4.2-4.4 8.1.5 2.5 1.7 4.6 3.1 6.7 1.2 1.7 2.8 3 3.8 4.8 2 3.5 2.3 7.3 2.1 11.3-.1 3-1.7 5-3.6 6.9-4.9 5.1-10.9 8.6-17.5 11-3.5 1.2-7 2.1-10.7 2.7-1.6.2-3.3.3-4.9.3-5 .1-10 .1-15 0-9.4-.2-18.6-2-27.7-4.5-5-1.3-9.9-2.9-14.7-4.8-7.9-3.1-15.6-6.7-22.8-11.2-6.3-3.9-12.1-8.3-17-13.7-6-6.5-10.4-14-12.7-22.7-.4-1.6-.4-3.2-.5-4.7.1-.9.2-1.5-.1-2z"/><path class="st5" d="M181 71.2c-1 .5-2.1.2-3.1.2-.2-.1-.2-.2 0-.2h3.1z"/><path class="st15" d="M302.9 127.1h.2v3.1h-.2v-3.1z"/><path class="st16" d="M177.8 71.2v.2h-2.9v-.2h2.9z"/><path class="st17" d="M79.4 134.6c.4.8.4 1.6 0 2.4v-2.4zm110.7-63.1c-.7 0-1.5.2-2.2-.2h2.2c.1 0 .2.1 0 .2z"/><path class="st18" d="M190.1 71.5v-.2h2.2c.2.1.2.1 0 .2h-2.2z"/><path class="st19" d="M192.3 71.5v-.2h2.2v.2h-2.2z"/><path class="st6" d="M79.4 139.4c.3.5.4 1 0 1.4v-1.4z"/><path id="XMLID_1010_" class="st20" d="M85.1 179.4s8.2 14.2 42.1 30.9"/><path id="XMLID_1008_" class="st20" d="M286.8 167.5s-16.4 7.7-39.1 3.6"/><path id="XMLID_1004_" class="st10" d="M258 153.7s-42.1-9.4-41.6 5.6c0 0 2.3 7.5 5.7 10.4 0 0 5.2 5 3.6 13.3l-.4 58.2s-3.5 11.9-1.3 12.8l18 6.6s-9-37.3-8.4-58.3c.8-29.3 7.8-43 24.4-48.6z"/><path id="XMLID_1003_" class="st21" d="M91 233.9s-1.3-29.1 8.8-39.1l-2.9-2.3s-7.5 6.9-5.9 41.4z"/><path id="XMLID_1002_" class="st22" d="M96.3 214s-3.7 13.8-2.8 34.8c0 0 2.2 24.7 29.2 39.2 0 0-36-20.4-19.1-73.6.1 0-2-2.5-7.3-.4z"/><path id="XMLID_1000_" class="st9" d="M224.9 188.2S228 235 223 253c-6.2 22.4-21.4 35.9-58 42 0 0 40.6-8.6 46.9-50.4l.7-44.9s8.4-3.5 12.3-11.5z"/><path id="XMLID_999_" class="st20" d="M292.2 216.2c-1.8-.3-4-1.1-6.4-2.6l-3-25.4s-.6-16-9.7-16.7"/><path id="XMLID_998_" class="st10" d="M285.9 167.8v45.8s-2.2-38.4-37.2-41.9c-.1 0 24.1 3.4 37.2-3.9z"/><path id="XMLID_997_" class="st22" d="M277.6 179.1s4.9 11.4 5.5 35.1c0 0-5.5-27.4-5.5-35.1z"/><path id="XMLID_996_" class="st22" d="M290.8 217.5S292 251 254.5 259c0 0 30.2-12 31.7-43.1l4.6 1.6z"/><g id="XMLID_993_"><ellipse id="XMLID_995_" class="st23" cx="180.5" cy="135.8" rx="27.6" ry="17.2"/><path id="XMLID_994_" class="st9" d="M180.5 123.9c13.8 0 25.2 6.3 27.2 14.5.2-.9.4-1.7.4-2.6 0-9.5-12.4-17.2-27.6-17.2-15.2 0-27.6 7.7-27.6 17.2 0 .9.1 1.8.4 2.6 2-8.2 13.4-14.5 27.2-14.5z"/></g><path id="XMLID_992_" class="st24" d="M302.3 135.4v74.5s-2.2 8.6-12.9 4.9c0 0 8.3-2.8 8.3-12.6v-60s4-3.7 4.6-6.8"/><path id="XMLID_991_" class="st25" d="M153.3 138.5s1.6 13.5 26.7 14.8c18.2.9 27.2-9.9 27.8-14.8 0 0-4.7 13.4-28.1 13.4-20.6 0-26.4-13.4-26.4-13.4z"/><g id="XMLID_986_"><g id="XMLID_988_"><ellipse id="XMLID_990_" class="st23" cx="138.2" cy="170.1" rx="16.8" ry="10.4"/><path id="XMLID_989_" class="st9" d="M138.2 162.9c8.4 0 15.4 3.8 16.6 8.9.1-.5.2-1.1.2-1.6 0-5.8-7.5-10.4-16.8-10.4s-16.8 4.7-16.8 10.4c0 .5.1 1.1.2 1.6 1.2-5.1 8.2-8.9 16.6-8.9z"/></g><path id="XMLID_987_" class="st25" d="M121.6 171.7s2.3 9 17.5 8.9c0 0 13.2-.3 15.7-8.9 0 0-3 7.5-15.7 8 0 0-13.1.5-17.5-8z"/></g><g id="XMLID_981_"><g id="XMLID_983_"><ellipse id="XMLID_985_" class="st23" cx="120.3" cy="139.2" rx="16.8" ry="10.4"/><path id="XMLID_984_" class="st9" d="M120.3 131.9c8.4 0 15.4 3.8 16.6 8.9.1-.5.2-1.1.2-1.6 0-5.8-7.5-10.4-16.8-10.4s-16.8 4.7-16.8 10.4c0 .5.1 1.1.2 1.6 1.3-5 8.2-8.9 16.6-8.9z"/></g><path id="XMLID_982_" class="st25" d="M103.7 140.8s2.3 9 17.5 8.9c0 0 13.2-.3 15.7-8.9 0 0-3 7.5-15.7 8 0-.1-13.1.4-17.5-8z"/></g><g id="XMLID_976_"><g id="XMLID_978_"><ellipse id="XMLID_980_" class="st23" cx="126.1" cy="108.8" rx="16.8" ry="10.4"/><path id="XMLID_979_" class="st9" d="M126.1 101.6c8.4 0 15.4 3.8 16.6 8.9.1-.5.2-1.1.2-1.6 0-5.8-7.5-10.4-16.8-10.4s-16.8 4.7-16.8 10.4c0 .5.1 1.1.2 1.6 1.2-5.1 8.2-8.9 16.6-8.9z"/></g><path id="XMLID_977_" class="st25" d="M109.5 110.4s2.3 9 17.5 8.9c0 0 13.2-.3 15.7-8.9 0 0-3 7.5-15.7 8 0 0-13.1.4-17.5-8z"/></g><g id="XMLID_971_"><g id="XMLID_973_"><ellipse id="XMLID_975_" class="st23" cx="161.8" cy="93.2" rx="16.8" ry="10.4"/><path id="XMLID_974_" class="st9" d="M161.8 86c8.4 0 15.4 3.8 16.6 8.9.1-.5.2-1.1.2-1.6 0-5.8-7.5-10.4-16.8-10.4S145 87.6 145 93.3c0 .5.1 1.1.2 1.6 1.2-5.1 8.2-8.9 16.6-8.9z"/></g><path id="XMLID_972_" class="st25" d="M145.2 94.8s2.3 9 17.5 8.9c0 0 13.2-.3 15.7-8.9 0 0-3 7.5-15.7 8 0 0-13.1.5-17.5-8z"/></g><g id="XMLID_966_"><g id="XMLID_968_"><ellipse id="XMLID_970_" class="st23" cx="202.4" cy="95.1" rx="16.8" ry="10.4"/><path id="XMLID_969_" class="st9" d="M202.4 87.8c8.4 0 15.4 3.8 16.6 8.9.1-.5.2-1.1.2-1.6 0-5.8-7.5-10.4-16.8-10.4s-16.8 4.7-16.8 10.4c0 .5.1 1.1.2 1.6 1.2-5 8.2-8.9 16.6-8.9z"/></g><path id="XMLID_967_" class="st25" d="M185.8 96.7s2.3 9 17.5 8.9c0 0 13.2-.3 15.7-8.9 0 0-3 7.5-15.7 8 0-.1-13.1.4-17.5-8z"/></g><g id="XMLID_961_"><g id="XMLID_963_"><ellipse id="XMLID_965_" class="st23" cx="243.6" cy="106.8" rx="16.8" ry="10.4"/><path id="XMLID_964_" class="st9" d="M243.6 99.5c8.4 0 15.4 3.8 16.6 8.9.1-.5.2-1.1.2-1.6 0-5.8-7.5-10.4-16.8-10.4s-16.8 4.7-16.8 10.4c0 .5.1 1.1.2 1.6 1.3-5.1 8.2-8.9 16.6-8.9z"/></g><path id="XMLID_962_" class="st25" d="M227 108.4s2.3 9 17.5 8.9c0 0 13.2-.3 15.7-8.9 0 0-3 7.5-15.7 8 0-.1-13.1.4-17.5-8z"/></g><g id="XMLID_956_"><g id="XMLID_958_"><ellipse id="XMLID_960_" class="st23" cx="263.1" cy="133" rx="16.8" ry="10.4"/><path id="XMLID_959_" class="st9" d="M263.1 125.8c8.4 0 15.4 3.8 16.6 8.9.1-.5.2-1.1.2-1.6 0-5.8-7.5-10.4-16.8-10.4s-16.8 4.7-16.8 10.4c0 .5.1 1.1.2 1.6 1.3-5.1 8.2-8.9 16.6-8.9z"/></g><path id="XMLID_957_" class="st25" d="M246.5 134.6s2.3 9 17.5 8.9c0 0 13.2-.3 15.7-8.9 0 0-3 7.5-15.7 8 0 0-13.1.5-17.5-8z"/></g><path id="XMLID_936_" class="st26" d="M194.7 66.4s-2.8-5.2-3.3-9c-.7-5.9-.4-11.9 4.3-18.2 3.5-4.7 13.5-10.6 22-7.5 0 0-10 5.8-6 16.3s-4.5 19.5-4.5 19.5-4.3 2.4-12.5-1.1z"/><path id="XMLID_1012_" class="st27" d="M120.8 289.7l.2 7.9s0 37.2 48.1 34.1c0 0 41.3-.5 42.7-40.9V274s13.8-14.7 13.8-41c0-15.9-.1-46.5-.1-46.5"/><path id="XMLID_3_" class="st28" d="M211.7 274.2c-17.3 20.9-58 21.7-58 21.7C86 295.8 91 239.1 91 239.1V234c-12.9.3-12.3-9.4-12.3-9.4l.8-95.4s-1.9-42.3 76.9-56.6c0 0 69.1-12.2 122.4 24.1 0 0 31.4 18.5 22.5 38.8 0 0-6.2 18.2-39.1 18.5 0 0-22.2-2.5-29.2-3.4 0 0-13.2-1-15.7 5.5-.6 1.6-1.3 6.8 4.9 13.8 0 0 5.8 4.9 3.5 16.4l-.2.2c-13 27-71 15-71 15-81-20-75-64-75-64"/><path id="XMLID_1009_" class="st28" d="M302.5 132l.7 76.3c0 1.8-.6 3.6-1.9 5-1.7 1.8-4.8 3.2-8.8 3.2"/><path id="XMLID_1007_" class="st27" d="M292.6 216.3s3.9 41.5-43 45.4c0 0-14.5-.9-26.6-8.8"/><path id="XMLID_1006_" class="st27" d="M251.4 261.9v19.6s2.3 21-21.8 22.7c-5.1.4-12.6-1.5-19.1-4.7"/><g id="XMLID_948_"><path id="XMLID_955_" class="st29" d="M171.6 64.2c-1.5 1.2-1.8 3.2-1.7 5.4l3.5 67.9c.1 2.5 2.3 4.5 4.8 4.4h1.4c2.4-.1 4.4-2 4.5-4.5l2.8-67.9c.1-2-1.1-5-2.2-6.4"/><path id="XMLID_954_" class="st30" d="M184.9 63.5c1.2 1.5 2.1 4.1 2.1 6.1l-2.8 67.9c-.1 2.4-2.1 4.4-4.5 4.5h-1.4c-2.5.1-4.7-1.9-4.8-4.4L170 69.7c-.1-2.2.1-3.6 1.4-5.2 0 0 5.6 2.2 11 .2 0 0-7.1.9-4 6.1 0 0-4.3-1.7-4.2 6.4s1 59.2 1.9 61.5c.9 2.4 5 2.3 5.7-1.2s3.9-67.6 3.9-67.6.4-2.6-.8-6.4z"/><g id="XMLID_951_"><path id="XMLID_953_" class="st26" d="M187.1 58.2c-.9 6.2-5.2 8.2-9.7 8.2s-7.9-2.6-9.1-8.5c0 0-6.8-23.8-5.9-27.7 0 0 13.3-10.2 31.2-1.2l-6.5 29.2z"/><path id="XMLID_952_" class="st31" d="M186.3 67.9c-7.4 5.1-16 1.1-16 1.1"/></g><path id="XMLID_950_" class="st32" d="M162.4 30.2s.5 9.4 3.6 18.5c0 0 2 14.6 7.2 16.8 0 0 7.5 3.5 11.8-2.3 0 0 1.8-1.7 2.6-7.7l5.9-26.5s-6.2 29.1-9.1 31.4c-2.9 2.3 0-33.1 0-33.1s-2 34.8-4.8 35.1c-3.1.3-4.3-35.7-4.3-35.7s1.2 33.4-.5 34.8c-1.7 1.4-6.5-32.9-6.5-32.9s4.8 33.7 2.8 32c-1.9-1.7-8.7-30.4-8.7-30.4z"/><path id="XMLID_949_" class="st33" d="M184.9 70.9l-3.1 65.6s.3 3.8-3.5 3.6c0 0 1.1-.5 1.7-5.7.6-5.2 2.9-63.2 2.9-63.2l2-.3z"/></g><g id="XMLID_937_"><path id="XMLID_947_" class="st34" d="M194.9 66.2c-1.7 1-2.2 2.9-2.4 5.2l-5.6 67.8c-.2 2.5 1.6 4.8 4.2 5l1.4.1c2.4.3 4.7-1.4 5.1-3.8l11.8-67c.3-2-.5-5.1-1.3-6.7"/><path id="XMLID_946_" class="st35" d="M208.2 67.3c1 1.7 1.6 4.3 1.2 6.3l-11.8 67c-.4 2.4-2.6 4.1-5.1 3.8l-1.4-.1c-2.5-.3-4.4-2.5-4.2-5l5.6-67.8c.2-2.2.6-3.6 2.1-5 0 0 5.2 2.9 10.9 1.6 0 0-7.1 0-4.8 5.5 0 0-4-2.3-5 5.7s-6.8 58.8-6.2 61.3 4.7 2.9 5.9-.5 12.8-66.5 12.8-66.5.7-2.4 0-6.3z"/><g id="XMLID_943_"><path id="XMLID_945_" class="st36" d="M193.1 70.7s8 5.2 16 1.1"/></g><path id="XMLID_940_" class="st37" d="M207.3 74.6l-11.8 64.7s-.2 3.8-4 3.1c0 0 1.1-.3 2.4-5.4 1.3-5.1 11.3-62.3 11.3-62.3l2.1-.1z"/></g><path id="XMLID_935_" class="st32" d="M194.7 66.4s-12.2-21.5 8.3-32.9c0 0 6.6-4.5 14.8-1.8 0 0-16.6-1.5-20.5 11.5s.3 20.2.3 20.2-5.1-21.1 12.5-28.5c0 0-12.5 6.6-9.5 28.5 0 0-2.3-20 11.4-28.2l3.4-1.8s-13.1 4.8-12.5 21.8l.6 9.7s3.1-4 3.1-11.1.5-13.8 7.1-18.3c0 0-6 3.7-5.1 17.2 0 0 .3 9.8-2.2 12.8 0 0 7.2-5.8 4.8-18.9 0 0 5.2 10.2-3.8 20.9-.1 0-5.1 2.7-12.7-1.1z"/></svg>