<?xml version="1.0" encoding="UTF-8"?>
<svg width="121px" height="60px" viewBox="0 0 121 60" version="1.1" xmlns="http://www.w3.org/2000/svg" xmlns:xlink="http://www.w3.org/1999/xlink">
    <!-- Generator: Sketch 49.3 (51167) - http://www.bohemiancoding.com/sketch -->
    <title>Page 1</title>
    <desc>Created with Sketch.</desc>
    <defs>
        <polygon id="path-1" points="0 0.478796491 24.7376937 0.478796491 24.7376937 59.9291825 0 59.9291825"></polygon>
        <polygon id="path-3" points="0.177934821 1.00114912 9.62922321 1.00114912 9.62922321 12.4905526 0.177934821 12.4905526"></polygon>
    </defs>
    <g id="ASSETS" stroke="none" stroke-width="1" fill="none" fill-rule="evenodd">
        <g id="v" transform="translate(-81.000000, -73.000000)">
            <g id="Page-1" transform="translate(81.000000, 72.000000)">
                <g id="Group-3" transform="translate(0.000000, 0.591807)">
                    <mask id="mask-2" fill="white">
                        <use xlink:href="#path-1"></use>
                    </mask>
                    <g id="Clip-2"></g>
                    <path d="M24.7182473,57.7182 C22.2863634,59.1254807 19.4547473,59.9291825 16.4351491,59.9291825 C7.35906875,59.9291825 0.0288455357,52.8510421 -0.000324107143,43.6496737 C-0.0273330357,34.6666211 3.92353304,28.1032351 7.82362232,20.6655158 C13.6316223,9.59562105 15.7858545,5.6156386 16.3335955,0.478796491 C16.3335955,0.478796491 19.0366491,3.73427018 18.6347562,8.22044561 C18.3581848,11.3143228 16.337917,16.8278667 13.7731491,22.9150246 C11.7085866,27.8142877 9.34260446,32.8173579 8.11855982,36.7288491 C6.85670268,40.7634105 6.75947054,43.4709544 7.57946161,46.8066912 C7.87872054,48.0234807 8.34543482,49.2509719 8.98500625,50.3671649 C13.5948902,58.4009719 23.9328277,57.8369895 24.7376938,57.7085684 L24.7182473,57.7182 Z" id="Fill-1" fill="#EC1944" mask="url(#mask-2)"></path>
                </g>
                <path d="M24.3637821,38.1349526 C26.9339518,39.9446193 26.7902643,42.3557246 26.7902643,42.3557246 C26.7902643,45.1553035 24.4988268,47.4251456 21.6736929,47.4251456 C18.8474786,47.4251456 16.5549607,45.1553035 16.5549607,42.3557246 C16.5549607,42.0389526 16.6629964,41.3369175 16.6629964,41.3369175 C17.4657018,37.2124614 21.5840232,29.3006544 22.8545232,24.1520404 C24.2049696,18.6716719 20.4982643,13.4074789 20.4982643,13.4074789 C20.4982643,13.4074789 21.3744339,15.3605491 16.0061393,27.2994263 C13.5115946,32.8461456 11.9796482,36.392707 11.1791036,38.582286 C10.3267018,40.9120579 10.3461482,42.7709526 10.3461482,43.4376719 C10.3461482,49.6179351 15.4227464,54.6242158 21.6704518,54.5889 C27.8414518,54.552514 32.8759161,49.5248298 32.8618714,43.4130579 C32.8489071,37.3430228 27.5357107,33.5214263 24.3573,31.6389877 C22.4699161,30.5195842 22.4699161,28.7644965 22.4699161,28.7644965 L21.6477643,31.3553912 C20.7435054,34.2726895 21.8487107,36.4376544 23.9780946,37.8684789 C24.1088179,37.9573035 24.2384607,38.0461281 24.3637821,38.1349526" id="Fill-4" fill="#EC1944"></path>
                <path d="M42.3478393,22.0719404 C42.7508125,22.0719404 43.0781607,22.3962035 43.0781607,22.7953789 L43.0781607,35.0949053 C43.0781607,35.5058526 43.1915982,35.8279754 43.4217143,36.0623439 C43.65075,36.2967123 43.9726964,36.4133614 44.3886339,36.4133614 C44.5452857,36.4133614 44.7321875,36.3930281 44.9460982,36.3502211 C44.9493393,36.3491509 44.9515,36.3491509 44.9547411,36.3480807 C45.2885714,36.2817298 45.6148393,36.483993 45.6883036,36.813607 C45.7585268,37.1357298 45.5586607,37.4546421 45.2356339,37.5349053 C45.1016696,37.5691509 44.9590625,37.5991158 44.8067321,37.6269404 C44.4124018,37.6975719 44.0731696,37.7328877 43.786875,37.7328877 C43.1138125,37.7328877 42.5844375,37.545607 42.1965893,37.1689053 C41.8109018,36.7932737 41.6164375,36.264607 41.6164375,35.5839754 L41.6164375,22.7953789 C41.6164375,22.3962035 41.9437857,22.0719404 42.3478393,22.0719404" id="Fill-6" fill="#191919"></path>
                <path d="M48.4681705,36.8818842 L48.4681705,27.242814 C48.4681705,26.8436386 48.7955187,26.5193754 49.1995723,26.5193754 C49.6025455,26.5193754 49.9298938,26.8436386 49.9298938,27.242814 L49.9298938,36.8818842 C49.9298938,37.2821298 49.6025455,37.6053228 49.1995723,37.6053228 C48.7955187,37.6053228 48.4681705,37.2821298 48.4681705,36.8818842 M48.4681705,23.4768667 L48.4681705,22.7951649 C48.4681705,22.3959895 48.7955187,22.0717263 49.1995723,22.0717263 C49.6025455,22.0717263 49.9298938,22.3959895 49.9298938,22.7951649 L49.9298938,23.4768667 C49.9298938,23.8760421 49.6025455,24.2003053 49.1995723,24.2003053 C48.7955187,24.2003053 48.4681705,23.8760421 48.4681705,23.4768667" id="Fill-8" fill="#191919"></path>
                <path d="M59.4247205,36.5595474 C59.5219527,36.8538456 59.3728634,37.1727579 59.084408,37.289407 C58.9115509,37.3600386 58.7408545,37.4263895 58.6490241,37.4563544 C58.4351134,37.5280561 58.1909527,37.5911965 57.9187027,37.6479158 C57.6464527,37.7046351 57.3612384,37.7335298 57.0608991,37.7335298 C56.7454348,37.7335298 56.4440152,37.6907228 56.1577205,37.6061789 C55.8714259,37.5205649 55.620783,37.3889333 55.405792,37.2112842 C55.1908009,37.0347053 55.0190241,36.8110386 54.8904616,36.5413544 C54.7618991,36.2716702 54.6970777,35.9602491 54.6970777,35.6049509 L54.6970777,27.6685298 L53.730158,27.6685298 C53.4103723,27.6685298 53.1500062,27.4116877 53.1500062,27.0938456 C53.1500062,26.7760035 53.4103723,26.5191614 53.730158,26.5191614 L54.6970777,26.5191614 L54.6970777,23.4980561 C54.6970777,23.0978105 55.0244259,22.7746175 55.4273991,22.7746175 C55.8303723,22.7746175 56.1577205,23.0978105 56.1577205,23.4980561 L56.1577205,26.5191614 L58.1553009,26.5191614 C58.476167,26.5191614 58.7354527,26.7760035 58.7354527,27.0938456 C58.7354527,27.4116877 58.476167,27.6685298 58.1553009,27.6685298 L56.1577205,27.6685298 L56.1577205,35.2004246 C56.1858098,35.6124421 56.3327384,35.9131614 56.5985062,36.105793 C56.8631937,36.2962842 57.1667741,36.3926 57.511408,36.3926 C57.9262652,36.3926 58.2914259,36.3251789 58.6068902,36.1903368 C58.6090509,36.1892667 58.612292,36.1881965 58.615533,36.1860561 C58.9385598,36.0480035 59.311283,36.2138807 59.4193187,36.5434947 L59.4247205,36.5595474 Z" id="Fill-10" fill="#191919"></path>
                <path d="M67.6919375,36.5526982 C67.79025,36.850207 67.639,37.1734 67.3462232,37.2921895 C67.1766071,37.3606807 67.0091518,37.4259614 66.9184018,37.4569965 C66.7044911,37.5276281 66.4603304,37.5918386 66.1880804,37.6474877 C65.9158304,37.704207 65.6306161,37.7331018 65.3281161,37.7331018 C65.0137321,37.7331018 64.7133929,37.6902947 64.4270982,37.6057509 C64.1408036,37.5201368 63.8890804,37.3895754 63.6751696,37.2119263 C63.4601786,37.0342772 63.2884018,36.8116807 63.1598393,36.5419965 C63.0312768,36.2723123 62.9664554,35.9598211 62.9664554,35.605593 L62.9664554,27.6681018 L61.9995357,27.6681018 C61.67975,27.6681018 61.4193839,27.4112596 61.4193839,27.0944877 C61.4193839,26.7766456 61.67975,26.5198035 61.9995357,26.5198035 L62.9664554,26.5198035 L62.9664554,23.4976281 C62.9664554,23.0984526 63.2938036,22.7741895 63.6967768,22.7741895 C64.09975,22.7741895 64.4270982,23.0984526 64.4270982,23.4976281 L64.4270982,26.5198035 L66.4246786,26.5198035 C66.7444643,26.5198035 67.0048304,26.7766456 67.0048304,27.0944877 C67.0048304,27.4112596 66.7444643,27.6681018 66.4246786,27.6681018 L64.4270982,27.6681018 L64.4270982,35.2010667 C64.4551875,35.6130842 64.6021161,35.9138035 64.8678839,36.1053649 C65.1325714,36.2969263 65.4361518,36.3932421 65.7797054,36.3932421 C66.1956429,36.3932421 66.5608036,36.3258211 66.8751875,36.1909789 C66.8784286,36.1888386 66.8816696,36.1877684 66.8849107,36.1866982 C67.2079375,36.0486456 67.5795804,36.2134526 67.6886964,36.5441368 L67.6919375,36.5526982 Z" id="Fill-12" fill="#191919"></path>
                <path d="M71.5576714,22.0719404 C71.9606446,22.0719404 72.2879929,22.3962035 72.2879929,22.7953789 L72.2879929,35.0949053 C72.2879929,35.5058526 72.4025107,35.8279754 72.6315464,36.0623439 C72.8605821,36.2967123 73.1825286,36.4133614 73.5984661,36.4133614 C73.7561982,36.4133614 73.9420196,36.3930281 74.1570107,36.3502211 C74.1591714,36.3491509 74.1624125,36.3491509 74.1645732,36.3480807 C74.4984036,36.2817298 74.8246714,36.483993 74.8981357,36.813607 C74.9683589,37.1357298 74.7684929,37.4546421 74.4465464,37.5349053 C74.3125821,37.5691509 74.1688946,37.5991158 74.0165643,37.6269404 C73.6233143,37.6975719 73.2840821,37.7328877 72.9967071,37.7328877 C72.3236446,37.7328877 71.7942696,37.545607 71.4075018,37.1689053 C71.0207339,36.7932737 70.82735,36.264607 70.82735,35.5839754 L70.82735,22.7953789 C70.82735,22.3962035 71.1546982,22.0719404 71.5576714,22.0719404" id="Fill-14" fill="#191919"></path>
                <path d="M84.6400402,31.4772842 C85.7636116,31.4772842 86.4852902,30.2572842 85.8986563,29.3069684 C85.7355223,29.0426351 85.5421384,28.7943544 85.3152634,28.5835298 C84.9414598,28.2378632 84.527683,27.9521263 84.0480045,27.7541439 C83.5683259,27.5550912 83.0562366,27.4555649 82.5117366,27.4555649 C81.9672366,27.4555649 81.4519063,27.5550912 80.9657455,27.7541439 C80.4774241,27.9521263 80.0528438,28.2293018 79.687683,28.5835298 C79.321442,28.9377579 79.0286652,29.3636877 78.807192,29.8602491 C78.5846384,30.3568105 78.4517545,30.8961789 78.4085402,31.4772842 L84.6400402,31.4772842 Z M82.5117366,37.8180737 C81.6949866,37.8180737 80.9473795,37.6661088 80.2667545,37.3611088 C79.5861295,37.0561088 78.9962545,36.6376702 78.4960491,36.105793 C77.993683,35.5739158 77.6036741,34.9596351 77.324942,34.2650912 C77.0451295,33.5705474 76.9057634,32.8246351 76.9057634,32.0305649 C76.9057634,31.250407 77.0451295,30.5162667 77.324942,29.8281439 C77.6036741,29.1400211 77.990442,28.5375123 78.4841652,28.0195474 C78.9789688,27.5015825 79.5699241,27.0906351 80.2559509,26.7856351 C80.9441384,26.4806351 81.6885045,26.3276 82.4912098,26.3276 C83.3068795,26.3276 84.0544866,26.4806351 84.7351116,26.7856351 C85.4157366,27.0906351 86.025058,27.4833895 86.4863705,28.0302491 C86.6214152,28.1907754 86.7456562,28.3534421 86.8590937,28.5150386 C88.0582902,30.2348105 86.7759063,32.5838456 84.6648884,32.5838456 L78.4301473,32.5838456 C78.4733616,33.1799333 78.613808,33.7289333 78.8504063,34.232986 C79.0859241,34.7359684 79.3905848,35.1726 79.7622277,35.5418105 C80.1349509,35.9110211 80.5606116,36.1978281 81.0402902,36.4033018 C81.5199688,36.6087754 82.032058,36.7115123 82.576558,36.7115123 C82.9341563,36.7115123 83.2928348,36.6622842 83.650433,36.5627579 C84.0080313,36.4643018 84.3386205,36.3283895 84.6389598,36.1593018 C84.9392991,35.9880737 85.2104688,35.7793895 85.4546295,35.5311088 C85.5896741,35.3941263 85.7063527,35.2485825 85.8057455,35.0966175 C85.9537545,34.8708105 86.2357277,34.7712842 86.4971741,34.8419158 C86.929317,34.9574947 87.1054152,35.4679684 86.8396473,35.825407 C86.751058,35.9441965 86.6549062,36.0587053 86.551192,36.1689333 C86.2357277,36.5028281 85.870567,36.7939158 85.4546295,37.0421965 C85.0397723,37.2904772 84.5806205,37.4809684 84.0793348,37.6158105 C83.5791295,37.7506526 83.0562366,37.8180737 82.5117366,37.8180737 Z" id="Fill-16" fill="#191919"></path>
                <path d="M47.5091375,56.7538649 C48.1249411,56.7538649 48.6878071,56.6297246 49.1966554,56.3803737 C49.7033429,56.1331632 50.1408875,55.7992684 50.5060482,55.3808298 C50.8712089,54.9623912 51.1575036,54.4872333 51.3649321,53.9553561 C51.5734411,53.4234789 51.676075,52.8734088 51.676075,52.3062158 C51.676075,51.7251105 51.5810036,51.1643386 51.3865393,50.6249702 C51.1931554,50.0866719 50.9209054,49.6072333 50.5708696,49.1898649 C50.2197536,48.7703561 49.7973339,48.4375316 49.3025304,48.1892509 C48.8088071,47.9409702 48.2686286,47.8157596 47.6809143,47.8157596 C47.2368875,47.8157596 46.8220304,47.8917421 46.4352625,48.0394263 C46.0484946,48.1892509 45.6898161,48.391514 45.3613875,48.6462158 C45.0318786,48.9019877 44.7391018,49.196286 44.4798161,49.5291105 C44.2226911,49.8630053 44.0087804,50.2140228 43.8370036,50.5821632 L43.8370036,54.0302684 C43.8931821,54.4123211 44.0476732,54.7708298 44.2972357,55.1047246 C44.5489589,55.4386193 44.8492982,55.7254263 45.2004143,55.9662158 C45.5515304,56.2070053 45.9307357,56.3996368 46.3391107,56.5409 C46.7474857,56.6832333 47.1364143,56.7538649 47.5091375,56.7538649 M47.8526911,58.029514 C46.9646375,58.029514 46.1522089,57.8101281 45.4154054,57.370286 C44.6775214,56.931514 44.1016911,56.3643211 43.6857536,55.6676368 L43.6857536,57.169093 C43.6857536,57.5276018 43.3918964,57.8176193 43.0299768,57.8176193 C42.6691375,57.8176193 42.3752804,57.5276018 42.3752804,57.169093 L42.3752804,43.0074614 C42.3752804,42.6072158 42.7026286,42.2840228 43.1056018,42.2840228 C43.5096554,42.2840228 43.8370036,42.6072158 43.8370036,43.0074614 L43.8370036,49.0507421 C44.3372089,48.2994789 44.9389679,47.6926895 45.6412,47.2314439 C46.3423518,46.7701982 47.1591018,46.5401105 48.0892893,46.5401105 C48.8768696,46.5401105 49.5823429,46.7027772 50.2057089,47.0291807 C50.8279946,47.3555842 51.35845,47.7922158 51.7949143,48.3380053 C52.2313786,48.8837947 52.56845,49.501286 52.8039679,50.1894088 C53.0405661,50.8775316 53.158325,51.5827772 53.158325,52.3062158 C53.158325,53.0863737 53.0232804,53.8247947 52.7510304,54.5193386 C52.4787804,55.2149526 52.1060571,55.8206719 51.6339411,56.3386368 C51.161825,56.8566018 50.5989589,57.2675491 49.9475036,57.5736193 C49.2949679,57.8775491 48.5981375,58.029514 47.8526911,58.029514" id="Fill-18" fill="#191919"></path>
                <path d="M62.2870187,47.3856561 C62.2870187,47.7270421 62.0298937,48.0095684 61.6874205,48.0566561 C60.9473759,48.159393 60.2872777,48.4119544 59.7092866,48.8164807 C58.9789652,49.3269544 58.4636348,50.0300596 58.1632955,50.9236561 L58.1632955,57.1360246 C58.1632955,57.5127263 57.8553937,57.8177263 57.4761884,57.8177263 L57.3897598,57.8177263 C57.0094741,57.8177263 56.7026527,57.5127263 56.7026527,57.1360246 L56.7026527,47.4113404 C56.7026527,47.0367789 57.0094741,46.7317789 57.3897598,46.7317789 C57.7689652,46.7317789 58.0779473,47.0367789 58.0779473,47.4113404 L58.0779473,49.3911649 C58.4917241,48.5403754 59.0513491,47.8736561 59.7525009,47.391007 C60.1241437,47.1352351 60.5087509,46.9415333 60.9117241,46.8280947 C61.1072687,46.7713754 61.3222598,46.7360596 61.5242866,46.713586 C61.9315812,46.6697088 62.2870187,46.9811298 62.2870187,47.3856561" id="Fill-20" fill="#191919"></path>
                <path d="M68.3228661,56.9242368 C69.0812768,56.9242368 69.7802679,56.7819035 70.4165982,56.498307 C71.0540089,56.2147105 71.5380089,55.8380088 71.8675179,55.3703421 C71.9960804,55.2429912 72.0922321,55.1049386 72.1570536,54.955114 C72.221875,54.8063596 72.2542857,54.668307 72.2542857,54.539886 L72.2542857,52.7323596 C71.7670446,52.5472193 71.2625179,52.404886 70.739625,52.3064298 C70.2167321,52.2079737 69.6841161,52.1576754 69.1396161,52.1576754 C68.1089554,52.1576754 67.2695179,52.3695702 66.6267054,52.7965702 C65.9817321,53.2214298 65.6587054,53.7811316 65.6587054,54.4767456 C65.6587054,54.8170614 65.7278482,55.1359737 65.8639732,55.4334825 C66.0000982,55.7320614 66.1848393,55.9910439 66.4214375,56.2104298 C66.6580357,56.430886 66.9410893,56.6042544 67.2695179,56.7316053 C67.6001071,56.8600263 67.9501429,56.9242368 68.3228661,56.9242368 Z M72.4465893,55.9653596 C71.9323393,56.6342193 71.2830446,57.1436228 70.5041071,57.4978509 C69.7230089,57.8520789 68.8824911,58.0297281 67.9793125,58.0297281 C67.4488571,58.0297281 66.958375,57.9409035 66.5078661,57.7643246 C66.0562768,57.5866754 65.6630268,57.3426754 65.3270357,57.0301842 C64.9899643,56.7187632 64.7285179,56.3527632 64.5426964,55.9343246 C64.3557946,55.5169561 64.2628839,55.0664123 64.2628839,54.582693 C64.2628839,54.101114 64.3774018,53.6537807 64.6075179,53.2428333 C64.8354732,52.831886 65.1574196,52.4765877 65.5733571,52.1780088 C65.9892946,51.8805 66.4830179,51.6504123 67.0556071,51.4866754 C67.6281964,51.3250789 68.2580446,51.2416053 68.9462321,51.2416053 C69.5177411,51.2416053 70.0989732,51.2919035 70.6866875,51.3914298 C71.2722411,51.4909561 71.7962143,51.6332895 72.2542857,51.8173596 L72.2542857,50.8167456 C72.2542857,49.8386053 71.9744732,49.0605877 71.4159286,48.4869737 C70.8584643,47.9122895 70.0849286,47.6254825 69.0964018,47.6254825 C68.5238125,47.6254825 67.9371786,47.7389211 67.3354196,47.9657982 C66.8903125,48.1338158 66.4408839,48.3553421 65.9882143,48.6325175 C65.7235268,48.794114 65.3745714,48.6967281 65.2298036,48.4249035 C65.0947589,48.1744825 65.1779464,47.8619912 65.4221071,47.714307 C66.7174554,46.9309386 67.9782321,46.5403246 69.2033571,46.5403246 C70.6067411,46.5403246 71.7097857,46.9298684 72.5114107,47.7100263 C73.3130357,48.4901842 73.7149286,49.5689211 73.7149286,50.9440965 L73.7149286,55.9450263 L73.7149286,57.1907105 C73.7149286,57.5395877 73.4297143,57.822114 73.0775179,57.822114 C72.7242411,57.822114 72.4401071,57.5374474 72.4411875,57.1875 L72.4465893,55.9653596 Z" id="Fill-22" fill="#191919"></path>
                <g id="Group-26" transform="translate(111.276786, 45.539175)">
                    <mask id="mask-4" fill="white">
                        <use xlink:href="#path-3"></use>
                    </mask>
                    <g id="Clip-25"></g>
                    <path d="M4.23791696,11.3850614 C4.99632768,11.3850614 5.69531875,11.2427281 6.33164911,10.9591316 C6.96905982,10.6755351 7.45305982,10.2988333 7.78256875,9.83116667 C7.91113125,9.70381579 8.00728304,9.56576316 8.07210446,9.4159386 C8.13692589,9.26718421 8.16933661,9.12913158 8.16933661,9.00071053 L8.16933661,7.19318421 C7.68209554,7.00804386 7.17756875,6.86571053 6.65467589,6.76725439 C6.13178304,6.66879825 5.59916696,6.6185 5.05466696,6.6185 C4.02400625,6.6185 3.18456875,6.83039474 2.54175625,7.25739474 C1.89678304,7.68225439 1.57375625,8.24195614 1.57375625,8.93757018 C1.57375625,9.27788596 1.64289911,9.59679825 1.77902411,9.89430702 C1.91514911,10.192886 2.09989018,10.4518684 2.33648839,10.6712544 C2.57308661,10.8917105 2.85614018,11.0650789 3.18456875,11.1924298 C3.51515804,11.3208509 3.86519375,11.3850614 4.23791696,11.3850614 Z M8.36164018,10.4261842 C7.84739018,11.0950439 7.19809554,11.6044474 6.41915804,11.9586754 C5.63805982,12.3129035 4.79754196,12.4905526 3.89436339,12.4905526 C3.36390804,12.4905526 2.87342589,12.4017281 2.42291696,12.2251491 C1.97132768,12.0475 1.57807768,11.8035 1.24208661,11.4910088 C0.905015179,11.1795877 0.64356875,10.8135877 0.457747321,10.3951491 C0.270845536,9.9777807 0.177934821,9.52723684 0.177934821,9.04351754 C0.177934821,8.5619386 0.292452679,8.11460526 0.52256875,7.70365789 C0.750524107,7.29271053 1.07247054,6.93741228 1.48840804,6.63883333 C1.90434554,6.34132456 2.39806875,6.11123684 2.97065804,5.9475 C3.54324732,5.78590351 4.17309554,5.70242982 4.86128304,5.70242982 C5.43279196,5.70242982 6.01402411,5.75272807 6.60173839,5.85225439 C7.18729196,5.9517807 7.71126518,6.09411404 8.16933661,6.27818421 L8.16933661,5.27757018 C8.16933661,4.29942982 7.88952411,3.52141228 7.33097946,2.94779825 C6.77351518,2.37311404 5.99997946,2.08630702 5.01145268,2.08630702 C4.43886339,2.08630702 3.85222946,2.19974561 3.25047054,2.42662281 C2.80536339,2.59464035 2.35593482,2.81616667 1.90326518,3.09334211 C1.63857768,3.2549386 1.28962232,3.15755263 1.14485446,2.88572807 C1.00980982,2.63530702 1.09299732,2.32281579 1.33715804,2.17513158 C2.63250625,1.39176316 3.89328304,1.00114912 5.11840804,1.00114912 C6.52179196,1.00114912 7.62483661,1.39069298 8.42646161,2.17085088 C9.22808661,2.95100877 9.62997946,4.02974561 9.62997946,5.40492105 L9.62997946,10.4058509 L9.62997946,11.6515351 C9.62997946,12.0004123 9.34476518,12.2829386 8.99256875,12.2829386 C8.63929196,12.2829386 8.35515804,11.9982719 8.35623839,11.6483246 L8.36164018,10.4261842 Z" id="Fill-24" fill="#191919" mask="url(#mask-4)"></path>
                </g>
                <path d="M86.6245482,57.8177263 C86.2204946,57.8177263 85.8931464,57.4934632 85.8931464,57.0932175 L85.8931464,51.6256912 C85.8931464,50.3628842 85.6749143,49.4189895 85.23845,48.7950772 C84.8019857,48.1711649 84.1613339,47.8586737 83.3154143,47.8586737 C82.9005571,47.8586737 82.4889411,47.9410772 82.0805661,48.1037439 C81.6721911,48.2664105 81.2897446,48.4900772 80.9310661,48.7747439 C80.5734679,49.0572702 80.2612446,49.3911649 79.9965571,49.7732175 C79.7318696,50.1574105 79.5352446,50.5747789 79.4056018,51.0296035 L79.4056018,57.0932175 C79.4056018,57.4934632 79.0804143,57.8177263 78.6763607,57.8177263 C78.2733875,57.8177263 77.9460393,57.4934632 77.9460393,57.0932175 L77.9460393,43.0075684 C77.9460393,42.6073228 78.2733875,42.2841298 78.6763607,42.2841298 C79.0804143,42.2841298 79.4056018,42.6073228 79.4056018,43.0075684 L79.4056018,49.2413404 C79.8496286,48.4055333 80.4665125,47.7463053 81.2530125,47.2636561 C82.0416732,46.781007 82.894075,46.5402175 83.8102179,46.5402175 C84.4541107,46.5402175 84.9986107,46.6568667 85.4426375,46.8912351 C85.8855839,47.1256035 86.2507446,47.4509368 86.5381196,47.8693754 C86.8254946,48.2888842 87.0318429,48.7918667 87.1614857,49.3804632 C87.2900482,49.9690596 87.3548696,50.617586 87.3548696,51.3281825 L87.3548696,57.0932175 C87.3548696,57.4934632 87.0275214,57.8177263 86.6245482,57.8177263" id="Fill-27" fill="#191919"></path>
                <path d="M107.459452,57.8177263 C107.056479,57.8177263 106.72913,57.4934632 106.72913,57.0932175 L106.72913,51.6256912 C106.72913,50.3350596 106.521702,49.3836737 106.106845,48.7747439 C105.690907,48.1636737 105.075104,47.8586737 104.259434,47.8586737 C103.829452,47.8586737 103.425398,47.9378667 103.045113,48.0930421 C102.665907,48.2492877 102.314791,48.4697439 101.992845,48.7522702 C101.670898,49.0369368 101.387845,49.3729719 101.143684,49.763586 C100.900604,50.1542 100.714782,50.5822702 100.58622,51.051007 L100.58622,57.0932175 C100.58622,57.4934632 100.258871,57.8177263 99.8558982,57.8177263 C99.4518446,57.8177263 99.1255768,57.4934632 99.1255768,57.0932175 L99.1255768,51.6256912 C99.1255768,50.3050947 98.9246304,49.3483579 98.5238179,48.7522702 C98.121925,48.1572526 97.5072018,47.8586737 96.6764071,47.8586737 C95.8304875,47.8586737 95.0796393,48.1497614 94.4217018,48.7319368 C93.7616036,49.3130421 93.2894875,50.0792877 93.0031929,51.0296035 L93.0031929,57.0932175 C93.0031929,57.4934632 92.6758446,57.8177263 92.2728714,57.8177263 C91.8688179,57.8177263 91.54255,57.4934632 91.54255,57.0932175 L91.54255,47.391007 C91.54255,47.0260772 91.8407286,46.7317789 92.20805,46.7317789 C92.5764518,46.7317789 92.8746304,47.0260772 92.8746304,47.391007 L92.8746304,49.2413404 C93.3327018,48.3905509 93.9333804,47.7281123 94.6788268,47.2529544 C95.4221125,46.7777965 96.246425,46.5402175 97.1485232,46.5402175 C98.0938357,46.5402175 98.8490054,46.8024105 99.4151125,47.3267965 C99.9801393,47.8511825 100.328014,48.5403754 100.457657,49.3911649 C101.502363,47.4905333 102.941398,46.5402175 104.774764,46.5402175 C105.404612,46.5402175 105.938309,46.652586 106.374773,46.8794632 C106.811238,47.1074105 107.163434,47.4306035 107.428121,47.8490421 C107.692809,48.2664105 107.886193,48.7704632 108.008273,49.3590596 C108.129273,49.9476561 108.190854,50.6047439 108.190854,51.3281825 L108.190854,57.0932175 C108.190854,57.4934632 107.863505,57.8177263 107.459452,57.8177263" id="Fill-29" fill="#191919"></path>
            </g>
        </g>
    </g>
</svg>