<svg xmlns="http://www.w3.org/2000/svg" xmlns:xlink="http://www.w3.org/1999/xlink" viewBox="0 0 70 70"><defs><style>.cls-1,.cls-5{fill:#d8bcd2;}.cls-1,.cls-9{stroke:#361e61;stroke-miterlimit:10;stroke-width:1.61px;}.cls-2,.cls-9{fill:none;}.cls-3{fill:#b080bc;}.cls-4{fill:#361e61;}.cls-6{clip-path:url(#clip-path);}.cls-7{opacity:0.63;}.cls-8{fill:#fff9ff;}.cls-10{fill:#804b88;}.cls-11{clip-path:url(#clip-path-2);}</style><clipPath id="clip-path"><path class="cls-1" d="M56.2,10.51s-11,18.93-11.06,52c0,0-13.46,12.88-27-1.5,0,0,.48-37-5.56-48.71C12.52,12.27,34,23.58,56.2,10.51Z"/></clipPath><clipPath id="clip-path-2"><path id="_Clipping_Path_" data-name="&lt;Clipping Path&gt;" class="cls-2" d="M30.65,58.22c4.22,2.55,8.59-.22,8.59-.22-.18-11.21.46-19,.46-19s-4.77,3.84-9.57.69Z"/></clipPath></defs><title>Asset 1</title><g id="Layer_2" data-name="Layer 2"><g id="Layer_1-2" data-name="Layer 1"><path class="cls-3" d="M12.84,12.7s-5-3.09,5.09-5.43c0,0,15.46-2.84,24.27,1.76l.68,11.78L21.41,22Z"/><path class="cls-4" d="M44,21.78l-23,1.3-8.82-9.59a3.26,3.26,0,0,1-1.56-3c.3-1.83,2.56-3.17,7.09-4.23.69-.13,16-2.86,25,1.85l.52.27ZM21.84,21l20-1.13L41.2,9.68c-8.48-4-22.94-1.43-23.09-1.4-5.11,1.19-5.45,2.4-5.48,2.54-.06.35.5.85.74,1l.22.18Z"/><path class="cls-3" d="M38.06,11.86c-14.88-4.79-24,1.52-24,1.52L19.11,28l17-.55Z"/><path class="cls-4" d="M37,28.45l-18.62.6L12.8,13l.65-.45c.39-.27,9.74-6.54,24.93-1.66l.82.26ZM19.84,26.94l15.34-.49,1.75-13.85c-11.56-3.44-19.39,0-21.64,1.25Z"/><path class="cls-3" d="M25.53,16.89c2.39.75,12.93-2.3,21.28-12.87a63,63,0,0,1-.89,6.53L43.81,21.69,27.13,24Z"/><path class="cls-4" d="M44.69,22.61l-18.36,2.5-2.2-9.75,1.71.54c1.69.53,11.93-2.1,20.16-12.52L48.11.71,47.84,4.1a63.6,63.6,0,0,1-.9,6.65Zm-16.76.2,15-2,2-10.41c.21-1,.38-2.12.51-3.12C38.64,14.55,30.81,17.83,26.85,18Z"/><path class="cls-3" d="M27.3,16.8A39.17,39.17,0,0,0,51.79,6.72l-1,6.65-1.57,5.35L28.51,20.47Z"/><path class="cls-4" d="M50,19.69,27.78,21.56l-1.89-5.73,1.36-.06A38.5,38.5,0,0,0,51.05,6l2.23-2.26-1.5,9.93Zm-20.78-.32,19.19-1.62,1.35-4.6.57-3.81A40.77,40.77,0,0,1,28.7,17.74Z"/><path class="cls-5" d="M56.2,10.51s-11,18.93-11.06,52c0,0-13.46,12.88-27-1.5,0,0,.48-37-5.56-48.71C12.52,12.27,34,23.58,56.2,10.51Z"/><g class="cls-6"><g class="cls-7"><path class="cls-8" d="M10,11.53a36.24,36.24,0,0,0,7.89,2.93S22,20.95,20.73,65.65l-5.2-2.59S13.39,17.42,10,11.53Z"/></g><g class="cls-7"><circle class="cls-8" cx="16.56" cy="42.86" r="12.11" transform="matrix(0.1, -1, 1, 0.1, -27.69, 55.23)"/></g></g><path class="cls-9" d="M56.2,10.51s-11,18.93-11.06,52c0,0-13.46,12.88-27-1.5,0,0,.48-37-5.56-48.71C12.52,12.27,34,23.58,56.2,10.51Z"/><path class="cls-10" d="M33.61,23.81q-.44.6-.91,1.18a26.65,26.65,0,0,1,3.55.4,2.58,2.58,0,0,1,1.33,1.15q-2.1,0-4.16-.13-.5.59-1,1.16a48.82,48.82,0,0,0,5.34.22c0-.06.18,2.87-5.14,2.15q-.08.6-.17,1.19a61.9,61.9,0,0,0,5.13,6.27q1.41,0,2.82-.09a61.77,61.77,0,0,1-5.63-6.22,6.38,6.38,0,0,0,3.9-1.36,3.14,3.14,0,0,0,1-2q.88,0,1.76-.13.43-.68.83-1.36-1.31.13-2.61.18s-.3-1-.79-1.28q1.23-.07,2.46-.2.38-.64.73-1.29A45.37,45.37,0,0,1,33.61,23.81Z"/><path class="cls-3" d="M18.1,57c12.23,12.53,23.83,3.88,23.83,3.88a95.15,95.15,0,0,1,6.76-42.86S29.5,24.15,14.3,17.24l-1.77-4.7s24.12,11,43.66-1.8c0,0-11.61,19.11-11.06,52,0,0-13.69,13.35-27-1.5Z"/><g class="cls-11"><path class="cls-4" d="M38.37,45c-7.81,1.59-15-2-15.13-2l.35-.69c.11.05,10.55,5.19,19.65.11l.38.68A18.1,18.1,0,0,1,38.37,45Z"/><path class="cls-4" d="M38.19,48.42c-7.81,1.59-15-2-15.13-2l.35-.69c.1.05,10.55,5.19,19.65.11l.38.68A18.1,18.1,0,0,1,38.19,48.42Z"/><path class="cls-4" d="M38,51.89c-7.81,1.59-15-2-15.13-2l.35-.69c.1.05,10.55,5.19,19.65.11l.38.68A18.1,18.1,0,0,1,38,51.89Z"/></g><path class="cls-4" d="M35.4,68.94a17.44,17.44,0,0,1-4,.35c-5.08-.17-9.8-2.64-14-7.35l-.27-.3V54.5l1.77,1.81c10.24,10.49,19.82,5.48,22,4.08a99,99,0,0,1,6.07-40.78c-5.44,1.38-20.45,4.3-33.06-1.43L13.48,18l-2.8-7.44,2.27,1c.24.11,23.85,10.58,42.67-1.72l3.8-2.48-2.36,3.89c-.11.19-11.45,19.28-10.91,51.45v.45l-.32.31A22.9,22.9,0,0,1,35.4,68.94ZM19.13,60.85c3.77,4.08,7.91,6.23,12.3,6.37,6.33.21,11.38-3.8,12.67-4.92-.33-24.89,6.34-42.08,9.55-48.86-15.63,8.15-33.23,3.11-39.33.92l.8,2.12c14.61,6.39,33.08.65,33.26.6l2.23-.71-1,2.12A95,95,0,0,0,43,60.84l0,.57-.46.34c-.12.09-11.35,8.22-23.42-2.31Z"/><rect class="cls-2" width="70" height="70"/></g></g></svg>