<svg xmlns="http://www.w3.org/2000/svg" width="636" height="356" viewBox="0 0 636 356">
    <defs>
        <linearGradient id="a" x1="0%" y1="82.314%" y2="0%">
            <stop offset="0%" stop-color="#F8B686"/>
            <stop offset="100%" stop-color="#F38181"/>
        </linearGradient>
    </defs>
    <g fill="none" fill-rule="evenodd">
        <path fill="#FFF" d="M0 0h636v356H0z"/>
        <g fill="#F38082">
            <path d="M54.868 4.349H17.001V4.3C17 2.186 15.138.47 12.839.47H4.164C1.861.47 0 2.186 0 4.3v7.986c0 2.114 1.861 3.831 4.164 3.831h8.675c2.299 0 4.162-1.712 4.162-3.831v-.048h37.874c2.358 0 4.282 1.772 4.282 3.949v39c0 2.177-1.918 3.95-4.289 3.95H34.006v-.05c0-2.113-1.863-3.83-4.166-3.83h-8.674c-2.298 0-4.165 1.711-4.165 3.83v7.986c0 2.113 1.862 3.83 4.165 3.83h8.674c2.303 0 4.166-1.717 4.166-3.83v-.048h20.856c7.095 0 12.863-5.309 12.863-11.839V16.187c0-6.528-5.768-11.838-12.863-11.838h.006z"/>
            <path d="M63.56 99.9h-8.675c-2.314.02-4.175 1.89-4.16 4.179v.051H12.856c-2.382-.022-4.297-1.945-4.285-4.303V44.69c0-2.368 1.92-4.303 4.29-4.303h20.86v.057a4.17 4.17 0 0 0 4.166 4.174h8.674c2.316-.016 4.18-1.887 4.164-4.179v-8.7c.016-2.294-1.848-4.165-4.164-4.18h-8.674c-2.316.015-4.18 1.886-4.166 4.18v.049H12.867C5.767 31.788 0 37.578 0 44.69v55.137c0 7.113 5.766 12.908 12.86 12.908h37.865v.044c0 2.308 1.864 4.178 4.16 4.178h8.675c2.315-.013 4.18-1.884 4.165-4.178v-8.7c.015-2.291-1.848-4.163-4.165-4.179"/>
        </g>
        <g fill="url(#a)" transform="translate(0 238.682)">
            <path d="M54.868 4.349H17.001V4.3C17 2.186 15.138.47 12.839.47H4.164C1.861.47 0 2.186 0 4.3v7.986c0 2.114 1.861 3.831 4.164 3.831h8.675c2.299 0 4.162-1.712 4.162-3.831v-.048h37.874c2.358 0 4.282 1.772 4.282 3.949v39c0 2.177-1.918 3.95-4.289 3.95H34.006v-.05c0-2.113-1.863-3.83-4.166-3.83h-8.674c-2.298 0-4.165 1.711-4.165 3.83v7.986c0 2.113 1.862 3.83 4.165 3.83h8.674c2.303 0 4.166-1.717 4.166-3.83v-.048h20.856c7.095 0 12.863-5.309 12.863-11.839V16.187c0-6.528-5.768-11.838-12.863-11.838h.006z"/>
            <path d="M54.885 99.9c-2.314.02-4.175 1.89-4.16 4.179l-37.869.051c-2.382-.022-4.297-1.945-4.285-4.303V44.69c0-2.368 1.92-4.303 4.29-4.303h20.86c0 2.358 1.863 4.23 4.166 4.23h8.674c2.316-.015 4.18-1.886 4.164-4.178v-8.7c.016-2.294-1.848-4.165-4.164-4.18h-8.674c-2.316.015-4.18 1.886-4.166 4.18l-20.854.049C5.767 31.788 0 37.578 0 44.69v55.137c0 7.113 5.766 12.908 12.86 12.908h37.865c0 2.352 1.864 4.222 4.16 4.222h8.675c2.315-.013 4.18-1.884 4.165-4.178v-8.7c.015-2.291-1.848-4.163-4.165-4.179h-8.675z"/>
        </g>
        <g fill="#F2E3A4">
            <path d="M337.584 4.349h-37.868V4.3c0-2.115-1.862-3.831-4.16-3.831h-8.676c-2.303 0-4.164 1.716-4.164 3.83v7.986c0 2.114 1.861 3.831 4.164 3.831h8.675c2.299 0 4.161-1.712 4.161-3.831v-.048h37.874c2.359 0 4.283 1.772 4.283 3.949v39c0 2.177-1.918 3.95-4.289 3.95h-20.862v-.05c0-2.113-1.863-3.83-4.166-3.83h-8.674c-2.298 0-4.166 1.711-4.166 3.83v7.986c0 2.113 1.863 3.83 4.166 3.83h8.674c2.303 0 4.166-1.717 4.166-3.83v-.048h20.855c7.096 0 12.864-5.309 12.864-11.839V16.187c0-6.528-5.768-11.838-12.864-11.838h.007z"/>
            <path d="M346.276 99.9H337.6c-2.314.02-4.175 1.89-4.16 4.179v.051h-37.87c-2.381-.022-4.296-1.945-4.284-4.303V44.69c0-2.368 1.92-4.303 4.29-4.303h20.86v.057a4.17 4.17 0 0 0 4.165 4.174h8.675c2.315-.016 4.18-1.887 4.164-4.179v-8.7c.016-2.294-1.849-4.165-4.164-4.18h-8.675c-2.315.015-4.18 1.886-4.165 4.18v.049h-20.854c-7.101 0-12.867 5.79-12.867 12.902v55.137c0 7.113 5.766 12.908 12.86 12.908h37.865v.044c0 2.308 1.864 4.178 4.16 4.178h8.675c2.315-.013 4.18-1.884 4.165-4.178v-8.7c.015-2.291-1.848-4.163-4.165-4.179"/>
        </g>
        <g fill="#3C3C3C">
            <path d="M337.703 243.03h-37.867v-.048c0-2.114-1.863-3.83-4.161-3.83H287c-2.304 0-4.165 1.716-4.165 3.83v7.986c0 2.114 1.861 3.83 4.165 3.83h8.675c2.298 0 4.16-1.711 4.16-3.83v-.048h37.875c2.358 0 4.282 1.772 4.282 3.949v39c0 2.177-1.918 3.95-4.289 3.95h-20.862v-.05c0-2.113-1.863-3.83-4.166-3.83h-8.673c-2.299 0-4.166 1.711-4.166 3.83v7.986c0 2.112 1.863 3.83 4.166 3.83h8.673c2.303 0 4.166-1.718 4.166-3.83v-.049h20.856c7.095 0 12.863-5.308 12.863-11.838v-39c0-6.527-5.768-11.837-12.863-11.837h.006z"/>
            <path d="M337.72 338.582c-2.314.02-4.175 1.89-4.16 4.179l-37.869.05c-2.382-.022-4.296-1.944-4.285-4.302v-55.137c0-2.368 1.92-4.304 4.29-4.304h20.86c0 2.359 1.863 4.232 4.166 4.232h8.674c2.316-.016 4.18-1.888 4.164-4.179v-8.701c.016-2.293-1.848-4.164-4.164-4.179h-8.674c-2.316.015-4.18 1.886-4.166 4.179l-20.853.05c-7.102 0-12.868 5.79-12.868 12.902v55.137c0 7.113 5.766 12.908 12.861 12.908h37.864c0 2.352 1.864 4.222 4.16 4.222h8.675c2.316-.013 4.18-1.884 4.165-4.179v-8.7c.015-2.29-1.848-4.162-4.165-4.178h-8.674z"/>
        </g>
        <g fill="#F8B686">
            <path d="M620.3 4.349h-37.868V4.3c0-2.115-1.863-3.831-4.16-3.831h-8.676c-2.303 0-4.164 1.716-4.164 3.83v7.986c0 2.114 1.861 3.831 4.164 3.831h8.675c2.298 0 4.161-1.712 4.161-3.831v-.048h37.874c2.358 0 4.283 1.772 4.283 3.949v39c0 2.177-1.918 3.95-4.29 3.95h-20.861v-.05c0-2.113-1.863-3.83-4.166-3.83h-8.674c-2.298 0-4.166 1.711-4.166 3.83v7.986c0 2.113 1.863 3.83 4.166 3.83h8.674c2.303 0 4.166-1.717 4.166-3.83v-.048h20.855c7.096 0 12.864-5.309 12.864-11.839V16.187c0-6.528-5.768-11.838-12.864-11.838h.007z"/>
            <path d="M628.991 99.9h-8.674c-2.314.02-4.175 1.89-4.16 4.179v.051h-37.87c-2.381-.022-4.296-1.945-4.285-4.303V44.69c0-2.368 1.921-4.303 4.29-4.303h20.86v.057a4.17 4.17 0 0 0 4.166 4.174h8.675c2.315-.016 4.18-1.887 4.164-4.179v-8.7c.016-2.294-1.849-4.165-4.164-4.18h-8.675c-2.315.015-4.18 1.886-4.165 4.18v.049h-20.854c-7.101 0-12.867 5.79-12.867 12.902v55.137c0 7.113 5.766 12.908 12.86 12.908h37.865v.044c0 2.308 1.864 4.178 4.16 4.178h8.674c2.316-.013 4.18-1.884 4.166-4.178v-8.7c.015-2.291-1.848-4.163-4.166-4.179"/>
        </g>
        <g fill="#BCBEC0">
            <path d="M620.3 243.03h-37.868v-.048c0-2.114-1.863-3.83-4.16-3.83h-8.676c-2.303 0-4.164 1.716-4.164 3.83v7.986c0 2.114 1.861 3.83 4.164 3.83h8.675c2.298 0 4.161-1.711 4.161-3.83v-.048h37.874c2.358 0 4.283 1.772 4.283 3.949v39c0 2.177-1.918 3.95-4.29 3.95h-20.861v-.05c0-2.113-1.863-3.83-4.166-3.83h-8.674c-2.298 0-4.166 1.711-4.166 3.83v7.986c0 2.112 1.863 3.83 4.166 3.83h8.674c2.303 0 4.166-1.718 4.166-3.83v-.049h20.855c7.096 0 12.864-5.308 12.864-11.838v-39c0-6.527-5.768-11.837-12.864-11.837h.007z"/>
            <path d="M628.991 338.582h-8.674c-2.314.02-4.175 1.89-4.16 4.179v.05h-37.87c-2.381-.022-4.296-1.944-4.285-4.302v-55.137c0-2.368 1.921-4.304 4.29-4.304h20.86v.058a4.17 4.17 0 0 0 4.166 4.174h8.675c2.315-.016 4.18-1.888 4.164-4.179v-8.701c.016-2.293-1.849-4.164-4.164-4.179h-8.675c-2.315.015-4.18 1.886-4.165 4.179v.05h-20.854c-7.101 0-12.867 5.79-12.867 12.902v55.137c0 7.113 5.766 12.908 12.86 12.908h37.865v.043c0 2.31 1.864 4.179 4.16 4.179h8.674c2.316-.013 4.18-1.884 4.166-4.179v-8.7c.015-2.29-1.848-4.162-4.166-4.178"/>
        </g>
    </g>
</svg>
