<svg xmlns="http://www.w3.org/2000/svg" xmlns:xlink="http://www.w3.org/1999/xlink" width="349" height="356" viewBox="0 0 349 356">
    <defs>
        <path id="a" d="M.198.308h279.75v85.527H.198z"/>
        <path id="c" d="M.198.308h279.75v85.527H.198z"/>
        <linearGradient id="d" x1="0%" y1="100%" y2="0%">
            <stop offset="0%" stop-color="#F8B686"/>
            <stop offset="100%" stop-color="#F38181"/>
        </linearGradient>
        <path id="f" d="M.198.308h279.75v85.527H.198z"/>
    </defs>
    <g fill="none" fill-rule="evenodd">
        <path fill="#FFF" d="M0 0h348.876v355.003H0z"/>
        <g transform="translate(34)">
            <mask id="b" fill="#fff">
                <use xlink:href="#a"/>
            </mask>
            <path fill="#38454E" d="M272.83 54.265V26.287c0-.596-.324-.896-.973-.896H258.21c-5.398 0-8.092 2.887-8.092 8.663v20.713c0 5.774 2.694 8.66 8.092 8.66h5.555c2.924 0 5.168-.793 6.727-2.387 1.557-1.595 2.338-3.849 2.338-6.772v-.003zM262.498 69.8h-5.07c-4.486 0-8.01-1.293-10.577-3.884-2.569-2.59-3.85-6.205-3.85-10.851v-21.31c0-4.645 1.281-8.267 3.853-10.854 2.564-2.59 6.09-3.883 10.574-3.883h21.156c.908 0 1.364.465 1.364 1.392v47.995c0 .932-.456 1.395-1.364 1.395h-4.389c-.91 0-1.365-.463-1.365-1.395V64.52h-.388c-1.625 3.52-4.94 5.28-9.944 5.28zm-90.23 0h-4.426c-.918 0-1.378-.463-1.378-1.395V20.409c0-.927.46-1.392 1.378-1.392h4.426c.915 0 1.378.465 1.378 1.392v3.884h.393c1.834-3.517 5.31-5.276 10.424-5.276h3.64c5.77 0 9.767 2.255 11.998 6.77 1.05-2.192 2.705-3.865 4.966-5.027a15.424 15.424 0 0 1 7.134-1.743h3.445c4.456 0 7.93 1.294 10.424 3.883 2.491 2.587 3.736 6.21 3.736 10.851v34.653c0 .932-.458 1.395-1.377 1.395h-4.426c-.917 0-1.378-.463-1.378-1.395V34.05c0-5.773-2.752-8.66-8.26-8.66h-3.246c-2.95 0-5.228.845-6.835 2.54-1.607 1.689-2.41 3.997-2.41 6.916v33.557c0 .932-.459 1.395-1.378 1.395h-4.426c-.918 0-1.374-.463-1.374-1.395V34.05c0-5.773-2.756-8.66-8.261-8.66h-3.642c-2.95 0-5.212.794-6.785 2.386-1.573 1.597-2.36 3.853-2.36 6.774v33.853c0 .932-.461 1.395-1.377 1.395h-.003zM146.15 52.223V26.432c0-.613-.324-.915-.974-.915h-13.55c-5.46 0-8.188 2.943-8.188 8.834v18.38c0 5.891 2.728 8.833 8.189 8.833h5.457c2.925 0 5.168-.812 6.728-2.437 1.56-1.622 2.338-3.924 2.338-6.904zM135.82 68.062h-5.461c-4.42 0-7.864-1.318-10.332-3.955-2.472-2.647-3.705-6.335-3.705-11.074v-18.99c0-4.738 1.282-8.43 3.852-11.068 2.564-2.638 6.09-3.958 10.573-3.958h21.156c.91 0 1.364.473 1.364 1.422v50.367c0 4.673-1.282 8.343-3.853 11.018-2.565 2.672-6.091 4.011-10.576 4.011H120.9c-.976 0-1.461-.473-1.461-1.421v-3.758c0-.95.488-1.42 1.461-1.42h17.063c5.46 0 8.19-2.913 8.19-8.734v-7.82h-.389c-1.689 3.589-5.006 5.382-9.944 5.382v-.002zm-35.333.35V20.701c0-.922.47-1.385 1.409-1.385h4.988c1.014 0 1.52.463 1.52 1.385v47.713c0 .928-.506 1.388-1.517 1.388h-4.882c-1.014 0-1.518-.46-1.518-1.388v-.002zm0-57.413V1.695c0-.925.47-1.387 1.409-1.387h4.988c1.014 0 1.52.462 1.52 1.387v9.3c0 .928-.506 1.39-1.517 1.39h-4.988c-.942 0-1.412-.462-1.412-1.39V11zm-44.39 58.8h-4.39c-.91 0-1.364-.463-1.364-1.395V20.409c0-.927.454-1.392 1.365-1.392h4.389c.907 0 1.363.465 1.363 1.392v3.884h.389c1.625-3.517 4.94-5.276 9.944-5.276h5.46c4.418 0 7.862 1.294 10.333 3.883 2.47 2.587 3.705 6.21 3.705 10.851v34.653c0 .932-.456 1.395-1.364 1.395h-4.389c-.91 0-1.365-.463-1.365-1.395V34.05c0-5.773-2.728-8.66-8.186-8.66h-5.46c-2.925 0-5.168.794-6.728 2.386-1.557 1.597-2.339 3.853-2.339 6.774v33.853c0 .932-.456 1.395-1.363 1.395zM8.195 42.618h21.057c.65 0 .977-.335.977-.998v-7.668c0-5.709-2.731-8.563-8.189-8.563h-6.63c-5.46 0-8.19 2.854-8.19 8.563v7.668c0 .663.325.995.978.995l-.003.003zm27.098 27.181H14.626c-4.483 0-8.01-1.293-10.578-3.884C1.481 63.328.198 59.71.198 55.064v-21.31c0-4.645 1.283-8.267 3.853-10.854 2.563-2.59 6.088-3.883 10.573-3.883h8.189c4.487 0 7.997 1.294 10.53 3.883 2.534 2.587 3.8 6.21 3.8 10.851V46.4c0 .997-.456 1.495-1.364 1.495H8.192c-.65 0-.977.299-.977.895v6.075c0 5.772 2.732 8.662 8.192 8.662h19.886c.91 0 1.365.465 1.365 1.395v3.582c0 .866-.454 1.296-1.365 1.296z" mask="url(#b)"/>
        </g>
        <g transform="translate(34 134.622)">
            <mask id="e" fill="#fff">
                <use xlink:href="#c"/>
            </mask>
            <path fill="url(#d)" d="M272.83 54.265V26.287c0-.596-.324-.896-.973-.896H258.21c-5.398 0-8.092 2.887-8.092 8.663v20.713c0 5.774 2.694 8.66 8.092 8.66h5.555c2.924 0 5.168-.793 6.727-2.387 1.557-1.595 2.338-3.849 2.338-6.772v-.003zM262.498 69.8h-5.07c-4.486 0-8.01-1.293-10.577-3.884-2.569-2.59-3.85-6.205-3.85-10.851v-21.31c0-4.645 1.281-8.267 3.853-10.854 2.564-2.59 6.09-3.883 10.574-3.883h21.156c.908 0 1.364.465 1.364 1.392v47.995c0 .932-.456 1.395-1.364 1.395h-4.389c-.91 0-1.365-.463-1.365-1.395V64.52h-.388c-1.625 3.52-4.94 5.28-9.944 5.28zm-90.23 0h-4.426c-.918 0-1.378-.463-1.378-1.395V20.409c0-.927.46-1.392 1.378-1.392h4.426c.915 0 1.378.465 1.378 1.392v3.884h.393c1.834-3.517 5.31-5.276 10.424-5.276h3.64c5.77 0 9.767 2.255 11.998 6.77 1.05-2.192 2.705-3.865 4.966-5.027a15.424 15.424 0 0 1 7.134-1.743h3.445c4.456 0 7.93 1.294 10.424 3.883 2.491 2.587 3.736 6.21 3.736 10.851v34.653c0 .932-.458 1.395-1.377 1.395h-4.426c-.917 0-1.378-.463-1.378-1.395V34.05c0-5.773-2.752-8.66-8.26-8.66h-3.246c-2.95 0-5.228.845-6.835 2.54-1.607 1.689-2.41 3.997-2.41 6.916v33.557c0 .932-.459 1.395-1.378 1.395h-4.426c-.918 0-1.374-.463-1.374-1.395V34.05c0-5.773-2.756-8.66-8.261-8.66h-3.642c-2.95 0-5.212.794-6.785 2.386-1.573 1.597-2.36 3.853-2.36 6.774v33.853c0 .932-.461 1.395-1.377 1.395h-.003zM146.15 52.223V26.432c0-.613-.324-.915-.974-.915h-13.55c-5.46 0-8.188 2.943-8.188 8.834v18.38c0 5.891 2.728 8.833 8.189 8.833h5.457c2.925 0 5.168-.812 6.728-2.437 1.56-1.622 2.338-3.924 2.338-6.904zM135.82 68.062h-5.461c-4.42 0-7.864-1.318-10.332-3.955-2.472-2.647-3.705-6.335-3.705-11.074v-18.99c0-4.738 1.282-8.43 3.852-11.068 2.564-2.638 6.09-3.958 10.573-3.958h21.156c.91 0 1.364.473 1.364 1.422v50.367c0 4.673-1.282 8.343-3.853 11.018-2.565 2.672-6.091 4.011-10.576 4.011H120.9c-.976 0-1.461-.473-1.461-1.421v-3.758c0-.95.488-1.42 1.461-1.42h17.063c5.46 0 8.19-2.913 8.19-8.734v-7.82h-.389c-1.689 3.589-5.006 5.382-9.944 5.382v-.002zm-35.333.35V20.701c0-.922.47-1.385 1.409-1.385h4.988c1.014 0 1.52.463 1.52 1.385v47.713c0 .928-.506 1.388-1.517 1.388h-4.882c-1.014 0-1.518-.46-1.518-1.388v-.002zm0-57.413V1.695c0-.925.47-1.387 1.409-1.387h4.988c1.014 0 1.52.462 1.52 1.387v9.3c0 .928-.506 1.39-1.517 1.39h-4.988c-.942 0-1.412-.462-1.412-1.39V11zm-44.39 58.8h-4.39c-.91 0-1.364-.463-1.364-1.395V20.409c0-.927.454-1.392 1.365-1.392h4.389c.907 0 1.363.465 1.363 1.392v3.884h.389c1.625-3.517 4.94-5.276 9.944-5.276h5.46c4.418 0 7.862 1.294 10.333 3.883 2.47 2.587 3.705 6.21 3.705 10.851v34.653c0 .932-.456 1.395-1.364 1.395h-4.389c-.91 0-1.365-.463-1.365-1.395V34.05c0-5.773-2.728-8.66-8.186-8.66h-5.46c-2.925 0-5.168.794-6.728 2.386-1.557 1.597-2.339 3.853-2.339 6.774v33.853c0 .932-.456 1.395-1.363 1.395zM8.195 42.618h21.057c.65 0 .977-.335.977-.998v-7.668c0-5.709-2.731-8.563-8.189-8.563h-6.63c-5.46 0-8.19 2.854-8.19 8.563v7.668c0 .663.325.995.978.995l-.003.003zm27.098 27.181H14.626c-4.483 0-8.01-1.293-10.578-3.884C1.481 63.328.198 59.71.198 55.064v-21.31c0-4.645 1.283-8.267 3.853-10.854 2.563-2.59 6.088-3.883 10.573-3.883h8.189c4.487 0 7.997 1.294 10.53 3.883 2.534 2.587 3.8 6.21 3.8 10.851V46.4c0 .997-.456 1.495-1.364 1.495H8.192c-.65 0-.977.299-.977.895v6.075c0 5.772 2.732 8.662 8.192 8.662h19.886c.91 0 1.365.465 1.365 1.395v3.582c0 .866-.454 1.296-1.365 1.296z" mask="url(#e)"/>
        </g>
        <g transform="translate(34 269.244)">
            <mask id="g" fill="#fff">
                <use xlink:href="#f"/>
            </mask>
            <path fill="#BCBEC0" d="M272.83 54.265V26.287c0-.596-.324-.896-.973-.896H258.21c-5.398 0-8.092 2.887-8.092 8.663v20.713c0 5.774 2.694 8.66 8.092 8.66h5.555c2.924 0 5.168-.793 6.727-2.387 1.557-1.595 2.338-3.849 2.338-6.772v-.003zM262.498 69.8h-5.07c-4.486 0-8.01-1.293-10.577-3.884-2.569-2.59-3.85-6.205-3.85-10.851v-21.31c0-4.645 1.281-8.267 3.853-10.854 2.564-2.59 6.09-3.883 10.574-3.883h21.156c.908 0 1.364.465 1.364 1.392v47.995c0 .932-.456 1.395-1.364 1.395h-4.389c-.91 0-1.365-.463-1.365-1.395V64.52h-.388c-1.625 3.52-4.94 5.28-9.944 5.28zm-90.23 0h-4.426c-.918 0-1.378-.463-1.378-1.395V20.409c0-.927.46-1.392 1.378-1.392h4.426c.915 0 1.378.465 1.378 1.392v3.884h.393c1.834-3.517 5.31-5.276 10.424-5.276h3.64c5.77 0 9.767 2.255 11.998 6.77 1.05-2.192 2.705-3.865 4.966-5.027a15.424 15.424 0 0 1 7.134-1.743h3.445c4.456 0 7.93 1.294 10.424 3.883 2.491 2.587 3.736 6.21 3.736 10.851v34.653c0 .932-.458 1.395-1.377 1.395h-4.426c-.917 0-1.378-.463-1.378-1.395V34.05c0-5.773-2.752-8.66-8.26-8.66h-3.246c-2.95 0-5.228.845-6.835 2.54-1.607 1.689-2.41 3.997-2.41 6.916v33.557c0 .932-.459 1.395-1.378 1.395h-4.426c-.918 0-1.374-.463-1.374-1.395V34.05c0-5.773-2.756-8.66-8.261-8.66h-3.642c-2.95 0-5.212.794-6.785 2.386-1.573 1.597-2.36 3.853-2.36 6.774v33.853c0 .932-.461 1.395-1.377 1.395h-.003zM146.15 52.223V26.432c0-.613-.324-.915-.974-.915h-13.55c-5.46 0-8.188 2.943-8.188 8.834v18.38c0 5.891 2.728 8.833 8.189 8.833h5.457c2.925 0 5.168-.812 6.728-2.437 1.56-1.622 2.338-3.924 2.338-6.904zM135.82 68.062h-5.461c-4.42 0-7.864-1.318-10.332-3.955-2.472-2.647-3.705-6.335-3.705-11.074v-18.99c0-4.738 1.282-8.43 3.852-11.068 2.564-2.638 6.09-3.958 10.573-3.958h21.156c.91 0 1.364.473 1.364 1.422v50.367c0 4.673-1.282 8.343-3.853 11.018-2.565 2.672-6.091 4.011-10.576 4.011H120.9c-.976 0-1.461-.473-1.461-1.421v-3.758c0-.95.488-1.42 1.461-1.42h17.063c5.46 0 8.19-2.913 8.19-8.734v-7.82h-.389c-1.689 3.589-5.006 5.382-9.944 5.382v-.002zm-35.333.35V20.701c0-.922.47-1.385 1.409-1.385h4.988c1.014 0 1.52.463 1.52 1.385v47.713c0 .928-.506 1.388-1.517 1.388h-4.882c-1.014 0-1.518-.46-1.518-1.388v-.002zm0-57.413V1.695c0-.925.47-1.387 1.409-1.387h4.988c1.014 0 1.52.462 1.52 1.387v9.3c0 .928-.506 1.39-1.517 1.39h-4.988c-.942 0-1.412-.462-1.412-1.39V11zm-44.39 58.8h-4.39c-.91 0-1.364-.463-1.364-1.395V20.409c0-.927.454-1.392 1.365-1.392h4.389c.907 0 1.363.465 1.363 1.392v3.884h.389c1.625-3.517 4.94-5.276 9.944-5.276h5.46c4.418 0 7.862 1.294 10.333 3.883 2.47 2.587 3.705 6.21 3.705 10.851v34.653c0 .932-.456 1.395-1.364 1.395h-4.389c-.91 0-1.365-.463-1.365-1.395V34.05c0-5.773-2.728-8.66-8.186-8.66h-5.46c-2.925 0-5.168.794-6.728 2.386-1.557 1.597-2.339 3.853-2.339 6.774v33.853c0 .932-.456 1.395-1.363 1.395zM8.195 42.618h21.057c.65 0 .977-.335.977-.998v-7.668c0-5.709-2.731-8.563-8.189-8.563h-6.63c-5.46 0-8.19 2.854-8.19 8.563v7.668c0 .663.325.995.978.995l-.003.003zm27.098 27.181H14.626c-4.483 0-8.01-1.293-10.578-3.884C1.481 63.328.198 59.71.198 55.064v-21.31c0-4.645 1.283-8.267 3.853-10.854 2.563-2.59 6.088-3.883 10.573-3.883h8.189c4.487 0 7.997 1.294 10.53 3.883 2.534 2.587 3.8 6.21 3.8 10.851V46.4c0 .997-.456 1.495-1.364 1.495H8.192c-.65 0-.977.299-.977.895v6.075c0 5.772 2.732 8.662 8.192 8.662h19.886c.91 0 1.365.465 1.365 1.395v3.582c0 .866-.454 1.296-1.365 1.296z" mask="url(#g)"/>
        </g>
    </g>
</svg>
