<svg xmlns="http://www.w3.org/2000/svg" width="94" height="150" viewBox="0 0 94 150">
    <path fill="#00C5C5" fill-rule="evenodd" d="M14.317 46.821c0-17.949 14.657-32.555 32.683-32.555 18.022 0 32.683 14.606 32.683 32.555 0 17.953-14.661 32.563-32.683 32.563-18.026 0-32.683-14.61-32.683-32.563m57.498 39.69C85.109 78.236 94 63.561 94 46.821c0-11.8-4.44-22.566-11.7-30.808 3.345-1.124 6.855-1.747 10.462-1.747V0a46.847 46.847 0 0 0-22.895 5.955A46.765 46.765 0 0 0 47 0C21.081 0 0 21.001 0 46.821 0 63.57 8.9 78.248 22.201 86.527 17 89.753 12.373 93.937 8.717 99.035l11.658 8.283C26.507 98.76 36.461 93.646 47 93.646c18.022 0 32.683 14.606 32.683 32.563 0 5.83-1.562 11.546-4.524 16.539L87.487 150A46.654 46.654 0 0 0 94 126.21c0-16.74-8.891-31.416-22.185-39.699"/>
</svg>
