<svg xmlns="http://www.w3.org/2000/svg" width="296" height="296" viewBox="0 0 296 296">
    <defs>
        <filter id="a" width="123.4%" height="123.4%" x="-11.7%" y="-11.7%" filterUnits="objectBoundingBox">
            <feOffset in="SourceAlpha" result="shadowOffsetOuter1"/>
            <feGaussianBlur in="shadowOffsetOuter1" result="shadowBlurOuter1" stdDeviation="10"/>
            <feColorMatrix in="shadowBlurOuter1" result="shadowMatrixOuter1" values="0 0 0 0 0 0 0 0 0 0 0 0 0 0 0 0 0 0 0.1 0"/>
            <feMerge>
                <feMergeNode in="shadowMatrixOuter1"/>
                <feMergeNode in="SourceGraphic"/>
            </feMerge>
        </filter>
    </defs>
    <g fill="none" fill-rule="evenodd" filter="url(#a)" transform="translate(20 20)">
        <path fill="#FFF" d="M0 0h256v256H0z"/>
        <g stroke="#4F4F4F" stroke-linejoin="round" stroke-width="2">
            <path d="M94.977 85h-4.132A1.844 1.844 0 0 0 89 86.846v82.597c0 1.02.826 1.845 1.845 1.845h4.132a1.845 1.845 0 0 0 1.845-1.845V86.844a1.844 1.844 0 0 0-1.845-1.843zM166.155 85h-4.132a1.844 1.844 0 0 0-1.845 1.845v82.597c0 1.02.826 1.845 1.845 1.845h4.132a1.845 1.845 0 0 0 1.845-1.845V86.844a1.844 1.844 0 0 0-1.845-1.843zM152.672 106.699h-31.876v-2.287c0-1.02-.826-1.845-1.845-1.845h-12.463a1.843 1.843 0 0 0-1.844 1.845v12.462c0 1.019.825 1.845 1.844 1.845h12.463a1.845 1.845 0 0 0 1.845-1.845v-2.353h25.697c.804 0 1.457.826 1.457 1.845v23.557c0 1.018-.653 1.844-1.457 1.844h-25.697v-2.321a1.845 1.845 0 0 0-1.845-1.844h-12.463a1.844 1.844 0 0 0-1.844 1.844v12.463c0 1.019.825 1.845 1.844 1.845h12.463a1.845 1.845 0 0 0 1.845-1.845v-2.32h31.876c.805 0 1.458-.826 1.458-1.845v-39.2c0-1.02-.653-1.845-1.458-1.845z"/>
            <path d="M106.347 132.054h18.861v2.321c0 1.02.826 1.845 1.845 1.845h12.462c1.02 0 1.845-.826 1.845-1.845v-12.463a1.844 1.844 0 0 0-1.845-1.844h-12.462a1.845 1.845 0 0 0-1.845 1.844v2.321h-18.86c-.942 0-1.705.762-1.705 1.703v4.415c0 .94.763 1.703 1.704 1.703zM152.285 85h-12.463a1.844 1.844 0 0 0-1.844 1.846v2.32h-31.641c-.935 0-1.693.757-1.693 1.691v4.437c0 .935.758 1.692 1.693 1.692h31.64v2.321c0 1.02.827 1.844 1.845 1.844h12.463a1.844 1.844 0 0 0 1.845-1.844V86.845c0-1.02-.826-1.845-1.845-1.845zM152.285 155.135h-12.463a1.845 1.845 0 0 0-1.844 1.845v2.32h-31.641c-.935 0-1.693.758-1.693 1.693v4.436c0 .935.758 1.693 1.693 1.693h31.64v2.321c0 1.018.827 1.844 1.845 1.844h12.463a1.845 1.845 0 0 0 1.845-1.844V156.98a1.845 1.845 0 0 0-1.845-1.845z"/>
        </g>
    </g>
</svg>
