<svg xmlns="http://www.w3.org/2000/svg" width="296" height="296" viewBox="0 0 296 296">
    <defs>
        <filter id="a" width="123.4%" height="123.4%" x="-11.7%" y="-11.7%" filterUnits="objectBoundingBox">
            <feOffset in="SourceAlpha" result="shadowOffsetOuter1"/>
            <feGaussianBlur in="shadowOffsetOuter1" result="shadowBlurOuter1" stdDeviation="10"/>
            <feColorMatrix in="shadowBlurOuter1" result="shadowMatrixOuter1" values="0 0 0 0 0 0 0 0 0 0 0 0 0 0 0 0 0 0 0.1 0"/>
            <feMerge>
                <feMergeNode in="shadowMatrixOuter1"/>
                <feMergeNode in="SourceGraphic"/>
            </feMerge>
        </filter>
    </defs>
    <g fill="none" fill-rule="evenodd" filter="url(#a)" transform="translate(20 20)">
        <path fill="#FFF" d="M0 0h256v256H0z"/>
        <path stroke="#4F4F4F" stroke-linecap="round" stroke-width="2" d="M117.23 91.962c5.281-5.282 13.844-5.282 19.127 0l34.9 34.9c4.439 4.439 4.439 11.634 0 16.072l-23.036 23.036c-4.438 4.437-11.632 4.437-16.07 0l-21.43-21.43c-4.438-4.437-4.438-11.633 0-16.07l8.036-8.036c4.438-4.438 11.633-4.438 16.071 0l8.036 8.036c4.439 4.437 4.439 11.633 0 16.07l-21.428 21.43c-4.438 4.437-11.634 4.437-16.072 0L82.33 142.934c-4.438-4.438-4.438-11.633 0-16.072l34.9-34.9z"/>
    </g>
</svg>
