<svg xmlns="http://www.w3.org/2000/svg" width="535" height="277" viewBox="0 0 535 277">
    <g fill="none" fill-rule="evenodd">
        <path fill="#232323" d="M89.515 93.706l-9.963-14.171c9.596-6.747 20.89-10.313 32.662-10.313v17.323c-8.186 0-16.036 2.475-22.699 7.16M105.834 251.365l-14.912-8.81a39.494 39.494 0 0 0 5.47-20.082c0-21.802-17.735-39.536-39.536-39.536-12.747 0-24.79 6.205-32.207 16.602l-14.1-10.061c10.664-14.941 27.974-23.863 46.307-23.863 31.352 0 56.856 25.507 56.856 56.858a56.815 56.815 0 0 1-7.878 28.892"/>
        <path fill="#232323" d="M56.856 86.545c-21.8 0-39.537 17.734-39.537 39.533 0 21.802 17.736 39.536 39.537 39.536 21.8 0 39.536-17.734 39.536-39.536 0-21.8-17.736-39.533-39.536-39.533m0 96.392C25.506 182.937 0 157.429 0 126.077c0-31.35 25.505-56.855 56.856-56.855 31.351 0 56.856 25.505 56.856 56.856 0 31.35-25.505 56.859-56.856 56.859M273.303 226.189l-3.192-4.54a18.096 18.096 0 0 1 10.463-3.302v5.549c-2.624 0-5.137.793-7.272 2.293M278.53 276.685l-4.777-2.821a12.654 12.654 0 0 0 1.752-6.432c0-6.983-5.68-12.664-12.663-12.664a12.699 12.699 0 0 0-10.315 5.318l-4.517-3.222a18.26 18.26 0 0 1 14.832-7.644c10.041 0 18.21 8.17 18.21 18.212 0 3.259-.872 6.46-2.523 9.253"/>
        <path fill="#232323" d="M262.843 223.895c-6.982 0-12.663 5.68-12.663 12.662 0 6.983 5.68 12.663 12.663 12.663 6.982 0 12.663-5.68 12.663-12.663 0-6.982-5.681-12.662-12.663-12.662m0 30.873c-10.042 0-18.21-8.17-18.21-18.21 0-10.042 8.168-18.21 18.21-18.21 10.04 0 18.21 8.168 18.21 18.21 0 10.04-8.17 18.21-18.21 18.21"/>
        <path fill="#D1D1D1" d="M96.392 126.269c0 21.938-17.785 39.724-39.724 39.724-21.939 0-39.724-17.785-39.724-39.724 0-21.94 17.785-39.725 39.724-39.725 21.94 0 39.724 17.786 39.724 39.725M16.944 222.475c0-21.939 17.785-39.724 39.724-39.724 21.94 0 39.724 17.785 39.724 39.724H16.944z"/>
        <path stroke="#000" stroke-width="6" d="M279.132 116.635c0 9.064-7.349 16.413-16.413 16.413-9.065 0-16.414-7.349-16.414-16.413 0-9.065 7.35-16.414 16.414-16.414 9.064 0 16.413 7.35 16.413 16.414zM246.305 156.386c0-9.064 7.35-16.413 16.414-16.413 9.065 0 16.413 7.349 16.413 16.413h-32.827z"/>
        <text fill="#232323" font-family="MavenPro-Regular, Maven Pro" font-size="25" letter-spacing="-2.5" transform="translate(0 -1)">
            <tspan x="317.074" y="133.459">T</tspan> <tspan x="326.649" y="133.459">alent (P</tspan> <tspan x="414.474" y="133.459" letter-spacing="-.875">r</tspan> <tspan x="422.149" y="133.459">oﬁle)</tspan>
        </text>
        <text fill="#232323" font-family="MavenPro-Regular, Maven Pro" font-size="25" transform="translate(0 -1)">
            <tspan x="317.074" y="31.659">Sea</tspan> <tspan x="358.474" y="31.659" letter-spacing="-.875">r</tspan> <tspan x="366.149" y="31.659">ch / ﬁnd</tspan>
        </text>
        <g>
            <text fill="#232323" font-family="MavenPro-Regular, Maven Pro" font-size="25" transform="translate(62 -.315)">
                <tspan x="255.074" y="251.986">Letter ‘g’ = g</tspan> <tspan x="401.974" y="251.986" letter-spacing="-.875">r</tspan> <tspan x="409.649" y="251.986">oome</tspan>
            </text>
            <path fill="#232323" d="M178.962 22.045c0-8.453-6.876-15.33-15.328-15.33-8.454 0-15.33 6.877-15.33 15.33s6.876 15.33 15.33 15.33c8.452 0 15.328-6.877 15.328-15.33m-37.375 0C141.587 9.889 151.477 0 163.634 0c12.156 0 22.044 9.888 22.044 22.044S175.79 44.09 163.634 44.09s-22.047-9.89-22.047-22.045"/>
            <path fill="#232323" d="M179.955 33.612l9.62 10.068-5.003 5.246-9.77-9.927z"/>
            <path stroke="#000" stroke-width="2" d="M207.259 21.115l14.689-.088M215.69 13.859l6.56 7.256-6.56 8.18"/>
            <path fill="#232323" d="M277.16 9.643l-3.863-5.495A21.902 21.902 0 0 1 285.961.15v6.716c-3.174 0-6.218.961-8.8 2.777"/>
            <path fill="#232323" d="M264.497 6.866c-8.453 0-15.329 6.876-15.329 15.328 0 8.454 6.876 15.33 15.33 15.33 8.452 0 15.33-6.876 15.33-15.33 0-8.452-6.878-15.328-15.33-15.328m0 37.374c-12.157 0-22.045-9.89-22.045-22.046 0-12.156 9.888-22.044 22.044-22.044s22.045 9.888 22.045 22.044-9.889 22.046-22.045 22.046"/>
            <path stroke="#000" stroke-dasharray="2,2" stroke-width="1.5" d="M249.168 48.926s11.493 6.367 26.267 1.037c6.917-2.495 13.803-7.45 18.251-17.773"/>
            <path fill="#232323" d="M288.759 30.867l9.269 3.927-1.92-8.338z"/>
            <path stroke="#000" stroke-dasharray="2,2" stroke-width="1.5" d="M106.282 66.165l-.209-47.728h44.091M62.573 132.222H215.5M122.573 242.222h97.93"/>
        </g>
    </g>
</svg>
