<svg xmlns="http://www.w3.org/2000/svg" xmlns:xlink="http://www.w3.org/1999/xlink" width="1110" height="530" viewBox="0 0 1110 530">
    <defs>
        <path id="a" d="M.962.503h65.236v65.24H.962z"/>
        <path id="c" d="M.051.804h59.187V50H.05z"/>
        <path id="e" d="M0 .504h65.238v65.239H0z"/>
        <path id="g" d="M0 105.603h422.198V1H0z"/>
    </defs>
    <g fill="none" fill-rule="evenodd">
        <path fill="#FFF" d="M0 0h1110v530H0z"/>
        <g transform="translate(344 224)">
            <path fill="#00C5C5" d="M146.873 11.045c-12.507 0-22.682 10.174-22.682 22.68 0 12.508 10.175 22.682 22.682 22.682 12.507 0 22.682-10.174 22.682-22.682 0-12.506-10.175-22.68-22.682-22.68m0 55.3c-17.986 0-32.619-14.633-32.619-32.62 0-17.986 14.633-32.618 32.62-32.618 17.985 0 32.618 14.632 32.618 32.618 0 17.987-14.633 32.62-32.619 32.62"/>
            <g transform="translate(356 .603)">
                <mask id="b" fill="#fff">
                    <use xlink:href="#a"/>
                </mask>
                <path fill="#00C5C5" d="M11.445 28.152h44.269c-2.271-10.123-11.332-17.71-22.134-17.71-10.801 0-19.863 7.587-22.134 17.71m22.134 37.59C15.593 65.743.962 51.109.962 33.123.962 15.135 15.592.503 33.578.503 51.566.504 66.2 15.136 66.2 33.12v4.97H11.444C13.716 48.216 22.78 55.802 33.58 55.802c7.044 0 13.569-3.19 17.904-8.752l7.838 6.105c-6.23 8-15.613 12.587-25.742 12.587" mask="url(#b)"/>
            </g>
            <path fill="#00C5C5" d="M220.49 11.045c-12.507 0-22.682 10.174-22.682 22.68 0 12.508 10.175 22.682 22.682 22.682 12.507 0 22.682-10.174 22.682-22.682 0-12.506-10.175-22.68-22.682-22.68m0 55.3c-17.986 0-32.62-14.633-32.62-32.62 0-17.986 14.634-32.618 32.62-32.618 17.987 0 32.619 14.632 32.619 32.618 0 17.987-14.632 32.62-32.62 32.62M83.172 33.725h-9.936c0-17.986 14.632-32.62 32.618-32.62v9.94c-12.507 0-22.681 10.174-22.681 22.68M51.356 15.153l-5.716-8.13c5.506-3.871 11.985-5.917 18.739-5.917v9.939c-4.697 0-9.2 1.42-13.023 4.108"/>
            <g transform="translate(6 55.603)">
                <mask id="d" fill="#fff">
                    <use xlink:href="#c"/>
                </mask>
                <path fill="#00C5C5" d="M54.718 50l-8.556-5.054a22.657 22.657 0 0 0 3.139-11.52c0-12.509-10.175-22.684-22.683-22.684a22.745 22.745 0 0 0-18.476 9.526l-8.09-5.773C6.17 5.923 16.102.805 26.619.805c17.986 0 32.618 14.633 32.618 32.62A32.595 32.595 0 0 1 54.718 50" mask="url(#d)"/>
            </g>
            <g transform="translate(0 .603)">
                <mask id="f" fill="#fff">
                    <use xlink:href="#e"/>
                </mask>
                <path fill="#00C5C5" d="M32.619 10.442c-12.507 0-22.682 10.174-22.682 22.68 0 12.508 10.175 22.682 22.682 22.682 12.507 0 22.682-10.174 22.682-22.682 0-12.506-10.175-22.68-22.682-22.68m0 55.3c-17.986 0-32.62-14.633-32.62-32.62C0 15.136 14.634.504 32.62.504c17.986 0 32.619 14.632 32.619 32.618 0 17.987-14.633 32.62-32.62 32.62" mask="url(#f)"/>
            </g>
            <mask id="h" fill="#fff">
                <use xlink:href="#g"/>
            </mask>
            <path fill="#00C5C5" d="M73.236 66.239h9.937V1.001h-9.937zM310.272 25.329h-9.937c0-7.936-6.457-14.391-14.391-14.391-7.935 0-14.391 6.455-14.391 14.39h-9.936C261.617 11.916 272.53 1 285.944 1c13.414 0 24.328 10.915 24.328 24.329" mask="url(#h)"/>
            <path fill="#00C5C5" d="M348.988 66.029h-9.937v-40.7c0-7.936-6.455-14.391-14.389-14.391-7.935 0-14.39 6.455-14.39 14.391v40.695h-9.937V25.329C300.335 11.915 311.248 1 324.662 1c13.414 0 24.326 10.915 24.326 24.329v40.7zM261.531 66.024h9.937V1.001h-9.937z" mask="url(#h)"/>
        </g>
    </g>
</svg>
