<svg xmlns="http://www.w3.org/2000/svg" width="164" height="178" viewBox="0 0 164 178">
    <g fill="#231F20" fill-rule="evenodd">
        <path d="M60.32 40.166c-.119 5.993-3.32 11.23-6.166 14.074-3.16 3.158-8.812 6.15-14.08 6.161h-7.847c-8.461-.964-17.258 1.67-23.75 8.159-11.303 11.296-11.303 29.61 0 40.907 5.783 5.777 13.395 8.555 20.97 8.423H40.02c5.76.23 11.06 3.046 14.13 6.114 3.026 3.024 6.045 7.906 6.116 14.122v8.185c-.795 8.298 1.855 16.863 8.21 23.217 11.304 11.296 29.628 11.296 40.93 0s11.302-29.61 0-40.91c-6.357-6.353-14.925-8.998-23.229-8.205h-8.19c-5.993-.121-11.234-3.318-14.078-6.16-3.163-3.16-6.152-8.811-6.167-14.075v-9.712c.041-.788.078-1.57.054-2.357v-9.993c.23-5.757 3.045-11.053 6.115-14.123 3.026-3.022 7.91-6.043 14.13-6.114h11.14l-.034-.033c7.376-.022 14.747-2.84 20.375-8.463 11.303-11.299 11.303-29.613 0-40.91-11.301-11.298-29.625-11.298-40.928 0-6.189 6.187-8.865 14.47-8.275 22.556v9.137z"/>
        <text font-family="Muli-ExtraBold, Muli" font-size="18" font-weight="600">
            <tspan x="100" y="97">231F20</tspan>
        </text>
    </g>
</svg>
