<svg xmlns="http://www.w3.org/2000/svg" xmlns:xlink="http://www.w3.org/1999/xlink" width="636" height="356" viewBox="0 0 636 356">
    <defs>
        <linearGradient id="b" x1="16.679%" x2="88.319%" y1="86.687%" y2="13.475%">
            <stop offset="0%" stop-color="#F05944"/>
            <stop offset="100%" stop-color="#613E97"/>
        </linearGradient>
        <path id="a" d="M71.422.433a9.955 9.955 0 0 0-6.979 2.828 9.516 9.516 0 0 0-2.89 6.834l-.01-.009V13.8c-.078 1.921-1.038 3.69-2.085 4.713-1.03 1.009-2.697 2.016-4.819 2.04h-3.086c-2.736-.175-5.529.721-7.621 2.766a9.503 9.503 0 0 0 0 13.65c3.854 3.77 10.104 3.77 13.958 0 2.188-2.138 3.089-5.027 2.793-7.82v-2.685c.042-2 1.132-3.748 2.103-4.696 1.078-1.055 3.006-2.053 4.802-2.057h3.556c2.618.072 5.259-.846 7.257-2.8a9.501 9.501 0 0 0 0-13.65A9.952 9.952 0 0 0 71.422.433zm-41.034 0a9.955 9.955 0 0 0-6.978 2.828 9.503 9.503 0 0 0 0 13.65c3.853 3.768 10.103 3.768 13.958 0a9.503 9.503 0 0 0 0-13.65 9.955 9.955 0 0 0-6.98-2.828zm54.638 22.915a9.506 9.506 0 0 0-2.885 6.88l-.018-.017v3.714c-.078 1.921-1.04 3.689-2.086 4.712-1.031 1.01-2.696 2.016-4.819 2.04h-2.677c-2.863-.298-5.831.583-8.027 2.73a9.501 9.501 0 0 0 0 13.649c2.214 2.166 5.214 3.044 8.1 2.722h2.622c2.045.04 3.832 1.108 4.803 2.056 1.077 1.054 2.097 2.94 2.102 4.696v3.478a9.482 9.482 0 0 0 2.864 7.097c3.854 3.77 10.104 3.77 13.957 0a9.501 9.501 0 0 0 0-13.65c-1.93-1.887-4.46-2.827-6.988-2.826l.01-.009h-3.799c-1.964-.077-3.772-1.016-4.819-2.04-1.03-1.009-2.061-2.638-2.086-4.712v-2.794a9.379 9.379 0 0 0-.017-1.867v-2.619c.04-2 1.132-3.747 2.102-4.696 1.077-1.053 3.005-2.051 4.802-2.056h3.8l-.018-.017c2.544.014 5.093-.923 7.035-2.821a9.501 9.501 0 0 0 0-13.65 9.951 9.951 0 0 0-6.979-2.827 9.949 9.949 0 0 0-6.979 2.827zm-82.096.059a9.502 9.502 0 0 0 0 13.65c2.168 2.12 5.09 3.004 7.922 2.739h2.793c2.044.039 3.831 1.106 4.8 2.055 1.08 1.054 2.1 2.94 2.104 4.696v3.24a8.907 8.907 0 0 0-.018.787v3.334c-.078 1.922-1.039 3.689-2.086 4.713-1.032 1.01-2.698 2.016-4.819 2.04H9.828l.012.011c-2.517.008-5.03.947-6.95 2.824A9.515 9.515 0 0 0 0 70.262v.118a9.515 9.515 0 0 0 2.89 6.767c3.854 3.769 10.104 3.769 13.959 0 2.11-2.064 3.022-4.827 2.821-7.528v-3.047c.041-2 1.132-3.748 2.103-4.697 1.078-1.054 3.006-2.051 4.802-2.055h2.675c2.887.321 5.886-.558 8.1-2.723a9.501 9.501 0 0 0 0-13.65c-1.971-1.928-4.568-2.855-7.15-2.81h-3.607c-1.964-.077-3.772-1.016-4.818-2.04-1.032-1.009-2.062-2.637-2.086-4.712v-2.731c.27-2.77-.633-5.627-2.801-7.747a9.953 9.953 0 0 0-6.979-2.827 9.954 9.954 0 0 0-6.979 2.827zm41.062 40.069a9.508 9.508 0 0 0-2.882 6.905v3.652c-.079 1.921-1.039 3.69-2.085 4.713-1.032 1.009-2.697 2.016-4.82 2.04h-2.792c-2.831-.265-5.753.618-7.921 2.738a9.502 9.502 0 0 0 0 13.65c3.853 3.77 10.103 3.77 13.957 0 2.168-2.12 3.071-4.978 2.8-7.746v-2.732c.041-1.999 1.133-3.747 2.103-4.695 1.078-1.055 3.006-2.053 4.802-2.057h3.734c2.554.022 5.113-.913 7.063-2.819a9.503 9.503 0 0 0 0-13.65 9.955 9.955 0 0 0-6.979-2.827 9.955 9.955 0 0 0-6.98 2.828zm20.473 20.108a9.501 9.501 0 0 0 0 13.65c3.854 3.77 10.104 3.77 13.958 0a9.503 9.503 0 0 0 0-13.65 9.954 9.954 0 0 0-6.98-2.828 9.952 9.952 0 0 0-6.978 2.828z"/>
        <path id="d" d="M0 .434h101.874v99.626H0z"/>
        <path id="f" d="M0 .434h101.874v99.626H0z"/>
    </defs>
    <g fill="none" fill-rule="evenodd">
        <path fill="#FFF" d="M0 0h636v356H0z"/>
        <g transform="translate(0 .484)">
            <mask id="c" fill="#fff">
                <use xlink:href="#a"/>
            </mask>
            <use fill="url(#b)" xlink:href="#a"/>
            <path d="M71.422.433a9.955 9.955 0 0 0-6.979 2.828 9.516 9.516 0 0 0-2.89 6.834l-.01-.009V13.8c-.078 1.921-1.038 3.69-2.085 4.713-1.03 1.009-2.697 2.016-4.819 2.04h-3.086c-2.736-.175-5.529.721-7.621 2.766a9.503 9.503 0 0 0 0 13.65c3.854 3.77 10.104 3.77 13.958 0 2.188-2.138 3.089-5.027 2.793-7.82v-2.685c.042-2 1.132-3.748 2.103-4.696 1.078-1.055 3.006-2.053 4.802-2.057h3.556c2.618.072 5.259-.846 7.257-2.8a9.501 9.501 0 0 0 0-13.65A9.952 9.952 0 0 0 71.422.433zm-41.034 0a9.955 9.955 0 0 0-6.978 2.828 9.503 9.503 0 0 0 0 13.65c3.853 3.768 10.103 3.768 13.958 0a9.503 9.503 0 0 0 0-13.65 9.955 9.955 0 0 0-6.98-2.828zm54.638 22.915a9.506 9.506 0 0 0-2.885 6.88l-.018-.017v3.714c-.078 1.921-1.04 3.689-2.086 4.712-1.031 1.01-2.696 2.016-4.819 2.04h-2.677c-2.863-.298-5.831.583-8.027 2.73a9.501 9.501 0 0 0 0 13.649c2.214 2.166 5.214 3.044 8.1 2.722h2.622c2.045.04 3.832 1.108 4.803 2.056 1.077 1.054 2.097 2.94 2.102 4.696v3.478a9.482 9.482 0 0 0 2.864 7.097c3.854 3.77 10.104 3.77 13.957 0a9.501 9.501 0 0 0 0-13.65c-1.93-1.887-4.46-2.827-6.988-2.826l.01-.009h-3.799c-1.964-.077-3.772-1.016-4.819-2.04-1.03-1.009-2.061-2.638-2.086-4.712v-2.794a9.379 9.379 0 0 0-.017-1.867v-2.619c.04-2 1.132-3.747 2.102-4.696 1.077-1.053 3.005-2.051 4.802-2.056h3.8l-.018-.017c2.544.014 5.093-.923 7.035-2.821a9.501 9.501 0 0 0 0-13.65 9.951 9.951 0 0 0-6.979-2.827 9.949 9.949 0 0 0-6.979 2.827zm-82.096.059a9.502 9.502 0 0 0 0 13.65c2.168 2.12 5.09 3.004 7.922 2.739h2.793c2.044.039 3.831 1.106 4.8 2.055 1.08 1.054 2.1 2.94 2.104 4.696v3.24a8.907 8.907 0 0 0-.018.787v3.334c-.078 1.922-1.039 3.689-2.086 4.713-1.032 1.01-2.698 2.016-4.819 2.04H9.828l.012.011c-2.517.008-5.03.947-6.95 2.824A9.515 9.515 0 0 0 0 70.262v.118a9.515 9.515 0 0 0 2.89 6.767c3.854 3.769 10.104 3.769 13.959 0 2.11-2.064 3.022-4.827 2.821-7.528v-3.047c.041-2 1.132-3.748 2.103-4.697 1.078-1.054 3.006-2.051 4.802-2.055h2.675c2.887.321 5.886-.558 8.1-2.723a9.501 9.501 0 0 0 0-13.65c-1.971-1.928-4.568-2.855-7.15-2.81h-3.607c-1.964-.077-3.772-1.016-4.818-2.04-1.032-1.009-2.062-2.637-2.086-4.712v-2.731c.27-2.77-.633-5.627-2.801-7.747a9.953 9.953 0 0 0-6.979-2.827 9.954 9.954 0 0 0-6.979 2.827zm41.062 40.069a9.508 9.508 0 0 0-2.882 6.905v3.652c-.079 1.921-1.039 3.69-2.085 4.713-1.032 1.009-2.697 2.016-4.82 2.04h-2.792c-2.831-.265-5.753.618-7.921 2.738a9.502 9.502 0 0 0 0 13.65c3.853 3.77 10.103 3.77 13.957 0 2.168-2.12 3.071-4.978 2.8-7.746v-2.732c.041-1.999 1.133-3.747 2.103-4.695 1.078-1.055 3.006-2.053 4.802-2.057h3.734c2.554.022 5.113-.913 7.063-2.819a9.503 9.503 0 0 0 0-13.65 9.955 9.955 0 0 0-6.979-2.827 9.955 9.955 0 0 0-6.98 2.828zm20.473 20.108a9.501 9.501 0 0 0 0 13.65c3.854 3.77 10.104 3.77 13.958 0a9.503 9.503 0 0 0 0-13.65 9.954 9.954 0 0 0-6.98-2.828 9.952 9.952 0 0 0-6.978 2.828z" mask="url(#c)"/>
        </g>
        <path fill="#F05944" d="M344.157 37.553c2.188-2.138 3.089-5.028 2.794-7.82v-2.685c.04-2 1.132-3.748 2.102-4.697 1.078-1.054 3.007-2.052 4.802-2.056h3.556c2.619.073 5.26-.846 7.258-2.8a9.504 9.504 0 0 0 0-13.65c-3.855-3.77-10.104-3.77-13.958 0a9.514 9.514 0 0 0-2.89 6.834l-.01-.01v3.715c-.078 1.922-1.038 3.689-2.085 4.713-1.032 1.008-2.698 2.016-4.82 2.04h-3.086c-2.735-.175-5.53.722-7.621 2.767a9.503 9.503 0 0 0 0 13.65c3.854 3.768 10.104 3.768 13.958 0zm-20.522-20.058a9.504 9.504 0 0 0 0-13.65c-3.855-3.77-10.104-3.77-13.958 0a9.502 9.502 0 0 0 0 13.65c3.854 3.768 10.103 3.768 13.958 0zm27.097 66.672a9.501 9.501 0 0 0 0 13.65c3.855 3.77 10.104 3.77 13.958 0a9.503 9.503 0 0 0 0-13.65c-3.854-3.769-10.103-3.769-13.958 0zm27.508-22.954l.011-.01h-3.799c-1.964-.076-3.772-1.016-4.819-2.04-1.03-1.008-2.06-2.637-2.085-4.711v-2.794a9.441 9.441 0 0 0-.018-1.868v-2.618c.04-2 1.132-3.747 2.102-4.696 1.078-1.054 3.006-2.052 4.803-2.056h3.798l-.017-.017c2.544.014 5.093-.923 7.035-2.822a9.502 9.502 0 0 0 0-13.65c-3.855-3.77-10.103-3.77-13.958 0a9.513 9.513 0 0 0-2.886 6.88l-.017-.016v3.714c-.079 1.921-1.039 3.688-2.085 4.713-1.032 1.008-2.697 2.016-4.82 2.04h-2.677c-2.863-.299-5.832.581-8.026 2.728a9.502 9.502 0 0 0 0 13.65c2.213 2.165 5.213 3.044 8.099 2.722h2.622c2.045.04 3.832 1.107 4.802 2.056 1.078 1.054 2.1 2.94 2.103 4.697v3.476a9.483 9.483 0 0 0 2.864 7.098c3.855 3.77 10.103 3.77 13.958 0a9.501 9.501 0 0 0 0-13.65 9.955 9.955 0 0 0-6.99-2.826zm-72.302 5.942c.04-2 1.132-3.747 2.103-4.696 1.077-1.053 3.005-2.052 4.801-2.056h2.676c2.886.322 5.886-.557 8.1-2.722a9.503 9.503 0 0 0 0-13.65c-1.973-1.928-4.568-2.855-7.152-2.81h-3.606c-1.964-.077-3.772-1.016-4.819-2.04-1.032-1.01-2.061-2.638-2.085-4.712v-2.732c.27-2.768-.633-5.626-2.8-7.747-3.855-3.769-10.104-3.769-13.958 0a9.501 9.501 0 0 0 0 13.65c2.168 2.12 5.09 3.004 7.921 2.739h2.793c2.044.04 3.832 1.107 4.802 2.056 1.078 1.054 2.098 2.94 2.102 4.697v3.24a9.23 9.23 0 0 0-.018.786v3.334c-.078 1.921-1.038 3.688-2.086 4.713-1.031 1.009-2.697 2.016-4.818 2.04h-3.8l.012.01c-2.515.008-5.029.949-6.948 2.826a9.501 9.501 0 0 0 0 13.65c3.854 3.768 10.103 3.768 13.958 0 2.11-2.065 3.023-4.828 2.822-7.528v-3.048zm38.28-3.096a9.501 9.501 0 0 1 0 13.65c-1.95 1.906-4.51 2.84-7.064 2.819h-3.733c-1.796.004-3.723 1.002-4.802 2.056-.97.949-2.062 2.697-2.102 4.696v2.731c.271 2.769-.633 5.627-2.8 7.747-3.855 3.77-10.104 3.77-13.959 0a9.502 9.502 0 0 1 0-13.65c2.169-2.12 5.09-3.004 7.923-2.738h2.792c2.122-.024 3.787-1.032 4.818-2.04 1.047-1.024 2.008-2.791 2.086-4.712v-3.653c-.022-2.497.935-5 2.883-6.906 3.855-3.769 10.103-3.769 13.958 0z"/>
        <path fill="#613E97" d="M591.918 38.037c2.188-2.138 3.089-5.028 2.794-7.82v-2.686c.04-2 1.132-3.747 2.102-4.696 1.078-1.054 3.007-2.052 4.802-2.056h3.556c2.619.072 5.26-.846 7.258-2.8a9.504 9.504 0 0 0 0-13.65c-3.855-3.77-10.104-3.77-13.958 0a9.514 9.514 0 0 0-2.89 6.834l-.01-.01v3.715c-.078 1.921-1.038 3.689-2.085 4.712-1.032 1.01-2.698 2.016-4.82 2.04h-3.086c-2.735-.174-5.53.722-7.621 2.767a9.503 9.503 0 0 0 0 13.65c3.854 3.77 10.104 3.77 13.958 0zm-20.522-20.058a9.504 9.504 0 0 0 0-13.65c-3.855-3.77-10.104-3.77-13.958 0a9.502 9.502 0 0 0 0 13.65c3.854 3.768 10.103 3.768 13.958 0zm27.097 66.672a9.501 9.501 0 0 0 0 13.65c3.854 3.77 10.104 3.77 13.958 0a9.503 9.503 0 0 0 0-13.65c-3.854-3.77-10.104-3.77-13.958 0zM626 61.697l.011-.01h-3.799c-1.964-.076-3.772-1.016-4.819-2.04-1.03-1.008-2.06-2.637-2.085-4.711V52.14a9.441 9.441 0 0 0-.018-1.867v-2.618c.04-2 1.132-3.747 2.102-4.696 1.078-1.054 3.006-2.052 4.803-2.056h3.798l-.017-.017c2.544.014 5.093-.923 7.035-2.822a9.502 9.502 0 0 0 0-13.65c-3.855-3.77-10.103-3.77-13.958 0a9.513 9.513 0 0 0-2.886 6.88l-.017-.017v3.715c-.079 1.921-1.039 3.688-2.085 4.713-1.032 1.008-2.697 2.016-4.82 2.039h-2.677c-2.863-.298-5.832.582-8.026 2.729a9.502 9.502 0 0 0 0 13.65c2.213 2.164 5.213 3.043 8.099 2.722h2.622c2.045.04 3.832 1.107 4.802 2.056 1.078 1.054 2.1 2.94 2.103 4.697v3.476a9.483 9.483 0 0 0 2.864 7.098c3.855 3.77 10.103 3.77 13.958 0a9.501 9.501 0 0 0 0-13.65 9.955 9.955 0 0 0-6.99-2.826zM553.7 67.639c.04-2 1.132-3.747 2.103-4.696 1.077-1.054 3.005-2.052 4.801-2.056h2.676c2.886.322 5.886-.557 8.1-2.722a9.503 9.503 0 0 0 0-13.65c-1.973-1.928-4.568-2.855-7.152-2.81h-3.606c-1.964-.077-3.772-1.016-4.819-2.04-1.032-1.01-2.061-2.638-2.085-4.713v-2.73c.27-2.77-.633-5.627-2.8-7.748-3.855-3.769-10.104-3.769-13.958 0a9.501 9.501 0 0 0 0 13.65c2.168 2.12 5.09 3.004 7.921 2.739h2.793c2.044.04 3.832 1.107 4.802 2.055 1.078 1.055 2.098 2.94 2.102 4.698v3.24a9.23 9.23 0 0 0-.018.786v3.334c-.078 1.921-1.038 3.688-2.086 4.713-1.031 1.009-2.697 2.016-4.818 2.04h-3.8l.012.01c-2.515.008-5.029.948-6.948 2.826a9.501 9.501 0 0 0 0 13.65c3.854 3.768 10.103 3.768 13.958 0 2.11-2.065 3.023-4.828 2.822-7.528V67.64zm38.28-3.096a9.501 9.501 0 0 1 0 13.65c-1.95 1.906-4.51 2.84-7.064 2.819h-3.733c-1.796.004-3.723 1.002-4.802 2.056-.97.949-2.062 2.697-2.102 4.696v2.731c.271 2.769-.633 5.627-2.801 7.747-3.854 3.77-10.103 3.77-13.958 0a9.502 9.502 0 0 1 0-13.65c2.169-2.12 5.09-3.004 7.923-2.738h2.792c2.122-.024 3.787-1.032 4.818-2.04 1.047-1.024 2.008-2.791 2.086-4.712v-3.653c-.022-2.497.935-5 2.883-6.906 3.855-3.77 10.103-3.77 13.958 0z"/>
        <path fill="#F05944" d="M57.95 318.245a9.504 9.504 0 0 1 0 13.65c-1.948 1.906-4.508 2.84-7.063 2.82h-3.733c-1.796.004-3.724 1-4.802 2.055-.97.95-2.062 2.697-2.103 4.697v2.73c.272 2.769-.632 5.627-2.8 7.747-3.855 3.77-10.103 3.77-13.958 0a9.501 9.501 0 0 1 0-13.65c2.169-2.12 5.09-3.004 7.922-2.739h2.793c2.122-.023 3.786-1.03 4.818-2.039 1.047-1.024 2.007-2.792 2.086-4.713v-3.652c-.022-2.498.934-5 2.882-6.906 3.855-3.77 10.104-3.77 13.959 0M19.67 321.341c.041-2 1.133-3.747 2.103-4.696 1.078-1.054 3.005-2.052 4.802-2.056h2.676c2.885.322 5.885-.557 8.1-2.722a9.501 9.501 0 0 0 0-13.65c-1.973-1.927-4.569-2.854-7.152-2.81h-3.606c-1.965-.077-3.772-1.017-4.819-2.04-1.032-1.01-2.061-2.638-2.085-4.712v-2.732c.27-2.768-.633-5.626-2.8-7.747-3.855-3.769-10.104-3.769-13.958 0a9.502 9.502 0 0 0 0 13.65c2.167 2.121 5.09 3.003 7.921 2.739h2.793c2.044.04 3.831 1.107 4.801 2.056 1.079 1.054 2.098 2.94 2.103 4.696v3.24a9.23 9.23 0 0 0-.018.787v3.334c-.079 1.921-1.039 3.688-2.086 4.713-1.032 1.008-2.697 2.016-4.818 2.04h-3.8l.012.01c-2.515.008-5.029.948-6.948 2.825a9.502 9.502 0 0 0 0 13.65c3.854 3.77 10.103 3.77 13.958 0 2.11-2.064 3.023-4.828 2.821-7.526v-3.049z"/>
        <path fill="#613E97" d="M91.974 315.4l.01-.01h-3.799c-1.964-.077-3.772-1.016-4.819-2.04-1.032-1.009-2.061-2.638-2.086-4.713v-2.794a9.37 9.37 0 0 0-.017-1.866v-2.619c.04-2 1.132-3.747 2.102-4.696 1.077-1.054 3.005-2.052 4.802-2.056h3.8l-.018-.017c2.544.014 5.093-.923 7.035-2.821a9.502 9.502 0 0 0 0-13.65c-3.855-3.77-10.104-3.77-13.958 0a9.508 9.508 0 0 0-2.885 6.88l-.018-.017v3.714c-.079 1.92-1.038 3.689-2.086 4.712-1.031 1.01-2.696 2.017-4.818 2.04H72.54c-2.863-.297-5.832.583-8.026 2.73a9.502 9.502 0 0 0 0 13.65c2.213 2.164 5.213 3.042 8.098 2.721h2.623c2.044.04 3.832 1.108 4.802 2.056 1.078 1.054 2.1 2.94 2.103 4.696v3.478a9.486 9.486 0 0 0 2.864 7.097c3.854 3.77 10.103 3.77 13.957 0a9.501 9.501 0 0 0 0-13.65 9.953 9.953 0 0 0-6.988-2.826"/>
        <path fill="#F05944" d="M64.465 338.353a9.502 9.502 0 0 0 0 13.65c3.854 3.77 10.103 3.77 13.958 0a9.504 9.504 0 0 0 0-13.65c-3.855-3.77-10.104-3.77-13.958 0"/>
        <path fill="#613E97" d="M37.368 271.68a9.503 9.503 0 0 0 0-13.65c-3.855-3.769-10.104-3.769-13.959 0a9.503 9.503 0 0 0 0 13.65c3.855 3.77 10.104 3.77 13.959 0M57.89 291.74c2.187-2.14 3.088-5.029 2.794-7.82v-2.686c.04-2 1.132-3.747 2.102-4.697 1.077-1.054 3.006-2.051 4.802-2.055h3.556c2.618.072 5.259-.848 7.258-2.802a9.503 9.503 0 0 0 0-13.65c-3.855-3.769-10.104-3.769-13.958 0a9.514 9.514 0 0 0-2.89 6.835l-.01-.01v3.715c-.078 1.922-1.038 3.689-2.085 4.713-1.032 1.008-2.698 2.016-4.82 2.039h-3.086c-2.736-.173-5.53.723-7.622 2.767a9.504 9.504 0 0 0 0 13.65c3.855 3.77 10.105 3.77 13.959 0"/>
        <g transform="translate(286.267 254.77)">
            <mask id="e" fill="#fff">
                <use xlink:href="#d"/>
            </mask>
            <path fill="#231F20" d="M57.89 36.97c2.187-2.14 3.088-5.029 2.794-7.82v-2.686c.04-2 1.132-3.747 2.102-4.697 1.077-1.054 3.006-2.051 4.802-2.055h3.556c2.618.072 5.259-.848 7.258-2.802a9.503 9.503 0 0 0 0-13.65c-3.855-3.769-10.104-3.769-13.958 0a9.514 9.514 0 0 0-2.89 6.835l-.01-.01V13.8c-.078 1.922-1.038 3.689-2.085 4.713-1.032 1.009-2.698 2.016-4.82 2.039h-3.086c-2.736-.173-5.53.723-7.622 2.767a9.504 9.504 0 0 0 0 13.65c3.855 3.77 10.105 3.77 13.959 0zM37.368 16.91a9.503 9.503 0 0 0 0-13.65c-3.855-3.769-10.104-3.769-13.958 0a9.501 9.501 0 0 0 0 13.65c3.854 3.77 10.103 3.77 13.958 0zm27.097 66.673a9.502 9.502 0 0 0 0 13.65c3.854 3.77 10.103 3.77 13.958 0a9.504 9.504 0 0 0 0-13.65c-3.855-3.769-10.104-3.769-13.958 0zM91.973 60.63l.01-.01h-3.798c-1.964-.076-3.772-1.015-4.819-2.04-1.031-1.008-2.06-2.637-2.085-4.711v-2.794a9.441 9.441 0 0 0-.018-1.868v-2.618c.04-2 1.131-3.747 2.101-4.696 1.079-1.053 3.007-2.052 4.803-2.056h3.799l-.018-.017c2.545.014 5.094-.923 7.035-2.822a9.502 9.502 0 0 0 0-13.65c-3.854-3.768-10.102-3.768-13.957 0a9.512 9.512 0 0 0-2.886 6.881l-.017-.017v3.714c-.079 1.921-1.039 3.688-2.086 4.713-1.03 1.008-2.696 2.016-4.818 2.04H72.54c-2.863-.298-5.832.581-8.027 2.728a9.502 9.502 0 0 0 0 13.65c2.213 2.165 5.213 3.044 8.1 2.722h2.622c2.045.04 3.831 1.107 4.802 2.056 1.078 1.054 2.099 2.94 2.103 4.696v3.477a9.483 9.483 0 0 0 2.864 7.098c3.855 3.77 10.103 3.77 13.958 0a9.501 9.501 0 0 0 0-13.65 9.955 9.955 0 0 0-6.99-2.826zM19.67 66.571c.041-2 1.133-3.746 2.103-4.696 1.078-1.053 3.005-2.051 4.802-2.056h2.676c2.885.322 5.885-.557 8.1-2.722a9.503 9.503 0 0 0 0-13.65c-1.973-1.927-4.569-2.854-7.152-2.81h-3.606c-1.965-.077-3.772-1.017-4.819-2.04-1.032-1.01-2.061-2.638-2.085-4.712v-2.732c.27-2.768-.633-5.626-2.8-7.746-3.855-3.77-10.104-3.77-13.958 0a9.501 9.501 0 0 0 0 13.65c2.167 2.12 5.09 3.003 7.921 2.738h2.793c2.044.04 3.831 1.107 4.801 2.056 1.079 1.054 2.098 2.94 2.103 4.696v3.24a9.23 9.23 0 0 0-.018.787v3.334c-.079 1.921-1.039 3.689-2.086 4.713-1.032 1.008-2.697 2.016-4.818 2.04h-3.8l.012.011c-2.515.007-5.029.948-6.948 2.824a9.502 9.502 0 0 0 0 13.65c3.854 3.77 10.103 3.77 13.958 0 2.11-2.064 3.023-4.827 2.821-7.526V66.57zm38.28-3.096a9.502 9.502 0 0 1 0 13.65c-1.948 1.905-4.509 2.84-7.063 2.82h-3.733c-1.796.004-3.724 1.001-4.802 2.056-.97.949-2.062 2.696-2.102 4.696v2.731c.27 2.768-.633 5.626-2.801 7.746-3.854 3.77-10.103 3.77-13.958 0a9.501 9.501 0 0 1 0-13.65c2.169-2.12 5.09-3.004 7.922-2.739h2.792c2.122-.023 3.788-1.03 4.82-2.038 1.046-1.025 2.007-2.792 2.085-4.714V70.38c-.022-2.496.935-5 2.883-6.905 3.854-3.77 10.103-3.77 13.957 0z" mask="url(#e)"/>
        </g>
        <g transform="translate(534.028 254.77)">
            <mask id="g" fill="#fff">
                <use xlink:href="#f"/>
            </mask>
            <path fill="#DBDBDA" d="M57.89 36.97c2.187-2.14 3.088-5.029 2.794-7.82v-2.686c.04-2 1.132-3.747 2.102-4.697 1.077-1.054 3.006-2.051 4.802-2.055h3.556c2.618.072 5.259-.848 7.258-2.802a9.503 9.503 0 0 0 0-13.65c-3.855-3.769-10.104-3.769-13.958 0a9.514 9.514 0 0 0-2.89 6.835l-.01-.01V13.8c-.078 1.922-1.038 3.689-2.085 4.713-1.032 1.009-2.698 2.016-4.82 2.039h-3.086c-2.736-.173-5.53.723-7.622 2.767a9.504 9.504 0 0 0 0 13.65c3.855 3.77 10.105 3.77 13.959 0zM37.368 16.91a9.503 9.503 0 0 0 0-13.65c-3.855-3.769-10.104-3.769-13.958 0a9.501 9.501 0 0 0 0 13.65c3.854 3.77 10.103 3.77 13.958 0zm27.097 66.673a9.502 9.502 0 0 0 0 13.65c3.854 3.77 10.103 3.77 13.958 0a9.504 9.504 0 0 0 0-13.65c-3.855-3.769-10.104-3.769-13.958 0zM91.973 60.63l.01-.01h-3.798c-1.964-.076-3.772-1.015-4.819-2.04-1.031-1.008-2.06-2.637-2.085-4.711v-2.794a9.441 9.441 0 0 0-.018-1.868v-2.618c.04-2 1.131-3.747 2.101-4.696 1.079-1.053 3.007-2.052 4.803-2.056h3.799l-.018-.017c2.545.014 5.094-.923 7.035-2.822a9.502 9.502 0 0 0 0-13.65c-3.854-3.768-10.102-3.768-13.957 0a9.512 9.512 0 0 0-2.886 6.881l-.017-.017v3.714c-.079 1.921-1.039 3.688-2.086 4.713-1.03 1.008-2.696 2.016-4.818 2.04H72.54c-2.863-.298-5.832.581-8.027 2.728a9.502 9.502 0 0 0 0 13.65c2.213 2.165 5.213 3.044 8.1 2.722h2.622c2.045.04 3.831 1.107 4.802 2.056 1.078 1.054 2.099 2.94 2.103 4.696v3.477a9.483 9.483 0 0 0 2.864 7.098c3.855 3.77 10.103 3.77 13.958 0a9.501 9.501 0 0 0 0-13.65 9.955 9.955 0 0 0-6.99-2.826zM19.67 66.571c.041-2 1.133-3.746 2.103-4.696 1.078-1.053 3.005-2.051 4.802-2.056h2.676c2.885.322 5.885-.557 8.1-2.722a9.503 9.503 0 0 0 0-13.65c-1.973-1.927-4.569-2.854-7.152-2.81h-3.606c-1.965-.077-3.772-1.017-4.819-2.04-1.032-1.01-2.061-2.638-2.085-4.712v-2.732c.27-2.768-.633-5.626-2.8-7.746-3.855-3.77-10.104-3.77-13.958 0a9.501 9.501 0 0 0 0 13.65c2.167 2.12 5.09 3.003 7.921 2.738h2.793c2.044.04 3.831 1.107 4.801 2.056 1.079 1.054 2.098 2.94 2.103 4.696v3.24a9.23 9.23 0 0 0-.018.787v3.334c-.079 1.921-1.039 3.689-2.086 4.713-1.032 1.008-2.697 2.016-4.818 2.04h-3.8l.012.011c-2.515.007-5.029.948-6.948 2.824a9.502 9.502 0 0 0 0 13.65c3.854 3.77 10.103 3.77 13.958 0 2.11-2.064 3.023-4.827 2.821-7.526V66.57zm38.28-3.096a9.502 9.502 0 0 1 0 13.65c-1.948 1.905-4.509 2.84-7.063 2.82h-3.733c-1.796.004-3.724 1.001-4.802 2.056-.97.949-2.062 2.696-2.102 4.696v2.731c.27 2.768-.633 5.626-2.801 7.746-3.854 3.77-10.103 3.77-13.958 0a9.501 9.501 0 0 1 0-13.65c2.169-2.12 5.09-3.004 7.922-2.739h2.792c2.122-.023 3.788-1.03 4.82-2.038 1.046-1.025 2.007-2.792 2.085-4.714V70.38c-.022-2.496.935-5 2.883-6.905 3.854-3.77 10.103-3.77 13.957 0z" mask="url(#g)"/>
        </g>
    </g>
</svg>
