<svg xmlns="http://www.w3.org/2000/svg" xmlns:xlink="http://www.w3.org/1999/xlink" width="349" height="355" viewBox="0 0 349 355">
    <defs>
        <path id="a" d="M.706.46H38.28v35.339H.706z"/>
    </defs>
    <g fill="none" fill-rule="evenodd">
        <path fill="#FFF" d="M0 0h348.876v355.003H0z"/>
        <g fill="#603C94">
            <path d="M32.396 34.247h-3.05c-2.644 0-4.787-2.093-4.787-4.675V20.45H11.83v9.122c0 2.582-2.144 4.675-4.787 4.675h-3.05A.98.98 0 0 1 3 33.278V2.061a.98.98 0 0 1 .991-.968h3.05c2.644 0 4.787 2.094 4.787 4.675v8.125H24.56V5.768c0-2.581 2.143-4.675 4.787-4.675h3.05a.98.98 0 0 1 .992.968v31.217a.98.98 0 0 1-.992.969M61.323 21.908l-3.656-10.565-3.704 10.565h7.36zm12.549 12.339H69.23c-2.004 0-3.795-1.22-4.489-3.055l-1.032-2.726H51.524l-1.14 2.823c-.722 1.785-2.487 2.958-4.452 2.958h-4.608c-.704 0-1.19-.691-.936-1.333l12.285-31.2a.99.99 0 0 1 .925-.621h8.257a.99.99 0 0 1 .928.627l12.028 31.2c.247.642-.237 1.327-.94 1.327zM105.297 23.23c0 5.61-2.52 9.264-7.56 10.966-1.757.6-3.647.9-5.67.9-3.95 0-7.635-1.087-11.054-3.262a.978.978 0 0 1-.331-1.286l.86-1.581c1.193-2.19 3.951-3.117 6.236-2.034 1.368.65 2.721.974 4.057.974 1.146 0 2.118-.262 2.915-.785.93-.588 1.395-1.423 1.395-2.503 0-.981-.513-1.8-1.543-2.453-.764-.49-2.053-.99-3.861-1.496-2.192-.632-3.571-1.068-4.136-1.311-.896-.372-1.66-.809-2.291-1.309-1.81-1.456-2.716-3.656-2.716-6.599 0-3.073.938-5.621 2.811-7.642C86.597 1.432 89.515.243 93.162.243c3.344 0 6.628.75 9.848 2.247.505.234.708.85.452 1.334l-.87 1.653c-1.073 2.036-3.483 2.961-5.726 2.296a8.066 8.066 0 0 0-2.302-.34c-.948 0-1.795.235-2.543.706-.848.537-1.271 1.252-1.271 2.145 0 .878.556 1.634 1.669 2.267.498.294 1.992.797 4.483 1.512 3.122.892 5.347 2.157 6.675 3.793 1.147 1.395 1.72 3.185 1.72 5.374M142.81 34.247h-3.05c-2.643 0-4.786-2.093-4.786-4.675V20.45h-12.732v9.122c0 2.582-2.143 4.675-4.787 4.675h-3.05a.98.98 0 0 1-.992-.969V2.061a.98.98 0 0 1 .992-.968h3.05c2.644 0 4.787 2.094 4.787 4.675v8.125h12.732V5.768c0-2.581 2.143-4.675 4.785-4.675h3.052a.98.98 0 0 1 .991.968v31.217a.98.98 0 0 1-.991.969M201.139 2.355l-10.21 31.219a.989.989 0 0 1-.944.673h-4.766c-2.09 0-3.937-1.325-4.565-3.272l-5.136-15.94-5.407 16.002c-.648 1.915-2.481 3.21-4.546 3.21h-4.778a.989.989 0 0 1-.95-.692L150.31 2.338c-.19-.621.286-1.245.949-1.245h4.227c2.166 0 4.06 1.42 4.623 3.461l4.941 17.962 6.106-18.204c.643-1.92 2.478-3.22 4.547-3.22 2.106 0 3.964 1.345 4.578 3.313l5.655 18.111 5.41-18.061c.597-1.993 2.467-3.362 4.593-3.362h4.257c.671 0 1.148.638.944 1.262M234.56 17.682c0-2.338-.766-4.359-2.293-6.063-1.963-2.176-4.415-3.264-7.355-3.264-2.029 0-3.864.557-5.51 1.668a9.15 9.15 0 0 0-3.515 4.445 9.024 9.024 0 0 0-.597 3.214c0 2.24.762 4.245 2.292 6.014 1.894 2.193 4.337 3.288 7.33 3.288 2.991 0 5.442-1.087 7.355-3.263 1.527-1.736 2.293-3.75 2.293-6.04m9.152 0c0 4.502-1.534 8.453-4.602 11.853-3.497 3.871-8.23 5.805-14.198 5.805-5.952 0-10.677-1.934-14.174-5.805-3.067-3.4-4.6-7.35-4.6-11.852 0-2.056.413-4.165 1.243-6.327.83-2.162 1.937-4.011 3.332-5.55C214.21 1.936 218.944 0 224.912 0c5.969 0 10.7 1.935 14.198 5.806 3.068 3.4 4.602 7.358 4.602 11.876M267.668 11.768c0-1.18-.441-2.171-1.323-2.979-.831-.758-2.173-1.138-4.017-1.138h-1.648v8.259h1.648c1.863 0 3.202-.38 4.017-1.139.882-.824 1.323-1.824 1.323-3.003m10.4 22.479h-6.353a4.818 4.818 0 0 1-4.02-2.136l-7.015-10.592v8.053c0 2.582-2.142 4.675-4.785 4.675h-3.05a.98.98 0 0 1-.992-.969V2.061a.98.98 0 0 1 .991-.968h12.734c4.013 0 6.98 1.175 8.903 3.523 1.558 1.893 2.339 4.12 2.339 6.678 0 2.931-.897 5.271-2.689 7.02-1.142 1.116-2.718 1.894-4.723 2.331l9.447 12.045c.5.637.034 1.557-.787 1.557M315.935 34.247h-6.978a4.826 4.826 0 0 1-3.775-1.803l-10.026-12.576v9.704c0 2.582-2.143 4.675-4.787 4.675h-3.05a.98.98 0 0 1-.991-.969V2.061a.98.98 0 0 1 .99-.968h3.051c2.644 0 4.787 2.094 4.787 4.675v9l9.33-11.85a4.826 4.826 0 0 1 3.793-1.825h6.387c.84 0 1.3.96.76 1.59l-12.091 14.1 13.366 15.88c.532.632.071 1.584-.766 1.584M348.03 23.23c0 5.61-2.52 9.264-7.559 10.966-1.757.6-3.647.9-5.67.9-3.95 0-7.635-1.087-11.055-3.262a.978.978 0 0 1-.33-1.286l.862-1.581c1.191-2.19 3.95-3.117 6.234-2.034 1.368.65 2.72.974 4.058.974 1.144 0 2.117-.262 2.914-.785.932-.588 1.397-1.423 1.397-2.503 0-.981-.515-1.8-1.546-2.453-.763-.49-2.05-.99-3.861-1.496-2.191-.632-3.57-1.068-4.134-1.311-.898-.372-1.66-.809-2.292-1.309-1.81-1.456-2.716-3.656-2.716-6.599 0-3.073.937-5.621 2.81-7.642 2.188-2.377 5.107-3.566 8.754-3.566 3.345 0 6.627.75 9.848 2.247.506.234.71.85.453 1.335l-.87 1.653c-1.074 2.035-3.484 2.961-5.726 2.296a8.038 8.038 0 0 0-2.302-.341c-.948 0-1.796.235-2.544.706-.848.537-1.27 1.252-1.27 2.145 0 .878.555 1.634 1.668 2.267.498.294 1.992.797 4.482 1.512 3.125.892 5.348 2.157 6.677 3.793 1.145 1.395 1.719 3.185 1.719 5.374"/>
        </g>
        <path fill="#231F20" d="M32.396 193.58h-3.05c-2.644 0-4.787-2.091-4.787-4.674v-9.122H11.83v9.122c0 2.583-2.144 4.675-4.787 4.675h-3.05a.98.98 0 0 1-.992-.968v-31.218a.98.98 0 0 1 .991-.968h3.05c2.644 0 4.787 2.094 4.787 4.675v8.125H24.56v-8.125c0-2.581 2.143-4.675 4.787-4.675h3.05a.98.98 0 0 1 .992.968v31.218a.98.98 0 0 1-.992.968M61.323 181.243l-3.656-10.566-3.704 10.566h7.36zm12.549 12.338H69.23c-2.004 0-3.795-1.218-4.489-3.054L63.71 187.8H51.524l-1.14 2.823c-.722 1.786-2.487 2.958-4.452 2.958h-4.608c-.704 0-1.19-.691-.936-1.332l12.285-31.2a.99.99 0 0 1 .925-.621h8.257a.99.99 0 0 1 .928.626l12.028 31.2c.247.642-.237 1.327-.94 1.327zM105.297 182.564c0 5.61-2.52 9.265-7.56 10.968-1.757.6-3.647.898-5.67.898-3.95 0-7.635-1.086-11.054-3.262a.977.977 0 0 1-.331-1.285l.86-1.581c1.193-2.192 3.951-3.118 6.236-2.034 1.368.649 2.721.974 4.057.974 1.146 0 2.118-.263 2.915-.785.93-.59 1.395-1.424 1.395-2.503 0-.982-.513-1.8-1.543-2.453-.764-.49-2.053-.99-3.861-1.497-2.192-.63-3.571-1.067-4.136-1.311-.896-.37-1.66-.807-2.291-1.309-1.81-1.455-2.716-3.655-2.716-6.599 0-3.072.938-5.62 2.811-7.642 2.188-2.377 5.106-3.565 8.753-3.565 3.344 0 6.628.748 9.848 2.247.505.234.708.85.452 1.334l-.87 1.652c-1.073 2.036-3.483 2.962-5.726 2.297a8.033 8.033 0 0 0-2.302-.34c-.948 0-1.795.234-2.543.706-.848.536-1.271 1.251-1.271 2.144 0 .878.556 1.635 1.669 2.267.498.295 1.992.798 4.483 1.512 3.122.892 5.347 2.157 6.675 3.793 1.147 1.396 1.72 3.187 1.72 5.374M142.81 193.58h-3.05c-2.643 0-4.786-2.091-4.786-4.674v-9.122h-12.732v9.122c0 2.583-2.143 4.675-4.787 4.675h-3.05a.98.98 0 0 1-.992-.968v-31.218a.98.98 0 0 1 .992-.968h3.05c2.644 0 4.787 2.094 4.787 4.675v8.125h12.732v-8.125c0-2.581 2.143-4.675 4.785-4.675h3.052a.98.98 0 0 1 .991.968v31.218a.98.98 0 0 1-.991.968M201.139 161.69l-10.21 31.217a.989.989 0 0 1-.944.674h-4.766c-2.09 0-3.937-1.324-4.565-3.271l-5.136-15.941-5.407 16.003c-.648 1.915-2.481 3.209-4.546 3.209h-4.778a.988.988 0 0 1-.95-.692l-9.528-31.217c-.19-.62.286-1.245.949-1.245h4.227c2.166 0 4.06 1.42 4.623 3.462l4.941 17.96 6.106-18.202c.643-1.92 2.478-3.22 4.547-3.22 2.106 0 3.964 1.344 4.578 3.311l5.655 18.112 5.41-18.06c.597-1.994 2.467-3.363 4.593-3.363h4.257c.671 0 1.148.638.944 1.263M234.56 177.016c0-2.338-.766-4.359-2.293-6.063-1.963-2.176-4.415-3.264-7.355-3.264-2.029 0-3.864.557-5.51 1.669a9.143 9.143 0 0 0-3.515 4.444 9.028 9.028 0 0 0-.597 3.214c0 2.241.762 4.246 2.292 6.015 1.894 2.192 4.337 3.287 7.33 3.287 2.991 0 5.442-1.087 7.355-3.263 1.527-1.736 2.293-3.75 2.293-6.04m9.152 0c0 4.503-1.534 8.453-4.602 11.853-3.497 3.871-8.23 5.805-14.198 5.805-5.952 0-10.677-1.934-14.174-5.805-3.067-3.4-4.6-7.35-4.6-11.852 0-2.056.413-4.165 1.243-6.327.83-2.162 1.937-4.011 3.332-5.55 3.498-3.869 8.231-5.805 14.199-5.805 5.969 0 10.7 1.936 14.198 5.806 3.068 3.4 4.602 7.358 4.602 11.876M267.668 171.102c0-1.178-.441-2.171-1.323-2.979-.831-.758-2.173-1.138-4.017-1.138h-1.648v8.259h1.648c1.863 0 3.202-.38 4.017-1.139.882-.824 1.323-1.823 1.323-3.003m10.4 22.479h-6.353a4.82 4.82 0 0 1-4.02-2.135l-7.015-10.593v8.053c0 2.582-2.142 4.675-4.785 4.675h-3.05a.98.98 0 0 1-.992-.968v-31.218a.98.98 0 0 1 .991-.968h12.734c4.013 0 6.98 1.175 8.903 3.523 1.558 1.893 2.339 4.12 2.339 6.678 0 2.931-.897 5.271-2.689 7.02-1.142 1.117-2.718 1.894-4.723 2.331l9.447 12.046c.5.636.034 1.556-.787 1.556M315.935 193.58h-6.978a4.826 4.826 0 0 1-3.775-1.802l-10.026-12.575v9.703c0 2.583-2.143 4.675-4.787 4.675h-3.05a.98.98 0 0 1-.991-.968v-31.218a.98.98 0 0 1 .99-.968h3.051c2.644 0 4.787 2.094 4.787 4.675v9l9.33-11.85a4.826 4.826 0 0 1 3.793-1.825h6.387c.84 0 1.3.96.76 1.59l-12.091 14.1L316.7 192c.532.63.071 1.582-.766 1.582M348.03 182.564c0 5.61-2.52 9.265-7.559 10.968-1.757.6-3.647.898-5.67.898-3.95 0-7.635-1.086-11.055-3.262a.977.977 0 0 1-.33-1.285l.862-1.581c1.191-2.19 3.95-3.118 6.234-2.034 1.368.649 2.72.974 4.058.974 1.144 0 2.117-.263 2.914-.785.932-.59 1.397-1.424 1.397-2.503 0-.982-.515-1.8-1.546-2.453-.763-.49-2.05-.99-3.861-1.497-2.191-.63-3.57-1.067-4.134-1.311-.898-.37-1.66-.807-2.292-1.309-1.81-1.455-2.716-3.655-2.716-6.599 0-3.072.937-5.62 2.81-7.642 2.188-2.377 5.107-3.565 8.754-3.565 3.345 0 6.627.748 9.848 2.247.506.234.71.85.453 1.334l-.87 1.653c-1.074 2.036-3.484 2.961-5.726 2.296a8.038 8.038 0 0 0-2.302-.34c-.948 0-1.796.234-2.544.706-.848.536-1.27 1.251-1.27 2.144 0 .878.555 1.635 1.668 2.267.498.295 1.992.798 4.482 1.512 3.125.892 5.348 2.157 6.677 3.793 1.145 1.396 1.719 3.187 1.719 5.374"/>
        <path fill="#DBDBDA" d="M32.396 352.915h-3.05c-2.644 0-4.787-2.092-4.787-4.674v-9.121H11.83v9.121c0 2.582-2.144 4.674-4.787 4.674h-3.05a.98.98 0 0 1-.992-.968V320.73a.98.98 0 0 1 .991-.969h3.05c2.644 0 4.787 2.094 4.787 4.675v8.125H24.56v-8.125c0-2.581 2.143-4.675 4.787-4.675h3.05a.98.98 0 0 1 .992.969v31.217a.98.98 0 0 1-.992.968M61.323 340.577l-3.656-10.565-3.704 10.565h7.36zm12.549 12.338H69.23c-2.004 0-3.795-1.217-4.489-3.053l-1.032-2.727H51.524l-1.14 2.822c-.722 1.786-2.487 2.958-4.452 2.958h-4.608c-.704 0-1.19-.69-.936-1.333l12.285-31.2a.99.99 0 0 1 .925-.62h8.257a.99.99 0 0 1 .928.627l12.028 31.2c.247.642-.237 1.326-.94 1.326zM105.297 341.899c0 5.61-2.52 9.264-7.56 10.966-1.757.6-3.647.9-5.67.9-3.95 0-7.635-1.087-11.054-3.263a.977.977 0 0 1-.331-1.285l.86-1.58c1.193-2.192 3.951-3.118 6.236-2.034 1.368.648 2.721.973 4.057.973 1.146 0 2.118-.262 2.915-.785.93-.589 1.395-1.423 1.395-2.503 0-.981-.513-1.799-1.543-2.452-.764-.49-2.053-.99-3.861-1.498-2.192-.631-3.571-1.067-4.136-1.31-.896-.372-1.66-.808-2.291-1.309-1.81-1.457-2.716-3.656-2.716-6.599 0-3.074.938-5.62 2.811-7.64 2.188-2.38 5.106-3.568 8.753-3.568 3.344 0 6.628.749 9.848 2.247.505.234.708.85.452 1.334l-.87 1.653c-1.073 2.035-3.483 2.962-5.726 2.296a8.066 8.066 0 0 0-2.302-.34c-.948 0-1.795.234-2.543.706-.848.537-1.271 1.252-1.271 2.145 0 .878.556 1.633 1.669 2.267.498.294 1.992.796 4.483 1.511 3.122.892 5.347 2.157 6.675 3.794 1.147 1.394 1.72 3.186 1.72 5.374M142.81 352.915h-3.05c-2.643 0-4.786-2.092-4.786-4.674v-9.121h-12.732v9.121c0 2.582-2.143 4.674-4.787 4.674h-3.05a.98.98 0 0 1-.992-.968V320.73a.98.98 0 0 1 .992-.969h3.05c2.644 0 4.787 2.094 4.787 4.675v8.125h12.732v-8.125c0-2.581 2.143-4.675 4.785-4.675h3.052a.98.98 0 0 1 .991.969v31.217a.98.98 0 0 1-.991.968M201.139 321.024l-10.21 31.218a.988.988 0 0 1-.944.673h-4.766c-2.09 0-3.937-1.324-4.565-3.271l-5.136-15.94-5.407 16.002c-.648 1.916-2.481 3.209-4.546 3.209h-4.778a.988.988 0 0 1-.95-.691l-9.528-31.218c-.19-.62.286-1.245.949-1.245h4.227c2.166 0 4.06 1.42 4.623 3.463l4.941 17.96 6.106-18.203c.643-1.92 2.478-3.22 4.547-3.22 2.106 0 3.964 1.345 4.578 3.313l5.655 18.11 5.41-18.06c.597-1.994 2.467-3.363 4.593-3.363h4.257c.671 0 1.148.639.944 1.263"/>
        <g transform="translate(205.431 318.21)">
            <mask id="b" fill="#fff">
                <use xlink:href="#a"/>
            </mask>
            <path fill="#DBDBDA" d="M29.128 18.14c0-2.338-.766-4.358-2.292-6.063-1.964-2.175-4.415-3.262-7.356-3.262-2.028 0-3.864.555-5.51 1.667a9.145 9.145 0 0 0-3.514 4.445 9.019 9.019 0 0 0-.598 3.213c0 2.242.762 4.246 2.293 6.015 1.894 2.192 4.337 3.288 7.33 3.288 2.99 0 5.442-1.087 7.355-3.263 1.526-1.737 2.292-3.75 2.292-6.04m9.152 0c0 4.502-1.533 8.454-4.602 11.853C30.181 33.865 25.45 35.8 19.48 35.8c-5.951 0-10.677-1.934-14.173-5.806C2.24 26.593.706 22.642.706 18.14c0-2.054.414-4.163 1.244-6.325.83-2.163 1.937-4.013 3.331-5.55C8.78 2.395 13.513.46 19.481.46c5.969 0 10.7 1.935 14.197 5.805 3.069 3.4 4.602 7.358 4.602 11.875" mask="url(#b)"/>
        </g>
        <path fill="#DBDBDA" d="M267.668 330.437c0-1.18-.441-2.172-1.323-2.98-.831-.758-2.173-1.137-4.017-1.137h-1.648v8.258h1.648c1.863 0 3.202-.38 4.017-1.138.882-.824 1.323-1.824 1.323-3.003m10.4 22.477h-6.353a4.817 4.817 0 0 1-4.02-2.135l-7.015-10.591v8.053c0 2.581-2.142 4.673-4.785 4.673h-3.05a.979.979 0 0 1-.992-.966V320.73a.98.98 0 0 1 .991-.968h12.734c4.013 0 6.98 1.174 8.903 3.522 1.558 1.894 2.339 4.12 2.339 6.679 0 2.931-.897 5.27-2.689 7.02-1.142 1.116-2.718 1.893-4.723 2.331l9.447 12.044c.5.638.034 1.556-.787 1.556M315.935 352.915h-6.978a4.828 4.828 0 0 1-3.775-1.802l-10.026-12.576v9.704c0 2.582-2.143 4.674-4.787 4.674h-3.05a.98.98 0 0 1-.991-.968V320.73a.98.98 0 0 1 .99-.969h3.051c2.644 0 4.787 2.094 4.787 4.675v9l9.33-11.85a4.829 4.829 0 0 1 3.793-1.825h6.387c.84 0 1.3.96.76 1.59l-12.091 14.1 13.366 15.882c.532.631.071 1.582-.766 1.582M348.03 341.899c0 5.61-2.52 9.264-7.559 10.966-1.757.6-3.647.9-5.67.9-3.95 0-7.635-1.087-11.055-3.263a.978.978 0 0 1-.33-1.285l.862-1.58c1.191-2.192 3.95-3.118 6.234-2.034 1.368.648 2.72.973 4.058.973 1.144 0 2.117-.262 2.914-.785.932-.589 1.397-1.423 1.397-2.503 0-.981-.515-1.799-1.546-2.452-.763-.49-2.05-.99-3.861-1.498-2.191-.631-3.57-1.067-4.134-1.31-.898-.372-1.66-.808-2.292-1.309-1.81-1.457-2.716-3.656-2.716-6.599 0-3.074.937-5.62 2.81-7.64 2.188-2.38 5.107-3.568 8.754-3.568 3.345 0 6.627.749 9.848 2.247.506.234.71.85.453 1.335l-.87 1.653c-1.074 2.034-3.484 2.961-5.726 2.295a8.072 8.072 0 0 0-2.302-.34c-.948 0-1.796.234-2.544.706-.848.537-1.27 1.252-1.27 2.145 0 .878.555 1.633 1.668 2.267.498.294 1.992.796 4.482 1.511 3.125.892 5.348 2.157 6.677 3.794 1.145 1.394 1.719 3.186 1.719 5.374"/>
    </g>
</svg>
