<svg xmlns="http://www.w3.org/2000/svg" xmlns:xlink="http://www.w3.org/1999/xlink" width="364" height="372" viewBox="0 0 364 372">
    <defs>
        <path id="a" d="M.117 7.905h34.057V.395H.117z"/>
        <path id="c" d="M63.447 63.37H0V.678h63.447z"/>
    </defs>
    <g fill="none" fill-rule="evenodd">
        <g transform="translate(315.24 56.432)">
            <mask id="b" fill="#fff">
                <use xlink:href="#a"/>
            </mask>
            <path fill="#000" d="M27.604 5.112H.117a35.338 35.338 0 0 0 3.385-1.968H27.54L27.453.396l6.721 3.546-6.48 3.964-.09-2.794z" mask="url(#b)"/>
        </g>
        <path fill="#000" d="M299.224 61.543a31.417 31.417 0 0 1-16.23-4.476l1.52-.099-.507-1.614a29.358 29.358 0 0 0 15.218 4.222c16.116 0 29.227-12.921 29.227-28.804 0-7.186-2.711-14.072-7.634-19.39l-.366-.396-1.58 2.107-3.043-6.89 7.577.846-1.741 2.322.256.267a30.575 30.575 0 0 1 6.073 9.156 30.194 30.194 0 0 1 2.455 11.977c0 4.155-.827 8.186-2.455 11.979a30.636 30.636 0 0 1-6.691 9.78 31.167 31.167 0 0 1-9.036 6.208l.027.124a31.424 31.424 0 0 1-10.153 2.681h-2.917zM273.334 53.754l2.2-2.93-.226-.266a30.6 30.6 0 0 1-4.853-7.807A30.162 30.162 0 0 1 268 30.77c0-4.155.825-8.184 2.455-11.977a30.624 30.624 0 0 1 6.69-9.781 31.131 31.131 0 0 1 9.926-6.594 31.389 31.389 0 0 1 12.154-2.42 31.395 31.395 0 0 1 14.883 3.714l-1.89.124.455 1.365a29.529 29.529 0 0 0-13.448-3.235c-16.116 0-29.228 12.921-29.228 28.803 0 6.507 2.274 12.89 6.401 17.972l.362.445 1.108-1.476 3.044 6.892-7.578-.85z"/>
        <path fill="#000" d="M291.196 11.26a21.238 21.238 0 0 0-7.06 4.618 20.878 20.878 0 0 0-4.687 6.957 20.7 20.7 0 0 0-1.563 7.912c0 2.731.526 5.393 1.563 7.913a20.878 20.878 0 0 0 4.688 6.956 21.252 21.252 0 0 0 7.059 4.619 21.443 21.443 0 0 0 6.173 1.462l.412 2.705.432-.34 3.036-2.381 1.366-1.071-2.08-.806-3.3-1.28-.37-.143.205 1.35c-4.225-.462-8.325-2.286-11.557-5.472a18.936 18.936 0 0 1 0-27.026 19.36 19.36 0 0 1 8.57-4.91l-1.209-.6 1.242-1.397c-.992.24-1.966.552-2.92.933M307.253 50.234a21.21 21.21 0 0 0 7.057-4.618A20.871 20.871 0 0 0 319 38.658a20.694 20.694 0 0 0 1.563-7.912c0-2.73-.526-5.392-1.563-7.913a20.824 20.824 0 0 0-4.689-6.955 21.215 21.215 0 0 0-7.057-4.62 21.53 21.53 0 0 0-7.424-1.532l-.331-2.184-.37.289-2.622 2.056-1.844 1.446 1.442.56 4.192 1.626.114.043-.287-1.896c4.661.21 9.26 2.067 12.811 5.568a18.934 18.934 0 0 1 0 27.026 19.362 19.362 0 0 1-9.945 5.226l1.414.734-1.028 1.155a21.231 21.231 0 0 0 3.878-1.141"/>
        <g transform="translate(9 2.085)">
            <mask id="d" fill="#fff">
                <use xlink:href="#c"/>
            </mask>
            <path fill="#000" d="M59.541 61.507L45.023 47.16l2.02-1.995L61.56 59.51l-2.02 1.996zM24.39 47.16c-12.512 0-22.654-10.021-22.654-22.383 0-12.362 10.142-22.384 22.654-22.384 12.51 0 22.653 10.022 22.653 22.384-.014 12.356-10.149 22.369-22.653 22.383zm23.205-3.633c-.305-.3-.8-.3-1.104 0l-1.01.998-3.45-3.41c9.18-9.673 8.686-24.87-1.105-33.941-9.79-9.072-25.17-8.583-34.351 1.091-9.181 9.674-8.687 24.87 1.104 33.943 9.349 8.661 23.898 8.661 33.247 0l3.45 3.409-1.01.997a.766.766 0 0 0 0 1.091l15.623 15.438c.305.301.8.301 1.104 0l3.125-3.087a.767.767 0 0 0 0-1.092L47.595 43.528z" mask="url(#d)"/>
        </g>
        <path fill="#000" d="M16.986 26.863c0-.853.699-1.544 1.562-1.544.863 0 1.562.691 1.562 1.544 0 .853-.699 1.544-1.562 1.544a1.555 1.555 0 0 1-1.562-1.544M46.669 17.6c.863 0 1.563.69 1.563 1.544 0 .852-.7 1.543-1.563 1.543a1.553 1.553 0 0 1-1.562-1.543c0-.853.7-1.543 1.562-1.544M21.561 27.635h8.704a.789.789 0 0 0 .552-.226l7.583-7.493h5.256c.43 1.651 2.135 2.644 3.806 2.218 1.67-.426 2.676-2.11 2.244-3.762-.431-1.65-2.135-2.643-3.806-2.217a3.106 3.106 0 0 0-2.244 2.217h-22.44l6.248-6.174h12.115a.776.776 0 0 0 .781-.772.776.776 0 0 0-.781-.772H27.141a.787.787 0 0 0-.552.226l-7.781 7.689-.011.016a.762.762 0 0 0-.041 1.086.779.779 0 0 0 .573.245h16.862l-6.249 6.175h-8.38c-.432-1.65-2.136-2.644-3.807-2.218-1.671.427-2.676 2.111-2.244 3.762.431 1.65 2.135 2.644 3.807 2.218a3.108 3.108 0 0 0 2.243-2.218M27.922 43.843a1.553 1.553 0 0 1-1.563-1.543c0-.853.7-1.544 1.563-1.544s1.562.69 1.562 1.544c0 .852-.7 1.543-1.562 1.543m24.215-17.752H41.201a.785.785 0 0 0-.552.226l-7.583 7.493H19.33a.776.776 0 0 0-.78.771c0 .427.348.772.78.772h23.112l-6.25 6.175h-5.256c-.431-1.65-2.136-2.644-3.806-2.217-1.67.426-2.676 2.11-2.245 3.76.432 1.651 2.136 2.644 3.807 2.218a3.105 3.105 0 0 0 2.244-2.217h5.58a.786.786 0 0 0 .551-.226l7.584-7.493h4.362a.776.776 0 0 0 .781-.772.776.776 0 0 0-.78-.771H35.274l6.25-6.176h10.612a.777.777 0 0 0 .781-.771.776.776 0 0 0-.781-.772M298.194 245.683c-.279.835-.745 2.644-.745 5.374 0 2.89.522 4.629.744 5.372l.018.058h17.038l-.032-.107c-.282-.92-.571-2.027-.571-3.266v-6.582c0-.316.077-.55.16-.797l.035-.108h-16.629l-.018.056zm25.831 12.368c2.924 0 4.694.41 5.488.655l.048.014.118-.117c1.448-1.535 2.245-3.483 2.245-5.49v-9.543c0-.535-.452-.988-.987-.988-.535 0-.988.453-.988.988v5.019c0 .355-.283.74-.741.74a.743.743 0 0 1-.74-.74v-8.064c0-.534-.452-.987-.987-.987a1 1 0 0 0-.987.987v7.488c0 .356-.284.74-.74.74a.742.742 0 0 1-.741-.74v-9.462c0-.535-.453-.988-.988-.988-.535 0-.988.453-.988.988v9.462c0 .356-.282.74-.74.74a.741.741 0 0 1-.74-.74v-7.488c0-.534-.453-.987-.988-.987a1 1 0 0 0-.987.987v10.532c0 .355-.283.74-.74.74a.743.743 0 0 1-.742-.74v-4.525a1 1 0 0 0-.986-.988c-.535 0-.988.452-.988.988v6.582c0 2.006.797 3.954 2.244 5.487l.084.084c1.843-.42 3.64-.634 5.571-.634zm-39.493-1.152c-.536 0-.989.452-.989.987 0 .535.453.987.989.987h6.582c2.006 0 3.954-.797 5.486-2.243l.084-.084a24.638 24.638 0 0 1-.633-5.571c0-2.925.41-4.694.654-5.49.003-.13-.08-.188-.16-.188-1.477-1.424-3.425-2.221-5.431-2.221h-9.544a1 1 0 0 0-.988.987c0 .535.453.988.988.988h5.019c.367 0 .74.373.74.74 0 .356-.284.74-.74.74h-8.064a1 1 0 0 0-.987.988 1 1 0 0 0 .987.987h7.487c.368 0 .741.374.741.74 0 .357-.283.741-.741.741h-9.462a1 1 0 0 0-.987.988 1 1 0 0 0 .987.987h9.545c.367 0 .74.374.74.74 0 .356-.283.741-.74.741h-7.488a1 1 0 0 0-.987.987c0 .563.39.988.905.988h10.532c.367 0 .74.373.74.74 0 .356-.283.74-.74.74h-4.525zm39.411 2.55c-2.889 0-4.629.522-5.371.744l-.06.018v16.958l.107-.033c.919-.283 2.025-.573 3.267-.573l6.498.082c.265 0 .56.055.882.161l.108.036v-16.63l-.057-.018c-.835-.278-2.645-.745-5.374-.745zm-40.316 17.338l.055.019c.836.278 2.645.745 5.375.745 2.888 0 4.629-.522 5.371-.744l.06-.018v-17.04l-.108.033c-.919.283-2.025.573-3.266.573h-6.582c-.264 0-.559-.055-.88-.161l-.109-.036.084 16.63zm13.846-18.795c-.406.407-.905.74-1.387 1.06l-.035 18.252c0 .075 0 .13-.059.188l-.058.059.057.057c.41.41.74.906 1.061 1.387l18.252.037c.021 0 .054.016.085.033.047.023.1.048.162.048.391-.357.9-.81 1.435-1.077l.046-.024v-18.234c0-.063 0-.063.072-.21l.028-.053-.042-.042c-.406-.405-.739-.903-1.06-1.386l-18.252-.036c-.022 0-.054-.017-.086-.033-.047-.023-.1-.05-.161-.05h-.034l-.024.024zm.309 22.627c.283.92.572 2.028.572 3.267v6.582c0 .316-.077.55-.16.798l-.036.107h16.63l.017-.056c.28-.835.746-2.644.746-5.374 0-2.89-.522-4.629-.745-5.371l-.017-.059h-17.04l.033.106zm24.104-2.492c-2.007 0-3.955.796-5.487 2.244l-.084.082c.42 1.845.634 3.642.634 5.572 0 2.924-.41 4.694-.655 5.49l-.014.046.117.118c1.534 1.449 3.482 2.244 5.49 2.244h9.543a1 1 0 0 0 .988-.986c0-.535-.453-.988-.988-.988h-5.019c-.367 0-.74-.374-.74-.74 0-.356.283-.741.74-.741h8.064a1 1 0 0 0 .987-.987 1 1 0 0 0-.987-.987h-7.488c-.367 0-.74-.374-.74-.74 0-.356.282-.741.74-.741h9.462a1 1 0 0 0 .987-.988.999.999 0 0 0-.987-.986h-9.544c-.368 0-.74-.375-.74-.742 0-.355.283-.74.74-.74h7.487a1 1 0 0 0 .987-.987c0-.563-.388-.988-.904-.988h-10.532c-.367 0-.74-.374-.74-.74 0-.356.283-.74.74-.74h4.525a1 1 0 0 0 .988-.988c0-.535-.453-.987-.988-.987h-6.582zm-34.64 10.12c.357 0 .741.284.741.74v9.462a1 1 0 0 0 .988.988 1 1 0 0 0 .987-.988v-9.462c0-.366.373-.74.74-.74.356 0 .74.284.74.74v7.488c0 .534.454.986.988.986a1 1 0 0 0 .987-.986v-10.532c0-.366.374-.74.741-.74.356 0 .74.283.74.74v4.525a1 1 0 0 0 .987.987 1 1 0 0 0 .99-.987v-6.582c0-2.005-.798-3.955-2.246-5.487l-.084-.084c-1.843.42-3.64.634-5.57.634-2.928 0-4.695-.41-5.49-.655h-.007c-.125 0-.18.084-.18.162-1.426 1.476-2.223 3.425-2.223 5.43v9.544c0 .535.453.988.988.988.535 0 .988-.453.988-.988v-5.019c0-.355.282-.74.74-.74.356 0 .74.283.74.74v8.064a1 1 0 0 0 .988.986 1 1 0 0 0 .987-.986v-7.488c0-.355.284-.74.74-.74zM289.057 301a2.492 2.492 0 0 1-2.47-2.15l-.012-.098-.094.031c-.316.105-.62.16-.88.16a2.471 2.471 0 0 1-2.469-2.468v-.764l-.27.068c-.244.065-.456.12-.716.12a2.472 2.472 0 0 1-2.469-2.469v-.493h-4.773c-.366 0-.74-.375-.74-.74 0-.357.284-.742.74-.742h4.773v-7.569c0-1.213.181-2.25.57-3.261l.043-.112h-5.386a.743.743 0 0 1-.74-.74c0-.356.284-.741.74-.741h6.09c.388-.518.72-1.016 1.128-1.424l.057-.057-.057-.058c-.058-.058-.058-.114-.058-.19v-20.322h-3.539a2.47 2.47 0 0 1-2.468-2.468c0-.263.055-.476.12-.723l.063-.247-.085-.016c-1.269-.253-2.155-1.27-2.155-2.47 0-1.244.924-2.306 2.15-2.47l.099-.012-.032-.095a2.841 2.841 0 0 1-.16-.879 2.47 2.47 0 0 1 2.468-2.468h.763l-.067-.267c-.065-.247-.12-.459-.12-.72a2.471 2.471 0 0 1 2.469-2.469h.494v-4.772c0-.367.373-.74.74-.74.356 0 .74.283.74.74v4.772h7.57c1.213 0 2.249.181 3.26.57l.113.043v-5.385c0-.367.373-.74.74-.74.356 0 .74.283.74.74v6.089c.52.39 1.018.721 1.424 1.128l.058.057.058-.057c.058-.059.114-.059.19-.059h20.322v-3.538a2.47 2.47 0 0 1 2.468-2.468c.262 0 .476.055.722.12l.247.063.017-.084c.253-1.27 1.269-2.156 2.47-2.156 1.245 0 2.305.924 2.47 2.15l.012.099.095-.032c.315-.105.619-.16.879-.16a2.471 2.471 0 0 1 2.468 2.468v.764l.267-.068c.247-.064.459-.12.72-.12a2.47 2.47 0 0 1 2.468 2.469v.493h4.773c.366 0 .74.374.74.74 0 .357-.283.741-.74.741h-4.773v7.57c0 1.213-.18 2.25-.57 3.261l-.043.112h5.468c.366 0 .74.374.74.74 0 .356-.282.741-.74.741h-6.17c-.39.52-.722 1.017-1.129 1.423l-.058.058.058.058c.058.058.058.114.058.19v20.322h3.539a2.471 2.471 0 0 1 2.468 2.468c0 .263-.056.476-.12.722l-.063.247.085.016c1.269.255 2.155 1.27 2.155 2.471a2.492 2.492 0 0 1-2.15 2.468l-.1.014.032.094c.074.22.161.55.161.88a2.47 2.47 0 0 1-2.468 2.468h-.764l.068.268c.064.246.12.459.12.72 0 1.36-1.108 2.469-2.469 2.469h-.494v4.77a.743.743 0 0 1-.74.742.743.743 0 0 1-.74-.741v-4.771h-7.57c-1.214 0-2.249-.182-3.261-.572l-.113-.043v5.386c0 .367-.373.741-.74.741a.742.742 0 0 1-.74-.741v-6.133l-.046-.03c-.478-.32-.975-.65-1.378-1.053l-.057-.058-.059.057c-.058.059-.113.059-.188.059H294.98v3.538a2.471 2.471 0 0 1-2.468 2.468c-.263 0-.476-.055-.722-.12l-.248-.063-.017.085c-.252 1.269-1.269 2.155-2.469 2.155zM61.515 236l-1.845 16.51H31.707l1.868-16.304-2.07-.206-1.845 16.51H11v2.05h18.37l-3.006 27.88H11v2.05h15.173l-1.765 16.303 2.077.207 1.844-16.51h27.964l-1.87 16.304 2.071.206 1.845-16.51H77v-2.05H58.523l3.117-27.88H77v-2.05H61.826l1.766-16.303-2.077-.207zm-29.992 18.662h27.959l-3.005 27.778h-27.96l3.006-27.778z"/>
        <text fill="#4A4A4A" font-family="PTSans-Regular, PT Sans" font-size="17" letter-spacing=".094">
            <tspan x=".422" y="102">Technology</tspan> <tspan x="9.985" y="125">focussed</tspan>
        </text>
        <text fill="#4A4A4A" font-family="PTSans-Regular, PT Sans" font-size="17" letter-spacing=".094">
            <tspan x="280.172" y="102">Fluid &amp;</tspan> <tspan x="289.259" y="125">Agile</tspan>
        </text>
        <text fill="#4A4A4A" font-family="PTSans-Regular, PT Sans" font-size="17" letter-spacing=".094">
            <tspan x="23.155" y="341">Hash</tspan> <tspan x="16.439" y="364">engine</tspan>
        </text>
        <text fill="#4A4A4A" font-family="PTSans-Regular, PT Sans" font-size="17" letter-spacing=".094">
            <tspan x="250.078" y="341">Collaborative &amp;</tspan> <tspan x="270.345" y="364">connected</tspan>
        </text>
    </g>
</svg>
