<svg xmlns="http://www.w3.org/2000/svg" xmlns:xlink="http://www.w3.org/1999/xlink" width="541" height="278" viewBox="0 0 541 278">
    <defs>
        <path id="a" d="M.104.17h52.26v55.138H.104z"/>
        <path id="c" d="M0 .747h55.116V58H0z"/>
        <path id="e" d="M.488.78h18.62v49.41H.488z"/>
        <path id="g" d="M0 .243h21.715v35.912H0z"/>
        <path id="i" d="M0 50.22h255.378V.81H0z"/>
        <path id="k" d="M.04.4h32.34V42.06H.04z"/>
        <path id="m" d="M0 54.676h143.729V0H0z"/>
    </defs>
    <g fill="none" fill-rule="evenodd">
        <path fill="#FFF" d="M0 0h541v278H0z"/>
        <g transform="translate(124.152 1.634)">
            <mask id="b" fill="#fff">
                <use xlink:href="#a"/>
            </mask>
            <path fill="#000" d="M42.443 3.208h-29.22v-.039c0-1.654-1.437-2.999-3.21-2.999H3.318C1.541.17.104 1.515.104 3.17V9.42c0 1.654 1.437 2.999 3.214 2.999h6.695c1.773 0 3.21-1.34 3.21-2.999v-.037h29.225c1.82 0 3.305 1.386 3.305 3.09v30.53c0 1.706-1.48 3.092-3.31 3.092H26.346v-.038c0-1.654-1.437-2.999-3.215-2.999h-6.694c-1.772 0-3.214 1.34-3.214 3v6.25c0 1.654 1.437 3 3.214 3h6.694c1.778 0 3.215-1.346 3.215-3v-.037h16.092c5.475 0 9.927-4.157 9.927-9.268v-30.53c0-5.11-4.452-9.266-9.927-9.266h.005z" mask="url(#b)"/>
        </g>
        <g>
            <mask id="d" fill="#fff">
                <use xlink:href="#c"/>
            </mask>
            <path fill="#000" d="M48.737 55.463c-2.105 0-3.816-1.688-3.816-3.769 0-1.984 1.563-3.615 3.537-3.755.09.009.183.029.279.029.094 0 .182-.02.274-.029 1.973.14 3.54 1.771 3.54 3.755 0 2.08-1.711 3.77-3.814 3.77m-17.365-3.77c0 2.08-1.71 3.77-3.813 3.77-2.105 0-3.815-1.69-3.815-3.77 0-1.8 1.284-3.308 2.994-3.68.26.088.531.145.82.145.288 0 .561-.057.819-.144 1.71.37 2.995 1.88 2.995 3.68m-21.174 0c0 2.08-1.714 3.768-3.818 3.768-2.1 0-3.814-1.688-3.814-3.769 0-1.984 1.562-3.615 3.539-3.755.091.009.18.029.275.029.095 0 .186-.02.28-.029 1.97.14 3.538 1.771 3.538 3.755M23.744 7.052c0-2.077 1.71-3.768 3.815-3.768 2.103 0 3.813 1.69 3.813 3.768 0 2.01-1.596 3.648-3.601 3.76-.069-.007-.138-.023-.21-.023-.074 0-.143.016-.212.023-2.007-.112-3.605-1.75-3.605-3.76m27.513 38.851a2.6 2.6 0 0 0 .045-.473V28.828c0-1.401-1.15-2.537-2.565-2.537h-18.61V13.326c0-.166-.019-.326-.05-.482 2.272-.967 3.864-3.197 3.864-5.789 0-3.478-2.864-6.308-6.382-6.308-3.517 0-6.382 2.83-6.382 6.308 0 2.592 1.594 4.822 3.865 5.79-.033.155-.05.315-.05.481v12.965H6.383c-1.42 0-2.57 1.136-2.57 2.537V45.43c0 .16.02.32.05.473C1.593 46.87 0 49.103 0 51.694 0 55.173 2.863 58 6.383 58c3.516 0 6.38-2.827 6.38-6.306 0-2.59-1.592-4.824-3.863-5.79a2.46 2.46 0 0 0 .048-.474V31.365h16.044v14.257c0 .1.017.191.03.287-2.262.974-3.847 3.2-3.847 5.785 0 3.479 2.864 6.306 6.384 6.306 3.518 0 6.382-2.827 6.382-6.306 0-2.584-1.586-4.811-3.844-5.782.011-.099.03-.19.03-.29V31.365h16.04V45.43c0 .16.02.32.049.473-2.271.967-3.863 3.2-3.863 5.791 0 3.479 2.864 6.306 6.384 6.306 3.514 0 6.38-2.827 6.38-6.306 0-2.59-1.593-4.824-3.86-5.79" mask="url(#d)"/>
        </g>
        <g fill="#000">
            <path d="M77.072 29.38h17.855v-1.633H77.072z"/>
            <path d="M91.714 36.16l-1.403-.897 4.469-6.622-5.021-5.454 1.248-1.091 5.885 6.39z"/>
        </g>
        <g transform="translate(0 114)">
            <g transform="translate(24.341 .029)">
                <mask id="f" fill="#fff">
                    <use xlink:href="#e"/>
                </mask>
                <path fill="#000" d="M18.23 1.447L15.916.835a1.077 1.077 0 0 0-.876.09c-.287.155-.481.39-.58.704L.544 48.084c-.098.311-.067.606.094.882.16.277.402.462.726.557l2.315.612c.298.097.59.067.876-.09a1.18 1.18 0 0 0 .58-.701L19.05 2.888c.1-.313.07-.607-.092-.883a1.21 1.21 0 0 0-.729-.558" mask="url(#f)"/>
            </g>
            <g transform="translate(0 7.315)">
                <mask id="h" fill="#fff">
                    <use xlink:href="#g"/>
                </mask>
                <path fill="#000" d="M21.715 3.23c0-.31-.123-.586-.374-.828l-1.865-1.8a1.204 1.204 0 0 0-1.717 0L.373 17.372c-.248.242-.373.518-.373.828 0 .313.125.589.373.828L17.76 35.795c.25.242.534.36.858.36.324 0 .61-.118.859-.36L21.341 34c.251-.242.374-.518.374-.829 0-.312-.123-.589-.374-.828L6.679 18.199 21.341 4.058c.251-.239.374-.515.374-.828" mask="url(#h)"/>
            </g>
            <path fill="#000" d="M67.905 24.685L50.517 7.918a1.204 1.204 0 0 0-.856-.36c-.324 0-.61.12-.859.36l-1.864 1.798c-.251.24-.375.516-.375.829 0 .312.124.589.375.828l14.66 14.14-14.66 14.144c-.251.24-.375.515-.375.828 0 .31.124.587.375.829l1.864 1.796c.248.241.535.36.859.36.321 0 .607-.119.856-.36l17.388-16.768c.248-.24.37-.515.37-.829 0-.312-.122-.588-.37-.828"/>
            <mask id="j" fill="#fff">
                <use xlink:href="#i"/>
            </mask>
            <path fill="#000" d="M84.624 25.764h17.864v-1.619H84.624z" mask="url(#j)"/>
            <path fill="#000" d="M99.274 32.483l-1.404-.89 4.471-6.561-5.023-5.405 1.249-1.081 5.888 6.333zM248.194 7.92h-21.159v-.027c0-1.186-1.04-2.15-2.325-2.15h-4.847c-1.287 0-2.328.964-2.328 2.15v4.484c0 1.186 1.041 2.15 2.328 2.15h4.847c1.284 0 2.325-.96 2.325-2.15v-.028h21.162c1.318 0 2.393.995 2.393 2.218v21.895c0 1.223-1.072 2.217-2.396 2.217h-11.657v-.027c0-1.186-1.04-2.15-2.327-2.15h-4.848c-1.284 0-2.327.96-2.327 2.15v4.484c0 1.186 1.04 2.15 2.327 2.15h4.848c1.286 0 2.327-.964 2.327-2.15v-.028h11.654c3.965 0 7.188-2.98 7.188-6.646V14.567c0-3.665-3.223-6.646-7.188-6.646h.003zM167.353 40.562h-4.846c-1.294.01-2.335 1.028-2.325 2.276v.027h-21.163c-1.331-.012-2.4-1.06-2.394-2.342V10.506c0-1.29 1.073-2.342 2.398-2.342h11.656v.03c0 1.253 1.04 2.273 2.327 2.273h4.848c1.294-.01 2.336-1.028 2.328-2.276V3.455c.008-1.248-1.034-2.266-2.328-2.275h-4.848c-1.294.008-2.336 1.027-2.327 2.275v.028h-11.654c-3.967 0-7.19 3.15-7.19 7.023v30.017c0 3.872 3.223 7.026 7.188 7.026h21.159v.025c0 1.256 1.04 2.275 2.325 2.275h4.846c1.294-.009 2.337-1.027 2.327-2.275v-4.736c.01-1.248-1.033-2.268-2.326-2.276h-.001z" mask="url(#j)"/>
            <path stroke="#B7B7B7" stroke-dasharray="5" stroke-width="2" d="M202.223 5.411l18.751 19.244-18.754 20.963M185.732 45.618L166.98 26.374l18.754-20.963" mask="url(#j)"/>
        </g>
        <g transform="translate(0 223)">
            <path fill="#000" d="M137.587 1.864h-18.081v-.023c0-1.015-.89-1.841-1.986-1.841h-4.143c-1.099 0-1.988.826-1.988 1.84V5.68c0 1.015.889 1.84 1.988 1.84h4.143c1.096 0 1.986-.822 1.986-1.84v-.024h18.083c1.127 0 2.046.852 2.046 1.898v18.74c0 1.047-.916 1.9-2.048 1.9h-9.96v-.024c0-1.015-.89-1.841-1.99-1.841h-4.142c-1.097 0-1.99.822-1.99 1.84v3.839c0 1.015.89 1.84 1.99 1.84h4.142c1.1 0 1.99-.825 1.99-1.84v-.024h9.957c3.388 0 6.142-2.552 6.142-5.69V7.554c0-3.137-2.754-5.689-6.142-5.689h.003z"/>
            <g transform="translate(111.349 12.617)">
                <mask id="l" fill="#fff">
                    <use xlink:href="#k"/>
                </mask>
                <path fill="#000" d="M30.39 34.11H26.25c-1.105.009-1.994.88-1.986 1.948v.023H6.179c-1.137-.01-2.052-.907-2.045-2.005V8.384c0-1.104.915-2.005 2.048-2.005h9.96v.026c0 1.072.89 1.945 1.99 1.945h4.142c1.106-.007 1.996-.88 1.989-1.948V2.348c.007-1.068-.883-1.94-1.99-1.947h-4.142c-1.106.007-1.996.879-1.989 1.947v.024H6.184C2.794 2.372.04 5.069.04 8.384v25.692c0 3.315 2.754 6.014 6.142 6.014h18.081v.021c0 1.075.888 1.948 1.986 1.948h4.142c1.105-.007 1.996-.879 1.989-1.947v-4.054c.007-1.069-.884-1.94-1.989-1.948z" mask="url(#l)"/>
            </g>
            <mask id="n" fill="#fff">
                <use xlink:href="#m"/>
            </mask>
            <path fill="#000" d="M64.298 27.588h17.819V25.97h-17.82z" mask="url(#n)"/>
            <path fill="#000" d="M78.91 34.3l-1.4-.888 4.46-6.556-5.01-5.4 1.245-1.08 5.873 6.327zM6.525 25.954h17.189c.53 0 .795-.255.795-.769v-5.919c0-4.407-2.228-6.611-6.684-6.611h-5.41c-4.457 0-6.685 2.204-6.685 6.611v5.92c0 .513.264.768.795.768m22.123 20.988H11.777c-3.66 0-6.539-1-8.633-2.999C1.047 41.945 0 39.152 0 35.563v-16.45c0-3.588 1.047-6.381 3.144-8.38 2.094-2 4.973-2.998 8.633-2.998h6.685c3.66 0 6.525.999 8.594 2.997 2.069 2 3.103 4.793 3.103 8.38v9.764c0 .768-.371 1.153-1.114 1.153H6.525c-.53 0-.795.23-.795.692v4.69c0 4.458 2.228 6.687 6.684 6.687h16.234c.742 0 1.114.36 1.114 1.077v2.767c0 .667-.372 1-1.114 1" mask="url(#n)"/>
        </g>
        <text fill="#000" font-family="MavenPro-Regular, Maven Pro" font-size="25">
            <tspan x="271" y="42">Circuit/Enigma machine</tspan>
        </text>
        <text fill="#000" font-family="MavenPro-Regular, Maven Pro" font-size="25">
            <tspan x="271" y="150.316">Code</tspan>
        </text>
        <text fill="#000" font-family="MavenPro-Regular, Maven Pro" font-size="25">
            <tspan x="271" y="257">’e’ represent Enigma</tspan>
        </text>
    </g>
</svg>
