<svg xmlns="http://www.w3.org/2000/svg" xmlns:xlink="http://www.w3.org/1999/xlink" width="1150" height="570" viewBox="0 0 1150 570">
    <defs>
        <filter id="a" width="105.4%" height="111.3%" x="-2.7%" y="-5.7%" filterUnits="objectBoundingBox">
            <feOffset in="SourceAlpha" result="shadowOffsetOuter1"/>
            <feGaussianBlur in="shadowOffsetOuter1" result="shadowBlurOuter1" stdDeviation="10"/>
            <feColorMatrix in="shadowBlurOuter1" result="shadowMatrixOuter1" values="0 0 0 0 0 0 0 0 0 0 0 0 0 0 0 0 0 0 0.1 0"/>
            <feMerge>
                <feMergeNode in="shadowMatrixOuter1"/>
                <feMergeNode in="SourceGraphic"/>
            </feMerge>
        </filter>
        <path id="b" d="M0 0h1110v530H0z"/>
        <path id="d" d="M0 278h585V0H0z"/>
    </defs>
    <g fill="none" fill-rule="evenodd" filter="url(#a)" transform="translate(20 20)">
        <mask id="c" fill="#fff">
            <use xlink:href="#b"/>
        </mask>
        <use fill="#FFF" xlink:href="#b"/>
        <g mask="url(#c)">
            <g transform="translate(263 118)">
                <path fill="#A8A8A8" d="M248.829 112.171a4 4 0 1 1-5.658 5.657 4 4 0 0 1 5.658-5.657M110 233.728c6.026 0 9.547-3.815 9.547-8.788v-.167c0-5.72-3.756-8.789-9.782-8.789h-9.312v17.744H110zM88 211.13c0-3.385 2.696-6.129 6.022-6.129h17.092C124.13 205 132 212.854 132 224.195v.16c0 12.85-9.82 19.512-22.056 19.512h-9.491v10.792c0 2.978-2.013 5.65-4.887 6.21-4.083.797-7.566-2.137-7.566-5.976v-43.764zM191.062 237.799l-7.68-18.322L175.7 237.8h15.361zm-34.348 14.854l19.366-43.804c1.349-3.02 3.81-4.849 7.143-4.849h.713c3.334 0 5.716 1.829 7.065 4.85l19.364 43.803c1.058 2.325.981 4.09-1.68 6.787-.93.942-2.184 1.564-3.507 1.56-2.841-.012-4.737-1.679-5.844-4.214l-3.73-8.745h-24.445l-3.89 9.143c-1.03 2.384-3.095 3.816-5.634 3.816-3.175 0-5.635-2.545-5.635-5.725 0-.874.318-1.748.714-2.622zM234 210.164c0-4.065 3.894-7.128 8.3-5.883 2.602.736 4.336 3.142 4.336 5.786v18.91l23.302-22.576c1.56-1.52 3.118-2.401 5.334-2.401 3.529 0 5.825 2.642 5.825 5.684 0 1.922-.902 3.363-2.296 4.643l-16.165 14.73 17.64 21.615c.986 1.201 1.724 2.482 1.724 4.324 0 3.442-2.708 6.004-6.4 6.004-2.461 0-3.938-1.201-5.333-2.962l-16.41-20.975-7.22 6.564v11.307c0 2.644-1.736 5.05-4.338 5.785-4.405 1.245-8.299-1.816-8.299-5.884v-44.67zM305 254.937v-44.16c0-3.191 2.576-5.777 5.754-5.777h32.429c2.147 0 4.144 1.254 4.956 3.25 1.617 3.976-1.345 7.616-5.18 7.616h-25.47v11.701h20.921c2.607 0 4.988 1.758 5.508 4.323.717 3.536-1.96 6.543-5.333 6.543h-21.096v11.701h25.88c2.591 0 4.947 1.738 5.5 4.278.775 3.555-1.999 6.588-5.502 6.588H311.04c-3.336 0-6.04-2.715-6.04-6.063M389.757 215.925h-12.07c-2.561 0-4.92-1.679-5.532-4.19-.863-3.542 2.003-6.735 5.601-6.735h36.558c2.563 0 4.922 1.68 5.532 4.192.86 3.544-2.005 6.733-5.602 6.733h-12v38.772c0 2.974-2.034 5.647-4.932 6.181-4.082.753-7.555-2.088-7.555-5.802v-39.15zM488.776 233.16V233c0-9.644-7-17.68-16.865-17.68-9.863 0-16.704 7.876-16.704 17.517V233c0 9.643 7 17.677 16.863 17.677 9.864 0 16.706-7.875 16.706-17.517m-45.776 0V233c0-15.943 12.449-29 29.578-29C489.71 204 502 216.896 502 232.838V233c0 15.942-12.45 29-29.58 29-17.129 0-29.42-12.899-29.42-28.84M267.19 72.357a3.781 3.781 0 0 0 5.35 0l5.947-5.954a3.78 3.78 0 0 1 5.351 0 3.793 3.793 0 0 1 0 5.359l-29.73 29.77a3.792 3.792 0 0 0 0 5.358 3.78 3.78 0 0 0 5.352 0l23.784-23.816a3.781 3.781 0 0 1 5.35 0 3.793 3.793 0 0 1 0 5.359l-13.08 13.098a3.793 3.793 0 0 0 0 5.359 3.78 3.78 0 0 0 5.352 0l7.431-7.443a3.36 3.36 0 0 1 4.757 0L321 71.464 306.135 28l-38.946 38.999a3.793 3.793 0 0 0 0 5.358"/>
                <path fill="#D6D6D6" d="M328.061 64l-35.35 35.357a4.17 4.17 0 0 1 0 5.894l-15.613 15.616a3.75 3.75 0 1 0 5.303 5.304l27.69-27.697a3.748 3.748 0 0 1 5.303 0 3.749 3.749 0 0 1 0 5.302l-17.086 17.09a3.75 3.75 0 1 0 5.303 5.304l11.194-11.196a3.75 3.75 0 0 1 5.303 5.303l-15.32 15.322a3.75 3.75 0 0 0 5.303 5.303L364 86.982 328.061 64z"/>
                <path fill="#E8E8E8" d="M306 28l43.58 14.824L365 87l-44.1-15.495z"/>
                <path fill="#A8A8A8" d="M261.829 78.171a4 4 0 1 1-5.659 5.657 4 4 0 0 1 5.659-5.657M251.829 88.171a4 4 0 1 1-5.659 5.657 4 4 0 0 1 5.659-5.657M254.829 128.172a4 4 0 1 1-5.659 5.657 4 4 0 0 1 5.659-5.657M243.829 139.171a4 4 0 1 1-5.659 5.657 4 4 0 0 1 5.659-5.657M232.829 149.171a4 4 0 1 1-5.66 5.658 4 4 0 0 1 5.66-5.658"/>
                <path fill="#D6D6D6" d="M299.828 146.172a3.998 3.998 0 0 1 0 5.656 3.999 3.999 0 1 1-5.657-5.656 3.999 3.999 0 0 1 5.657 0M289.829 157.171a4.001 4.001 0 1 1-5.66 5.658 4.001 4.001 0 0 1 5.66-5.658M278.829 168.171a4 4 0 1 1-5.659 5.657 4 4 0 0 1 5.659-5.657"/>
                <path fill="#A8A8A8" d="M240.829 99.171a4 4 0 1 1-5.66 5.658 4 4 0 0 1 5.66-5.658"/>
                <path fill="#A8A8A8" d="M235.829 104.171a4 4 0 1 1-5.659 5.657 4 4 0 0 1 5.659-5.657M270.829 112.171a4 4 0 1 1-5.659 5.657 4 4 0 0 1 5.659-5.657"/>
                <path fill="#A8A8A8" d="M264.829 117.171a4 4 0 1 1-5.66 5.658 4 4 0 0 1 5.66-5.658"/>
                <path fill="#D6D6D6" d="M271.829 132.171a4 4 0 1 1-5.658 5.657 4 4 0 0 1 5.658-5.657M293.829 132.171a4 4 0 1 1-5.659 5.657 4 4 0 0 1 5.659-5.657"/>
                <path fill="#D6D6D6" d="M266.829 137.171a4 4 0 1 1-5.659 5.657 4 4 0 0 1 5.659-5.657M255.829 148.172a4 4 0 1 1-5.658 5.657 4 4 0 0 1 5.658-5.657"/>
                <path fill="#D6D6D6" d="M250.829 153.172a4 4 0 1 1-5.657 5.656 4 4 0 0 1 5.657-5.656M240.829 164.172a4 4 0 1 1-5.659 5.657 4 4 0 0 1 5.659-5.657"/>
                <path fill="#D6D6D6" d="M234.828 169.172a3.998 3.998 0 0 1 0 5.656 3.999 3.999 0 1 1-5.657-5.656 3.999 3.999 0 0 1 5.657 0M282.829 142.171a4 4 0 1 1-5.66 5.658 4 4 0 0 1 5.66-5.658"/>
                <path fill="#D6D6D6" d="M277.829 148.172a4 4 0 1 1-5.659 5.657 4 4 0 0 1 5.659-5.657M266.829 158.171a4.001 4.001 0 1 1-5.66 5.658 4.001 4.001 0 0 1 5.66-5.658"/>
                <path fill="#D6D6D6" d="M261.829 164.172a4 4 0 1 1-5.658 5.657 4 4 0 0 1 5.658-5.657M250.829 174.171a4 4 0 1 1-5.659 5.657 4 4 0 0 1 5.659-5.657"/>
                <path fill="#4D4D4D" d="M270 66a4 4 0 1 0 0 8 4 4 0 0 0 0-8m0 .889c.831 0 1.612.323 2.2.911a3.116 3.116 0 0 1 0 4.4 3.093 3.093 0 0 1-2.2.911 3.091 3.091 0 0 1-2.2-.911 3.09 3.09 0 0 1-.911-2.2c0-.831.323-1.612.91-2.2a3.091 3.091 0 0 1 2.201-.911M259 77a4 4 0 1 0 0 8 4 4 0 0 0 0-8m0 .889c.831 0 1.613.323 2.2.911a3.116 3.116 0 0 1 0 4.4 3.091 3.091 0 0 1-2.2.911 3.091 3.091 0 0 1-2.2-.911 3.114 3.114 0 0 1 0-4.4 3.091 3.091 0 0 1 2.2-.911M257 100a4 4 0 1 0 0 8 4 4 0 0 0 0-8m0 .889c.831 0 1.613.323 2.2.911a3.114 3.114 0 0 1 0 4.4 3.091 3.091 0 0 1-2.2.911 3.091 3.091 0 0 1-2.2-.911 3.116 3.116 0 0 1 0-4.4 3.091 3.091 0 0 1 2.2-.911M281 65a4 4 0 1 0 0 8 4 4 0 0 0 0-8m0 .889c.831 0 1.612.323 2.2.911a3.09 3.09 0 0 1 .911 2.2 3.09 3.09 0 0 1-.91 2.2 3.093 3.093 0 0 1-2.201.911 3.091 3.091 0 0 1-2.2-.911 3.114 3.114 0 0 1 0-4.4 3.091 3.091 0 0 1 2.2-.911M286 82a4 4 0 1 0 0 8 4 4 0 0 0 0-8m0 .889c.831 0 1.613.323 2.2.911.588.588.911 1.369.911 2.2a3.09 3.09 0 0 1-.91 2.2 3.091 3.091 0 0 1-2.201.911 3.091 3.091 0 0 1-2.2-.911 3.09 3.09 0 0 1-.911-2.2c0-.831.323-1.612.91-2.2a3.091 3.091 0 0 1 2.201-.911M291 99a4 4 0 1 0 0 8 4 4 0 0 0 0-8m0 .889c.831 0 1.613.323 2.2.911a3.116 3.116 0 0 1 0 4.4 3.091 3.091 0 0 1-2.2.911 3.091 3.091 0 0 1-2.2-.911 3.092 3.092 0 0 1-.911-2.2c0-.831.323-1.612.91-2.2a3.091 3.091 0 0 1 2.201-.911M313 97a4 4 0 1 0 0 8 4 4 0 0 0 0-8m0 .889c.831 0 1.613.323 2.2.911a3.116 3.116 0 0 1 0 4.4 3.091 3.091 0 0 1-2.2.911 3.091 3.091 0 0 1-2.2-.911 3.116 3.116 0 0 1 0-4.4 3.091 3.091 0 0 1 2.2-.911M318 114a4 4 0 1 0 0 8 4 4 0 0 0 0-8m0 .889c.831 0 1.613.323 2.2.911a3.116 3.116 0 0 1 0 4.4 3.091 3.091 0 0 1-2.2.911 3.091 3.091 0 0 1-2.2-.911 3.116 3.116 0 0 1 0-4.4 3.091 3.091 0 0 1 2.2-.911M278 100a4 4 0 1 0 0 8 4 4 0 0 0 0-8m0 .889c.831 0 1.613.323 2.2.911.588.588.911 1.369.911 2.2a3.09 3.09 0 0 1-.91 2.2 3.091 3.091 0 0 1-2.201.911 3.091 3.091 0 0 1-2.2-.911 3.09 3.09 0 0 1-.911-2.2c0-.831.323-1.612.91-2.2a3.091 3.091 0 0 1 2.201-.911M246 111a4 4 0 1 0 0 8 4 4 0 0 0 0-8m0 .889c.831 0 1.613.323 2.2.911a3.09 3.09 0 0 1 .911 2.2 3.09 3.09 0 0 1-.91 2.2 3.091 3.091 0 0 1-2.201.911 3.093 3.093 0 0 1-2.2-.911 3.116 3.116 0 0 1 0-4.4 3.093 3.093 0 0 1 2.2-.911M249 87a4 4 0 1 0 0 8 4 4 0 0 0 0-8m0 .889c.831 0 1.613.323 2.2.911a3.09 3.09 0 0 1 .911 2.2 3.09 3.09 0 0 1-.91 2.2 3.091 3.091 0 0 1-2.201.911 3.091 3.091 0 0 1-2.2-.911 3.116 3.116 0 0 1 0-4.4 3.091 3.091 0 0 1 2.2-.911M252 127a4 4 0 1 0 0 8 4 4 0 0 0 0-8m0 .889c.831 0 1.612.323 2.2.911a3.09 3.09 0 0 1 .911 2.2 3.09 3.09 0 0 1-.91 2.2 3.093 3.093 0 0 1-2.201.911 3.091 3.091 0 0 1-2.2-.911 3.114 3.114 0 0 1 0-4.4 3.091 3.091 0 0 1 2.2-.911M241 138a4 4 0 1 0 0 8 4 4 0 0 0 0-8m0 .889c.831 0 1.613.323 2.2.911a3.09 3.09 0 0 1 .911 2.2c0 .831-.323 1.612-.91 2.2a3.091 3.091 0 0 1-2.201.911 3.091 3.091 0 0 1-2.2-.911 3.092 3.092 0 0 1-.911-2.2c0-.831.323-1.612.91-2.2a3.091 3.091 0 0 1 2.201-.911M230 148a4.002 4.002 0 1 0 2.829 6.83A4.002 4.002 0 0 0 230 148m0 .889c.831 0 1.613.323 2.2.911a3.115 3.115 0 0 1 0 4.4 3.09 3.09 0 0 1-2.2.911 3.092 3.092 0 0 1-2.2-.91 3.093 3.093 0 0 1-.911-2.201c0-.831.323-1.612.91-2.2a3.093 3.093 0 0 1 2.201-.911M297 145a4 4 0 1 0 0 8 4 4 0 0 0 0-8m0 .889c.831 0 1.612.323 2.2.911.588.588.911 1.369.911 2.2 0 .831-.323 1.612-.91 2.2a3.093 3.093 0 0 1-2.201.911 3.091 3.091 0 0 1-2.2-.911 3.114 3.114 0 0 1 0-4.4 3.091 3.091 0 0 1 2.2-.911M287 156a4.002 4.002 0 1 0 2.829 6.83A4.002 4.002 0 0 0 287 156m0 .889c.831 0 1.613.323 2.2.911a3.117 3.117 0 0 1 0 4.4 3.09 3.09 0 0 1-2.2.911 3.09 3.09 0 0 1-2.2-.91 3.117 3.117 0 0 1 0-4.401 3.091 3.091 0 0 1 2.2-.911M276 167a4.002 4.002 0 1 0 2.829 6.828A4.002 4.002 0 0 0 276 167m0 .889c.831 0 1.613.323 2.2.911a3.09 3.09 0 0 1 .911 2.2c0 .831-.323 1.612-.91 2.2a3.091 3.091 0 0 1-2.201.911 3.093 3.093 0 0 1-2.2-.911 3.092 3.092 0 0 1-.911-2.2c0-.832.323-1.612.91-2.2a3.093 3.093 0 0 1 2.201-.911M238 98a4 4 0 1 0 0 8 4 4 0 0 0 0-8m0 .889c.831 0 1.613.323 2.2.911a3.09 3.09 0 0 1 .911 2.2c0 .831-.323 1.612-.91 2.2a3.091 3.091 0 0 1-2.201.911 3.093 3.093 0 0 1-2.2-.911 3.092 3.092 0 0 1-.911-2.2c0-.831.323-1.612.91-2.2a3.093 3.093 0 0 1 2.201-.911"/>
                <path fill="#4D4D4D" d="M233 103a4 4 0 1 0 0 8 4 4 0 0 0 0-8m0 .889c.831 0 1.613.323 2.2.911a3.116 3.116 0 0 1 0 4.4 3.091 3.091 0 0 1-2.2.911 3.091 3.091 0 0 1-2.2-.911 3.09 3.09 0 0 1-.911-2.2c0-.831.323-1.612.91-2.2a3.091 3.091 0 0 1 2.201-.911M268 111a4 4 0 1 0 0 8 4 4 0 0 0 0-8m0 .889c.831 0 1.613.323 2.2.911a3.116 3.116 0 0 1 0 4.4 3.091 3.091 0 0 1-2.2.911 3.091 3.091 0 0 1-2.2-.911 3.09 3.09 0 0 1-.911-2.2c0-.831.323-1.612.91-2.2a3.091 3.091 0 0 1 2.201-.911"/>
                <path fill="#4D4D4D" d="M262 116a4 4 0 1 0 0 8 4 4 0 0 0 0-8m0 .889c.831 0 1.612.323 2.2.911a3.116 3.116 0 0 1 0 4.4 3.093 3.093 0 0 1-2.2.911 3.091 3.091 0 0 1-2.2-.911 3.09 3.09 0 0 1-.911-2.2c0-.831.323-1.612.91-2.2a3.091 3.091 0 0 1 2.201-.911M280 120a4 4 0 1 0 0 8 4 4 0 0 0 0-8m0 .889c.831 0 1.613.323 2.2.911a3.114 3.114 0 0 1 0 4.4 3.091 3.091 0 0 1-2.2.911 3.093 3.093 0 0 1-2.2-.911 3.09 3.09 0 0 1-.911-2.2c0-.831.323-1.612.91-2.2a3.093 3.093 0 0 1 2.201-.911M301 120a4 4 0 1 0 0 8 4 4 0 0 0 0-8m0 .889c.831 0 1.613.323 2.2.911a3.116 3.116 0 0 1 0 4.4 3.091 3.091 0 0 1-2.2.911 3.091 3.091 0 0 1-2.2-.911 3.116 3.116 0 0 1 0-4.4 3.091 3.091 0 0 1 2.2-.911M308 135a4 4 0 1 0 0 8 4 4 0 0 0 0-8m0 .889c.831 0 1.612.323 2.2.911a3.116 3.116 0 0 1 0 4.4 3.093 3.093 0 0 1-2.2.911 3.091 3.091 0 0 1-2.2-.911 3.114 3.114 0 0 1 0-4.4 3.091 3.091 0 0 1 2.2-.911M269 131a4 4 0 1 0 0 8 4 4 0 0 0 0-8m0 .889c.831 0 1.613.323 2.2.911a3.114 3.114 0 0 1 0 4.4 3.091 3.091 0 0 1-2.2.911 3.093 3.093 0 0 1-2.2-.911 3.116 3.116 0 0 1 0-4.4 3.093 3.093 0 0 1 2.2-.911M291 131a4 4 0 1 0 0 8 4 4 0 0 0 0-8m0 .889c.831 0 1.613.323 2.2.911a3.116 3.116 0 0 1 0 4.4 3.091 3.091 0 0 1-2.2.911 3.091 3.091 0 0 1-2.2-.911 3.09 3.09 0 0 1-.911-2.2c0-.831.323-1.612.91-2.2a3.091 3.091 0 0 1 2.201-.911"/>
                <path fill="#4D4D4D" d="M264 136a4 4 0 1 0 0 8 4 4 0 0 0 0-8m0 .889c.831 0 1.613.323 2.2.911a3.09 3.09 0 0 1 .911 2.2c0 .831-.323 1.612-.91 2.2a3.091 3.091 0 0 1-2.201.911 3.091 3.091 0 0 1-2.2-.911 3.116 3.116 0 0 1 0-4.4 3.091 3.091 0 0 1 2.2-.911M253 147a4.002 4.002 0 1 0 2.829 6.83A4.002 4.002 0 0 0 253 147m0 .889c.831 0 1.613.323 2.2.911.588.588.911 1.369.911 2.2 0 .831-.323 1.612-.91 2.2a3.091 3.091 0 0 1-2.201.911 3.093 3.093 0 0 1-2.2-.911 3.092 3.092 0 0 1-.911-2.2c0-.831.323-1.612.91-2.2a3.093 3.093 0 0 1 2.201-.911"/>
                <path fill="#4D4D4D" d="M248 152a4 4 0 1 0 0 8 4 4 0 0 0 0-8m0 .889c.831 0 1.613.323 2.2.911a3.09 3.09 0 0 1 .911 2.2c0 .831-.323 1.612-.91 2.2a3.091 3.091 0 0 1-2.201.911 3.091 3.091 0 0 1-2.2-.911 3.092 3.092 0 0 1-.911-2.2c0-.831.323-1.612.91-2.2a3.091 3.091 0 0 1 2.201-.911M238 163a4.002 4.002 0 1 0 2.829 6.83A4.002 4.002 0 0 0 238 163m0 .889c.831 0 1.613.323 2.2.911a3.115 3.115 0 0 1 0 4.4 3.094 3.094 0 0 1-2.2.911 3.095 3.095 0 0 1-2.2-.91 3.093 3.093 0 0 1-.911-2.201c0-.831.323-1.612.91-2.2a3.093 3.093 0 0 1 2.201-.911"/>
                <path fill="#4D4D4D" d="M232 168a4 4 0 1 0 0 8 4 4 0 0 0 0-8m0 .889c.831 0 1.613.323 2.2.911a3.116 3.116 0 0 1 0 4.4 3.091 3.091 0 0 1-2.2.911 3.091 3.091 0 0 1-2.2-.911 3.114 3.114 0 0 1 0-4.4 3.091 3.091 0 0 1 2.2-.911M280 141a4.002 4.002 0 1 0 2.829 6.83A4.002 4.002 0 0 0 280 141m0 .889c.831 0 1.613.323 2.2.911a3.115 3.115 0 0 1 0 4.4 3.09 3.09 0 0 1-2.2.911 3.092 3.092 0 0 1-2.2-.91 3.093 3.093 0 0 1-.911-2.201c0-.831.323-1.612.91-2.2a3.093 3.093 0 0 1 2.201-.911"/>
                <path fill="#4D4D4D" d="M275 147a4.002 4.002 0 1 0 2.829 6.83A4.002 4.002 0 0 0 275 147m0 .889c.831 0 1.613.323 2.2.911a3.116 3.116 0 0 1 0 4.4 3.091 3.091 0 0 1-2.2.911 3.091 3.091 0 0 1-2.2-.911 3.092 3.092 0 0 1-.911-2.2c0-.831.323-1.612.91-2.2a3.091 3.091 0 0 1 2.201-.911M264 157c-1.024 0-2.047.39-2.829 1.17a4.002 4.002 0 0 0 5.658 5.658A4.002 4.002 0 0 0 264 157m0 .889a3.09 3.09 0 0 1 2.2.91 3.117 3.117 0 0 1 0 4.401 3.091 3.091 0 0 1-2.2.911 3.091 3.091 0 0 1-2.2-.911 3.117 3.117 0 0 1 0-4.4 3.09 3.09 0 0 1 2.2-.911"/>
                <path fill="#4D4D4D" d="M259 163a4.002 4.002 0 1 0 2.829 6.83A4.002 4.002 0 0 0 259 163m0 .889c.831 0 1.612.323 2.2.911.588.588.911 1.369.911 2.2 0 .832-.323 1.612-.91 2.2a3.095 3.095 0 0 1-2.201.911 3.094 3.094 0 0 1-2.2-.91 3.115 3.115 0 0 1 0-4.401 3.091 3.091 0 0 1 2.2-.911M248 173c-1.024 0-2.047.39-2.829 1.17a4.002 4.002 0 0 0 5.658 5.658A4.002 4.002 0 0 0 248 173m0 .889a3.09 3.09 0 0 1 2.2.91c.588.589.911 1.369.911 2.201 0 .831-.323 1.612-.91 2.2a3.091 3.091 0 0 1-2.201.911 3.091 3.091 0 0 1-2.2-.911 3.092 3.092 0 0 1-.911-2.2c0-.832.323-1.612.91-2.2a3.09 3.09 0 0 1 2.201-.911"/>
                <path stroke="#4D4D4D" d="M230 105l91-91"/>
                <path fill="#A8A8A8" d="M319.963 71.584L318.777 68l44.983 15.452 1.24 3.662L362.136 90 317 74.57z"/>
                <path stroke="#4D4D4D" d="M280 172l99-99M339 14l36 102M278 19l100 34M330 100L296 0M286 57l109 37M390 100L287 65M293 100l45-45M349 43l22-22"/>
                <mask id="e" fill="#fff">
                    <use xlink:href="#d"/>
                </mask>
                <path stroke="#4D4D4D" d="M227 181h138V29H227z" mask="url(#e)"/>
                <path fill="#4D4D4D" d="M293.5 181c-6.351 0-11.5 5.149-11.5 11.5s5.149 11.5 11.5 11.5 11.5-5.149 11.5-11.5-5.149-11.5-11.5-11.5m0 .821c5.888 0 10.679 4.791 10.679 10.679s-4.791 10.679-10.679 10.679-10.679-4.791-10.679-10.679 4.791-10.679 10.679-10.679M360.5 243c-6.351 0-11.5 5.149-11.5 11.5s5.149 11.5 11.5 11.5 11.5-5.149 11.5-11.5-5.149-11.5-11.5-11.5m0 .821c5.888 0 10.679 4.791 10.679 10.679s-4.791 10.679-10.679 10.679-10.679-4.791-10.679-10.679 4.791-10.679 10.679-10.679M542.5 204c-15.74 0-28.5 12.76-28.5 28.5s12.76 28.5 28.5 28.5 28.5-12.76 28.5-28.5-12.76-28.5-28.5-28.5m0 .838c15.253 0 27.662 12.41 27.662 27.662 0 15.253-12.41 27.662-27.662 27.662-15.253 0-27.662-12.41-27.662-27.662 0-15.253 12.41-27.662 27.662-27.662M44.5 204C28.76 204 16 216.76 16 232.5S28.76 261 44.5 261 73 248.24 73 232.5 60.24 204 44.5 204m0 .838c15.253 0 27.662 12.41 27.662 27.662 0 15.253-12.41 27.662-27.662 27.662-15.253 0-27.662-12.41-27.662-27.662 0-15.253 12.41-27.662 27.662-27.662" mask="url(#e)"/>
                <path stroke="#4D4D4D" d="M0 204h584M0 260h584M349 278v-88M372 278v-88" mask="url(#e)"/>
                <path fill="#4D4D4D" d="M431.5 243c-6.351 0-11.5 5.149-11.5 11.5s5.149 11.5 11.5 11.5 11.5-5.149 11.5-11.5-5.149-11.5-11.5-11.5m0 .821c5.888 0 10.679 4.791 10.679 10.679s-4.791 10.679-10.679 10.679-10.679-4.791-10.679-10.679 4.791-10.679 10.679-10.679" mask="url(#e)"/>
                <path stroke="#4D4D4D" d="M420 278v-88M443 278v-88" mask="url(#e)"/>
                <path fill="#4D4D4D" d="M293.5 243c-6.351 0-11.5 5.149-11.5 11.5s5.149 11.5 11.5 11.5 11.5-5.149 11.5-11.5-5.149-11.5-11.5-11.5m0 .821c5.888 0 10.679 4.791 10.679 10.679s-4.791 10.679-10.679 10.679-10.679-4.791-10.679-10.679 4.791-10.679 10.679-10.679" mask="url(#e)"/>
                <path stroke="#4D4D4D" d="M282 278v-88M305 278v-88" mask="url(#e)"/>
                <path fill="#4D4D4D" d="M221.5 243c-6.351 0-11.5 5.149-11.5 11.5s5.149 11.5 11.5 11.5 11.5-5.149 11.5-11.5-5.149-11.5-11.5-11.5m0 .821c5.888 0 10.679 4.791 10.679 10.679s-4.791 10.679-10.679 10.679-10.679-4.791-10.679-10.679 4.791-10.679 10.679-10.679" mask="url(#e)"/>
                <path stroke="#4D4D4D" d="M211 278v-88M233 278v-88" mask="url(#e)"/>
                <path fill="#4D4D4D" d="M144.5 243c-6.351 0-11.5 5.149-11.5 11.5s5.149 11.5 11.5 11.5 11.5-5.149 11.5-11.5-5.149-11.5-11.5-11.5m0 .821c5.888 0 10.679 4.791 10.679 10.679s-4.791 10.679-10.679 10.679-10.679-4.791-10.679-10.679 4.791-10.679 10.679-10.679" mask="url(#e)"/>
                <path stroke="#4D4D4D" d="M133 278v-88M156 278v-88" mask="url(#e)"/>
            </g>
        </g>
    </g>
</svg>
