<svg xmlns="http://www.w3.org/2000/svg" xmlns:xlink="http://www.w3.org/1999/xlink" width="636" height="356" viewBox="0 0 636 356">
    <defs>
        <path id="a" d="M.244.088h108.63v119.877H.243z"/>
        <path id="c" d="M.244.088h108.63v119.877H.243z"/>
    </defs>
    <g fill="none" fill-rule="evenodd">
        <path fill="#FFF" d="M0 0h636v356H0z"/>
        <path fill="#C6C6C6" d="M604.436 266.653l31.218 10.87-10.92-31.002-30.85-10.4 10.552 30.532zm-28.432 24.397l22.632-22.844-10.697-30.955-28.485 28.227a2.95 2.95 0 0 0 0 4.2 3.016 3.016 0 0 0 4.238 0l4.709-4.667a3.017 3.017 0 0 1 4.238 0 2.95 2.95 0 0 1 0 4.2l-23.545 23.331a2.952 2.952 0 0 0 0 4.2 3.017 3.017 0 0 0 4.238 0l18.836-18.664a3.016 3.016 0 0 1 4.238 0 2.95 2.95 0 0 1 0 4.199l-10.36 10.265a2.952 2.952 0 0 0 0 4.2 3.018 3.018 0 0 0 4.239 0l5.732-5.68-.013-.012zm26.87-18.644L580.28 295.21l-.022-.022c-.1.133-.198.267-.32.388l-12.479 12.366a2.951 2.951 0 0 0 0 4.2 3.017 3.017 0 0 0 4.238 0l22.133-21.932a3.016 3.016 0 0 1 4.238 0 2.951 2.951 0 0 1 0 4.2l-13.656 13.532a2.95 2.95 0 0 0 0 4.2 3.017 3.017 0 0 0 4.238 0l8.948-8.867a3.016 3.016 0 0 1 4.238 0 2.951 2.951 0 0 1 0 4.2l-12.244 12.133a2.95 2.95 0 0 0 0 4.199 3.016 3.016 0 0 0 4.238 0l40.738-40.368-31.693-11.033zm-43.891 64.933c-1.09-1.079-2.803-1.14-3.98-.21l-.023-.023-4.71 4.666.024.024a2.94 2.94 0 0 0 .212 3.943c1.09 1.08 2.803 1.14 3.98.21l.023.023 4.71-4.666-.025-.023a2.94 2.94 0 0 0-.211-3.944zm12.714-12.6c-1.09-1.078-2.802-1.14-3.979-.208l-.023-.024-4.71 4.666.024.024a2.94 2.94 0 0 0 .212 3.943c1.09 1.08 2.802 1.141 3.98.21l.023.024 4.708-4.667-.023-.023a2.94 2.94 0 0 0-.212-3.944zm-33.905 16.8c-1.09-1.08-2.803-1.14-3.979-.21l-.024-.023-4.709 4.666.023.023a2.941 2.941 0 0 0 .212 3.944c1.09 1.08 2.802 1.141 3.98.21l.023.024 4.71-4.667-.025-.024a2.94 2.94 0 0 0-.211-3.942zm12.714-12.599c-1.09-1.08-2.802-1.14-3.979-.21l-.023-.023-4.71 4.667.024.023a2.94 2.94 0 0 0 .212 3.942c1.09 1.08 2.802 1.142 3.979.21l.024.024 4.709-4.667-.024-.023a2.94 2.94 0 0 0-.212-3.943zm12.715-12.599c-1.09-1.08-2.803-1.14-3.98-.21l-.023-.024-4.709 4.667.024.024a2.94 2.94 0 0 0 .211 3.942c1.09 1.08 2.803 1.142 3.98.21l.024.024 4.709-4.666-.024-.024a2.94 2.94 0 0 0-.212-3.943zm-1.413-15.4c-1.09-1.079-2.802-1.14-3.979-.208l-.024-.025-4.709 4.667.024.024a2.938 2.938 0 0 0 .212 3.942c1.09 1.08 2.802 1.141 3.98.21l.022.024 4.71-4.666-.024-.023a2.941 2.941 0 0 0-.212-3.944zm-23.546-10.265c-1.09-1.08-2.802-1.14-3.978-.21l-.024-.023-4.71 4.666.024.024a2.94 2.94 0 0 0 .212 3.943c1.09 1.08 2.803 1.14 3.98.21l.023.023 4.71-4.667-.025-.023a2.94 2.94 0 0 0-.212-3.943zm3.768 59.263a2.95 2.95 0 0 0 0 4.2 3.016 3.016 0 0 0 4.238 0 2.95 2.95 0 0 0 0-4.2 3.016 3.016 0 0 0-4.238 0zm33.906-33.598a2.951 2.951 0 0 0 0 4.2 3.017 3.017 0 0 0 4.238 0 2.951 2.951 0 0 0 0-4.2 3.016 3.016 0 0 0-4.238 0zm-11.773 28.465a2.95 2.95 0 0 0 0 4.2 3.016 3.016 0 0 0 4.238 0 2.95 2.95 0 0 0 0-4.2 3.016 3.016 0 0 0-4.238 0zm8.476-8.4a2.951 2.951 0 0 0 0 4.2 3.016 3.016 0 0 0 4.238 0 2.951 2.951 0 0 0 0-4.2 3.017 3.017 0 0 0-4.238 0zm8.476-8.399a2.951 2.951 0 0 0 0 4.2 3.017 3.017 0 0 0 4.239 0 2.951 2.951 0 0 0 0-4.2 3.016 3.016 0 0 0-4.239 0zm-53.212 2.333a2.951 2.951 0 0 0 0 4.2 3.016 3.016 0 0 0 4.238 0 2.951 2.951 0 0 0 0-4.2 3.017 3.017 0 0 0-4.238 0zm8.476-8.4a2.952 2.952 0 0 0 0 4.2 3.018 3.018 0 0 0 4.238 0 2.952 2.952 0 0 0 0-4.2 3.016 3.016 0 0 0-4.238 0zm8.476-8.398a2.95 2.95 0 0 0 0 4.199 3.016 3.016 0 0 0 4.239 0 2.95 2.95 0 0 0 0-4.2 3.016 3.016 0 0 0-4.239 0zm-2.354-31.265a2.951 2.951 0 0 0 0 4.2 3.016 3.016 0 0 0 4.238 0 2.95 2.95 0 0 0 0-4.2 3.017 3.017 0 0 0-4.238 0zm8.476-8.4a2.952 2.952 0 0 0 0 4.2 3.018 3.018 0 0 0 4.238 0 2.95 2.95 0 0 0 0-4.2 3.016 3.016 0 0 0-4.238 0zm-6.122 27.065a2.951 2.951 0 0 1 0 4.2 3.016 3.016 0 0 1-4.238 0 2.951 2.951 0 0 1 0-4.2 3.017 3.017 0 0 1 4.238 0z"/>
        <path fill="#000" d="M343.397 266.653l30.96 10.87-10.83-31.002-30.595-10.4 10.465 30.532zM315.2 291.05l22.446-22.844-10.61-30.955-28.25 28.227a2.968 2.968 0 0 0 0 4.2 2.973 2.973 0 0 0 4.204 0l4.67-4.667a2.974 2.974 0 0 1 4.203 0 2.967 2.967 0 0 1 0 4.2l-23.35 23.331a2.97 2.97 0 0 0 0 4.2 2.974 2.974 0 0 0 4.203 0l18.68-18.664a2.973 2.973 0 0 1 4.203 0 2.968 2.968 0 0 1 0 4.199l-10.274 10.265a2.97 2.97 0 0 0 0 4.2 2.975 2.975 0 0 0 4.203 0l5.685-5.68-.013-.012zm26.649-18.644l-22.407 22.804-.023-.022c-.099.133-.196.267-.317.388l-12.376 12.366a2.968 2.968 0 0 0 0 4.2 2.974 2.974 0 0 0 4.203 0l21.95-21.932a2.973 2.973 0 0 1 4.203 0 2.968 2.968 0 0 1 0 4.2l-13.543 13.532a2.967 2.967 0 0 0 0 4.2 2.974 2.974 0 0 0 4.203 0l8.873-8.867a2.973 2.973 0 0 1 4.204 0 2.968 2.968 0 0 1 0 4.2l-12.143 12.133a2.968 2.968 0 0 0 0 4.199 2.973 2.973 0 0 0 4.203 0l40.401-40.368-31.431-11.033zm-43.53 64.933a2.965 2.965 0 0 0-3.946-.21l-.023-.023-4.67 4.666.023.024a2.959 2.959 0 0 0 .21 3.943 2.964 2.964 0 0 0 3.946.21l.024.023 4.67-4.666-.023-.023a2.959 2.959 0 0 0-.21-3.944zm12.61-12.6a2.965 2.965 0 0 0-3.946-.208l-.023-.024-4.671 4.666.024.024a2.958 2.958 0 0 0 .21 3.943 2.963 2.963 0 0 0 3.946.21l.024.024 4.67-4.667-.024-.023a2.959 2.959 0 0 0-.21-3.944zm-33.625 16.8a2.963 2.963 0 0 0-3.946-.21l-.024-.023-4.67 4.666.023.023a2.96 2.96 0 0 0 .21 3.944 2.963 2.963 0 0 0 3.947.21l.023.024 4.67-4.667-.023-.024a2.957 2.957 0 0 0-.21-3.942zm12.61-12.599a2.964 2.964 0 0 0-3.947-.21l-.023-.023-4.671 4.667.024.023a2.957 2.957 0 0 0 .21 3.942 2.963 2.963 0 0 0 3.946.21l.024.024 4.67-4.667-.024-.023a2.957 2.957 0 0 0-.21-3.943zm12.609-12.599a2.963 2.963 0 0 0-3.946-.21l-.024-.024-4.67 4.667.023.024a2.957 2.957 0 0 0 .21 3.942 2.963 2.963 0 0 0 3.947.21l.023.024 4.67-4.666-.023-.024a2.957 2.957 0 0 0-.21-3.943zm-1.401-15.4a2.963 2.963 0 0 0-3.946-.208l-.024-.025-4.67 4.667.024.024a2.956 2.956 0 0 0 .21 3.942 2.964 2.964 0 0 0 3.946.21l.023.024 4.67-4.666-.023-.023a2.96 2.96 0 0 0-.21-3.944zm-23.351-10.265a2.964 2.964 0 0 0-3.946-.21l-.024-.023-4.67 4.666.023.024a2.959 2.959 0 0 0 .21 3.943 2.964 2.964 0 0 0 3.946.21l.024.023 4.67-4.667-.023-.023a2.958 2.958 0 0 0-.21-3.943zm3.736 59.263a2.968 2.968 0 0 0 0 4.2 2.973 2.973 0 0 0 4.203 0 2.966 2.966 0 0 0 0-4.2 2.973 2.973 0 0 0-4.203 0zm33.625-33.598a2.968 2.968 0 0 0 0 4.2 2.974 2.974 0 0 0 4.204 0 2.968 2.968 0 0 0 0-4.2 2.973 2.973 0 0 0-4.204 0zm-11.675 28.465a2.968 2.968 0 0 0 0 4.2 2.973 2.973 0 0 0 4.203 0 2.968 2.968 0 0 0 0-4.2 2.973 2.973 0 0 0-4.203 0zm8.406-8.4a2.968 2.968 0 0 0 0 4.2 2.973 2.973 0 0 0 4.203 0 2.968 2.968 0 0 0 0-4.2 2.974 2.974 0 0 0-4.203 0zm8.407-8.399a2.968 2.968 0 0 0 0 4.2 2.974 2.974 0 0 0 4.203 0 2.967 2.967 0 0 0 0-4.2 2.973 2.973 0 0 0-4.203 0zm-52.774 2.333a2.968 2.968 0 0 0 0 4.2 2.973 2.973 0 0 0 4.204 0 2.968 2.968 0 0 0 0-4.2 2.974 2.974 0 0 0-4.204 0zm8.407-8.4a2.97 2.97 0 0 0 0 4.2 2.975 2.975 0 0 0 4.203 0 2.97 2.97 0 0 0 0-4.2 2.973 2.973 0 0 0-4.203 0zm8.406-8.398a2.966 2.966 0 0 0 0 4.199 2.973 2.973 0 0 0 4.203 0 2.968 2.968 0 0 0 0-4.2 2.973 2.973 0 0 0-4.203 0zm-2.335-31.265a2.967 2.967 0 0 0 0 4.2 2.972 2.972 0 0 0 4.203 0 2.967 2.967 0 0 0 0-4.2 2.973 2.973 0 0 0-4.203 0zm8.406-8.4a2.97 2.97 0 0 0 0 4.2 2.975 2.975 0 0 0 4.203 0 2.968 2.968 0 0 0 0-4.2 2.973 2.973 0 0 0-4.203 0zm-6.07 27.065a2.968 2.968 0 0 1 0 4.2 2.973 2.973 0 0 1-4.204 0 2.968 2.968 0 0 1 0-4.2 2.974 2.974 0 0 1 4.203 0z"/>
        <path fill="#C6C6C6" d="M65.338 326.108a3.054 3.054 0 0 0-4.316 0 3.048 3.048 0 0 0 0 4.313 3.053 3.053 0 0 0 4.316 0 3.048 3.048 0 0 0 0-4.313M60.115 314.079a3.053 3.053 0 0 0-4.316 0 3.047 3.047 0 0 0 0 4.311 3.052 3.052 0 0 0 4.316 0 3.046 3.046 0 0 0 0-4.311M25.181 348.983a3.054 3.054 0 0 0-4.316 0 3.048 3.048 0 0 0 0 4.313 3.054 3.054 0 0 0 4.316 0 3.048 3.048 0 0 0 0-4.313"/>
        <path fill="#000" d="M22.368 317.298a3.053 3.053 0 0 0-4.316 0 3.047 3.047 0 0 0 0 4.312 3.053 3.053 0 0 0 4.316 0 3.047 3.047 0 0 0 0-4.312M13.789 325.87a3.053 3.053 0 0 0-4.316 0 3.047 3.047 0 0 0 0 4.312 3.053 3.053 0 0 0 4.316 0 3.047 3.047 0 0 0 0-4.312M5.21 334.443a3.053 3.053 0 0 0-4.316-.001 3.048 3.048 0 0 0 0 4.312 3.052 3.052 0 0 0 4.315 0 3.046 3.046 0 0 0 0-4.311"/>
        <path fill="#C6C6C6" d="M56.758 334.681a3.053 3.053 0 0 0-4.315 0 3.048 3.048 0 0 0 0 4.312 3.052 3.052 0 0 0 4.315 0 3.046 3.046 0 0 0 0-4.312M48.179 343.253a3.054 3.054 0 0 0-4.316 0 3.048 3.048 0 0 0 0 4.312 3.053 3.053 0 0 0 4.316 0 3.047 3.047 0 0 0 0-4.312"/>
        <path fill="#000" d="M20.72 301.696a3.053 3.053 0 0 0-4.315 0 3.048 3.048 0 0 0 0 4.312 3.054 3.054 0 0 0 4.315 0 3.048 3.048 0 0 0 0-4.312M30.4 274.777a3.054 3.054 0 0 0-4.317 0 3.048 3.048 0 0 0 0 4.312 3.054 3.054 0 0 0 4.316 0 3.047 3.047 0 0 0 0-4.312M21.82 283.35a3.052 3.052 0 0 0-4.316 0 3.047 3.047 0 0 0 0 4.311 3.053 3.053 0 0 0 4.316 0 3.047 3.047 0 0 0 0-4.312M35.597 304.131c-1.178-1.176-3.098-1.165-4.29.026-.052.052-.1.108-.148.163l-.059-.059-4.677 4.672.06.06c-1.04 1.196-1.003 2.998.122 4.122 1.126 1.125 2.928 1.16 4.126.123l.008.008 4.676-4.672-.007-.008c.055-.048.11-.096.163-.149 1.192-1.19 1.204-3.11.026-4.286M13.578 291.635c-1.177-1.177-3.098-1.165-4.29.026-.053.052-.1.108-.148.163l-.059-.06-4.676 4.674.06.058c-1.04 1.197-1.004 3 .121 4.124 1.126 1.124 2.929 1.16 4.127.122l.008.007 4.676-4.672-.008-.007c.055-.048.111-.096.164-.148 1.191-1.191 1.203-3.11.025-4.287"/>
        <path fill="#C6C6C6" d="M40.435 316.545c-1.177-1.176-3.098-1.165-4.29.026-.052.052-.1.108-.148.163l-.059-.059-4.052 4.049.06.058c-1.04 1.198-1.003 2.999.122 4.123 1.126 1.125 2.928 1.161 4.126.123l.008.007 4.052-4.047-.008-.009c.055-.047.111-.095.164-.148 1.191-1.19 1.203-3.11.025-4.286M27.882 329.088c-1.177-1.177-3.098-1.165-4.29.025-.052.053-.1.109-.147.163l-.06-.059-4.675 4.673.058.059c-1.04 1.197-1.003 2.999.123 4.123 1.125 1.125 2.928 1.16 4.126.122l.008.008 4.676-4.672-.008-.008c.055-.048.111-.095.164-.148 1.191-1.19 1.203-3.11.025-4.286M42.362 327.401l.059.059c-1.039 1.196-1.002 2.998.123 4.123 1.126 1.124 2.928 1.16 4.126.122l.008.008 4.676-4.672-.008-.008c.056-.05.112-.096.164-.149 1.192-1.19 1.203-3.109.025-4.286-1.177-1.176-3.097-1.165-4.29.026-.052.052-.099.108-.147.164l-.06-.06-4.676 4.673zM29.185 340.567l.06.06c-1.04 1.196-1.004 2.998.121 4.122 1.126 1.125 2.929 1.16 4.127.122l.008.008 4.676-4.672-.008-.007c.055-.05.11-.096.164-.149 1.191-1.19 1.203-3.11.025-4.286-1.177-1.177-3.098-1.166-4.29.026-.052.052-.1.108-.148.162l-.059-.058-4.676 4.672zM14.705 342.254c-1.177-1.176-3.098-1.165-4.29.026-.053.052-.1.107-.148.163l-.06-.059-4.675 4.673.06.059c-1.04 1.197-1.004 2.998.121 4.123 1.126 1.125 2.929 1.16 4.126.122l.009.007 4.676-4.671-.009-.008c.056-.049.112-.096.165-.149 1.191-1.19 1.203-3.11.025-4.286M109.094 286.7l-36.228-11.235-24.346 24.327a3.047 3.047 0 0 1 0 4.312l-6.369 6.363.06.06c-1.04 1.196-1.003 2.997.122 4.122 1.126 1.125 2.928 1.16 4.126.122l.008.008 20.389-20.372a3.053 3.053 0 0 1 4.315 0 3.047 3.047 0 0 1 0 4.312L61.883 308l.059.059c-1.039 1.197-1.003 2.998.123 4.122 1.126 1.125 2.928 1.161 4.126.123l.007.008 4.676-4.672a3.055 3.055 0 0 1 4.315 0 3.047 3.047 0 0 1 0 4.313l-8.084 8.078.06.058c-1.04 1.197-1.004 2.999.122 4.123 1.126 1.125 2.928 1.161 4.126.123l.008.007 37.673-37.642z"/>
        <path fill="#000" d="M61.622 239.267l-29.455 29.43.06.06c-1.04 1.197-1.004 2.998.122 4.123 1.125 1.125 2.928 1.16 4.126.122l.008.008 3.17-3.167a3.054 3.054 0 0 1 4.315 0 3.047 3.047 0 0 1 0 4.312l-21.48 21.462.06.06c-1.04 1.196-1.003 2.997.122 4.122 1.126 1.124 2.929 1.161 4.126.122l.008.009 13.97-13.958a3.053 3.053 0 0 1 4.315 0 3.047 3.047 0 0 1 0 4.312l-7.776 7.769.06.06c-1.04 1.196-1.004 2.998.121 4.122 1.126 1.124 2.93 1.16 4.127.122l.008.008 2.575-2.573a3.054 3.054 0 0 1 4.316 0l24.346-24.326-11.244-36.199z"/>
        <path fill="#C6C6C6" d="M61.612 239.34l36.228 11.236 11.254 36.124-36.228-11.235z"/>
        <path fill="#000" d="M71.102 277.228l1.764-1.763-.818-2.615 36.23 11.235.816 2.615-1.764 1.763z"/>
        <g>
            <g transform="translate(526.781)">
                <mask id="b" fill="#fff">
                    <use xlink:href="#a"/>
                </mask>
                <path fill="#41A1FA" d="M77.655 30.873l31.218 10.96-10.92-31.26L67.103.088l10.552 30.785zm-28.432 24.6L71.855 32.44 61.158 1.227 32.672 29.689a2.993 2.993 0 0 0 0 4.235 3 3 0 0 0 4.239 0l4.709-4.706a2.998 2.998 0 0 1 4.238 0 2.991 2.991 0 0 1 0 4.234L22.313 56.978a2.994 2.994 0 0 0 0 4.236 2.998 2.998 0 0 0 4.238 0l18.836-18.821a2.998 2.998 0 0 1 4.238 0 2.993 2.993 0 0 1 0 4.235l-10.36 10.35a2.994 2.994 0 0 0 0 4.236 2.999 2.999 0 0 0 4.239 0l5.732-5.728-.013-.012zm26.87-18.8L53.5 59.67l-.022-.022c-.1.133-.198.27-.32.39L40.678 72.506a2.994 2.994 0 0 0 0 4.235 3 3 0 0 0 4.238 0L67.05 54.626a2.998 2.998 0 0 1 4.238 0 2.994 2.994 0 0 1 0 4.236L57.631 72.506a2.993 2.993 0 0 0 0 4.235 3 3 0 0 0 4.238 0l8.947-8.94a3 3 0 0 1 4.239 0 2.993 2.993 0 0 1 0 4.235L62.81 84.269a2.993 2.993 0 0 0 0 4.235 3 3 0 0 0 4.238 0L107.787 47.8 76.094 36.674zM32.203 102.15a2.99 2.99 0 0 0-3.98-.211l-.023-.024-4.71 4.705.024.024a2.983 2.983 0 0 0 .212 3.976 2.989 2.989 0 0 0 3.98.211l.023.023 4.71-4.705-.025-.023a2.983 2.983 0 0 0-.211-3.976zm12.714-12.704a2.99 2.99 0 0 0-3.979-.212l-.023-.023-4.71 4.705.024.023a2.983 2.983 0 0 0 .212 3.976 2.988 2.988 0 0 0 3.979.212l.024.024 4.708-4.706-.023-.023a2.983 2.983 0 0 0-.212-3.976zM11.01 106.384a2.988 2.988 0 0 0-3.978-.212l-.024-.024-4.71 4.705.024.024a2.983 2.983 0 0 0 .212 3.976 2.988 2.988 0 0 0 3.98.211l.023.025 4.71-4.706-.025-.023a2.983 2.983 0 0 0-.212-3.976zM23.725 93.68a2.989 2.989 0 0 0-3.98-.212l-.022-.024-4.71 4.706.024.024a2.982 2.982 0 0 0 .212 3.975 2.989 2.989 0 0 0 3.979.212l.024.024 4.709-4.706-.024-.023a2.983 2.983 0 0 0-.212-3.976zM36.44 80.975a2.988 2.988 0 0 0-3.98-.21l-.023-.025-4.709 4.706.024.024a2.982 2.982 0 0 0 .211 3.975 2.989 2.989 0 0 0 3.98.212l.023.023 4.71-4.705-.024-.024a2.982 2.982 0 0 0-.212-3.976zM35.027 65.45a2.988 2.988 0 0 0-3.979-.212l-.024-.024-4.709 4.705.024.024a2.982 2.982 0 0 0 .212 3.976 2.99 2.99 0 0 0 3.979.212l.023.023 4.71-4.705-.024-.024a2.983 2.983 0 0 0-.212-3.975zM11.481 55.097a2.989 2.989 0 0 0-3.978-.211l-.024-.024-4.71 4.705.024.023a2.983 2.983 0 0 0 .212 3.976 2.988 2.988 0 0 0 3.979.212l.024.023 4.709-4.705-.024-.024a2.983 2.983 0 0 0-.212-3.975zm3.768 59.756a2.993 2.993 0 0 0 0 4.235 3 3 0 0 0 4.238 0 2.992 2.992 0 0 0 0-4.235 2.998 2.998 0 0 0-4.238 0zm33.905-33.878a2.993 2.993 0 0 0 0 4.235 2.998 2.998 0 0 0 4.239 0 2.993 2.993 0 0 0 0-4.235 3 3 0 0 0-4.239 0zm-11.773 28.703a2.993 2.993 0 0 0 0 4.234 3 3 0 0 0 4.239 0 2.993 2.993 0 0 0 0-4.234 2.998 2.998 0 0 0-4.239 0zm8.477-8.47a2.992 2.992 0 0 0 0 4.234 2.998 2.998 0 0 0 4.238 0 2.992 2.992 0 0 0 0-4.234 2.998 2.998 0 0 0-4.238 0zm8.476-8.47a2.993 2.993 0 0 0 0 4.235 3 3 0 0 0 4.239 0 2.993 2.993 0 0 0 0-4.234 3 3 0 0 0-4.239 0zM1.121 95.093a2.992 2.992 0 0 0 0 4.234 2.998 2.998 0 0 0 4.239 0 2.992 2.992 0 0 0 0-4.234 2.998 2.998 0 0 0-4.239 0zm8.477-8.47a2.994 2.994 0 0 0 0 4.235 3 3 0 0 0 4.238 0 2.994 2.994 0 0 0 0-4.235 3 3 0 0 0-4.238 0zm8.476-8.47a2.992 2.992 0 0 0 0 4.235 3 3 0 0 0 4.239 0 2.993 2.993 0 0 0 0-4.234 2.998 2.998 0 0 0-4.239 0zM15.72 46.629a2.992 2.992 0 0 0 0 4.234 2.998 2.998 0 0 0 4.239 0 2.991 2.991 0 0 0 0-4.234 2.998 2.998 0 0 0-4.239 0zm8.477-8.47a2.994 2.994 0 0 0 0 4.235 3 3 0 0 0 4.238 0 2.993 2.993 0 0 0 0-4.235 3 3 0 0 0-4.238 0zm-6.122 27.29a2.992 2.992 0 0 1 0 4.235 2.998 2.998 0 0 1-4.238 0 2.992 2.992 0 0 1 0-4.234 2.998 2.998 0 0 1 4.238 0z" mask="url(#b)"/>
            </g>
        </g>
        <g>
            <g transform="translate(266.387)">
                <mask id="d" fill="#fff">
                    <use xlink:href="#c"/>
                </mask>
                <path fill="#523D93" d="M77.655 30.873l31.218 10.96-10.92-31.26L67.103.088l10.552 30.785zm-28.432 24.6L71.855 32.44 61.158 1.227 32.672 29.689a2.993 2.993 0 0 0 0 4.235 3 3 0 0 0 4.239 0l4.709-4.706a2.998 2.998 0 0 1 4.238 0 2.991 2.991 0 0 1 0 4.234L22.313 56.978a2.994 2.994 0 0 0 0 4.236 2.998 2.998 0 0 0 4.238 0l18.836-18.821a2.998 2.998 0 0 1 4.238 0 2.993 2.993 0 0 1 0 4.235l-10.36 10.35a2.994 2.994 0 0 0 0 4.236 2.999 2.999 0 0 0 4.239 0l5.732-5.728-.013-.012zm26.87-18.8L53.5 59.67l-.023-.022c-.1.133-.198.27-.32.39L40.678 72.506a2.994 2.994 0 0 0 0 4.235 3 3 0 0 0 4.238 0L67.05 54.626a2.998 2.998 0 0 1 4.238 0 2.994 2.994 0 0 1 0 4.236L57.631 72.506a2.993 2.993 0 0 0 0 4.235 3 3 0 0 0 4.238 0l8.947-8.94a3 3 0 0 1 4.239 0 2.993 2.993 0 0 1 0 4.235L62.81 84.269a2.993 2.993 0 0 0 0 4.235 3 3 0 0 0 4.238 0L107.787 47.8 76.094 36.674zM32.203 102.15a2.99 2.99 0 0 0-3.98-.211l-.023-.024-4.709 4.705.023.024a2.983 2.983 0 0 0 .212 3.976 2.989 2.989 0 0 0 3.98.211l.023.023 4.71-4.705-.025-.023a2.983 2.983 0 0 0-.211-3.976zm12.714-12.704a2.99 2.99 0 0 0-3.979-.212l-.023-.023-4.71 4.705.024.023a2.983 2.983 0 0 0 .212 3.976 2.988 2.988 0 0 0 3.979.212l.024.024 4.708-4.706-.023-.023a2.983 2.983 0 0 0-.212-3.976zM11.01 106.384a2.988 2.988 0 0 0-3.978-.212l-.024-.024-4.71 4.705.024.024a2.983 2.983 0 0 0 .212 3.976 2.988 2.988 0 0 0 3.98.211l.023.025 4.71-4.706-.025-.023a2.983 2.983 0 0 0-.212-3.976zM23.725 93.68a2.989 2.989 0 0 0-3.98-.212l-.022-.024-4.71 4.706.024.024a2.982 2.982 0 0 0 .212 3.975 2.989 2.989 0 0 0 3.979.212l.024.024 4.709-4.706-.024-.023a2.983 2.983 0 0 0-.212-3.976zM36.44 80.975a2.988 2.988 0 0 0-3.98-.21l-.023-.025-4.709 4.706.024.024a2.982 2.982 0 0 0 .211 3.975 2.989 2.989 0 0 0 3.98.212l.023.023 4.71-4.705-.024-.024a2.982 2.982 0 0 0-.212-3.976zM35.027 65.45a2.988 2.988 0 0 0-3.979-.212l-.024-.024-4.709 4.705.024.024a2.982 2.982 0 0 0 .212 3.976 2.99 2.99 0 0 0 3.979.212l.023.023 4.71-4.705-.024-.024a2.983 2.983 0 0 0-.212-3.975zM11.481 55.097a2.989 2.989 0 0 0-3.978-.211l-.024-.024-4.71 4.705.024.023a2.983 2.983 0 0 0 .212 3.976 2.988 2.988 0 0 0 3.979.212l.024.023 4.709-4.705-.024-.024a2.983 2.983 0 0 0-.212-3.975zm3.768 59.756a2.993 2.993 0 0 0 0 4.235 3 3 0 0 0 4.238 0 2.992 2.992 0 0 0 0-4.235 2.998 2.998 0 0 0-4.238 0zm33.905-33.878a2.993 2.993 0 0 0 0 4.235 2.998 2.998 0 0 0 4.239 0 2.993 2.993 0 0 0 0-4.235 3 3 0 0 0-4.239 0zm-11.773 28.703a2.993 2.993 0 0 0 0 4.234 3 3 0 0 0 4.239 0 2.993 2.993 0 0 0 0-4.234 2.998 2.998 0 0 0-4.239 0zm8.477-8.47a2.992 2.992 0 0 0 0 4.234 2.998 2.998 0 0 0 4.238 0 2.992 2.992 0 0 0 0-4.234 2.998 2.998 0 0 0-4.238 0zm8.476-8.47a2.993 2.993 0 0 0 0 4.235 3 3 0 0 0 4.239 0 2.992 2.992 0 0 0 0-4.234 3 3 0 0 0-4.239 0zM1.121 95.093a2.992 2.992 0 0 0 0 4.234 2.998 2.998 0 0 0 4.239 0 2.992 2.992 0 0 0 0-4.234 2.998 2.998 0 0 0-4.239 0zm8.477-8.47a2.994 2.994 0 0 0 0 4.235 3 3 0 0 0 4.238 0 2.994 2.994 0 0 0 0-4.235 3 3 0 0 0-4.238 0zm8.476-8.47a2.992 2.992 0 0 0 0 4.235 3 3 0 0 0 4.239 0 2.993 2.993 0 0 0 0-4.234 2.998 2.998 0 0 0-4.239 0zM15.72 46.629a2.991 2.991 0 0 0 0 4.234 2.997 2.997 0 0 0 4.238 0 2.991 2.991 0 0 0 0-4.234 2.997 2.997 0 0 0-4.238 0zm8.476-8.47a2.994 2.994 0 0 0 0 4.235 3 3 0 0 0 4.238 0 2.993 2.993 0 0 0 0-4.235 3 3 0 0 0-4.238 0zm-6.122 27.29a2.992 2.992 0 0 1 0 4.235 2.998 2.998 0 0 1-4.238 0 2.992 2.992 0 0 1 0-4.234 2.998 2.998 0 0 1 4.238 0z" mask="url(#d)"/>
            </g>
        </g>
        <g>
            <path fill="#41A1FA" d="M65.338 90.363a2.987 2.987 0 0 0-4.316 0 3.22 3.22 0 0 0 0 4.452 2.986 2.986 0 0 0 4.316 0 3.22 3.22 0 0 0 0-4.452M60.115 77.942a2.986 2.986 0 0 0-4.316 0 3.218 3.218 0 0 0 0 4.451 2.985 2.985 0 0 0 4.316.001 3.218 3.218 0 0 0 0-4.452M25.181 113.98a2.986 2.986 0 0 0-4.316 0 3.219 3.219 0 0 0 0 4.452 2.986 2.986 0 0 0 4.316 0 3.219 3.219 0 0 0 0-4.451"/>
            <path fill="#523D93" d="M22.368 81.266a2.986 2.986 0 0 0-4.316 0 3.219 3.219 0 0 0 0 4.452 2.986 2.986 0 0 0 4.316 0 3.218 3.218 0 0 0 0-4.452M13.789 90.116a2.987 2.987 0 0 0-4.316 0 3.22 3.22 0 0 0 0 4.453 2.986 2.986 0 0 0 4.316 0 3.22 3.22 0 0 0 0-4.453M5.21 98.968a2.985 2.985 0 0 0-4.316-.001 3.22 3.22 0 0 0 0 4.452 2.985 2.985 0 0 0 4.315 0 3.218 3.218 0 0 0 0-4.451"/>
            <path fill="#41A1FA" d="M56.758 99.213a2.985 2.985 0 0 0-4.315 0 3.22 3.22 0 0 0 0 4.453 2.985 2.985 0 0 0 4.315 0 3.218 3.218 0 0 0 0-4.453M48.179 108.064a2.986 2.986 0 0 0-4.316 0 3.218 3.218 0 0 0 0 4.452 2.985 2.985 0 0 0 4.316 0 3.218 3.218 0 0 0 0-4.452"/>
            <path fill="#523D93" d="M20.72 65.157a2.985 2.985 0 0 0-4.315 0 3.218 3.218 0 0 0 0 4.452 2.986 2.986 0 0 0 4.315 0 3.218 3.218 0 0 0 0-4.452M30.4 37.364a2.986 2.986 0 0 0-4.317 0 3.22 3.22 0 0 0 0 4.453 2.986 2.986 0 0 0 4.316 0 3.22 3.22 0 0 0 0-4.453M21.82 46.215a2.986 2.986 0 0 0-4.316 0 3.218 3.218 0 0 0 0 4.451 2.985 2.985 0 0 0 4.316.001 3.22 3.22 0 0 0 0-4.452M35.597 67.672c-1.178-1.215-3.098-1.203-4.29.027-.052.053-.1.11-.148.168l-.059-.061-4.677 4.824.06.061c-1.04 1.236-1.003 3.096.122 4.257 1.126 1.161 2.928 1.198 4.126.126l.008.008 4.676-4.823-.007-.009c.055-.05.11-.098.163-.152 1.192-1.23 1.204-3.212.026-4.426M13.578 54.77c-1.177-1.215-3.098-1.203-4.29.027-.053.054-.1.112-.148.168l-.059-.06-4.676 4.823.06.061c-1.04 1.236-1.004 3.096.121 4.257 1.126 1.162 2.929 1.198 4.127.127l.008.007 4.676-4.823-.008-.008c.055-.05.111-.1.164-.154 1.191-1.229 1.203-3.21.025-4.425"/>
            <path fill="#41A1FA" d="M40.435 80.489c-1.177-1.215-3.098-1.203-4.29.027a3.06 3.06 0 0 0-.148.168l-.059-.061-4.052 4.18.06.061c-1.04 1.236-1.003 3.096.122 4.256 1.126 1.161 2.928 1.199 4.126.126l.008.009 4.052-4.18-.008-.008c.055-.049.111-.098.164-.152 1.191-1.23 1.203-3.212.025-4.426M27.882 93.439c-1.177-1.215-3.098-1.203-4.29.026-.052.054-.1.111-.147.168l-.06-.06-4.675 4.824.058.06c-1.04 1.236-1.003 3.097.123 4.258 1.125 1.161 2.928 1.198 4.126.126l.008.008 4.676-4.824-.008-.008c.055-.05.111-.099.164-.153 1.191-1.23 1.203-3.211.025-4.425M42.362 91.697l.059.061c-1.039 1.236-1.002 3.096.123 4.256 1.126 1.162 2.928 1.199 4.126.127l.008.008 4.676-4.824-.008-.008c.056-.05.112-.099.164-.153 1.192-1.23 1.203-3.211.025-4.425-1.177-1.215-3.097-1.204-4.29.026-.052.054-.099.111-.147.168l-.06-.06-4.676 4.824zM29.185 105.29l.06.062c-1.04 1.236-1.004 3.096.121 4.257 1.126 1.16 2.929 1.198 4.127.126l.008.008 4.676-4.824-.008-.008c.055-.05.11-.099.164-.153 1.191-1.23 1.203-3.21.025-4.426-1.177-1.214-3.098-1.203-4.29.027-.052.055-.1.112-.148.169l-.059-.062-4.676 4.825zM14.705 107.032c-1.177-1.214-3.098-1.203-4.29.027-.053.054-.1.111-.148.168l-.06-.06-4.675 4.824.06.061c-1.04 1.236-1.004 3.096.121 4.257 1.126 1.16 2.929 1.198 4.126.126l.009.008 4.676-4.824-.009-.008c.056-.05.112-.099.165-.153 1.191-1.23 1.203-3.211.025-4.426M109.094 49.674L72.866 38.075 48.52 63.192a3.219 3.219 0 0 1 0 4.452l-6.369 6.57.06.06c-1.04 1.236-1.003 3.096.122 4.257 1.126 1.161 2.928 1.198 4.126.126l.008.009 20.389-21.034a2.986 2.986 0 0 1 4.315 0 3.218 3.218 0 0 1 0 4.452l-9.288 9.583.059.06c-1.039 1.236-1.003 3.095.123 4.257 1.126 1.16 2.928 1.198 4.126.127l.007.007 4.676-4.823a2.986 2.986 0 0 1 4.315 0 3.218 3.218 0 0 1 0 4.452l-8.084 8.34.06.061c-1.04 1.236-1.004 3.095.122 4.257 1.126 1.161 2.928 1.199 4.126.126l.008.008 37.673-38.865z"/>
            <path fill="#523D93" d="M61.622.702L32.167 31.088l.06.061c-1.04 1.236-1.004 3.096.122 4.258 1.125 1.16 2.928 1.197 4.126.126l.008.008 3.17-3.27a2.987 2.987 0 0 1 4.315 0 3.22 3.22 0 0 1 0 4.452l-21.48 22.159.06.06c-1.04 1.237-1.003 3.096.122 4.257 1.126 1.161 2.929 1.199 4.126.127l.008.008 13.97-14.41a2.986 2.986 0 0 1 4.315 0 3.218 3.218 0 0 1 0 4.451l-7.776 8.021.06.062c-1.04 1.235-1.004 3.095.121 4.256 1.126 1.16 2.93 1.199 4.127.126l.008.008 2.575-2.656a2.987 2.987 0 0 1 4.316 0l24.346-25.116L61.622.702z"/>
            <path fill="#41A1FA" d="M61.612.778l36.228 11.6 11.254 37.296-36.228-11.599z"/>
            <path fill="#523D93" d="M71.102 39.895l1.764-1.82-.818-2.7 36.23 11.599.816 2.7-1.764 1.82z"/>
        </g>
    </g>
</svg>
