<svg xmlns="http://www.w3.org/2000/svg" xmlns:xlink="http://www.w3.org/1999/xlink" width="366" height="396" viewBox="0 0 366 396">
    <defs>
        <path id="a" d="M0 0h16.704v5.91H0z"/>
        <path id="c" d="M0 .246h16.704v5.91H0z"/>
    </defs>
    <g fill="none" fill-rule="evenodd">
        <text fill="#4A4A4A" font-family="PTSans-Regular, PT Sans" font-size="17" letter-spacing=".094" transform="translate(-1 19)">
            <tspan x=".151" y="100">Packaging of</tspan> <tspan x="15.419" y="130">the code</tspan>
        </text>
        <g stroke="#000" stroke-linecap="round" stroke-linejoin="round" stroke-width="2">
            <path d="M44.67 19.135L15.134 33.28 44.91 46.916 74.443 32.77z"/>
            <path d="M45.197 83.865L74.73 69.72l-.288-36.95L44.91 46.916zM15.423 70.23l29.774 13.635-.288-36.95L15.135 33.28z"/>
        </g>
        <text fill="#4A4A4A" font-family="PTSans-Regular, PT Sans" font-size="17" letter-spacing=".094" transform="translate(0 251)">
            <tspan x=".255" y="107">Shipment of</tspan> <tspan x="13.419" y="137">the code</tspan>
        </text>
        <path stroke="#000" stroke-linecap="round" stroke-linejoin="round" stroke-width="2" d="M46.37 281.602l24.002-24.101"/>
        <path fill="#000" d="M64.558 254.305l8.995 9.034 3.292-12.34z"/>
        <path stroke="#000" stroke-linecap="round" stroke-linejoin="round" stroke-width="2" d="M12.135 287.708l24.002-24.102"/>
        <path fill="#000" d="M39.318 269.445l3.292-12.34-12.287 3.306z"/>
        <path stroke="#000" stroke-linecap="round" stroke-linejoin="round" stroke-width="2" d="M40.488 316l24.002-24.102"/>
        <path fill="#000" d="M67.672 297.737l3.291-12.34-12.287 3.306z"/>
        <g>
            <text fill="#4A4A4A" font-family="PTSans-Regular, PT Sans" font-size="17" letter-spacing=".094" transform="translate(258 253)">
                <tspan x="4.219" y="105">Fluid, agile &amp;</tspan> <tspan x="39.924" y="135">fast</tspan>
            </text>
            <g stroke="#000" stroke-linecap="round" stroke-linejoin="round" stroke-width="2">
                <path d="M295.423 295.548a18.865 18.865 0 0 1-3.237-10.596c0-10.467 8.485-18.952 18.952-18.952 10.467 0 18.951 8.485 18.951 18.952 0 10.467-8.484 18.951-18.951 18.951H258M291 311a32.224 32.224 0 0 0 19.62 6.622h54.055"/>
                <path d="M336.386 305.896a32.23 32.23 0 0 0 7.344-20.53c0-17.876-14.49-32.366-32.365-32.366S279 267.49 279 285.365c0 3.95.708 7.736 2.003 11.235"/>
            </g>
        </g>
        <g>
            <text fill="#4A4A4A" font-family="PTSans-Regular, PT Sans" font-size="17" letter-spacing=".094" transform="translate(262)">
                <tspan x="13.451" y="119">Devops in</tspan> <tspan x="7.429" y="149">morse code</tspan>
            </text>
            <path fill="#000" d="M303.626 10.88c-1.612 0-2.92 1.332-2.92 2.975 0 .073.006.144.012.216h-.082v10.753h.082c.108 1.542 1.367 2.76 2.908 2.76s2.8-1.218 2.909-2.76h.01V14.071h-.01c.005-.072.01-.143.01-.216 0-1.643-1.307-2.975-2.919-2.975"/>
            <g transform="rotate(-90 163 -100)">
                <mask id="b" fill="#fff">
                    <use xlink:href="#a"/>
                </mask>
                <path fill="#000" d="M16.704 2.99c0-1.613-1.332-2.92-2.975-2.92-.073 0-.144.006-.215.011V0H2.76v.081C1.218.19 0 1.449 0 2.99c0 1.54 1.218 2.8 2.76 2.909v.01h10.754V5.9c.071.004.142.01.215.01 1.643 0 2.975-1.307 2.975-2.92" mask="url(#b)"/>
            </g>
            <path fill="#000" d="M360.045 33.391a2.965 2.965 0 0 0-2.954 2.976 2.965 2.965 0 0 0 2.954 2.975A2.965 2.965 0 0 0 363 36.367a2.965 2.965 0 0 0-2.955-2.976M360.045 45.22a2.965 2.965 0 0 0-2.954 2.976 2.965 2.965 0 0 0 2.954 2.975A2.965 2.965 0 0 0 363 48.196a2.965 2.965 0 0 0-2.955-2.975M360.045 57.05a2.965 2.965 0 0 0-2.954 2.975A2.965 2.965 0 0 0 360.045 63 2.965 2.965 0 0 0 363 60.025a2.965 2.965 0 0 0-2.955-2.975M285.773 57.05a2.965 2.965 0 0 0-2.955 2.975A2.965 2.965 0 0 0 285.773 63a2.965 2.965 0 0 0 2.954-2.975 2.965 2.965 0 0 0-2.954-2.975M303.59 33.391a2.965 2.965 0 0 0-2.954 2.976 2.965 2.965 0 0 0 2.955 2.975 2.965 2.965 0 0 0 2.954-2.975 2.965 2.965 0 0 0-2.954-2.976M303.59 45.22a2.965 2.965 0 0 0-2.954 2.976 2.965 2.965 0 0 0 2.955 2.975 2.965 2.965 0 0 0 2.954-2.975 2.965 2.965 0 0 0-2.954-2.975M303.59 57.05a2.965 2.965 0 0 0-2.954 2.975A2.965 2.965 0 0 0 303.591 63a2.965 2.965 0 0 0 2.954-2.975 2.965 2.965 0 0 0-2.954-2.975M265.955 23.068A2.965 2.965 0 0 0 263 26.043a2.965 2.965 0 0 0 2.955 2.975 2.965 2.965 0 0 0 2.954-2.975 2.965 2.965 0 0 0-2.954-2.975M265.955 34.897A2.965 2.965 0 0 0 263 37.872a2.965 2.965 0 0 0 2.955 2.975 2.965 2.965 0 0 0 2.954-2.975 2.965 2.965 0 0 0-2.954-2.975M342.227.27a2.965 2.965 0 0 0-2.954 2.975 2.965 2.965 0 0 0 2.954 2.975 2.965 2.965 0 0 0 2.955-2.975A2.965 2.965 0 0 0 342.227.27M342.227 57.05a2.965 2.965 0 0 0-2.954 2.975A2.965 2.965 0 0 0 342.227 63a2.965 2.965 0 0 0 2.955-2.975 2.965 2.965 0 0 0-2.955-2.975M339.201 26.007h.082c.108 1.542 1.367 2.76 2.908 2.76s2.8-1.218 2.909-2.76h.01V15.253h-.01c.005-.071.01-.142.01-.215 0-1.643-1.307-2.975-2.919-2.975s-2.919 1.332-2.919 2.975c0 .073.006.144.01.215h-.08v10.754zM339.201 48.482h.082c.108 1.543 1.367 2.76 2.908 2.76s2.8-1.217 2.909-2.76h.01V37.73h-.01c.005-.072.01-.143.01-.215 0-1.644-1.307-2.976-2.919-2.976s-2.919 1.332-2.919 2.976c0 .072.006.143.01.215h-.08v10.753zM323.444 1.345c-1.612 0-2.919 1.332-2.919 2.975 0 .073.005.144.01.215h-.08V15.29h.08c.11 1.543 1.368 2.76 2.91 2.76 1.54 0 2.8-1.217 2.908-2.76h.01V4.535h-.01c.005-.07.01-.142.01-.215 0-1.643-1.306-2.975-2.919-2.975M323.444 23.82c-1.612 0-2.919 1.332-2.919 2.976 0 .072.005.144.01.215h-.08v10.753h.08c.11 1.543 1.368 2.76 2.91 2.76 1.54 0 2.8-1.217 2.908-2.76h.01V27.011h-.01c.005-.071.01-.143.01-.215 0-1.644-1.306-2.976-2.919-2.976"/>
            <g transform="matrix(0 -1 1 0 320.208 63)">
                <mask id="d" fill="#fff">
                    <use xlink:href="#c"/>
                </mask>
                <path fill="#000" d="M16.704 3.236c0-1.612-1.332-2.92-2.975-2.92-.073 0-.144.006-.215.011v-.08H2.76v.08C1.218.436 0 1.695 0 3.236c0 1.541 1.218 2.8 2.76 2.908v.011h10.754v-.01c.071.005.142.01.215.01 1.643 0 2.975-1.307 2.975-2.919" mask="url(#d)"/>
            </g>
            <text fill="#4A4A4A" font-family="PTSans-Regular, PT Sans" font-size="12" letter-spacing="12" transform="translate(262)">
                <tspan x="0" y="79">DEVOP</tspan> <tspan x="95.7" y="79">S</tspan>
            </text>
        </g>
    </g>
</svg>
