<svg xmlns="http://www.w3.org/2000/svg" xmlns:xlink="http://www.w3.org/1999/xlink" width="120" height="120" viewBox="0 0 120 120">
    <defs>
        <path id="a" d="M33.08 14.185c-3.91 0-7.08-3.176-7.08-7.093C26 3.176 29.17 0 33.08 0s7.081 3.176 7.081 7.092c0 3.917-3.17 7.093-7.08 7.093zM112.92 120c-3.91 0-7.081-3.175-7.081-7.092 0-3.918 3.17-7.093 7.08-7.093S120 108.99 120 112.908c0 3.917-3.17 7.092-7.08 7.092zM7.08 112.534c-3.91 0-7.08-3.174-7.08-7.092 0-3.918 3.17-7.093 7.08-7.093s7.081 3.175 7.081 7.093-3.17 7.092-7.08 7.092zM68.946 23.04c23.668 0 42.857 21.683 42.857 48.433 0 26.748-19.189 48.433-42.857 48.433H26.088V23.039h42.857zm23.49 73.43c5.044-6.943 7.938-16.039 7.938-24.958 0-16.818-12.321-35.557-30-35.557H59.41v-3.852l-13.322 8.696L59.41 49.49v-3.85h10.963c8.757 0 21.429 9.212 21.429 25.87 0 13.235-8.612 27.406-21.429 27.406H38.945c-2.367 0-4.286 2.167-4.286 4.844 0 2.675 1.919 4.843 4.286 4.843h31.428c8.539 0 16.375-4.31 22.062-12.136z"/>
    </defs>
    <g fill="none" fill-rule="evenodd">
        <mask id="b" fill="#fff">
            <use xlink:href="#a"/>
        </mask>
        <use fill="#EA1C49" xlink:href="#a"/>
        <g fill="#EA1C49" mask="url(#b)">
            <path d="M0 0h120v120H0z"/>
        </g>
    </g>
</svg>
