<svg id="Layer_1" xmlns="http://www.w3.org/2000/svg" viewBox="0 0 1384 677"><style>.st0{fill:#fff}.st1{fill:#414042}.st2{fill:url(#XMLID_2_)}.st3{stroke:#6d6e70;stroke-width:7;stroke-miterlimit:10}.st3,.st4{fill:none}.st5{fill:#4d4d4d}.st6{font-family:&apos;Raleway-Medium&apos;}.st7{font-size:17.5275px}</style><path class="st0" d="M0 0h1384v677H0z"/><ellipse id="XMLID_2468_" class="st1" cx="635.3" cy="287.6" rx="15.8" ry="15.8"/><linearGradient id="XMLID_2_" gradientUnits="userSpaceOnUse" x1="936.455" y1="365.66" x2="1095.142" y2="206.973"><stop offset=".134" stop-color="#f05844"/><stop offset="1" stop-color="#603d97"/></linearGradient><path id="XMLID_2440_" class="st2" d="M1025.8 309.4c6.2 6.2 6.2 16.3 0 22.5-3.1 3.1-7.3 4.7-11.4 4.6h-6c-2.9 0-6 1.7-7.7 3.4-1.6 1.6-3.3 4.4-3.4 7.7v4.5c.4 4.6-1 9.3-4.5 12.8-6.2 6.2-16.3 6.2-22.5 0-6.2-6.2-6.2-16.3 0-22.5 3.5-3.5 8.2-5 12.8-4.5h4.5c3.4 0 6.1-1.7 7.8-3.4 1.7-1.7 3.2-4.6 3.4-7.8v-6c0-4.1 1.5-8.2 4.6-11.4 6.1-6.1 16.2-6.1 22.4.1zm-61.7 5.2c.1-3.3 1.8-6.2 3.4-7.7 1.7-1.7 4.8-3.4 7.7-3.4h4.3c4.7.5 9.5-.9 13.1-4.5 6.2-6.2 6.2-16.3 0-22.5-3.2-3.2-7.4-4.7-11.5-4.6h-5.8c-3.2-.1-6.1-1.7-7.8-3.4-1.7-1.7-3.3-4.4-3.4-7.8v-4.5c.4-4.6-1-9.3-4.5-12.8-6.2-6.2-16.3-6.2-22.5 0-6.2 6.2-6.2 16.3 0 22.5 3.5 3.5 8.2 5 12.8 4.5h4.5c3.3.1 6.2 1.8 7.7 3.4 1.7 1.7 3.4 4.8 3.4 7.7v12.1c-.1 3.2-1.7 6.1-3.4 7.8-1.7 1.7-4.4 3.3-7.8 3.4h-6.1c-4.1 0-8.1 1.6-11.2 4.7-6.2 6.2-6.2 16.3 0 22.5 6.2 6.2 16.3 6.2 22.5 0 3.4-3.4 4.9-8 4.6-12.4v-5zm116.6-9.8h-6.1c-3.2-.1-6.1-1.7-7.8-3.4-1.7-1.7-3.3-4.4-3.4-7.8V289c.1-1 .1-2.1 0-3.1v-4.3c.1-3.3 1.8-6.2 3.4-7.7 1.7-1.7 4.8-3.4 7.7-3.4h6.1c4.1 0 8.2-1.5 11.3-4.7 6.2-6.2 6.2-16.3 0-22.5-6.2-6.2-16.3-6.2-22.5 0-3.1 3.1-4.7 7.2-4.7 11.3v6.1c-.1 3.2-1.7 6.1-3.4 7.8-1.7 1.7-4.3 3.3-7.8 3.4h-4.3c-4.6-.5-9.4 1-12.9 4.5-6.2 6.2-6.2 16.3 0 22.5 3.6 3.6 8.4 5 13.1 4.5h4.2c3.3.1 6.2 1.8 7.7 3.4 1.7 1.7 3.4 4.8 3.4 7.7v5.7c-.1 4.2 1.4 8.5 4.6 11.7 6.2 6.2 16.3 6.2 22.5 0 6.2-6.2 6.2-16.3 0-22.5-2.9-3.1-7-4.7-11.1-4.6zm-44.4 37.8c-6.2 6.2-6.2 16.3 0 22.5 6.2 6.2 16.3 6.2 22.5 0 6.2-6.2 6.2-16.3 0-22.5-6.2-6.2-16.2-6.2-22.5 0zm-43.7-110c6.2-6.2 6.2-16.3 0-22.5-6.2-6.2-16.3-6.2-22.5 0-6.2 6.2-6.2 16.3 0 22.5 6.2 6.3 16.3 6.3 22.5 0zm33.1 33.1c3.5-3.5 5-8.3 4.5-12.9v-4.4c.1-3.3 1.8-6.2 3.4-7.7 1.7-1.7 4.8-3.4 7.7-3.4h5.7c4.2.1 8.5-1.4 11.7-4.6 6.2-6.2 6.2-16.3 0-22.5-6.2-6.2-16.3-6.2-22.5 0-3.1 3.1-4.7 7.2-4.7 11.3v6.1c-.1 3.2-1.7 6.1-3.4 7.8-1.7 1.7-4.4 3.3-7.8 3.4h-5c-4.4-.3-8.9 1.2-12.3 4.6-6.2 6.2-6.2 16.3 0 22.5 6.4 6 16.5 6 22.7-.2z"/><path class="st3" d="M479.8 272.4V304m0-32.7v31.6m15.7-14.7H464m351.4-7.1h-31.5m31.5 13.1h-31.5"/><g id="XMLID_2435_"><path id="XMLID_13_" class="st4" d="M232.9 413.6h174.4v24H232.9z"/><text transform="matrix(.9997 0 0 1 271.72 426.4)" class="st5 st6 st7">Work style</text></g><g id="XMLID_2431_"><path id="XMLID_12_" class="st4" d="M548.1 413.6h174.4v24H548.1z"/><text transform="matrix(.9997 0 0 1 588.29 426.4)" class="st5 st6 st7">Induvidual</text></g><g id="XMLID_2427_"><path id="XMLID_11_" class="st4" d="M877.9 413.6h273.2v57.9H877.9z"/><text transform="matrix(.9997 0 0 1 882.224 426.4)"><tspan x="0" y="0" class="st5 st6 st7">Collaboration of induaviduals </tspan><tspan x="47.6" y="30.7" class="st5 st6 st7">for a common goal</tspan></text></g><path id="XMLID_2425_" class="st1" d="M324.2 304.8h-6.1c-3.2-.1-6.1-1.7-7.8-3.4-1.7-1.7-3.3-4.4-3.4-7.8V289c.1-1 .1-2.1 0-3.1v-4.3c.1-3.3 1.8-6.2 3.4-7.7 1.7-1.7 4.8-3.4 7.7-3.4h6.1c4.1 0 8.2-1.5 11.3-4.7 6.2-6.2 6.2-16.3 0-22.5-6.2-6.2-16.3-6.2-22.5 0-3.1 3.1-4.7 7.2-4.7 11.3v6.1c-.1 3.2-1.7 6.1-3.4 7.8-1.7 1.7-4.3 3.3-7.8 3.4h-4.3c-4.6-.5-9.4 1-12.9 4.5-6.2 6.2-6.2 16.3 0 22.5 3.6 3.6 8.4 5 13.1 4.5h4.2c3.3.1 6.2 1.8 7.7 3.4 1.7 1.7 3.4 4.8 3.4 7.7v5.7c-.1 4.2 1.4 8.5 4.6 11.7 6.2 6.2 16.3 6.2 22.5 0 6.2-6.2 6.2-16.3 0-22.5-2.9-3.1-7-4.6-11.1-4.6z"/></svg>