<svg id="Layer_1" xmlns="http://www.w3.org/2000/svg" xmlns:xlink="http://www.w3.org/1999/xlink" viewBox="0 0 542 327"><style>.st0{clip-path:url(#SVGID_2_)}.st1{fill:#371c5a}.st2{fill:#603c96}.st3{fill:url(#XMLID_2_)}</style><defs><path id="SVGID_1_" d="M0 0h542v327H0z"/></defs><clipPath id="SVGID_2_"><use xlink:href="#SVGID_1_" overflow="visible"/></clipPath><g id="XMLID_2355_" class="st0"><path id="XMLID_2388_" class="st1" d="M-8.4-11.3h558.9v344.8H-8.4z"/><g id="XMLID_2356_"><g id="XMLID_2365_"><g id="XMLID_2366_"><path id="XMLID_2386_" class="st2" d="M178.8 175.4h-2.9c-2.5 0-4.6-2-4.6-4.5v-8.7h-12.2v8.7c0 2.5-2.1 4.5-4.6 4.5h-2.9c-.5 0-.9-.4-.9-.9v-29.9c0-.5.4-.9.9-.9h2.9c2.5 0 4.6 2 4.6 4.5v7.8h12.2v-7.8c0-2.5 2.1-4.5 4.6-4.5h2.9c.5 0 .9.4.9.9v29.9c0 .5-.4.9-.9.9z"/><path id="XMLID_2383_" class="st2" d="M218.5 175.4h-4.4c-1.9 0-3.6-1.2-4.3-2.9l-1-2.6h-11.7l-1.1 2.7c-.7 1.7-2.4 2.8-4.3 2.8h-4.4c-.7 0-1.1-.7-.9-1.3l11.8-29.9c.1-.4.5-.6.9-.6h7.9c.4 0 .7.2.9.6l11.5 29.9c.2.7-.2 1.3-.9 1.3zm-12-11.8l-3.5-10.1-3.6 10.1h7.1z"/><path id="XMLID_2381_" class="st2" d="M248.6 164.9c0 5.4-2.4 8.9-7.2 10.5-1.7.6-3.5.9-5.4.9-3.8 0-7.3-1-10.6-3.1-.4-.3-.5-.8-.3-1.2l.8-1.5c1.1-2.1 3.8-3 6-1.9 1.3.6 2.6.9 3.9.9 1.1 0 2-.3 2.8-.8.9-.6 1.3-1.4 1.3-2.4 0-.9-.5-1.7-1.5-2.3-.7-.5-2-.9-3.7-1.4-2.1-.6-3.4-1-4-1.3-.9-.4-1.6-.8-2.2-1.3-1.7-1.4-2.6-3.5-2.6-6.3 0-2.9.9-5.4 2.7-7.3 2.1-2.3 4.9-3.4 8.4-3.4 3.2 0 6.4.7 9.4 2.2.5.2.7.8.4 1.3l-.8 1.6c-1 1.9-3.3 2.8-5.5 2.2-.7-.2-1.5-.3-2.2-.3-.9 0-1.7.2-2.4.7-.8.5-1.2 1.2-1.2 2.1 0 .8.5 1.6 1.6 2.2.5.3 1.9.8 4.3 1.4 3 .9 5.1 2.1 6.4 3.6 1.1 1.1 1.6 2.8 1.6 4.9z"/><path id="XMLID_2379_" class="st2" d="M284.6 175.4h-2.9c-2.5 0-4.6-2-4.6-4.5v-8.7h-12.2v8.7c0 2.5-2.1 4.5-4.6 4.5h-2.9c-.5 0-.9-.4-.9-.9v-29.9c0-.5.4-.9.9-.9h2.9c2.5 0 4.6 2 4.6 4.5v7.8H277v-7.8c0-2.5 2.1-4.5 4.6-4.5h2.9c.5 0 .9.4.9.9v29.9c.1.5-.3.9-.8.9z"/><path id="XMLID_2377_" class="st2" d="M340.4 144.9l-9.8 29.9c-.1.4-.5.6-.9.6h-4.6c-2 0-3.8-1.3-4.4-3.1l-4.9-15.3-5.2 15.3c-.6 1.8-2.4 3.1-4.4 3.1h-4.6c-.4 0-.8-.3-.9-.7l-9.1-29.9c-.2-.6.3-1.2.9-1.2h4c2.1 0 3.9 1.4 4.4 3.3l4.7 17.2 5.8-17.4c.6-1.8 2.4-3.1 4.4-3.1 2 0 3.8 1.3 4.4 3.2l5.4 17.3 5.2-17.3c.6-1.9 2.4-3.2 4.4-3.2h4.1c.9.1 1.3.7 1.1 1.3z"/><path id="XMLID_2374_" class="st2" d="M381.2 159.7c0 4.3-1.5 8.1-4.4 11.3-3.4 3.7-7.9 5.6-13.6 5.6-5.7 0-10.2-1.9-13.6-5.6-2.9-3.3-4.4-7-4.4-11.3 0-2 .4-4 1.2-6.1.8-2.1 1.9-3.8 3.2-5.3 3.4-3.7 7.9-5.6 13.6-5.6 5.7 0 10.3 1.9 13.6 5.6 3 3.3 4.4 7 4.4 11.4zm-8.7 0c0-2.2-.7-4.2-2.2-5.8-1.9-2.1-4.2-3.1-7-3.1-1.9 0-3.7.5-5.3 1.6-1.6 1.1-2.7 2.5-3.4 4.3-.4 1-.6 2-.6 3.1 0 2.1.7 4.1 2.2 5.8 1.8 2.1 4.2 3.1 7 3.1 2.9 0 5.2-1 7-3.1 1.5-1.8 2.3-3.7 2.3-5.9z"/><path id="XMLID_2371_" class="st2" d="M414.1 175.4H408c-1.6 0-3-.8-3.9-2l-6.7-10.1v7.7c0 2.5-2.1 4.5-4.6 4.5H390c-.5 0-.9-.4-.9-.9v-29.9c0-.5.4-.9.9-.9h12.2c3.8 0 6.7 1.1 8.5 3.4 1.5 1.8 2.2 3.9 2.2 6.4 0 2.8-.9 5-2.6 6.7-1.1 1.1-2.6 1.8-4.5 2.2l9.1 11.5c.5.6 0 1.4-.8 1.4zm-9.9-21.5c0-1.1-.4-2.1-1.3-2.9-.8-.7-2.1-1.1-3.8-1.1h-1.6v7.9h1.6c1.8 0 3.1-.4 3.8-1.1.9-.7 1.3-1.7 1.3-2.8z"/><path id="XMLID_2369_" class="st2" d="M450.4 175.4h-6.7c-1.4 0-2.7-.6-3.6-1.7l-9.6-12v9.3c0 2.5-2.1 4.5-4.6 4.5H423c-.5 0-.9-.4-.9-.9v-29.9c0-.5.4-.9.9-.9h2.9c2.5 0 4.6 2 4.6 4.5v8.6l8.9-11.3a4.6 4.6 0 0 1 3.6-1.7h6.1c.8 0 1.2.9.7 1.5l-11.6 13.5 12.8 15.2c.7.4.2 1.3-.6 1.3z"/><path id="XMLID_2367_" class="st2" d="M481.2 164.9c0 5.4-2.4 8.9-7.2 10.5-1.7.6-3.5.9-5.4.9-3.8 0-7.3-1-10.6-3.1-.4-.3-.5-.8-.3-1.2l.8-1.5c1.1-2.1 3.8-3 6-1.9 1.3.6 2.6.9 3.9.9 1.1 0 2-.3 2.8-.8.9-.6 1.3-1.4 1.3-2.4 0-.9-.5-1.7-1.5-2.3-.7-.5-2-.9-3.7-1.4-2.1-.6-3.4-1-4-1.3-.9-.4-1.6-.8-2.2-1.3-1.7-1.4-2.6-3.5-2.6-6.3 0-2.9.9-5.4 2.7-7.3 2.1-2.3 4.9-3.4 8.4-3.4 3.2 0 6.3.7 9.4 2.2.5.2.7.8.4 1.3l-.8 1.6c-1 1.9-3.3 2.8-5.5 2.2-.7-.2-1.5-.3-2.2-.3-.9 0-1.7.2-2.4.7-.8.5-1.2 1.2-1.2 2.1 0 .8.5 1.6 1.6 2.2.5.3 1.9.8 4.3 1.4 3 .9 5.1 2.1 6.4 3.6 1 1.1 1.6 2.8 1.6 4.9z"/></g></g><linearGradient id="XMLID_2_" gradientUnits="userSpaceOnUse" x1="67.89" y1="191.371" x2="126.708" y2="132.553"><stop offset=".134" stop-color="#f05844"/><stop offset="1" stop-color="#603d97"/></linearGradient><path id="XMLID_2357_" class="st3" d="M103.3 170.7c2.8 2.8 2.8 7.2 0 10-1.4 1.4-3.3 2.1-5.2 2.1h-2.7c-1.3 0-2.7.7-3.5 1.5-.7.7-1.5 2-1.5 3.4v2c.2 2-.5 4.1-2.1 5.7-2.8 2.8-7.4 2.8-10.2 0-2.8-2.8-2.8-7.2 0-10 1.6-1.6 3.7-2.2 5.8-2h2c1.6 0 2.8-.8 3.5-1.5.8-.7 1.5-2 1.5-3.4v-2.7c0-1.8.7-3.7 2.1-5.1 2.9-2.7 7.5-2.7 10.3 0zm-28 2.3c0-1.5.8-2.7 1.5-3.4.8-.8 2.2-1.5 3.5-1.5h2c2.1.2 4.3-.4 5.9-2 2.8-2.8 2.8-7.2 0-10-1.4-1.4-3.4-2.1-5.2-2.1h-2.6c-1.4-.1-2.8-.7-3.5-1.5-.8-.7-1.5-1.9-1.5-3.4v-2c.2-2-.5-4.1-2.1-5.7-2.8-2.8-7.4-2.8-10.2 0-2.8 2.8-2.8 7.2 0 10 1.6 1.6 3.7 2.2 5.8 2h2c1.5 0 2.8.8 3.5 1.5.8.8 1.5 2.2 1.5 3.4v5.4c-.1 1.4-.8 2.7-1.5 3.4-.8.7-2 1.5-3.5 1.5H68c-1.8 0-3.7.7-5.1 2.1-2.8 2.8-2.8 7.2 0 10s7.4 2.8 10.2 0c1.5-1.5 2.2-3.5 2.1-5.5V173zm53-4.3h-2.8c-1.4-.1-2.8-.7-3.5-1.5-.8-.7-1.5-1.9-1.5-3.4v-5.3c0-1.5.8-2.7 1.5-3.4.8-.8 2.2-1.5 3.5-1.5h2.8c1.9 0 3.7-.7 5.2-2.1 2.8-2.8 2.8-7.2 0-10s-7.4-2.8-10.2 0c-1.4 1.4-2.1 3.2-2.1 5v2.7c-.1 1.4-.8 2.7-1.5 3.4-.8.7-2 1.5-3.5 1.5h-2c-2.1-.2-4.3.4-5.9 2-2.8 2.8-2.8 7.2 0 10 1.6 1.6 3.8 2.2 5.9 2h1.9c1.5 0 2.8.8 3.5 1.5.8.8 1.5 2.2 1.5 3.4v2.5c-.1 1.9.6 3.8 2.1 5.2 2.8 2.8 7.4 2.8 10.2 0 2.8-2.8 2.8-7.2 0-10-1.4-1.4-3.2-2-5.1-2zm-20.2 16.8c-2.8 2.8-2.8 7.2 0 10s7.4 2.8 10.2 0c2.8-2.8 2.8-7.2 0-10s-7.4-2.8-10.2 0zm-19.9-48.8c2.8-2.8 2.8-7.2 0-10s-7.4-2.8-10.2 0c-2.8 2.8-2.8 7.2 0 10 2.8 2.7 7.4 2.7 10.2 0zm15.1 14.6c1.6-1.6 2.3-3.7 2-5.7v-2c0-1.5.8-2.7 1.5-3.4.8-.8 2.2-1.5 3.5-1.5h2.6c1.9.1 3.9-.6 5.3-2.1 2.8-2.8 2.8-7.2 0-10s-7.4-2.8-10.2 0c-1.4 1.4-2.1 3.2-2.1 5v2.7c-.1 1.4-.8 2.7-1.5 3.4-.8.7-2 1.5-3.5 1.5h-2.3c-2-.1-4.1.5-5.6 2-2.8 2.8-2.8 7.2 0 10 2.9 2.9 7.5 2.9 10.3.1z"/></g></g></svg>