<svg id="Layer_1" xmlns="http://www.w3.org/2000/svg" viewBox="0 0 155 155"><style>.st0{opacity:.5}.st1{fill:none;stroke:#f1f1f2;stroke-miterlimit:10}.st2{fill:#fff}</style><g class="st0"><g id="XMLID_1453_"><ellipse id="XMLID_1524_" class="st1" cx="73.4" cy="21" rx="12" ry="12"/><ellipse id="XMLID_1462_" class="st1" cx="81.4" cy="21" rx="12" ry="12"/></g><ellipse id="XMLID_1449_" class="st1" cx="73.4" cy="81.3" rx="12" ry="12"/><ellipse id="XMLID_1448_" class="st1" cx="81.4" cy="81.3" rx="12" ry="12"/><g id="XMLID_1405_"><ellipse id="XMLID_1426_" class="st1" cx="81.4" cy="133.8" rx="12" ry="12"/><ellipse id="XMLID_1425_" class="st1" cx="73.4" cy="133.8" rx="12" ry="12"/></g><ellipse id="XMLID_1393_" class="st1" cx="81.4" cy="73.5" rx="12" ry="12"/><ellipse id="XMLID_1391_" class="st1" cx="73.4" cy="73.5" rx="12" ry="12"/><ellipse id="XMLID_1389_" class="st1" cx="133.7" cy="81.3" rx="12" ry="12"/><ellipse id="XMLID_1366_" class="st1" cx="133.7" cy="73.5" rx="12" ry="12"/><ellipse id="XMLID_1365_" class="st1" cx="51.3" cy="111.5" rx="12" ry="12"/><ellipse id="XMLID_1347_" class="st1" cx="51.3" cy="103.8" rx="12" ry="12"/><ellipse id="XMLID_1342_" class="st1" cx="43.3" cy="103.8" rx="12" ry="12"/><ellipse id="XMLID_1237_" class="st1" cx="103.6" cy="111.5" rx="12" ry="12"/><ellipse id="XMLID_1229_" class="st1" cx="111.6" cy="103.8" rx="12" ry="12"/><ellipse id="XMLID_1220_" class="st1" cx="103.6" cy="103.8" rx="12" ry="12"/><ellipse id="XMLID_1215_" class="st1" cx="43.3" cy="50.7" rx="12" ry="12"/><ellipse id="XMLID_1208_" class="st1" cx="51.3" cy="50.7" rx="12" ry="12"/><ellipse id="XMLID_1206_" class="st1" cx="51.3" cy="42.9" rx="12" ry="12"/><ellipse id="XMLID_1199_" class="st1" cx="103.6" cy="50.7" rx="12" ry="12"/><ellipse id="XMLID_1161_" class="st1" cx="111.6" cy="50.7" rx="12" ry="12"/><ellipse id="XMLID_1144_" class="st1" cx="103.6" cy="42.9" rx="12" ry="12"/><ellipse id="XMLID_1126_" class="st1" cx="20.9" cy="81.3" rx="12" ry="12"/><ellipse id="XMLID_1124_" class="st1" cx="20.9" cy="73.5" rx="12" ry="12"/></g><path id="XMLID_652_" class="st2" d="M87.8 97.4c5.7 5.7 5.7 14.9 0 20.6-2.9 2.9-6.6 4.3-10.4 4.2h-5.5c-2.6 0-5.5 1.5-7.1 3.1-1.4 1.4-3 4.1-3.1 7.1v4.1c.4 4.2-.9 8.5-4.1 11.7-5.7 5.7-14.9 5.7-20.6 0-5.7-5.7-5.7-14.9 0-20.6 3.2-3.2 7.5-4.5 11.7-4.1h4.1c3.1 0 5.6-1.6 7.1-3.1s3-4.2 3.1-7.1v-5.5c0-3.8 1.4-7.5 4.2-10.4 5.7-5.7 15-5.7 20.6 0zm-56.3 4.7c.1-3 1.7-5.6 3.1-7.1 1.6-1.6 4.4-3.1 7.1-3.1h3.9c4.2.5 8.7-.8 11.9-4.1 5.7-5.7 5.7-14.9 0-20.6C54.6 64.4 50.8 63 47 63h-5.3c-2.9-.1-5.6-1.5-7.1-3.1-1.5-1.5-3-4-3.1-7.1v-4.1c.4-4.2-.9-8.5-4.1-11.7-5.7-5.7-14.9-5.7-20.6 0-5.7 5.7-5.7 14.9 0 20.6 3.2 3.2 7.5 4.5 11.7 4.1h4.1c3 .1 5.6 1.7 7.1 3.1 1.6 1.6 3.1 4.4 3.1 7.1V83c-.1 2.9-1.5 5.6-3.1 7.1-1.5 1.5-4 3-7.1 3.1H17c-3.7 0-7.4 1.4-10.2 4.3-5.7 5.7-5.7 14.9 0 20.6 5.7 5.7 14.9 5.7 20.6 0 3.1-3.1 4.5-7.3 4.2-11.3v-4.7zm106.4-9h-5.6c-2.9-.1-5.6-1.5-7.1-3.1-1.5-1.5-3-4-3.1-7.1v-4.2c.1-.9.1-1.9 0-2.8V72c.1-3 1.7-5.6 3.1-7.1 1.6-1.6 4.4-3.1 7.1-3.1h5.6c3.7 0 7.5-1.4 10.4-4.2 5.7-5.7 5.7-14.9 0-20.6-5.7-5.7-14.9-5.7-20.6 0-2.9 2.9-4.3 6.6-4.2 10.4V53c-.1 2.9-1.5 5.6-3.1 7.1-1.5 1.5-4 3-7.1 3.1h-3.9c-4.2-.4-8.6.9-11.8 4.1-5.7 5.7-5.7 14.9 0 20.6 3.3 3.3 7.7 4.6 11.9 4.1h3.9c3 .1 5.6 1.7 7.1 3.1 1.6 1.6 3.1 4.4 3.1 7.1v5.2c-.1 3.9 1.3 7.7 4.2 10.7 5.7 5.7 14.9 5.7 20.6 0 5.7-5.7 5.7-14.9 0-20.6-3-3-6.8-4.4-10.5-4.4zm-40.5 34.6c-5.7 5.7-5.7 14.9 0 20.6 5.7 5.7 14.9 5.7 20.6 0 5.7-5.7 5.7-14.9 0-20.6-5.7-5.7-14.9-5.7-20.6 0zM57.5 27.3c5.7-5.7 5.7-14.9 0-20.6S42.6 1.1 37 6.8s-5.7 14.9 0 20.6c5.6 5.6 14.8 5.6 20.5-.1zm30.2 30.2c3.2-3.2 4.5-7.6 4.1-11.8v-4c.1-3 1.7-5.6 3.1-7.1 1.6-1.6 4.4-3.1 7.1-3.1h5.2c3.9.1 7.7-1.3 10.7-4.2 5.7-5.7 5.7-14.9 0-20.6C112.2 1 103 1 97.3 6.7 94.5 9.5 93 13.3 93 17v5.6c-.1 2.9-1.5 5.6-3.1 7.1-1.5 1.5-4 3-7.1 3.1h-4.5c-4-.3-8.1 1.1-11.2 4.2-5.7 5.7-5.7 14.9 0 20.6 5.8 5.6 15 5.6 20.6-.1z"/></svg>