<?xml version="1.0" encoding="utf-8"?>
<!-- Generator: Adobe Illustrator 21.1.0, SVG Export Plug-In . SVG Version: 6.00 Build 0)  -->
<svg version="1.1" id="Layer_1" xmlns="http://www.w3.org/2000/svg" xmlns:xlink="http://www.w3.org/1999/xlink" x="0px" y="0px"
	 viewBox="0 0 22.2 14" style="enable-background:new 0 0 22.2 14;" xml:space="preserve">
<style type="text/css">
	.st0{fill:#F15379;}
</style>
<g>
	<g>
		<g id="XMLID_9_">
			<path class="st0" d="M-77,14h-9.1c-1.3,0-2.4-1.1-2.4-2.4V2.4c0-1.4,1.1-2.4,2.4-2.4h9.1c1.3,0,2.4,1.1,2.4,2.4v9.1
				C-74.6,12.9-75.7,14-77,14z M-86.1,0.6c-1,0-1.9,0.8-1.9,1.9v9.1c0,1,0.8,1.9,1.9,1.9h9.1c1,0,1.9-0.8,1.9-1.9V2.4
				c0-1-0.8-1.9-1.9-1.9H-86.1z"/>
		</g>
		<g id="XMLID_8_">
			<path class="st0" d="M-80.2,10.3h-2.6c-1,0-1.9-0.8-1.9-1.9V5.7c0-1,0.8-1.9,1.9-1.9h2.6c1,0,1.9,0.8,1.9,1.9v2.7
				C-78.3,9.4-79.2,10.3-80.2,10.3z M-82.8,4.3c-0.8,0-1.3,0.6-1.3,1.3v2.7c0,0.8,0.6,1.3,1.3,1.3h2.6c0.8,0,1.3-0.6,1.3-1.3V5.7
				c0-0.8-0.6-1.3-1.3-1.3L-82.8,4.3L-82.8,4.3z"/>
		</g>
		<g id="XMLID_7_">
			<path class="st0" d="M-80.2,10.3h-2.6c-1,0-1.9-0.8-1.9-1.9V5.7c0-1,0.8-1.9,1.9-1.9h2.6c1,0,1.9,0.8,1.9,1.9v2.7
				C-78.3,9.4-79.2,10.3-80.2,10.3z M-82.8,4.3c-0.8,0-1.3,0.6-1.3,1.3v2.7c0,0.8,0.6,1.3,1.3,1.3h2.6c0.8,0,1.3-0.6,1.3-1.3V5.7
				c0-0.8-0.6-1.3-1.3-1.3L-82.8,4.3L-82.8,4.3z"/>
		</g>
		<g id="XMLID_6_">
			<path class="st0" d="M-77.4,3.8c-0.5,0-0.8-0.4-0.8-0.8s0.4-0.8,0.8-0.8s0.8,0.4,0.8,0.8S-76.9,3.8-77.4,3.8z M-77.4,2.6
				c-0.1,0-0.3,0.1-0.3,0.3c0,0.1,0.1,0.3,0.3,0.3c0.2,0,0.3-0.1,0.3-0.3C-77.1,2.8-77.3,2.6-77.4,2.6z"/>
		</g>
	</g>
</g>
<g id="Behance_1_">
	<path class="st0" d="M6.3,14H0V0h6.8c1.7,0,3,0.6,3.7,1.6c0.5,0.6,0.7,1.3,0.7,2.2S11,5.4,10.5,5.9c-0.1,0.2-0.4,0.4-0.6,0.6
		c0.5,0.2,0.8,0.6,1.2,1.1c0.4,0.6,0.6,1.3,0.6,2.1c0,0.8-0.2,1.6-0.6,2.3c-0.2,0.5-0.6,0.8-1,1.1c-0.5,0.3-1,0.6-1.6,0.7
		C7.7,13.9,7,14,6.3,14z M0.6,13.4h5.8c0.6,0,1.3-0.1,1.9-0.1c0.6-0.1,1-0.3,1.4-0.6c0.3-0.2,0.6-0.6,0.8-1c0.4-0.6,0.6-1.3,0.6-2.1
		c0-0.7-0.1-1.3-0.5-1.8l0,0C10.2,7.3,9.8,7,9.1,6.7L8.5,6.6l0.6-0.3C9.5,6,9.8,5.8,10,5.6c0.4-0.5,0.6-1,0.6-1.8
		c0-0.7-0.1-1.4-0.6-1.9C9.4,1,8.3,0.6,6.8,0.6H0.5L0.6,13.4L0.6,13.4L0.6,13.4z M17.2,13.9c-1.3,0-2.5-0.4-3.6-1.3
		c-1-0.8-1.6-2.2-1.6-4.1c0-1.7,0.5-3.1,1.4-4.1s2.2-1.4,3.7-1.4c0.8,0,1.6,0.1,2.3,0.5c0.7,0.3,1.3,0.8,1.8,1.5
		c0.4,0.6,0.7,1.3,0.8,2.1l0,0c0.1,0.5,0.1,1.1,0.1,2v0.2h-7c0.1,0.7,0.4,1.3,0.8,1.5c0.3,0.2,0.8,0.3,1.3,0.3
		c0.6,0,0.9-0.1,1.3-0.4c0.1-0.1,0.3-0.3,0.5-0.6l0.1-0.1h3v0.3c-0.1,0.6-0.4,1.3-1,1.9C20.1,13.4,18.9,13.9,17.2,13.9z M17.1,3.7
		c-1.3,0-2.4,0.4-3.3,1.3S12.6,7,12.6,8.6c0,1.7,0.5,2.9,1.4,3.7s2.1,1.1,3.2,1.1c1.5,0,2.6-0.5,3.5-1.3c0.4-0.5,0.7-0.8,0.8-1.3
		h-2.1c-0.1,0.2-0.3,0.5-0.5,0.6c-0.4,0.3-0.9,0.5-1.6,0.5c-0.6,0-1.1-0.1-1.6-0.4c-0.7-0.5-1.1-1.2-1.2-2.3V8.9h7
		c0-0.7,0-1.2-0.1-1.6c-0.1-0.7-0.4-1.3-0.7-1.9c-0.4-0.6-0.9-1-1.6-1.3C18.6,3.8,17.9,3.7,17.1,3.7z M6.2,11.7H3.1V7.5h3.1
		c0.6,0,1.1,0.1,1.5,0.2c0.6,0.3,1,0.8,1,1.7c0,0.9-0.3,1.6-1,2C7.4,11.6,6.8,11.7,6.2,11.7z M3.6,11.1h2.6c0.6,0,0.9-0.1,1.3-0.2
		c0.5-0.2,0.7-0.7,0.7-1.4c0-0.6-0.2-1-0.7-1.2C7.2,8.2,6.8,8.2,6.3,8.1H3.7L3.6,11.1L3.6,11.1z M19.6,7.8h-4.9l0.1-0.3
		c0.1-0.7,0.3-1.3,0.8-1.6c0.4-0.4,1-0.6,1.7-0.6c0.6,0,1.3,0.2,1.6,0.6c0.5,0.4,0.7,0.9,0.8,1.7L19.6,7.8z M15.3,7.3h3.7
		c-0.1-0.5-0.2-0.8-0.6-1c-0.4-0.3-0.8-0.5-1.3-0.5s-1,0.1-1.3,0.5C15.6,6.5,15.4,6.9,15.3,7.3z M6.2,5.9H3.1V2.3h2.8
		c0.7,0,1.3,0.1,1.6,0.2s0.9,0.6,0.9,1.5c0,0.7-0.2,1.2-0.7,1.4C7.4,5.7,6.8,5.9,6.2,5.9z M3.6,5.3h2.6c0.6,0,0.9-0.1,1.3-0.3
		c0.3-0.1,0.4-0.5,0.4-0.9c0-0.7-0.3-0.8-0.6-1C6.9,2.9,6.4,2.9,5.7,2.9H3.5L3.6,5.3L3.6,5.3z M20.1,2.5h-5.9v-2h5.9V2.5z M14.7,2
		h4.9V1.1h-4.9V2z"/>
</g>
<g id="XMLID_5_">
	<path class="st0" d="M61.4,14c-1.7,0-3.4-0.5-4.9-1.3c-0.2-0.1-0.3-0.4-0.2-0.6c0.1-0.2,0.3-0.4,0.6-0.4h0.4c1,0,2-0.2,2.9-0.7
		c-1.1-0.4-2-1.3-2.3-2.4c-0.1-0.1,0-0.3,0.1-0.5L58,8c-0.8-0.7-1.4-1.8-1.4-2.9c0-0.1,0.1-0.3,0.2-0.4c0.1-0.1,0.2-0.1,0.3-0.1
		c-0.3-0.6-0.5-1.2-0.5-1.9c0-0.6,0.1-1.3,0.6-1.9c0.1-0.1,0.2-0.2,0.4-0.2s0.3,0.1,0.4,0.1c1.5,1.8,3.6,2.9,5.9,3.2
		c0-0.4,0-0.8,0.1-1.2c0.3-1.3,1.3-2.2,2.4-2.7c1.3-0.4,2.7-0.1,3.6,0.8c0,0,0.1,0.1,0.1,0.1c0.6-0.1,1.2-0.4,1.6-0.7
		c0.1-0.1,0.4-0.1,0.6,0c0.1,0.1,0.2,0.3,0.1,0.5c-0.1,0.3-0.2,0.6-0.4,0.8c0.1,0,0.1-0.1,0.2-0.1l0,0c0.1-0.1,0.4,0,0.6,0.1
		c0.1,0.1,0.1,0.4,0,0.6c-0.4,0.6-0.8,1.1-1.4,1.5c-0.1,0.1-0.1,0.1-0.1,0.2c0,1.2-0.2,2.4-0.6,3.5c-0.5,1.2-1.1,2.2-1.9,3.1
		c-0.8,1-2,1.8-3.1,2.3C64.4,13.7,63,14,61.4,14z M56.9,12.2c1.4,0.8,3,1.3,4.7,1.3c1.4,0,2.8-0.3,4-0.8c1.1-0.6,2.1-1.3,2.9-2.2
		c0.8-0.8,1.4-1.9,1.8-2.9s0.6-2.2,0.6-3.3c0-0.3,0.1-0.6,0.3-0.7c0.5-0.3,0.8-0.8,1.2-1.2c-0.3,0.1-0.6,0.2-0.8,0.2l-1,0.2l0.7-0.7
		c0.3-0.3,0.6-0.7,0.8-1.1c-0.5,0.2-1,0.5-1.5,0.6c-0.2,0.1-0.5,0-0.6-0.1c-0.8-0.7-2-1-3.1-0.6c-1,0.3-1.9,1.2-2.1,2.2
		c-0.1,0.4-0.1,0.8-0.1,1.2c0,0.1,0,0.2-0.1,0.3c-0.1,0.1-0.1,0.1-0.3,0.1c-2.5-0.2-4.8-1.4-6.4-3.4c-0.2,0.5-0.4,0.9-0.4,1.5
		c0,0.8,0.3,1.6,0.9,2.2l0.7,0.7l-0.9-0.2c-0.2-0.1-0.5-0.1-0.7-0.2c0.1,1.2,0.8,2.2,1.9,2.8l1.1,0.5h-1.3c-0.1,0-0.3,0-0.5,0
		c0.4,1.1,1.3,1.9,2.5,2l0.7,0.1L61,11.1c-1.1,0.8-2.4,1.2-3.7,1.2L56.9,12.2L56.9,12.2L56.9,12.2z M57.5,1.3L57.5,1.3L57.5,1.3z"/>
</g>
<g>
	<g id="XMLID_4_">
		<path class="st0" d="M-39.6,14c-3.9,0-7-3.1-7-7s3.1-7,7-7s7,3.1,7,7S-35.7,14-39.6,14z M-39.6,0.5c-3.5,0-6.4,2.9-6.4,6.4
			s2.9,6.5,6.4,6.5c3.5,0,6.4-2.9,6.4-6.4S-36,0.5-39.6,0.5z"/>
	</g>
	<g id="XMLID_3_">
		<path class="st0" d="M-37.6,13.8l-0.6-0.1c0.7-7.2-4.9-12.2-5-12.3l0.4-0.4C-42.8,1.1-36.9,6.2-37.6,13.8z"/>
	</g>
	<g id="XMLID_2_">
		<path class="st0" d="M-43.3,12.5l-0.5-0.2c0-0.1,2.9-6.1,11-5.6v0.6C-40.6,6.8-43.3,12.4-43.3,12.5z"/>
	</g>
	<g id="XMLID_1_">
		<path class="st0" d="M-45.4,6.9c-0.6,0-0.9,0-0.9,0l0.1-0.6c0.1,0,6.7,0.6,11.2-4.2l0.4,0.4C-38.3,6.4-43.3,6.9-45.4,6.9z"/>
	</g>
</g>
<g>
	<path class="st0" d="M103.1,14h-3.3V7.3h-1.3V4h1.3V3.1c0-1.5,0.8-3.1,3.1-3.1h2.4v2.8h-1.8c-0.2,0-0.3,0.1-0.3,0.3V4h2.1L105,7.3
		h-2L103.1,14L103.1,14z M100.4,13.3h2.1V6.7h2.1l0.2-2.1h-2.1V3.3c0-0.7,0.5-1,0.9-1h1.2V0.6h-1.8c-2.3,0-2.5,1.9-2.5,2.5v1.6H99
		v2.1h1.3L100.4,13.3C100.3,13.3,100.4,13.3,100.4,13.3z"/>
</g>
</svg>
