<?xml version="1.0" encoding="utf-8"?>
<!-- Generator: Adobe Illustrator 21.1.0, SVG Export Plug-In . SVG Version: 6.00 Build 0)  -->
<svg version="1.1" id="Layer_1" xmlns="http://www.w3.org/2000/svg" xmlns:xlink="http://www.w3.org/1999/xlink" x="0px" y="0px"
	 viewBox="0 0 13.9 14" style="enable-background:new 0 0 13.9 14;" xml:space="preserve">
<style type="text/css">
	.st0{fill:#F15379;}
</style>
<g>
	<g>
		<g id="XMLID_9_">
			<path class="st0" d="M11.5,14H2.4C1.1,14,0,12.9,0,11.6V2.4C0,1.1,1.1,0,2.4,0h9.1c1.3,0,2.4,1.1,2.4,2.4v9.1
				C13.9,12.9,12.8,14,11.5,14z M2.4,0.6c-1,0-1.9,0.8-1.9,1.9v9.1c0,1,0.8,1.9,1.9,1.9h9.1c1,0,1.9-0.8,1.9-1.9V2.4
				c0-1-0.8-1.9-1.9-1.9H2.4z"/>
		</g>
		<g id="XMLID_8_">
			<path class="st0" d="M8.3,10.3H5.7c-1,0-1.9-0.8-1.9-1.9V5.7c0-1,0.8-1.9,1.9-1.9h2.6c1,0,1.9,0.8,1.9,1.9v2.7
				C10.2,9.4,9.3,10.3,8.3,10.3z M5.7,4.3c-0.8,0-1.3,0.6-1.3,1.3v2.7c0,0.8,0.6,1.3,1.3,1.3h2.6c0.8,0,1.3-0.6,1.3-1.3V5.7
				c0-0.8-0.6-1.3-1.3-1.3L5.7,4.3L5.7,4.3z"/>
		</g>
		<g id="XMLID_7_">
			<path class="st0" d="M8.3,10.3H5.7c-1,0-1.9-0.8-1.9-1.9V5.7c0-1,0.8-1.9,1.9-1.9h2.6c1,0,1.9,0.8,1.9,1.9v2.7
				C10.2,9.4,9.3,10.3,8.3,10.3z M5.7,4.3c-0.8,0-1.3,0.6-1.3,1.3v2.7c0,0.8,0.6,1.3,1.3,1.3h2.6c0.8,0,1.3-0.6,1.3-1.3V5.7
				c0-0.8-0.6-1.3-1.3-1.3L5.7,4.3L5.7,4.3z"/>
		</g>
		<g id="XMLID_6_">
			<path class="st0" d="M11.1,3.8c-0.5,0-0.8-0.4-0.8-0.8s0.4-0.8,0.8-0.8c0.5,0,0.8,0.4,0.8,0.8S11.6,3.8,11.1,3.8z M11.1,2.6
				c-0.1,0-0.3,0.1-0.3,0.3c0,0.1,0.1,0.3,0.3,0.3s0.3-0.1,0.3-0.3C11.4,2.8,11.2,2.6,11.1,2.6z"/>
		</g>
	</g>
</g>
<g id="Behance_1_">
	<path class="st0" d="M94.9,14h-6.3V0h6.8c1.7,0,3,0.6,3.7,1.6c0.5,0.6,0.7,1.3,0.7,2.2S99.5,5.4,99,5.9c-0.1,0.2-0.4,0.4-0.6,0.6
		c0.5,0.2,0.8,0.6,1.2,1.1c0.4,0.6,0.6,1.3,0.6,2.1c0,0.8-0.2,1.6-0.6,2.3c-0.2,0.5-0.6,0.8-1,1.1c-0.5,0.3-1,0.6-1.6,0.7
		C96.2,13.9,95.6,14,94.9,14z M89.1,13.4h5.8c0.6,0,1.3-0.1,1.9-0.1c0.6-0.1,1-0.3,1.4-0.6c0.3-0.2,0.6-0.6,0.8-1
		c0.4-0.6,0.6-1.3,0.6-2.1c0-0.7-0.1-1.3-0.5-1.8l0,0c-0.3-0.5-0.8-0.8-1.4-1.1l-0.6-0.1l0.6-0.3C98,6,98.3,5.8,98.6,5.6
		c0.4-0.5,0.6-1,0.6-1.8c0-0.7-0.1-1.4-0.6-1.9c-0.6-0.8-1.7-1.3-3.3-1.3H89L89.1,13.4L89.1,13.4L89.1,13.4z M105.7,13.9
		c-1.3,0-2.5-0.4-3.6-1.3c-1-0.8-1.6-2.2-1.6-4.1c0-1.7,0.5-3.1,1.4-4.1s2.2-1.4,3.7-1.4c0.8,0,1.6,0.1,2.3,0.5
		c0.7,0.3,1.3,0.8,1.8,1.5c0.4,0.6,0.7,1.3,0.8,2.1l0,0c0.1,0.5,0.1,1.1,0.1,2v0.2h-7c0.1,0.7,0.4,1.3,0.8,1.5
		c0.3,0.2,0.8,0.3,1.3,0.3c0.6,0,0.9-0.1,1.3-0.4c0.1-0.1,0.3-0.3,0.5-0.6l0.1-0.1h3v0.3c-0.1,0.6-0.4,1.3-1,1.9
		C108.6,13.4,107.4,13.9,105.7,13.9z M105.6,3.7c-1.3,0-2.4,0.4-3.3,1.3s-1.3,2.1-1.3,3.7c0,1.7,0.5,2.9,1.4,3.7
		c0.9,0.8,2.1,1.1,3.2,1.1c1.5,0,2.6-0.5,3.5-1.3c0.4-0.5,0.7-0.8,0.8-1.3h-2.1c-0.1,0.2-0.3,0.5-0.5,0.6c-0.4,0.3-0.9,0.5-1.6,0.5
		c-0.6,0-1.1-0.1-1.6-0.4c-0.7-0.5-1.1-1.2-1.2-2.3V8.9h7c0-0.7,0-1.2-0.1-1.6c-0.1-0.7-0.4-1.3-0.7-1.9c-0.4-0.6-0.9-1-1.6-1.3
		C107.1,3.8,106.4,3.7,105.6,3.7z M94.7,11.7h-3.1V7.5h3.1c0.6,0,1.1,0.1,1.5,0.2c0.6,0.3,1,0.8,1,1.7c0,0.9-0.3,1.6-1,2
		C95.9,11.6,95.3,11.7,94.7,11.7z M92.1,11.1h2.6c0.6,0,0.9-0.1,1.3-0.2c0.5-0.2,0.7-0.7,0.7-1.4c0-0.6-0.2-1-0.7-1.2
		c-0.2-0.1-0.6-0.1-1.2-0.2h-2.6L92.1,11.1L92.1,11.1z M108.1,7.8h-4.9l0.1-0.3c0.1-0.7,0.3-1.3,0.8-1.6c0.4-0.4,1-0.6,1.7-0.6
		c0.6,0,1.3,0.2,1.6,0.6c0.5,0.4,0.7,0.9,0.8,1.7L108.1,7.8z M103.8,7.3h3.7c-0.1-0.5-0.2-0.8-0.6-1c-0.4-0.3-0.8-0.5-1.3-0.5
		s-1,0.1-1.3,0.5C104.1,6.5,103.9,6.9,103.8,7.3z M94.7,5.9h-3.1V2.3h2.8c0.7,0,1.3,0.1,1.6,0.2C96.4,2.7,97,3.1,97,4.1
		c0,0.7-0.2,1.2-0.7,1.4C95.9,5.7,95.3,5.9,94.7,5.9z M92.1,5.3h2.6c0.6,0,0.9-0.1,1.3-0.3c0.3-0.1,0.4-0.5,0.4-0.9
		c0-0.7-0.3-0.8-0.6-1c-0.4-0.1-0.8-0.1-1.5-0.1H92L92.1,5.3L92.1,5.3z M108.6,2.5h-5.9v-2h5.9V2.5z M103.2,2h4.9V1.1h-4.9V2z"/>
</g>
<g id="XMLID_5_">
	<path class="st0" d="M150,14c-1.7,0-3.4-0.5-4.9-1.3c-0.2-0.1-0.3-0.4-0.2-0.6c0.1-0.2,0.3-0.4,0.6-0.4h0.4c1,0,2-0.2,2.9-0.7
		c-1.1-0.4-2-1.3-2.3-2.4c-0.1-0.1,0-0.3,0.1-0.5l0.1-0.1c-0.8-0.7-1.4-1.8-1.4-2.9c0-0.1,0.1-0.3,0.2-0.4c0.1-0.1,0.2-0.1,0.3-0.1
		c-0.3-0.6-0.5-1.2-0.5-1.9c0-0.6,0.1-1.3,0.6-1.9c0.1-0.1,0.2-0.2,0.4-0.2c0.1,0,0.3,0.1,0.4,0.1c1.5,1.8,3.6,2.9,5.9,3.2
		c0-0.4,0-0.8,0.1-1.2c0.3-1.3,1.3-2.2,2.4-2.7c1.3-0.4,2.7-0.1,3.6,0.8c0,0,0.1,0.1,0.1,0.1c0.6-0.1,1.2-0.4,1.6-0.7
		c0.1-0.1,0.4-0.1,0.6,0c0.1,0.1,0.2,0.3,0.1,0.5c-0.1,0.3-0.2,0.6-0.4,0.8c0.1,0,0.1-0.1,0.2-0.1l0,0c0.1-0.1,0.4,0,0.6,0.1
		c0.1,0.1,0.1,0.4,0,0.6c-0.4,0.6-0.8,1.1-1.4,1.5c-0.1,0.1-0.1,0.1-0.1,0.2c0,1.2-0.2,2.4-0.6,3.5c-0.5,1.2-1.1,2.2-1.9,3.1
		c-0.8,1-2,1.8-3.1,2.3C152.9,13.7,151.5,14,150,14z M145.4,12.2c1.4,0.8,3,1.3,4.7,1.3c1.4,0,2.8-0.3,4-0.8
		c1.1-0.6,2.1-1.3,2.9-2.2c0.8-0.8,1.4-1.9,1.8-2.9s0.6-2.2,0.6-3.3c0-0.3,0.1-0.6,0.3-0.7c0.5-0.3,0.8-0.8,1.2-1.2
		c-0.3,0.1-0.6,0.2-0.8,0.2l-1,0.2l0.7-0.7c0.3-0.3,0.6-0.7,0.8-1.1c-0.5,0.2-1,0.5-1.5,0.6c-0.2,0.1-0.5,0-0.6-0.1
		c-0.8-0.7-2-1-3.1-0.6c-1,0.3-1.9,1.2-2.1,2.2c-0.1,0.4-0.1,0.8-0.1,1.2c0,0.1,0,0.2-0.1,0.3s-0.1,0.1-0.3,0.1
		c-2.5-0.2-4.8-1.4-6.4-3.4c-0.2,0.5-0.4,0.9-0.4,1.5c0,0.8,0.3,1.6,0.9,2.2l0.7,0.7l-0.9-0.2c-0.2-0.1-0.5-0.1-0.7-0.2
		c0.1,1.2,0.8,2.2,1.9,2.8l1.1,0.5h-1.3c-0.1,0-0.3,0-0.5,0c0.4,1.1,1.3,1.9,2.5,2l0.7,0.1l-0.6,0.4c-1.1,0.8-2.4,1.2-3.7,1.2
		L145.4,12.2L145.4,12.2L145.4,12.2z M146,1.3L146,1.3L146,1.3z"/>
</g>
<g>
	<g id="XMLID_4_">
		<path class="st0" d="M49,14c-3.9,0-7-3.1-7-7s3.1-7,7-7s7,3.1,7,7S52.8,14,49,14z M49,0.5c-3.5,0-6.4,2.9-6.4,6.4s2.9,6.5,6.4,6.5
			s6.4-2.9,6.4-6.4S52.5,0.5,49,0.5z"/>
	</g>
	<g id="XMLID_3_">
		<path class="st0" d="M50.9,13.8l-0.6-0.1c0.7-7.2-4.9-12.2-5-12.3L45.7,1C45.7,1.1,51.6,6.2,50.9,13.8z"/>
	</g>
	<g id="XMLID_2_">
		<path class="st0" d="M45.2,12.5l-0.5-0.2c0-0.1,2.9-6.1,11-5.6v0.6C47.9,6.8,45.2,12.4,45.2,12.5z"/>
	</g>
	<g id="XMLID_1_">
		<path class="st0" d="M43.1,6.9c-0.6,0-0.9,0-0.9,0l0.1-0.6c0.1,0,6.7,0.6,11.2-4.2l0.4,0.4C50.2,6.4,45.2,6.9,43.1,6.9z"/>
	</g>
</g>
<g>
	<path class="st0" d="M191.6,14h-3.3V7.3H187V4h1.3V3.1c0-1.5,0.8-3.1,3.1-3.1h2.4v2.8H192c-0.2,0-0.3,0.1-0.3,0.3V4h2.1l-0.3,3.3
		h-2L191.6,14L191.6,14z M188.9,13.3h2.1V6.7h2.1l0.2-2.1h-2.1V3.3c0-0.7,0.5-1,0.9-1h1.2V0.6h-1.8c-2.3,0-2.5,1.9-2.5,2.5v1.6h-1.3
		v2.1h1.3L188.9,13.3C188.8,13.3,188.9,13.3,188.9,13.3z"/>
</g>
</svg>
