<?xml version="1.0" encoding="utf-8"?>
<!-- Generator: Adobe Illustrator 21.1.0, SVG Export Plug-In . SVG Version: 6.00 Build 0)  -->
<svg version="1.1" id="Layer_1" xmlns="http://www.w3.org/2000/svg" xmlns:xlink="http://www.w3.org/1999/xlink" x="0px" y="0px"
	 viewBox="0 0 22.2 14" style="enable-background:new 0 0 22.2 14;" xml:space="preserve">
<style type="text/css">
	.st0{fill:#F15379;}
</style>
<g id="Behance_3_">
	<path class="st0" d="M6.3-12H0v-14h6.8c1.7,0,3,0.6,3.7,1.6c0.5,0.6,0.7,1.3,0.7,2.2s-0.2,1.6-0.7,2.1c-0.1,0.2-0.4,0.4-0.6,0.6
		c0.5,0.2,0.8,0.6,1.2,1.1c0.4,0.6,0.6,1.3,0.6,2.1c0,0.8-0.2,1.6-0.6,2.3c-0.2,0.5-0.6,0.8-1,1.1c-0.5,0.3-1,0.6-1.6,0.7
		C7.7-12.1,7-12,6.3-12z M0.6-12.6h5.8c0.6,0,1.3-0.1,1.9-0.1c0.6-0.1,1-0.3,1.4-0.6c0.3-0.2,0.6-0.6,0.8-1c0.4-0.6,0.6-1.3,0.6-2.1
		c0-0.7-0.1-1.3-0.5-1.8l0,0c-0.3-0.5-0.8-0.8-1.4-1.1l-0.6-0.1l0.6-0.3c0.4-0.2,0.7-0.5,0.9-0.7c0.4-0.5,0.6-1,0.6-1.8
		c0-0.7-0.1-1.4-0.6-1.9c-0.6-0.8-1.7-1.3-3.3-1.3H0.5L0.6-12.6L0.6-12.6L0.6-12.6z M17.2-12.1c-1.3,0-2.5-0.4-3.6-1.3
		c-1-0.8-1.6-2.2-1.6-4.1c0-1.7,0.5-3.1,1.4-4.1c0.9-0.9,2.2-1.4,3.7-1.4c0.8,0,1.6,0.1,2.3,0.5c0.7,0.3,1.3,0.8,1.8,1.5
		c0.4,0.6,0.7,1.3,0.8,2.1l0,0c0.1,0.5,0.1,1.1,0.1,2v0.2h-7c0.1,0.7,0.4,1.3,0.8,1.5c0.3,0.2,0.8,0.3,1.3,0.3
		c0.6,0,0.9-0.1,1.3-0.4c0.1-0.1,0.3-0.3,0.5-0.6l0.1-0.1h3v0.3c-0.1,0.6-0.4,1.3-1,1.9C20.1-12.6,18.9-12.1,17.2-12.1z M17.1-22.3
		c-1.3,0-2.4,0.4-3.3,1.3c-0.8,0.9-1.3,2.1-1.3,3.7c0,1.7,0.5,2.9,1.4,3.7s2.1,1.1,3.2,1.1c1.5,0,2.6-0.5,3.5-1.3
		c0.4-0.5,0.7-0.8,0.8-1.3h-2.1c-0.1,0.2-0.3,0.5-0.5,0.6c-0.4,0.3-0.9,0.5-1.6,0.5c-0.6,0-1.1-0.1-1.6-0.4
		c-0.7-0.5-1.1-1.2-1.2-2.3v-0.3h7c0-0.7,0-1.2-0.1-1.6c-0.1-0.7-0.4-1.3-0.7-1.9c-0.4-0.6-0.9-1-1.6-1.3
		C18.6-22.2,17.9-22.3,17.1-22.3z M6.2-14.3H3.1v-4.2h3.1c0.6,0,1.1,0.1,1.5,0.2c0.6,0.3,1,0.8,1,1.7c0,0.9-0.3,1.6-1,2
		C7.4-14.4,6.8-14.3,6.2-14.3z M3.6-14.9h2.6c0.6,0,0.9-0.1,1.3-0.2c0.5-0.2,0.7-0.7,0.7-1.4c0-0.6-0.2-1-0.7-1.2
		c-0.2-0.1-0.6-0.1-1.2-0.2H3.7L3.6-14.9L3.6-14.9z M19.6-18.2h-4.9l0.1-0.3c0.1-0.7,0.3-1.3,0.8-1.6c0.4-0.4,1-0.6,1.7-0.6
		c0.6,0,1.3,0.2,1.6,0.6c0.5,0.4,0.7,0.9,0.8,1.7L19.6-18.2z M15.3-18.7h3.7c-0.1-0.5-0.2-0.8-0.6-1c-0.4-0.3-0.8-0.5-1.3-0.5
		s-1,0.1-1.3,0.5C15.6-19.5,15.4-19.1,15.3-18.7z M6.2-20.1H3.1v-3.5h2.8c0.7,0,1.3,0.1,1.6,0.2c0.4,0.1,0.9,0.6,0.9,1.5
		c0,0.7-0.2,1.2-0.7,1.4C7.4-20.3,6.8-20.1,6.2-20.1z M3.6-20.7h2.6c0.6,0,0.9-0.1,1.3-0.3c0.3-0.1,0.4-0.5,0.4-0.9
		c0-0.7-0.3-0.8-0.6-1c-0.4-0.1-0.8-0.1-1.5-0.1H3.5L3.6-20.7L3.6-20.7z M20.1-23.5h-5.9v-2h5.9V-23.5z M14.7-24h4.9v-0.8h-4.9V-24z
		"/>
</g>
<g>
	<g>
		<g id="XMLID_13_">
			<path class="st0" d="M15.6-70H6.6c-1.3,0-2.4-1.1-2.4-2.4v-9.1c0-1.4,1.1-2.4,2.4-2.4h9.1c1.3,0,2.4,1.1,2.4,2.4v9.1
				C18-71.1,17-70,15.6-70z M6.6-83.4c-1,0-1.9,0.8-1.9,1.9v9.1c0,1,0.8,1.9,1.9,1.9h9.1c1,0,1.9-0.8,1.9-1.9v-9.1
				c0-1-0.8-1.9-1.9-1.9H6.6z"/>
		</g>
		<g id="XMLID_12_">
			<path class="st0" d="M12.4-73.7H9.9c-1,0-1.9-0.8-1.9-1.9v-2.7c0-1,0.8-1.9,1.9-1.9h2.6c1,0,1.9,0.8,1.9,1.9v2.7
				C14.3-74.6,13.4-73.7,12.4-73.7z M9.8-79.7c-0.8,0-1.3,0.6-1.3,1.3v2.7c0,0.8,0.6,1.3,1.3,1.3h2.6c0.8,0,1.3-0.6,1.3-1.3v-2.6
				c0-0.8-0.6-1.3-1.3-1.3L9.8-79.7L9.8-79.7z"/>
		</g>
		<g id="XMLID_11_">
			<path class="st0" d="M12.4-73.7H9.9c-1,0-1.9-0.8-1.9-1.9v-2.7c0-1,0.8-1.9,1.9-1.9h2.6c1,0,1.9,0.8,1.9,1.9v2.7
				C14.3-74.6,13.4-73.7,12.4-73.7z M9.8-79.7c-0.8,0-1.3,0.6-1.3,1.3v2.7c0,0.8,0.6,1.3,1.3,1.3h2.6c0.8,0,1.3-0.6,1.3-1.3v-2.6
				c0-0.8-0.6-1.3-1.3-1.3L9.8-79.7L9.8-79.7z"/>
		</g>
		<g id="XMLID_10_">
			<path class="st0" d="M15.2-80.2c-0.5,0-0.8-0.4-0.8-0.8c0-0.5,0.4-0.8,0.8-0.8c0.5,0,0.8,0.4,0.8,0.8
				C16.1-80.5,15.7-80.2,15.2-80.2z M15.2-81.4c-0.1,0-0.3,0.1-0.3,0.3c0,0.1,0.1,0.3,0.3,0.3s0.3-0.1,0.3-0.3
				C15.6-81.2,15.4-81.4,15.2-81.4z"/>
		</g>
	</g>
</g>
<g>
	<g id="XMLID_17_">
		<path class="st0" d="M11.1-44c-3.9,0-7-3.1-7-7s3.1-7,7-7s7,3.1,7,7S15-44,11.1-44z M11.1-57.5c-3.5,0-6.4,2.9-6.4,6.4
			s2.9,6.5,6.4,6.5s6.4-2.9,6.4-6.4S14.6-57.5,11.1-57.5z"/>
	</g>
	<g id="XMLID_16_">
		<path class="st0" d="M13-44.2l-0.6-0.1c0.7-7.2-4.9-12.2-5-12.3L7.8-57C7.9-56.9,13.7-51.8,13-44.2z"/>
	</g>
	<g id="XMLID_15_">
		<path class="st0" d="M7.3-45.5l-0.5-0.2c0-0.1,2.9-6.1,11-5.6v0.6C10.1-51.2,7.3-45.6,7.3-45.5z"/>
	</g>
	<g id="XMLID_14_">
		<path class="st0" d="M5.2-51.1c-0.6,0-0.9,0-0.9,0l0.1-0.6c0.1,0,6.7,0.6,11.2-4.2l0.4,0.4C12.3-51.6,7.3-51.1,5.2-51.1z"/>
	</g>
</g>
<g id="XMLID_18_">
	<path class="st0" d="M7.9,14c-1.7,0-3.4-0.5-4.9-1.3c-0.2-0.1-0.3-0.4-0.2-0.6c0.1-0.2,0.3-0.4,0.6-0.4h0.4c1,0,2-0.2,2.9-0.7
		c-1.1-0.4-2-1.3-2.3-2.4c-0.1-0.1,0-0.3,0.1-0.5L4.4,8C3.6,7.3,3,6.3,3,5.1C3,5,3.1,4.8,3.2,4.7c0.1-0.1,0.2-0.1,0.3-0.1
		C3.2,4.1,3.1,3.5,3.1,2.8c0-0.6,0.1-1.3,0.6-1.9C3.8,0.8,3.9,0.7,4,0.7c0.1,0,0.3,0.1,0.4,0.1C5.9,2.6,8,3.7,10.3,4
		c0-0.4,0-0.8,0.1-1.2c0.3-1.3,1.3-2.2,2.4-2.7c1.3-0.4,2.7-0.1,3.6,0.8c0,0,0.1,0.1,0.1,0.1c0.6-0.1,1.2-0.4,1.6-0.7
		c0.1-0.1,0.4-0.1,0.6,0c0.1,0.1,0.2,0.3,0.1,0.5c-0.1,0.3-0.2,0.6-0.4,0.8c0.1,0,0.1-0.1,0.2-0.1l0,0c0.1-0.1,0.4,0,0.6,0.1
		c0.1,0.1,0.1,0.4,0,0.6C19,2.9,18.5,3.3,18,3.8c-0.1,0.1-0.1,0.1-0.1,0.2c0,1.2-0.2,2.4-0.6,3.5c-0.5,1.2-1.1,2.2-1.9,3.1
		c-0.8,1-2,1.8-3.1,2.3C10.8,13.7,9.4,14,7.9,14z M3.3,12.2c1.4,0.8,3,1.3,4.7,1.3c1.4,0,2.8-0.3,4-0.8c1.1-0.6,2.1-1.3,2.9-2.2
		c0.8-0.8,1.4-1.9,1.8-2.9s0.6-2.2,0.6-3.3c0-0.3,0.1-0.6,0.3-0.7c0.5-0.3,0.8-0.8,1.2-1.2c-0.3,0.1-0.6,0.2-0.8,0.2l-1,0.2l0.7-0.7
		c0.3-0.3,0.6-0.7,0.8-1.1c-0.5,0.2-1,0.5-1.5,0.6c-0.2,0.1-0.5,0-0.6-0.1c-0.8-0.7-2-1-3.1-0.6c-1,0.3-1.9,1.2-2.1,2.2
		c-0.1,0.4-0.1,0.8-0.1,1.2c0,0.1,0,0.2-0.1,0.3c-0.1,0.1-0.1,0.1-0.3,0.1C8,4.6,5.7,3.4,4,1.5C3.8,1.9,3.7,2.4,3.7,3
		c0,0.8,0.3,1.6,0.9,2.2l0.7,0.7L4.4,5.7C4.1,5.6,3.9,5.5,3.7,5.4c0.1,1.2,0.8,2.2,1.9,2.8l1.1,0.5H5.3c-0.1,0-0.3,0-0.5,0
		c0.4,1.1,1.3,1.9,2.5,2L8,10.8l-0.6,0.4c-1.1,0.8-2.4,1.2-3.7,1.2L3.3,12.2L3.3,12.2L3.3,12.2z M3.9,1.3L3.9,1.3L3.9,1.3z"/>
</g>
<g>
	<path class="st0" d="M12.2,40H9v-6.7H7.7V30H9v-0.9c0-1.5,0.8-3.1,3.1-3.1h2.4v2.8h-1.8c-0.2,0-0.3,0.1-0.3,0.3V30h2.1l-0.3,3.3h-2
		L12.2,40L12.2,40z M9.5,39.3h2.1v-6.6h2.1l0.2-2.1h-2.1v-1.4c0-0.7,0.5-1,0.9-1h1.2v-1.7H12c-2.3,0-2.5,1.9-2.5,2.5v1.6H8.1v2.1
		h1.3L9.5,39.3L9.5,39.3z"/>
</g>
</svg>
