<svg xmlns="http://www.w3.org/2000/svg" width="110" height="116" viewBox="0 0 110 116">
    <g fill="none" fill-rule="evenodd">
        <path fill="#C6C6C6" d="M65.338 87.108a3.054 3.054 0 0 0-4.316 0 3.048 3.048 0 0 0 0 4.313 3.053 3.053 0 0 0 4.316 0 3.048 3.048 0 0 0 0-4.313M60.115 75.079a3.053 3.053 0 0 0-4.316 0 3.047 3.047 0 0 0 0 4.311 3.052 3.052 0 0 0 4.316 0 3.046 3.046 0 0 0 0-4.311M25.181 109.983a3.054 3.054 0 0 0-4.316 0 3.048 3.048 0 0 0 0 4.313 3.054 3.054 0 0 0 4.316 0 3.048 3.048 0 0 0 0-4.313"/>
        <path fill="#000" d="M22.368 78.298a3.053 3.053 0 0 0-4.316 0 3.047 3.047 0 0 0 0 4.312 3.053 3.053 0 0 0 4.316 0 3.047 3.047 0 0 0 0-4.312M13.789 86.87a3.053 3.053 0 0 0-4.316 0 3.047 3.047 0 0 0 0 4.312 3.053 3.053 0 0 0 4.316 0 3.047 3.047 0 0 0 0-4.312M5.21 95.443a3.053 3.053 0 0 0-4.316-.001 3.048 3.048 0 0 0 0 4.312 3.052 3.052 0 0 0 4.315 0 3.046 3.046 0 0 0 0-4.311"/>
        <path fill="#C6C6C6" d="M56.758 95.681a3.053 3.053 0 0 0-4.315 0 3.048 3.048 0 0 0 0 4.312 3.052 3.052 0 0 0 4.315 0 3.046 3.046 0 0 0 0-4.312M48.179 104.253a3.054 3.054 0 0 0-4.316 0 3.048 3.048 0 0 0 0 4.312 3.053 3.053 0 0 0 4.316 0 3.047 3.047 0 0 0 0-4.312"/>
        <path fill="#000" d="M20.72 62.696a3.053 3.053 0 0 0-4.315 0 3.048 3.048 0 0 0 0 4.312 3.054 3.054 0 0 0 4.315 0 3.048 3.048 0 0 0 0-4.312M30.4 35.777a3.054 3.054 0 0 0-4.317 0 3.048 3.048 0 0 0 0 4.312 3.054 3.054 0 0 0 4.316 0 3.047 3.047 0 0 0 0-4.312M21.82 44.35a3.052 3.052 0 0 0-4.316 0 3.047 3.047 0 0 0 0 4.311 3.053 3.053 0 0 0 4.316 0 3.047 3.047 0 0 0 0-4.312M35.597 65.131c-1.178-1.176-3.098-1.165-4.29.026-.052.052-.1.108-.148.163l-.059-.059-4.677 4.672.06.06c-1.04 1.196-1.003 2.998.122 4.122 1.126 1.125 2.928 1.16 4.126.123l.008.008 4.676-4.672-.007-.008c.055-.048.11-.096.163-.149 1.192-1.19 1.204-3.11.026-4.286M13.578 52.635c-1.177-1.177-3.098-1.165-4.29.026-.053.052-.1.108-.148.163l-.059-.06-4.676 4.674.06.058c-1.04 1.197-1.004 3 .121 4.124 1.126 1.124 2.929 1.16 4.127.122l.008.007 4.676-4.672-.008-.007c.055-.048.111-.096.164-.148 1.191-1.191 1.203-3.11.025-4.287"/>
        <path fill="#C6C6C6" d="M40.435 77.545c-1.177-1.176-3.098-1.165-4.29.026-.052.052-.1.108-.148.163l-.059-.059-4.052 4.049.06.058c-1.04 1.198-1.003 2.999.122 4.123 1.126 1.125 2.928 1.161 4.126.123l.008.007 4.052-4.047-.008-.009c.055-.047.111-.095.164-.148 1.191-1.19 1.203-3.11.025-4.286M27.882 90.088c-1.177-1.177-3.098-1.165-4.29.025-.052.053-.1.109-.147.163l-.06-.059-4.675 4.673.058.059c-1.04 1.197-1.003 2.999.123 4.123 1.125 1.125 2.928 1.16 4.126.122l.008.008L27.7 94.53l-.008-.008c.055-.048.111-.095.164-.148 1.191-1.19 1.203-3.11.025-4.286M42.362 88.401l.059.059c-1.039 1.196-1.002 2.998.123 4.123 1.126 1.124 2.928 1.16 4.126.122l.008.008 4.676-4.672-.008-.008c.056-.05.112-.096.164-.149 1.192-1.19 1.203-3.109.025-4.286-1.177-1.176-3.097-1.165-4.29.026-.052.052-.099.108-.147.164l-.06-.06-4.676 4.673zM29.185 101.567l.06.06c-1.04 1.196-1.004 2.998.121 4.122 1.126 1.125 2.929 1.16 4.127.122l.008.008 4.676-4.672-.008-.007c.055-.05.11-.096.164-.149 1.191-1.19 1.203-3.11.025-4.286-1.177-1.177-3.098-1.166-4.29.026-.052.052-.1.108-.148.162l-.059-.058-4.676 4.672zM14.705 103.254c-1.177-1.176-3.098-1.165-4.29.026-.053.052-.1.107-.148.163l-.06-.059-4.675 4.673.06.059c-1.04 1.197-1.004 2.998.121 4.123 1.126 1.125 2.929 1.16 4.126.122l.009.007 4.676-4.671-.009-.008c.056-.049.112-.096.165-.149 1.191-1.19 1.203-3.11.025-4.286M109.094 47.7L72.866 36.465 48.52 60.792a3.047 3.047 0 0 1 0 4.312l-6.369 6.363.06.06c-1.04 1.196-1.003 2.997.122 4.122 1.126 1.125 2.928 1.16 4.126.122l.008.008 20.389-20.372a3.053 3.053 0 0 1 4.315 0 3.047 3.047 0 0 1 0 4.312L61.883 69l.059.059c-1.039 1.197-1.003 2.998.123 4.122 1.126 1.125 2.928 1.161 4.126.123l.007.008 4.676-4.672a3.055 3.055 0 0 1 4.315 0 3.047 3.047 0 0 1 0 4.313l-8.084 8.078.06.058c-1.04 1.197-1.004 2.999.122 4.123 1.126 1.125 2.928 1.161 4.126.123l.008.007L109.094 47.7z"/>
        <path fill="#000" d="M61.622.267l-29.455 29.43.06.06c-1.04 1.197-1.004 2.998.122 4.123 1.125 1.125 2.928 1.16 4.126.122l.008.008 3.17-3.167a3.054 3.054 0 0 1 4.315 0 3.047 3.047 0 0 1 0 4.312l-21.48 21.462.06.06c-1.04 1.196-1.003 2.997.122 4.122 1.126 1.124 2.929 1.161 4.126.122l.008.009 13.97-13.958a3.053 3.053 0 0 1 4.315 0 3.047 3.047 0 0 1 0 4.312l-7.776 7.769.06.06c-1.04 1.196-1.004 2.998.121 4.122 1.126 1.124 2.93 1.16 4.127.122l.008.008 2.575-2.573a3.054 3.054 0 0 1 4.316 0l24.346-24.326L61.622.267z"/>
        <path fill="#C6C6C6" d="M61.612.34L97.84 11.577 109.094 47.7 72.866 36.465z"/>
        <path fill="#000" d="M71.102 38.228l1.764-1.763-.818-2.615 36.23 11.235.816 2.615-1.764 1.763z"/>
    </g>
</svg>
