<svg xmlns="http://www.w3.org/2000/svg" width="109" height="119" viewBox="0 0 109 119">
    <path fill="#C6C6C6" fill-rule="evenodd" d="M77.436 30.653l31.218 10.87-10.92-31.002L66.884.12l10.552 30.532zM49.004 55.05l22.632-22.844L60.94 1.25 32.454 29.478a2.95 2.95 0 0 0 0 4.2 3.016 3.016 0 0 0 4.238 0L41.4 29.01a3.017 3.017 0 0 1 4.238 0 2.95 2.95 0 0 1 0 4.2L22.094 56.542a2.952 2.952 0 0 0 0 4.2 3.017 3.017 0 0 0 4.238 0l18.836-18.664a3.016 3.016 0 0 1 4.238 0 2.95 2.95 0 0 1 0 4.199l-10.36 10.265a2.952 2.952 0 0 0 0 4.2 3.018 3.018 0 0 0 4.239 0l5.732-5.68-.013-.012zm26.87-18.644L53.28 59.21l-.022-.022c-.1.133-.198.267-.32.388L40.459 71.942a2.951 2.951 0 0 0 0 4.2 3.017 3.017 0 0 0 4.238 0L66.83 54.21a3.016 3.016 0 0 1 4.238 0 2.951 2.951 0 0 1 0 4.2L57.412 71.941a2.95 2.95 0 0 0 0 4.2 3.017 3.017 0 0 0 4.238 0l8.948-8.867a3.016 3.016 0 0 1 4.238 0 2.951 2.951 0 0 1 0 4.2L62.592 83.608a2.95 2.95 0 0 0 0 4.199 3.016 3.016 0 0 0 4.238 0l40.738-40.368-31.693-11.033zm-43.891 64.933c-1.09-1.079-2.803-1.14-3.98-.21l-.023-.023-4.71 4.666.024.024a2.94 2.94 0 0 0 .212 3.943c1.09 1.08 2.803 1.14 3.98.21l.023.023 4.71-4.666-.025-.023a2.94 2.94 0 0 0-.211-3.944zm12.714-12.6c-1.09-1.078-2.802-1.14-3.979-.208l-.023-.024-4.71 4.666.024.024a2.94 2.94 0 0 0 .212 3.943c1.09 1.08 2.802 1.141 3.98.21l.023.024 4.708-4.667-.023-.023a2.94 2.94 0 0 0-.212-3.944zm-33.905 16.8c-1.09-1.08-2.803-1.14-3.979-.21l-.024-.023-4.709 4.666.023.023a2.941 2.941 0 0 0 .212 3.944c1.09 1.08 2.802 1.141 3.98.21l.023.024 4.71-4.667-.025-.024a2.94 2.94 0 0 0-.211-3.942zM23.506 92.94c-1.09-1.08-2.802-1.14-3.979-.21l-.023-.023-4.71 4.667.024.023a2.94 2.94 0 0 0 .212 3.942c1.09 1.08 2.802 1.142 3.979.21l.024.024 4.709-4.667-.024-.023a2.94 2.94 0 0 0-.212-3.943zm12.715-12.599c-1.09-1.08-2.803-1.14-3.98-.21l-.023-.024-4.709 4.667.024.024a2.94 2.94 0 0 0 .211 3.942c1.09 1.08 2.803 1.142 3.98.21l.024.024 4.709-4.666-.024-.024a2.94 2.94 0 0 0-.212-3.943zm-1.413-15.4c-1.09-1.079-2.802-1.14-3.979-.208l-.024-.025-4.709 4.667.024.024a2.938 2.938 0 0 0 .212 3.942c1.09 1.08 2.802 1.141 3.98.21l.022.024 4.71-4.666-.024-.023a2.941 2.941 0 0 0-.212-3.944zM11.262 54.677c-1.09-1.08-2.802-1.14-3.978-.21l-.024-.023-4.71 4.666.024.024a2.94 2.94 0 0 0 .212 3.943c1.09 1.08 2.803 1.14 3.98.21l.023.023 4.71-4.667-.025-.023a2.94 2.94 0 0 0-.212-3.943zm3.768 59.263a2.95 2.95 0 0 0 0 4.2 3.016 3.016 0 0 0 4.238 0 2.95 2.95 0 0 0 0-4.2 3.016 3.016 0 0 0-4.238 0zm33.906-33.598a2.951 2.951 0 0 0 0 4.2 3.017 3.017 0 0 0 4.238 0 2.951 2.951 0 0 0 0-4.2 3.016 3.016 0 0 0-4.238 0zm-11.773 28.465a2.95 2.95 0 0 0 0 4.2 3.016 3.016 0 0 0 4.238 0 2.95 2.95 0 0 0 0-4.2 3.016 3.016 0 0 0-4.238 0zm8.476-8.4a2.951 2.951 0 0 0 0 4.2 3.016 3.016 0 0 0 4.238 0 2.951 2.951 0 0 0 0-4.2 3.017 3.017 0 0 0-4.238 0zm8.476-8.399a2.951 2.951 0 0 0 0 4.2 3.017 3.017 0 0 0 4.239 0 2.951 2.951 0 0 0 0-4.2 3.016 3.016 0 0 0-4.239 0zM.903 94.34a2.951 2.951 0 0 0 0 4.2 3.016 3.016 0 0 0 4.238 0 2.951 2.951 0 0 0 0-4.2 3.017 3.017 0 0 0-4.238 0zm8.476-8.4a2.952 2.952 0 0 0 0 4.2 3.018 3.018 0 0 0 4.238 0 2.952 2.952 0 0 0 0-4.2 3.016 3.016 0 0 0-4.238 0zm8.476-8.398a2.95 2.95 0 0 0 0 4.199 3.016 3.016 0 0 0 4.239 0 2.95 2.95 0 0 0 0-4.2 3.016 3.016 0 0 0-4.239 0zm-2.354-31.265a2.951 2.951 0 0 0 0 4.2 3.016 3.016 0 0 0 4.238 0 2.95 2.95 0 0 0 0-4.2 3.017 3.017 0 0 0-4.238 0zm8.476-8.4a2.952 2.952 0 0 0 0 4.2 3.018 3.018 0 0 0 4.238 0 2.95 2.95 0 0 0 0-4.2 3.016 3.016 0 0 0-4.238 0zm-6.122 27.065a2.951 2.951 0 0 1 0 4.2 3.016 3.016 0 0 1-4.238 0 2.951 2.951 0 0 1 0-4.2 3.017 3.017 0 0 1 4.238 0z"/>
</svg>
