<svg xmlns="http://www.w3.org/2000/svg" width="345" height="48" viewBox="0 0 345 48">
    <g fill="#523D93" fill-rule="evenodd">
        <path d="M18.79 24.695c5.074 0 8.039-3.167 8.039-7.297v-.138c0-4.751-3.163-7.299-8.238-7.299H10.75v14.734h8.04zM.262 5.93c0-2.811 2.27-5.09 5.072-5.09h14.392c10.96 0 17.588 6.52 17.588 15.94v.132c0 10.67-8.269 16.203-18.573 16.203H10.75v8.962c0 2.473-1.695 4.69-4.115 5.156-3.439.662-6.372-1.774-6.372-4.962V5.93zM85.597 28.306l-6.388-15.27-6.389 15.27h12.777zM57.03 40.685L73.136 4.18C74.258 1.662 76.304.138 79.077.138h.594c2.773 0 4.753 1.524 5.875 4.042l16.107 36.505c.879 1.938.815 3.41-1.398 5.656-.774.786-1.816 1.305-2.917 1.3-2.363-.009-3.94-1.398-4.86-3.511l-3.103-7.288H69.043l-3.234 7.62c-.859 1.986-2.575 3.18-4.687 3.18-2.64 0-4.687-2.121-4.687-4.771 0-.729.264-1.458.594-2.186zM121.904 5.5c0-3.388 3.231-5.94 6.887-4.902 2.16.612 3.599 2.617 3.599 4.82v15.754l19.338-18.807c1.294-1.267 2.587-2.001 4.425-2.001 2.928 0 4.835 2.2 4.835 4.735 0 1.601-.749 2.801-1.907 3.869l-13.413 12.27 14.639 18.008c.817 1 1.43 2.068 1.43 3.602 0 2.867-2.247 5.001-5.311 5.001-2.042 0-3.268-1-4.426-2.467l-13.618-17.474-5.992 5.469v9.42c0 2.202-1.44 4.206-3.6 4.819-3.655 1.037-6.886-1.514-6.886-4.902V5.5zM181.326 42.76V5.689c0-2.678 2.163-4.85 4.831-4.85h27.228c1.803 0 3.48 1.053 4.162 2.729 1.358 3.338-1.13 6.393-4.35 6.393h-21.385v9.823h17.566c2.19 0 4.188 1.476 4.624 3.629.603 2.968-1.645 5.492-4.477 5.492h-17.713v9.823h21.73c2.175 0 4.153 1.46 4.618 3.592.65 2.983-1.679 5.53-4.62 5.53h-27.143c-2.8 0-5.071-2.28-5.071-5.09M251.934 9.961h-10.137c-2.15 0-4.132-1.402-4.645-3.498-.725-2.958 1.681-5.623 4.704-5.623h30.702c2.15 0 4.132 1.403 4.644 3.5.723 2.958-1.683 5.621-4.705 5.621H262.42v32.37c0 2.483-1.708 4.715-4.142 5.161-3.427.628-6.344-1.743-6.344-4.844V9.96zM333.726 24.104v-.13c0-7.782-5.685-14.265-13.697-14.265-8.01 0-13.567 6.354-13.567 14.135v.13c0 7.781 5.685 14.265 13.696 14.265 8.012 0 13.568-6.354 13.568-14.135m-37.051 0v-.13c0-12.95 10.178-23.556 24.182-23.556 14.006 0 24.055 10.476 24.055 23.425v.13c0 12.95-10.18 23.557-24.185 23.557-14.004 0-24.052-10.477-24.052-23.426"/>
    </g>
</svg>
