<svg xmlns="http://www.w3.org/2000/svg" viewBox="0 0 16 16"><defs><style>.cls-1{fill:#8f8fd1;}</style></defs><title>Asset 2</title><g id="Layer_2" data-name="Layer 2"><g id="Layer_1-2" data-name="Layer 1"><g id="_Group_" data-name="&lt;Group&gt;"><path class="cls-1" d="M8,16a8,8,0,1,1,8-8A8,8,0,0,1,8,16ZM8,.53a7.39,7.39,0,1,0,7.36,7.41A7.37,7.37,0,0,0,8,.53Z"/></g><g id="_Group_2" data-name="&lt;Group&gt;"><path class="cls-1" d="M10.24,15.73l-.64-.11c.85-8.27-5.65-13.92-5.76-14l.43-.43C4.32,1.28,11,7.09,10.24,15.73Z"/></g><g id="_Group_3" data-name="&lt;Group&gt;"><path class="cls-1" d="M3.68,14.29,3.15,14c0-.11,3.31-6.93,12.59-6.4v.64C6.83,7.73,3.68,14.19,3.68,14.29Z"/></g><g id="_Group_4" data-name="&lt;Group&gt;"><path class="cls-1" d="M1.33,7.84H.27L.37,7.2c.11,0,7.63.69,12.85-4.75l.43.43C9.44,7.31,3.68,7.84,1.33,7.84Z"/></g></g></g></svg>