<svg xmlns="http://www.w3.org/2000/svg" viewBox="0 0 19.17 16"><defs><style>.cls-1{fill:#f15379;}</style></defs><title>Asset 9</title><g id="Layer_2" data-name="Layer 2"><g id="Layer_1-2" data-name="Layer 1"><g id="_Group_" data-name="&lt;Group&gt;"><path class="cls-1" d="M5.9,16A11.41,11.41,0,0,1,.31,14.51.55.55,0,0,1,0,13.82a.69.69,0,0,1,.64-.43h.43a7,7,0,0,0,3.3-.8A4.31,4.31,0,0,1,1.74,9.82c-.11-.16,0-.37.11-.53L2,9.18A4.41,4.41,0,0,1,.36,5.83.47.47,0,0,1,.63,5.4.51.51,0,0,1,1,5.3,4.09,4.09,0,0,1,.47,3.17,3.56,3.56,0,0,1,1.11,1,.54.54,0,0,1,1.53.77.79.79,0,0,1,2,.93,10.18,10.18,0,0,0,8.72,4.55a5.62,5.62,0,0,1,.11-1.33,4.41,4.41,0,0,1,2.77-3,4.34,4.34,0,0,1,4.15.91s.11.11.16.11A5.34,5.34,0,0,0,17.77.4a.68.68,0,0,1,.64,0c.16.16.27.37.16.53a5.23,5.23,0,0,1-.43,1c.11,0,.16-.11.27-.11h0c.16-.11.43,0,.64.16a.48.48,0,0,1,0,.64,7.14,7.14,0,0,1-1.6,1.76c-.11.11-.16.16-.16.27a12.59,12.59,0,0,1-.69,4,12,12,0,0,1-2.13,3.57,10.29,10.29,0,0,1-3.57,2.66A11.13,11.13,0,0,1,5.9,16ZM.68,14A10.93,10.93,0,0,0,6,15.41a11.47,11.47,0,0,0,4.53-1,10.84,10.84,0,0,0,3.3-2.5,9.44,9.44,0,0,0,2-3.35,11.52,11.52,0,0,0,.69-3.73,1,1,0,0,1,.37-.8,10.48,10.48,0,0,0,1.33-1.33,3.74,3.74,0,0,1-1,.27l-1.17.27.8-.8a4.86,4.86,0,0,0,.91-1.22,10,10,0,0,1-1.76.69.65.65,0,0,1-.69-.16,3.59,3.59,0,0,0-3.57-.69,3.52,3.52,0,0,0-2.4,2.56A3.76,3.76,0,0,0,9.31,5a.51.51,0,0,1-.11.37.41.41,0,0,1-.37.16,10.75,10.75,0,0,1-7.3-3.83,3.67,3.67,0,0,0-.43,1.7A3.59,3.59,0,0,0,2.17,5.94l.8.8L1.9,6.47c-.27-.11-.53-.16-.8-.27A4,4,0,0,0,3.24,9.4l1.22.53h-2a3.41,3.41,0,0,0,2.82,2.29l.8.11-.64.43a7.22,7.22,0,0,1-4.26,1.33H.63V14ZM1.37,1.46Z"/></g></g></g></svg>