<svg xmlns="http://www.w3.org/2000/svg" width="296" height="296" viewBox="0 0 296 296">
    <defs>
        <filter id="a" width="123.4%" height="123.4%" x="-11.7%" y="-11.7%" filterUnits="objectBoundingBox">
            <feOffset in="SourceAlpha" result="shadowOffsetOuter1"/>
            <feGaussianBlur in="shadowOffsetOuter1" result="shadowBlurOuter1" stdDeviation="10"/>
            <feColorMatrix in="shadowBlurOuter1" result="shadowMatrixOuter1" values="0 0 0 0 0 0 0 0 0 0 0 0 0 0 0 0 0 0 0.1 0"/>
            <feMerge>
                <feMergeNode in="shadowMatrixOuter1"/>
                <feMergeNode in="SourceGraphic"/>
            </feMerge>
        </filter>
    </defs>
    <g fill="none" fill-rule="evenodd" filter="url(#a)" transform="translate(20 20)">
        <path fill="#FFF" d="M0 0h256v256H0z"/>
        <path stroke="#7ED321" stroke-width="5" d="M210 35.977L218.35 44 235 28"/>
        <g stroke="#4F4F4F" stroke-width="2">
            <path d="M144.856 85.29H115.3v-.04a3.25 3.25 0 0 0-3.251-3.25h-6.77a3.25 3.25 0 0 0-3.251 3.25v6.77a3.25 3.25 0 0 0 3.251 3.251h6.77a3.251 3.251 0 0 0 3.251-3.25v-.04h29.556a3.35 3.35 0 0 1 3.346 3.347v33.076a3.35 3.35 0 0 1-3.346 3.346h-16.285v-.039a3.25 3.25 0 0 0-3.251-3.25h-6.77a3.25 3.25 0 0 0-3.251 3.25v6.77a3.251 3.251 0 0 0 3.251 3.251h6.77a3.25 3.25 0 0 0 3.251-3.25v-.04h16.285c5.535 0 10.038-4.503 10.038-10.038V95.328c0-5.535-4.503-10.038-10.038-10.038z"/>
            <path d="M151.616 161.381h-6.771a3.25 3.25 0 0 0-3.25 3.25v.04h-29.557a3.35 3.35 0 0 1-3.346-3.347v-42.895a3.35 3.35 0 0 1 3.346-3.346h16.285v.039a3.25 3.25 0 0 0 3.25 3.25h6.772a3.25 3.25 0 0 0 3.25-3.25v-6.77a3.251 3.251 0 0 0-3.25-3.251h-6.771a3.252 3.252 0 0 0-3.251 3.251v.039h-16.285c-5.535 0-10.038 4.503-10.038 10.038v42.895c0 5.536 4.503 10.038 10.038 10.038h29.557v.04a3.25 3.25 0 0 0 3.25 3.25h6.77a3.25 3.25 0 0 0 3.25-3.25v-6.771a3.25 3.25 0 0 0-3.25-3.25z"/>
        </g>
    </g>
</svg>
