<svg xmlns="http://www.w3.org/2000/svg" xmlns:xlink="http://www.w3.org/1999/xlink" width="1150" height="570" viewBox="0 0 1150 570">
    <defs>
        <filter id="a" width="105.4%" height="111.3%" x="-2.7%" y="-5.7%" filterUnits="objectBoundingBox">
            <feOffset in="SourceAlpha" result="shadowOffsetOuter1"/>
            <feGaussianBlur in="shadowOffsetOuter1" result="shadowBlurOuter1" stdDeviation="10"/>
            <feColorMatrix in="shadowBlurOuter1" result="shadowMatrixOuter1" values="0 0 0 0 0 0 0 0 0 0 0 0 0 0 0 0 0 0 0.1 0"/>
            <feMerge>
                <feMergeNode in="shadowMatrixOuter1"/>
                <feMergeNode in="SourceGraphic"/>
            </feMerge>
        </filter>
        <path id="b" d="M0 0h1110v530H0z"/>
        <path id="d" d="M0 292h743V0H0z"/>
    </defs>
    <g fill="none" fill-rule="evenodd" filter="url(#a)" transform="translate(20 20)">
        <mask id="c" fill="#fff">
            <use xlink:href="#b"/>
        </mask>
        <use fill="#FFF" xlink:href="#b"/>
        <g mask="url(#c)">
            <g transform="translate(182 137)">
                <path stroke="#515151" stroke-width="1.199" d="M430 203.5a3.5 3.5 0 1 1-7 0 3.5 3.5 0 0 1 7 0zM467 182.5a3.5 3.5 0 1 1-7 0 3.5 3.5 0 0 1 7 0zM467 203.5a3.5 3.5 0 1 1-7 0 3.5 3.5 0 0 1 7 0z"/>
                <mask id="e" fill="#fff">
                    <use xlink:href="#d"/>
                </mask>
                <path stroke="#515151" stroke-width="1.199" d="M365 234h58v-58h-58z" mask="url(#e)"/>
                <path stroke="#515151" stroke-width="1.199" d="M423 224.386V271h-58l.062-65" mask="url(#e)"/>
                <path stroke="#515151" stroke-width="1.199" d="M388 269h35v-35h-35zM365 271h23v-23h-23zM365 248h14v-14h-14zM379 242h8v-8h-8zM382.02 243s-.046 4 0 4M365 233h233V0H365z" mask="url(#e)"/>
                <path stroke="#515151" stroke-width="1.199" d="M555.827 0H743v234l-261-.251" mask="url(#e)"/>
                <path stroke="#515151" stroke-width="1.199" d="M598 144h144V0H598zM653 235h90v-90h-90zM598 234h55v-55h-55z" mask="url(#e)"/>
                <path stroke="#515151" stroke-width="1.199" d="M598 180h35v-35h-35zM633 164s20 .192 20 0M533 203.5a3.5 3.5 0 1 1-7 0 3.5 3.5 0 0 1 7 0zM598 206.5a3.5 3.5 0 1 1-7 0 3.5 3.5 0 0 1 7 0zM684 203.5a3.5 3.5 0 1 1-7 0 3.5 3.5 0 0 1 7 0z" mask="url(#e)"/>
                <path fill="#A8A8A8" d="M419.03 270l-7.517-4.522a20.54 20.54 0 0 0 2.756-10.303c0-11.187-8.939-20.288-19.927-20.288-6.427 0-12.496 3.185-16.235 8.518L371 238.243c5.374-7.666 14.1-12.243 23.342-12.243C410.144 226 423 239.087 423 255.175A29.56 29.56 0 0 1 419.03 270" mask="url(#e)"/>
                <path fill="#A8A8A8" d="M394 184.834c-11.12 0-20.166 9.046-20.166 20.166 0 11.12 9.047 20.166 20.166 20.166 11.12 0 20.166-9.047 20.166-20.166 0-11.12-9.047-20.166-20.166-20.166M394 234c-15.99 0-29-13.01-29-29s13.01-29 29-29 29 13.01 29 29-13.01 29-29 29M495.999 184.834c-11.12 0-20.165 9.046-20.165 20.166 0 11.12 9.046 20.166 20.165 20.166 11.12 0 20.166-9.047 20.166-20.166 0-11.12-9.046-20.166-20.166-20.166m0 49.166C480.008 234 467 220.99 467 205s13.008-29 28.999-29S525 189.01 525 205s-13.01 29-29.001 29M693.321 200.584h39.356c-2.02-9.003-10.075-15.75-19.678-15.75-9.602 0-17.658 6.747-19.678 15.75M713 234C697.008 234 684 220.99 684 205s13.008-29 28.999-29S742 189.01 742 205v4.417h-48.679c2.02 9.003 10.076 15.75 19.678 15.75 6.261 0 12.064-2.837 15.918-7.784l6.968 5.43C730.345 229.923 722.003 234 713 234M562.001 184.834c-11.12 0-20.166 9.046-20.166 20.166 0 11.12 9.046 20.166 20.166 20.166 11.12 0 20.165-9.047 20.165-20.166 0-11.12-9.046-20.166-20.165-20.166m0 49.166C546.01 234 533 220.99 533 205s13.01-29 29.001-29c15.99 0 28.999 13.01 28.999 29s-13.009 29-28.999 29M439.139 206H430c0-16.541 13.457-30 30-30v9.14c-11.503 0-20.861 9.356-20.861 20.86" mask="url(#e)"/>
                <path fill="#A8A8A8" d="M411.183 189L406 181.475c4.997-3.581 10.875-5.475 17-5.475v9.197c-4.26 0-8.346 1.314-11.817 3.803M430 234h8v-58h-8zM643 197h-8.987c0-6.85-5.838-12.423-13.014-12.423-7.174 0-13.012 5.573-13.012 12.423H599c0-11.58 9.87-21 22-21s22 9.42 22 21" mask="url(#e)"/>
                <path fill="#A8A8A8" d="M677 234h-8.987v-36.302c0-7.078-5.838-12.836-13.013-12.836s-13.013 5.758-13.013 12.836v36.297H633v-36.297c0-11.965 9.87-21.698 22-21.698 12.132 0 22 9.733 22 21.698V234zM599 234h8v-58h-8zM108.5 25.523c-30.865 0-55.977 25.112-55.977 55.976 0 30.866 25.112 55.978 55.978 55.978 30.864 0 55.976-25.112 55.976-55.978 0-30.864-25.112-55.976-55.976-55.976m0 136.477C64.11 162 28 125.887 28 81.5 28 37.111 64.112 1 108.5 1S189 37.112 189 81.5c0 44.387-36.112 80.5-80.5 80.5" mask="url(#e)"/>
                <path fill="#B7B7B7" d="M155.332 36L141 15.742C154.813 6.097 171.065 1 188 1v24.761c-11.778 0-23.074 3.541-32.668 10.239" mask="url(#e)"/>
                <path fill="#A8A8A8" d="M179.773 258l-21.247-12.434a55.318 55.318 0 0 0 7.794-28.335c0-30.763-25.272-55.79-56.336-55.79-18.168 0-35.324 8.757-45.894 23.426L44 170.67C59.192 149.587 83.859 137 109.984 137 154.656 137 191 172.99 191 217.23A79.577 79.577 0 0 1 179.773 258" mask="url(#e)"/>
                <path stroke="#515151" stroke-width="1.45" d="M28 160h159V1H28z" mask="url(#e)"/>
                <path stroke="#515151" stroke-width="1.45" d="M187 132.35V260H28l.171-178" mask="url(#e)"/>
                <path stroke="#515151" stroke-width="1.45" d="M89 260h99v-99H89zM28 258h61v-61H28z" mask="url(#e)"/>
                <path stroke="#515151" stroke-width="1.45" d="M28 198h37v-37H28zM66 185h24v-24H66zM76.058 185s-.13 13 0 13" mask="url(#e)"/>
                <path stroke="#515151" stroke-dasharray="5.339,5.339" stroke-width="2.023" d="M256 82c0 38.108-30.892 69-69 69-38.108 0-69-30.892-69-69 0-38.107 30.892-69 69-69 38.108 0 69 30.893 69 69z" mask="url(#e)"/>
                <path stroke="#515151" stroke-dasharray="5.339,5.339" stroke-width="2.023" d="M177 82c0 38.108-30.892 69-69 69-38.108 0-69-30.892-69-69 0-38.107 30.892-69 69-69 38.108 0 69 30.893 69 69zM177 221c0 38.108-30.892 69-69 69-38.108 0-69-30.892-69-69 0-38.108 30.892-69 69-69 38.108 0 69 30.892 69 69zM0 142l196 128" mask="url(#e)"/>
            </g>
        </g>
    </g>
</svg>
