<svg xmlns="http://www.w3.org/2000/svg" xmlns:xlink="http://www.w3.org/1999/xlink" width="1110" height="530" viewBox="0 0 1110 530">
    <defs>
        <path id="a" d="M0 .624h87.567v87.418H0z"/>
    </defs>
    <g fill="none" fill-rule="evenodd">
        <path fill="#FFF" d="M0 0h1110v530H0z"/>
        <path fill="#523D93" d="M477.034 241.456a5.833 5.833 0 0 1 8.256 0 5.853 5.853 0 0 1 0 8.268 5.833 5.833 0 0 1-8.256 0 5.853 5.853 0 0 1 0-8.268M511.954 182.576c2.25 2.254 5.75 2.254 8 0l8.875-8.889c2.25-2.253 5.75-2.253 8 0 2.25 2.254 2.25 5.76 0 8.013l-44.25 44.318c-2.25 2.254-2.25 5.76 0 8.013s5.75 2.253 8 0l35.375-35.43c2.25-2.254 5.75-2.254 8 0 2.25 2.253 2.25 5.759 0 8.012l-19.5 19.53c-2.25 2.254-2.25 5.76 0 8.013 2.25 2.254 5.75 2.254 8 0l11-11.017c2-2.003 5.126-2.003 7.126 0l41.5-41.564-22.126-64.6-57.875 57.964c-2.375 1.878-2.375 5.384-.125 7.637"/>
        <path fill="#41A1FA" d="M603.487 169.59l-52.665 52.824c2.485 2.492 2.485 6.354 0 8.845l-23.228 23.298c-2.234 2.242-2.234 5.73 0 7.973 2.237 2.243 5.715 2.243 7.95 0l41.238-41.362c2.236-2.243 5.713-2.243 7.948 0 2.236 2.242 2.236 5.73 0 7.973l-25.463 25.54c-2.234 2.243-2.234 5.731 0 7.974 2.236 2.242 5.715 2.242 7.95 0l16.643-16.695c2.237-2.242 5.715-2.242 7.951 0 2.235 2.243 2.235 5.731 0 7.974l-22.855 22.923c-2.236 2.243-2.236 5.731 0 7.974 2.236 2.242 5.714 2.242 7.95 0l80.363-80.607-53.782-34.634z"/>
        <g transform="translate(569.702 116)">
            <mask id="b" fill="#fff">
                <use xlink:href="#a"/>
            </mask>
            <path fill="#41A1FA" d="M0 .624l64.674 21.98 22.893 65.438-65.425-22.978z" mask="url(#b)"/>
        </g>
        <path fill="#523D93" d="M496.493 190.789a5.833 5.833 0 0 1 8.256 0 5.852 5.852 0 0 1 0 8.267 5.831 5.831 0 0 1-8.256 0 5.852 5.852 0 0 1 0-8.267M479.953 205.404a5.833 5.833 0 0 1 8.256 0 5.853 5.853 0 0 1 0 8.269 5.833 5.833 0 0 1-8.256 0 5.853 5.853 0 0 1 0-8.269M484.817 264.84a5.833 5.833 0 0 1 8.257 0 5.853 5.853 0 0 1 0 8.268 5.833 5.833 0 0 1-8.257 0 5.853 5.853 0 0 1 0-8.268M469.25 281.404a5.832 5.832 0 0 1 8.256 0 5.851 5.851 0 0 1 0 8.269 5.832 5.832 0 0 1-8.256 0 5.854 5.854 0 0 1 0-8.269M452.71 296.994a5.832 5.832 0 0 1 8.255 0 5.851 5.851 0 0 1 0 8.268 5.832 5.832 0 0 1-8.256 0 5.854 5.854 0 0 1 0-8.268"/>
        <path fill="#41A1FA" d="M552.925 292.122a5.832 5.832 0 0 1 8.256 0 5.851 5.851 0 0 1 0 8.269 5.832 5.832 0 0 1-8.256 0 5.854 5.854 0 0 1 0-8.269M536.385 308.686a5.833 5.833 0 0 1 8.256 0 5.853 5.853 0 0 1 0 8.269 5.833 5.833 0 0 1-8.256 0 5.853 5.853 0 0 1 0-8.269M520.817 324.276a5.832 5.832 0 0 1 8.256 0 5.851 5.851 0 0 1 0 8.268 5.832 5.832 0 0 1-8.256 0 5.854 5.854 0 0 1 0-8.268M543.195 270.686a5.833 5.833 0 0 1 8.257 0 5.852 5.852 0 0 1 0 8.268 5.831 5.831 0 0 1-8.257 0 5.852 5.852 0 0 1 0-8.268M478.98 334.02a5.832 5.832 0 0 1 8.255 0 5.851 5.851 0 0 1 0 8.268 5.832 5.832 0 0 1-8.255 0 5.854 5.854 0 0 1 0-8.268"/>
        <path fill="#523D93" d="M589.732 181.604l-1.735-5.194 66.44 22.508 1.859 5.441-4.215 4.205-66.812-22.631zM472.73 221.877c-2.027-2.026-5.321-2.152-7.602-.38l-8.995 8.987c-1.773 2.278-1.647 5.443.38 7.595s5.321 2.152 7.602.38l8.995-8.988c1.773-2.278 1.647-5.57-.38-7.594M516.427 241.368c-2.018-2.03-5.295-2.157-7.565-.381l-8.951 9.008c-1.765 2.283-1.64 5.455.378 7.612 2.017 2.03 5.295 2.157 7.565.38l8.95-9.007c1.892-2.284 1.766-5.456-.377-7.612"/>
        <path fill="#41A1FA" d="M519.346 270.595c-2.018-2.026-5.296-2.152-7.565-.38l-8.951 8.987c-1.765 2.278-1.64 5.443.378 7.595 2.017 2.152 5.295 2.152 7.564.38l8.952-8.988c1.89-2.278 1.765-5.57-.378-7.594M495.108 294.957c-2.027-2.03-5.321-2.157-7.602-.38l-8.994 9.007c-1.774 2.285-1.647 5.457.38 7.612 2.027 2.03 5.32 2.157 7.601.382l8.995-9.009c1.773-2.283 1.647-5.58-.38-7.612M471.757 318.342c-2.027-2.03-5.321-2.156-7.602-.381l-8.995 9.009c-1.773 2.283-1.647 5.455.38 7.612 2.028 2.028 5.321 2.156 7.602.38l8.995-9.007c1.773-2.285 1.647-5.583-.38-7.613M535 286.188c-2.028-2.03-5.322-2.157-7.602-.38l-8.995 9.007c-1.773 2.284-1.647 5.456.38 7.612 2.027 2.03 5.321 2.157 7.602.381l8.994-9.008c1.774-2.283 1.647-5.582-.38-7.612M510.675 310.547c-2.027-2.03-5.32-2.157-7.601-.38l-8.995 9.007c-1.774 2.284-1.647 5.456.38 7.612 2.027 2.03 5.321 2.157 7.601.38l8.995-9.007c1.774-2.283 1.647-5.582-.38-7.612"/>
        <g fill="#523D93">
            <path d="M400.698 407.39c5.15 0 8.114-3.156 8.114-7.293v-.141c0-4.768-3.175-7.292-8.326-7.292h-7.902v14.725h8.114zM382 388.666a5.118 5.118 0 0 1 5.15-5.119h14.536c11.077 0 17.78 6.522 17.78 15.918v.14c0 10.658-8.326 16.198-18.768 16.198h-8.114v8.975c0 2.455-1.694 4.699-4.163 5.12-3.458.63-6.421-1.754-6.421-4.98v-36.252zM467.117 409.542l-6.31-14.936-6.311 14.936h12.62zM438.754 421.6l15.95-35.626c1.11-2.467 3.12-3.974 5.894-3.974h.555c2.774 0 4.716 1.507 5.825 3.974l15.95 35.626c.902 1.918.832 3.357-1.387 5.55-.763.754-1.803 1.302-2.912 1.302-2.358 0-3.884-1.37-4.855-3.426l-2.912-7.194h-20.18l-3.19 7.468c-.833 1.918-2.566 3.083-4.647 3.083-2.635 0-4.646-2.055-4.646-4.66 0-.685.208-1.438.555-2.123zM503.833 387.037c0-3.296 3.15-5.835 6.779-4.805 2.122.617 3.491 2.539 3.491 4.735v15.444l18.966-18.394c1.301-1.236 2.534-1.992 4.314-1.992 2.876 0 4.724 2.129 4.724 4.6 0 1.578-.753 2.745-1.848 3.774l-13.146 12.012 14.31 17.64c.821.962 1.369 1.991 1.369 3.5 0 2.815-2.191 4.875-5.204 4.875-1.985 0-3.218-.962-4.313-2.403l-13.352-17.091-5.888 5.353v9.199c0 2.127-1.438 4.118-3.492 4.736-3.56 1.03-6.778-1.51-6.778-4.805v-36.378h.068zM563.086 424.939v-36.607c0-2.634 2.198-4.784 4.892-4.784h27.577c1.843 0 3.544 1.04 4.253 2.704 1.347 3.328-1.134 6.31-4.395 6.31H573.72v9.706h17.794c2.198 0 4.254 1.456 4.679 3.605.638 2.912-1.702 5.408-4.537 5.408H573.72v9.706h22.048c2.197 0 4.182 1.456 4.678 3.536.638 2.981-1.701 5.477-4.678 5.477H568.26c-2.906-.07-5.175-2.288-5.175-5.061M634.29 392.61h-10.226c-2.186 0-4.161-1.395-4.655-3.486-.705-2.927 1.693-5.576 4.725-5.576h30.96c2.187 0 4.162 1.394 4.655 3.485.705 2.928-1.692 5.576-4.725 5.576H644.87v32.132c0 2.44-1.693 4.67-4.161 5.158-3.456.627-6.418-1.743-6.418-4.81v-32.48zM715.778 405.365v-.139c0-7.673-5.68-14.032-13.746-14.032s-13.607 6.29-13.607 13.894v.138c0 7.673 5.681 14.033 13.747 14.033 8.066 0 13.606-6.221 13.606-13.894m-37.172 0v-.139c0-12.788 10.24-23.226 24.267-23.226S727 392.3 727 405.088v.138c0 12.789-10.24 23.226-24.267 23.226s-24.127-10.37-24.127-23.087"/>
        </g>
    </g>
</svg>
